<svg width="210" height="262" viewBox="0 0 210 262" fill="none" xmlns="http://www.w3.org/2000/svg">
<path d="M41.2768 68.7932L63.3381 56.0314L63.5523 55.9242C74.5829 49.7042 89.6831 50.6694 106.39 60.3211C122.025 69.3294 136.269 84.4504 147.085 101.824C159.508 121.878 167.326 145.149 167.326 165.954C167.326 185.365 160.579 198.984 149.548 205.419H149.441L126.952 218.288C115.814 225.366 100.178 224.722 82.8291 214.641C49.3088 195.338 22 147.937 22 109.009C22 88.7401 29.3894 74.7987 41.2768 68.7932Z" fill="#FF4D00"/>
<path opacity="0.1" d="M127.594 218.073L149.655 205.418H149.762C160.793 199.091 167.539 185.364 167.539 165.954C167.539 145.149 159.722 121.877 147.299 101.823L123.738 115.443C136.161 135.497 143.979 158.768 143.979 179.573C143.872 198.126 137.66 211.424 127.594 218.073Z" fill="black"/>
<path opacity="0.4" d="M41.7051 68.5787C52.5215 63.3238 67.0862 64.6107 82.9361 73.8335C98.5717 82.949 112.922 97.9628 123.632 115.443L147.192 101.824C136.483 84.3432 122.132 69.3294 106.497 60.3211C89.79 50.6694 74.6899 49.7042 63.6592 55.9242L63.4451 56.0314L41.7051 68.5787Z" fill="white"/>
<path d="M44.4862 134.909L52.0301 128.793L78.2992 149.077L70.717 155.32L44.4862 134.909Z" fill="#F4F2F2"/>
<path d="M70.7165 155.321L78.2987 149.078L116.719 129.308L109.219 135.506L70.7165 155.321Z" fill="#979797"/>
<path d="M109.22 135.506L116.72 129.308L124.417 139.734L116.918 145.933L109.22 135.506Z" fill="#EFEFEF"/>
<path d="M44.4859 134.91L70.7167 155.321L109.22 135.506L116.917 145.932L72.6743 168.646L39.4452 142.865L44.4859 134.91Z" fill="white"/>
<path d="M116.5 256C106.881 263.908 88.981 262.32 64.4528 253.686C38.8614 244.678 28.3402 237.352 19 232.5C9.52584 225.744 4.29125 221.239 9.52584 210.542L0 47.0285C0.418502 49.7244 7.94691 59.3217 34.7125 76.144C61.4782 92.9662 66.497 93.2178 65.6607 91.2409C76.9523 97.1718 104.638 104.397 125.047 85.8491C145.457 67.3015 182.622 38.9409 198.654 27.0791C201.075 25.3625 208.324 14.3178 209.754 4.66132C209.821 0.824324 209.887 -0.803112 209.965 0.400952C210.053 1.76422 209.971 3.19681 209.754 4.66132C209.239 33.8136 208.628 190.513 202 202.001C194.5 215.001 171.704 218.905 116.5 256Z" fill="url(#paint0_linear_1448_573)"/>
<defs>
<linearGradient id="paint0_linear_1448_573" x1="100.039" y1="111.879" x2="109.184" y2="265.353" gradientUnits="userSpaceOnUse">
<stop offset="0.0409324" stop-color="#FF9060" stop-opacity="0"/>
<stop offset="1" stop-color="#FF4D00" stop-opacity="0.66"/>
</linearGradient>
</defs>
</svg>
