<svg width="209" height="266" viewBox="0 0 209 266" fill="none" xmlns="http://www.w3.org/2000/svg">
<path d="M39.2607 67.7983L61.4054 55.0175L61.6114 54.9144C72.6322 48.7301 87.67 49.6578 104.459 59.2434C120.114 68.3136 134.328 83.362 145.143 100.781C157.606 120.88 165.434 144.071 165.434 164.891C165.434 184.269 158.636 197.977 147.615 204.367H147.512L125.058 217.251C113.935 224.363 98.2788 223.745 80.8721 213.644C47.2946 194.163 20 146.854 20 107.996C20 87.794 27.4159 73.7764 39.2607 67.7983Z" fill="#53A5F8"/>
<path opacity="0.1" d="M125.576 216.942L147.618 204.368H147.721C158.742 197.977 165.539 184.372 165.539 164.891C165.539 144.071 157.712 120.88 145.249 100.781L121.662 114.387C134.125 134.485 141.85 157.676 141.85 178.394C141.85 196.947 135.67 210.243 125.576 216.942Z" fill="black"/>
<path opacity="0.4" d="M39.6738 67.5945C50.4887 62.3379 65.0114 63.6778 80.8732 72.8511C96.632 81.9214 110.846 96.9697 121.661 114.389L145.144 100.783C134.432 83.3644 120.116 68.316 104.46 59.3488C87.7741 49.6601 72.6333 48.7325 61.7155 54.9168L61.5095 55.0198L39.6738 67.5945Z" fill="white"/>
<path d="M45.2305 115.623C46.2605 115.829 47.2904 116.035 48.4234 116.345C50.5864 117.066 52.6464 118.2 54.7063 119.849C55.9423 120.777 56.4573 122.013 56.3543 123.972C55.6333 132.424 55.0153 140.979 54.3973 149.533C54.2943 151.183 53.7793 151.698 52.7494 151.595C52.2344 151.492 51.7194 151.492 51.2044 151.389C50.6894 151.286 50.1744 151.183 49.5564 151.183C48.1144 139.329 46.6724 127.579 45.2305 115.623Z" fill="white"/>
<mask id="mask0_1448_572" style="mask-type:luminance" maskUnits="userSpaceOnUse" x="45" y="113" width="18" height="39">
<path d="M59.2416 149.95L53.3707 151.599C53.9887 151.393 54.2977 150.774 54.4007 149.538C55.0187 140.983 55.6367 132.428 56.2547 123.873C56.3577 122.018 55.8427 120.781 54.6067 119.75C52.5467 118.101 50.3838 116.967 48.3238 116.246C47.2938 115.936 46.2638 115.73 45.1309 115.524L51.0018 113.875C52.0318 114.081 53.0617 114.287 54.1947 114.596C56.3577 115.318 58.4177 116.452 60.4776 118.101C61.7136 119.029 62.2286 120.265 62.1256 122.224C61.5076 130.779 60.8896 139.334 60.2716 147.888C60.1686 149.125 59.8596 149.744 59.2416 149.95Z" fill="white"/>
</mask>
<g mask="url(#mask0_1448_572)">
<path d="M45.2314 115.628L51.1024 113.979C51.8233 114.185 52.5443 114.288 53.2653 114.494L47.3944 116.143C46.6734 115.937 45.9524 115.834 45.2314 115.628Z" fill="#A8A8A8"/>
<path d="M47.3965 116.145L53.2674 114.496C53.5764 114.599 53.7824 114.599 54.0914 114.702L48.2205 116.351C47.9115 116.248 47.6025 116.145 47.3965 116.145Z" fill="#ADADAD"/>
<path d="M48.2188 116.35L54.0897 114.701H54.1927C54.3987 114.804 54.7077 114.907 54.9136 114.907L49.0427 116.556C48.8367 116.453 48.5277 116.35 48.3217 116.35H48.2188Z" fill="#B3B3B3"/>
<path d="M49.042 116.659L54.9129 115.01C55.2219 115.113 55.5309 115.216 55.8399 115.319L49.969 116.968C49.66 116.865 49.351 116.762 49.042 116.659Z" fill="#B8B8B8"/>
<path d="M49.9688 116.969L55.8397 115.32C56.1487 115.423 56.4576 115.63 56.6636 115.733L50.7927 117.382C50.4837 117.279 50.2777 117.073 49.9688 116.969Z" fill="#BDBDBD"/>
<path d="M50.793 117.38L56.6639 115.73C56.9729 115.834 57.2819 116.04 57.4879 116.143L51.617 117.792C51.411 117.689 51.102 117.483 50.793 117.38Z" fill="#C2C2C2"/>
<path d="M51.7207 117.793L57.5916 116.144C57.9006 116.35 58.2096 116.453 58.4156 116.659L52.5447 118.308C52.2357 118.205 51.9267 117.999 51.7207 117.793Z" fill="#C7C7C7"/>
<path d="M52.5439 118.306L58.4149 116.657C58.7238 116.863 59.0328 117.07 59.2388 117.173L53.3679 118.822C53.0589 118.719 52.8529 118.513 52.5439 118.306Z" fill="#CCCCCC"/>
<path d="M53.3691 118.926L59.24 117.276C59.549 117.483 59.858 117.689 60.064 117.895L54.1931 119.544C53.9871 119.338 53.6781 119.132 53.3691 118.926Z" fill="#D1D1D1"/>
<path d="M54.2939 119.543L60.1649 117.894C60.2679 117.997 60.4739 118.1 60.5768 118.203L60.6798 118.306L54.8089 119.955L54.7059 119.852C54.4999 119.749 54.3969 119.646 54.2939 119.543Z" fill="#D6D6D6"/>
<path d="M54.8105 119.958L60.6815 118.309C60.7845 118.309 60.7845 118.412 60.8875 118.412L54.9135 120.061L54.8105 119.958Z" fill="#DBDBDB"/>
<path d="M54.9121 120.06L60.783 118.411L60.886 118.514L55.0151 120.163C55.0151 120.163 55.0151 120.06 54.9121 120.06Z" fill="#E0E0E0"/>
<path d="M55.1211 120.163L60.992 118.514L61.095 118.617L55.2241 120.266C55.2241 120.266 55.1211 120.266 55.1211 120.163Z" fill="#E6E6E6"/>
<path d="M55.2227 120.371L61.0936 118.722L61.1966 118.825L55.3257 120.474C55.3257 120.371 55.2227 120.371 55.2227 120.371Z" fill="#EBEBEB"/>
<path d="M55.3262 120.471L61.1971 118.822L61.3001 118.925L55.4292 120.574C55.4292 120.574 55.4292 120.471 55.3262 120.471Z" fill="#F0F0F0"/>
<path d="M55.4277 120.576L61.2986 118.927L61.4016 119.03L55.5307 120.679C55.5307 120.679 55.5307 120.679 55.4277 120.576Z" fill="#F5F5F5"/>
<path d="M55.5293 120.782L61.4002 119.133L61.5032 119.236L55.6323 120.885C55.6323 120.885 55.6323 120.782 55.5293 120.782Z" fill="#FAFAFA"/>
<path d="M55.6328 120.884L61.5037 119.235L61.6067 119.338L55.7358 120.988L55.6328 120.884Z" fill="white"/>
<path d="M55.7393 120.989L61.6102 119.34L61.7132 119.443L55.8423 121.092C55.8423 121.092 55.7393 121.092 55.7393 120.989Z" fill="white"/>
<path d="M55.8408 121.194L61.7117 119.545C61.8147 119.648 61.8147 119.751 61.8147 119.854L55.9438 121.503C55.9438 121.4 55.8408 121.297 55.8408 121.194Z" fill="white"/>
<path d="M55.9434 121.503L61.8143 119.854C61.8143 119.854 61.8143 119.854 61.8143 119.957L55.9434 121.503Z" fill="white"/>
<path d="M56.0459 121.503L61.9168 119.854C61.9168 119.957 62.0198 119.957 62.0198 120.06L56.0459 121.709C56.0459 121.709 56.0459 121.606 56.0459 121.503Z" fill="white"/>
<path d="M56.0459 121.708L61.9168 120.059V120.162L56.0459 121.811C56.1489 121.811 56.0459 121.811 56.0459 121.708Z" fill="white"/>
<path d="M56.1475 121.913L62.0184 120.264V120.367L56.1475 122.016C56.1475 121.913 56.1475 121.913 56.1475 121.913Z" fill="white"/>
<path d="M56.1475 122.018L62.0184 120.369V120.472L56.1475 122.018Z" fill="#FAFAFA"/>
<path d="M56.1475 122.121L62.0184 120.472V120.575L56.1475 122.121Z" fill="#F5F5F5"/>
<path d="M56.1475 122.225L62.0184 120.576V120.679L56.1475 122.225C56.2505 122.225 56.2505 122.225 56.1475 122.225Z" fill="#F0F0F0"/>
<path d="M56.251 122.327L62.1219 120.678V120.781L56.251 122.43C56.251 122.327 56.251 122.327 56.251 122.327Z" fill="#EBEBEB"/>
<path d="M56.251 122.431L62.1219 120.782V120.885L56.251 122.534C56.251 122.431 56.251 122.431 56.251 122.431Z" fill="#E6E6E6"/>
<path d="M56.251 122.532L62.1219 120.883V120.986L56.251 122.635C56.251 122.532 56.251 122.532 56.251 122.532Z" fill="#E0E0E0"/>
<path d="M56.251 122.635L62.1219 120.986V121.089L56.251 122.739V122.635Z" fill="#DBDBDB"/>
<path d="M56.251 122.739L62.1219 121.09V121.193L56.251 122.842C56.251 122.842 56.251 122.842 56.251 122.739Z" fill="#D6D6D6"/>
<path d="M56.251 122.944L62.1219 121.295V121.398L56.251 123.047V122.944Z" fill="#D1D1D1"/>
<path d="M56.251 123.049L62.1219 121.399C62.1219 121.502 62.1219 121.502 62.1219 121.606L56.251 123.255C56.354 123.152 56.354 123.152 56.251 123.049Z" fill="#CCCCCC"/>
<path d="M56.3564 123.256L62.2274 121.606C62.2274 121.71 62.2274 121.71 62.2274 121.813L56.3564 123.462C56.3564 123.359 56.3564 123.256 56.3564 123.256Z" fill="#C7C7C7"/>
<path d="M56.3564 123.358L62.2274 121.709C62.2274 121.812 62.2274 121.812 62.2274 121.915L56.3564 123.564C56.3564 123.564 56.3564 123.461 56.3564 123.358Z" fill="#C2C2C2"/>
<path d="M56.3546 123.562L62.2255 121.913C62.2255 122.016 62.2255 122.016 62.2255 122.119L56.3546 123.768C56.2516 123.768 56.2516 123.665 56.3546 123.562Z" fill="#BDBDBD"/>
<path d="M56.2514 123.873L62.1223 122.224C62.1223 122.224 62.1223 122.224 62.1223 122.327C61.5044 130.882 60.8864 139.436 60.2684 147.991C60.2684 148.094 60.2684 148.094 60.2684 148.198L54.3975 149.847C54.3975 149.744 54.3975 149.744 54.3975 149.641C55.0155 140.983 55.6334 132.428 56.2514 123.873Z" fill="#B8B8B8"/>
<path d="M54.3975 149.745L60.2684 148.096C60.2684 148.199 60.2684 148.199 60.2684 148.302L54.3975 149.951C54.3975 149.951 54.3975 149.848 54.3975 149.745Z" fill="#B3B3B3"/>
<path d="M54.3975 149.952L60.2684 148.303C60.2684 148.406 60.2684 148.406 60.2684 148.509L54.3975 150.158C54.3975 150.158 54.3975 150.055 54.3975 149.952Z" fill="#ADADAD"/>
<path d="M54.3975 150.157L60.2684 148.508C60.2684 148.611 60.2684 148.611 60.2684 148.714L54.3975 150.363C54.3975 150.26 54.3975 150.26 54.3975 150.157Z" fill="#A8A8A8"/>
<path d="M54.2939 150.363L60.1649 148.714V148.817L54.2939 150.466V150.363Z" fill="#A3A3A3"/>
<path d="M54.2939 150.466L60.1649 148.816V148.919L54.2939 150.569C54.2939 150.569 54.2939 150.569 54.2939 150.466Z" fill="#9E9E9E"/>
<path d="M54.2939 150.671L60.1649 149.021V149.125L54.2939 150.774C54.2939 150.671 54.2939 150.671 54.2939 150.671Z" fill="#999999"/>
<path d="M54.1924 150.776L60.0633 149.127V149.23L54.1924 150.879V150.776Z" fill="#949494"/>
<path d="M54.1928 150.876L60.0638 149.227C60.0638 149.227 60.0638 149.33 59.9608 149.33L54.0898 150.979C54.1928 150.979 54.1928 150.876 54.1928 150.876Z" fill="#8F8F8F"/>
<path d="M54.0903 150.981L59.9612 149.332C59.9612 149.332 59.9612 149.435 59.8582 149.435L53.9873 151.084C54.0903 151.084 54.0903 151.084 54.0903 150.981Z" fill="#8A8A8A"/>
<path d="M54.0906 151.187L59.9616 149.538C59.8586 149.744 59.6526 149.95 59.3436 150.053L53.4727 151.703C53.6787 151.496 53.8846 151.393 54.0906 151.187Z" fill="#858585"/>
</g>
<mask id="mask1_1448_572" style="mask-type:luminance" maskUnits="userSpaceOnUse" x="65" y="139" width="7" height="4">
<path d="M71.7008 141.083C69.7438 141.598 67.7868 142.216 65.8298 142.732C65.5209 142.319 65.2119 141.804 65.0059 141.289C66.9628 140.773 68.9198 140.155 70.8768 139.64C71.0828 140.155 71.3918 140.67 71.7008 141.083Z" fill="white"/>
</mask>
<g mask="url(#mask1_1448_572)">
<path d="M65.0059 141.083L70.8768 139.434C70.8768 139.537 70.8768 139.537 70.9798 139.64L65.1089 141.289C65.1089 141.186 65.0059 141.186 65.0059 141.083Z" fill="white"/>
<path d="M65.1074 141.288L70.9783 139.639C71.0813 139.845 71.1843 140.051 71.1843 140.154L65.3134 141.803C65.2104 141.597 65.2104 141.494 65.1074 141.288Z" fill="white"/>
<path d="M65.3164 141.805L71.1873 140.156C71.2903 140.259 71.2903 140.362 71.3933 140.465L65.5224 142.115C65.4194 142.012 65.4194 141.908 65.3164 141.805Z" fill="white"/>
<path d="M65.5225 142.114L71.3934 140.465C71.4964 140.568 71.4964 140.671 71.5994 140.774L65.7285 142.423C65.6255 142.32 65.5225 142.217 65.5225 142.114Z" fill="white"/>
<path d="M65.7256 142.426L71.5965 140.776C71.6995 140.879 71.6995 140.983 71.8025 140.983L65.9316 142.632C65.8286 142.529 65.7256 142.426 65.7256 142.426Z" fill="#FAFAFA"/>
<path d="M65.8291 142.63L71.7 140.98C71.803 141.084 71.803 141.084 71.906 141.187L66.0351 142.836C65.9321 142.733 65.9321 142.733 65.8291 142.63Z" fill="#F5F5F5"/>
</g>
<mask id="mask2_1448_572" style="mask-type:luminance" maskUnits="userSpaceOnUse" x="74" y="162" width="7" height="3">
<path d="M74.2784 163.862L80.1493 162.213C80.0463 162.419 80.1493 162.831 80.1493 163.141L74.2784 164.79C74.1754 164.48 74.1754 163.965 74.2784 163.862Z" fill="white"/>
</mask>
<g mask="url(#mask2_1448_572)">
<path d="M74.1748 164.274L80.0457 162.625C80.0457 162.625 80.0457 162.625 80.0457 162.728L74.1748 164.274Z" fill="#D1D1D1"/>
<path d="M74.1748 164.274L80.0457 162.625C80.0457 162.625 80.0457 162.625 80.0457 162.728L74.1748 164.274Z" fill="#D6D6D6"/>
<path d="M74.1748 164.38L80.0457 162.73C80.0457 162.73 80.0457 162.73 80.0457 162.834L74.1748 164.38Z" fill="#DBDBDB"/>
<path d="M74.1748 164.38L80.0457 162.73C80.0457 162.73 80.0457 162.73 80.0457 162.834L74.1748 164.38C74.1748 164.483 74.1748 164.483 74.1748 164.38Z" fill="#E0E0E0"/>
<path d="M74.1748 164.479L80.0457 162.83C80.0457 162.83 80.0457 162.83 80.0457 162.933L74.1748 164.479Z" fill="#E6E6E6"/>
<path d="M74.1748 164.585L80.0457 162.936C80.0457 162.936 80.0457 162.936 80.0457 163.039L74.1748 164.585Z" fill="#EBEBEB"/>
<path d="M74.2773 164.585L80.1483 162.936C80.1483 162.936 80.1483 162.936 80.1483 163.039L74.2773 164.585Z" fill="#F0F0F0"/>
<path d="M74.2773 164.686L80.1483 163.037C80.1483 163.037 80.1483 163.037 80.1483 163.14L74.2773 164.686Z" fill="#F5F5F5"/>
</g>
<mask id="mask3_1448_572" style="mask-type:luminance" maskUnits="userSpaceOnUse" x="74" y="162" width="7" height="2">
<path d="M74.3798 163.755L80.2507 162.105C80.1477 162.105 80.1477 162.209 80.0447 162.209L74.1738 163.858C74.2768 163.755 74.3798 163.755 74.3798 163.755Z" fill="white"/>
</mask>
<g mask="url(#mask3_1448_572)">
<path d="M74.3798 163.755L80.2507 162.105C80.1477 162.105 80.1477 162.209 80.0447 162.209L74.1738 163.858C74.2768 163.755 74.3798 163.755 74.3798 163.755Z" fill="#858585"/>
</g>
<mask id="mask4_1448_572" style="mask-type:luminance" maskUnits="userSpaceOnUse" x="65" y="140" width="11" height="5">
<path d="M75.0008 142.634C75.1038 142.634 75.3098 142.531 75.4128 142.531L69.5419 144.181C69.4389 144.181 69.2329 144.284 69.1299 144.284C68.8209 144.387 68.5119 144.387 68.2029 144.284C67.276 144.181 66.452 143.562 65.834 142.634C67.791 142.119 69.7479 141.501 71.7049 140.985C72.3229 141.913 73.1469 142.428 74.0739 142.634C74.3829 142.738 74.6918 142.738 75.0008 142.634Z" fill="white"/>
</mask>
<g mask="url(#mask4_1448_572)">
<path d="M65.834 142.634L71.7049 140.985C71.8079 141.088 71.8079 141.088 71.9109 141.191L66.04 142.841C65.937 142.738 65.937 142.738 65.834 142.634Z" fill="#F5F5F5"/>
<path d="M66.0391 142.84L71.91 141.19C72.013 141.294 72.013 141.293 72.116 141.397L66.2451 143.046C66.1421 142.943 66.0391 142.943 66.0391 142.84Z" fill="#F0F0F0"/>
<path d="M66.1445 143.048L72.0154 141.398C72.0154 141.502 72.1184 141.502 72.1184 141.605L66.3505 143.151C66.2475 143.151 66.2475 143.048 66.1445 143.048Z" fill="#EBEBEB"/>
<path d="M66.3506 143.152L72.2215 141.503C72.2215 141.606 72.3245 141.606 72.3245 141.606L66.4536 143.255C66.4536 143.255 66.3506 143.255 66.3506 143.152Z" fill="#E6E6E6"/>
<path d="M66.4512 143.357L72.3221 141.708L72.4251 141.811L66.5542 143.46C66.5542 143.46 66.5542 143.357 66.4512 143.357Z" fill="#E0E0E0"/>
<path d="M66.5537 143.459L72.4246 141.81L72.5276 141.913L66.6567 143.562C66.6567 143.562 66.6567 143.459 66.5537 143.459Z" fill="#DBDBDB"/>
<path d="M66.7637 143.563L72.6346 141.914L72.7376 142.017L66.8667 143.666C66.8667 143.666 66.7637 143.666 66.7637 143.563Z" fill="#D6D6D6"/>
<path d="M66.8643 143.666L72.7352 142.017L72.8382 142.12L66.9673 143.769C66.9673 143.769 66.9673 143.769 66.8643 143.666Z" fill="#D1D1D1"/>
<path d="M66.9678 143.768L72.8387 142.119L72.9417 142.222L67.0708 143.871C67.0708 143.871 67.0708 143.871 66.9678 143.768Z" fill="#CCCCCC"/>
<path d="M67.1709 143.872L73.0418 142.223L73.1448 142.326L67.2739 143.975L67.1709 143.872Z" fill="#C7C7C7"/>
<path d="M67.2754 143.976L73.1463 142.327L73.2493 142.43L67.3784 144.079C67.3784 143.976 67.3784 143.976 67.2754 143.976Z" fill="#C2C2C2"/>
<path d="M67.4824 144.077L73.3533 142.428C73.3533 142.428 73.4563 142.428 73.4563 142.531L67.5854 144.18C67.5854 144.077 67.4824 144.077 67.4824 144.077Z" fill="#BDBDBD"/>
<path d="M67.5859 144.077L73.4568 142.428C73.4568 142.428 73.5598 142.428 73.5598 142.531L67.6889 144.18C67.6889 144.18 67.6889 144.18 67.5859 144.077Z" fill="#B8B8B8"/>
<path d="M67.7891 144.18L73.66 142.531C73.763 142.531 73.763 142.531 73.866 142.634L67.9951 144.283C67.8921 144.18 67.7891 144.18 67.7891 144.18Z" fill="#B3B3B3"/>
<path d="M67.8926 144.18L73.7635 142.531C73.8665 142.531 73.8665 142.531 73.9695 142.531L68.0986 144.18C67.9956 144.283 67.9956 144.283 67.8926 144.18Z" fill="#ADADAD"/>
<path d="M68.0996 144.283L73.9705 142.634C74.0735 142.634 74.0735 142.634 74.1765 142.634L68.3056 144.283C68.2026 144.283 68.0996 144.283 68.0996 144.283Z" fill="#A8A8A8"/>
<path d="M68.2041 144.283L74.075 142.634C74.075 142.634 74.075 142.634 74.178 142.634H74.281L68.4101 144.386C68.4101 144.386 68.3071 144.283 68.2041 144.283C68.3071 144.283 68.3071 144.283 68.2041 144.283Z" fill="#A3A3A3"/>
<path d="M68.4072 144.387L74.2781 142.738C74.3811 142.738 74.3811 142.738 74.4841 142.738L68.6132 144.387C68.6132 144.387 68.5102 144.387 68.4072 144.387Z" fill="#9E9E9E"/>
<path d="M68.6172 144.387L74.4881 142.738C74.5911 142.738 74.6941 142.738 74.6941 142.738L68.8232 144.387C68.8232 144.387 68.7202 144.387 68.6172 144.387Z" fill="#999999"/>
<path d="M68.9238 144.387L74.7947 142.738C74.8977 142.738 75.0007 142.738 75.1037 142.738L69.2328 144.387C69.0268 144.387 69.0268 144.387 68.9238 144.387Z" fill="#949494"/>
<path d="M69.1309 144.283L75.0018 142.634C75.0018 142.634 75.0018 142.634 75.1048 142.634C75.2078 142.634 75.4138 142.531 75.5168 142.531L69.6459 144.18C69.4399 144.283 69.3369 144.283 69.1309 144.283Z" fill="#8F8F8F"/>
<path d="M69.6445 144.18L75.4124 142.531L69.6445 144.18Z" fill="#8A8A8A"/>
</g>
<mask id="mask5_1448_572" style="mask-type:luminance" maskUnits="userSpaceOnUse" x="57" y="124" width="17" height="4">
<path d="M57.3887 125.728L63.2596 124.079C66.5555 124.594 69.8515 125.11 73.1474 125.625L67.2765 127.274C63.9806 126.656 60.6846 126.244 57.3887 125.728Z" fill="white"/>
</mask>
<g mask="url(#mask5_1448_572)">
<path d="M57.3887 125.728L63.2596 124.079C66.5555 124.594 69.8515 125.11 73.1474 125.625L67.2765 127.274C63.9806 126.656 60.6846 126.244 57.3887 125.728Z" fill="#A3A3A3"/>
</g>
<mask id="mask6_1448_572" style="mask-type:luminance" maskUnits="userSpaceOnUse" x="64" y="125" width="10" height="17">
<path d="M70.8775 139.536C68.9205 140.052 66.9636 140.67 65.0066 141.185C64.4916 140.052 64.1826 138.609 64.1826 137.166C64.1826 134.486 64.9036 132.424 65.7276 130.363C66.1396 129.229 66.6546 128.198 67.1696 127.168L73.0405 125.519C72.5255 126.652 72.0105 127.683 71.5985 128.714C70.7745 130.672 70.0535 132.734 70.0535 135.516C70.0535 137.063 70.3625 138.402 70.8775 139.536Z" fill="white"/>
</mask>
<g mask="url(#mask6_1448_572)">
<path d="M67.273 127.168L73.1439 125.519C72.6289 126.549 72.114 127.58 71.702 128.611L65.8311 130.363C66.243 129.229 66.758 128.301 67.273 127.168Z" fill="#8F8F8F"/>
<path d="M65.8309 130.363L71.7018 128.714V128.817C71.4958 129.332 71.2898 129.951 71.0838 130.569L65.2129 132.218C65.3159 131.6 65.5219 130.981 65.8309 130.363Z" fill="#949494"/>
<path d="M65.1098 132.115L70.9807 130.466C70.8777 130.775 70.7747 131.084 70.6717 131.393L64.8008 133.043C64.9038 132.733 65.0068 132.424 65.1098 132.115Z" fill="#999999"/>
<path d="M64.8017 133.043L70.6726 131.394C70.5696 131.6 70.5696 131.806 70.4666 132.115L64.5957 133.764C64.6987 133.558 64.8017 133.352 64.8017 133.043Z" fill="#9E9E9E"/>
<path d="M64.6987 133.765L70.5696 132.116C70.5696 132.322 70.4666 132.529 70.4666 132.735L64.5957 134.384C64.5957 134.178 64.5957 133.971 64.6987 133.765Z" fill="#A3A3A3"/>
<path d="M64.5932 134.384L70.4641 132.735C70.4641 132.941 70.3611 133.045 70.3611 133.251L64.4902 134.9C64.4902 134.694 64.4902 134.488 64.5932 134.384Z" fill="#A8A8A8"/>
<path d="M64.4897 134.897L70.3606 133.248C70.3606 133.351 70.3606 133.557 70.2576 133.763L64.3867 135.413C64.3867 135.206 64.3867 135 64.4897 134.897Z" fill="#ADADAD"/>
<path d="M64.3867 135.308L70.2576 133.659C70.2576 133.762 70.2576 133.968 70.2576 134.071L64.3867 135.721C64.3867 135.618 64.3867 135.514 64.3867 135.308Z" fill="#B3B3B3"/>
<path d="M64.3882 135.723L70.2591 134.074C70.2591 134.177 70.2591 134.383 70.2591 134.487L64.2852 136.239C64.2852 136.033 64.2852 135.929 64.3882 135.723Z" fill="#B8B8B8"/>
<path d="M64.2852 136.237L70.1561 134.588C70.1561 134.691 70.1561 134.897 70.1561 135L64.2852 136.649C64.2852 136.443 64.2852 136.34 64.2852 136.237Z" fill="#BDBDBD"/>
<path d="M64.2852 136.649L70.1561 135C70.1561 135.103 70.1561 135.309 70.1561 135.412L64.2852 137.061C64.2852 136.855 64.2852 136.752 64.2852 136.649Z" fill="#C2C2C2"/>
<path d="M64.2852 137.062L70.1561 135.413C70.1561 135.516 70.1561 135.516 70.1561 135.619C70.1561 135.722 70.1561 135.722 70.1561 135.825L64.2852 137.371C64.2852 137.268 64.2852 137.268 64.2852 137.165V137.062Z" fill="#C7C7C7"/>
<path d="M64.2852 137.373L70.1561 135.724C70.1561 135.827 70.1561 135.93 70.1561 136.033L64.2852 137.682C64.2852 137.579 64.2852 137.476 64.2852 137.373Z" fill="#CCCCCC"/>
<path d="M64.2852 137.679L70.1561 136.03C70.1561 136.133 70.1561 136.236 70.1561 136.339L64.2852 137.989C64.2852 137.886 64.2852 137.782 64.2852 137.679Z" fill="#D1D1D1"/>
<path d="M64.2852 137.991L70.1561 136.342C70.1561 136.445 70.1561 136.548 70.1561 136.651L64.2852 138.3C64.2852 138.197 64.2852 138.094 64.2852 137.991Z" fill="#D6D6D6"/>
<path d="M64.2852 138.3L70.1561 136.65C70.1561 136.753 70.1561 136.857 70.1561 136.96L64.2852 138.609C64.3882 138.403 64.3882 138.403 64.2852 138.3Z" fill="#DBDBDB"/>
<path d="M64.3867 138.505L70.2576 136.855C70.2576 136.959 70.2576 137.062 70.2576 137.165L64.3867 138.814C64.3867 138.711 64.3867 138.608 64.3867 138.505Z" fill="#E0E0E0"/>
<path d="M64.3867 138.814L70.2576 137.165C70.2576 137.268 70.2576 137.371 70.2576 137.371L64.3867 139.02C64.3867 139.02 64.3867 138.917 64.3867 138.814Z" fill="#E6E6E6"/>
<path d="M64.3867 139.019L70.2576 137.37C70.2576 137.473 70.2576 137.576 70.2576 137.576L64.3867 139.225C64.4897 139.225 64.4897 139.122 64.3867 139.019Z" fill="#EBEBEB"/>
<path d="M64.4902 139.329L70.3611 137.68C70.3611 137.783 70.3611 137.886 70.3611 137.886L64.4902 139.535C64.4902 139.432 64.4902 139.329 64.4902 139.329Z" fill="#F0F0F0"/>
<path d="M64.4902 139.537L70.3611 137.888C70.3611 137.991 70.3611 137.991 70.4641 138.094L64.5932 139.743C64.5932 139.64 64.5932 139.64 64.4902 139.537Z" fill="#F5F5F5"/>
<path d="M64.5957 139.743L70.4666 138.094C70.4666 138.197 70.4666 138.3 70.5696 138.3L64.6987 139.949C64.5957 139.949 64.5957 139.846 64.5957 139.743Z" fill="#FAFAFA"/>
<path d="M64.5957 140.051L70.4666 138.401C70.4666 138.504 70.4666 138.608 70.5696 138.608L64.6987 140.257C64.6987 140.154 64.6987 140.051 64.5957 140.051Z" fill="white"/>
<path d="M64.6973 140.257L70.5682 138.607C70.5682 138.71 70.6712 138.814 70.6712 138.917L64.8003 140.566C64.8003 140.463 64.6973 140.36 64.6973 140.257Z" fill="white"/>
<path d="M64.8008 140.568L70.6717 138.919C70.7747 139.125 70.7747 139.331 70.8777 139.537L65.0068 141.187C64.9038 140.98 64.9038 140.774 64.8008 140.568Z" fill="white"/>
<path d="M65.0039 141.082L70.8748 139.433C70.8748 139.536 70.8748 139.536 70.9778 139.639L65.1069 141.288C65.1069 141.185 65.0039 141.185 65.0039 141.082Z" fill="white"/>
</g>
<path d="M86.7408 173.859C86.7408 173.756 86.7408 173.756 86.7408 173.756V173.653V173.55V173.447V173.344V173.241C86.7408 173.138 86.7408 173.138 86.6378 173.034C86.6378 172.931 86.5348 172.828 86.5348 172.622V172.519V172.416V172.313C86.5348 172.21 86.4318 172.21 86.4318 172.107C86.4318 172.004 86.3288 172.004 86.3288 171.901C86.3288 171.798 86.2258 171.798 86.2258 171.695C86.2258 171.695 86.2258 171.695 86.2258 171.591C84.4748 169.015 82.7238 166.438 80.8699 163.861C80.8699 163.861 80.8699 163.861 80.8699 163.758C80.8699 163.655 80.7669 163.655 80.7669 163.552C80.6639 163.449 80.6639 163.346 80.5609 163.14L74.793 164.789C74.793 164.789 74.793 164.789 74.793 164.892V164.995C74.793 164.995 74.793 164.995 74.793 165.098V165.201C74.793 165.201 74.793 165.304 74.896 165.304L74.999 165.407L75.102 165.51C76.8529 168.087 78.7069 170.664 80.4579 173.241C80.5609 173.447 80.7669 173.653 80.8699 173.962C80.8699 173.962 80.8699 173.962 80.8699 174.065C80.9729 174.271 81.0759 174.581 81.1789 174.787C81.2819 174.993 81.2819 175.302 81.3849 175.508C81.3849 175.714 81.3849 176.024 81.3849 176.23C81.3849 176.436 81.3849 176.642 81.2819 176.848C81.2819 177.054 81.1789 177.26 81.0759 177.363C80.9729 177.467 80.9729 177.57 80.8699 177.673L80.7669 177.776C80.6639 177.879 80.4579 177.982 80.3549 177.982L86.2258 176.333C86.4318 176.333 86.5348 176.23 86.6378 176.127L86.7408 176.024C86.8438 175.92 86.8438 175.92 86.9468 175.817C86.9468 175.817 86.9468 175.817 86.9468 175.714C86.9468 175.714 86.9468 175.714 86.9468 175.611C86.9468 175.611 86.9468 175.508 87.0498 175.508V175.405V175.302V175.199V175.096V174.993V174.89V174.787V174.684V174.581C87.0498 174.581 87.0498 174.581 87.0498 174.477V174.374V174.271V174.168V174.065C86.7408 174.065 86.7408 174.065 86.7408 173.859C86.7408 173.962 86.7408 173.962 86.7408 173.859Z" fill="url(#paint0_linear_1448_572)"/>
<mask id="mask7_1448_572" style="mask-type:luminance" maskUnits="userSpaceOnUse" x="78" y="157" width="7" height="4">
<path d="M78.4018 159.121L84.2727 157.472C84.2727 157.472 84.1697 157.472 84.1697 157.575C84.0667 157.781 84.1697 158.296 84.2727 158.709L78.4018 160.358C78.2988 160.048 78.2988 159.533 78.2988 159.224C78.2988 159.224 78.2988 159.121 78.4018 159.121Z" fill="white"/>
</mask>
<g mask="url(#mask7_1448_572)">
<path d="M78.4005 159.121L84.2714 157.472C84.2714 157.472 84.1684 157.472 84.1684 157.575L78.4005 159.121C78.2975 159.121 78.2975 159.121 78.4005 159.121Z" fill="#858585"/>
<path d="M78.1934 159.638L84.0643 157.989C84.0643 157.989 84.0643 157.989 84.0643 158.092L78.1934 159.638Z" fill="#CCCCCC"/>
<path d="M78.1934 159.638L84.0643 157.989C84.0643 157.989 84.0643 157.989 84.0643 158.092L78.1934 159.638Z" fill="#D1D1D1"/>
<path d="M78.1934 159.739L84.0643 158.09C84.0643 158.09 84.0643 158.09 84.0643 158.193L78.1934 159.739Z" fill="#D6D6D6"/>
<path d="M78.1934 159.739L84.0643 158.09C84.0643 158.09 84.0643 158.09 84.0643 158.193L78.1934 159.739C78.1934 159.842 78.1934 159.842 78.1934 159.739Z" fill="#DBDBDB"/>
<path d="M78.1934 159.843L84.0643 158.194V158.297L78.1934 159.843C78.1934 159.947 78.1934 159.947 78.1934 159.843Z" fill="#E0E0E0"/>
<path d="M78.1934 159.945L84.0643 158.296V158.399L78.1934 159.945Z" fill="#E6E6E6"/>
<path d="M78.2949 160.05L84.1658 158.4V158.503L78.2949 160.05Z" fill="#EBEBEB"/>
<path d="M78.2949 160.152L84.1658 158.503V158.606L78.2949 160.152Z" fill="#F0F0F0"/>
<path d="M78.2949 160.152L84.1658 158.503V158.606L78.2949 160.152C78.2949 160.255 78.2949 160.255 78.2949 160.152Z" fill="#F5F5F5"/>
</g>
<mask id="mask8_1448_572" style="mask-type:luminance" maskUnits="userSpaceOnUse" x="69" y="135" width="13" height="8">
<path d="M75.2063 137.266L81.0772 135.617H80.9742C79.2233 136.133 77.9873 137.679 76.8543 139.431C76.3393 140.152 75.8243 140.668 75.1033 140.874L69.2324 142.523C69.9534 142.317 70.4684 141.801 70.9834 141.08C72.1164 139.328 73.4554 137.782 75.2063 137.266Z" fill="white"/>
</mask>
<g mask="url(#mask8_1448_572)">
<path d="M75.2063 137.266L81.0772 135.617H80.9742C79.2233 136.133 77.9873 137.679 76.8543 139.431C76.3393 140.152 75.8243 140.668 75.1033 140.874L69.2324 142.523C69.9534 142.317 70.4684 141.801 70.9834 141.08C72.1164 139.328 73.4554 137.782 75.2063 137.266Z" fill="#858585"/>
</g>
<path d="M91.3753 170.664V170.561V170.458V170.355V170.252V170.148V170.045C91.3753 169.942 91.3753 169.942 91.2723 169.839C91.2723 169.736 91.1693 169.633 91.1693 169.427V169.324C91.1693 169.324 91.1693 169.324 91.1693 169.221V169.118C91.1693 169.015 91.0663 168.912 90.9633 168.809C90.9633 168.705 90.8603 168.602 90.8603 168.499C90.8603 168.396 90.7573 168.396 90.7573 168.293C90.5513 167.984 90.3453 167.675 90.1393 167.366C88.3884 164.686 86.6374 162.109 84.8864 159.429C84.8864 159.429 84.8864 159.326 84.7834 159.326C84.7834 159.223 84.6804 159.223 84.6804 159.12C84.6804 159.12 84.6804 159.12 84.6804 159.017C84.5774 158.914 84.4744 158.811 84.4744 158.604L78.6035 160.254C78.6035 160.254 78.6035 160.254 78.6035 160.357C78.6035 160.357 78.6035 160.357 78.6035 160.46C78.6035 160.46 78.6035 160.46 78.6035 160.563C78.7065 160.666 78.7065 160.769 78.8095 160.872C80.7665 163.758 82.7234 166.747 84.6804 169.736C84.8864 170.045 84.9894 170.252 85.0924 170.561V170.664C85.1954 170.973 85.2984 171.282 85.4014 171.488C85.5044 171.798 85.5044 172.107 85.6074 172.416C85.6074 172.725 85.6074 173.034 85.6074 173.241C85.6074 173.55 85.6074 173.756 85.5044 173.962C85.4014 174.168 85.4014 174.374 85.2984 174.581C85.1954 174.684 85.0924 174.787 84.9894 174.89L84.8864 174.993C84.7834 175.096 84.5774 175.199 84.3714 175.302L90.2423 173.653C90.4483 173.55 90.5513 173.55 90.7573 173.344L90.8603 173.241C90.9633 173.138 91.0663 173.034 91.0663 172.931C91.0663 172.931 91.0663 172.931 91.0663 172.828V172.725C91.0663 172.622 91.0663 172.622 91.1693 172.519C91.1693 172.519 91.1693 172.416 91.2723 172.416V172.313C91.2723 172.313 91.2723 172.313 91.2723 172.21V172.107V172.004V171.901V171.798V171.695C91.2723 171.695 91.2723 171.695 91.2723 171.591C91.2723 171.591 91.2723 171.591 91.2723 171.488V171.385V171.282V171.179V171.076V170.973V170.87C91.3753 170.767 91.3753 170.767 91.3753 170.664Z" fill="url(#paint1_linear_1448_572)"/>
<mask id="mask9_1448_572" style="mask-type:luminance" maskUnits="userSpaceOnUse" x="81" y="152" width="7" height="4">
<path d="M81.3828 153.967L87.2537 152.318C87.2537 152.731 87.3567 153.143 87.4597 153.555C87.4597 153.761 87.6657 153.864 87.7687 154.071L81.8978 155.72C81.7948 155.514 81.5888 155.41 81.5888 155.204C81.3828 154.792 81.3828 154.38 81.3828 153.967Z" fill="white"/>
</mask>
<g mask="url(#mask9_1448_572)">
<path d="M81.3828 153.967L87.2537 152.318C87.2537 152.525 87.2537 152.731 87.3567 153.04L81.4858 154.689C81.3828 154.38 81.3828 154.174 81.3828 153.967Z" fill="#DBDBDB"/>
<path d="M81.3828 154.585L87.2537 152.936C87.2537 153.039 87.2537 153.039 87.2537 153.142L81.3828 154.791C81.4858 154.791 81.4858 154.688 81.3828 154.585Z" fill="#E0E0E0"/>
<path d="M81.4844 154.792L87.3553 153.143V153.246L81.4844 154.895C81.4844 154.895 81.4844 154.895 81.4844 154.792Z" fill="#E6E6E6"/>
<path d="M81.4844 154.999L87.3553 153.35V153.453L81.4844 155.102C81.4844 154.999 81.4844 154.999 81.4844 154.999Z" fill="#EBEBEB"/>
<path d="M81.4844 155.101L87.3553 153.452V153.555L81.4844 155.101C81.4844 155.204 81.4844 155.204 81.4844 155.101Z" fill="#F0F0F0"/>
<path d="M81.4844 155.204L87.3553 153.555L81.4844 155.204Z" fill="#F5F5F5"/>
<path d="M81.4844 155.204L87.3553 153.555L81.4844 155.204Z" fill="#FAFAFA"/>
<path d="M81.4844 155.204L87.3553 153.555L81.4844 155.204Z" fill="white"/>
<path d="M81.5879 155.308L87.3558 153.659L81.5879 155.308Z" fill="white"/>
<path d="M81.5879 155.409L87.4588 153.76C87.4588 153.76 87.4588 153.76 87.4588 153.863L81.5879 155.409Z" fill="#F5F5F5"/>
<path d="M81.6934 155.409L87.5643 153.76L87.6673 153.863L81.7964 155.512C81.6934 155.512 81.6934 155.512 81.6934 155.409Z" fill="#F0F0F0"/>
<path d="M81.7949 155.616L87.6658 153.967C87.6658 153.967 87.6658 153.967 87.7688 154.07L81.7949 155.616Z" fill="#F5F5F5"/>
<path d="M81.7949 155.72L87.6658 154.071L81.8979 155.72H81.7949Z" fill="white"/>
</g>
<mask id="mask10_1448_572" style="mask-type:luminance" maskUnits="userSpaceOnUse" x="73" y="122" width="8" height="3">
<path d="M73.043 124.281L78.9139 122.631C79.3259 122.528 79.7379 122.425 80.0469 122.322L74.1759 123.971C73.764 124.074 73.352 124.178 73.043 124.281Z" fill="white"/>
</mask>
<g mask="url(#mask10_1448_572)">
<path d="M73.043 124.281L78.9139 122.631C79.3259 122.528 79.6349 122.425 80.0469 122.322L74.1759 123.971C73.764 124.074 73.352 124.178 73.043 124.281Z" fill="#8F8F8F"/>
</g>
<path d="M94.8762 170.558L89.0053 172.207C89.1083 172.207 89.1083 172.207 89.2113 172.104C90.7563 171.486 90.7563 168.394 89.3143 166.229C86.8424 162.725 84.3704 159.117 81.8984 155.613L87.7694 153.964C90.2413 157.468 92.7133 160.973 95.1852 164.58C96.7302 166.745 96.6272 169.837 95.0822 170.455C94.9792 170.558 94.9792 170.558 94.8762 170.558Z" fill="url(#paint2_linear_1448_572)"/>
<mask id="mask11_1448_572" style="mask-type:luminance" maskUnits="userSpaceOnUse" x="81" y="153" width="16" height="20">
<path d="M94.8743 170.558L89.0034 172.207C89.1064 172.207 89.1064 172.207 89.2094 172.104C90.7543 171.486 90.7544 168.394 89.3124 166.229C86.8404 162.725 84.3684 159.117 81.8965 155.613L87.7674 153.964C90.2394 157.468 92.7113 160.973 95.1833 164.58C96.7283 166.745 96.6253 169.837 95.0803 170.455C94.9773 170.558 94.9773 170.558 94.8743 170.558Z" fill="white"/>
</mask>
<g mask="url(#mask11_1448_572)">
<path d="M81.8965 155.718L87.7674 154.069C90.2394 157.574 92.7113 161.078 95.1833 164.686L95.2863 164.789L89.4154 166.438L89.3124 166.335C86.8404 162.727 84.3684 159.223 81.8965 155.718Z" fill="url(#paint3_linear_1448_572)"/>
<path d="M89.416 166.437L95.2869 164.788C95.2869 164.891 95.3899 164.891 95.3899 164.994L89.519 166.643C89.519 166.54 89.416 166.54 89.416 166.437Z" fill="url(#paint4_linear_1448_572)"/>
<path d="M89.5205 166.642L95.3914 164.993C95.3914 165.096 95.4944 165.199 95.4944 165.199L89.6235 166.848C89.6235 166.848 89.6235 166.745 89.5205 166.642Z" fill="url(#paint5_linear_1448_572)"/>
<path d="M89.7227 166.955L95.5936 165.306C95.6966 165.409 95.6966 165.615 95.7996 165.718L89.9287 167.367C89.8257 167.161 89.7227 167.058 89.7227 166.955Z" fill="url(#paint6_linear_1448_572)"/>
<path d="M89.8262 167.26L95.6971 165.611C95.6971 165.611 95.6971 165.611 95.6971 165.714L89.8262 167.26C89.9292 167.364 89.8262 167.364 89.8262 167.26Z" fill="url(#paint7_linear_1448_572)"/>
<path d="M89.9277 167.366L95.7986 165.717C95.9016 165.923 95.9016 166.026 96.0046 166.232L90.1337 167.881C90.0307 167.675 89.9277 167.572 89.9277 167.366Z" fill="url(#paint8_linear_1448_572)"/>
<path d="M90.1377 167.88L96.0086 166.23C96.0086 166.334 96.0086 166.334 96.1116 166.437L90.2407 168.086C90.1377 167.983 90.1377 167.983 90.1377 167.88Z" fill="url(#paint9_linear_1448_572)"/>
<path d="M90.1377 168.088L96.0086 166.438C96.0086 166.542 96.0086 166.542 96.0086 166.645L90.1377 168.294C90.1377 168.191 90.1377 168.088 90.1377 168.088Z" fill="url(#paint10_linear_1448_572)"/>
<path d="M90.2402 168.189L96.1111 166.54C96.1111 166.643 96.1111 166.643 96.1111 166.746L90.2402 168.395C90.2402 168.292 90.2402 168.292 90.2402 168.189Z" fill="url(#paint11_linear_1448_572)"/>
<path d="M90.2402 168.397L96.1111 166.748V166.851L90.2402 168.5V168.397Z" fill="url(#paint12_linear_1448_572)"/>
<path d="M90.2402 168.502L96.1111 166.853V166.956L90.2402 168.605C90.3432 168.605 90.2402 168.605 90.2402 168.502Z" fill="url(#paint13_linear_1448_572)"/>
<path d="M90.3408 168.707L96.2117 167.058V167.161L90.3408 168.81V168.707Z" fill="url(#paint14_linear_1448_572)"/>
<path d="M90.3408 168.808L96.2117 167.159V167.262L90.3408 168.911V168.808Z" fill="url(#paint15_linear_1448_572)"/>
<path d="M90.3408 168.912L96.2117 167.263V167.366L90.3408 169.015C90.3408 169.015 90.3408 169.015 90.3408 168.912Z" fill="url(#paint16_linear_1448_572)"/>
<path d="M90.3408 169.119L96.2117 167.47V167.573L90.3408 169.222V169.119Z" fill="url(#paint17_linear_1448_572)"/>
<path d="M90.3408 169.22L96.2117 167.571V167.674L90.3408 169.324C90.3408 169.324 90.3408 169.323 90.3408 169.22Z" fill="url(#paint18_linear_1448_572)"/>
<path d="M90.4453 169.325L96.3162 167.676V167.779L90.4453 169.428C90.4453 169.428 90.4453 169.428 90.4453 169.325Z" fill="url(#paint19_linear_1448_572)"/>
<path d="M90.4453 169.53L96.3162 167.881V167.984L90.4453 169.633V169.53Z" fill="url(#paint20_linear_1448_572)"/>
<path d="M90.4453 169.634L96.3162 167.984V168.087L90.4453 169.737C90.4453 169.737 90.4453 169.737 90.4453 169.634Z" fill="url(#paint21_linear_1448_572)"/>
<path d="M90.4453 169.738L96.3162 168.089V168.192L90.4453 169.841C90.4453 169.841 90.4453 169.841 90.4453 169.738Z" fill="url(#paint22_linear_1448_572)"/>
<path d="M90.4453 169.943L96.3162 168.294V168.397L90.4453 170.046V169.943Z" fill="url(#paint23_linear_1448_572)"/>
<path d="M90.4471 170.044L96.3181 168.395V168.498L90.4471 170.147C90.3441 170.147 90.4471 170.044 90.4471 170.044Z" fill="url(#paint24_linear_1448_572)"/>
<path d="M90.3408 170.148L96.2117 168.499V168.602L90.3408 170.251C90.3408 170.251 90.3408 170.251 90.3408 170.148Z" fill="url(#paint25_linear_1448_572)"/>
<path d="M90.3408 170.356L96.2117 168.707V168.81L90.3408 170.459C90.3408 170.356 90.3408 170.356 90.3408 170.356Z" fill="url(#paint26_linear_1448_572)"/>
<path d="M90.3408 170.457L96.2117 168.808V168.911L90.3408 170.56V170.457Z" fill="url(#paint27_linear_1448_572)"/>
<path d="M90.3408 170.561L96.2117 168.912V169.015L90.3408 170.664C90.3408 170.664 90.3408 170.664 90.3408 170.561Z" fill="url(#paint28_linear_1448_572)"/>
<path d="M90.3427 170.663L96.2136 169.014V169.117L90.3427 170.766C90.2397 170.766 90.3427 170.766 90.3427 170.663Z" fill="url(#paint29_linear_1448_572)"/>
<path d="M90.2402 170.87L96.1111 169.221V169.324L90.2402 170.973V170.87Z" fill="url(#paint30_linear_1448_572)"/>
<path d="M90.2407 170.972L96.1116 169.323C96.1116 169.426 96.1116 169.426 96.0086 169.426L90.1377 171.075C90.1377 171.075 90.2407 171.075 90.2407 170.972Z" fill="url(#paint31_linear_1448_572)"/>
<path d="M90.1372 171.18L96.0081 169.531C96.0081 169.634 96.0081 169.634 95.9051 169.737L90.0342 171.387C90.1372 171.283 90.1372 171.18 90.1372 171.18Z" fill="url(#paint32_linear_1448_572)"/>
<path d="M90.1372 171.281L96.0081 169.632C96.0081 169.735 95.9051 169.735 95.9051 169.838L90.0342 171.487C90.0342 171.384 90.0342 171.384 90.1372 171.281Z" fill="url(#paint33_linear_1448_572)"/>
<path d="M90.0325 171.488L95.9034 169.839C95.6974 170.148 95.4914 170.354 95.1824 170.457C95.0794 170.457 95.0794 170.457 94.9764 170.56L89.1055 172.209C89.2085 172.209 89.2085 172.209 89.3115 172.106C89.5175 172.003 89.8265 171.797 90.0325 171.488Z" fill="url(#paint34_linear_1448_572)"/>
</g>
<path d="M100.544 163.448C100.544 163.345 100.544 163.345 100.544 163.242V163.139V163.036V162.933C100.544 162.933 100.544 162.933 100.544 162.83C100.544 162.83 100.544 162.83 100.544 162.727C100.544 162.624 100.544 162.624 100.441 162.521C100.441 162.418 100.338 162.315 100.338 162.212V162.109C100.235 161.902 100.235 161.799 100.132 161.593C100.132 161.593 100.132 161.593 100.132 161.49C100.132 161.49 100.132 161.387 100.029 161.387C100.029 161.284 99.9256 161.181 99.9256 161.181C99.9256 161.078 99.8226 161.078 99.8226 160.975C94.1576 153.347 88.5957 145.617 82.9308 137.99C82.9308 137.99 82.9308 137.887 82.8278 137.887C82.8278 137.887 82.8278 137.887 82.7248 137.784C82.7248 137.784 82.7248 137.784 82.6218 137.681C82.6218 137.681 82.6218 137.681 82.5188 137.681C82.5188 137.681 82.5188 137.681 82.4158 137.681H82.3128L76.5449 139.33C76.6479 139.33 76.7509 139.33 76.8539 139.33C76.9569 139.33 77.0599 139.433 77.1629 139.433C77.2659 139.536 77.3689 139.639 77.4719 139.742C83.1368 147.472 88.6987 155.1 94.3636 162.727C94.4666 162.933 94.6726 163.139 94.7756 163.345C94.8786 163.551 94.9816 163.758 95.0846 163.964C95.1876 164.17 95.2906 164.376 95.2906 164.582C95.3936 164.788 95.3936 164.994 95.3936 165.304C95.3936 165.51 95.4966 165.716 95.4966 165.922C95.4966 166.128 95.4966 166.334 95.4966 166.541C95.4966 166.747 95.3936 166.953 95.3936 167.159C95.2906 167.365 95.2906 167.468 95.1876 167.674C95.0846 167.88 94.9816 167.984 94.8786 168.087L94.7756 168.19C94.6726 168.293 94.4666 168.396 94.3636 168.396L100.132 166.747C100.338 166.747 100.441 166.644 100.544 166.541L100.647 166.437C100.75 166.334 100.853 166.231 100.853 166.128C100.853 166.128 100.853 166.025 100.956 166.025V165.922C100.956 165.819 101.059 165.819 101.059 165.716C101.059 165.716 101.059 165.613 101.162 165.51V165.407V165.304V165.201V165.098V164.994V164.891V164.788V164.685V164.582V164.479C101.162 164.479 101.162 164.479 101.162 164.376V164.273V164.17V164.067C100.544 163.655 100.544 163.551 100.544 163.448C100.544 163.551 100.544 163.551 100.544 163.448Z" fill="url(#paint35_linear_1448_572)"/>
<path d="M67.2767 127.169C66.7617 128.303 66.2467 129.333 65.8347 130.364C65.0107 132.425 64.2897 134.487 64.2897 137.167C64.2897 140.877 66.1437 143.969 68.3066 144.279C68.6156 144.279 68.9246 144.279 69.2336 144.279C70.3666 144.072 71.3966 143.351 72.1176 142.114C73.0446 140.568 74.2805 139.331 75.7225 138.919C75.8255 138.919 75.9285 138.919 76.0315 138.919C76.2375 138.919 76.4435 139.125 76.6495 139.434C82.3144 147.165 87.8763 154.792 93.5412 162.419C94.6742 164.068 95.0862 166.233 94.3652 167.47C94.0562 168.088 93.5412 168.397 93.0262 168.294C92.5113 168.191 91.7903 167.779 91.2753 166.954C88.3913 162.831 85.5074 158.708 82.6234 154.586C82.5204 154.38 82.3144 154.07 82.2114 154.07C82.1084 153.967 81.9024 153.967 81.7994 153.967C81.6964 153.967 81.4904 153.967 81.3874 153.864C81.3874 154.276 81.4904 154.689 81.5934 155.101C81.5934 155.307 81.7994 155.41 81.9024 155.616C84.3744 159.121 86.8463 162.625 89.3183 166.233C90.8633 168.397 90.7603 171.489 89.2153 172.108C89.0093 172.211 88.7003 172.211 88.4943 172.211C87.8763 172.108 87.2583 171.592 86.6403 170.665C84.1684 167.057 81.7994 163.347 79.3275 159.739C79.2245 159.533 79.0185 159.224 78.9155 159.121C78.8125 159.018 78.7095 159.018 78.6065 159.018C78.5035 159.018 78.4005 159.018 78.2975 159.121C78.1945 159.327 78.2975 159.842 78.4005 160.255C78.5035 160.564 78.7095 160.77 78.8125 160.976C80.7694 163.862 82.7264 166.851 84.6834 169.84C86.1254 172.108 86.0224 175.097 84.3744 175.509C84.1684 175.509 83.9624 175.612 83.8594 175.509C83.2414 175.406 82.6234 174.891 82.1084 174.066C79.8425 170.768 77.6795 167.573 75.4135 164.274C75.2075 164.068 75.1045 163.759 74.8985 163.656C74.7955 163.656 74.7955 163.656 74.6925 163.553C74.4865 163.553 74.3835 163.553 74.2805 163.656C74.1775 163.862 74.2805 164.274 74.2805 164.584C74.3835 164.893 74.5895 165.099 74.6925 165.305C76.4435 167.882 78.2975 170.459 80.0485 173.035C81.3874 174.891 81.2844 177.467 79.9455 177.88C79.8425 177.88 79.6365 177.88 79.5335 177.88C79.0185 177.777 78.6065 177.467 78.1945 176.849C75.5165 173.654 72.7356 170.459 70.0576 167.057C65.2167 161.079 60.5818 154.689 56.2558 147.783C55.9468 147.268 55.8438 146.958 55.9468 146.34C56.4618 139.537 56.9768 132.735 57.3888 125.932C57.3888 125.726 57.3888 125.52 57.4918 125.313C60.6848 126.241 63.9807 126.653 67.2767 127.169Z" fill="white"/>
<mask id="mask12_1448_572" style="mask-type:luminance" maskUnits="userSpaceOnUse" x="89" y="133" width="14" height="29">
<path d="M89.2109 135.001L95.0819 133.352C97.6568 140.876 100.232 148.4 102.807 156.027C103.013 156.646 103.013 157.058 102.807 157.47C102.292 158.604 101.674 159.635 100.747 159.944L94.8759 161.593C95.8028 161.181 96.4208 160.253 96.9358 159.119C97.1418 158.707 97.1418 158.295 96.9358 157.676C94.3609 150.152 91.7859 142.525 89.2109 135.001Z" fill="white"/>
</mask>
<g mask="url(#mask12_1448_572)">
<path d="M89.2109 135.001L95.0819 133.352C97.6568 140.876 100.232 148.4 102.807 156.027C102.807 156.027 102.807 156.027 102.807 156.13L96.9358 157.779C96.9358 157.779 96.9358 157.779 96.9358 157.676C94.3609 150.152 91.7859 142.525 89.2109 135.001Z" fill="white"/>
<path d="M96.9355 157.676L102.806 156.026V156.129L96.9355 157.779C96.9355 157.779 96.9355 157.779 96.9355 157.676Z" fill="white"/>
<path d="M97.0381 157.884L102.909 156.235V156.338L97.0381 157.884Z" fill="white"/>
<path d="M97.0381 157.884L102.909 156.235C102.909 156.235 102.909 156.235 102.909 156.338L97.0381 157.884C97.0381 157.988 97.0381 157.988 97.0381 157.884Z" fill="#FAFAFA"/>
<path d="M97.0381 157.985L102.909 156.336C102.909 156.336 102.909 156.336 102.909 156.439L97.0381 157.985Z" fill="#F5F5F5"/>
<path d="M97.0381 158.089L102.909 156.439C102.909 156.439 102.909 156.439 102.909 156.543L97.0381 158.089Z" fill="#F0F0F0"/>
<path d="M97.0381 158.089L102.909 156.439C102.909 156.439 102.909 156.439 102.909 156.543L97.0381 158.089C97.0381 158.192 97.0381 158.192 97.0381 158.089Z" fill="#EBEBEB"/>
<path d="M97.0381 158.19L102.909 156.541C102.909 156.541 102.909 156.541 102.909 156.644L97.0381 158.19Z" fill="#E6E6E6"/>
<path d="M97.0381 158.707L102.909 157.058C102.909 157.058 102.909 157.058 102.909 157.161L97.0381 158.707C97.0381 158.81 97.0381 158.81 97.0381 158.707Z" fill="#A8A8A8"/>
<path d="M97.0381 158.808L102.909 157.159C102.909 157.159 102.909 157.159 102.909 157.262L97.0381 158.808Z" fill="#A3A3A3"/>
<path d="M97.0381 158.914L102.909 157.265C102.909 157.265 102.909 157.265 102.909 157.368L97.0381 158.914Z" fill="#9E9E9E"/>
<path d="M97.0381 158.914L102.909 157.265C102.909 157.265 102.909 157.265 102.909 157.368L97.0381 158.914Z" fill="#999999"/>
<path d="M97.0381 159.015L102.909 157.366V157.469L97.0381 159.015Z" fill="#949494"/>
<path d="M96.9365 159.12L102.807 157.471C102.704 157.677 102.601 157.78 102.601 157.986L96.7305 159.635C96.8335 159.532 96.9365 159.326 96.9365 159.12Z" fill="#8F8F8F"/>
<path d="M96.7289 159.635L102.6 157.986C102.497 158.192 102.394 158.399 102.291 158.605L96.4199 160.254C96.5229 160.048 96.6259 159.842 96.7289 159.635Z" fill="#8A8A8A"/>
<path d="M96.4205 160.255L102.291 158.605C101.879 159.224 101.467 159.739 100.849 159.945L94.9785 161.595C95.4935 161.388 96.0085 160.873 96.4205 160.255Z" fill="#858585"/>
</g>
<mask id="mask13_1448_572" style="mask-type:luminance" maskUnits="userSpaceOnUse" x="94" y="160" width="7" height="2">
<path d="M100.64 160.052L94.7695 161.701C94.7695 161.701 94.7695 161.701 94.8725 161.701L100.64 160.052C100.743 160.052 100.64 160.052 100.64 160.052Z" fill="white"/>
</mask>
<g mask="url(#mask13_1448_572)">
<path d="M94.875 161.701L100.746 160.052C100.746 160.052 100.746 160.052 100.643 160.052L94.875 161.701Z" fill="#858585"/>
</g>
<mask id="mask14_1448_572" style="mask-type:luminance" maskUnits="userSpaceOnUse" x="74" y="122" width="21" height="12">
<path d="M74.2764 123.971L80.1473 122.322C80.9713 122.735 81.7953 123.147 82.5162 123.662C86.4302 126.445 90.3441 129.331 94.2581 132.217L88.3872 133.866C84.4732 130.98 80.5593 128.094 76.6453 125.311C75.9243 124.693 75.1004 124.384 74.2764 123.971Z" fill="white"/>
</mask>
<g mask="url(#mask14_1448_572)">
<path d="M74.2764 123.971L80.1473 122.322C80.6623 122.631 81.1773 122.838 81.6923 123.147L75.8213 124.796C75.3064 124.487 74.7914 124.281 74.2764 123.971Z" fill="#C2C2C2"/>
<path d="M75.8232 124.796L81.6942 123.146C81.7972 123.25 82.0031 123.25 82.1061 123.353L76.2352 125.002C76.0292 124.899 75.9262 124.796 75.8232 124.796Z" fill="#C7C7C7"/>
<path d="M76.2324 125.003L82.1033 123.354C82.2063 123.457 82.3093 123.457 82.4123 123.56L76.4384 125.209C76.4384 125.106 76.3354 125.106 76.2324 125.003Z" fill="#CCCCCC"/>
<path d="M76.4404 125.209L82.3113 123.56C82.4143 123.56 82.4143 123.663 82.5173 123.663C86.4313 126.446 90.3452 129.332 94.2592 132.218L88.3882 133.867C84.4743 130.981 80.5604 128.095 76.6464 125.312C76.6464 125.209 76.5434 125.209 76.4404 125.209Z" fill="#D1D1D1"/>
</g>
<mask id="mask15_1448_572" style="mask-type:luminance" maskUnits="userSpaceOnUse" x="88" y="132" width="7" height="4">
<path d="M88.3867 133.867L94.2576 132.218C94.5666 132.424 94.8756 132.939 94.9786 133.352L89.1077 135.001C89.0047 134.588 88.6957 134.073 88.3867 133.867Z" fill="white"/>
</mask>
<g mask="url(#mask15_1448_572)">
<path d="M88.5918 134.072L94.4627 132.423C94.4627 132.423 94.4627 132.423 94.5657 132.526L88.5918 134.072Z" fill="#EBEBEB"/>
<path d="M88.6973 134.072L94.5682 132.423C94.5682 132.423 94.5682 132.423 94.6712 132.526L88.6973 134.072C88.6973 134.175 88.6973 134.175 88.6973 134.072Z" fill="#F0F0F0"/>
<path d="M88.6973 134.177L94.5682 132.528C94.5682 132.528 94.5682 132.631 94.6712 132.631L88.6973 134.177Z" fill="#F5F5F5"/>
<path d="M88.7988 134.28L94.6697 132.631C94.6697 132.631 94.6697 132.734 94.7727 132.734L88.9018 134.383C88.7988 134.383 88.7988 134.28 88.7988 134.28Z" fill="#FAFAFA"/>
<path d="M88.7988 134.384L94.6697 132.735C94.6697 132.735 94.6697 132.838 94.7727 132.838L88.9018 134.488C88.9018 134.488 88.9018 134.384 88.7988 134.384Z" fill="white"/>
<path d="M88.9033 134.484L94.7742 132.835C94.7742 132.835 94.7742 132.938 94.8772 132.938L89.0063 134.587L88.9033 134.484Z" fill="white"/>
<path d="M89.0039 134.59L94.8748 132.94C94.8748 133.044 94.9778 133.043 94.9778 133.147L89.1069 134.796C89.0039 134.693 89.0039 134.693 89.0039 134.59Z" fill="white"/>
<path d="M89.1064 134.796L94.9774 133.146V133.25L89.1064 134.796Z" fill="white"/>
<path d="M89.1064 134.898L94.9774 133.249V133.352L89.1064 135.001V134.898Z" fill="white"/>
<path d="M89.21 135.001L94.9779 133.352L89.21 135.001Z" fill="white"/>
</g>
<path d="M74.2757 123.973C75.0997 124.385 75.9237 124.797 76.6447 125.313C80.5586 128.095 84.4726 130.981 88.3865 133.867C88.6955 134.074 89.0045 134.589 89.1075 135.001C91.6825 142.525 94.2574 150.05 96.8324 157.677C97.0384 158.295 97.0384 158.708 96.8324 159.12C96.3174 160.254 95.6994 161.284 94.7724 161.594C94.6694 161.594 94.5664 161.697 94.4634 161.594C94.2574 161.594 94.1544 161.491 93.9484 161.181C88.3865 153.554 82.8246 146.03 77.2627 138.3C76.7477 137.578 76.2327 137.166 75.7177 137.063C75.5117 137.063 75.2027 137.063 74.9967 137.166C73.2458 137.681 72.0098 139.227 70.8768 140.979C70.1558 142.113 69.2288 142.629 68.0958 142.422C67.9928 142.422 67.7868 142.319 67.6838 142.319C66.3449 141.907 65.4179 140.258 65.3149 138.196C65.2119 136.444 65.5209 135.104 65.9329 133.764C67.2719 129.538 69.0228 126.24 72.0098 124.591C72.7308 124.282 73.5548 124.179 74.2757 123.973Z" fill="white"/>
<mask id="mask16_1448_572" style="mask-type:luminance" maskUnits="userSpaceOnUse" x="92" y="126" width="13" height="3">
<path d="M92.8213 128.609L98.6922 126.96C100.649 126.445 102.709 126.239 104.975 126.651L99.1042 128.3C96.9412 127.991 94.7783 128.094 92.8213 128.609Z" fill="white"/>
</mask>
<g mask="url(#mask16_1448_572)">
<path d="M92.8213 128.61L98.6922 126.961C99.2072 126.858 99.7222 126.651 100.237 126.651L94.4693 128.301C93.8513 128.404 93.3363 128.507 92.8213 128.61Z" fill="#8F8F8F"/>
<path d="M94.4688 128.303L100.34 126.654C100.752 126.551 101.267 126.551 101.679 126.551L95.8077 128.2C95.2927 128.2 94.8807 128.2 94.4688 128.303Z" fill="#949494"/>
<path d="M95.8086 128.095L101.68 126.446C102.092 126.446 102.503 126.446 102.915 126.446L97.0446 128.095C96.6326 128.095 96.2206 128.095 95.8086 128.095Z" fill="#999999"/>
<path d="M97.0449 128.095L102.916 126.446C103.328 126.446 103.74 126.446 104.152 126.549L98.2809 128.199C97.8689 128.095 97.4569 128.095 97.0449 128.095Z" fill="#9E9E9E"/>
<path d="M98.2803 128.2L104.151 126.551C104.46 126.551 104.666 126.654 104.975 126.654L99.1043 128.303C98.7953 128.303 98.5893 128.2 98.2803 128.2Z" fill="#A3A3A3"/>
</g>
<path d="M99.0996 128.303C99.5116 128.406 100.027 128.406 100.439 128.613C101.881 140.363 103.323 152.113 104.765 163.966C104.044 163.863 103.22 163.76 102.499 163.657C101.984 163.554 101.469 163.451 100.954 163.348C100.13 163.141 99.6146 162.111 99.2026 160.874C97.2456 155.102 95.2887 149.433 93.3317 143.764C92.1987 140.363 91.0657 137.064 89.8297 133.663C89.1088 131.396 89.3148 130.159 90.5507 129.643C93.2287 128.2 96.0097 127.788 99.0996 128.303Z" fill="white"/>
<mask id="mask17_1448_572" style="mask-type:luminance" maskUnits="userSpaceOnUse" x="99" y="126" width="8" height="3">
<path d="M99.1035 128.305L104.974 126.656C105.386 126.759 105.901 126.759 106.313 126.965L100.442 128.615C99.9275 128.408 99.5155 128.408 99.1035 128.305Z" fill="white"/>
</mask>
<g mask="url(#mask17_1448_572)">
<path d="M99.1035 128.305L104.974 126.656C105.077 126.656 105.18 126.656 105.283 126.759L99.4125 128.408C99.3095 128.305 99.2065 128.305 99.1035 128.305Z" fill="#A3A3A3"/>
<path d="M99.4141 128.41L105.285 126.761C105.594 126.864 105.903 126.864 106.212 126.967L100.341 128.616C100.135 128.513 99.7231 128.41 99.4141 128.41Z" fill="#A8A8A8"/>
</g>
<mask id="mask18_1448_572" style="mask-type:luminance" maskUnits="userSpaceOnUse" x="100" y="126" width="11" height="38">
<path d="M100.436 128.512L106.306 126.863C107.748 138.613 109.19 150.363 110.632 162.217L104.761 163.866C103.32 152.013 101.878 140.263 100.436 128.512Z" fill="white"/>
</mask>
<g mask="url(#mask18_1448_572)">
<path d="M100.436 128.512L106.306 126.863C107.748 138.613 109.19 150.363 110.632 162.217L104.761 163.866C103.32 152.013 101.878 140.263 100.436 128.512Z" fill="#DBDBDB"/>
</g>
<path d="M126.5 255.516C111 265.516 93.5 269.281 74 262.515C54.5 255.75 33 245.417 20 240C18.9501 239.563 3 232.516 7 220.515L0 48.8389C0.416509 51.6376 7.90907 61.6013 34.5472 79.0656C61.1854 96.5299 66.1803 96.7911 65.348 94.7387C76.5858 100.896 104.14 108.397 124.452 89.1412C144.764 69.8857 181.753 40.4426 197.708 28.128C199.942 26.4755 206.308 16.4964 208.357 7.06068C208.654 1.47606 208.871 -1.08906 208.965 0.431618C209.095 2.52568 208.852 4.77727 208.357 7.06068C206.551 40.9448 201.783 185.987 203.5 204.015C200.5 214.515 180.832 220.462 126.5 255.516Z" fill="url(#paint36_linear_1448_572)"/>
<defs>
<linearGradient id="paint0_linear_1448_572" x1="75.2922" y1="171.351" x2="86.0944" y2="169.685" gradientUnits="userSpaceOnUse">
<stop stop-color="white"/>
<stop offset="1" stop-color="#5E5E5E"/>
</linearGradient>
<linearGradient id="paint1_linear_1448_572" x1="79.4752" y1="167.84" x2="90.688" y2="166.111" gradientUnits="userSpaceOnUse">
<stop stop-color="white"/>
<stop offset="1" stop-color="#5E5E5E"/>
</linearGradient>
<linearGradient id="paint2_linear_1448_572" x1="83.8398" y1="154.957" x2="93.2114" y2="170.201" gradientUnits="userSpaceOnUse">
<stop stop-color="white"/>
<stop offset="1" stop-color="#5E5E5E"/>
</linearGradient>
<linearGradient id="paint3_linear_1448_572" x1="84.9" y1="154.307" x2="94.2716" y2="169.551" gradientUnits="userSpaceOnUse">
<stop stop-color="white"/>
<stop offset="1" stop-color="#5E5E5E"/>
</linearGradient>
<linearGradient id="paint4_linear_1448_572" x1="85.2466" y1="154.094" x2="94.6181" y2="169.337" gradientUnits="userSpaceOnUse">
<stop stop-color="white"/>
<stop offset="1" stop-color="#5E5E5E"/>
</linearGradient>
<linearGradient id="paint5_linear_1448_572" x1="85.244" y1="154.095" x2="94.6156" y2="169.339" gradientUnits="userSpaceOnUse">
<stop stop-color="white"/>
<stop offset="1" stop-color="#5E5E5E"/>
</linearGradient>
<linearGradient id="paint6_linear_1448_572" x1="85.2175" y1="154.112" x2="94.5892" y2="169.356" gradientUnits="userSpaceOnUse">
<stop stop-color="white"/>
<stop offset="1" stop-color="#5E5E5E"/>
</linearGradient>
<linearGradient id="paint7_linear_1448_572" x1="85.1955" y1="154.122" x2="94.5672" y2="169.366" gradientUnits="userSpaceOnUse">
<stop stop-color="white"/>
<stop offset="1" stop-color="#5E5E5E"/>
</linearGradient>
<linearGradient id="paint8_linear_1448_572" x1="85.1482" y1="154.153" x2="94.5198" y2="169.397" gradientUnits="userSpaceOnUse">
<stop stop-color="white"/>
<stop offset="1" stop-color="#5E5E5E"/>
</linearGradient>
<linearGradient id="paint9_linear_1448_572" x1="85.0875" y1="154.191" x2="94.4592" y2="169.435" gradientUnits="userSpaceOnUse">
<stop stop-color="white"/>
<stop offset="1" stop-color="#5E5E5E"/>
</linearGradient>
<linearGradient id="paint10_linear_1448_572" x1="85.0456" y1="154.219" x2="94.4173" y2="169.462" gradientUnits="userSpaceOnUse">
<stop stop-color="white"/>
<stop offset="1" stop-color="#5E5E5E"/>
</linearGradient>
<linearGradient id="paint11_linear_1448_572" x1="85.0066" y1="154.241" x2="94.3783" y2="169.485" gradientUnits="userSpaceOnUse">
<stop stop-color="white"/>
<stop offset="1" stop-color="#5E5E5E"/>
</linearGradient>
<linearGradient id="paint12_linear_1448_572" x1="84.9672" y1="154.267" x2="94.3389" y2="169.511" gradientUnits="userSpaceOnUse">
<stop stop-color="white"/>
<stop offset="1" stop-color="#5E5E5E"/>
</linearGradient>
<linearGradient id="paint13_linear_1448_572" x1="84.9273" y1="154.293" x2="94.2989" y2="169.537" gradientUnits="userSpaceOnUse">
<stop stop-color="white"/>
<stop offset="1" stop-color="#5E5E5E"/>
</linearGradient>
<linearGradient id="paint14_linear_1448_572" x1="84.8826" y1="154.318" x2="94.2543" y2="169.562" gradientUnits="userSpaceOnUse">
<stop stop-color="white"/>
<stop offset="1" stop-color="#5E5E5E"/>
</linearGradient>
<linearGradient id="paint15_linear_1448_572" x1="84.8377" y1="154.344" x2="94.2094" y2="169.588" gradientUnits="userSpaceOnUse">
<stop stop-color="white"/>
<stop offset="1" stop-color="#5E5E5E"/>
</linearGradient>
<linearGradient id="paint16_linear_1448_572" x1="84.7903" y1="154.374" x2="94.1619" y2="169.617" gradientUnits="userSpaceOnUse">
<stop stop-color="white"/>
<stop offset="1" stop-color="#5E5E5E"/>
</linearGradient>
<linearGradient id="paint17_linear_1448_572" x1="84.7402" y1="154.405" x2="94.1118" y2="169.649" gradientUnits="userSpaceOnUse">
<stop stop-color="white"/>
<stop offset="1" stop-color="#5E5E5E"/>
</linearGradient>
<linearGradient id="paint18_linear_1448_572" x1="84.6874" y1="154.436" x2="94.059" y2="169.68" gradientUnits="userSpaceOnUse">
<stop stop-color="white"/>
<stop offset="1" stop-color="#5E5E5E"/>
</linearGradient>
<linearGradient id="paint19_linear_1448_572" x1="84.6338" y1="154.471" x2="94.0055" y2="169.715" gradientUnits="userSpaceOnUse">
<stop stop-color="white"/>
<stop offset="1" stop-color="#5E5E5E"/>
</linearGradient>
<linearGradient id="paint20_linear_1448_572" x1="84.5768" y1="154.506" x2="93.9484" y2="169.749" gradientUnits="userSpaceOnUse">
<stop stop-color="white"/>
<stop offset="1" stop-color="#5E5E5E"/>
</linearGradient>
<linearGradient id="paint21_linear_1448_572" x1="84.5178" y1="154.542" x2="93.8894" y2="169.786" gradientUnits="userSpaceOnUse">
<stop stop-color="white"/>
<stop offset="1" stop-color="#5E5E5E"/>
</linearGradient>
<linearGradient id="paint22_linear_1448_572" x1="84.4569" y1="154.581" x2="93.8287" y2="169.825" gradientUnits="userSpaceOnUse">
<stop stop-color="white"/>
<stop offset="1" stop-color="#5E5E5E"/>
</linearGradient>
<linearGradient id="paint23_linear_1448_572" x1="84.3943" y1="154.619" x2="93.7659" y2="169.862" gradientUnits="userSpaceOnUse">
<stop stop-color="white"/>
<stop offset="1" stop-color="#5E5E5E"/>
</linearGradient>
<linearGradient id="paint24_linear_1448_572" x1="84.3314" y1="154.656" x2="93.703" y2="169.9" gradientUnits="userSpaceOnUse">
<stop stop-color="white"/>
<stop offset="1" stop-color="#5E5E5E"/>
</linearGradient>
<linearGradient id="paint25_linear_1448_572" x1="84.2607" y1="154.699" x2="93.6322" y2="169.942" gradientUnits="userSpaceOnUse">
<stop stop-color="white"/>
<stop offset="1" stop-color="#5E5E5E"/>
</linearGradient>
<linearGradient id="paint26_linear_1448_572" x1="84.191" y1="154.743" x2="93.5626" y2="169.987" gradientUnits="userSpaceOnUse">
<stop stop-color="white"/>
<stop offset="1" stop-color="#5E5E5E"/>
</linearGradient>
<linearGradient id="paint27_linear_1448_572" x1="84.1172" y1="154.786" x2="93.4888" y2="170.03" gradientUnits="userSpaceOnUse">
<stop stop-color="white"/>
<stop offset="1" stop-color="#5E5E5E"/>
</linearGradient>
<linearGradient id="paint28_linear_1448_572" x1="84.0392" y1="154.836" x2="93.4107" y2="170.079" gradientUnits="userSpaceOnUse">
<stop stop-color="white"/>
<stop offset="1" stop-color="#5E5E5E"/>
</linearGradient>
<linearGradient id="paint29_linear_1448_572" x1="83.9574" y1="154.886" x2="93.3291" y2="170.129" gradientUnits="userSpaceOnUse">
<stop stop-color="white"/>
<stop offset="1" stop-color="#5E5E5E"/>
</linearGradient>
<linearGradient id="paint30_linear_1448_572" x1="83.8674" y1="154.942" x2="93.239" y2="170.186" gradientUnits="userSpaceOnUse">
<stop stop-color="white"/>
<stop offset="1" stop-color="#5E5E5E"/>
</linearGradient>
<linearGradient id="paint31_linear_1448_572" x1="83.7663" y1="155.004" x2="93.1379" y2="170.248" gradientUnits="userSpaceOnUse">
<stop stop-color="white"/>
<stop offset="1" stop-color="#5E5E5E"/>
</linearGradient>
<linearGradient id="paint32_linear_1448_572" x1="83.6508" y1="155.077" x2="93.0225" y2="170.32" gradientUnits="userSpaceOnUse">
<stop stop-color="white"/>
<stop offset="1" stop-color="#5E5E5E"/>
</linearGradient>
<linearGradient id="paint33_linear_1448_572" x1="83.5074" y1="155.162" x2="92.879" y2="170.406" gradientUnits="userSpaceOnUse">
<stop stop-color="white"/>
<stop offset="1" stop-color="#5E5E5E"/>
</linearGradient>
<linearGradient id="paint34_linear_1448_572" x1="82.925" y1="155.52" x2="92.2966" y2="170.764" gradientUnits="userSpaceOnUse">
<stop stop-color="white"/>
<stop offset="1" stop-color="#5E5E5E"/>
</linearGradient>
<linearGradient id="paint35_linear_1448_572" x1="78.1299" y1="154.293" x2="98.6073" y2="151.136" gradientUnits="userSpaceOnUse">
<stop stop-color="white"/>
<stop offset="1" stop-color="#5E5E5E"/>
</linearGradient>
<linearGradient id="paint36_linear_1448_572" x1="99.5625" y1="116.165" x2="109.463" y2="275.447" gradientUnits="userSpaceOnUse">
<stop offset="0.0409324" stop-color="#A7EAFD" stop-opacity="0"/>
<stop offset="1" stop-color="#53A5F8" stop-opacity="0.66"/>
</linearGradient>
</defs>
</svg>
