<svg width="1082" height="350" viewBox="0 0 1082 350" fill="none" xmlns="http://www.w3.org/2000/svg">
<path d="M1081.52 248.655C1081.52 248.095 1080.5 248.42 1080.5 249.5C1080.27 249.265 1078.93 249.728 1078.5 250C1077.95 250.335 1078.35 251.217 1077.6 251.548C1077 251.813 1076.23 252.073 1075.48 252.338C1074.52 252.684 1073.54 253.03 1072.36 253.369C1071.49 253.619 1070.51 253.861 1069.52 254.106C1068.01 254.49 1066.37 254.87 1064.57 255.246C1063.48 255.469 1062.35 255.693 1061.18 255.912C1058.27 256.46 1055.02 256.999 1051.46 257.528C1050.57 257.662 1049.8 257.8 1048.86 257.93C1046.72 258.232 1044.29 258.522 1041.96 258.813C1040.16 259.04 1038.47 259.271 1036.53 259.491C1033.93 259.788 1031 260.071 1028.16 260.354C1025.97 260.574 1023.97 260.801 1021.64 261.017L635.5 290.235C628.839 290.85 617.834 291.218 610.5 291.735C608.985 291.843 606.563 292.131 605 292.235C597.762 292.719 592.243 292.844 584.5 293.235C582.432 293.34 579.592 293.139 577.5 293.235C573.652 293.414 568.944 294.079 565 294.235C562.523 294.332 560.001 294.146 557.5 294.235C553.677 294.373 551.896 294.62 548 294.735C545.691 294.802 542.833 294.676 540.5 294.735C532.54 294.948 526.652 295.109 518.5 295.235C518.139 295.243 516 295.235 510.5 295.235C503.743 295.336 499.829 295.191 493 295.235C490.547 295.25 487.953 295.228 485.5 295.235C481.172 295.25 478.828 295.243 474.5 295.235C471.783 295.228 469.217 295.25 466.5 295.235C462.58 295.213 460.396 295.276 456.5 295.235C453.735 295.206 448.741 295.276 446 295.235C442.056 295.18 437.896 295.314 434 295.235C431.379 295.183 428.121 295.295 425.5 295.235C420.907 295.127 419.045 294.869 414.5 294.735C412.504 294.676 407.472 294.299 405.5 294.235C398.598 294.012 393.685 294.026 387 293.735C385.822 293.683 383.178 293.787 382 293.735C375.002 293.415 369.685 293.126 363 292.735C360.235 292.572 356.193 292.41 353.5 292.235L89.5 279.5C80.2419 278.901 71.8634 278.704 64 278C23.0237 274.336 0.77008 271.383 0.866268 266.357L0.000314035 313.359C-0.0958744 318.389 29 323 62.8833 326.99C70.1084 327.841 89.5 329.5 102.5 331L155 334.5L219.5 339L283.5 342.5L352.243 346.092C353.926 346.204 355.633 346.308 357.364 346.416C358.374 346.479 359.481 346.52 360.515 346.58C367.2 346.975 374.053 347.336 381.051 347.656C381.869 347.693 382.614 347.745 383.456 347.783C383.793 347.797 384.177 347.809 384.513 347.824C391.223 348.118 398.028 348.375 404.954 348.598C405.29 348.609 405.627 348.624 405.988 348.635C407.623 348.687 409.306 348.721 410.941 348.769C415.486 348.903 420.031 349.03 424.648 349.138C425.442 349.157 426.235 349.183 427.029 349.201C428.832 349.242 430.66 349.261 432.464 349.294C436.383 349.373 440.327 349.443 444.271 349.499C445.425 349.518 446.58 349.544 447.734 349.559C449.297 349.577 450.908 349.581 452.471 349.6C456.391 349.641 460.334 349.674 464.278 349.696C465.745 349.704 467.211 349.726 468.678 349.734C469.905 349.737 471.156 349.73 472.382 349.73C476.735 349.741 481.063 349.734 485.391 349.719C487.099 349.715 488.806 349.723 490.514 349.715C491.259 349.711 492.004 349.696 492.774 349.693C499.651 349.648 506.505 349.585 513.286 349.481C513.575 349.477 513.839 349.477 514.128 349.473L514.224 349.469C522.4 349.343 530.455 349.16 538.439 348.948C539.425 348.922 540.435 348.911 541.421 348.885C542.744 348.848 544.018 348.795 545.341 348.754C549.237 348.639 553.084 348.509 556.907 348.375C559.408 348.285 561.909 348.196 564.386 348.099C568.33 347.943 572.178 347.768 576.025 347.589C577.684 347.511 579.415 347.451 581.051 347.369C581.483 347.347 581.892 347.317 582.325 347.295C590.068 346.904 597.523 346.461 604.762 345.98C606.301 345.876 607.791 345.768 609.33 345.66C616.664 345.143 623.783 344.592 630.444 343.977L1020.8 308.019C1021.16 307.986 1021.55 307.952 1021.91 307.915C1023.85 307.732 1025.51 307.539 1027.34 307.353C1030.15 307.07 1033.06 306.787 1035.66 306.492C1037.61 306.269 1039.29 306.038 1041.12 305.811C1043.45 305.521 1045.88 305.23 1048 304.932C1048.24 304.899 1048.53 304.865 1048.77 304.832C1049.46 304.735 1049.92 304.627 1050.59 304.53C1054.15 304.001 1057.38 303.465 1060.31 302.914C1060.84 302.814 1061.56 302.721 1062.07 302.624C1062.69 302.501 1063.1 302.371 1063.7 302.248C1065.5 301.872 1067.14 301.492 1068.65 301.108C1069.26 300.959 1070.05 300.814 1070.6 300.661C1070.96 300.565 1071.16 300.468 1071.49 300.371C1072.67 300.028 1073.66 299.682 1074.62 299.336C1075.12 299.15 1075.84 298.971 1076.28 298.785C1076.47 298.707 1076.54 298.625 1076.71 298.547C1077.46 298.215 1078.01 297.88 1078.56 297.545C1078.9 297.336 1079.24 297.209 1079.5 297C1079.6 296.937 1079.79 296.796 1079.86 296.733C1080.34 296.31 1080.5 296.5 1081 296C1081.12 295.791 1081.06 295.236 1081.11 295.028C1081.13 294.931 1081.13 294.834 1081.13 294.737L1082 247.735C1082 248.044 1081.69 248.35 1081.52 248.655Z" fill="#FFE345"/>
<path d="M915.551 289.338L886 291.506V287.168L915.551 285V289.338Z" fill="white"/>
<path d="M1019.3 237.314C1100.62 242.952 1104.33 252.27 1021.68 258.18L631.325 286.073C557.573 291.356 439.119 292.046 353.175 287.713L89.501 274.418C80.243 273.953 71.6817 273.442 63.8184 272.896C-1.44482 268.37 -18.5901 261.325 25.0791 255.502L283.703 220.968C343.869 212.936 492.503 210.512 598.213 215.841L993.375 235.777C1002.73 236.251 1011.39 236.765 1019.3 237.314Z" fill="#FFF2AC"/>
<path d="M1021.65 258.179L631.301 286.073C557.55 291.356 439.095 292.046 353.151 287.713L89.4774 274.418C80.2193 273.953 71.6588 273.442 63.7954 272.896C32.1738 270.703 11.9742 267.916 4.37539 264.967C-8.50142 270.5 13.7539 274.661 63.7954 278.13C71.6588 278.675 80.2433 279.184 89.4774 279.652L353.151 292.947C439.095 297.28 557.55 296.589 631.301 291.306L1021.65 263.413C1071.72 259.837 1089.9 255.011 1078.55 250.505C1071.31 253.292 1052.51 255.973 1021.65 258.179Z" fill="white"/>
<path d="M496.905 280.879C464.153 280.879 431.161 280.172 402.569 278.73L214.595 269.254C207.501 268.895 200.936 268.505 194.925 268.09C166.501 266.117 148.73 263.428 144.882 260.513C141.612 258.044 148.369 255.609 164.385 253.471L348.776 228.853C395.138 222.658 506.307 220.78 586.6 224.833L868.357 239.044C875.523 239.408 882.136 239.801 888.172 240.216L888.196 240.219C920.731 242.475 938.742 245.574 938.887 248.939C939.079 252.25 921.717 255.323 890.023 257.587L611.729 277.477C580.227 279.721 538.746 280.879 496.905 280.879ZM492.216 225.569C441.284 225.569 391.7 227.427 366.619 230.777L182.227 255.398C171.214 256.868 166.525 258.477 168.593 260.057C171.286 262.093 184.921 264.057 206.948 265.585C212.142 265.946 217.817 266.279 223.901 266.588L411.851 276.064C469.54 278.973 550.121 278.511 599.369 274.987L877.664 255.097C901.734 253.376 914.912 251.195 914.791 248.951C914.671 246.652 900.94 244.436 876.148 242.715C870.906 242.354 865.159 242.013 858.979 241.698L577.246 227.487C551.395 226.187 521.577 225.569 492.216 225.569Z" fill="#FFE345"/>
<path d="M658.551 306.35L629 308.518V304.179L658.551 302.012V306.35Z" fill="white"/>
<path d="M727.502 301.618L697.951 303.786V299.448L727.502 297.28V301.618Z" fill="white"/>
<path d="M791.53 297.478L761.979 299.645V295.307L791.53 293.14V297.478Z" fill="white"/>
<path d="M850.632 293.338L821.081 295.506V291.168L850.632 289V293.338Z" fill="white"/>
<path d="M147.951 263C139.876 260.687 142.119 258.077 147.951 255.915V0H934.951V251.5C933.751 251.9 911.451 255.333 900.451 257C896.851 257.8 850.285 260.667 827.451 262C826.251 262.4 769.618 266.5 741.451 268.5C738.251 268.1 688.451 272 663.951 274C657.451 275 590.951 278 589.451 279C588.251 279.8 528.618 281 498.951 281.5C496.551 281.9 445.951 280.667 420.951 280L348.451 276.5L271.451 273C269.451 271.8 233.618 270.5 215.951 270C191.551 269.6 160.451 265.167 147.951 263Z" fill="url(#paint0_linear_1447_732)"/>
<defs>
<linearGradient id="paint0_linear_1447_732" x1="537.975" y1="0" x2="537.975" y2="281.578" gradientUnits="userSpaceOnUse">
<stop stop-color="#FFF2AC" stop-opacity="0"/>
<stop offset="1" stop-color="#FFE345" stop-opacity="0.45"/>
</linearGradient>
</defs>
</svg>
