<svg width="375" height="375" viewBox="0 0 375 375" fill="none" xmlns="http://www.w3.org/2000/svg">
<path fill-rule="evenodd" clip-rule="evenodd" d="M40.1924 19.0035C29.3684 11.8083 14.5599 7.65863 7.24917 18.405C2.67401 25.1302 0 33.2528 0 42L0 333C0 356.196 18.804 375 42 375H333C356.196 375 375 356.196 375 333V42C375 18.804 356.196 0 333 0L224.844 0C215.667 0 207.324 4.77813 200.682 11.1116C187.762 23.4338 170.264 30.9995 151 30.9995L80 30.9995C65.2817 30.9995 51.5949 26.5832 40.1924 19.0035Z" fill="#00FF38"/>
</svg>
