<svg width="452" height="375" viewBox="0 0 452 375" fill="none" xmlns="http://www.w3.org/2000/svg">
<mask id="path-1-inside-1_705_131" fill="white">
<path fill-rule="evenodd" clip-rule="evenodd" d="M42 375C18.804 375 0 356.196 0 333L0 41.9999C0 18.804 18.804 -6.10352e-05 42 -6.10352e-05H307.663C329.017 -6.10352e-05 344.725 33.6454 344.725 54.9998V99.9998C344.725 139.764 376.961 172 416.725 172H424C439.464 172 452 184.536 452 200V333C452 356.196 433.196 375 410 375H42Z"/>
</mask>
<path d="M2 333C2 355.091 19.9086 373 42 373V377C17.6995 377 -2 357.301 -2 333H2ZM2 41.9999L2 333H-2L-2 41.9999H2ZM42 1.99994C19.9086 1.99994 2 19.9086 2 41.9999H-2C-2 17.6994 17.6995 -2.00006 42 -2.00006V1.99994ZM307.663 1.99994H42V-2.00006H307.663V1.99994ZM346.725 54.9998V99.9998H342.725V54.9998H346.725ZM346.725 99.9998C346.725 138.66 378.065 170 416.725 170V174C375.856 174 342.725 140.869 342.725 99.9998H346.725ZM416.725 170H424V174H416.725V170ZM450 333V200H454V333H450ZM410 373C432.091 373 450 355.091 450 333H454C454 357.301 434.3 377 410 377V373ZM42 373H410V377H42V373ZM424 170C440.568 170 454 183.431 454 200H450C450 185.64 438.359 174 424 174V170ZM307.663 -2.00006C319.432 -2.00006 329.219 7.21225 335.92 18.4689C342.676 29.8177 346.725 43.9172 346.725 54.9998H342.725C342.725 44.728 338.92 31.3276 332.483 20.515C325.992 9.61035 317.248 1.99994 307.663 1.99994V-2.00006Z" fill="#FB2728" mask="url(#path-1-inside-1_705_131)"/>
</svg>
