<svg width="458" height="137" viewBox="0 0 458 137" fill="none" xmlns="http://www.w3.org/2000/svg">
<mask id="path-1-outside-1_58_746" maskUnits="userSpaceOnUse" x="0" y="0" width="458" height="137" fill="black">
<rect fill="white" width="458" height="137"/>
<path fill-rule="evenodd" clip-rule="evenodd" d="M84 7.97135C84 4.67347 81.3265 2 78.0286 2H13C6.92487 2 2 6.92487 2 13V124C2 130.075 6.92486 135 13 135H445C451.075 135 456 130.075 456 124V13C456 6.92487 451.075 2 445 2H399.732C396.434 2 393.76 4.67347 393.76 7.97135V7.97135C393.76 11.2692 391.087 13.9427 387.789 13.9427H89.9713C86.6734 13.9427 84 11.2692 84 7.97135V7.97135Z"/>
</mask>
<path d="M13 4H78.0286V0H13V4ZM4 124V13H0V124H4ZM445 133H13V137H445V133ZM454 13V124H458V13H454ZM399.732 4H445V0H399.732V4ZM387.789 11.9427H89.9713V15.9427H387.789V11.9427ZM89.9713 11.9427C87.778 11.9427 86 10.1647 86 7.97135H82C82 12.3738 85.5689 15.9427 89.9713 15.9427V11.9427ZM391.76 7.97135C391.76 10.1647 389.982 11.9427 387.789 11.9427V15.9427C392.192 15.9427 395.76 12.3738 395.76 7.97135H391.76ZM399.732 0C395.329 0 391.76 3.5689 391.76 7.97135H395.76C395.76 5.77804 397.538 4 399.732 4V0ZM458 13C458 5.8203 452.18 0 445 0V4C449.971 4 454 8.02944 454 13H458ZM445 137C452.18 137 458 131.18 458 124H454C454 128.971 449.971 133 445 133V137ZM0 124C0 131.18 5.82028 137 13 137V133C8.02943 133 4 128.971 4 124H0ZM78.0286 4C80.222 4 82 5.77803 82 7.97135H86C86 3.5689 82.4311 0 78.0286 0V4ZM13 0C5.8203 0 0 5.8203 0 13H4C4 8.02944 8.02944 4 13 4V0Z" fill="url(#paint0_linear_58_746)" mask="url(#path-1-outside-1_58_746)"/>
<defs>
<linearGradient id="paint0_linear_58_746" x1="496.198" y1="-1.11719" x2="423.443" y2="254.703" gradientUnits="userSpaceOnUse">
<stop stop-color="white"/>
<stop offset="1" stop-color="#ECECEC"/>
</linearGradient>
</defs>
</svg>
