<svg width="197" height="65" viewBox="0 0 197 65" fill="none" xmlns="http://www.w3.org/2000/svg">
<path fill-rule="evenodd" clip-rule="evenodd" d="M36.3793 2.0607C37.5819 2.20061 38.344 3.42469 37.9421 4.57081L32.0617 21.3419C31.5367 22.8393 29.5194 23.063 28.6813 21.7168L27.4263 19.7009L4.73217 33.9338L2.39815 30.1849C-1.32973 24.1971 0.484521 16.31 6.45039 12.5684L18.3423 5.11024L16.9653 2.89847C16.1272 1.55228 17.2119 -0.169366 18.7829 0.0134214L36.3793 2.0607ZM12.5865 40.9473C4.38753 45.6984 1.57838 56.2208 6.31209 64.4499L29.4035 51.0691C35.4958 47.5388 37.5833 39.72 34.0658 33.6053L31.8636 29.7769L12.5865 40.9473Z" fill="#07C166"/>
<path d="M74.4452 47.5232C71.4042 47.5232 68.8534 46.8457 66.7928 45.4907C64.7323 44.1357 63.2755 42.2815 62.4231 39.9281L67.5811 36.9114C68.7754 40.035 71.1201 41.5969 74.6158 41.5969C76.3066 41.5969 77.5434 41.2974 78.3247 40.6983C79.1067 40.085 79.4974 39.3077 79.4974 38.3663C79.4974 37.2965 79.0141 36.4621 78.0476 35.8631C77.0817 35.264 75.3693 34.608 72.9104 33.8948C71.845 33.581 70.9209 33.2743 70.1396 32.9748C69.3576 32.6753 68.5338 32.2759 67.6668 31.7767C66.8137 31.2633 66.1173 30.6999 65.5777 30.0865C65.038 29.4732 64.5902 28.7101 64.2344 27.7973C63.8792 26.8844 63.7016 25.8646 63.7016 24.7378C63.7016 22.8836 64.178 21.2505 65.1299 19.8384C66.0818 18.4264 67.3116 17.3709 68.8179 16.672C70.3241 15.9731 71.9655 15.6237 73.7419 15.6237C76.2286 15.6237 78.4104 16.2227 80.2864 17.4208C82.1617 18.6189 83.6185 20.3092 84.6561 22.4914L79.5824 25.4225C79.0002 24.1673 78.2467 23.1974 77.3233 22.5128C76.3992 21.8281 75.2057 21.4859 73.7419 21.4859C72.5058 21.4859 71.5247 21.7782 70.8004 22.363C70.0755 22.9335 69.7134 23.6681 69.7134 24.5667C69.7134 25.5223 70.111 26.2996 70.907 26.8987C71.7169 27.4977 73.2586 28.1468 75.5323 28.8456C78.1471 29.6729 80.0092 30.4003 81.1171 31.0279C83.5614 32.3686 84.9897 34.2371 85.4019 36.6333C85.4876 37.1611 85.53 37.7101 85.53 38.2807C85.53 41.1048 84.5064 43.3512 82.4604 45.02C80.4138 46.6888 77.7425 47.5232 74.4452 47.5232ZM101.005 30.4288H96.0605V39.543C96.0605 40.299 96.2451 40.8552 96.6149 41.2118C96.9979 41.5683 97.5522 41.768 98.2771 41.8108C99.0159 41.8394 99.9254 41.8251 101.005 41.768V46.9027C98.3767 47.188 96.2876 47.1096 94.7388 46.6674C93.1894 46.2253 92.0815 45.4337 91.413 44.2926C90.7598 43.1515 90.4325 41.5683 90.4325 39.543V30.4288H86.6387V24.9946H90.4325V20.5659L96.0605 18.8543V24.9946H101.005V30.4288ZM120.873 24.9946H126.5V46.9027H120.873V44.314C119.153 46.4535 116.78 47.5232 113.753 47.5232C110.84 47.5232 108.346 46.4036 106.271 44.1642C104.196 41.9249 103.159 39.1864 103.159 35.9486C103.159 32.7109 104.196 29.9724 106.271 27.7331C108.346 25.4938 110.84 24.3741 113.753 24.3741C116.78 24.3741 119.153 25.4439 120.873 27.5833V24.9946ZM114.798 42.1317C116.56 42.1317 118.009 41.5612 119.146 40.4201C120.297 39.2648 120.873 37.7744 120.873 35.9486C120.873 34.123 120.297 32.6396 119.146 31.4986C118.009 30.3433 116.56 29.7656 114.798 29.7656C113.05 29.7656 111.607 30.3433 110.471 31.4986C109.347 32.6396 108.786 34.123 108.786 35.9486C108.786 37.7744 109.347 39.2648 110.471 40.4201C111.607 41.5612 113.05 42.1317 114.798 42.1317ZM148.158 16.2227H153.785V46.9027H148.158V44.314C146.481 46.4535 144.122 47.5232 141.081 47.5232C139.646 47.5232 138.274 47.2237 136.967 46.6246C135.66 46.0256 134.522 45.2197 133.556 44.2071C132.604 43.1801 131.843 41.9463 131.275 40.5058C130.721 39.0651 130.444 37.5462 130.444 35.9486C130.444 34.3512 130.721 32.8322 131.275 31.3916C131.843 29.951 132.604 28.7244 133.556 27.7117C134.522 26.6847 135.66 25.8717 136.967 25.2727C138.274 24.6737 139.646 24.3741 141.081 24.3741C144.122 24.3741 146.481 25.4439 148.158 27.5833V16.2227ZM142.125 42.1317C143.873 42.1317 145.315 41.5612 146.453 40.4201C147.589 39.2648 148.158 37.7744 148.158 35.9486C148.158 34.123 147.589 32.6396 146.453 31.4986C145.315 30.3433 143.873 29.7656 142.125 29.7656C140.363 29.7656 138.914 30.3433 137.777 31.4986C136.64 32.6396 136.071 34.123 136.071 35.9486C136.071 37.7744 136.64 39.2648 137.777 40.4201C138.914 41.5612 140.363 42.1317 142.125 42.1317ZM163.698 38.2807C164.081 39.6642 164.813 40.6983 165.893 41.3829C166.987 42.0533 168.309 42.3885 169.858 42.3885C170.91 42.3885 171.862 42.1888 172.715 41.7894C173.567 41.39 174.242 40.8624 174.74 40.2062L179.28 42.8378C178.243 44.3496 176.914 45.5121 175.293 46.3251C173.688 47.1239 171.848 47.5232 169.773 47.5232C167.982 47.5232 166.334 47.2308 164.827 46.646C163.321 46.047 162.056 45.2269 161.033 44.1857C160.01 43.1444 159.214 41.9178 158.645 40.5058C158.091 39.0937 157.814 37.5747 157.814 35.9486C157.814 32.6396 158.887 29.8869 161.033 27.6903C163.179 25.4795 165.943 24.3741 169.325 24.3741C171.429 24.3741 173.326 24.8947 175.017 25.9359C176.722 26.9629 178.036 28.3607 178.961 30.1293C179.898 31.8837 180.367 33.8235 180.367 35.9486C180.367 36.6761 180.296 37.4534 180.154 38.2807H163.698ZM163.613 33.8948H174.74C174.413 32.4114 173.745 31.306 172.736 30.5786C171.741 29.8369 170.604 29.466 169.325 29.466C167.833 29.466 166.59 29.8512 165.594 30.6214C164.6 31.3916 163.939 32.4827 163.613 33.8948ZM189.938 28.7601C190.479 27.348 191.345 26.2996 192.539 25.615C193.747 24.9161 195.09 24.5667 196.568 24.5667V30.8567C195.8 30.7711 195.04 30.8068 194.287 30.9637C193.548 31.1063 192.844 31.3844 192.176 31.7981C191.508 32.1974 190.969 32.7965 190.557 33.5952C190.144 34.394 189.938 35.3425 189.938 36.4408V46.9027H184.311V24.9946H189.938V28.7601Z" fill="white"/>
</svg>
