<svg width="375" height="255" viewBox="0 0 375 255" fill="none" xmlns="http://www.w3.org/2000/svg">
<mask id="path-1-inside-1_2026_1617" fill="white">
<path fill-rule="evenodd" clip-rule="evenodd" d="M42 0C18.804 0 0 18.804 0 42L3.321e-06 127.33C3.92285e-06 142.794 16.788 156.354 20.4149 171.387C20.7974 172.972 21 174.627 21 176.33L21 233.231C21 243.226 26.2772 253.227 36.1774 254.6C38.0805 254.864 40.0243 255 42 255L333 255C356.196 255 375 236.196 375 213L375 42C375 18.804 356.196 0 333 0L42 0Z"/>
</mask>
<path d="M0 42H-2H0ZM21 176.33H19H21ZM21 233.231H19H21ZM20.4149 171.387L18.4707 171.856L20.4149 171.387ZM2 42C2 19.9086 19.9086 2 42 2V-2C17.6995 -2 -2 17.6995 -2 42H2ZM2 127.33L2 42H-2L-2 127.33H2ZM18.4707 171.856C18.8164 173.289 19 174.786 19 176.33H23C23 174.468 22.7784 172.655 22.3591 170.918L18.4707 171.856ZM19 176.33L19 233.231H23L23 176.33H19ZM42 253C40.1165 253 38.2645 252.87 36.4522 252.619L35.9027 256.581C37.8965 256.857 39.9321 257 42 257V253ZM333 253L42 253V257L333 257V253ZM373 213C373 235.091 355.091 253 333 253V257C357.301 257 377 237.301 377 213H373ZM373 42L373 213H377L377 42L373 42ZM333 2C355.091 2 373 19.9086 373 42L377 42C377 17.6995 357.301 -2 333 -2V2ZM42 2L333 2V-2L42 -2V2ZM19 233.231C19 243.697 24.5679 255.009 35.9027 256.581L36.4522 252.619C27.9864 251.445 23 242.755 23 233.231H19ZM-2 127.33C-2 135.728 2.54743 143.45 7.16717 150.605C11.9245 157.973 16.7584 164.759 18.4707 171.856L22.3591 170.918C20.4445 162.982 15.0709 155.472 10.5275 148.435C5.84656 141.186 2 134.396 2 127.33H-2Z" fill="#FFE345" mask="url(#path-1-inside-1_2026_1617)"/>
</svg>
