<svg width="453" height="725" viewBox="0 0 453 725" fill="none" xmlns="http://www.w3.org/2000/svg">
<g filter="url(#filter0_bii_1749_1046)">
<path d="M2 17C2 8.71575 8.71573 2 17 2H436C444.284 2 451 8.71573 451 17V708C451 716.284 444.284 723 436 723H17C8.71573 723 2 716.284 2 708V17Z" fill="#D9D9D9" fill-opacity="0.1"/>
<path d="M17 1C8.16344 1 1 8.16347 1 17V708C1 716.837 8.16344 724 17 724H436C444.837 724 452 716.837 452 708V17C452 8.16344 444.837 1 436 1H17Z" stroke="url(#paint0_linear_1749_1046)" stroke-width="2"/>
</g>
<defs>
<filter id="filter0_bii_1749_1046" x="-67.8693" y="-67.8693" width="588.739" height="860.739" filterUnits="userSpaceOnUse" color-interpolation-filters="sRGB">
<feFlood flood-opacity="0" result="BackgroundImageFix"/>
<feGaussianBlur in="BackgroundImageFix" stdDeviation="33.9347"/>
<feComposite in2="SourceAlpha" operator="in" result="effect1_backgroundBlur_1749_1046"/>
<feBlend mode="normal" in="SourceGraphic" in2="effect1_backgroundBlur_1749_1046" result="shape"/>
<feColorMatrix in="SourceAlpha" type="matrix" values="0 0 0 0 0 0 0 0 0 0 0 0 0 0 0 0 0 0 127 0" result="hardAlpha"/>
<feOffset dx="-27.3667" dy="27.3667"/>
<feGaussianBlur stdDeviation="13.6833"/>
<feComposite in2="hardAlpha" operator="arithmetic" k2="-1" k3="1"/>
<feColorMatrix type="matrix" values="0 0 0 0 0.647059 0 0 0 0 0.647059 0 0 0 0 0.647059 0 0 0 0.1 0"/>
<feBlend mode="normal" in2="shape" result="effect2_innerShadow_1749_1046"/>
<feColorMatrix in="SourceAlpha" type="matrix" values="0 0 0 0 0 0 0 0 0 0 0 0 0 0 0 0 0 0 127 0" result="hardAlpha"/>
<feOffset dx="27.3667" dy="-27.3667"/>
<feGaussianBlur stdDeviation="13.6833"/>
<feComposite in2="hardAlpha" operator="arithmetic" k2="-1" k3="1"/>
<feColorMatrix type="matrix" values="0 0 0 0 0.646745 0 0 0 0 0.646745 0 0 0 0 0.646745 0 0 0 0.1 0"/>
<feBlend mode="normal" in2="effect2_innerShadow_1749_1046" result="effect3_innerShadow_1749_1046"/>
</filter>
<linearGradient id="paint0_linear_1749_1046" x1="2" y1="2" x2="581.551" y2="129.478" gradientUnits="userSpaceOnUse">
<stop stop-color="white" stop-opacity="0.65"/>
<stop offset="1" stop-color="#DCDCDC" stop-opacity="0.5"/>
</linearGradient>
</defs>
</svg>
