<svg width="122" height="25" viewBox="0 0 122 25" fill="none" xmlns="http://www.w3.org/2000/svg">
<path d="M0.443917 13.4704C-0.812802 16.5447 0.689994 20.0438 3.80049 21.2858L8.35151 10.153C5.24099 8.91089 1.70066 10.3962 0.443917 13.4704Z" fill="url(#paint0_linear_1688_37949)"/>
<path d="M8.01024 15.5668C6.57399 19.0802 8.29144 23.0791 11.8463 24.4986C15.4012 25.9181 19.4473 24.2208 20.8837 20.7073L8.01024 15.5668Z" fill="url(#paint1_linear_1688_37949)"/>
<path d="M19.9893 0C24.4328 1.7744 26.5797 6.77307 24.7844 11.1649C22.9891 15.5566 17.9314 17.6784 13.4879 15.904L19.9893 0Z" fill="url(#paint2_linear_1688_37949)"/>
<path d="M4.17417 6.63486C5.25136 3.99981 8.28593 2.72673 10.9521 3.79136C13.6182 4.85599 14.9063 7.85519 13.8291 10.4903L4.17417 6.63486Z" fill="url(#paint3_linear_1688_37949)"/>
<path fill-rule="evenodd" clip-rule="evenodd" d="M33.0442 22.1443V2.50001H40.8883C43.6073 2.50001 45.8721 3.45693 47.6642 5.36906C49.4719 7.25974 50.374 9.5827 50.374 12.3222C50.374 15.062 49.4717 17.3939 47.6642 19.3026C45.8719 21.1968 43.6068 22.1443 40.8883 22.1443H33.0442ZM56.8123 18.805C57.6714 19.4426 58.7291 19.7674 60.0003 19.7674C61.7664 19.7674 63.0137 19.1333 63.7955 17.8859L63.9211 17.6853L66.4172 19.0787L66.2746 19.296C64.87 21.4345 62.7465 22.5 59.9449 22.5C57.6814 22.5 55.8164 21.8058 54.3726 20.4045L54.3701 20.4023C52.9477 18.9844 52.2398 17.1969 52.2398 15.0587C52.2398 12.9391 52.9383 11.1613 54.3411 9.7436C55.7473 8.32272 57.5672 7.61729 59.7779 7.61729C61.8843 7.61729 63.6133 8.35514 64.9432 9.833C66.2845 11.2847 66.9543 13.0405 66.9543 15.086C66.9543 15.4455 66.9253 15.8134 66.8681 16.1895L66.8364 16.3976H55.2735C55.5322 17.427 56.0472 18.2245 56.8123 18.805ZM56.7109 11.3865C55.9748 12.0004 55.4913 12.8103 55.2651 13.8292H63.9613C63.7373 12.7205 63.2592 11.8872 62.5414 11.3068C61.7527 10.6689 60.835 10.3499 59.7779 10.3499C58.5298 10.3499 57.5146 10.6992 56.7134 11.3846L56.7109 11.3865ZM90.2464 22.1443H87.3288V13.4715C87.3288 12.4549 87.0622 11.7012 86.5614 11.1757C86.0587 10.6483 85.3861 10.3773 84.5168 10.3773C83.5409 10.3773 82.7764 10.6997 82.1978 11.3356C81.6437 11.9468 81.343 12.916 81.343 14.2925V22.1443H78.4255V13.4715C78.4255 12.4529 78.1669 11.698 77.683 11.1727L77.6815 11.1711L77.6799 11.1695C77.2153 10.6471 76.574 10.3773 75.7245 10.3773C74.7692 10.3773 73.9813 10.6988 73.344 11.3421C72.737 11.9731 72.4117 12.9413 72.4117 14.2925V22.1443H69.4941V7.97304H72.4117V9.30529C73.3771 8.18132 74.6828 7.61729 76.3089 7.61729C77.2809 7.61729 78.1347 7.81869 78.8609 8.23162C79.4801 8.58384 79.9963 9.0841 80.4109 9.72532C81.4208 8.32054 82.8829 7.61729 84.7671 7.61729C86.3848 7.61729 87.7142 8.14079 88.7309 9.19814C89.7497 10.2391 90.2464 11.6461 90.2464 13.3894V22.1443ZM97.1536 18.805C98.0128 19.4426 99.0704 19.7674 100.342 19.7674C102.108 19.7674 103.355 19.1333 104.137 17.8859L104.263 17.6853L106.759 19.0787L106.616 19.296C105.211 21.4345 103.088 22.5 100.286 22.5C98.0227 22.5 96.1577 21.8058 94.7139 20.4045L94.7116 20.4023C93.289 18.9843 92.5811 17.1969 92.5811 15.0587C92.5811 12.9391 93.2796 11.1613 94.6827 9.7436C96.0886 8.32272 97.9085 7.61729 100.119 7.61729C102.226 7.61729 103.955 8.35517 105.285 9.83307C106.626 11.2848 107.296 13.0405 107.296 15.086C107.296 15.4455 107.267 15.8134 107.209 16.1895L107.178 16.3976H95.6148C95.8735 17.427 96.3885 18.2245 97.1536 18.805ZM97.0547 11.3846L97.0524 11.3865C96.3161 12.0004 95.8326 12.8103 95.6064 13.8292H104.303C104.079 12.7205 103.601 11.8872 102.883 11.3068C102.094 10.6689 101.176 10.3499 100.119 10.3499C98.8711 10.3499 97.8562 10.6992 97.0547 11.3846ZM122 22.1443H118.544L114.773 17.1375L110.975 22.1443H107.517L113.045 14.8669L107.824 7.97304H111.31L114.774 12.5687L118.238 7.97304H121.695L116.502 14.8401L122 22.1443ZM40.8883 19.2475C42.8074 19.2475 44.362 18.5893 45.5735 17.2753C46.7887 15.9569 47.4011 14.3117 47.4011 12.3222C47.4011 10.3326 46.7887 8.68739 45.5735 7.36899C44.362 6.05499 42.8074 5.39681 40.8883 5.39681H36.1284V19.2475H40.8883Z" fill="white"/>
<defs>
<linearGradient id="paint0_linear_1688_37949" x1="371.318" y1="6.01863" x2="8.85291e-05" y2="6.01863" gradientUnits="userSpaceOnUse">
<stop stop-color="#482BFF"/>
<stop offset="1" stop-color="#0082FF"/>
</linearGradient>
<linearGradient id="paint1_linear_1688_37949" x1="163.348" y1="-8.12746" x2="-68.4082" y2="-8.12746" gradientUnits="userSpaceOnUse">
<stop stop-color="#482BFF"/>
<stop offset="1" stop-color="#0082FF"/>
</linearGradient>
<linearGradient id="paint2_linear_1688_37949" x1="122" y1="18.9041" x2="-137.923" y2="18.9041" gradientUnits="userSpaceOnUse">
<stop stop-color="#482BFF"/>
<stop offset="1" stop-color="#0082FF"/>
</linearGradient>
<linearGradient id="paint3_linear_1688_37949" x1="258.266" y1="32.1016" x2="-50.7448" y2="32.1016" gradientUnits="userSpaceOnUse">
<stop stop-color="#482BFF"/>
<stop offset="1" stop-color="#0082FF"/>
</linearGradient>
</defs>
</svg>
