<svg width="375" height="255" viewBox="0 0 375 255" fill="none" xmlns="http://www.w3.org/2000/svg">
<mask id="path-1-inside-1_2026_1623" fill="white">
<path fill-rule="evenodd" clip-rule="evenodd" d="M43.2719 11.0204C34.8475 6.0144 24.4367 2.59989 16.631 8.52453C6.52583 16.1945 0 28.3352 0 42L0 213C0 236.196 18.804 255 42 255L333 255C356.196 255 375 236.196 375 213V42C375 18.804 356.196 0 333 0L213.498 0C206.074 0 199.103 3.16349 193.083 7.50761C181.246 16.0477 166.711 21.0797 151 21.0797L80 21.0797C66.584 21.0797 54.025 17.4103 43.2719 11.0204Z"/>
</mask>
<path d="M151 21.0797V23.0797V21.0797ZM80 21.0797V19.0797V21.0797ZM193.083 7.50761L191.912 5.88571L193.083 7.50761ZM2 42C2 28.9871 8.21175 17.4257 17.8402 10.1176L15.4218 6.93145C4.83991 14.9633 -2 27.6832 -2 42H2ZM2 213L2 42H-2L-2 213H2ZM42 253C19.9086 253 2 235.091 2 213H-2C-2 237.301 17.6995 257 42 257V253ZM333 253L42 253V257H333V253ZM373 213C373 235.091 355.091 253 333 253V257C357.301 257 377 237.301 377 213H373ZM373 42V213H377V42H373ZM333 2C355.091 2 373 19.9086 373 42H377C377 17.6995 357.301 -2 333 -2V2ZM213.498 2L333 2V-2L213.498 -2V2ZM191.912 5.88571C180.405 14.1882 166.277 19.0797 151 19.0797V23.0797C167.145 23.0797 182.087 17.9073 194.253 9.12952L191.912 5.88571ZM151 19.0797L80 19.0797V23.0797L151 23.0797V19.0797ZM80 19.0797C66.9534 19.0797 54.7461 15.5124 44.2936 9.3011L42.2502 12.7398C53.3039 19.3083 66.2146 23.0797 80 23.0797V19.0797ZM213.498 -2C205.503 -2 198.128 1.40139 191.912 5.88571L194.253 9.12952C200.079 4.9256 206.644 2 213.498 2V-2ZM17.8402 10.1176C21.1979 7.56904 25.1576 6.97106 29.4044 7.64851C33.6897 8.33209 38.1514 10.3041 42.2502 12.7398L44.2936 9.3011C39.968 6.73069 35.0121 4.49247 30.0345 3.69845C25.0184 2.89828 19.8698 3.55538 15.4218 6.93145L17.8402 10.1176Z" fill="#00FF38" mask="url(#path-1-inside-1_2026_1623)"/>
</svg>
