<svg width="375" height="255" viewBox="0 0 375 255" fill="none" xmlns="http://www.w3.org/2000/svg">
<path fill-rule="evenodd" clip-rule="evenodd" d="M43.2719 11.0204C34.8475 6.0144 24.4367 2.59989 16.631 8.52453C6.52583 16.1945 0 28.3352 0 42L0 213C0 236.196 18.804 255 42 255L333 255C356.196 255 375 236.196 375 213V42C375 18.804 356.196 0 333 0L213.498 0C206.074 0 199.103 3.16349 193.083 7.50761C181.246 16.0477 166.711 21.0797 151 21.0797L80 21.0797C66.584 21.0797 54.025 17.4103 43.2719 11.0204Z" fill="#00FF38"/>
</svg>
