<svg width="1338" height="817" viewBox="0 0 1338 817" fill="none" xmlns="http://www.w3.org/2000/svg">
<g filter="url(#filter0_bii_1946_1483)">
<path d="M2 17C2 8.71574 8.71573 2 17 2H1321C1329.28 2 1336 8.71573 1336 17V800C1336 808.284 1329.28 815 1321 815H17C8.7157 815 2 808.284 2 800V17Z" fill="#D9D9D9" fill-opacity="0.1"/>
<path d="M17 1C8.16344 1 1 8.16346 1 17V800C1 808.837 8.16341 816 17 816H1321C1329.84 816 1337 808.837 1337 800V17C1337 8.16345 1329.84 1 1321 1H17Z" stroke="url(#paint0_linear_1946_1483)" stroke-width="2"/>
</g>
<defs>
<filter id="filter0_bii_1946_1483" x="-67.8693" y="-67.8693" width="1473.74" height="952.739" filterUnits="userSpaceOnUse" color-interpolation-filters="sRGB">
<feFlood flood-opacity="0" result="BackgroundImageFix"/>
<feGaussianBlur in="BackgroundImageFix" stdDeviation="33.9347"/>
<feComposite in2="SourceAlpha" operator="in" result="effect1_backgroundBlur_1946_1483"/>
<feBlend mode="normal" in="SourceGraphic" in2="effect1_backgroundBlur_1946_1483" result="shape"/>
<feColorMatrix in="SourceAlpha" type="matrix" values="0 0 0 0 0 0 0 0 0 0 0 0 0 0 0 0 0 0 127 0" result="hardAlpha"/>
<feOffset dx="-27.3667" dy="27.3667"/>
<feGaussianBlur stdDeviation="13.6833"/>
<feComposite in2="hardAlpha" operator="arithmetic" k2="-1" k3="1"/>
<feColorMatrix type="matrix" values="0 0 0 0 0.647059 0 0 0 0 0.647059 0 0 0 0 0.647059 0 0 0 0.1 0"/>
<feBlend mode="normal" in2="shape" result="effect2_innerShadow_1946_1483"/>
<feColorMatrix in="SourceAlpha" type="matrix" values="0 0 0 0 0 0 0 0 0 0 0 0 0 0 0 0 0 0 127 0" result="hardAlpha"/>
<feOffset dx="27.3667" dy="-27.3667"/>
<feGaussianBlur stdDeviation="13.6833"/>
<feComposite in2="hardAlpha" operator="arithmetic" k2="-1" k3="1"/>
<feColorMatrix type="matrix" values="0 0 0 0 0.646745 0 0 0 0 0.646745 0 0 0 0 0.646745 0 0 0 0.1 0"/>
<feBlend mode="normal" in2="effect2_innerShadow_1946_1483" result="effect3_innerShadow_1946_1483"/>
</filter>
<linearGradient id="paint0_linear_1946_1483" x1="1336" y1="815" x2="588.019" y2="1185.4" gradientUnits="userSpaceOnUse">
<stop stop-color="#C700BF"/>
<stop offset="0.505" stop-color="#EB9344"/>
<stop offset="1" stop-color="#FA8237"/>
</linearGradient>
</defs>
</svg>
