<svg width="1552" height="946" viewBox="0 0 1552 946" fill="none" xmlns="http://www.w3.org/2000/svg">
<g filter="url(#filter0_bii_1749_1044)">
<path d="M2 17C2 8.71572 8.71573 2 17 2H1535C1543.28 2 1550 8.71573 1550 17V929C1550 937.284 1543.28 944 1535 944H17C8.71574 944 2 937.284 2 929V17Z" fill="#D9D9D9" fill-opacity="0.1"/>
<path d="M17 1C8.16344 1 1 8.16344 1 17V929C1 937.837 8.16345 945 17 945H1535C1543.84 945 1551 937.837 1551 929V17C1551 8.16344 1543.84 1 1535 1H17Z" stroke="url(#paint0_linear_1749_1044)" stroke-width="2"/>
</g>
<defs>
<filter id="filter0_bii_1749_1044" x="-67.8693" y="-67.8693" width="1687.74" height="1081.74" filterUnits="userSpaceOnUse" color-interpolation-filters="sRGB">
<feFlood flood-opacity="0" result="BackgroundImageFix"/>
<feGaussianBlur in="BackgroundImageFix" stdDeviation="33.9347"/>
<feComposite in2="SourceAlpha" operator="in" result="effect1_backgroundBlur_1749_1044"/>
<feBlend mode="normal" in="SourceGraphic" in2="effect1_backgroundBlur_1749_1044" result="shape"/>
<feColorMatrix in="SourceAlpha" type="matrix" values="0 0 0 0 0 0 0 0 0 0 0 0 0 0 0 0 0 0 127 0" result="hardAlpha"/>
<feOffset dx="-27.3667" dy="27.3667"/>
<feGaussianBlur stdDeviation="13.6833"/>
<feComposite in2="hardAlpha" operator="arithmetic" k2="-1" k3="1"/>
<feColorMatrix type="matrix" values="0 0 0 0 0.647059 0 0 0 0 0.647059 0 0 0 0 0.647059 0 0 0 0.1 0"/>
<feBlend mode="normal" in2="shape" result="effect2_innerShadow_1749_1044"/>
<feColorMatrix in="SourceAlpha" type="matrix" values="0 0 0 0 0 0 0 0 0 0 0 0 0 0 0 0 0 0 127 0" result="hardAlpha"/>
<feOffset dx="27.3667" dy="-27.3667"/>
<feGaussianBlur stdDeviation="13.6833"/>
<feComposite in2="hardAlpha" operator="arithmetic" k2="-1" k3="1"/>
<feColorMatrix type="matrix" values="0 0 0 0 0.646745 0 0 0 0 0.646745 0 0 0 0 0.646745 0 0 0 0.1 0"/>
<feBlend mode="normal" in2="effect2_innerShadow_1749_1044" result="effect3_innerShadow_1749_1044"/>
</filter>
<linearGradient id="paint0_linear_1749_1044" x1="1550" y1="944" x2="682.544" y2="1374.21" gradientUnits="userSpaceOnUse">
<stop stop-color="#C700BF"/>
<stop offset="0.505" stop-color="#EB9344"/>
<stop offset="1" stop-color="#FA8237"/>
</linearGradient>
</defs>
</svg>
