<svg width="934" height="725" viewBox="0 0 934 725" fill="none" xmlns="http://www.w3.org/2000/svg">
<g filter="url(#filter0_bii_1749_1047)">
<path d="M2 17C2 8.71575 8.71573 2 17 2H917C925.284 2 932 8.71573 932 17V708C932 716.284 925.284 723 917 723H17C8.71571 723 2 716.284 2 708V17Z" fill="#D9D9D9" fill-opacity="0.1"/>
<path d="M17 1C8.16344 1 1 8.16347 1 17V708C1 716.837 8.16343 724 17 724H917C925.837 724 933 716.837 933 708V17C933 8.16345 925.837 1 917 1H17Z" stroke="url(#paint0_linear_1749_1047)" stroke-width="2"/>
</g>
<defs>
<filter id="filter0_bii_1749_1047" x="-67.8693" y="-67.8693" width="1069.74" height="860.739" filterUnits="userSpaceOnUse" color-interpolation-filters="sRGB">
<feFlood flood-opacity="0" result="BackgroundImageFix"/>
<feGaussianBlur in="BackgroundImageFix" stdDeviation="33.9347"/>
<feComposite in2="SourceAlpha" operator="in" result="effect1_backgroundBlur_1749_1047"/>
<feBlend mode="normal" in="SourceGraphic" in2="effect1_backgroundBlur_1749_1047" result="shape"/>
<feColorMatrix in="SourceAlpha" type="matrix" values="0 0 0 0 0 0 0 0 0 0 0 0 0 0 0 0 0 0 127 0" result="hardAlpha"/>
<feOffset dx="-27.3667" dy="27.3667"/>
<feGaussianBlur stdDeviation="13.6833"/>
<feComposite in2="hardAlpha" operator="arithmetic" k2="-1" k3="1"/>
<feColorMatrix type="matrix" values="0 0 0 0 0.647059 0 0 0 0 0.647059 0 0 0 0 0.647059 0 0 0 0.1 0"/>
<feBlend mode="normal" in2="shape" result="effect2_innerShadow_1749_1047"/>
<feColorMatrix in="SourceAlpha" type="matrix" values="0 0 0 0 0 0 0 0 0 0 0 0 0 0 0 0 0 0 127 0" result="hardAlpha"/>
<feOffset dx="27.3667" dy="-27.3667"/>
<feGaussianBlur stdDeviation="13.6833"/>
<feComposite in2="hardAlpha" operator="arithmetic" k2="-1" k3="1"/>
<feColorMatrix type="matrix" values="0 0 0 0 0.646745 0 0 0 0 0.646745 0 0 0 0 0.646745 0 0 0 0.1 0"/>
<feBlend mode="normal" in2="effect2_innerShadow_1749_1047" result="effect3_innerShadow_1749_1047"/>
</filter>
<linearGradient id="paint0_linear_1749_1047" x1="2" y1="2" x2="1044.16" y2="476.808" gradientUnits="userSpaceOnUse">
<stop stop-color="white" stop-opacity="0.65"/>
<stop offset="1" stop-color="#DCDCDC" stop-opacity="0.5"/>
</linearGradient>
</defs>
</svg>
