<svg width="493" height="256" viewBox="0 0 493 256" fill="none" xmlns="http://www.w3.org/2000/svg">
<mask id="path-1-inside-1_2026_1620" fill="white">
<path fill-rule="evenodd" clip-rule="evenodd" d="M42 256C18.804 256 0 237.196 0 214L0 42C0 18.804 18.804 0 42 0L392.162 0C410.299 0 422.702 24.6151 422.702 42.752C422.702 78.381 451.585 107.264 487.214 107.264C490.409 107.264 493 109.854 493 113.05V214C493 237.196 474.196 256 451 256H42Z"/>
</mask>
<path d="M2 214C2 236.091 19.9086 254 42 254V258C17.6995 258 -2 238.301 -2 214H2ZM2 42L2 214H-2L-2 42H2ZM42 2C19.9086 2 2 19.9086 2 42H-2C-2 17.6995 17.6995 -2 42 -2V2ZM392.162 2L42 2V-2H392.162V2ZM424.702 42.752C424.702 77.2764 452.69 105.264 487.214 105.264V109.264C450.48 109.264 420.702 79.4855 420.702 42.752H424.702ZM491 214V113.05H495V214H491ZM451 254C473.091 254 491 236.091 491 214H495C495 238.301 475.301 258 451 258V254ZM42 254L451 254V258H42V254ZM487.214 105.264C491.514 105.264 495 108.75 495 113.05H491C491 110.959 489.305 109.264 487.214 109.264V105.264ZM392.162 -2C402.208 -2 410.377 4.80499 415.92 13.4996C421.484 22.2285 424.702 33.2873 424.702 42.752H420.702C420.702 34.0798 417.718 23.7626 412.547 15.6497C407.353 7.50255 400.252 2 392.162 2V-2Z" fill="#FB2728" mask="url(#path-1-inside-1_2026_1620)"/>
</svg>
