<svg width="122" height="27" viewBox="0 0 122 27" fill="none" xmlns="http://www.w3.org/2000/svg">
<path d="M37.2941 19.3747V7.56267H41.0201V10.0384C41.4336 8.27332 42.8225 7.36711 44.2593 7.36711C44.6981 7.36711 44.9418 7.3914 45.2334 7.46489V10.9447C44.7947 10.8961 44.5756 10.8712 44.1122 10.8712C42.0914 10.8712 41.0201 12.1947 41.0201 14.8168V19.3747H37.2941ZM58.6039 14.4979H49.9342C50.0068 16.0419 51.0301 16.8746 52.6861 16.8746C53.8313 16.8746 54.5617 16.5564 54.878 15.8202H58.5307C58.1652 18.1483 55.8028 19.6917 52.6861 19.6917C48.6918 19.6917 46.2322 17.4134 46.2322 13.4671C46.2322 9.52207 48.741 7.24249 52.5642 7.24249C56.3881 7.24249 58.7018 9.52143 58.7018 12.8549C58.7018 13.4677 58.6778 13.8346 58.6046 14.496L58.6039 14.4979ZM55.0238 12.1704C54.9998 10.6021 54.1229 9.7694 52.5389 9.7694C50.9556 9.7694 49.9575 10.7248 49.9335 12.1704H55.0238ZM68.2485 16.3851V19.3747C67.7125 19.4725 66.8362 19.5703 65.7643 19.5703C64.0111 19.5703 61.5995 19.1779 61.5995 15.2329V10.5286H59.7485V7.56331H61.5995V4.05862H65.3255V7.56267H67.9801V10.528H65.3255V14.4487C65.3255 16.1883 66.0319 16.4586 66.9568 16.4586C67.3716 16.4586 67.9069 16.4343 68.2485 16.3851ZM70.3924 19.3747V7.56267H74.1184V10.0384C74.5325 8.27332 75.9208 7.36711 77.3576 7.36711C77.7964 7.36711 78.0394 7.3914 78.3317 7.46489V10.9447C77.893 10.8961 77.6739 10.8712 77.2112 10.8712C75.189 10.8712 74.1171 12.1947 74.1171 14.8168V19.3747H70.3911H70.3924ZM91.7022 14.4979H83.0325C83.1051 16.0419 84.1284 16.8746 85.7843 16.8746C86.9295 16.8746 87.66 16.5564 87.9762 15.8202H91.6296C91.2635 18.1483 88.9017 19.6917 85.7843 19.6917C81.79 19.6917 79.3305 17.4134 79.3305 13.4671C79.3305 9.52207 81.8393 7.24249 85.6631 7.24249C89.4863 7.24249 91.8007 9.52143 91.8007 12.8549C91.8007 13.4677 91.7761 13.8346 91.7035 14.496L91.7022 14.4979ZM88.1221 12.1704C88.0981 10.6021 87.2212 9.7694 85.6379 9.7694C84.0539 9.7694 83.0558 10.7248 83.0318 12.1704H88.1221ZM105.803 14.4979H97.1334C97.206 16.0419 98.2293 16.8746 99.8852 16.8746C101.03 16.8746 101.761 16.5564 102.077 15.8202H105.73C105.364 18.1483 103.003 19.6917 99.8852 19.6917C95.891 19.6917 93.4314 17.4134 93.4314 13.4671C93.4314 9.52207 95.9402 7.24249 99.7634 7.24249C103.587 7.24249 105.901 9.52143 105.901 12.8549C105.901 13.4677 105.877 13.8346 105.804 14.496L105.803 14.4979ZM102.223 12.1704C102.199 10.6021 101.322 9.7694 99.7388 9.7694C98.1548 9.7694 97.1567 10.7248 97.1321 12.1704H102.223ZM121 13.469C121 17.1693 118.736 19.6936 115.496 19.6936C113.766 19.6936 112.354 18.8117 111.746 17.7086V19.3747H108.044V2.22063H111.746V9.25366C112.379 8.12633 113.84 7.24377 115.593 7.24377C118.808 7.24377 121 9.74447 121 13.469ZM117.201 13.469C117.201 11.6553 116.056 10.3823 114.424 10.3823C112.793 10.3823 111.599 11.6317 111.599 13.469C111.599 15.3063 112.769 16.5813 114.424 16.5813C116.08 16.5813 117.201 15.3063 117.201 13.469ZM21.2664 15.9831C23.8705 14.572 25.6657 11.8336 25.6657 8.86383C25.6657 4.22605 21.7246 1 16.1463 1H1V26H11.4553V18.5394H11.7068L14.7645 26H26.2763L21.2664 15.9831Z" fill="white"/>
<path d="M12.014 4.22605C8.5239 4.22605 5.6949 7.02393 5.6949 10.4762C5.6949 13.9285 8.52325 16.7264 12.014 16.7264H18.333V4.22669L12.014 4.22605Z" fill="#1D1D1B"/>
<path d="M18.2747 16.7264C21.7648 16.7264 24.5938 13.9285 24.5938 10.4762C24.5938 7.02457 21.7648 4.22605 18.2747 4.22605C14.7846 4.22605 11.9556 7.02457 11.9556 10.4762C11.9556 13.9285 14.7846 16.7264 18.2747 16.7264Z" fill="white"/>
<path d="M37.2941 19.3747V7.56267H41.0201V10.0384C41.4336 8.27332 42.8225 7.36711 44.2593 7.36711C44.6981 7.36711 44.9418 7.3914 45.2334 7.46489V10.9447C44.7947 10.8961 44.5756 10.8712 44.1122 10.8712C42.0914 10.8712 41.0201 12.1947 41.0201 14.8168V19.3747H37.2941ZM58.6039 14.4979H49.9342C50.0068 16.0419 51.0301 16.8746 52.6861 16.8746C53.8313 16.8746 54.5617 16.5564 54.878 15.8202H58.5307C58.1652 18.1483 55.8028 19.6917 52.6861 19.6917C48.6918 19.6917 46.2322 17.4134 46.2322 13.4671C46.2322 9.52207 48.741 7.24249 52.5642 7.24249C56.3881 7.24249 58.7018 9.52143 58.7018 12.8549C58.7018 13.4677 58.6778 13.8346 58.6046 14.496L58.6039 14.4979ZM55.0238 12.1704C54.9998 10.6021 54.1229 9.7694 52.5389 9.7694C50.9556 9.7694 49.9575 10.7248 49.9335 12.1704H55.0238ZM68.2485 16.3851V19.3747C67.7125 19.4725 66.8362 19.5703 65.7643 19.5703C64.0111 19.5703 61.5995 19.1779 61.5995 15.2329V10.5286H59.7485V7.56331H61.5995V4.05862H65.3255V7.56267H67.9801V10.528H65.3255V14.4487C65.3255 16.1883 66.0319 16.4586 66.9568 16.4586C67.3716 16.4586 67.9069 16.4343 68.2485 16.3851ZM70.3924 19.3747V7.56267H74.1184V10.0384C74.5325 8.27332 75.9208 7.36711 77.3576 7.36711C77.7964 7.36711 78.0394 7.3914 78.3317 7.46489V10.9447C77.893 10.8961 77.6739 10.8712 77.2112 10.8712C75.189 10.8712 74.1171 12.1947 74.1171 14.8168V19.3747H70.3911H70.3924ZM91.7022 14.4979H83.0325C83.1051 16.0419 84.1284 16.8746 85.7843 16.8746C86.9295 16.8746 87.66 16.5564 87.9762 15.8202H91.6296C91.2635 18.1483 88.9017 19.6917 85.7843 19.6917C81.79 19.6917 79.3305 17.4134 79.3305 13.4671C79.3305 9.52207 81.8393 7.24249 85.6631 7.24249C89.4863 7.24249 91.8007 9.52143 91.8007 12.8549C91.8007 13.4677 91.7761 13.8346 91.7035 14.496L91.7022 14.4979ZM88.1221 12.1704C88.0981 10.6021 87.2212 9.7694 85.6379 9.7694C84.0539 9.7694 83.0558 10.7248 83.0318 12.1704H88.1221ZM105.803 14.4979H97.1334C97.206 16.0419 98.2293 16.8746 99.8852 16.8746C101.03 16.8746 101.761 16.5564 102.077 15.8202H105.73C105.364 18.1483 103.003 19.6917 99.8852 19.6917C95.891 19.6917 93.4314 17.4134 93.4314 13.4671C93.4314 9.52207 95.9402 7.24249 99.7634 7.24249C103.587 7.24249 105.901 9.52143 105.901 12.8549C105.901 13.4677 105.877 13.8346 105.804 14.496L105.803 14.4979ZM102.223 12.1704C102.199 10.6021 101.322 9.7694 99.7388 9.7694C98.1548 9.7694 97.1567 10.7248 97.1321 12.1704H102.223ZM121 13.469C121 17.1693 118.736 19.6936 115.496 19.6936C113.766 19.6936 112.354 18.8117 111.746 17.7086V19.3747H108.044V2.22063H111.746V9.25366C112.379 8.12633 113.84 7.24377 115.593 7.24377C118.808 7.24377 121 9.74447 121 13.469ZM117.201 13.469C117.201 11.6553 116.056 10.3823 114.424 10.3823C112.793 10.3823 111.599 11.6317 111.599 13.469C111.599 15.3063 112.769 16.5813 114.424 16.5813C116.08 16.5813 117.201 15.3063 117.201 13.469ZM21.2664 15.9831C23.8705 14.572 25.6657 11.8336 25.6657 8.86383C25.6657 4.22605 21.7246 1 16.1463 1H1V26H11.4553V18.5394H11.7068L14.7645 26H26.2763L21.2664 15.9831Z" stroke="#1D1D1B" stroke-width="0.5" stroke-miterlimit="10"/>
<path d="M12.014 4.22605C8.5239 4.22605 5.6949 7.02393 5.6949 10.4762C5.6949 13.9285 8.52325 16.7264 12.014 16.7264H18.333V4.22669L12.014 4.22605Z" stroke="#1D1D1B" stroke-width="0.5" stroke-miterlimit="10"/>
<path d="M18.2747 16.7264C21.7648 16.7264 24.5938 13.9285 24.5938 10.4762C24.5938 7.02457 21.7648 4.22605 18.2747 4.22605C14.7846 4.22605 11.9556 7.02457 11.9556 10.4762C11.9556 13.9285 14.7846 16.7264 18.2747 16.7264Z" stroke="#1D1D1B" stroke-width="0.5" stroke-miterlimit="10"/>
</svg>
