<svg width="131" height="37" viewBox="0 0 131 37" fill="none" xmlns="http://www.w3.org/2000/svg">
<mask id="mask0_1688_38007" style="mask-type:luminance" maskUnits="userSpaceOnUse" x="0" y="0" width="37" height="37">
<path d="M36.4975 0H0V36.4975H36.4975V0Z" fill="white"/>
</mask>
<g mask="url(#mask0_1688_38007)">
<path d="M29.1978 0.456055H7.29934C3.5199 0.456055 0.456055 3.5199 0.456055 7.29934V29.1978C0.456055 32.9773 3.5199 36.0411 7.29934 36.0411H29.1978C32.9773 36.0411 36.0411 32.9773 36.0411 29.1978V7.29934C36.0411 3.5199 32.9773 0.456055 29.1978 0.456055Z" fill="white"/>
<path d="M29.1978 0.456055H7.29934C3.5199 0.456055 0.456055 3.5199 0.456055 7.29934V29.1978C0.456055 32.9773 3.5199 36.0411 7.29934 36.0411H29.1978C32.9773 36.0411 36.0411 32.9773 36.0411 29.1978V7.29934C36.0411 3.5199 32.9773 0.456055 29.1978 0.456055Z" stroke="black" stroke-width="0.8"/>
<mask id="mask1_1688_38007" style="mask-type:alpha" maskUnits="userSpaceOnUse" x="0" y="0" width="37" height="37">
<path d="M29.1969 0.456055H7.29836C3.51892 0.456055 0.455078 3.5199 0.455078 7.29934V29.1978C0.455078 32.9773 3.51892 36.0411 7.29836 36.0411H29.1969C32.9763 36.0411 36.0402 32.9773 36.0402 29.1978V7.29934C36.0402 3.5199 32.9763 0.456055 29.1969 0.456055Z" fill="white"/>
<path d="M29.1969 0.456055H7.29836C3.51892 0.456055 0.455078 3.5199 0.455078 7.29934V29.1978C0.455078 32.9773 3.51892 36.0411 7.29836 36.0411H29.1969C32.9763 36.0411 36.0402 32.9773 36.0402 29.1978V7.29934C36.0402 3.5199 32.9763 0.456055 29.1969 0.456055Z" stroke="black" stroke-width="0.8"/>
</mask>
<g mask="url(#mask1_1688_38007)">
<path d="M12.8537 21.3886L16.408 21.0648C16.4827 21.8843 17.2267 22.703 18.5571 22.5818C19.6554 22.4817 20.4398 21.8296 20.3651 21.0102C20.3098 20.4033 19.8206 20.1419 18.7837 19.9618L16.9502 19.6687C13.3939 19.0147 12.7471 17.0234 12.6114 15.5347C12.4123 13.3484 14.3912 11.0865 17.5111 10.8022C19.967 10.5785 22.9683 11.5602 23.2482 14.9316L19.6371 15.2607C19.5484 14.2881 18.7511 13.8403 17.8551 13.922C16.9592 14.0037 16.3423 14.5802 16.4086 15.309C16.4693 15.9756 17.0775 16.2575 17.8471 16.4018L20.1264 16.806C23.4451 17.4214 24.0435 19.5086 24.1486 20.6628C24.4197 23.6375 21.6729 25.4489 18.8987 25.7018C16.1243 25.9545 13.1683 24.5137 12.8537 21.3886Z" fill="black"/>
<path d="M32.286 15.7869L30.0066 15.3827C29.6174 15.3097 29.2586 15.2003 28.9874 15.0182C28.7122 14.8333 28.5272 14.573 28.494 14.2085C28.4213 13.4109 29.0978 12.8067 30.0231 12.7224C30.4877 12.68 30.9335 12.7743 31.277 13.0122C31.602 13.2372 31.8289 13.5866 31.8937 14.0529L35.3253 13.7402C35.1666 12.1364 34.3736 11.1015 33.3258 10.4887C32.2543 9.86189 30.9102 9.67362 29.6957 9.78429C26.6113 10.0653 24.6851 12.295 24.8786 14.4177C24.9456 15.1531 25.138 16.0025 25.7452 16.7483C26.3512 17.4929 27.38 18.1457 29.1419 18.4698L30.9744 18.7628L30.9756 18.7631C31.4959 18.8535 31.8926 18.9661 32.1675 19.14C32.4495 19.3184 32.6019 19.5605 32.6321 19.8931C32.6726 20.3372 32.4789 20.7326 32.1367 21.0262C31.7954 21.3189 31.3057 21.5125 30.7417 21.5638C29.4114 21.685 28.6283 20.8945 28.5041 20.0548L25.1307 20.3622C25.3072 21.8478 26.0976 22.9348 27.1792 23.6262C28.2849 24.3331 29.6967 24.627 31.0666 24.5021C32.4385 24.3771 33.7998 23.8668 34.7825 23.0249C35.763 22.1849 36.3665 21.016 36.234 19.5622C36.1823 18.9952 36.0099 18.204 35.4468 17.4796C34.885 16.757 33.9266 16.0912 32.286 15.7869ZM32.286 15.7869C32.2861 15.7869 32.2858 15.7868 32.286 15.7869Z" stroke="black" stroke-width="0.16"/>
<path d="M7.93339 18.0057L5.65403 17.6014C5.26494 17.5285 4.90602 17.4191 4.63483 17.2369C4.35963 17.0521 4.17467 16.7917 4.14146 16.4272C4.06878 15.6296 4.74529 15.0254 5.67054 14.9411C6.1351 14.8988 6.58094 14.993 6.9245 15.2309C7.24946 15.456 7.47645 15.8054 7.54124 16.2716L10.9727 15.959C10.8141 14.3552 10.0211 13.3204 8.97328 12.7074C7.9017 12.0807 6.55775 11.8924 5.34309 12.003C2.25871 12.2841 0.332612 14.5138 0.526025 16.6364C0.59304 17.3718 0.785521 18.2213 1.39257 18.9671C1.99869 19.7116 3.02749 20.3645 4.78939 20.6886L6.62186 20.9816L6.62307 20.9819C7.14334 21.0722 7.54005 21.1849 7.81495 21.3588C8.09702 21.5372 8.24933 21.7793 8.27963 22.1118C8.3201 22.5559 8.12645 22.9512 7.78408 23.2449C7.44291 23.5376 6.95317 23.7312 6.38907 23.7826C5.05893 23.9038 4.27583 23.1133 4.15163 22.2736L0.778216 22.581C0.954642 24.0665 1.74507 25.1535 2.82662 25.8449C3.9324 26.5518 5.3442 26.8456 6.71405 26.7209C8.08587 26.5959 9.44724 26.0856 10.43 25.2436C11.4106 24.4036 12.0139 23.2347 11.8815 21.781C11.8298 21.214 11.6574 20.4227 11.0943 19.6984C10.5325 18.9758 9.57414 18.3101 7.93339 18.0057ZM7.93339 18.0057C7.93351 18.0057 7.93326 18.0057 7.93339 18.0057Z" stroke="black" stroke-width="0.16"/>
<path d="M-11.4989 23.6079L-7.94463 23.284C-7.86995 24.1036 -7.12588 24.9223 -5.7955 24.801C-4.69713 24.701 -3.91285 24.049 -3.98754 23.2295C-4.04283 22.6226 -4.53204 22.3612 -5.56884 22.1811L-7.40238 21.8879C-10.9587 21.2339 -11.6055 19.2427 -11.7411 17.7541C-11.9404 15.5677 -9.96135 13.3058 -6.84148 13.0215C-4.38558 12.7977 -1.38429 13.7795 -1.10446 17.1509L-4.7155 17.48C-4.80412 16.5073 -5.6015 16.0597 -6.49748 16.1413C-7.39345 16.2229 -8.01038 16.7995 -7.94397 17.5283C-7.88323 18.1949 -7.27519 18.4767 -6.50545 18.6211L-4.22626 19.0253C-0.907447 19.6408 -0.309106 21.728 -0.203943 22.8821C0.0671177 25.8569 -2.67965 27.6683 -5.45396 27.921C-8.22827 28.1739 -11.1843 26.733 -11.4989 23.6079Z" fill="black" fill-opacity="0.1"/>
<path d="M24.8475 0.522273L22.5681 0.118008C22.1791 0.0450643 21.8201 -0.0643143 21.5489 -0.246476C21.2737 -0.431329 21.0887 -0.691664 21.0555 -1.05615C20.9829 -1.85374 21.6593 -2.45801 22.5846 -2.54232C23.0492 -2.58465 23.495 -2.49042 23.8386 -2.25246C24.1635 -2.02741 24.3905 -1.67805 24.4554 -1.21175L27.8868 -1.52443C27.7282 -3.12825 26.9351 -4.1631 25.8873 -4.77598C24.8158 -5.40276 23.4719 -5.59104 22.2572 -5.48035C19.1728 -5.19931 17.2467 -2.96959 17.4401 -0.847006C17.5072 -0.111552 17.6996 0.737834 18.3067 1.48363C18.9128 2.22828 19.9415 2.88105 21.7035 3.20523L23.536 3.49823L23.5371 3.49843C24.0574 3.58881 24.4541 3.70147 24.729 3.87537C25.011 4.05379 25.1634 4.29592 25.1938 4.62841C25.2341 5.07259 25.0405 5.46789 24.6982 5.76157C24.3569 6.05422 23.8672 6.24779 23.3032 6.2992C21.973 6.42039 21.1899 5.6299 21.0657 4.79022L17.6923 5.09761C17.8687 6.58309 18.6591 7.67017 19.7407 8.36157C20.8464 9.06846 22.2582 9.36228 23.6281 9.23745C25 9.11245 26.3613 8.60214 27.344 7.76025C28.3247 6.92025 28.928 5.75133 28.7956 4.2976C28.7439 3.73055 28.5715 2.9393 28.0084 2.21494C27.4466 1.49229 26.4883 0.826615 24.8475 0.522273ZM24.8475 0.522273C24.8476 0.522294 24.8474 0.52225 24.8475 0.522273Z" stroke="black" stroke-width="0.16"/>
<path d="M37.0242 -0.587585L34.7449 -0.99185C34.3557 -1.06479 33.9968 -1.17417 33.7257 -1.35633C33.4505 -1.54119 33.2655 -1.80152 33.2323 -2.16601C33.1596 -2.9636 33.8361 -3.56787 34.7614 -3.65218C35.2259 -3.69451 35.6718 -3.60027 36.0153 -3.36232C36.3403 -3.13727 36.5672 -2.78791 36.632 -2.32161L40.0635 -2.63429C39.9049 -4.2381 39.1119 -5.27295 38.0641 -5.88584C36.9925 -6.51262 35.6485 -6.7009 34.434 -6.59022C31.3496 -6.30916 29.4234 -4.07945 29.6168 -1.95686C29.6838 -1.22141 29.8763 -0.372027 30.4834 0.37377C31.0895 1.11842 32.1183 1.77119 33.8802 2.09537L35.7127 2.38838L35.7139 2.38857C36.2342 2.47896 36.6309 2.59161 36.9057 2.76551C37.1878 2.94394 37.3402 3.18606 37.3704 3.51855C37.4109 3.96273 37.2172 4.35803 36.8749 4.65171C36.5337 4.94436 36.0439 5.13794 35.4799 5.18934C34.1497 5.31054 33.3666 4.52004 33.2424 3.68036L29.869 3.98775C30.0455 5.47324 30.8359 6.56031 31.9174 7.25171C33.0232 7.9586 34.435 8.25242 35.8049 8.1276C37.1766 8.00259 38.5381 7.49228 39.5208 6.65039C40.5013 5.81039 41.1048 4.64147 40.9723 3.18774C40.9206 2.62069 40.7481 1.82944 40.185 1.10509C39.6233 0.38244 38.6649 -0.283241 37.0242 -0.587585ZM37.0242 -0.587585C37.0244 -0.587563 37.0241 -0.587608 37.0242 -0.587585Z" stroke="black" stroke-width="0.16"/>
<path d="M12.6717 1.63165L10.3923 1.22738C10.0032 1.15445 9.64431 1.04507 9.37311 0.8629C9.0979 0.678051 8.91294 0.417715 8.87973 0.0532255C8.80705 -0.744359 9.48358 -1.34863 10.4088 -1.43294C10.8734 -1.47527 11.3192 -1.38103 11.6627 -1.14309C11.9878 -0.918031 12.2148 -0.568671 12.2796 -0.102375L15.711 -0.415052C15.5524 -2.01886 14.7593 -3.05372 13.7115 -3.6666C12.64 -4.29338 11.296 -4.48166 10.0814 -4.37098C6.99698 -4.08993 5.07089 -1.86021 5.26431 0.262375C5.33133 0.997827 5.5238 1.84722 6.13085 2.59301C6.73697 3.33766 7.76578 3.99043 9.52766 4.31461L11.3601 4.60761L11.3614 4.60781C11.8816 4.6982 12.2783 4.81085 12.5533 4.98475C12.8353 5.16317 12.9876 5.4053 13.0179 5.73779C13.0584 6.18196 12.8648 6.57727 12.5224 6.87095C12.1812 7.1636 11.6915 7.35718 11.1274 7.40857C9.79722 7.52978 9.01412 6.73927 8.8899 5.8996L5.51649 6.20699C5.69292 7.69247 6.48336 8.77955 7.5649 9.47095C8.67069 10.1778 10.0825 10.4717 11.4523 10.3468C12.8242 10.2218 14.1855 9.71152 15.1683 8.86963C16.1489 8.02963 16.7522 6.86071 16.6198 5.40698C16.5681 4.83993 16.3957 4.04868 15.8326 3.32433C15.2707 2.60168 14.3125 1.936 12.6717 1.63165ZM12.6717 1.63165C12.6718 1.63167 12.6716 1.63163 12.6717 1.63165Z" stroke="black" stroke-width="0.16"/>
<path d="M0.494907 2.74103L-1.78446 2.33676C-2.17355 2.26382 -2.53245 2.15444 -2.80365 1.97228C-3.07886 1.78743 -3.26382 1.52709 -3.29703 1.1626C-3.36971 0.365013 -2.69318 -0.239261 -1.76794 -0.32357C-1.30339 -0.3659 -0.85754 -0.27166 -0.51397 -0.0337126C-0.189017 0.191341 0.0379666 0.540702 0.102768 1.007L3.53423 0.694326C3.3756 -0.909494 2.58263 -1.94434 1.53481 -2.55723C0.463219 -3.184 -0.880729 -3.37228 -2.09538 -3.26161C-5.17978 -2.98055 -7.10587 -0.750847 -6.91245 1.37174C-6.84544 2.1072 -6.65295 2.95658 -6.04591 3.70238C-5.43979 4.44703 -4.41098 5.0998 -2.6491 5.42398L-0.816616 5.71699L-0.815405 5.71718C-0.29514 5.80756 0.101564 5.92022 0.376468 6.09411C0.65854 6.27255 0.810852 6.51468 0.841149 6.84717C0.881621 7.29133 0.687962 7.68663 0.3456 7.98031C0.00443015 8.27298 -0.485314 8.46655 -1.0494 8.51794C-2.37954 8.63915 -3.16264 7.84865 -3.28686 7.00898L-6.66026 7.31637C-6.48383 8.80185 -5.6934 9.88893 -4.61185 10.5803C-3.50607 11.2872 -2.09429 11.581 -0.724426 11.4562C0.647386 11.3312 2.00876 10.8209 2.99151 9.97901C3.97208 9.13901 4.57547 7.97008 4.443 6.51635C4.39133 5.9493 4.21888 5.15804 3.65579 4.4337C3.09403 3.71105 2.13566 3.04537 0.494907 2.74103ZM0.494907 2.74103C0.495028 2.74105 0.494786 2.741 0.494907 2.74103Z" stroke="black" stroke-width="0.16"/>
<path d="M27.7292 32.1439L25.4499 31.7396C25.0608 31.6667 24.7019 31.5573 24.4307 31.3752C24.1555 31.1903 23.9705 30.9299 23.9373 30.5655C23.8647 29.7679 24.5412 29.1635 25.4664 29.0793C25.931 29.0369 26.3769 29.1311 26.7204 29.3692C27.0453 29.5942 27.2723 29.9436 27.3371 30.4098L30.7685 30.0972C30.61 28.4934 29.817 27.4585 28.7692 26.8456C27.6976 26.2189 26.3536 26.0306 25.1389 26.1412C22.0545 26.4223 20.1285 28.652 20.3219 30.7746C20.3889 31.5101 20.5814 32.3595 21.1884 33.1053C21.7946 33.8499 22.8234 34.5027 24.5853 34.8268L26.4177 35.1198L26.419 35.12C26.9393 35.2104 27.336 35.3231 27.6108 35.497C27.8929 35.6754 28.0453 35.9175 28.0755 36.25C28.116 36.6942 27.9223 37.0895 27.5799 37.3831C27.2388 37.6758 26.749 37.8695 26.1849 37.9208C24.8548 38.042 24.0717 37.2515 23.9475 36.4118L20.5741 36.7192C20.7505 38.2047 21.5409 39.2918 22.6225 39.9832C23.7283 40.69 25.1401 40.9838 26.51 40.8591C27.8817 40.7341 29.2431 40.2238 30.2259 39.3818C31.2064 38.5418 31.8099 37.373 31.6773 35.9192C31.6257 35.3522 31.4532 34.561 30.8901 33.8366C30.3284 33.1139 29.3699 32.4483 27.7292 32.1439ZM27.7292 32.1439C27.7294 32.1439 27.7291 32.1439 27.7292 32.1439Z" stroke="black" stroke-width="0.16"/>
<path d="M39.905 31.0345L37.6256 30.6303C37.2366 30.5573 36.8776 30.4479 36.6064 30.2657C36.3313 30.0809 36.1463 29.8206 36.1131 29.4561C36.0404 28.6585 36.7169 28.0542 37.6421 27.9698C38.1067 27.9275 38.5525 28.0218 38.8962 28.2597C39.2211 28.4848 39.4481 28.8341 39.5129 29.3005L42.9443 28.9878C42.7857 27.3839 41.9928 26.3491 40.9449 25.7362C39.8733 25.1094 38.5294 24.9211 37.3147 25.0319C34.2303 25.3129 32.3043 27.5426 32.4977 29.6652C32.5647 30.4007 32.7572 31.25 33.3642 31.9958C33.9703 32.7405 34.9992 33.3932 36.7611 33.7174L38.5935 34.0104L38.5947 34.0106C39.1149 34.1011 39.5117 34.2136 39.7866 34.3876C40.0687 34.5659 40.2209 34.8081 40.2513 35.1407C40.2918 35.5848 40.0981 35.9801 39.7557 36.2738C39.4146 36.5665 38.9248 36.76 38.3607 36.8113C37.0306 36.9326 36.2475 36.1421 36.1233 35.3024L32.7499 35.6098C32.9263 37.0953 33.7167 38.1824 34.7983 38.8738C35.9041 39.5807 37.3158 39.8745 38.6856 39.7496C40.0575 39.6246 41.4188 39.1143 42.4016 38.2725C43.3822 37.4325 43.9855 36.2635 43.8531 34.8098C43.8014 34.2427 43.629 33.4515 43.0659 32.7272C42.5042 32.0045 41.5458 31.3388 39.905 31.0345ZM39.905 31.0345C39.9051 31.0345 39.9049 31.0344 39.905 31.0345Z" stroke="black" stroke-width="0.16"/>
<path d="M15.5526 33.2533L13.2732 32.849C12.884 32.7761 12.5252 32.6667 12.254 32.4844C11.9788 32.2997 11.7938 32.0393 11.7606 31.6748C11.6879 30.8772 12.3644 30.2729 13.2897 30.1886C13.7543 30.1463 14.2001 30.2405 14.5436 30.4784C14.8686 30.7036 15.0955 31.0529 15.1603 31.5192L18.5919 31.2066C18.4332 29.6027 17.6402 28.5679 16.5924 27.955C15.5209 27.3283 14.1768 27.1399 12.9623 27.2506C9.87784 27.5316 7.95175 29.7614 8.14517 31.8839C8.21217 32.6194 8.40465 33.4688 9.01171 34.2145C9.61782 34.9592 10.6466 35.612 12.4085 35.9362L14.241 36.2292L14.2422 36.2294C14.7625 36.3198 15.1592 36.4324 15.4341 36.6064C15.7161 36.7848 15.8685 37.0269 15.8987 37.3594C15.9392 37.8035 15.7455 38.1988 15.4033 38.4925C15.062 38.7852 14.5723 38.9787 14.0083 39.0302C12.678 39.1514 11.8949 38.3609 11.7707 37.5212L8.39735 37.8286C8.57377 39.314 9.36421 40.4011 10.4458 41.0925C11.5515 41.7994 12.9633 42.0932 14.3332 41.9684C15.7051 41.8434 17.0664 41.3331 18.0491 40.4912C19.0298 39.6512 19.6331 38.4822 19.5006 37.0286C19.4489 36.4615 19.2765 35.6702 18.7134 34.9459C18.1516 34.2232 17.1934 33.5577 15.5526 33.2533ZM15.5526 33.2533C15.5527 33.2533 15.5525 33.2533 15.5526 33.2533Z" stroke="black" stroke-width="0.16"/>
<path d="M3.37675 34.3625L1.09738 33.9583C0.708299 33.8853 0.349383 33.776 0.0781923 33.5938C-0.197008 33.4089 -0.381972 33.1487 -0.415185 32.7841C-0.48786 31.9866 0.188658 31.3823 1.1139 31.298C1.57846 31.2557 2.02431 31.3499 2.36788 31.5878C2.69283 31.8129 2.91981 32.1623 2.98462 32.6286L6.41607 32.3158C6.25745 30.7121 5.46447 29.6772 4.41664 29.0644C3.34506 28.4375 2.00111 28.2493 0.786456 28.36C-2.29793 28.641 -4.22402 30.8708 -4.03062 32.9933C-3.9636 33.7287 -3.77112 34.5781 -3.16406 35.3239C-2.55795 36.0686 -1.52915 36.7213 0.232746 37.0456L2.06522 37.3386L2.06644 37.3387C2.5867 37.4291 2.98341 37.5418 3.25831 37.7156C3.54038 37.8941 3.69269 38.1363 3.72299 38.4687C3.76346 38.9129 3.56981 39.3082 3.22744 39.6019C2.88628 39.8945 2.39653 40.0881 1.83243 40.1395C0.502298 40.2607 -0.2808 39.4703 -0.405011 38.6306L-3.77842 38.938C-3.602 40.4234 -2.81157 41.5105 -1.73002 42.2019C-0.624232 42.9088 0.787555 43.2026 2.15742 43.0778C3.52923 42.9528 4.89059 42.4424 5.87336 41.6006C6.85392 40.7606 7.45731 39.5916 7.32484 38.1379C7.27318 37.5709 7.10072 36.7796 6.53764 36.0552C5.97586 35.3326 5.0175 34.6668 3.37675 34.3625ZM3.37675 34.3625C3.37687 34.3627 3.37663 34.3625 3.37675 34.3625Z" stroke="black" stroke-width="0.16"/>
</g>
</g>
<path d="M41.7119 20.544H44.0959C44.0959 21.0811 44.5412 21.6573 45.4335 21.6573C46.1702 21.6573 46.7314 21.28 46.7314 20.7428C46.7314 20.3451 46.4219 20.1462 45.7431 19.9677L44.5412 19.6686C42.2152 19.0328 41.9056 17.7001 41.9056 16.7244C41.9056 15.2915 43.3592 13.9384 45.4517 13.9384C47.099 13.9384 49.0359 14.7543 49.0177 16.9624H46.5957C46.5957 16.325 46.0924 15.9867 45.4915 15.9867C44.8905 15.9867 44.4452 16.325 44.4452 16.8026C44.4452 17.2395 44.8326 17.4588 45.3358 17.5982L46.8275 17.996C48.9979 18.5926 49.2694 19.9847 49.2694 20.7411C49.2694 22.6908 47.3324 23.7057 45.4716 23.7057C43.6108 23.7057 41.7318 22.594 41.7119 20.544Z" fill="white"/>
<path d="M56.4955 14.1781H59.0334V23.4694H56.4955V21.9582C56.1081 23.1719 54.6744 23.709 53.7821 23.709C51.418 23.709 50.178 22.0772 50.1979 19.2929V14.1781H52.7358V19.1518C52.7358 20.6035 53.5884 21.28 54.4609 21.28C55.3333 21.28 56.4955 20.7633 56.4955 19.0923V14.1781Z" fill="white"/>
<path d="M70.5357 18.8136C70.5357 21.8172 68.4233 23.7074 66.099 23.7074C65.0725 23.7074 63.8325 23.2705 63.1919 22.3153V28.025H60.6539V14.1781H63.1919V15.3119C63.8309 14.377 65.0709 13.9385 66.099 13.9385C68.4249 13.9385 70.5357 15.8491 70.5357 18.8136ZM67.9398 18.834C67.9398 17.4605 66.8935 16.3675 65.6138 16.3675C64.3341 16.3675 63.2696 17.4214 63.2696 18.834C63.2696 20.2466 64.4318 21.2818 65.6138 21.2818C66.8919 21.2818 67.9398 20.2075 67.9398 18.834Z" fill="white"/>
<path d="M80.9473 19.6686H74.1464C74.418 20.7633 75.2705 21.399 76.4724 21.399C77.4028 21.399 78.2935 20.9622 78.8564 20.3043L80.3281 21.8359C79.4756 23.0104 77.9062 23.7057 76.3168 23.7057C73.5272 23.7057 71.4926 21.6965 71.4926 18.8305C71.4926 15.9646 73.721 13.9367 76.2986 13.9367C78.8762 13.9367 81.0069 15.8269 81.0069 18.6725C81.0069 18.9308 80.9871 19.2487 80.949 19.6668L80.9473 19.6686ZM78.4475 17.9772C78.3696 16.8825 77.4972 16.1873 76.3549 16.1873C75.3086 16.1873 74.418 16.7245 74.1464 17.9772H78.4475Z" fill="white"/>
<path d="M88.9946 14.2376L88.4135 16.7245C87.8705 16.4253 87.4252 16.3862 87.1156 16.3862C85.8177 16.3862 84.9254 17.639 84.9254 20.2856V23.4694H82.3875V14.1781H84.9055V16.167C85.4087 14.615 86.4368 13.9385 87.561 13.9385C88.046 13.9385 88.5874 14.0184 88.9946 14.2376Z" fill="white"/>
<path d="M90.3805 23.4694V9.12451H92.9184V23.4694H90.3805Z" fill="white"/>
<path d="M94.1576 18.834C94.1576 15.8899 96.4439 13.9402 99.0215 13.9402C101.599 13.9402 103.885 15.8899 103.885 18.834C103.885 21.7781 101.599 23.7091 99.0215 23.7091C96.4439 23.7091 94.1576 21.7594 94.1576 18.834ZM101.308 18.834C101.308 17.3823 100.281 16.3675 99.0215 16.3675C97.7617 16.3675 96.7352 17.3823 96.7352 18.834C96.7352 20.2856 97.7617 21.2818 99.0215 21.2818C100.281 21.2818 101.308 20.267 101.308 18.834Z" fill="white"/>
<path d="M113.192 14.1781L107.611 28.0249H104.897L107.048 22.594L103.464 14.1781H106.253L108.384 19.5496L110.457 14.1781H113.192Z" fill="white"/>
<path d="M120.715 14.1781H123.253V23.4694H120.715V22.1368C120.114 23.0921 118.952 23.7091 117.732 23.7091C115.232 23.7091 113.373 21.7203 113.373 18.834C113.373 15.9477 115.194 13.9402 117.79 13.9402C118.952 13.9402 120.116 14.4569 120.715 15.4122V14.1781ZM120.638 18.834C120.638 17.4214 119.533 16.3675 118.273 16.3675C117.014 16.3675 115.967 17.4809 115.967 18.834C115.967 20.1871 116.956 21.2818 118.293 21.2818C119.631 21.2818 120.638 20.1683 120.638 18.834Z" fill="white"/>
<path d="M124.924 23.4694V9.12451H127.462V23.4694H124.924Z" fill="white"/>
<path d="M128.462 10.6621V9.4562H128.022V9.12451H129.283V9.4562H128.828V10.6621H128.462Z" fill="white"/>
<path d="M129.495 10.6621V9.12451H129.823L130.366 10.0317L130.135 10.0295L130.684 9.12451H131V10.6621H130.646V10.1964C130.646 10.0617 130.648 9.94091 130.654 9.83401C130.661 9.72565 130.673 9.61948 130.688 9.51551L130.729 9.62973L130.316 10.2865H130.171L129.767 9.63412L129.808 9.51551C129.825 9.61362 129.836 9.7154 129.842 9.82083C129.849 9.9248 129.853 10.05 129.853 10.1964V10.6621H129.495Z" fill="white"/>
</svg>
