<svg width="133" height="25" viewBox="0 0 133 25" fill="none" xmlns="http://www.w3.org/2000/svg">
<path d="M16.5917 25L19.9094 18.7472L9.9564 0H3.31764L0 6.24907H6.64223L16.5917 25ZM23.2305 12.4981L26.5516 6.24907L23.2305 0H16.5952L13.2775 6.24907H19.9128L23.2305 12.4981Z" fill="#03D9AF"/>
<path d="M19.9128 6.24907L23.2305 0H16.5952L13.2775 6.24907H19.9128Z" fill="#03D9AF"/>
<path d="M6.64223 6.24907L9.9564 0H3.31764L0 6.24907H6.64223Z" fill="#03D9AF"/>
<path d="M44.7263 21.707C43.8698 21.707 43.2328 21.3641 42.7946 20.6784L35.0481 8.59266L38.2941 6.72839L44.5869 16.4141C44.6267 16.4784 44.6665 16.5212 44.7263 16.5212C44.7661 16.5212 44.8259 16.4998 44.8657 16.4141L51.1382 6.72839L54.3842 8.59266L46.6378 20.6784C46.1999 21.3641 45.5625 21.707 44.7263 21.707Z" fill="#F7F7F7"/>
<path d="M69.6798 21.75L67.9074 19.0929H57.8113L56.0389 21.75L52.793 19.8857L60.9378 7.80001C61.3959 7.11429 62.0329 6.77143 62.8695 6.77143C63.6659 6.77143 64.3032 7.11429 64.781 7.80001L72.9258 19.8857L69.6798 21.75ZM60.0215 15.8143H65.7171L63.0086 11.7643C62.9492 11.7 62.9093 11.6571 62.8695 11.6571C62.8296 11.6571 62.7699 11.7 62.7301 11.7643L60.0215 15.8143Z" fill="#F7F7F7"/>
<path d="M89.8267 21.6644C89.1299 21.6644 88.4925 21.4073 87.9152 20.8716L78.8943 12.643C78.8147 12.6002 78.7549 12.5787 78.7151 12.6002C78.6752 12.643 78.6553 12.6859 78.6553 12.7716V21.4287H74.9313V9.79301C74.9313 8.72157 75.1106 7.97159 75.4691 7.54302C75.8276 7.11446 76.3252 6.90016 76.9427 6.90016C77.6196 6.90016 78.257 7.17872 78.8545 7.69303L87.8754 15.9002C87.9351 15.9644 87.9949 15.9859 88.0347 15.943C88.0745 15.9216 88.1144 15.8573 88.1144 15.7716V7.09301H91.8381V18.7716C91.8381 19.8645 91.6389 20.6144 91.2803 21.043C90.9221 21.4716 90.4242 21.6644 89.8267 21.6644Z" fill="#F7F7F7"/>
<path d="M111.121 21.75L109.348 19.0929H99.2521L97.4797 21.75L94.2337 19.8857L102.379 7.80001C102.836 7.11429 103.474 6.77143 104.31 6.77143C105.107 6.77143 105.744 7.11429 106.222 7.80001L114.367 19.8857L111.121 21.75ZM101.462 15.8143H107.158L104.449 11.7643C104.39 11.7 104.35 11.6571 104.31 11.6571C104.27 11.6571 104.21 11.7 104.17 11.7643L101.462 15.8143Z" fill="#F7F7F7"/>
<path d="M133 19.9285L129.814 22.0714L125.751 17.1857H120.156V21.45H116.372V10.3286C116.372 9.29998 116.611 8.4857 117.129 7.92857C117.647 7.37141 118.383 7.09285 119.359 7.09285H127.544C129.455 7.09285 130.829 7.50001 131.666 8.31429C132.502 9.12857 132.94 10.4143 132.94 12.1286C132.94 14.6572 131.985 16.2214 130.093 16.8643L133 19.9285ZM120.156 11.2714V13.5214H127.782C128.261 13.5214 128.619 13.4571 128.838 13.3071C129.037 13.1572 129.157 12.8143 129.157 12.3C129.157 11.7857 129.037 11.4643 128.818 11.2928C128.599 11.1428 128.261 11.0571 127.782 11.0571H120.355C120.215 11.0571 120.156 11.1428 120.156 11.2714Z" fill="#F7F7F7"/>
</svg>
