<svg width="123" height="36" viewBox="0 0 123 36" fill="none" xmlns="http://www.w3.org/2000/svg">
<path d="M79.9807 13.2468C79.8929 13.2468 79.8051 13.2468 79.6296 13.2468C78.3126 13.2468 76.03 13.9481 75.3276 15.8182L75.2398 15.974L75.152 16.0519C75.0642 16.0519 75.0642 15.974 75.0642 15.974L74.8887 13.9481C74.8887 13.7922 74.7131 13.6364 74.5375 13.6364H71.3769C71.2013 13.6364 70.9379 13.7922 71.0257 14.026C71.1135 14.8831 71.1135 15.974 71.1135 17.6883V25.3247C71.1135 25.4805 71.2891 25.6364 71.4647 25.6364H75.5032C75.6788 25.6364 75.8544 25.4805 75.8544 25.3247V19.7143C75.8544 19.4805 75.8544 19.3247 75.8544 19.0909C76.1178 17.9221 77.4347 17.2208 79.2784 17.2208C79.5418 17.2208 79.7174 17.2208 79.8929 17.2208C80.1563 17.2208 80.3319 17.0649 80.3319 16.8312V13.7143C80.4197 13.4026 80.2441 13.2468 79.9807 13.2468Z" fill="white"/>
<path d="M90.955 22.5195C90.2527 22.5195 89.3747 22.5974 89.0235 22.5974C87.0921 22.5974 86.9165 21.3506 86.9165 20.026V16.9091C86.9165 16.6753 87.0921 16.5195 87.3555 16.5195H90.955C91.2184 16.5195 91.394 16.3636 91.394 16.1299V13.8701C91.394 13.6364 91.2184 13.4805 90.955 13.4805H87.3555C87.0921 13.4805 86.9165 13.3247 86.9165 13.0909V10.3636C86.9165 10.1299 86.6531 9.97403 86.3897 9.97403L82.6145 10.7532C82.439 10.7532 82.2634 10.9091 82.2634 11.1429V20.8831C82.2634 22.6753 82.7023 23.9221 83.4925 24.6234C84.1071 25.1688 85.3362 25.7922 87.0043 25.7922C89.1991 25.7922 90.3405 25.6364 91.0428 25.5584C91.2184 25.5584 91.394 25.4026 91.394 25.1688V22.7532C91.394 22.6753 91.1306 22.4416 90.955 22.5195Z" fill="white"/>
<path d="M107.461 13.8702C107.461 13.6364 107.285 13.4805 107.022 13.4805H103.071C102.807 13.4805 102.632 13.6364 102.632 13.8702V20.4935C102.632 20.7273 102.632 20.9611 102.544 21.1948C102.368 21.5844 101.842 22.6754 100.261 22.6754C99.2078 22.6754 97.8909 22.2078 97.8909 19.8702V13.9481C97.8909 13.7143 97.7153 13.5585 97.4519 13.5585H93.5012C93.2378 13.5585 93.0622 13.7143 93.0622 13.9481V20.7273C93.0622 24.078 94.8181 25.9481 98.1543 25.9481C100.086 25.9481 101.929 25.2468 102.895 24L103.071 23.8442C103.159 23.8442 103.246 23.9221 103.246 24L103.422 25.3247C103.422 25.4806 103.598 25.6364 103.861 25.6364H107.109C107.373 25.6364 107.548 25.4806 107.548 25.2468C107.461 24.078 107.461 22.8312 107.461 21.5065V13.8702Z" fill="white"/>
<path d="M31.8694 6.62338H7.46253V29.6104H31.8694V6.62338Z" fill="white"/>
<path d="M122.824 22.7532V18.5455C122.824 15.039 120.63 13.2468 116.24 13.2468C113.606 13.2468 111.762 13.7922 110.797 14.1818C110.621 14.2597 110.533 14.4156 110.533 14.5714L111.06 16.2857C111.148 16.5195 111.411 16.5974 111.587 16.5195C112.64 16.1299 113.957 15.8182 115.274 15.8182C117.118 15.8182 118.083 16.2857 118.083 17.1429V17.3766C118.083 17.4545 117.996 17.5325 117.908 17.5325H117.732C115.011 17.5325 112.904 17.9221 111.499 18.7013C110.006 19.4805 109.304 20.6493 109.304 22.2078C109.304 24 110.884 25.8701 113.957 25.8701C115.713 25.8701 117.381 25.4026 118.259 24.6234L118.347 24.5455H118.435C118.522 24.5455 118.522 24.5455 118.522 24.6234L118.698 25.3247C118.698 25.4805 118.874 25.6364 119.137 25.6364H122.561C122.824 25.6364 123 25.4805 123 25.2468C122.824 24.5455 122.824 23.6883 122.824 22.7532ZM118.171 21.5844C117.908 22.4416 116.942 23.1429 115.889 23.1429C114.66 23.1429 113.957 22.5974 113.957 21.7403C113.957 20.4935 115.274 19.8701 117.82 19.8701H117.996C118.083 19.8701 118.171 19.9481 118.171 20.026V20.8831C118.259 21.1169 118.259 21.3506 118.171 21.5844Z" fill="white"/>
<path d="M63.8265 13.5584H67.7773C68.0407 13.5584 68.2163 13.7143 68.2163 13.9481V25.2468C68.2163 25.4805 68.0407 25.6364 67.7773 25.6364H63.8265C63.5632 25.6364 63.3876 25.4805 63.3876 25.2468V13.8701C63.3876 13.7143 63.5632 13.5584 63.8265 13.5584Z" fill="white"/>
<path d="M61.5439 13.5584H57.1542C56.9786 13.5584 56.803 13.7143 56.7152 13.8701L54.1692 21.3506H54.0814L51.3597 13.8701C51.2719 13.7143 51.0964 13.5584 50.9208 13.5584H46.3555C46.0921 13.5584 45.9165 13.7922 46.0043 13.9481L51.2719 25.3247C51.3597 25.4805 51.5353 25.5584 51.7109 25.5584H56.1006C56.2762 25.5584 56.4518 25.4805 56.5396 25.3247L61.8951 13.9481C61.8951 13.7143 61.8073 13.5584 61.5439 13.5584Z" fill="white"/>
<path d="M65.758 7.79221C64.0021 7.79221 63.0364 8.72727 63.0364 9.97403C63.0364 11.2208 64.0021 12.1558 65.758 12.1558C67.4261 12.1558 68.4797 11.2208 68.4797 9.97403C68.4797 8.80519 67.5139 7.79221 65.758 7.79221Z" fill="white"/>
<path d="M20.2805 0C9.04283 0 0 8.1039 0 18C0 27.974 9.04283 36 20.2805 36C31.5182 36 40.561 27.8961 40.561 18C40.561 8.1039 31.5182 0 20.2805 0ZM22.3876 27.3506C22.1242 27.7403 21.8608 28.2078 21.2463 28.2078C20.7195 28.2078 20.2805 27.7403 20.0171 27.3506L9.65739 10.5195C9.394 10.0519 9.13062 9.58441 9.04283 9.03896C8.95503 8.18182 9.4818 7.63636 10.4475 7.63636C12.818 7.63636 15.1884 7.63636 17.5589 7.63636C18.5246 7.63636 19.227 8.02597 19.7537 8.88312C20.8951 10.9091 21.6852 12.6234 23.1777 14.4935C26.6895 18 30.1135 14.4935 31.5182 13.0909L22.3876 27.3506Z" fill="#9247FF"/>
</svg>
