<svg width="500" height="445" viewBox="0 0 500 445" fill="none" xmlns="http://www.w3.org/2000/svg">
<path d="M250.845 444.625C239.739 444.625 228.633 442.22 220.18 437.41L13.9778 319.978C5.42487 315.107 0.708984 308.518 0.708984 301.424C0.708984 294.329 5.42487 287.74 13.9778 282.862L219.087 165.219C236.002 155.591 263.518 155.599 280.425 165.211L486.619 282.643C495.172 287.514 499.888 294.111 499.88 301.205C499.88 308.292 495.164 314.881 486.619 319.759L281.51 437.402C273.064 442.22 261.951 444.625 250.845 444.625ZM249.76 161.728C239.349 161.728 228.939 163.982 221.013 168.491L15.904 286.142C8.58168 290.311 4.55363 295.739 4.55363 301.424C4.55363 307.108 8.58168 312.544 15.904 316.698L222.098 434.13C237.951 443.155 263.747 443.155 279.599 434.13L484.708 316.487C492.031 312.318 496.059 306.89 496.059 301.213C496.059 295.52 492.031 290.092 484.708 285.923V285.93L278.506 168.498C270.58 163.975 260.17 161.728 249.76 161.728Z" fill="url(#paint0_linear_596_628)"/>
<path d="M250.845 444.625C239.739 444.625 228.633 442.22 220.18 437.41L13.9778 319.978C5.42487 315.107 0.708984 308.518 0.708984 301.424C0.708984 294.329 5.42487 287.74 13.9778 282.862L219.087 165.219C236.002 155.591 263.518 155.599 280.425 165.211L486.619 282.643C495.172 287.514 499.888 294.111 499.88 301.205C499.88 308.292 495.164 314.881 486.619 319.759L281.51 437.402C273.064 442.22 261.951 444.625 250.845 444.625ZM249.76 161.728C239.349 161.728 228.939 163.982 221.013 168.491L15.904 286.142C8.58168 290.311 4.55363 295.739 4.55363 301.424C4.55363 307.108 8.58168 312.544 15.904 316.698L222.098 434.13C237.951 443.155 263.747 443.155 279.599 434.13L484.708 316.487C492.031 312.318 496.059 306.89 496.059 301.213C496.059 295.52 492.031 290.092 484.708 285.923V285.93L278.506 168.498C270.58 163.975 260.17 161.728 249.76 161.728Z" fill="url(#paint1_linear_596_628)"/>
<path d="M498.986 239.608L498.955 142.095L374.025 158.538L280.478 105.258C264.068 95.9167 237.469 95.9167 221.059 105.258L206.49 114.388L3.65137 141.085V239.744C3.65137 239.796 3.65137 239.849 3.65137 239.91V240.369L3.72788 240.354C3.96482 246.303 7.97751 252.206 15.9419 256.745L222.144 374.169C238.554 383.518 265.153 383.518 281.563 374.169L486.68 256.519C494.621 251.995 498.634 246.114 498.886 240.188L498.986 240.173V239.608Z" fill="url(#paint2_linear_596_628)"/>
<path d="M498.986 239.608L498.955 142.095L374.025 158.538L280.478 105.258C264.068 95.9167 237.469 95.9167 221.059 105.258L206.49 114.388L3.65137 141.085V239.744C3.65137 239.796 3.65137 239.849 3.65137 239.91V240.369L3.72788 240.354C3.96482 246.303 7.97751 252.206 15.9419 256.745L222.144 374.169C238.554 383.518 265.153 383.518 281.563 374.169L486.68 256.519C494.621 251.995 498.634 246.114 498.886 240.188L498.986 240.173V239.608Z" fill="url(#paint3_linear_596_628)"/>
<path d="M498.986 239.608L498.955 142.095L374.025 158.538L280.478 105.258C264.068 95.9167 237.469 95.9167 221.059 105.258L206.49 114.388L3.65137 141.085V239.744C3.65137 239.796 3.65137 239.849 3.65137 239.91V240.369L3.72788 240.354C3.96482 246.303 7.97751 252.206 15.9419 256.745L222.144 374.169C238.554 383.518 265.153 383.518 281.563 374.169L486.68 256.519C494.621 251.995 498.634 246.114 498.886 240.188L498.986 240.173V239.608Z" fill="#00B2FF"/>
<path d="M486.68 124.438L280.478 7.00588C264.068 -2.33529 237.469 -2.33529 221.059 7.00588L15.9498 124.649C-0.460474 133.99 -0.460474 149.144 15.9498 158.485L222.152 275.917C238.562 285.258 265.161 285.258 281.571 275.917L486.688 158.274C503.083 148.933 503.083 133.787 486.68 124.438Z" fill="#07DFFF"/>
<path d="M486.68 152.37L281.563 270.013C265.153 279.354 238.554 279.354 222.144 270.013L15.9417 152.581C9.06272 148.661 5.10344 143.723 3.99516 138.619C2.45885 145.69 6.41048 153.064 15.9417 158.492L222.144 275.924C238.554 285.265 265.153 285.273 281.563 275.924L486.68 158.273C496.203 152.853 500.163 145.472 498.626 138.4C497.51 143.512 493.559 148.45 486.68 152.37Z" fill="white"/>
<path d="M309.285 301.957L299.525 307.513V296.393L309.285 290.836V301.957Z" fill="white"/>
<path d="M329.708 290.324L319.948 295.88V284.768L329.708 279.204V290.324Z" fill="white"/>
<path d="M350.131 278.692L340.371 284.256V273.135L350.131 267.579V278.692Z" fill="white"/>
<path d="M333.43 310.733L323.669 316.29V305.169L333.43 299.613V310.733Z" fill="white"/>
<path d="M351.415 300.487L341.655 306.051V294.931L351.415 289.375V300.487Z" fill="white"/>
<path d="M415.635 241.387L405.875 246.951V235.83L415.635 230.274V241.387Z" fill="white"/>
<path d="M471.897 209.352L462.137 214.909V203.788L471.897 198.232V209.352Z" fill="white"/>
<path d="M370.555 267.066L360.794 272.623V261.502L370.555 255.946V267.066Z" fill="white"/>
<path d="M252.497 243.127C244.245 243.127 236.002 241.295 229.567 237.639L80.5749 152.851C73.9067 149.055 70.2227 143.83 70.2227 138.145C70.2227 132.459 73.8984 127.234 80.5749 123.43L228.775 38.4944C241.645 31.174 261.783 31.1658 274.644 38.4862L423.636 123.274C430.313 127.078 433.988 132.303 433.988 137.98C433.988 143.666 430.313 148.891 423.636 152.695L275.436 237.631C269.001 241.287 260.749 243.127 252.497 243.127ZM251.714 38.7655C244.47 38.7655 237.227 40.3265 231.709 43.4731L83.509 128.409C78.7079 131.145 76.0657 134.595 76.0657 138.145C76.0657 141.694 78.6995 145.145 83.4923 147.864L232.484 232.652C243.504 238.945 261.458 238.945 272.493 232.652L420.694 147.716C425.495 144.98 428.137 141.53 428.137 137.98C428.137 134.439 425.503 130.989 420.702 128.261L271.71 43.4731C266.209 40.3265 258.957 38.7655 251.714 38.7655Z" fill="white"/>
<defs>
<linearGradient id="paint0_linear_596_628" x1="250.295" y1="158" x2="250.295" y2="444.625" gradientUnits="userSpaceOnUse">
<stop stop-color="#D9D9D9"/>
<stop offset="1" stop-color="#737373"/>
</linearGradient>
<linearGradient id="paint1_linear_596_628" x1="-24.1522" y1="263.94" x2="547.608" y2="301.821" gradientUnits="userSpaceOnUse">
<stop stop-color="#FFDF6C"/>
<stop offset="1" stop-color="#FF5C00"/>
</linearGradient>
<linearGradient id="paint2_linear_596_628" x1="-26.1363" y1="239.718" x2="323.161" y2="239.718" gradientUnits="userSpaceOnUse">
<stop stop-color="#42E8E0"/>
<stop offset="0.1297" stop-color="#42E8E0"/>
<stop offset="0.5466" stop-color="#2FD3C7"/>
<stop offset="0.8476" stop-color="#129990"/>
<stop offset="1" stop-color="#059288"/>
</linearGradient>
<linearGradient id="paint3_linear_596_628" x1="-21.0187" y1="202.826" x2="546.32" y2="240.612" gradientUnits="userSpaceOnUse">
<stop stop-color="#FFDF6C"/>
<stop offset="1" stop-color="#FF5C00"/>
</linearGradient>
</defs>
</svg>
