<svg width="222" height="75" viewBox="0 0 222 75" fill="none" xmlns="http://www.w3.org/2000/svg">
<mask id="path-1-outside-1_58_693" maskUnits="userSpaceOnUse" x="0" y="0" width="222" height="75" fill="black">
<rect fill="white" width="222" height="75"/>
<path fill-rule="evenodd" clip-rule="evenodd" d="M155.461 10.0601C147.352 7.01151 139.485 2 130.822 2L37.5 2C17.8939 2 2 17.8939 2 37.5C2 57.1061 17.8939 73 37.5 73L184.467 73C204.073 73 219.967 57.1061 219.967 37.5C219.967 31.2894 218.372 25.4512 215.57 20.3728C212.125 14.1294 204.818 11.64 197.687 11.64L164.194 11.64C161.121 11.64 158.178 11.0814 155.461 10.0601Z"/>
</mask>
<path d="M215.57 20.3728L213.819 21.3391L215.57 20.3728ZM155.461 10.0601L154.757 11.9321L155.461 10.0601ZM37.5 4L130.822 4V0L37.5 0V4ZM4 37.5C4 18.9985 18.9985 4 37.5 4V0C16.7893 0 0 16.7893 0 37.5H4ZM37.5 71C18.9985 71 4 56.0015 4 37.5H0C0 58.2107 16.7893 75 37.5 75V71ZM184.467 71L37.5 71V75L184.467 75V71ZM217.967 37.5C217.967 56.0015 202.969 71 184.467 71V75C205.178 75 221.967 58.2107 221.967 37.5H217.967ZM213.819 21.3391C216.462 26.1291 217.967 31.6358 217.967 37.5H221.967C221.967 30.9429 220.283 24.7733 217.321 19.4064L213.819 21.3391ZM197.687 9.64H164.194V13.64L197.687 13.64V9.64ZM164.194 9.64C161.365 9.64 158.66 9.12599 156.165 8.188L154.757 11.9321C157.696 13.0367 160.877 13.64 164.194 13.64V9.64ZM217.321 19.4064C213.37 12.2464 205.159 9.64 197.687 9.64V13.64C204.477 13.64 210.879 16.0124 213.819 21.3391L217.321 19.4064ZM130.822 4C134.775 4 138.627 5.14362 142.603 6.74242C144.591 7.5419 146.564 8.43506 148.594 9.34093C150.607 10.2394 152.668 11.1466 154.757 11.9321L156.165 8.188C154.2 7.44926 152.237 6.58677 150.224 5.68822C148.227 4.79702 146.171 3.86569 144.096 3.03123C139.945 1.36214 135.532 0 130.822 0V4Z" fill="#FF4D00" mask="url(#path-1-outside-1_58_693)"/>
</svg>
