<svg width="372" height="89" viewBox="0 0 372 89" fill="none" xmlns="http://www.w3.org/2000/svg">
<mask id="path-1-outside-1_324_2260" maskUnits="userSpaceOnUse" x="0" y="0" width="372" height="89" fill="black">
<rect fill="white" width="372" height="89"/>
<path fill-rule="evenodd" clip-rule="evenodd" d="M333.032 19.472C321.069 13.6222 309.93 2 296.613 2L44 2C20.804 2 2 20.804 2 44V45C2 68.196 20.804 87 44 87L328 87C351.196 87 370 68.196 370 45V44C370 41.4471 369.772 38.9475 369.336 36.5202C367.617 26.9555 357.865 22 348.147 22H344C340.066 22 336.344 21.0912 333.032 19.472Z"/>
</mask>
<path d="M333.032 19.472L333.911 17.6753L333.032 19.472ZM44 4L296.613 4V0L44 0V4ZM4 44C4 21.9086 21.9086 4 44 4V0C19.6995 0 0 19.6995 0 44H4ZM4 45V44H0V45H4ZM44 85C21.9086 85 4 67.0914 4 45H0C0 69.3005 19.6995 89 44 89V85ZM328 85L44 85V89L328 89V85ZM368 45C368 67.0914 350.091 85 328 85V89C352.3 89 372 69.3005 372 45H368ZM368 44V45H372V44H368ZM367.367 36.8741C367.783 39.1851 368 41.5663 368 44H372C372 41.3279 371.762 38.7099 371.304 36.1664L367.367 36.8741ZM348.147 20H344V24H348.147V20ZM344 20C340.377 20 336.955 19.1636 333.911 17.6753L332.154 21.2687C335.733 23.0187 339.755 24 344 24V20ZM371.304 36.1664C369.338 25.2265 358.329 20 348.147 20V24C357.402 24 365.895 28.6844 367.367 36.8741L371.304 36.1664ZM296.613 4C302.695 4 308.412 6.65491 314.286 10.2484C317.228 12.0477 320.09 14.0047 323.076 15.9498C326.025 17.8719 329.048 19.7503 332.154 21.2687L333.911 17.6753C331.034 16.2688 328.179 14.5008 325.259 12.5984C322.375 10.7191 319.377 8.6737 316.374 6.83625C310.358 3.15619 303.847 0 296.613 0V4Z" fill="white" mask="url(#path-1-outside-1_324_2260)"/>
</svg>
