<svg width="1608" height="431" viewBox="0 0 1608 431" fill="none" xmlns="http://www.w3.org/2000/svg">
<path d="M245.223 68.2007C245.179 68.7297 245.136 69.2532 245.043 69.7822C244.972 70.1803 244.852 70.573 244.754 70.9712C244.628 71.462 244.503 71.9528 244.334 72.4382C244.198 72.8254 244.023 73.2072 243.854 73.5944C243.636 74.1016 243.412 74.6088 243.145 75.1051C242.949 75.4705 242.726 75.825 242.502 76.1849C242.159 76.7467 241.788 77.303 241.379 77.8538C241.133 78.181 240.877 78.5083 240.61 78.83C239.95 79.6317 239.214 80.4226 238.407 81.197C238.205 81.3933 238.031 81.5951 237.818 81.786C237.333 82.2278 236.782 82.6532 236.254 83.0786C235.845 83.4113 235.463 83.7494 235.021 84.0712C234.432 84.5075 233.767 84.922 233.124 85.3364C232.628 85.6582 232.175 85.9909 231.646 86.3072L143.137 138.974C141.627 139.874 140.013 140.682 138.35 141.44C138.006 141.598 137.668 141.756 137.314 141.909C135.673 142.618 133.982 143.261 132.227 143.834C131.758 143.986 131.273 144.123 130.798 144.265C129.926 144.526 129.053 144.783 128.159 145.012C127.598 145.154 127.031 145.284 126.464 145.415C125.597 145.617 124.73 145.803 123.846 145.972C123.323 146.07 122.8 146.168 122.271 146.255C120.466 146.566 118.639 146.833 116.791 147.019C116.709 147.03 116.627 147.03 116.546 147.035C115.013 147.182 113.47 147.281 111.922 147.346C111.366 147.368 110.804 147.373 110.248 147.384C109.267 147.406 108.285 147.412 107.304 147.401C106.688 147.39 106.066 147.373 105.45 147.352C104.561 147.319 103.678 147.27 102.795 147.21C102.168 147.166 101.541 147.122 100.919 147.062C100.025 146.981 99.1359 146.877 98.2527 146.762C97.6583 146.686 97.0695 146.615 96.4752 146.528C95.4338 146.37 94.3978 146.184 93.3673 145.988C92.9147 145.901 92.4623 145.83 92.0152 145.737C90.4503 145.41 88.9019 145.028 87.3861 144.603C87.1189 144.526 86.8572 144.434 86.59 144.357C85.0034 143.888 83.4549 143.359 81.9391 142.787C81.3121 142.547 80.674 142.329 80.0634 142.072L20.2776 116.968C18.1784 116.09 16.2374 115.125 14.4544 114.094C5.16352 108.728 0.174607 101.491 0.196417 94.128L7.1204e-05 162.971C-0.0217385 170.339 4.96717 177.576 14.2581 182.937C16.041 183.968 17.9877 184.928 20.0814 185.812L79.8672 210.915C80.2489 211.079 80.6359 211.232 81.0285 211.39C81.2575 211.483 81.5083 211.543 81.7428 211.63C83.2586 212.208 84.8125 212.737 86.3992 213.206C86.5846 213.261 86.7536 213.337 86.9445 213.391C87.0208 213.413 87.1079 213.43 87.1842 213.451C88.7055 213.882 90.2485 214.259 91.8188 214.586C91.8952 214.602 91.9715 214.624 92.0533 214.64C92.424 214.717 92.8057 214.766 93.1764 214.837C94.207 215.033 95.2375 215.218 96.2844 215.377C96.4643 215.404 96.6442 215.442 96.8242 215.469C97.2331 215.529 97.6475 215.557 98.0565 215.606C98.9452 215.72 99.8394 215.824 100.734 215.906C100.995 215.933 101.257 215.971 101.519 215.993C101.873 216.02 102.238 216.026 102.593 216.053C103.482 216.113 104.376 216.162 105.27 216.195C105.603 216.206 105.935 216.238 106.268 216.249C106.546 216.255 106.829 216.244 107.108 216.244C108.094 216.26 109.076 216.249 110.057 216.227C110.444 216.222 110.832 216.233 111.219 216.222C111.388 216.216 111.557 216.195 111.731 216.189C113.291 216.124 114.844 216.031 116.382 215.878C116.447 215.873 116.507 215.873 116.573 215.867L116.595 215.862C118.448 215.677 120.275 215.409 122.085 215.098C122.309 215.06 122.538 215.044 122.761 215.006C123.061 214.951 123.35 214.875 123.65 214.815C124.533 214.646 125.406 214.455 126.273 214.259C126.84 214.128 127.407 213.997 127.968 213.855C128.863 213.626 129.735 213.37 130.607 213.108C130.984 212.993 131.376 212.906 131.747 212.786C131.845 212.753 131.938 212.71 132.036 212.677C133.792 212.104 135.482 211.455 137.123 210.752C137.472 210.599 137.81 210.441 138.159 210.283C139.822 209.525 141.436 208.717 142.946 207.818L231.455 155.15C231.537 155.101 231.624 155.052 231.706 154.998C232.148 154.73 232.524 154.447 232.939 154.174C233.576 153.76 234.236 153.345 234.825 152.914C235.267 152.587 235.648 152.249 236.063 151.916C236.592 151.491 237.142 151.066 237.622 150.629C237.677 150.58 237.742 150.531 237.797 150.482C237.955 150.34 238.058 150.182 238.211 150.04C239.018 149.266 239.749 148.48 240.414 147.673C240.534 147.526 240.697 147.39 240.812 147.248C240.954 147.068 241.046 146.877 241.183 146.697C241.591 146.146 241.962 145.59 242.306 145.028C242.442 144.81 242.622 144.597 242.747 144.374C242.829 144.232 242.873 144.09 242.949 143.948C243.216 143.447 243.44 142.939 243.658 142.432C243.772 142.159 243.936 141.898 244.034 141.625C244.078 141.51 244.094 141.391 244.132 141.276C244.301 140.791 244.427 140.3 244.552 139.809C244.628 139.503 244.754 139.209 244.814 138.904C244.836 138.811 244.83 138.713 244.847 138.62C244.945 138.091 244.983 137.567 245.026 137.038C245.054 136.733 245.119 136.428 245.13 136.122C245.136 135.98 245.136 135.839 245.136 135.697L245.332 66.8535C245.332 67.3062 245.261 67.7534 245.223 68.2007Z" fill="#53A5F8"/>
<path d="M231.117 46.9083C249.557 57.5541 250.397 75.148 231.657 86.3065L143.148 138.974C126.425 148.949 99.5666 150.252 80.0797 142.072L20.2939 116.968C18.1947 116.09 16.2535 115.124 14.4706 114.094C-0.32728 105.547 -4.21481 92.2457 5.68678 81.2508L64.3276 16.0454C77.9696 0.878374 111.671 -3.69732 135.64 6.36492L225.239 44.0069C227.36 44.9014 229.323 45.8721 231.117 46.9083Z" fill="#A7EAFD"/>
<path d="M231.651 86.3061L143.142 138.973C126.42 148.948 99.5612 150.252 80.0742 142.071L20.2884 116.967C18.1893 116.089 16.2482 115.124 14.4653 114.093C7.29536 109.954 2.71528 104.691 0.992318 99.1226C-1.78296 108.083 3.11881 117.425 14.4653 123.975C16.2482 125.006 18.1947 125.966 20.2884 126.85L80.0742 151.953C99.5612 160.134 126.42 158.831 143.142 148.856L231.651 96.1885C243.003 89.4367 247.125 80.3233 244.552 71.8154C242.911 77.0783 238.647 82.1394 231.651 86.3061Z" fill="white"/>
<path d="M112.669 129.168C105.243 129.168 97.7622 127.832 91.2793 125.11L48.6578 107.216C47.0493 106.54 45.5608 105.804 44.1977 105.019C37.7529 101.294 33.7235 96.2161 32.8511 90.7132C32.1096 86.0502 33.6417 81.4528 37.273 77.417L79.0822 30.9343C89.5945 19.2359 114.801 15.6909 133.007 23.3426L196.893 50.1752C198.517 50.8624 200.017 51.6042 201.385 52.3895L201.391 52.3949C208.768 56.6543 212.852 62.5063 212.885 68.86C212.928 75.11 208.992 80.9128 201.805 85.1885L138.704 122.743C131.562 126.981 122.156 129.168 112.669 129.168ZM111.606 24.7333C100.058 24.7333 88.8148 28.2401 83.1279 34.5665L41.3187 81.0546C38.8215 83.8306 37.7584 86.8684 38.2273 89.8516C38.838 93.6965 41.9295 97.4051 46.9239 100.29C48.1016 100.972 49.3883 101.599 50.7678 102.183L93.384 120.076C106.464 125.568 124.735 124.696 135.902 118.042L199.003 80.4874C204.461 77.2369 207.449 73.1194 207.421 68.8818C207.394 64.5406 204.281 60.3575 198.659 57.1071C197.471 56.4253 196.168 55.7818 194.766 55.1873L130.886 28.3547C125.024 25.9005 118.263 24.7333 111.606 24.7333Z" fill="#53A5F8"/>
<path d="M158.029 168.886L151.328 172.979V164.787L158.029 160.694V168.886Z" fill="white"/>
<path d="M458.219 282.2C458.175 282.729 458.132 283.252 458.039 283.781C457.968 284.179 457.848 284.572 457.75 284.97C457.624 285.461 457.499 285.952 457.33 286.437C457.194 286.824 457.019 287.206 456.85 287.593C456.632 288.101 456.408 288.608 456.141 289.104C455.945 289.469 455.722 289.824 455.498 290.184C455.155 290.746 454.784 291.302 454.375 291.853C454.129 292.18 453.873 292.507 453.606 292.829C452.946 293.631 452.21 294.422 451.403 295.196C451.202 295.392 451.027 295.594 450.814 295.785C450.329 296.227 449.779 296.652 449.25 297.077C448.841 297.41 448.459 297.748 448.017 298.07C447.429 298.506 446.763 298.921 446.12 299.335C445.624 299.657 445.171 299.99 444.642 300.306L356.135 352.973C354.624 353.873 353.01 354.68 351.347 355.438C351.004 355.596 350.666 355.754 350.312 355.907C348.67 356.616 346.98 357.26 345.225 357.832C344.756 357.985 344.27 358.121 343.796 358.263C342.924 358.525 342.051 358.781 341.157 359.01C340.596 359.152 340.028 359.283 339.461 359.414C338.595 359.616 337.728 359.801 336.844 359.97C336.321 360.068 335.798 360.167 335.269 360.254C333.464 360.565 331.637 360.832 329.789 361.017C329.707 361.028 329.625 361.028 329.544 361.034C328.012 361.181 326.469 361.279 324.92 361.345C324.364 361.366 323.802 361.372 323.246 361.383C322.265 361.405 321.283 361.41 320.302 361.399C319.686 361.388 319.064 361.372 318.448 361.35C317.559 361.317 316.676 361.268 315.793 361.208C315.166 361.165 314.539 361.121 313.917 361.061C313.023 360.979 312.134 360.876 311.251 360.761C310.657 360.685 310.068 360.614 309.474 360.527C308.432 360.368 307.396 360.183 306.366 359.987C305.913 359.899 305.461 359.828 305.014 359.736C303.449 359.408 301.9 359.027 300.385 358.601C300.117 358.525 299.856 358.432 299.589 358.356C298.002 357.887 296.454 357.358 294.938 356.785C294.311 356.545 293.673 356.327 293.062 356.071L233.277 330.967C231.178 330.089 229.237 329.124 227.454 328.093C218.163 322.727 213.175 315.489 213.196 308.127L213 376.97C212.978 384.338 217.967 391.575 227.258 396.936C229.041 397.967 230.987 398.926 233.081 399.81L292.866 424.914C293.248 425.077 293.635 425.23 294.027 425.388C294.256 425.481 294.507 425.541 294.741 425.628C296.257 426.206 297.811 426.735 299.398 427.204C299.583 427.259 299.752 427.335 299.943 427.39C300.019 427.411 300.106 427.428 300.183 427.45C301.704 427.88 303.247 428.257 304.817 428.584C304.894 428.6 304.97 428.622 305.052 428.638C305.423 428.715 305.804 428.764 306.175 428.835C307.205 429.031 308.236 429.217 309.283 429.375C309.463 429.402 309.643 429.44 309.823 429.467C310.231 429.527 310.646 429.555 311.055 429.604C311.944 429.718 312.838 429.822 313.732 429.904C313.994 429.931 314.255 429.969 314.517 429.991C314.872 430.018 315.237 430.024 315.591 430.051C316.48 430.111 317.374 430.16 318.268 430.193C318.601 430.204 318.933 430.236 319.266 430.247C319.544 430.253 319.828 430.242 320.106 430.242C321.093 430.258 322.074 430.247 323.055 430.226C323.442 430.22 323.83 430.231 324.217 430.22C324.386 430.215 324.555 430.193 324.729 430.187C326.289 430.122 327.843 430.029 329.38 429.877C329.446 429.871 329.506 429.871 329.571 429.866L329.593 429.86C331.447 429.675 333.273 429.407 335.083 429.097C335.307 429.058 335.536 429.042 335.759 429.004C336.059 428.949 336.348 428.873 336.648 428.813C337.531 428.644 338.404 428.453 339.271 428.257C339.838 428.126 340.405 427.995 340.966 427.853C341.86 427.624 342.733 427.368 343.605 427.106C343.981 426.991 344.374 426.904 344.745 426.784C344.843 426.752 344.936 426.708 345.034 426.675C346.789 426.102 348.48 425.454 350.121 424.75C350.47 424.597 350.808 424.439 351.157 424.281C352.82 423.523 354.434 422.716 355.944 421.816L444.452 369.149C444.533 369.1 444.621 369.051 444.702 368.996C445.144 368.729 445.52 368.445 445.935 368.173C446.573 367.758 447.232 367.344 447.821 366.913C448.263 366.586 448.644 366.247 449.059 365.915C449.588 365.489 450.138 365.064 450.618 364.628C450.673 364.579 450.738 364.53 450.793 364.48C450.951 364.339 451.054 364.181 451.207 364.039C452.014 363.264 452.745 362.479 453.41 361.672C453.53 361.525 453.693 361.388 453.808 361.246C453.95 361.066 454.042 360.876 454.179 360.696C454.587 360.145 454.958 359.588 455.302 359.027C455.438 358.809 455.618 358.596 455.743 358.372C455.825 358.23 455.869 358.089 455.945 357.947C456.212 357.445 456.436 356.938 456.654 356.431C456.768 356.158 456.932 355.896 457.03 355.624C457.074 355.509 457.09 355.389 457.128 355.275C457.297 354.789 457.423 354.298 457.548 353.807C457.624 353.502 457.75 353.208 457.81 352.902C457.831 352.809 457.826 352.711 457.842 352.619C457.941 352.09 457.979 351.566 458.022 351.037C458.05 350.732 458.115 350.426 458.126 350.121C458.131 349.979 458.132 349.837 458.132 349.695L458.328 280.853C458.328 281.305 458.257 281.752 458.219 282.2Z" fill="#FF4D00"/>
<path d="M444.113 260.908C462.553 271.554 463.393 289.148 444.653 300.306L356.145 352.973C339.423 362.948 312.565 364.251 293.078 356.071L233.294 330.967C231.194 330.089 229.253 329.124 227.47 328.093C212.673 319.547 208.785 306.245 218.687 295.25L277.327 230.045C290.968 214.878 324.669 210.303 348.638 220.365L438.236 258.007C440.357 258.901 442.319 259.872 444.113 260.908Z" fill="#FF9060"/>
<path d="M444.648 300.306L356.14 352.973C339.418 362.948 312.56 364.251 293.073 356.071L233.288 330.967C231.189 330.089 229.248 329.124 227.465 328.093C220.295 323.954 215.715 318.691 213.992 313.122C211.217 322.083 216.119 331.425 227.465 337.975C229.248 339.006 231.194 339.966 233.288 340.849L293.073 365.953C312.56 374.134 339.418 372.83 356.14 362.855L444.648 310.188C455.999 303.437 460.121 294.323 457.548 285.815C455.907 291.078 451.643 296.139 444.648 300.306Z" fill="white"/>
<path d="M325.667 343.167C318.241 343.167 310.76 341.831 304.277 339.11L261.657 321.216C260.048 320.54 258.56 319.803 257.197 319.018C250.752 315.293 246.722 310.216 245.85 304.713C245.109 300.05 246.641 295.452 250.272 291.417L292.08 244.934C302.593 233.236 327.799 229.691 346.004 237.343L409.889 264.175C411.514 264.862 413.013 265.604 414.382 266.389L414.387 266.395C421.764 270.654 425.848 276.506 425.881 282.86C425.924 289.11 421.988 294.912 414.801 299.188L351.702 336.743C344.559 340.98 335.154 343.167 325.667 343.167ZM324.604 238.733C313.056 238.733 301.813 242.24 296.126 248.566L254.318 295.054C251.82 297.83 250.757 300.868 251.226 303.851C251.837 307.696 254.928 311.405 259.923 314.29C261.1 314.971 262.387 315.599 263.767 316.182L306.382 334.076C319.462 339.568 337.733 338.695 348.899 332.042L411.999 294.487C417.457 291.237 420.445 287.119 420.417 282.881C420.39 278.54 417.277 274.357 411.656 271.107C410.467 270.425 409.164 269.782 407.763 269.187L343.883 242.355C338.022 239.9 331.261 238.733 324.604 238.733Z" fill="#FF4D00"/>
<path d="M365.989 378.417L359.289 382.51V374.318L365.989 370.226V378.417Z" fill="white"/>
<path d="M381.623 369.483L374.923 373.576V365.385L381.623 361.292V369.483Z" fill="white"/>
<path d="M724.219 67.1997C724.175 67.7287 724.132 68.2522 724.039 68.7812C723.968 69.1793 723.848 69.572 723.75 69.9702C723.624 70.461 723.499 70.9518 723.33 71.4372C723.194 71.8244 723.019 72.2062 722.85 72.5934C722.632 73.1006 722.408 73.6078 722.141 74.1041C721.945 74.4695 721.722 74.824 721.498 75.1839C721.155 75.7456 720.784 76.3019 720.375 76.8528C720.129 77.18 719.873 77.5072 719.606 77.829C718.946 78.6307 718.21 79.4215 717.403 80.1959C717.202 80.3923 717.027 80.5941 716.814 80.785C716.329 81.2267 715.779 81.6521 715.25 82.0775C714.841 82.4102 714.459 82.7484 714.017 83.0701C713.429 83.5064 712.763 83.9209 712.12 84.3354C711.624 84.6571 711.171 84.9898 710.642 85.3061L622.135 137.973C620.624 138.873 619.01 139.68 617.347 140.438C617.004 140.596 616.666 140.754 616.312 140.907C614.67 141.616 612.98 142.26 611.225 142.832C610.756 142.985 610.27 143.121 609.796 143.263C608.924 143.525 608.051 143.781 607.157 144.01C606.596 144.152 606.028 144.283 605.461 144.414C604.595 144.616 603.728 144.801 602.844 144.97C602.321 145.068 601.798 145.167 601.269 145.254C599.464 145.565 597.637 145.832 595.789 146.017C595.707 146.028 595.625 146.028 595.544 146.034C594.012 146.181 592.469 146.279 590.92 146.345C590.364 146.366 589.802 146.372 589.246 146.383C588.265 146.405 587.283 146.41 586.302 146.399C585.686 146.388 585.064 146.372 584.448 146.35C583.559 146.317 582.676 146.268 581.793 146.208C581.166 146.165 580.539 146.121 579.917 146.061C579.023 145.979 578.134 145.876 577.251 145.761C576.657 145.685 576.068 145.614 575.474 145.527C574.432 145.368 573.396 145.183 572.366 144.987C571.913 144.899 571.461 144.828 571.014 144.736C569.449 144.408 567.9 144.027 566.385 143.601C566.117 143.525 565.856 143.432 565.589 143.356C564.002 142.887 562.454 142.358 560.938 141.785C560.311 141.545 559.673 141.327 559.062 141.071L499.277 115.967C497.178 115.089 495.237 114.124 493.454 113.093C484.163 107.727 479.175 100.489 479.196 93.1268L479 161.97C478.978 169.338 483.967 176.575 493.258 181.936C495.041 182.967 496.987 183.926 499.081 184.81L558.866 209.914C559.248 210.077 559.635 210.23 560.027 210.388C560.256 210.481 560.507 210.541 560.741 210.628C562.257 211.206 563.811 211.735 565.398 212.204C565.583 212.259 565.752 212.335 565.943 212.39C566.019 212.411 566.106 212.428 566.183 212.45C567.704 212.88 569.247 213.257 570.817 213.584C570.894 213.6 570.97 213.622 571.052 213.638C571.423 213.715 571.804 213.764 572.175 213.835C573.205 214.031 574.236 214.217 575.283 214.375C575.463 214.402 575.643 214.44 575.823 214.467C576.231 214.527 576.646 214.555 577.055 214.604C577.944 214.718 578.838 214.822 579.732 214.904C579.994 214.931 580.255 214.969 580.517 214.991C580.872 215.018 581.237 215.024 581.591 215.051C582.48 215.111 583.374 215.16 584.268 215.193C584.601 215.204 584.933 215.236 585.266 215.247C585.544 215.253 585.828 215.242 586.106 215.242C587.093 215.258 588.074 215.247 589.055 215.226C589.442 215.22 589.83 215.231 590.217 215.22C590.386 215.215 590.555 215.193 590.729 215.187C592.289 215.122 593.843 215.029 595.38 214.877C595.446 214.871 595.506 214.871 595.571 214.866L595.593 214.86C597.447 214.675 599.273 214.407 601.083 214.097C601.307 214.058 601.536 214.042 601.759 214.004C602.059 213.949 602.348 213.873 602.648 213.813C603.531 213.644 604.404 213.453 605.271 213.257C605.838 213.126 606.405 212.995 606.966 212.853C607.86 212.624 608.733 212.368 609.605 212.106C609.981 211.991 610.374 211.904 610.745 211.784C610.843 211.752 610.936 211.708 611.034 211.675C612.789 211.102 614.48 210.454 616.121 209.75C616.47 209.597 616.808 209.439 617.157 209.281C618.82 208.523 620.434 207.716 621.944 206.816L710.452 154.149C710.533 154.1 710.621 154.051 710.702 153.996C711.144 153.729 711.52 153.445 711.935 153.173C712.573 152.758 713.232 152.344 713.821 151.913C714.263 151.586 714.644 151.247 715.059 150.915C715.588 150.489 716.138 150.064 716.618 149.628C716.673 149.579 716.738 149.53 716.793 149.48C716.951 149.339 717.054 149.181 717.207 149.039C718.014 148.264 718.745 147.479 719.41 146.672C719.53 146.525 719.693 146.388 719.808 146.246C719.95 146.066 720.042 145.876 720.179 145.696C720.587 145.145 720.958 144.588 721.302 144.027C721.438 143.809 721.618 143.596 721.743 143.372C721.825 143.23 721.869 143.089 721.945 142.947C722.212 142.445 722.436 141.938 722.654 141.431C722.768 141.158 722.932 140.896 723.03 140.624C723.074 140.509 723.09 140.389 723.128 140.275C723.297 139.789 723.423 139.298 723.548 138.807C723.624 138.502 723.75 138.208 723.81 137.902C723.831 137.809 723.826 137.711 723.842 137.619C723.941 137.09 723.979 136.566 724.022 136.037C724.05 135.732 724.115 135.426 724.126 135.121C724.131 134.979 724.132 134.837 724.132 134.695L724.328 65.8525C724.328 66.3052 724.257 66.7525 724.219 67.1997Z" fill="#F9116C"/>
<path d="M710.113 45.9081C728.553 56.5538 729.393 74.1476 710.653 85.306L622.145 137.973C605.423 147.948 578.565 149.251 559.078 141.071L499.294 115.967C497.194 115.089 495.253 114.124 493.47 113.093C478.673 104.547 474.785 91.2451 484.687 80.2504L543.327 15.0453C556.968 -0.121625 590.669 -4.6973 614.638 5.36489L704.236 43.0067C706.357 43.9011 708.319 44.8719 710.113 45.9081Z" fill="#FF80B2"/>
<path d="M710.648 85.306L622.14 137.973C605.418 147.948 578.56 149.251 559.073 141.071L499.288 115.967C497.189 115.089 495.248 114.124 493.465 113.093C486.295 108.954 481.715 103.691 479.992 98.1224C477.217 107.083 482.119 116.425 493.465 122.975C495.248 124.006 497.194 124.966 499.288 125.849L559.073 150.953C578.56 159.134 605.418 157.83 622.14 147.855L710.648 95.1883C721.999 88.4366 726.121 79.3233 723.548 70.8154C721.907 76.0783 717.643 81.1394 710.648 85.306Z" fill="white"/>
<path d="M591.667 128.167C584.241 128.167 576.76 126.831 570.277 124.11L527.657 106.216C526.048 105.54 524.56 104.803 523.197 104.018C516.752 100.293 512.722 95.2157 511.85 89.7128C511.109 85.0499 512.641 80.4524 516.272 76.4166L558.08 29.9342C568.593 18.2359 593.799 14.6909 612.004 22.3426L675.889 49.175C677.514 49.8622 679.013 50.604 680.382 51.3893L680.387 51.3947C687.764 55.6541 691.848 61.506 691.881 67.8597C691.924 74.1097 687.988 79.9124 680.801 84.1882L617.702 121.743C610.559 125.98 601.154 128.167 591.667 128.167ZM590.604 23.7333C579.056 23.7333 567.813 27.24 562.126 33.5664L520.318 80.0542C517.82 82.8302 516.757 85.868 517.226 88.8512C517.837 92.6961 520.928 96.4046 525.923 99.2897C527.1 99.9714 528.387 100.599 529.767 101.182L572.382 119.076C585.462 124.568 603.733 123.695 614.899 117.042L677.999 79.487C683.457 76.2366 686.445 72.119 686.417 67.8815C686.39 63.5403 683.277 59.3573 677.656 56.1068C676.467 55.4251 675.164 54.7815 673.763 54.1871L609.883 27.3546C604.022 24.9004 597.261 23.7333 590.604 23.7333Z" fill="#F9116C"/>
<path d="M636.077 164.533L629.377 168.626V160.435L636.077 156.342V164.533Z" fill="white"/>
<path d="M651.71 155.599L645.01 159.692V151.501L651.71 147.408V155.599Z" fill="white"/>
<path d="M666.228 148.899L659.527 152.992V144.801L666.228 140.708V148.899Z" fill="white"/>
<path d="M955.219 282.2C955.175 282.729 955.132 283.252 955.039 283.781C954.968 284.179 954.848 284.572 954.75 284.97C954.624 285.461 954.499 285.952 954.33 286.437C954.194 286.824 954.019 287.206 953.85 287.593C953.632 288.101 953.408 288.608 953.141 289.104C952.945 289.469 952.722 289.824 952.498 290.184C952.155 290.746 951.784 291.302 951.375 291.853C951.129 292.18 950.873 292.507 950.606 292.829C949.946 293.631 949.21 294.422 948.403 295.196C948.202 295.392 948.027 295.594 947.814 295.785C947.329 296.227 946.779 296.652 946.25 297.077C945.841 297.41 945.459 297.748 945.017 298.07C944.429 298.506 943.763 298.921 943.12 299.335C942.624 299.657 942.171 299.99 941.642 300.306L853.135 352.973C851.624 353.873 850.01 354.68 848.347 355.438C848.004 355.596 847.666 355.754 847.312 355.907C845.67 356.616 843.98 357.26 842.225 357.832C841.756 357.985 841.27 358.121 840.796 358.263C839.924 358.525 839.051 358.781 838.157 359.01C837.596 359.152 837.028 359.283 836.461 359.414C835.595 359.616 834.728 359.801 833.844 359.97C833.321 360.068 832.798 360.167 832.269 360.254C830.464 360.565 828.637 360.832 826.789 361.017C826.707 361.028 826.625 361.028 826.544 361.034C825.012 361.181 823.469 361.279 821.92 361.345C821.364 361.366 820.802 361.372 820.246 361.383C819.265 361.405 818.283 361.41 817.302 361.399C816.686 361.388 816.064 361.372 815.448 361.35C814.559 361.317 813.676 361.268 812.793 361.208C812.166 361.165 811.539 361.121 810.917 361.061C810.023 360.979 809.134 360.876 808.251 360.761C807.657 360.685 807.068 360.614 806.474 360.527C805.432 360.368 804.396 360.183 803.366 359.987C802.913 359.899 802.461 359.828 802.014 359.736C800.449 359.408 798.9 359.027 797.385 358.601C797.117 358.525 796.856 358.432 796.589 358.356C795.002 357.887 793.454 357.358 791.938 356.785C791.311 356.545 790.673 356.327 790.062 356.071L730.277 330.967C728.178 330.089 726.237 329.124 724.454 328.093C715.163 322.727 710.175 315.489 710.196 308.127L710 376.97C709.978 384.338 714.967 391.575 724.258 396.936C726.041 397.967 727.987 398.926 730.081 399.81L789.866 424.914C790.248 425.077 790.635 425.23 791.027 425.388C791.256 425.481 791.507 425.541 791.741 425.628C793.257 426.206 794.811 426.735 796.398 427.204C796.583 427.259 796.752 427.335 796.943 427.39C797.019 427.411 797.106 427.428 797.183 427.45C798.704 427.88 800.247 428.257 801.817 428.584C801.894 428.6 801.97 428.622 802.052 428.638C802.423 428.715 802.804 428.764 803.175 428.835C804.205 429.031 805.236 429.217 806.283 429.375C806.463 429.402 806.643 429.44 806.823 429.467C807.231 429.527 807.646 429.555 808.055 429.604C808.944 429.718 809.838 429.822 810.732 429.904C810.994 429.931 811.255 429.969 811.517 429.991C811.872 430.018 812.237 430.024 812.591 430.051C813.48 430.111 814.374 430.16 815.268 430.193C815.601 430.204 815.933 430.236 816.266 430.247C816.544 430.253 816.828 430.242 817.106 430.242C818.093 430.258 819.074 430.247 820.055 430.226C820.442 430.22 820.83 430.231 821.217 430.22C821.386 430.215 821.555 430.193 821.729 430.187C823.289 430.122 824.843 430.029 826.38 429.877C826.446 429.871 826.506 429.871 826.571 429.866L826.593 429.86C828.447 429.675 830.273 429.407 832.083 429.097C832.307 429.058 832.536 429.042 832.759 429.004C833.059 428.949 833.348 428.873 833.648 428.813C834.531 428.644 835.404 428.453 836.271 428.257C836.838 428.126 837.405 427.995 837.966 427.853C838.86 427.624 839.733 427.368 840.605 427.106C840.981 426.991 841.374 426.904 841.745 426.784C841.843 426.752 841.936 426.708 842.034 426.675C843.789 426.102 845.48 425.454 847.121 424.75C847.47 424.597 847.808 424.439 848.157 424.281C849.82 423.523 851.434 422.716 852.944 421.816L941.452 369.149C941.533 369.1 941.621 369.051 941.702 368.996C942.144 368.729 942.52 368.445 942.935 368.173C943.573 367.758 944.232 367.344 944.821 366.913C945.263 366.586 945.644 366.247 946.059 365.915C946.588 365.489 947.138 365.064 947.618 364.628C947.673 364.579 947.738 364.53 947.793 364.48C947.951 364.339 948.054 364.181 948.207 364.039C949.014 363.264 949.745 362.479 950.41 361.672C950.53 361.525 950.693 361.388 950.808 361.246C950.95 361.066 951.042 360.876 951.179 360.696C951.587 360.145 951.958 359.588 952.302 359.027C952.438 358.809 952.618 358.596 952.743 358.372C952.825 358.23 952.869 358.089 952.945 357.947C953.212 357.445 953.436 356.938 953.654 356.431C953.768 356.158 953.932 355.896 954.03 355.624C954.074 355.509 954.09 355.389 954.128 355.275C954.297 354.789 954.423 354.298 954.548 353.807C954.624 353.502 954.75 353.208 954.81 352.902C954.831 352.809 954.826 352.711 954.842 352.619C954.941 352.09 954.979 351.566 955.022 351.037C955.05 350.732 955.115 350.426 955.126 350.121C955.131 349.979 955.132 349.837 955.132 349.695L955.328 280.853C955.328 281.305 955.257 281.752 955.219 282.2Z" fill="#FFA747"/>
<path d="M941.113 260.908C959.553 271.554 960.393 289.148 941.653 300.306L853.145 352.973C836.423 362.948 809.565 364.251 790.078 356.071L730.294 330.967C728.194 330.089 726.253 329.124 724.47 328.093C709.673 319.547 705.785 306.245 715.687 295.25L774.327 230.045C787.968 214.878 821.669 210.303 845.638 220.365L935.236 258.007C937.357 258.901 939.319 259.872 941.113 260.908Z" fill="#FFD5A7"/>
<path d="M941.648 300.306L853.14 352.973C836.418 362.948 809.56 364.251 790.073 356.071L730.288 330.967C728.189 330.089 726.248 329.124 724.465 328.093C717.295 323.954 712.715 318.691 710.992 313.122C708.217 322.083 713.119 331.425 724.465 337.975C726.248 339.006 728.194 339.966 730.288 340.849L790.073 365.953C809.56 374.134 836.418 372.83 853.14 362.855L941.648 310.188C952.999 303.437 957.121 294.323 954.548 285.815C952.907 291.078 948.643 296.139 941.648 300.306Z" fill="white"/>
<path d="M822.667 343.167C815.241 343.167 807.76 341.831 801.277 339.11L758.657 321.216C757.048 320.54 755.56 319.803 754.197 319.018C747.752 315.293 743.722 310.216 742.85 304.713C742.109 300.05 743.641 295.452 747.272 291.417L789.08 244.934C799.593 233.236 824.799 229.691 843.004 237.343L906.889 264.175C908.514 264.862 910.013 265.604 911.382 266.389L911.387 266.395C918.764 270.654 922.848 276.506 922.881 282.86C922.924 289.11 918.988 294.912 911.801 299.188L848.702 336.743C841.559 340.98 832.154 343.167 822.667 343.167ZM821.604 238.733C810.056 238.733 798.813 242.24 793.126 248.566L751.318 295.054C748.82 297.83 747.757 300.868 748.226 303.851C748.837 307.696 751.928 311.405 756.923 314.29C758.1 314.971 759.387 315.599 760.767 316.182L803.382 334.076C816.462 339.568 834.733 338.695 845.899 332.042L908.999 294.487C914.457 291.237 917.445 287.119 917.417 282.881C917.39 278.54 914.277 274.357 908.656 271.107C907.467 270.425 906.164 269.782 904.763 269.187L840.883 242.355C835.022 239.9 828.261 238.733 821.604 238.733Z" fill="#FFA747"/>
<path d="M861.872 379.533L855.172 383.626V375.435L861.872 371.342V379.533Z" fill="white"/>
<path d="M877.507 370.599L870.807 374.692V366.501L877.507 362.408V370.599Z" fill="white"/>
<path d="M892.024 362.782L885.324 366.875V358.684L892.024 354.591V362.782Z" fill="white"/>
<path d="M905.425 354.966L898.725 359.058V350.867L905.425 346.774V354.966Z" fill="white"/>
<path d="M1189.22 68.1997C1189.18 68.7287 1189.13 69.2522 1189.04 69.7812C1188.97 70.1793 1188.85 70.572 1188.75 70.9702C1188.62 71.461 1188.5 71.9518 1188.33 72.4372C1188.19 72.8244 1188.02 73.2062 1187.85 73.5934C1187.63 74.1006 1187.41 74.6078 1187.14 75.1041C1186.94 75.4695 1186.72 75.824 1186.5 76.1839C1186.15 76.7456 1185.78 77.3019 1185.37 77.8528C1185.13 78.18 1184.87 78.5072 1184.61 78.829C1183.95 79.6307 1183.21 80.4215 1182.4 81.1959C1182.2 81.3923 1182.03 81.5941 1181.81 81.785C1181.33 82.2267 1180.78 82.6521 1180.25 83.0775C1179.84 83.4102 1179.46 83.7484 1179.02 84.0701C1178.43 84.5064 1177.76 84.9209 1177.12 85.3354C1176.62 85.6571 1176.17 85.9898 1175.64 86.3061L1087.13 138.973C1085.62 139.873 1084.01 140.68 1082.35 141.438C1082 141.596 1081.67 141.754 1081.31 141.907C1079.67 142.616 1077.98 143.26 1076.22 143.832C1075.76 143.985 1075.27 144.121 1074.8 144.263C1073.92 144.525 1073.05 144.781 1072.16 145.01C1071.6 145.152 1071.03 145.283 1070.46 145.414C1069.59 145.616 1068.73 145.801 1067.84 145.97C1067.32 146.068 1066.8 146.167 1066.27 146.254C1064.46 146.565 1062.64 146.832 1060.79 147.017C1060.71 147.028 1060.63 147.028 1060.54 147.034C1059.01 147.181 1057.47 147.279 1055.92 147.345C1055.36 147.366 1054.8 147.372 1054.25 147.383C1053.26 147.405 1052.28 147.41 1051.3 147.399C1050.69 147.388 1050.06 147.372 1049.45 147.35C1048.56 147.317 1047.68 147.268 1046.79 147.208C1046.17 147.165 1045.54 147.121 1044.92 147.061C1044.02 146.979 1043.13 146.876 1042.25 146.761C1041.66 146.685 1041.07 146.614 1040.47 146.527C1039.43 146.368 1038.4 146.183 1037.37 145.987C1036.91 145.899 1036.46 145.828 1036.01 145.736C1034.45 145.408 1032.9 145.027 1031.38 144.601C1031.12 144.525 1030.86 144.432 1030.59 144.356C1029 143.887 1027.45 143.358 1025.94 142.785C1025.31 142.545 1024.67 142.327 1024.06 142.071L964.277 116.967C962.178 116.089 960.237 115.124 958.454 114.093C949.163 108.727 944.175 101.489 944.196 94.1268L944 162.97C943.978 170.338 948.967 177.575 958.258 182.936C960.041 183.967 961.987 184.926 964.081 185.81L1023.87 210.914C1024.25 211.077 1024.63 211.23 1025.03 211.388C1025.26 211.481 1025.51 211.541 1025.74 211.628C1027.26 212.206 1028.81 212.735 1030.4 213.204C1030.58 213.259 1030.75 213.335 1030.94 213.39C1031.02 213.411 1031.11 213.428 1031.18 213.45C1032.7 213.88 1034.25 214.257 1035.82 214.584C1035.89 214.6 1035.97 214.622 1036.05 214.638C1036.42 214.715 1036.8 214.764 1037.17 214.835C1038.21 215.031 1039.24 215.217 1040.28 215.375C1040.46 215.402 1040.64 215.44 1040.82 215.467C1041.23 215.527 1041.65 215.555 1042.05 215.604C1042.94 215.718 1043.84 215.822 1044.73 215.904C1044.99 215.931 1045.26 215.969 1045.52 215.991C1045.87 216.018 1046.24 216.024 1046.59 216.051C1047.48 216.111 1048.37 216.16 1049.27 216.193C1049.6 216.204 1049.93 216.236 1050.27 216.247C1050.54 216.253 1050.83 216.242 1051.11 216.242C1052.09 216.258 1053.07 216.247 1054.06 216.226C1054.44 216.22 1054.83 216.231 1055.22 216.22C1055.39 216.215 1055.55 216.193 1055.73 216.187C1057.29 216.122 1058.84 216.029 1060.38 215.877C1060.45 215.871 1060.51 215.871 1060.57 215.866L1060.59 215.86C1062.45 215.675 1064.27 215.407 1066.08 215.097C1066.31 215.058 1066.54 215.042 1066.76 215.004C1067.06 214.949 1067.35 214.873 1067.65 214.813C1068.53 214.644 1069.4 214.453 1070.27 214.257C1070.84 214.126 1071.4 213.995 1071.97 213.853C1072.86 213.624 1073.73 213.368 1074.61 213.106C1074.98 212.991 1075.37 212.904 1075.74 212.784C1075.84 212.752 1075.94 212.708 1076.03 212.675C1077.79 212.102 1079.48 211.454 1081.12 210.75C1081.47 210.597 1081.81 210.439 1082.16 210.281C1083.82 209.523 1085.43 208.716 1086.94 207.816L1175.45 155.149C1175.53 155.1 1175.62 155.051 1175.7 154.996C1176.14 154.729 1176.52 154.445 1176.93 154.173C1177.57 153.758 1178.23 153.344 1178.82 152.913C1179.26 152.586 1179.64 152.247 1180.06 151.915C1180.59 151.489 1181.14 151.064 1181.62 150.628C1181.67 150.579 1181.74 150.53 1181.79 150.48C1181.95 150.339 1182.05 150.181 1182.21 150.039C1183.01 149.264 1183.74 148.479 1184.41 147.672C1184.53 147.525 1184.69 147.388 1184.81 147.246C1184.95 147.066 1185.04 146.876 1185.18 146.696C1185.59 146.145 1185.96 145.588 1186.3 145.027C1186.44 144.809 1186.62 144.596 1186.74 144.372C1186.83 144.23 1186.87 144.089 1186.95 143.947C1187.21 143.445 1187.44 142.938 1187.65 142.431C1187.77 142.158 1187.93 141.896 1188.03 141.624C1188.07 141.509 1188.09 141.389 1188.13 141.275C1188.3 140.789 1188.42 140.298 1188.55 139.807C1188.62 139.502 1188.75 139.208 1188.81 138.902C1188.83 138.809 1188.83 138.711 1188.84 138.619C1188.94 138.09 1188.98 137.566 1189.02 137.037C1189.05 136.732 1189.12 136.426 1189.13 136.121C1189.13 135.979 1189.13 135.837 1189.13 135.695L1189.33 66.8525C1189.33 67.3052 1189.26 67.7525 1189.22 68.1997Z" fill="#FFE345"/>
<path d="M1175.11 46.9081C1193.55 57.5538 1194.39 75.1476 1175.65 86.306L1087.15 138.973C1070.42 148.948 1043.56 150.251 1024.08 142.071L964.294 116.967C962.194 116.089 960.253 115.124 958.47 114.093C943.673 105.547 939.785 92.2451 949.687 81.2504L1008.33 16.0453C1021.97 0.878375 1055.67 -3.6973 1079.64 6.36489L1169.24 44.0067C1171.36 44.9011 1173.32 45.8719 1175.11 46.9081Z" fill="#FFF3AC"/>
<path d="M1175.65 86.306L1087.14 138.973C1070.42 148.948 1043.56 150.251 1024.07 142.071L964.288 116.967C962.189 116.089 960.248 115.124 958.465 114.093C951.295 109.954 946.715 104.691 944.992 99.1224C942.217 108.083 947.119 117.425 958.465 123.975C960.248 125.006 962.194 125.966 964.288 126.849L1024.07 151.953C1043.56 160.134 1070.42 158.83 1087.14 148.855L1175.65 96.1883C1187 89.4366 1191.12 80.3233 1188.55 71.8154C1186.91 77.0783 1182.64 82.1394 1175.65 86.306Z" fill="white"/>
<path d="M1056.67 129.167C1049.24 129.167 1041.76 127.831 1035.28 125.11L992.657 107.216C991.048 106.54 989.56 105.803 988.197 105.018C981.752 101.293 977.722 96.2157 976.85 90.7128C976.109 86.0499 977.641 81.4524 981.272 77.4166L1023.08 30.9342C1033.59 19.2359 1058.8 15.6909 1077 23.3426L1140.89 50.175C1142.51 50.8622 1144.01 51.604 1145.38 52.3893L1145.39 52.3947C1152.76 56.6541 1156.85 62.506 1156.88 68.8597C1156.92 75.1097 1152.99 80.9124 1145.8 85.1882L1082.7 122.743C1075.56 126.98 1066.15 129.167 1056.67 129.167ZM1055.6 24.7333C1044.06 24.7333 1032.81 28.24 1027.13 34.5664L985.318 81.0542C982.82 83.8302 981.757 86.868 982.226 89.8512C982.837 93.6961 985.928 97.4046 990.923 100.29C992.1 100.971 993.387 101.599 994.767 102.182L1037.38 120.076C1050.46 125.568 1068.73 124.695 1079.9 118.042L1143 80.487C1148.46 77.2366 1151.44 73.119 1151.42 68.8815C1151.39 64.5403 1148.28 60.3573 1142.66 57.1068C1141.47 56.4251 1140.16 55.7815 1138.76 55.1871L1074.88 28.3546C1069.02 25.9004 1062.26 24.7333 1055.6 24.7333Z" fill="#FFE345"/>
<path d="M1091.41 171.117L1084.71 175.21V167.019L1091.41 162.926V171.117Z" fill="white"/>
<path d="M1107.04 162.183L1100.34 166.276V158.085L1107.04 153.992V162.183Z" fill="white"/>
<path d="M1121.56 154.366L1114.86 158.459V150.268L1121.56 146.175V154.366Z" fill="white"/>
<path d="M1134.96 146.549L1128.26 150.641V142.45L1134.96 138.357V146.549Z" fill="white"/>
<path d="M1148.36 138.732L1141.66 142.825V134.634L1148.36 130.541V138.732Z" fill="white"/>
<path d="M1397.22 282.2C1397.18 282.729 1397.13 283.252 1397.04 283.781C1396.97 284.179 1396.85 284.572 1396.75 284.97C1396.62 285.461 1396.5 285.952 1396.33 286.437C1396.19 286.824 1396.02 287.206 1395.85 287.593C1395.63 288.101 1395.41 288.608 1395.14 289.104C1394.94 289.469 1394.72 289.824 1394.5 290.184C1394.15 290.746 1393.78 291.302 1393.37 291.853C1393.13 292.18 1392.87 292.507 1392.61 292.829C1391.95 293.631 1391.21 294.422 1390.4 295.196C1390.2 295.392 1390.03 295.594 1389.81 295.785C1389.33 296.227 1388.78 296.652 1388.25 297.077C1387.84 297.41 1387.46 297.748 1387.02 298.07C1386.43 298.506 1385.76 298.921 1385.12 299.335C1384.62 299.657 1384.17 299.99 1383.64 300.306L1295.13 352.973C1293.62 353.873 1292.01 354.68 1290.35 355.438C1290 355.596 1289.67 355.754 1289.31 355.907C1287.67 356.616 1285.98 357.26 1284.22 357.832C1283.76 357.985 1283.27 358.121 1282.8 358.263C1281.92 358.525 1281.05 358.781 1280.16 359.01C1279.6 359.152 1279.03 359.283 1278.46 359.414C1277.59 359.616 1276.73 359.801 1275.84 359.97C1275.32 360.068 1274.8 360.167 1274.27 360.254C1272.46 360.565 1270.64 360.832 1268.79 361.017C1268.71 361.028 1268.63 361.028 1268.54 361.034C1267.01 361.181 1265.47 361.279 1263.92 361.345C1263.36 361.366 1262.8 361.372 1262.25 361.383C1261.26 361.405 1260.28 361.41 1259.3 361.399C1258.69 361.388 1258.06 361.372 1257.45 361.35C1256.56 361.317 1255.68 361.268 1254.79 361.208C1254.17 361.165 1253.54 361.121 1252.92 361.061C1252.02 360.979 1251.13 360.876 1250.25 360.761C1249.66 360.685 1249.07 360.614 1248.47 360.527C1247.43 360.368 1246.4 360.183 1245.37 359.987C1244.91 359.899 1244.46 359.828 1244.01 359.736C1242.45 359.408 1240.9 359.027 1239.38 358.601C1239.12 358.525 1238.86 358.432 1238.59 358.356C1237 357.887 1235.45 357.358 1233.94 356.785C1233.31 356.545 1232.67 356.327 1232.06 356.071L1172.28 330.967C1170.18 330.089 1168.24 329.124 1166.45 328.093C1157.16 322.727 1152.17 315.489 1152.2 308.127L1152 376.97C1151.98 384.338 1156.97 391.575 1166.26 396.936C1168.04 397.967 1169.99 398.926 1172.08 399.81L1231.87 424.914C1232.25 425.077 1232.63 425.23 1233.03 425.388C1233.26 425.481 1233.51 425.541 1233.74 425.628C1235.26 426.206 1236.81 426.735 1238.4 427.204C1238.58 427.259 1238.75 427.335 1238.94 427.39C1239.02 427.411 1239.11 427.428 1239.18 427.45C1240.7 427.88 1242.25 428.257 1243.82 428.584C1243.89 428.6 1243.97 428.622 1244.05 428.638C1244.42 428.715 1244.8 428.764 1245.17 428.835C1246.21 429.031 1247.24 429.217 1248.28 429.375C1248.46 429.402 1248.64 429.44 1248.82 429.467C1249.23 429.527 1249.65 429.555 1250.05 429.604C1250.94 429.718 1251.84 429.822 1252.73 429.904C1252.99 429.931 1253.26 429.969 1253.52 429.991C1253.87 430.018 1254.24 430.024 1254.59 430.051C1255.48 430.111 1256.37 430.16 1257.27 430.193C1257.6 430.204 1257.93 430.236 1258.27 430.247C1258.54 430.253 1258.83 430.242 1259.11 430.242C1260.09 430.258 1261.07 430.247 1262.06 430.226C1262.44 430.22 1262.83 430.231 1263.22 430.22C1263.39 430.215 1263.55 430.193 1263.73 430.187C1265.29 430.122 1266.84 430.029 1268.38 429.877C1268.45 429.871 1268.51 429.871 1268.57 429.866L1268.59 429.86C1270.45 429.675 1272.27 429.407 1274.08 429.097C1274.31 429.058 1274.54 429.042 1274.76 429.004C1275.06 428.949 1275.35 428.873 1275.65 428.813C1276.53 428.644 1277.4 428.453 1278.27 428.257C1278.84 428.126 1279.4 427.995 1279.97 427.853C1280.86 427.624 1281.73 427.368 1282.61 427.106C1282.98 426.991 1283.37 426.904 1283.74 426.784C1283.84 426.752 1283.94 426.708 1284.03 426.675C1285.79 426.102 1287.48 425.454 1289.12 424.75C1289.47 424.597 1289.81 424.439 1290.16 424.281C1291.82 423.523 1293.43 422.716 1294.94 421.816L1383.45 369.149C1383.53 369.1 1383.62 369.051 1383.7 368.996C1384.14 368.729 1384.52 368.445 1384.93 368.173C1385.57 367.758 1386.23 367.344 1386.82 366.913C1387.26 366.586 1387.64 366.247 1388.06 365.915C1388.59 365.489 1389.14 365.064 1389.62 364.628C1389.67 364.579 1389.74 364.53 1389.79 364.48C1389.95 364.339 1390.05 364.181 1390.21 364.039C1391.01 363.264 1391.74 362.479 1392.41 361.672C1392.53 361.525 1392.69 361.388 1392.81 361.246C1392.95 361.066 1393.04 360.876 1393.18 360.696C1393.59 360.145 1393.96 359.588 1394.3 359.027C1394.44 358.809 1394.62 358.596 1394.74 358.372C1394.83 358.23 1394.87 358.089 1394.95 357.947C1395.21 357.445 1395.44 356.938 1395.65 356.431C1395.77 356.158 1395.93 355.896 1396.03 355.624C1396.07 355.509 1396.09 355.389 1396.13 355.275C1396.3 354.789 1396.42 354.298 1396.55 353.807C1396.62 353.502 1396.75 353.208 1396.81 352.902C1396.83 352.809 1396.83 352.711 1396.84 352.619C1396.94 352.09 1396.98 351.566 1397.02 351.037C1397.05 350.732 1397.12 350.426 1397.13 350.121C1397.13 349.979 1397.13 349.837 1397.13 349.695L1397.33 280.853C1397.33 281.305 1397.26 281.752 1397.22 282.2Z" fill="#00A224"/>
<path d="M1383.11 260.908C1401.55 271.554 1402.39 289.148 1383.65 300.306L1295.15 352.973C1278.42 362.948 1251.56 364.251 1232.08 356.071L1172.29 330.967C1170.19 330.089 1168.25 329.124 1166.47 328.093C1151.67 319.547 1147.79 306.245 1157.69 295.25L1216.33 230.045C1229.97 214.878 1263.67 210.303 1287.64 220.365L1377.24 258.007C1379.36 258.901 1381.32 259.872 1383.11 260.908Z" fill="#68D880"/>
<path d="M1383.65 300.306L1295.14 352.973C1278.42 362.948 1251.56 364.251 1232.07 356.071L1172.29 330.967C1170.19 330.089 1168.25 329.124 1166.47 328.093C1159.3 323.954 1154.72 318.691 1152.99 313.122C1150.22 322.083 1155.12 331.425 1166.47 337.975C1168.25 339.006 1170.19 339.966 1172.29 340.849L1232.07 365.953C1251.56 374.134 1278.42 372.83 1295.14 362.855L1383.65 310.188C1395 303.437 1399.12 294.323 1396.55 285.815C1394.91 291.078 1390.64 296.139 1383.65 300.306Z" fill="white"/>
<path d="M1264.67 343.167C1257.24 343.167 1249.76 341.831 1243.28 339.11L1200.66 321.216C1199.05 320.54 1197.56 319.803 1196.2 319.018C1189.75 315.293 1185.72 310.216 1184.85 304.713C1184.11 300.05 1185.64 295.452 1189.27 291.417L1231.08 244.934C1241.59 233.236 1266.8 229.691 1285 237.343L1348.89 264.175C1350.51 264.862 1352.01 265.604 1353.38 266.389L1353.39 266.395C1360.76 270.654 1364.85 276.506 1364.88 282.86C1364.92 289.11 1360.99 294.912 1353.8 299.188L1290.7 336.743C1283.56 340.98 1274.15 343.167 1264.67 343.167ZM1263.6 238.733C1252.06 238.733 1240.81 242.24 1235.13 248.566L1193.32 295.054C1190.82 297.83 1189.76 300.868 1190.23 303.851C1190.84 307.696 1193.93 311.405 1198.92 314.29C1200.1 314.971 1201.39 315.599 1202.77 316.182L1245.38 334.076C1258.46 339.568 1276.73 338.695 1287.9 332.042L1351 294.487C1356.46 291.237 1359.44 287.119 1359.42 282.881C1359.39 278.54 1356.28 274.357 1350.66 271.107C1349.47 270.425 1348.16 269.782 1346.76 269.187L1282.88 242.355C1277.02 239.9 1270.26 238.733 1263.6 238.733Z" fill="#00A123"/>
<path d="M1288.61 392.934L1281.91 397.027V388.836L1288.61 384.743V392.934Z" fill="white"/>
<path d="M1304.24 384.001L1297.54 388.094V379.902L1304.24 375.81V384.001Z" fill="white"/>
<path d="M1318.76 376.183L1312.06 380.276V372.085L1318.76 367.992V376.183Z" fill="white"/>
<path d="M1332.16 368.366L1325.46 372.459V364.268L1332.16 360.175V368.366Z" fill="white"/>
<path d="M1345.56 360.549L1338.86 364.641V356.45L1345.56 352.357V360.549Z" fill="white"/>
<path d="M1357.84 353.848L1351.14 357.941V349.75L1357.84 345.657V353.848Z" fill="white"/>
<path d="M1607.22 67.1997C1607.18 67.7287 1607.13 68.2522 1607.04 68.7812C1606.97 69.1793 1606.85 69.572 1606.75 69.9702C1606.62 70.461 1606.5 70.9518 1606.33 71.4372C1606.19 71.8244 1606.02 72.2062 1605.85 72.5934C1605.63 73.1006 1605.41 73.6078 1605.14 74.1041C1604.94 74.4695 1604.72 74.824 1604.5 75.1839C1604.15 75.7456 1603.78 76.3019 1603.37 76.8528C1603.13 77.18 1602.87 77.5072 1602.61 77.829C1601.95 78.6307 1601.21 79.4215 1600.4 80.1959C1600.2 80.3923 1600.03 80.5941 1599.81 80.785C1599.33 81.2267 1598.78 81.6521 1598.25 82.0775C1597.84 82.4102 1597.46 82.7484 1597.02 83.0701C1596.43 83.5064 1595.76 83.9209 1595.12 84.3354C1594.62 84.6571 1594.17 84.9898 1593.64 85.3061L1505.13 137.973C1503.62 138.873 1502.01 139.68 1500.35 140.438C1500 140.596 1499.67 140.754 1499.31 140.907C1497.67 141.616 1495.98 142.26 1494.22 142.832C1493.76 142.985 1493.27 143.121 1492.8 143.263C1491.92 143.525 1491.05 143.781 1490.16 144.01C1489.6 144.152 1489.03 144.283 1488.46 144.414C1487.59 144.616 1486.73 144.801 1485.84 144.97C1485.32 145.068 1484.8 145.167 1484.27 145.254C1482.46 145.565 1480.64 145.832 1478.79 146.017C1478.71 146.028 1478.63 146.028 1478.54 146.034C1477.01 146.181 1475.47 146.279 1473.92 146.345C1473.36 146.366 1472.8 146.372 1472.25 146.383C1471.26 146.405 1470.28 146.41 1469.3 146.399C1468.69 146.388 1468.06 146.372 1467.45 146.35C1466.56 146.317 1465.68 146.268 1464.79 146.208C1464.17 146.165 1463.54 146.121 1462.92 146.061C1462.02 145.979 1461.13 145.876 1460.25 145.761C1459.66 145.685 1459.07 145.614 1458.47 145.527C1457.43 145.368 1456.4 145.183 1455.37 144.987C1454.91 144.899 1454.46 144.828 1454.01 144.736C1452.45 144.408 1450.9 144.027 1449.38 143.601C1449.12 143.525 1448.86 143.432 1448.59 143.356C1447 142.887 1445.45 142.358 1443.94 141.785C1443.31 141.545 1442.67 141.327 1442.06 141.071L1382.28 115.967C1380.18 115.089 1378.24 114.124 1376.45 113.093C1367.16 107.727 1362.17 100.489 1362.2 93.1268L1362 161.97C1361.98 169.338 1366.97 176.575 1376.26 181.936C1378.04 182.967 1379.99 183.926 1382.08 184.81L1441.87 209.914C1442.25 210.077 1442.63 210.23 1443.03 210.388C1443.26 210.481 1443.51 210.541 1443.74 210.628C1445.26 211.206 1446.81 211.735 1448.4 212.204C1448.58 212.259 1448.75 212.335 1448.94 212.39C1449.02 212.411 1449.11 212.428 1449.18 212.45C1450.7 212.88 1452.25 213.257 1453.82 213.584C1453.89 213.6 1453.97 213.622 1454.05 213.638C1454.42 213.715 1454.8 213.764 1455.17 213.835C1456.21 214.031 1457.24 214.217 1458.28 214.375C1458.46 214.402 1458.64 214.44 1458.82 214.467C1459.23 214.527 1459.65 214.555 1460.05 214.604C1460.94 214.718 1461.84 214.822 1462.73 214.904C1462.99 214.931 1463.26 214.969 1463.52 214.991C1463.87 215.018 1464.24 215.024 1464.59 215.051C1465.48 215.111 1466.37 215.16 1467.27 215.193C1467.6 215.204 1467.93 215.236 1468.27 215.247C1468.54 215.253 1468.83 215.242 1469.11 215.242C1470.09 215.258 1471.07 215.247 1472.06 215.226C1472.44 215.22 1472.83 215.231 1473.22 215.22C1473.39 215.215 1473.55 215.193 1473.73 215.187C1475.29 215.122 1476.84 215.029 1478.38 214.877C1478.45 214.871 1478.51 214.871 1478.57 214.866L1478.59 214.86C1480.45 214.675 1482.27 214.407 1484.08 214.097C1484.31 214.058 1484.54 214.042 1484.76 214.004C1485.06 213.949 1485.35 213.873 1485.65 213.813C1486.53 213.644 1487.4 213.453 1488.27 213.257C1488.84 213.126 1489.4 212.995 1489.97 212.853C1490.86 212.624 1491.73 212.368 1492.61 212.106C1492.98 211.991 1493.37 211.904 1493.74 211.784C1493.84 211.752 1493.94 211.708 1494.03 211.675C1495.79 211.102 1497.48 210.454 1499.12 209.75C1499.47 209.597 1499.81 209.439 1500.16 209.281C1501.82 208.523 1503.43 207.716 1504.94 206.816L1593.45 154.149C1593.53 154.1 1593.62 154.051 1593.7 153.996C1594.14 153.729 1594.52 153.445 1594.93 153.173C1595.57 152.758 1596.23 152.344 1596.82 151.913C1597.26 151.586 1597.64 151.247 1598.06 150.915C1598.59 150.489 1599.14 150.064 1599.62 149.628C1599.67 149.579 1599.74 149.53 1599.79 149.48C1599.95 149.339 1600.05 149.181 1600.21 149.039C1601.01 148.264 1601.74 147.479 1602.41 146.672C1602.53 146.525 1602.69 146.388 1602.81 146.246C1602.95 146.066 1603.04 145.876 1603.18 145.696C1603.59 145.145 1603.96 144.588 1604.3 144.027C1604.44 143.809 1604.62 143.596 1604.74 143.372C1604.83 143.23 1604.87 143.089 1604.95 142.947C1605.21 142.445 1605.44 141.938 1605.65 141.431C1605.77 141.158 1605.93 140.896 1606.03 140.624C1606.07 140.509 1606.09 140.389 1606.13 140.275C1606.3 139.789 1606.42 139.298 1606.55 138.807C1606.62 138.502 1606.75 138.208 1606.81 137.902C1606.83 137.809 1606.83 137.711 1606.84 137.619C1606.94 137.09 1606.98 136.566 1607.02 136.037C1607.05 135.732 1607.12 135.426 1607.13 135.121C1607.13 134.979 1607.13 134.837 1607.13 134.695L1607.33 65.8525C1607.33 66.3052 1607.26 66.7525 1607.22 67.1997Z" fill="#F96746"/>
<path d="M1593.11 45.9081C1611.55 56.5538 1612.39 74.1476 1593.65 85.306L1505.15 137.973C1488.42 147.948 1461.56 149.251 1442.08 141.071L1382.29 115.967C1380.19 115.089 1378.25 114.124 1376.47 113.093C1361.67 104.547 1357.79 91.2451 1367.69 80.2504L1426.33 15.0453C1439.97 -0.121625 1473.67 -4.6973 1497.64 5.36489L1587.24 43.0067C1589.36 43.9011 1591.32 44.8719 1593.11 45.9081Z" fill="#FFAE9C"/>
<path d="M1593.65 85.306L1505.14 137.973C1488.42 147.948 1461.56 149.251 1442.07 141.071L1382.29 115.967C1380.19 115.089 1378.25 114.124 1376.47 113.093C1369.3 108.954 1364.72 103.691 1362.99 98.1224C1360.22 107.083 1365.12 116.425 1376.47 122.975C1378.25 124.006 1380.19 124.966 1382.29 125.849L1442.07 150.953C1461.56 159.134 1488.42 157.83 1505.14 147.855L1593.65 95.1883C1605 88.4366 1609.12 79.3233 1606.55 70.8154C1604.91 76.0783 1600.64 81.1394 1593.65 85.306Z" fill="white"/>
<path d="M1474.67 128.167C1467.24 128.167 1459.76 126.831 1453.28 124.11L1410.66 106.216C1409.05 105.54 1407.56 104.803 1406.2 104.018C1399.75 100.293 1395.72 95.2157 1394.85 89.7128C1394.11 85.0499 1395.64 80.4524 1399.27 76.4166L1441.08 29.9342C1451.59 18.2359 1476.8 14.6909 1495 22.3426L1558.89 49.175C1560.51 49.8622 1562.01 50.604 1563.38 51.3893L1563.39 51.3947C1570.76 55.6541 1574.85 61.506 1574.88 67.8597C1574.92 74.1097 1570.99 79.9124 1563.8 84.1882L1500.7 121.743C1493.56 125.98 1484.15 128.167 1474.67 128.167ZM1473.6 23.7333C1462.06 23.7333 1450.81 27.24 1445.13 33.5664L1403.32 80.0542C1400.82 82.8302 1399.76 85.868 1400.23 88.8512C1400.84 92.6961 1403.93 96.4046 1408.92 99.2897C1410.1 99.9714 1411.39 100.599 1412.77 101.182L1455.38 119.076C1468.46 124.568 1486.73 123.695 1497.9 117.042L1561 79.487C1566.46 76.2366 1569.44 72.119 1569.42 67.8815C1569.39 63.5403 1566.28 59.3573 1560.66 56.1068C1559.47 55.4251 1558.16 54.7815 1556.76 54.1871L1492.88 27.3546C1487.02 24.9004 1480.26 23.7333 1473.6 23.7333Z" fill="#F96746"/>
<path d="M1502.71 177.934L1496.01 182.027V173.836L1502.71 169.743V177.934Z" fill="white"/>
<path d="M1518.34 169.001L1511.64 173.094V164.902L1518.34 160.81V169.001Z" fill="white"/>
<path d="M1532.86 161.183L1526.16 165.276V157.085L1532.86 152.992V161.183Z" fill="white"/>
<path d="M1546.26 153.366L1539.56 157.459V149.268L1546.26 145.175V153.366Z" fill="white"/>
<path d="M1559.66 145.549L1552.96 149.641V141.45L1559.66 137.357V145.549Z" fill="white"/>
<path d="M1571.94 138.848L1565.24 142.941V134.75L1571.94 130.657V138.848Z" fill="white"/>
<path d="M1584.23 132.148L1577.53 136.241V128.05L1584.23 123.957V132.148Z" fill="white"/>
</svg>
