<svg width="364" height="270" viewBox="0 0 364 270" fill="none" xmlns="http://www.w3.org/2000/svg">
<path fill-rule="evenodd" clip-rule="evenodd" d="M42.683 12.0485C33.8834 6.75099 22.8522 3.22652 14.9899 9.83578C5.82489 17.5402 0 29.0899 0 42L0 228C0 251.196 18.804 270 42 270H322C345.196 270 364 251.196 364 228V42C364 18.804 345.196 0 322 0L208.562 0C200.906 0 193.745 3.35976 187.62 7.95416C175.593 16.9752 160.65 22.3197 144.459 22.3197L79.7653 22.3197C66.2017 22.3197 53.5141 18.5691 42.683 12.0485Z" fill="#00FF38"/>
</svg>
