<svg width="44" height="44" viewBox="0 0 44 44" fill="none" xmlns="http://www.w3.org/2000/svg">
<path d="M22 0C19.1109 0 16.2501 0.583175 13.581 1.71623C10.9118 2.84928 8.48654 4.51002 6.44365 6.60363C2.31785 10.8319 0 16.5666 0 22.5462C0 32.5116 6.314 40.9664 15.048 43.9651C16.148 44.1454 16.5 43.4465 16.5 42.8378V39.0275C10.406 40.3802 9.108 36.0063 9.108 36.0063C8.096 33.3909 6.666 32.692 6.666 32.692C4.664 31.2941 6.82 31.3392 6.82 31.3392C9.02 31.497 10.186 33.6615 10.186 33.6615C12.1 37.0885 15.334 36.0739 16.588 35.5328C16.786 34.0673 17.358 33.0753 17.974 32.5116C13.09 31.948 7.964 30.009 7.964 21.4189C7.964 18.9163 8.8 16.9096 10.23 15.3089C10.01 14.7452 9.24 12.4004 10.45 9.35667C10.45 9.35667 12.298 8.74792 16.5 11.6564C18.238 11.1604 20.13 10.9124 22 10.9124C23.87 10.9124 25.762 11.1604 27.5 11.6564C31.702 8.74792 33.55 9.35667 33.55 9.35667C34.76 12.4004 33.99 14.7452 33.77 15.3089C35.2 16.9096 36.036 18.9163 36.036 21.4189C36.036 30.0315 30.888 31.9254 25.982 32.4891C26.774 33.188 27.5 34.5633 27.5 36.6601V42.8378C27.5 43.4465 27.852 44.168 28.974 43.9651C37.708 40.9439 44 32.5116 44 22.5462C44 19.5854 43.431 16.6536 42.3254 13.9181C41.2197 11.1827 39.5992 8.69724 37.5564 6.60363C35.5135 4.51002 33.0882 2.84928 30.419 1.71623C27.7499 0.583175 24.8891 0 22 0Z" fill="white" fill-opacity="0.29"/>
</svg>
