<svg width="245" height="52" viewBox="0 0 245 52" fill="none" xmlns="http://www.w3.org/2000/svg">
<path fill-rule="evenodd" clip-rule="evenodd" d="M225.568 38.9992V22.6481L240.004 38.0871C240.272 38.3745 240.605 38.6051 240.98 38.7626C241.356 38.9202 241.764 39.0008 242.177 38.9992C242.51 38.9957 242.84 38.9378 243.151 38.8282C243.703 38.6508 244.176 38.3147 244.5 37.8704C244.834 37.4369 245.009 36.918 245 36.3881V13.0015H239.317V29.3414L224.869 13.9023C224.486 13.5008 223.98 13.2149 223.415 13.0825C222.851 12.9501 222.256 12.9776 221.709 13.1612C221.167 13.3482 220.701 13.6825 220.373 14.119C220.031 14.5497 219.852 15.0697 219.861 15.6013V38.9992H225.568ZM163.04 27.5396C164.332 28.249 165.816 28.6162 167.323 28.6001H176.29C176.664 28.5943 177.036 28.6591 177.382 28.7905C177.729 28.922 178.041 29.1172 178.3 29.3641C178.693 29.7282 178.96 30.19 179.067 30.6917C179.174 31.1934 179.117 31.7128 178.902 32.1849C178.687 32.657 178.325 33.0609 177.861 33.3461C177.396 33.6312 176.85 33.7851 176.29 33.7883H159.206V38.9992H176.352C177.86 39.0152 179.343 38.6481 180.636 37.9388C181.91 37.2518 182.975 36.2833 183.733 35.1224C184.493 33.9317 184.894 32.5781 184.894 31.1999C184.894 29.8217 184.493 28.4681 183.733 27.2774C182.98 26.1101 181.914 25.137 180.636 24.4496C179.343 23.7402 177.86 23.3731 176.352 23.3892H167.323C166.934 23.4127 166.545 23.3631 166.177 23.2434C165.81 23.1237 165.474 22.9365 165.189 22.6933C164.905 22.4501 164.678 22.1561 164.522 21.8296C164.368 21.5031 164.288 21.151 164.288 20.7951C164.288 20.4392 164.368 20.0871 164.522 19.7606C164.678 19.434 164.905 19.1401 165.189 18.8969C165.474 18.6537 165.81 18.4665 166.177 18.3468C166.545 18.2271 166.934 18.1775 167.323 18.201H183.933V13.0015H167.323C165.816 12.9819 164.334 13.3452 163.04 14.0505C161.761 14.7379 160.696 15.711 159.943 16.8784C159.182 18.069 158.782 19.4226 158.782 20.8008C158.782 22.1791 159.182 23.5326 159.943 24.7232C160.697 25.8864 161.763 26.8555 163.04 27.5396ZM101.86 38.9996C101.101 38.9996 100.374 38.7243 99.8377 38.2346C99.3014 37.7449 99 37.0808 99 36.3883V15.6015C99.0034 14.9109 99.306 14.2497 99.8419 13.7625C100.378 13.2752 101.104 13.0017 101.86 13.0017H115.135C116.645 12.9836 118.132 13.3466 119.431 14.0508C120.712 14.7353 121.778 15.7091 122.528 16.8786C123.305 18.0587 123.707 19.4128 123.689 20.7896C123.707 22.7182 122.921 24.5809 121.491 26.0006C122.19 26.6872 122.741 27.4879 123.115 28.3609C123.503 29.2652 123.698 30.2289 123.689 31.2001C123.705 32.5802 123.303 33.9375 122.528 35.1226C121.773 36.2857 120.708 37.2548 119.431 37.939C118.133 38.6465 116.646 39.0133 115.135 38.9996H101.86ZM104.707 18.2013V23.3894H115.135C115.509 23.3954 115.879 23.3317 116.225 23.2023C116.571 23.0729 116.884 22.8805 117.145 22.6368C117.411 22.3953 117.622 22.1083 117.765 21.7923C117.909 21.4763 117.983 21.1375 117.983 20.7953C117.983 20.4532 117.909 20.1144 117.765 19.7984C117.622 19.4823 117.411 19.1953 117.145 18.9538C116.884 18.7101 116.571 18.5177 116.225 18.3883C115.879 18.259 115.509 18.1953 115.135 18.2013H104.707ZM104.707 28.6003V33.7885H115.135C115.509 33.7945 115.879 33.7308 116.225 33.6014C116.571 33.472 116.884 33.2796 117.145 33.0359C117.542 32.6724 117.813 32.2095 117.922 31.7059C118.032 31.2023 117.975 30.6803 117.76 30.2059C117.545 29.7315 117.181 29.3258 116.714 29.0401C116.247 28.7544 115.697 28.6014 115.135 28.6003H104.707ZM136.216 38.9996C134.704 39.0137 133.218 38.6467 131.92 37.9392C130.652 37.2488 129.591 36.2809 128.835 35.1227C128.06 33.9377 127.659 32.5804 127.674 31.2003V20.7898C127.656 19.413 128.059 18.0589 128.835 16.8788C129.587 15.715 130.648 14.7426 131.92 14.0509C133.219 13.3468 134.705 12.9838 136.216 13.0019H146.206C147.717 12.9838 149.203 13.3468 150.502 14.0509C151.783 14.7355 152.85 15.7093 153.599 16.8788C154.376 18.0589 154.778 19.413 154.761 20.7898V31.1547C154.776 32.5348 154.374 33.8921 153.599 35.0771C152.845 36.2403 151.779 37.2094 150.502 37.8935C149.204 38.6011 147.718 38.968 146.206 38.954L136.216 38.9996ZM133.381 20.7556V31.1547C133.378 31.4954 133.449 31.8334 133.59 32.1488C133.731 32.4642 133.94 32.7507 134.204 32.9917C134.468 33.2327 134.782 33.4232 135.127 33.5522C135.472 33.6812 135.842 33.7461 136.216 33.743H146.206C146.58 33.749 146.951 33.6853 147.296 33.556C147.642 33.4266 147.956 33.2341 148.217 32.9905C148.488 32.7539 148.702 32.4687 148.846 32.1527C148.99 31.8367 149.061 31.4969 149.054 31.1547V20.7442C149.054 20.4033 148.98 20.0658 148.837 19.751C148.693 19.4362 148.483 19.1504 148.219 18.9099C147.954 18.6694 147.641 18.479 147.295 18.3496C146.95 18.2202 146.579 18.1543 146.206 18.1558H136.216C135.842 18.1528 135.472 18.2176 135.127 18.3467C134.782 18.4756 134.468 18.6662 134.204 18.9071C133.94 19.1481 133.731 19.4347 133.59 19.7501C133.449 20.0655 133.378 20.4034 133.381 20.7442V20.7556ZM197.293 38.9992C195.786 39.0137 194.303 38.6467 193.01 37.939C191.738 37.249 190.673 36.2812 189.913 35.1225C189.147 33.9345 188.75 32.5786 188.764 31.2001V20.7896C188.748 19.4146 189.145 18.0619 189.913 16.8786C190.67 15.7143 191.735 14.742 193.01 14.0508C194.304 13.3465 195.787 12.9833 197.293 13.0017H207.284C208.794 12.9848 210.28 13.3477 211.58 14.0508C212.855 14.742 213.92 15.7143 214.677 16.8786C215.454 18.0587 215.856 19.4128 215.838 20.7896V31.1545C215.853 32.5346 215.452 33.8919 214.677 35.0769C213.916 36.2355 212.852 37.2033 211.58 37.8934C210.281 38.5998 208.795 38.9665 207.284 38.954L197.293 38.9992ZM194.459 20.7554V31.1545C194.454 31.4963 194.526 31.8353 194.67 32.1509C194.814 32.4665 195.027 32.7521 195.295 32.9903C195.554 33.2341 195.865 33.4268 196.208 33.5563C196.552 33.6858 196.922 33.7493 197.293 33.7428H207.284C207.657 33.7468 208.027 33.6823 208.373 33.553C208.718 33.4237 209.032 33.2324 209.294 32.9903C209.565 32.7537 209.78 32.4685 209.924 32.1525C210.068 31.8365 210.138 31.4967 210.131 31.1545V20.744C210.137 20.4019 210.067 20.0623 209.922 19.7464C209.778 19.4305 209.565 19.1452 209.294 18.9082C209.032 18.6661 208.718 18.4747 208.373 18.3455C208.027 18.2162 207.657 18.1516 207.284 18.1557H197.293C196.922 18.1492 196.552 18.2127 196.208 18.3421C195.865 18.4716 195.554 18.6643 195.295 18.9082C195.03 19.156 194.823 19.4508 194.688 19.7744C194.553 20.098 194.492 20.4436 194.508 20.7896L194.459 20.7554Z" fill="white"/>
<path d="M12.0538 11.0286C15.0754 10.9608 18.0656 11.6064 20.7382 12.9036C23.4109 14.2009 25.6767 16.1064 27.3192 18.4381C27.8567 17.8577 28.3405 17.2897 28.878 16.7586C29.722 15.9983 30.7329 15.4126 31.8433 15.0407C32.9537 14.6688 34.1379 14.5194 35.3163 14.6024C36.4947 14.6854 37.6401 14.999 38.6758 15.5221C39.7115 16.0452 40.6136 16.7658 41.3215 17.6354C42.9861 20.0472 44.3392 22.6291 45.3529 25.3289C46.1028 27.1703 47.0013 28.9576 48.0404 30.6761C48.2175 31.0307 48.5013 31.3313 48.8585 31.5421C49.216 31.7528 49.6316 31.8648 50.056 31.8648C50.4805 31.8648 50.8961 31.7528 51.2537 31.5421C51.6108 31.3313 51.895 31.0307 52.0717 30.6761C52.9431 29.2278 53.5387 27.6532 53.8323 26.0204C54.2118 23.6929 55.0206 21.4419 56.2241 19.3643C57.9207 16.6104 60.4447 14.3639 63.494 12.8934C66.1022 11.5938 69.0342 10.9425 72 11.004V16.1288C64.7975 16.4376 60.3227 21.5995 60.4841 26.2057C60.6451 30.8119 65.0932 35.5663 72 35.7886V40.7283C67.8209 41.5433 60.3765 38.5548 57.0302 33.6522C56.3444 34.7219 55.3772 35.6161 54.2174 36.2526C53.0575 36.8892 51.7421 37.2477 50.392 37.2952C45.4605 37.6286 42.8667 35.3564 41.2812 32.0962C39.8568 29.1694 38.7414 26.1439 37.4648 23.1801C37.1847 22.5192 36.8239 21.8895 36.3898 21.3031C35.2207 19.7965 33.2184 20.0682 31.8612 21.8588C30.6083 23.7003 29.8398 25.7848 29.617 27.9469C29.0348 31.1887 27.2667 34.1509 24.6047 36.3443C22.2155 38.4726 19.2202 39.9368 15.9643 40.5679C14.728 40.8022 13.4244 40.8518 12.0269 41V35.7145C13.5747 35.7591 15.1157 35.5076 16.5522 34.9761C17.9887 34.4447 19.2895 33.6449 20.3719 32.6272C21.5369 31.6592 22.4328 30.4489 22.9846 29.0975C23.5363 27.7461 23.7279 26.293 23.5432 24.8596C22.9788 20.945 19.0146 16.4129 12 16.0794L12.0538 11.0286Z" fill="#02F3A2"/>
<path d="M79.1252 5.34686V46.6407H5.87477V5.34686H79.1252ZM85 0H0V52H85V0Z" fill="#02F3A2"/>
<path d="M79.1252 5.34686V46.6403H5.87477V5.34686H79.1252ZM85 0H0V52H85V0Z" fill="#02F3A2"/>
</svg>
