<svg width="241" height="75" viewBox="0 0 241 75" fill="none" xmlns="http://www.w3.org/2000/svg">
<path fill-rule="evenodd" clip-rule="evenodd" d="M56.4007 2.37773C57.7743 2.53916 58.6447 3.95156 58.1857 5.27401L51.4692 24.6252C50.8696 26.353 48.5655 26.6111 47.6082 25.0578L46.1748 22.7319L20.254 39.1544L17.5881 34.8287C13.3302 27.9198 15.4024 18.8192 22.2165 14.502L35.7992 5.89644L34.2264 3.34439C33.2692 1.7911 34.5081 -0.195422 36.3025 0.0154862L56.4007 2.37773ZM29.2251 47.2469C19.8604 52.7289 16.6518 64.8702 22.0586 74.3652L48.4331 58.9259C55.3916 54.8524 57.7759 45.8307 53.7583 38.7753L51.2429 34.358L29.2251 47.2469Z" fill="#07C166"/>
<path d="M99.8789 54.8345C96.4055 54.8345 93.492 54.0527 91.1385 52.4893C88.7849 50.9258 87.121 48.7864 86.1475 46.0709L92.0388 42.5901C93.4029 46.1943 96.081 47.9964 100.074 47.9964C102.005 47.9964 103.418 47.6508 104.31 46.9596C105.203 46.2519 105.649 45.355 105.649 44.2688C105.649 43.0344 105.097 42.0717 103.993 41.3805C102.89 40.6893 100.934 39.9323 98.1259 39.1094C96.9089 38.7473 95.8535 38.3935 94.9611 38.0478C94.0679 37.7023 93.1269 37.2415 92.1367 36.6654C91.1623 36.073 90.3669 35.4229 89.7505 34.7152C89.1341 34.0075 88.6227 33.127 88.2162 32.0738C87.8106 31.0205 87.6078 29.8438 87.6078 28.5436C87.6078 26.4042 88.1518 24.5198 89.2391 22.8905C90.3264 21.2612 91.731 20.0434 93.4514 19.2369C95.1718 18.4305 97.0465 18.0273 99.0756 18.0273C101.916 18.0273 104.408 18.7186 106.551 20.101C108.692 21.4834 110.356 23.4336 111.542 25.9516L105.746 29.3336C105.081 27.8853 104.221 26.7662 103.166 25.9763C102.111 25.1863 100.747 24.7914 99.0756 24.7914C97.6638 24.7914 96.5431 25.1287 95.7159 25.8035C94.8879 26.4618 94.4743 27.3094 94.4743 28.3461C94.4743 29.4488 94.9285 30.3457 95.8376 31.0369C96.7626 31.7281 98.5236 32.477 101.12 33.2834C104.107 34.2379 106.234 35.0773 107.499 35.8014C110.291 37.3484 111.923 39.5044 112.393 42.2692C112.491 42.8781 112.54 43.5117 112.54 44.17C112.54 47.4286 111.371 50.0206 109.034 51.9462C106.696 53.8717 103.645 54.8345 99.8789 54.8345ZM130.215 35.1102H124.567V45.6265C124.567 46.4988 124.778 47.1407 125.201 47.552C125.638 47.9635 126.271 48.1939 127.099 48.2432C127.943 48.2762 128.982 48.2598 130.215 48.1939V54.1185C127.213 54.4477 124.827 54.3573 123.058 53.847C121.288 53.3369 120.023 52.4235 119.259 51.1069C118.513 49.7902 118.139 47.9635 118.139 45.6265V35.1102H113.806V28.8399H118.139V23.7298L124.567 21.7549V28.8399H130.215V35.1102ZM152.908 28.8399H159.335V54.1185H152.908V51.1315C150.943 53.6002 148.232 54.8345 144.776 54.8345C141.448 54.8345 138.6 53.5426 136.229 50.9587C133.86 48.3749 132.675 45.2151 132.675 41.4792C132.675 37.7434 133.86 34.5836 136.229 31.9998C138.6 29.4159 141.448 28.124 144.776 28.124C148.232 28.124 150.943 29.3583 152.908 31.8269V28.8399ZM145.969 48.6136C147.981 48.6136 149.637 47.9552 150.935 46.6386C152.25 45.3056 152.908 43.5858 152.908 41.4792C152.908 39.3727 152.25 37.6611 150.935 36.3445C149.637 35.0115 147.981 34.3449 145.969 34.3449C143.972 34.3449 142.324 35.0115 141.026 36.3445C139.743 37.6611 139.102 39.3727 139.102 41.4792C139.102 43.5858 139.743 45.3056 141.026 46.6386C142.324 47.9552 143.972 48.6136 145.969 48.6136ZM184.072 18.7186H190.5V54.1185H184.072V51.1315C182.157 53.6002 179.462 54.8345 175.989 54.8345C174.349 54.8345 172.783 54.4889 171.29 53.7977C169.797 53.1065 168.498 52.1766 167.394 51.0081C166.307 49.8232 165.438 48.3996 164.789 46.7374C164.156 45.0752 163.839 43.3225 163.839 41.4792C163.839 39.636 164.156 37.8833 164.789 36.2211C165.438 34.5589 166.307 33.1436 167.394 31.975C168.498 30.7901 169.797 29.852 171.29 29.1608C172.783 28.4696 174.349 28.124 175.989 28.124C179.462 28.124 182.157 29.3583 184.072 31.8269V18.7186ZM177.182 48.6136C179.178 48.6136 180.825 47.9552 182.124 46.6386C183.422 45.3056 184.072 43.5858 184.072 41.4792C184.072 39.3727 183.422 37.6611 182.124 36.3445C180.825 35.0115 179.178 34.3449 177.182 34.3449C175.169 34.3449 173.514 35.0115 172.215 36.3445C170.917 37.6611 170.267 39.3727 170.267 41.4792C170.267 43.5858 170.917 45.3056 172.215 46.6386C173.514 47.9552 175.169 48.6136 177.182 48.6136ZM201.821 44.17C202.259 45.7664 203.095 46.9596 204.329 47.7495C205.578 48.5231 207.088 48.9098 208.858 48.9098C210.059 48.9098 211.146 48.6794 212.12 48.2186C213.094 47.7577 213.865 47.1489 214.433 46.3918L219.619 49.4282C218.434 51.1727 216.917 52.514 215.066 53.4521C213.232 54.3737 211.13 54.8345 208.76 54.8345C206.715 54.8345 204.832 54.4971 203.111 53.8223C201.391 53.1311 199.946 52.1848 198.778 50.9835C197.609 49.782 196.7 48.3667 196.051 46.7374C195.418 45.1082 195.101 43.3554 195.101 41.4792C195.101 37.6611 196.327 34.4848 198.778 31.9503C201.229 29.3994 204.385 28.124 208.249 28.124C210.651 28.124 212.818 28.7247 214.75 29.9261C216.697 31.1111 218.199 32.7239 219.254 34.7646C220.325 36.7889 220.861 39.0271 220.861 41.4792C220.861 42.3186 220.78 43.2155 220.618 44.17H201.821ZM201.724 39.1094H214.433C214.06 37.3977 213.297 36.1223 212.144 35.283C211.009 34.4272 209.71 33.9993 208.249 33.9993C206.545 33.9993 205.124 34.4436 203.988 35.3323C202.852 36.2211 202.097 37.4801 201.724 39.1094ZM231.793 33.1847C232.41 31.5554 233.399 30.3457 234.763 29.5558C236.143 28.7494 237.677 28.3461 239.365 28.3461V35.6039C238.488 35.5052 237.62 35.5463 236.76 35.7273C235.916 35.8919 235.112 36.2128 234.349 36.6901C233.586 37.1509 232.97 37.8421 232.499 38.7637C232.028 39.6854 231.793 40.7798 231.793 42.047V54.1185H225.365V28.8399H231.793V33.1847Z" fill="white"/>
</svg>
