<svg width="313" height="64" viewBox="0 0 313 64" fill="none" xmlns="http://www.w3.org/2000/svg">
<g clip-path="url(#clip0_354_161)">
<path d="M45.3969 33.344C44.2688 31.936 42.7539 31.232 40.9167 31.232C40.2721 31.232 39.6275 31.392 39.0151 31.68C38.4027 32 38.0804 32.512 38.0804 33.28C38.0804 33.888 38.4027 34.336 39.0473 34.624C39.692 34.912 40.4977 35.168 41.4647 35.392C42.4316 35.616 43.4953 35.84 44.6234 36.096C45.7515 36.352 46.7829 36.768 47.7821 37.312C48.749 37.856 49.587 38.592 50.1994 39.552C50.844 40.48 51.1664 41.76 51.1664 43.328C51.1664 44.928 50.8118 46.272 50.1027 47.296C49.3936 48.352 48.4911 49.184 47.3953 49.792C46.2994 50.432 45.0424 50.88 43.6887 51.136C42.3027 51.392 40.949 51.52 39.5953 51.52C37.8548 51.52 36.082 51.264 34.2771 50.784C32.4721 50.304 30.9894 49.408 29.7324 48.16L34.4382 42.976C35.1473 43.872 35.9531 44.544 36.8233 44.992C37.6936 45.44 38.725 45.696 39.8853 45.696C40.7878 45.696 41.5936 45.568 42.3027 45.312C43.0118 45.056 43.3986 44.576 43.3986 43.904C43.3986 43.264 43.0763 42.784 42.4316 42.432C41.787 42.112 40.9812 41.824 40.0143 41.6C39.0473 41.376 37.9837 41.152 36.8556 40.896C35.7275 40.64 34.6961 40.256 33.6969 39.744C32.73 39.232 31.8919 38.496 31.2795 37.568C30.6349 36.64 30.3126 35.36 30.3126 33.792C30.3126 32.32 30.6027 31.072 31.2151 29.984C31.8275 28.928 32.601 28.064 33.6002 27.36C34.5671 26.688 35.6952 26.176 36.9845 25.856C38.2415 25.536 39.563 25.376 40.8523 25.376C42.4961 25.376 44.1721 25.6 45.8482 26.08C47.5242 26.56 48.9746 27.424 50.135 28.64L45.3969 33.344Z" fill="#2863C5"/>
<path d="M54.6475 26.0162H62.0929V29.4082H62.1896C62.4153 28.9282 62.7698 28.4482 63.221 27.9682C63.6723 27.4882 64.188 27.0722 64.8326 26.6882C65.445 26.3042 66.1541 26.0162 66.9599 25.7602C67.7657 25.5362 68.6037 25.4082 69.5384 25.4082C71.2789 25.4082 72.8583 25.7602 74.212 26.4962C75.5657 27.2002 76.5971 28.3522 77.274 29.8882C78.1764 28.2882 79.2401 27.1362 80.5294 26.4642C81.7864 25.7922 83.3657 25.4402 85.2351 25.4402C86.9112 25.4402 88.3294 25.7282 89.4897 26.2722C90.65 26.8482 91.5525 27.6162 92.2294 28.5762C92.9062 29.5362 93.3897 30.6882 93.6798 32.0002C93.9699 33.3122 94.131 34.7202 94.131 36.2242V50.9442H86.3955V36.4482C86.3955 35.2962 86.1376 34.2722 85.6542 33.4402C85.1707 32.6082 84.2682 32.1922 83.0112 32.1922C82.1087 32.1922 81.3674 32.3522 80.755 32.6402C80.1426 32.9282 79.6591 33.3442 79.3046 33.8562C78.95 34.3682 78.6922 34.9762 78.531 35.6482C78.3698 36.3202 78.3054 37.0562 78.3054 37.7922V50.9762H70.5698V37.7602C70.5698 37.3122 70.5376 36.7682 70.5054 36.1282C70.4731 35.4882 70.3442 34.8802 70.1508 34.2722C69.9574 33.6962 69.6029 33.1842 69.1516 32.8002C68.7004 32.3842 68.0235 32.1922 67.121 32.1922C66.1219 32.1922 65.3161 32.3842 64.7037 32.7362C64.0913 33.0882 63.6078 33.5682 63.2855 34.1762C62.9632 34.7842 62.7376 35.4562 62.6409 36.1922C62.5442 36.9282 62.4797 37.7282 62.4797 38.5602V50.9762H54.7442V26.0162H54.6475Z" fill="#2863C5"/>
<path d="M114.727 47.808H114.63C113.76 49.152 112.632 50.112 111.213 50.688C109.795 51.264 108.28 51.552 106.701 51.552C105.541 51.552 104.413 51.392 103.317 51.072C102.221 50.752 101.286 50.272 100.448 49.6C99.6101 48.96 98.9655 48.16 98.482 47.2C97.9986 46.24 97.7729 45.12 97.7729 43.872C97.7729 42.432 98.0308 41.216 98.5787 40.224C99.1267 39.232 99.8358 38.4 100.738 37.76C101.641 37.12 102.704 36.608 103.865 36.256C105.025 35.904 106.25 35.648 107.507 35.456C108.764 35.296 110.021 35.168 111.278 35.136C112.535 35.104 113.695 35.072 114.759 35.072C114.759 33.696 114.275 32.608 113.276 31.808C112.309 31.008 111.149 30.592 109.795 30.592C108.506 30.592 107.346 30.848 106.314 31.392C105.251 31.936 104.316 32.64 103.51 33.568L99.3845 29.376C100.835 28.032 102.511 27.04 104.445 26.368C106.379 25.696 108.377 25.376 110.44 25.376C112.696 25.376 114.566 25.664 116.048 26.208C117.499 26.784 118.691 27.616 119.561 28.704C120.432 29.792 121.044 31.136 121.399 32.736C121.753 34.336 121.914 36.16 121.914 38.24V50.912H114.791V47.808H114.727ZM112.793 40.032C112.213 40.032 111.471 40.064 110.601 40.096C109.731 40.16 108.893 40.288 108.087 40.544C107.281 40.768 106.604 41.152 106.024 41.632C105.444 42.112 105.186 42.784 105.186 43.616C105.186 44.544 105.573 45.216 106.379 45.664C107.185 46.112 107.99 46.336 108.861 46.336C109.602 46.336 110.343 46.24 111.052 46.016C111.761 45.824 112.374 45.536 112.922 45.152C113.47 44.768 113.921 44.288 114.243 43.712C114.566 43.136 114.727 42.432 114.727 41.664V40.032H112.793Z" fill="#2863C5"/>
<path d="M126.427 26.0162H134.162V30.0162H134.259C135.097 28.4802 136.064 27.3282 137.192 26.5602C138.32 25.7922 139.771 25.4082 141.479 25.4082C141.93 25.4082 142.381 25.4402 142.833 25.4722C143.284 25.5042 143.703 25.5682 144.057 25.6642V32.6722C143.509 32.5122 142.962 32.3842 142.446 32.2882C141.898 32.1922 141.35 32.1602 140.77 32.1602C139.287 32.1602 138.127 32.3522 137.257 32.7682C136.386 33.1842 135.742 33.7602 135.258 34.4962C134.807 35.2322 134.485 36.0962 134.356 37.1202C134.227 38.1442 134.162 39.2642 134.162 40.5122V50.9122H126.427V26.0162Z" fill="#2863C5"/>
<path d="M166.33 32.1922H159.529V40.4802C159.529 41.1522 159.561 41.7922 159.625 42.3363C159.69 42.9122 159.851 43.3922 160.077 43.8082C160.302 44.2242 160.689 44.5442 161.173 44.7682C161.656 44.9922 162.333 45.0882 163.171 45.0882C163.59 45.0882 164.138 45.0562 164.783 44.9602C165.459 44.8642 165.975 44.6722 166.297 44.3842V50.7842C165.427 51.1042 164.557 51.2962 163.622 51.3923C162.687 51.4883 161.785 51.5522 160.883 51.5522C159.561 51.5522 158.368 51.4242 157.273 51.1362C156.177 50.8482 155.21 50.4322 154.372 49.8242C153.534 49.2162 152.889 48.4482 152.438 47.4882C151.987 46.5282 151.729 45.3762 151.729 44.0002V32.1602H146.765V26.0163H151.761V18.6562H159.497V26.0483H166.297V32.1922H166.33Z" fill="#2863C5"/>
<path d="M186.474 34.0799C186.088 33.5359 185.572 33.0879 184.863 32.7359C184.186 32.3839 183.445 32.1919 182.639 32.1919C180.673 32.1919 179.158 32.7679 178.062 33.9199C176.966 35.0719 176.45 36.6079 176.45 38.4959C176.45 40.3839 176.998 41.8879 178.062 43.0719C179.158 44.2239 180.673 44.7999 182.639 44.7999C183.509 44.7999 184.25 44.6079 184.863 44.2239C185.475 43.8399 186.023 43.3919 186.474 42.8799L191.599 48.2239C190.407 49.4399 188.988 50.3039 187.345 50.8159C185.701 51.2959 184.154 51.5519 182.671 51.5519C180.737 51.5519 178.932 51.2319 177.224 50.6239C175.516 50.0159 174.033 49.1199 172.776 47.9999C171.519 46.8479 170.52 45.4719 169.811 43.8719C169.102 42.2719 168.715 40.4799 168.715 38.4959C168.715 36.5119 169.069 34.7199 169.811 33.1199C170.52 31.5199 171.519 30.1439 172.776 28.9919C174.033 27.8399 175.516 26.9759 177.224 26.3679C178.932 25.7599 180.737 25.4399 182.671 25.4399C184.154 25.4399 185.701 25.6959 187.345 26.1759C188.988 26.6559 190.407 27.5199 191.599 28.7679L186.474 34.0799Z" fill="#2863C5"/>
<path d="M194.371 26.0162H202.107V30.0162H202.203C203.041 28.4802 204.008 27.3282 205.136 26.5602C206.265 25.7922 207.715 25.4082 209.423 25.4082C209.874 25.4082 210.326 25.4402 210.777 25.4722C211.228 25.5042 211.647 25.5682 212.002 25.6642V32.6722C211.454 32.5122 210.906 32.3842 210.39 32.2882C209.842 32.1922 209.294 32.1602 208.714 32.1602C207.231 32.1602 206.071 32.3522 205.201 32.7682C204.331 33.1842 203.686 33.7602 203.203 34.4962C202.751 35.2322 202.429 36.0962 202.3 37.1202C202.171 38.1442 202.107 39.2642 202.107 40.5122V50.9122H194.371V26.0162Z" fill="#2863C5"/>
<path d="M237.915 46.6244C236.691 48.1924 235.111 49.4084 233.21 50.2724C231.308 51.1364 229.342 51.5524 227.311 51.5524C225.377 51.5524 223.572 51.2324 221.864 50.6244C220.156 50.0164 218.673 49.1204 217.416 48.0004C216.159 46.8484 215.16 45.4724 214.451 43.8724C213.742 42.2724 213.355 40.4804 213.355 38.4964C213.355 36.5124 213.71 34.7204 214.451 33.1204C215.16 31.5204 216.159 30.1444 217.416 28.9924C218.673 27.8404 220.156 26.9764 221.864 26.3684C223.572 25.7604 225.377 25.4404 227.311 25.4404C229.116 25.4404 230.728 25.7604 232.178 26.3684C233.629 26.9764 234.886 27.8724 235.885 28.9924C236.884 30.1444 237.69 31.5204 238.238 33.1204C238.786 34.7204 239.076 36.5124 239.076 38.4964V40.8964H221.123C221.445 42.3684 222.09 43.5204 223.121 44.4164C224.153 45.2804 225.442 45.7284 226.957 45.7284C228.246 45.7284 229.31 45.4404 230.18 44.8964C231.05 44.3204 231.824 43.6164 232.468 42.7204L237.915 46.6244ZM231.372 35.6804C231.405 34.3684 230.986 33.2804 230.083 32.3524C229.181 31.4244 228.02 30.9764 226.634 30.9764C225.764 30.9764 225.023 31.1044 224.378 31.3924C223.734 31.6804 223.153 32.0004 222.702 32.4484C222.251 32.8644 221.864 33.3764 221.606 33.9204C221.348 34.4964 221.187 35.0724 221.155 35.6804H231.372Z" fill="#2863C5"/>
<path d="M269.664 50.9444H262.541V47.6804H262.444C262.122 48.1284 261.735 48.5764 261.219 49.0244C260.703 49.4724 260.123 49.8884 259.479 50.2724C258.802 50.6564 258.06 50.9444 257.255 51.2004C256.449 51.4244 255.611 51.5524 254.741 51.5524C252.871 51.5524 251.195 51.2324 249.68 50.5924C248.165 49.9524 246.876 49.0884 245.78 47.9364C244.684 46.7844 243.846 45.4404 243.266 43.8724C242.686 42.3044 242.396 40.5764 242.396 38.6884C242.396 36.9604 242.654 35.2964 243.202 33.6964C243.75 32.0964 244.491 30.6884 245.458 29.4724C246.425 28.2564 247.65 27.2644 249.036 26.5284C250.454 25.7924 252.033 25.4404 253.838 25.4404C255.45 25.4404 256.965 25.6964 258.351 26.1764C259.737 26.6564 260.897 27.5204 261.799 28.7044H261.896V12.1924H269.632V50.9444H269.664ZM262.541 38.4964C262.541 36.6084 261.993 35.1044 260.929 33.9204C259.833 32.7684 258.318 32.1924 256.352 32.1924C254.386 32.1924 252.871 32.7684 251.775 33.9204C250.679 35.0724 250.164 36.6084 250.164 38.4964C250.164 40.3844 250.712 41.8884 251.775 43.0724C252.871 44.2244 254.386 44.8004 256.352 44.8004C258.318 44.8004 259.833 44.2244 260.929 43.0724C261.993 41.8884 262.541 40.3524 262.541 38.4964Z" fill="#2863C5"/>
<path d="M274.789 18.1763C274.789 16.9603 275.24 15.9043 276.11 15.0083C276.98 14.1443 278.044 13.6963 279.269 13.6963C280.494 13.6963 281.557 14.1443 282.46 15.0083C283.33 15.8723 283.781 16.9283 283.781 18.1763C283.781 19.4243 283.33 20.4483 282.46 21.3123C281.589 22.1763 280.526 22.6243 279.269 22.6243C278.044 22.6243 276.98 22.1763 276.11 21.3123C275.208 20.4803 274.789 19.4243 274.789 18.1763ZM275.401 26.0163H283.137V50.9123H275.401V26.0163Z" fill="#2863C5"/>
<path d="M306.311 32.1922H299.51V40.4802C299.51 41.1522 299.542 41.7922 299.606 42.3363C299.671 42.9122 299.832 43.3922 300.058 43.8082C300.283 44.2242 300.67 44.5442 301.154 44.7682C301.637 44.9922 302.314 45.0882 303.152 45.0882C303.571 45.0882 304.119 45.0562 304.763 44.9602C305.44 44.8642 305.956 44.6722 306.278 44.3842V50.7842C305.408 51.1042 304.538 51.2962 303.603 51.3923C302.668 51.4883 301.766 51.5522 300.863 51.5522C299.542 51.5522 298.349 51.4242 297.254 51.1362C296.158 50.8482 295.191 50.4322 294.353 49.8242C293.515 49.2162 292.87 48.4482 292.419 47.4882C291.968 46.5282 291.71 45.3762 291.71 44.0002V32.1602H286.811V26.0163H291.774V18.6562H299.51V26.0483H306.311V32.1922Z" fill="#2863C5"/>
<path d="M307.149 18.0162C307.149 17.2162 307.31 16.4482 307.632 15.7442C307.955 15.0402 308.374 14.4002 308.889 13.8882C309.437 13.3442 310.05 12.9282 310.759 12.6402C311.468 12.3202 312.242 12.1602 313.047 12.1602C313.853 12.1602 314.627 12.3202 315.336 12.6402C316.045 12.9602 316.689 13.3762 317.205 13.8882C317.753 14.4322 318.172 15.0402 318.462 15.7442C318.785 16.4482 318.946 17.2162 318.946 18.0162C318.946 18.8162 318.785 19.5842 318.462 20.2882C318.14 20.9922 317.721 21.6322 317.205 22.1442C316.657 22.6882 316.045 23.1042 315.336 23.3922C314.627 23.6802 313.853 23.8722 313.047 23.8722C312.242 23.8722 311.468 23.7122 310.759 23.3922C310.05 23.0722 309.405 22.6562 308.889 22.1442C308.341 21.6002 307.922 20.9922 307.632 20.2882C307.31 19.5842 307.149 18.8482 307.149 18.0162ZM308.793 18.0162C308.793 18.6242 308.889 19.2002 309.115 19.7442C309.341 20.2882 309.631 20.7682 310.05 21.1522C310.437 21.5362 310.888 21.8562 311.403 22.1122C311.919 22.3682 312.467 22.4642 313.08 22.4642C313.66 22.4642 314.24 22.3362 314.756 22.1122C315.271 21.8882 315.723 21.5682 316.109 21.1522C316.496 20.7682 316.818 20.2882 317.044 19.7442C317.27 19.2002 317.366 18.6242 317.366 18.0162C317.366 17.4082 317.27 16.8322 317.044 16.2882C316.818 15.7442 316.528 15.2642 316.109 14.8802C315.723 14.4962 315.271 14.1762 314.756 13.9202C314.24 13.6962 313.692 13.5682 313.08 13.5682C312.499 13.5682 311.919 13.6962 311.403 13.9202C310.888 14.1442 310.437 14.4642 310.05 14.8802C309.663 15.2642 309.341 15.7442 309.115 16.2882C308.889 16.8322 308.793 17.4082 308.793 18.0162ZM310.791 14.8802H312.983C313.144 14.8802 313.37 14.8802 313.692 14.9122C313.982 14.9442 314.272 15.0082 314.562 15.1362C314.852 15.2642 315.11 15.4562 315.304 15.7122C315.529 15.9682 315.626 16.3522 315.626 16.8642C315.626 17.1842 315.594 17.4402 315.497 17.6322C315.4 17.8242 315.304 18.0162 315.175 18.1442C315.046 18.2722 314.884 18.3682 314.723 18.4322C314.562 18.4962 314.369 18.5602 314.208 18.5602L315.787 20.9922H314.111L312.693 18.6242H312.435V20.9922H310.823V14.8802H310.791ZM312.403 17.4402H313.047C313.144 17.4402 313.241 17.4402 313.37 17.4402C313.499 17.4402 313.595 17.4082 313.692 17.3762C313.789 17.3442 313.853 17.2802 313.918 17.1842C313.982 17.0882 314.014 16.9602 314.014 16.8002C314.014 16.6402 313.982 16.5122 313.918 16.4162C313.853 16.3202 313.789 16.2562 313.692 16.2242C313.595 16.1922 313.499 16.1602 313.37 16.1602C313.241 16.1602 313.144 16.1602 313.047 16.1602H312.403V17.4402Z" fill="#2863C5"/>
</g>
<defs>
<clipPath id="clip0_354_161">
<rect width="313" height="64" fill="white"/>
</clipPath>
</defs>
</svg>
