<svg width="264" height="35" viewBox="0 0 264 35" fill="none" xmlns="http://www.w3.org/2000/svg">
<path d="M264 16.8284L241.062 33.8851V27.9106C241.063 26.9673 241.294 26.0359 241.738 25.1826C242.182 24.3293 242.828 23.5752 243.631 22.9741L251.855 16.8284L243.718 10.8746C242.894 10.274 242.23 9.51432 241.774 8.65114C241.318 7.78797 241.08 6.84325 241.079 5.88629V0L264 16.8284Z" fill="#01E0AA"/>
<path d="M19.744 2.52295V7.1946H6.42267V14.6122H16.6301V19.2112H6.42267V31.4353H0V2.52295H19.744Z" fill="white"/>
<path d="M32.2336 29.8258C29.7636 28.5816 27.7094 26.7581 26.287 24.5468C24.847 22.2168 24.0908 19.5916 24.0908 16.9217C24.0908 14.2519 24.847 11.6266 26.287 9.29652C27.7074 7.08261 29.762 5.25697 32.2336 4.01236C34.7642 2.76023 37.6018 2.104 40.4856 2.104C43.3695 2.104 46.2071 2.76023 48.7376 4.01236C51.1976 5.25846 53.2388 7.08452 54.6442 9.29652C56.0699 11.6308 56.8179 14.2544 56.8179 16.9217C56.8179 19.589 56.0699 22.2126 54.6442 24.5468C53.2392 26.7562 51.2003 28.5803 48.7434 29.8258C46.2156 31.0743 43.3823 31.7286 40.5028 31.7286C37.6234 31.7286 34.7899 31.0743 32.2623 29.8258H32.2336ZM45.555 25.3722C47.0376 24.5718 48.2327 23.4 48.9956 21.9982C49.8494 20.4124 50.2722 18.6647 50.2286 16.9009C50.2759 15.1435 49.8528 13.4019 48.9956 11.8244C48.2312 10.433 47.0356 9.27316 45.555 8.48677C44.0071 7.69459 42.2519 7.29473 40.4742 7.32925C38.6894 7.29686 36.9275 7.69645 35.3704 8.48677C33.8871 9.2703 32.6907 10.4309 31.9298 11.8244C31.0706 13.4014 30.6456 15.1431 30.6911 16.9009C30.6494 18.6651 31.074 20.4127 31.9298 21.9982C32.6894 23.4021 33.8851 24.5747 35.3704 25.3722C36.9218 26.1781 38.6859 26.5871 40.4742 26.5557C42.2554 26.5889 44.0127 26.1795 45.555 25.3722Z" fill="white"/>
<path d="M80.5698 31.4454L73.5221 20.1712H70.5001V31.4454H64.0889V2.52271H76.0854C78.2613 2.46657 80.4214 2.87186 82.3934 3.70619C84.0169 4.39669 85.3793 5.50532 86.3101 6.8933C87.1841 8.25793 87.6339 9.8112 87.6118 11.3885C87.6537 13.3254 86.9507 15.2153 85.6234 16.7349C84.2959 18.2546 82.4265 19.3097 80.3347 19.7195L87.9789 31.4454H80.5698ZM70.5001 15.8214H75.8561C77.5917 15.8214 78.8877 15.4424 79.7441 14.6846C80.1862 14.2634 80.5283 13.7647 80.7493 13.2192C80.9702 12.6738 81.0653 12.093 81.0286 11.513C81.065 10.9456 80.9695 10.3775 80.7482 9.84548C80.527 9.31349 80.1849 8.82942 79.7441 8.42455C78.8897 7.69785 77.5937 7.32932 75.8561 7.32932H70.5001V15.8214Z" fill="white"/>
<path d="M136.935 2.52277L128.006 31.4455H120.453L114.461 10.8487L108.187 31.4455L100.681 31.4818L92.0791 2.52277H98.9606L104.569 24.9727L111.072 2.51758H118.211L124.347 24.8378L130.019 2.51758L136.935 2.52277Z" fill="white"/>
<path d="M159.764 25.9331H147.039L144.934 31.4457H138.201L149.671 2.48145H157.125L168.595 31.4457H161.823L159.764 25.9331ZM158.043 21.2926L153.399 9.19305L148.776 21.2926H158.043Z" fill="white"/>
<path d="M190.793 31.4454L183.745 20.1712H180.724V31.4454H174.329V2.52271H186.326C188.501 2.46657 190.662 2.87186 192.634 3.70619C194.257 4.39669 195.62 5.50532 196.55 6.8933C197.425 8.25793 197.874 9.8112 197.852 11.3885C197.894 13.3254 197.192 15.2153 195.864 16.7349C194.536 18.2546 192.666 19.3097 190.574 19.7195L198.22 31.4454H190.793ZM180.724 15.8214H186.08C187.814 15.8214 189.11 15.4424 189.968 14.6846C190.409 14.2634 190.752 13.7647 190.973 13.2192C191.193 12.6738 191.289 12.093 191.252 11.513C191.288 10.9456 191.193 10.3775 190.972 9.84548C190.75 9.31349 190.408 8.82942 189.968 8.42455C189.113 7.69785 187.817 7.32932 186.08 7.32932H180.724V15.8214Z" fill="white"/>
<path d="M225.045 4.30303C227.525 5.43016 229.58 7.19659 230.952 9.37956C232.38 11.7171 233.097 14.3552 233.033 17.0256C233.103 19.6814 232.383 22.3054 230.952 24.6248C229.572 26.7912 227.517 28.5421 225.045 29.6597C222.296 30.8912 219.259 31.5037 216.192 31.4453H205.02V2.52261H216.192C219.257 2.46239 222.296 3.07316 225.045 4.30303ZM223.744 24.0278C225.571 22.3668 226.487 20.0327 226.491 17.0256C226.495 14.0183 225.579 11.6635 223.744 9.96091C221.912 8.26528 219.319 7.41575 215.961 7.41228H211.432V26.5297H215.961C219.319 26.5297 221.912 25.6958 223.744 24.0278Z" fill="white"/>
</svg>
