<svg width="364" height="163" viewBox="0 0 364 163" fill="none" xmlns="http://www.w3.org/2000/svg">
<g filter="url(#filter0_bii_1813_3285)">
<path d="M2 17C2 8.71573 8.71573 2 17 2H347C355.284 2 362 8.71573 362 17V146C362 154.284 355.284 161 347 161H17C8.71574 161 2 154.284 2 146V17Z" fill="#D9D9D9" fill-opacity="0.1"/>
<path d="M17 1C8.16344 1 1 8.16344 1 17V146C1 154.837 8.16345 162 17 162H347C355.837 162 363 154.837 363 146V17C363 8.16344 355.837 1 347 1H17Z" stroke="url(#paint0_linear_1813_3285)" stroke-width="2"/>
</g>
<defs>
<filter id="filter0_bii_1813_3285" x="-67.8693" y="-67.8693" width="499.739" height="298.739" filterUnits="userSpaceOnUse" color-interpolation-filters="sRGB">
<feFlood flood-opacity="0" result="BackgroundImageFix"/>
<feGaussianBlur in="BackgroundImageFix" stdDeviation="33.9347"/>
<feComposite in2="SourceAlpha" operator="in" result="effect1_backgroundBlur_1813_3285"/>
<feBlend mode="normal" in="SourceGraphic" in2="effect1_backgroundBlur_1813_3285" result="shape"/>
<feColorMatrix in="SourceAlpha" type="matrix" values="0 0 0 0 0 0 0 0 0 0 0 0 0 0 0 0 0 0 127 0" result="hardAlpha"/>
<feOffset dx="-27.3667" dy="27.3667"/>
<feGaussianBlur stdDeviation="13.6833"/>
<feComposite in2="hardAlpha" operator="arithmetic" k2="-1" k3="1"/>
<feColorMatrix type="matrix" values="0 0 0 0 0.647059 0 0 0 0 0.647059 0 0 0 0 0.647059 0 0 0 0.1 0"/>
<feBlend mode="normal" in2="shape" result="effect2_innerShadow_1813_3285"/>
<feColorMatrix in="SourceAlpha" type="matrix" values="0 0 0 0 0 0 0 0 0 0 0 0 0 0 0 0 0 0 127 0" result="hardAlpha"/>
<feOffset dx="27.3667" dy="-27.3667"/>
<feGaussianBlur stdDeviation="13.6833"/>
<feComposite in2="hardAlpha" operator="arithmetic" k2="-1" k3="1"/>
<feColorMatrix type="matrix" values="0 0 0 0 0.646745 0 0 0 0 0.646745 0 0 0 0 0.646745 0 0 0 0.1 0"/>
<feBlend mode="normal" in2="effect2_innerShadow_1813_3285" result="effect3_innerShadow_1813_3285"/>
</filter>
<linearGradient id="paint0_linear_1813_3285" x1="2" y1="2" x2="299.127" y2="239.619" gradientUnits="userSpaceOnUse">
<stop stop-color="white" stop-opacity="0.65"/>
<stop offset="1" stop-color="#DCDCDC" stop-opacity="0.5"/>
</linearGradient>
</defs>
</svg>
