<svg width="216" height="232" viewBox="0 0 216 232" fill="none" xmlns="http://www.w3.org/2000/svg">
<g style="mix-blend-mode:multiply">
<path d="M9.53662 171.98L112.609 232L215.665 171.46L112.479 111.367L9.53662 171.98Z" fill="#E6E7E8"/>
</g>
<path d="M129.51 61.9177V67.8985L160.203 49.8748V43.894L129.51 61.9177Z" fill="url(#paint0_linear_3164_1310)"/>
<path d="M129.527 61.9179V67.8986L98.8501 50.0052V44.0488L129.527 61.9179Z" fill="url(#paint1_linear_3164_1310)"/>
<path d="M98.8501 44.0492L129.527 61.9183L160.204 43.8946L129.486 26.0093L98.8501 44.0492Z" fill="url(#paint2_linear_3164_1310)"/>
<path style="mix-blend-mode:screen" d="M129.527 61.429L99.2651 43.804L98.8501 44.0481L129.527 61.9172L160.204 43.8935L159.789 43.6494L129.527 61.429Z" fill="url(#paint3_radial_3164_1310)"/>
<path d="M129.51 53.5048V59.4855L160.203 41.47V35.4893L129.51 53.5048Z" fill="url(#paint4_linear_3164_1310)"/>
<path d="M129.527 53.5035V59.4843L98.8506 41.5989V35.6426L129.527 53.5035Z" fill="url(#paint5_linear_3164_1310)"/>
<path d="M98.8506 35.643L129.527 53.5039L160.204 35.4884L129.487 17.603L98.8506 35.643Z" fill="url(#paint6_linear_3164_1310)"/>
<path style="mix-blend-mode:screen" d="M129.527 53.016L99.2656 35.3911L98.8506 35.6433L129.527 53.5043L160.204 35.4887L159.789 35.2446L129.527 53.016Z" fill="url(#paint7_radial_3164_1310)"/>
<path d="M129.51 45.0984V51.0791L160.203 33.0555V27.0747L129.51 45.0984Z" fill="url(#paint8_linear_3164_1310)"/>
<path d="M129.527 45.0976V51.0783L98.8506 33.193V27.2285L129.527 45.0976Z" fill="url(#paint9_linear_3164_1310)"/>
<path d="M98.8506 27.2299L129.527 45.0989L160.204 27.0753L129.487 9.18994L98.8506 27.2299Z" fill="url(#paint10_linear_3164_1310)"/>
<path style="mix-blend-mode:screen" d="M129.527 44.6098L99.2651 26.9848L98.8501 27.229L129.527 45.098L160.204 27.0744L159.789 26.8384L129.527 44.6098Z" fill="url(#paint11_radial_3164_1310)"/>
<path d="M129.51 36.6926V42.6734L160.203 24.6497V18.6689L129.51 36.6926Z" fill="url(#paint12_linear_3164_1310)"/>
<path d="M129.527 36.6928V42.6735L98.8501 24.7882V18.8237L129.527 36.6928Z" fill="url(#paint13_linear_3164_1310)"/>
<path d="M98.8501 18.8236L129.527 36.6927L160.204 18.669L129.486 0.783691L98.8501 18.8236Z" fill="url(#paint14_linear_3164_1310)"/>
<path d="M103.683 18.8153L129.493 3.61523L155.369 18.677L129.526 33.8608L103.683 18.8153Z" fill="#AF0099"/>
<path d="M129.493 4.8358L154.328 19.2954L155.369 18.677L129.493 3.61523L103.683 18.8153L104.724 19.4175L129.493 4.8358Z" fill="url(#paint15_linear_3164_1310)"/>
<path d="M129.493 4.8358L154.328 19.2954L155.369 18.677L129.493 3.61523V4.8358Z" fill="#E82FD1"/>
<path style="mix-blend-mode:screen" d="M129.527 36.2043L99.2651 18.5794L98.8501 18.8235L129.527 36.6926L160.204 18.6689L159.789 18.4248L129.527 36.2043Z" fill="url(#paint16_radial_3164_1310)"/>
<path d="M145.353 20.2555C142.163 18.4491 140.023 16.1137 139.234 13.5749C135.172 13.2202 131.23 12.0171 127.663 10.0435L127.549 9.97021L125.832 11.1582C119.802 15.3326 118.802 19.515 119.607 24.853L119.729 24.9262C128.973 25.39 136.223 24.8123 143.449 21.3296L145.508 20.3369L145.353 20.2555Z" fill="#43E8E1"/>
<path style="mix-blend-mode:color-dodge" d="M139.235 18.1557C135.175 17.8061 131.234 16.6026 127.672 14.6242L127.55 14.5591L125.833 15.7471C121.846 18.5056 120.064 21.2722 119.543 24.3806C119.543 24.5433 119.584 24.6979 119.608 24.8606L119.73 24.9339C128.242 25.357 135.069 24.9339 141.741 22.1022C140.603 21.0051 139.744 19.6521 139.235 18.1557Z" fill="url(#paint17_radial_3164_1310)"/>
<path d="M149.063 136.795V168.001L118.378 150.115V118.926L149.063 136.795Z" fill="#B3069E"/>
<path d="M118.378 118.926L149.063 136.795L179.74 118.771L149.023 100.886L118.378 118.926Z" fill="#45108A"/>
<path style="mix-blend-mode:screen" d="M149.063 136.307L118.801 118.682L118.386 118.927L149.063 136.796L179.74 118.772L179.317 118.528L149.063 136.307Z" fill="url(#paint18_radial_3164_1310)"/>
<path d="M112.585 157.471V188.677L143.278 170.653V139.448L112.585 157.471Z" fill="url(#paint19_linear_3164_1310)"/>
<path d="M112.601 157.471V188.677L81.9238 170.792V139.602L112.601 157.471Z" fill="#330A66"/>
<path d="M81.9238 139.603L112.601 157.472L143.277 139.449L112.56 121.563L81.9238 139.603Z" fill="#45108A"/>
<path style="mix-blend-mode:screen" d="M112.601 156.984L82.3388 139.359L81.9238 139.603L112.601 157.472L143.277 139.448L142.863 139.204L112.601 156.984Z" fill="url(#paint20_radial_3164_1310)"/>
<path d="M183.768 157.822V189.02L214.461 171.004V139.798L183.768 157.822Z" fill="url(#paint21_linear_3164_1310)"/>
<path d="M183.785 157.822V189.02L153.108 171.134V139.953L183.785 157.822Z" fill="#C00EAA"/>
<path d="M153.108 139.953L183.785 157.822L214.462 139.798L183.744 121.913L153.108 139.953Z" fill="#7A096C"/>
<path d="M148.176 178.498V209.695L178.869 191.68V160.474L148.176 178.498Z" fill="url(#paint22_linear_3164_1310)"/>
<path d="M148.193 178.497V209.695L117.516 191.81V160.628L148.193 178.497Z" fill="#C00EAA"/>
<path d="M117.516 160.628L148.193 178.497L178.87 160.474L148.152 142.588L117.516 160.628Z" fill="#7A096C"/>
<path style="mix-blend-mode:screen" d="M26.4624 132.409L13.1582 140.31L43.8269 158.171L43.8188 158.179V189.385L57.1717 181.5V150.295L26.4624 132.409Z" fill="url(#paint23_linear_3164_1310)"/>
<path d="M30.6606 166.04V197.246L44.0218 189.361V158.164L30.6606 166.04Z" fill="url(#paint24_linear_3164_1310)"/>
<path d="M30.6768 166.039V197.245L0 179.36V148.178L30.6768 166.039Z" fill="url(#paint25_linear_3164_1310)"/>
<path d="M2.44092 177.961V152.427L28.2355 167.448V192.999L2.44092 177.961Z" fill="#AF0099"/>
<path d="M3.31973 177.489V152.94L2.44092 152.427V177.961L28.2355 192.999V192.014L3.31973 177.489Z" fill="url(#paint26_linear_3164_1310)"/>
<path d="M3.31973 177.489L2.44092 177.961L28.2355 192.998V192.013L3.31973 177.489Z" fill="#E82FD1"/>
<path d="M0 148.178L30.6768 166.039L44.0217 158.163L13.3042 140.277L0 148.178Z" fill="url(#paint27_linear_3164_1310)"/>
<path style="mix-blend-mode:screen" d="M30.6768 165.561L0.414987 147.928L0 148.18L30.6768 166.041L44.0217 158.164L43.5985 157.92L30.6768 165.561Z" fill="url(#paint28_radial_3164_1310)"/>
<path d="M16.7626 174.381V181.2L13.7031 179.426V172.615C12.4637 171.264 11.7331 169.523 11.6362 167.692C11.6362 165.414 13.2636 164.494 15.2328 165.641C16.2784 166.321 17.149 167.237 17.7739 168.315C18.3989 169.394 18.7605 170.605 18.8294 171.85C18.8294 173.494 17.9832 174.43 16.7626 174.381Z" fill="#43E8E1"/>
<path style="mix-blend-mode:color-dodge" d="M16.7626 174.381V181.2L13.7031 179.426V172.615C12.4637 171.264 11.7331 169.523 11.6362 167.692C11.6362 165.414 13.2636 164.494 15.2328 165.641C16.2784 166.321 17.149 167.237 17.7739 168.315C18.3989 169.394 18.7605 170.605 18.8294 171.85C18.8294 173.494 17.9832 174.43 16.7626 174.381Z" fill="url(#paint29_radial_3164_1310)"/>
<path d="M77.8643 178.807V210.012L108.557 191.997V160.791L77.8643 178.807Z" fill="#B3069E"/>
<path d="M77.8803 178.807V210.013L47.1953 192.128V160.946L77.8803 178.807Z" fill="#AF0099"/>
<path style="mix-blend-mode:lighten" opacity="0.2" d="M56.3739 182.233V166.284L47.1953 160.946V187.62L56.3739 182.233Z" fill="url(#paint30_radial_3164_1310)"/>
<path d="M47.1953 160.946L77.8803 178.807L108.557 160.792L77.8396 142.906L47.1953 160.946Z" fill="#7A096C"/>
<path d="M43.1421 122.856V154.062L73.8352 136.038V104.841L43.1421 122.856Z" fill="#B3069E"/>
<path d="M43.1591 122.856V154.062L12.4741 136.176V104.987L43.1591 122.856Z" fill="#AF0099"/>
<path d="M12.4741 104.987L43.1591 122.856L73.8359 104.841L43.1184 86.9473L12.4741 104.987Z" fill="#7A096C"/>
<path style="mix-blend-mode:screen" d="M43.1591 122.368L12.8973 104.743L12.4741 104.987L43.1591 122.856L73.8359 104.841L73.4128 104.597L43.1591 122.368Z" fill="url(#paint31_radial_3164_1310)"/>
<path style="mix-blend-mode:lighten" opacity="0.2" d="M30.0428 137.585L24.8513 134.59C22.7845 133.394 20.9129 133.272 19.554 134.037L16.877 135.664C18.2358 134.94 20.0748 135.078 22.1091 136.25L27.2924 139.245C30.5473 141.116 33.2895 145.063 34.3473 149.009L37.5614 150.881V150.628C37.5777 145.795 34.209 139.985 30.0428 137.585Z" fill="url(#paint32_radial_3164_1310)"/>
<path d="M112.585 199.175V230.372L143.278 212.357V181.151L112.585 199.175Z" fill="url(#paint33_linear_3164_1310)"/>
<path d="M112.601 199.174V230.371L81.9238 212.486V181.305L112.601 199.174Z" fill="#AF0099"/>
<path d="M81.9238 181.305L112.601 199.174L143.277 181.15L112.56 163.265L81.9238 181.305Z" fill="#7A096C"/>
<path style="mix-blend-mode:screen" d="M112.601 198.685L82.3388 181.06L81.9238 181.304L112.601 199.174L143.277 181.15L142.863 180.906L112.601 198.685Z" fill="url(#paint34_radial_3164_1310)"/>
<path d="M77.8643 143.216V174.422L108.557 156.406V125.201L77.8643 143.216Z" fill="#B3069E"/>
<path d="M77.8803 143.215V174.421L47.1953 156.535V125.354L77.8803 143.215Z" fill="#AF0099"/>
<path d="M47.1953 125.355L77.8803 143.216L108.557 125.2L77.8396 107.307L47.1953 125.355Z" fill="#7A096C"/>
<path style="mix-blend-mode:screen" d="M77.8803 142.727L47.6184 125.102L47.1953 125.354L77.8803 143.215L108.557 125.2L108.134 124.956L77.8803 142.727Z" fill="url(#paint35_radial_3164_1310)"/>
<path d="M112.585 188.8V194.78L143.278 176.765V170.784L112.585 188.8Z" fill="#25054D"/>
<path d="M112.601 188.8V194.781L81.9238 176.895V170.939L112.601 188.8Z" fill="#330A66"/>
<path d="M81.9238 170.938L112.601 188.799L143.277 170.784L112.56 152.898L81.9238 170.938Z" fill="#45108A"/>
<path d="M84.8623 168.522L112.602 184.674L140.341 168.4L112.569 152.231L84.8623 168.522ZM112.602 185.553C112.53 185.554 112.459 185.534 112.398 185.496L83.8452 168.872C83.7864 168.834 83.738 168.782 83.7045 168.721C83.6709 168.66 83.6533 168.591 83.6533 168.522C83.6533 168.452 83.6709 168.383 83.7045 168.322C83.738 168.261 83.7864 168.209 83.8452 168.172L112.325 151.385C112.388 151.347 112.459 151.327 112.532 151.327C112.606 151.327 112.677 151.347 112.74 151.385L141.317 168.025C141.38 168.06 141.433 168.11 141.469 168.172C141.506 168.233 141.525 168.304 141.525 168.375C141.525 168.447 141.506 168.517 141.469 168.579C141.433 168.64 141.38 168.691 141.317 168.725L112.805 185.496C112.744 185.534 112.674 185.554 112.602 185.553Z" fill="#43E8E1"/>
<path d="M84.8625 164.99L112.602 181.151L140.341 164.876L112.569 148.7L84.8625 164.99ZM112.602 182.021C112.531 182.022 112.461 182.005 112.398 181.973L83.8454 165.34C83.7842 165.305 83.7338 165.254 83.6994 165.192C83.665 165.131 83.648 165.061 83.6501 164.99C83.6504 164.92 83.6685 164.852 83.7027 164.79C83.7368 164.729 83.7859 164.678 83.8454 164.641L112.325 147.854C112.389 147.818 112.46 147.799 112.533 147.799C112.605 147.799 112.677 147.818 112.74 147.854L141.318 164.502C141.38 164.537 141.431 164.588 141.467 164.649C141.503 164.711 141.521 164.781 141.521 164.852C141.519 164.923 141.499 164.992 141.464 165.053C141.428 165.114 141.378 165.165 141.318 165.202L112.773 181.973C112.717 181.989 112.659 181.995 112.602 181.989V182.021Z" fill="#43E8E1"/>
<path d="M84.8623 161.402L112.602 177.554L140.341 161.28L112.569 145.111L84.8623 161.402ZM112.602 178.433C112.53 178.434 112.459 178.414 112.398 178.376L83.8452 161.735C83.7864 161.698 83.738 161.646 83.7045 161.585C83.6709 161.524 83.6533 161.455 83.6533 161.385C83.6533 161.316 83.6709 161.247 83.7045 161.186C83.738 161.125 83.7864 161.073 83.8452 161.036L112.325 144.249C112.388 144.211 112.459 144.19 112.532 144.19C112.606 144.19 112.677 144.211 112.74 144.249L141.35 160.922C141.413 160.956 141.465 161.006 141.502 161.068C141.538 161.13 141.558 161.2 141.558 161.271C141.558 161.343 141.538 161.413 141.502 161.475C141.465 161.536 141.413 161.587 141.35 161.621L112.805 178.392C112.743 178.425 112.672 178.439 112.602 178.433Z" fill="#43E8E1"/>
<path d="M84.862 157.838L112.601 173.998L140.341 157.724L112.569 141.547L84.862 157.838ZM112.601 174.868C112.531 174.869 112.461 174.852 112.398 174.82L83.8449 158.187C83.7837 158.152 83.7333 158.101 83.6989 158.039C83.6645 157.978 83.6475 157.908 83.6496 157.838C83.65 157.767 83.6681 157.699 83.7022 157.637C83.7364 157.576 83.7854 157.525 83.8449 157.488L112.325 140.701C112.388 140.665 112.459 140.646 112.532 140.646C112.605 140.646 112.676 140.665 112.74 140.701L141.317 157.349C141.379 157.384 141.431 157.435 141.467 157.497C141.502 157.558 141.521 157.628 141.521 157.699C141.519 157.77 141.499 157.839 141.463 157.9C141.428 157.961 141.378 158.012 141.317 158.049L112.772 174.82C112.719 174.847 112.661 174.864 112.601 174.868Z" fill="#43E8E1"/>
<g opacity="0.5">
<path d="M84.8618 154.282L112.601 170.434L140.341 154.16L112.569 137.991L84.8618 154.282ZM112.601 171.313C112.529 171.314 112.458 171.294 112.398 171.256L83.8447 154.632C83.7859 154.594 83.7375 154.543 83.704 154.481C83.6704 154.42 83.6528 154.352 83.6528 154.282C83.6528 154.212 83.6704 154.144 83.704 154.082C83.7375 154.021 83.7859 153.969 83.8447 153.932L112.325 137.145C112.387 137.107 112.459 137.087 112.532 137.087C112.605 137.087 112.677 137.107 112.74 137.145L141.317 153.786C141.38 153.82 141.432 153.87 141.469 153.932C141.505 153.994 141.525 154.064 141.525 154.135C141.525 154.207 141.505 154.277 141.469 154.339C141.432 154.4 141.38 154.451 141.317 154.485L112.805 171.256C112.744 171.294 112.673 171.314 112.601 171.313Z" fill="#43E8E1"/>
</g>
<path d="M112.585 163.574V168.741L143.278 150.726V145.559L112.585 163.574Z" fill="url(#paint36_linear_3164_1310)"/>
<path d="M112.601 163.575V168.742L81.9238 150.857V145.714L112.601 163.575Z" fill="#330A66"/>
<path d="M81.9238 145.714L112.601 163.575L143.277 145.559L112.56 127.674L81.9238 145.714Z" fill="#7A096C"/>
<path style="mix-blend-mode:screen" d="M112.601 163.086L82.3388 145.47L81.9238 145.714L112.601 163.575L143.277 145.559L142.863 145.315L112.601 163.086Z" fill="url(#paint37_radial_3164_1310)"/>
<path style="mix-blend-mode:lighten" opacity="0.2" d="M143.278 150.726V145.559L121.389 158.407L125.799 160.987L143.278 150.726Z" fill="url(#paint38_radial_3164_1310)"/>
<path opacity="0.1" d="M112.601 163.575V194.781L81.9238 176.895V145.714L112.601 163.575Z" fill="url(#paint39_linear_3164_1310)" fill-opacity="0.2"/>
<path d="M183.768 122.23V153.427L214.461 135.412V104.206L183.768 122.23Z" fill="url(#paint40_linear_3164_1310)"/>
<path d="M183.784 122.23V153.427L153.107 135.542V104.361L183.784 122.23Z" fill="#C00EAA"/>
<path d="M153.107 104.361L183.784 122.23L214.461 104.206L183.744 86.3208L153.107 104.361Z" fill="#7A096C"/>
<path style="mix-blend-mode:screen" d="M183.784 121.741L153.522 104.117L153.107 104.361L183.784 122.23L214.461 104.206L214.046 103.962L183.784 121.741Z" fill="url(#paint41_radial_3164_1310)"/>
<g style="mix-blend-mode:screen">
<path d="M178.528 125.215L147.819 107.322L117.174 125.362V156.551L147.843 174.428V174.437L147.851 174.428L147.859 174.437V174.428L178.528 156.413V125.215Z" fill="url(#paint42_linear_3164_1310)" fill-opacity="0.2"/>
</g>
<path d="M149.047 66.2714V97.4771L179.74 79.4616V48.2559L149.047 66.2714Z" fill="#B3069E"/>
<path d="M149.063 66.2709V97.4767L118.378 79.5913V48.4019L149.063 66.2709Z" fill="#AF0099"/>
<path d="M118.378 48.4018L149.063 66.2708L179.74 48.2553L149.023 30.3618L118.378 48.4018Z" fill="#7A096C"/>
<path style="mix-blend-mode:screen" d="M149.063 65.7831L118.801 48.1582L118.386 48.4023L149.063 66.2714L179.74 48.2558L179.317 48.0117L149.063 65.7831Z" fill="url(#paint43_radial_3164_1310)"/>
<g style="mix-blend-mode:multiply">
<path d="M209.115 101.074H208.879L203.004 98.2257C202.752 97.2899 201.279 96.5983 199.44 96.5006L184.386 89.1772L183.402 91.2115L194.794 96.7285L187.519 95.4265C187.063 94.564 185.566 93.9293 183.76 93.9293C181.595 93.9293 179.846 94.8325 179.846 95.9554C179.846 96.9075 181.14 97.7049 182.873 97.9165L182.384 116.038C180.904 116.323 179.846 117.055 179.846 117.917C179.846 119.032 181.595 119.944 183.76 119.944C185.924 119.944 187.674 119.032 187.674 117.917C187.668 117.759 187.629 117.604 187.56 117.462L209.147 104.939C209.436 104.972 209.727 104.988 210.018 104.988C211.719 104.988 213.143 104.434 213.688 103.653L209.115 101.074ZM184.647 115.029L185.11 97.8921C185.491 97.8197 185.862 97.7051 186.217 97.5503L195.461 99.1777C195.574 99.3434 195.711 99.4915 195.868 99.6171L194.24 101.098H193.882C191.726 101.098 189.976 102.001 189.976 103.116C189.976 103.71 190.489 104.247 191.295 104.613L184.647 115.029ZM187.34 115.029L193.646 105.15H193.874C196.039 105.15 197.788 104.247 197.788 103.132C197.758 102.85 197.654 102.58 197.487 102.35C197.319 102.121 197.095 101.939 196.836 101.822L198.293 100.504C198.563 100.536 198.834 100.552 199.106 100.553C199.942 100.56 200.772 100.402 201.547 100.089L206.259 102.376C206.126 102.568 206.05 102.793 206.039 103.027C206.053 103.36 206.196 103.675 206.438 103.905L187.34 115.029Z" fill="#BCBCD6"/>
</g>
<g opacity="0.7">
<path opacity="0.7" d="M188.571 70.3755L182.265 86.4497L184.84 87.4601L191.146 71.3858L188.571 70.3755Z" fill="#8770B8"/>
<g style="mix-blend-mode:screen" opacity="0.5">
<path d="M188.919 71.1439L183.205 85.7021L184.266 86.1184L189.98 71.5601L188.919 71.1439Z" fill="#8770B8"/>
</g>
</g>
<g opacity="0.7">
<path opacity="0.7" d="M176.039 100.357C175.758 100.357 175.483 100.271 175.252 100.112C175.021 99.9516 174.844 99.7251 174.745 99.4622L169.049 84.2051C168.935 83.8896 168.935 83.5442 169.049 83.2287L174.338 69.1922C174.362 69.131 174.389 69.0713 174.42 69.0132L182.353 54.5698L184.794 55.9043L176.91 70.2663L171.84 83.725L176.934 97.4523L193.599 94.4904L194.079 97.2163L176.316 100.341L176.039 100.357Z" fill="#8770B8"/>
<g style="mix-blend-mode:screen" opacity="0.5">
<path d="M175.876 99.2176C175.761 99.2182 175.649 99.1833 175.554 99.1178C175.459 99.0523 175.387 98.9594 175.347 98.8515L169.651 83.5944C169.603 83.4632 169.603 83.3188 169.651 83.1876L174.94 69.1592C174.936 69.1323 174.936 69.1048 174.94 69.0779L182.483 55.3506L183.476 55.9039L175.957 69.5986L170.815 83.391L176.275 98.0378L192.785 95.1084L192.98 96.2313L176.014 99.2095L175.876 99.2176Z" fill="#8770B8"/>
</g>
</g>
<g opacity="0.7">
<path opacity="0.7" d="M198.821 81.6412C198.635 81.6401 198.451 81.6021 198.279 81.5295C198.107 81.4569 197.951 81.3511 197.821 81.2181L189.236 72.2673L176.404 71.2258L176.624 68.4673L189.985 69.5577C190.322 69.5854 190.638 69.7359 190.872 69.9808L198.944 78.4189L209.351 70.0621L211.084 72.2185L199.692 81.3727C199.44 81.5568 199.134 81.6513 198.821 81.6412Z" fill="#8770B8"/>
<g style="mix-blend-mode:screen" opacity="0.5">
<path d="M198.659 80.5027C198.583 80.5042 198.508 80.4897 198.438 80.4603C198.367 80.4309 198.304 80.3871 198.252 80.3319L189.448 71.1288L177.12 70.128L177.21 68.9888L189.757 70.014C189.897 70.0212 190.028 70.0825 190.123 70.1849L198.708 79.1357L209.058 70.844L209.774 71.731L199.017 80.3644C198.918 80.4518 198.791 80.5008 198.659 80.5027Z" fill="#8770B8"/>
</g>
</g>
<g opacity="0.7">
<path opacity="0.7" d="M209.058 97.9158L199.294 83.3911L195.144 96.2803L192.516 95.4666L197.528 79.8678C197.61 79.6261 197.758 79.4119 197.954 79.2489C198.151 79.0858 198.389 78.9804 198.641 78.9442C198.894 78.9079 199.152 78.9424 199.386 79.0436C199.621 79.1449 199.822 79.309 199.969 79.5179L211.361 96.4023L209.058 97.9158Z" fill="#8770B8"/>
<g style="mix-blend-mode:screen" opacity="0.5">
<path d="M198.846 81.2268L194.412 94.9297L193.321 94.5798L198.098 79.7622C198.129 79.6606 198.188 79.57 198.269 79.5009C198.35 79.4317 198.448 79.3869 198.553 79.3716H198.643C198.735 79.3724 198.825 79.3958 198.906 79.4398C198.987 79.4838 199.056 79.547 199.107 79.6238L210.067 95.8248L209.124 96.4595L198.846 81.2268Z" fill="#8770B8"/>
</g>
</g>
<g opacity="0.7">
<path opacity="0.7" d="M183.565 88.3546C183.39 88.3538 183.216 88.3207 183.052 88.257C182.881 88.1879 182.725 88.0855 182.594 87.9555C182.462 87.8256 182.358 87.6708 182.287 87.5003L175.615 71.2261L157.42 72.4466C157.111 72.4685 156.803 72.3855 156.546 72.2111C156.289 72.0368 156.099 71.7811 156.005 71.4853C155.911 71.1895 155.919 70.8707 156.028 70.5801C156.138 70.2896 156.341 70.0442 156.607 69.8834L182.849 54.0161L184.281 56.384L162.913 69.3057L176.421 68.3944C176.706 68.3711 176.991 68.4368 177.238 68.5826C177.484 68.7283 177.679 68.9468 177.796 69.2081L184.305 85.0428L198.529 78.7366L199.66 81.2591L184.135 88.2407C183.955 88.3188 183.761 88.3577 183.565 88.3546Z" fill="#8770B8"/>
<g style="mix-blend-mode:screen" opacity="0.5">
<path d="M183.402 87.2155C183.335 87.2318 183.265 87.2318 183.198 87.2155C183.054 87.1583 182.937 87.0475 182.873 86.9063L175.981 70.1277L157.192 71.3889C157.065 71.3965 156.939 71.361 156.834 71.2883C156.729 71.2156 156.652 71.1098 156.614 70.9878C156.577 70.8659 156.581 70.7348 156.627 70.6158C156.673 70.4967 156.757 70.3964 156.867 70.3311L182.409 54.8706L183.003 55.8471L162.327 68.3212L162.807 69.8347L176.314 68.9234C176.433 68.9172 176.55 68.9474 176.65 69.01C176.751 69.0726 176.829 69.1645 176.876 69.2733L183.703 85.8892L197.959 79.4772L198.423 80.5187L183.638 87.1667C183.563 87.1992 183.483 87.2158 183.402 87.2155Z" fill="#8770B8"/>
</g>
</g>
<g opacity="0.7">
<path opacity="0.7" d="M183.564 114.597C183.315 114.597 183.071 114.53 182.856 114.402L156.614 98.7381C156.409 98.6155 156.238 98.4415 156.12 98.2333C156.001 98.025 155.939 97.7896 155.939 97.55V71.1045H158.706V96.7689L183.564 111.603L207.072 97.4524L183.076 88.29L184.061 85.7024L210.685 95.825C210.929 95.917 211.141 96.0757 211.298 96.283C211.456 96.4903 211.551 96.7378 211.574 96.9969C211.597 97.2561 211.546 97.5165 211.428 97.7482C211.31 97.9798 211.128 98.1735 210.905 98.3068L184.256 114.378C184.049 114.511 183.81 114.586 183.564 114.597Z" fill="#8770B8"/>
<g style="mix-blend-mode:screen" opacity="0.5">
<path d="M183.402 113.458C183.298 113.459 183.197 113.431 183.109 113.377L156.867 97.7128C156.782 97.6629 156.711 97.5915 156.663 97.5058C156.614 97.4201 156.589 97.3231 156.59 97.2246V71.5928H157.729V96.8991L183.402 112.229L208.757 96.9317L183.963 87.4682L184.37 86.4104L210.254 96.2888C210.354 96.3265 210.441 96.3915 210.506 96.4764C210.571 96.5613 210.61 96.6626 210.62 96.7689C210.629 96.8754 210.608 96.9822 210.559 97.0772C210.51 97.1721 210.435 97.2514 210.344 97.306L183.695 113.377C183.607 113.432 183.505 113.46 183.402 113.458Z" fill="#8770B8"/>
</g>
</g>
<g opacity="0.7">
<path opacity="0.7" d="M209.489 72.2843L186.876 58.4512L191.238 70.5999L188.642 71.5357L182.946 55.6683C182.852 55.4002 182.843 55.1094 182.921 54.8361C182.998 54.5627 183.159 54.3201 183.38 54.1416C183.601 53.9632 183.872 53.8577 184.156 53.8397C184.44 53.8216 184.722 53.8919 184.964 54.0409L210.938 69.9733L209.489 72.2843Z" fill="#8770B8"/>
<g style="mix-blend-mode:screen" opacity="0.5">
<path d="M185.168 56.1806L190.05 69.7533L188.976 70.1357L183.556 55.0333C183.523 54.9482 183.511 54.8562 183.521 54.7653C183.532 54.6745 183.565 54.5877 183.617 54.5127C183.67 54.4377 183.74 54.3769 183.822 54.3357C183.903 54.2945 183.994 54.2742 184.085 54.2766C184.191 54.2747 184.296 54.3029 184.386 54.3579L209.668 69.8672L209.066 70.8437L185.168 56.1806Z" fill="#8770B8"/>
</g>
</g>
<g opacity="0.7">
<path opacity="0.7" d="M157.843 98.8352L156.81 96.272L182.206 86.06V55.375H184.973V86.9713C184.973 87.2472 184.892 87.517 184.738 87.7461C184.584 87.9752 184.366 88.1531 184.11 88.257L157.843 98.8352Z" fill="#8770B8"/>
<g style="mix-blend-mode:screen" opacity="0.5">
<path d="M157.705 96.3936L182.832 86.263V55.8628H183.972V86.6454C183.973 86.7595 183.939 86.8712 183.875 86.9657C183.811 87.0602 183.72 87.133 183.614 87.1743L158.128 97.4515L157.705 96.3936Z" fill="#8770B8"/>
</g>
</g>
<g opacity="0.7">
<path d="M158.337 70.1709L156.346 72.0913L169.23 85.4518L171.221 83.5313L158.337 70.1709Z" fill="#8770B8"/>
<g style="mix-blend-mode:screen" opacity="0.5">
<path d="M158.135 70.9328L157.314 71.7231L169.062 83.9183L169.883 83.1279L158.135 70.9328Z" fill="#8770B8"/>
</g>
</g>
<g opacity="0.7">
<path opacity="0.7" d="M177.21 99.7148L174.882 98.2664L182.409 86.2642C182.586 85.9823 182.859 85.7736 183.177 85.6764C183.495 85.5793 183.838 85.6002 184.142 85.7353L196.145 91.0244L195.03 93.5551L184.118 88.746L177.21 99.7148Z" fill="#8770B8"/>
<g style="mix-blend-mode:screen" opacity="0.5">
<path d="M175.826 97.6562L182.921 86.3457C182.972 86.2635 183.042 86.1956 183.126 86.1486C183.21 86.1016 183.305 86.077 183.401 86.0772C183.48 86.0768 183.558 86.0935 183.629 86.126L194.891 91.0896L194.427 92.1312L183.621 87.3709L176.794 98.2665L175.826 97.6562Z" fill="#8770B8"/>
</g>
</g>
<g opacity="0.7">
<path opacity="0.7" d="M183.565 114.597C183.318 114.594 183.077 114.525 182.866 114.396C182.655 114.267 182.484 114.083 182.369 113.865L175.2 100.3L157.242 98.9332C156.982 98.9135 156.733 98.8204 156.524 98.6648C156.315 98.5092 156.155 98.2975 156.062 98.0544C155.968 97.8113 155.944 97.5466 155.992 97.2905C156.041 97.0344 156.161 96.7972 156.338 96.606L169.358 82.7729L171.376 84.6688L160.317 96.3944L176.144 97.5987C176.377 97.6146 176.602 97.6904 176.798 97.8187C176.993 97.9469 177.152 98.1234 177.259 98.331L183.614 110.35L194.412 91.5772C194.57 91.3019 194.818 91.0893 195.114 90.9752C195.411 90.8611 195.737 90.8525 196.039 90.9507L208.872 95.1657V72.2842H189.912V69.5176H210.255C210.436 69.5176 210.616 69.5534 210.784 69.6229C210.952 69.6924 211.104 69.7943 211.233 69.9227C211.361 70.0512 211.463 70.2037 211.533 70.3715C211.602 70.5393 211.638 70.7192 211.638 70.9009V97.0779C211.639 97.2968 211.588 97.5128 211.489 97.7079C211.39 97.9031 211.245 98.0717 211.068 98.1999C210.89 98.328 210.685 98.4119 210.469 98.4446C210.252 98.4773 210.031 98.4579 209.824 98.388L196.251 93.9289L184.81 113.905C184.684 114.122 184.502 114.301 184.283 114.423C184.064 114.544 183.816 114.605 183.565 114.597Z" fill="#8770B8"/>
<g style="mix-blend-mode:screen" opacity="0.5">
<path d="M183.378 113.457C183.279 113.454 183.182 113.425 183.097 113.372C183.013 113.319 182.944 113.245 182.898 113.156L175.518 99.1931L157.12 97.7935C157.013 97.7858 156.91 97.7481 156.824 97.6848C156.738 97.6214 156.671 97.535 156.632 97.4355C156.593 97.3344 156.583 97.2246 156.603 97.1184C156.624 97.0121 156.673 96.9134 156.745 96.8334L169.187 83.6187L170.001 84.4324L158.357 96.809L175.876 98.1353C175.973 98.142 176.067 98.174 176.149 98.2283C176.23 98.2825 176.296 98.357 176.34 98.4445L183.386 111.765L194.868 91.707C194.92 91.6216 194.993 91.5507 195.079 91.5009C195.166 91.4511 195.264 91.424 195.364 91.4222C195.423 91.4099 195.484 91.4099 195.543 91.4222L209.441 95.9871V71.169H190.482V70.0298H210.011C210.162 70.0298 210.307 70.0898 210.414 70.1966C210.52 70.3034 210.58 70.4483 210.58 70.5994V96.7764C210.579 96.8655 210.558 96.9532 210.517 97.0323C210.476 97.1115 210.417 97.1799 210.344 97.2321C210.249 97.3054 210.131 97.3454 210.011 97.346C209.952 97.3583 209.891 97.3583 209.832 97.346L195.633 92.6834L183.858 113.23C183.809 113.317 183.736 113.39 183.649 113.44C183.562 113.49 183.463 113.516 183.362 113.514L183.378 113.457Z" fill="#8770B8"/>
</g>
</g>
<path d="M161.465 97.5501C161.466 98.3697 161.225 99.1712 160.771 99.8534C160.317 100.536 159.67 101.068 158.914 101.382C158.157 101.697 157.324 101.78 156.52 101.621C155.716 101.463 154.977 101.069 154.397 100.49C153.817 99.9109 153.422 99.173 153.261 98.3693C153.101 97.5657 153.182 96.7325 153.496 95.9752C153.809 95.2179 154.34 94.5706 155.021 94.1151C155.702 93.6596 156.503 93.4165 157.323 93.4165C158.42 93.4165 159.472 93.8517 160.249 94.6267C161.025 95.4017 161.463 96.4531 161.465 97.5501Z" fill="url(#paint44_radial_3164_1310)"/>
<path d="M161.465 71.1039C161.466 71.9234 161.225 72.7249 160.771 73.4071C160.317 74.0893 159.67 74.6214 158.914 74.9362C158.157 75.2509 157.324 75.3341 156.52 75.1752C155.716 75.0163 154.977 74.6225 154.397 74.0436C153.817 73.4646 153.422 72.7267 153.261 71.923C153.101 71.1194 153.182 70.2862 153.496 69.5289C153.809 68.7716 154.34 68.1243 155.021 67.6688C155.702 67.2133 156.503 66.9702 157.323 66.9702C158.42 66.9702 159.472 67.4055 160.249 68.1804C161.025 68.9554 161.463 70.0068 161.465 71.1039Z" fill="url(#paint45_radial_3164_1310)"/>
<path d="M161.465 71.1039C161.466 71.9234 161.225 72.7249 160.771 73.4071C160.317 74.0893 159.67 74.6214 158.914 74.9362C158.157 75.2509 157.324 75.3341 156.52 75.1752C155.716 75.0163 154.977 74.6225 154.397 74.0436C153.817 73.4646 153.422 72.7267 153.261 71.923C153.101 71.1194 153.182 70.2862 153.496 69.5289C153.809 68.7716 154.34 68.1243 155.021 67.6688C155.702 67.2133 156.503 66.9702 157.323 66.9702C158.42 66.9702 159.472 67.4055 160.249 68.1804C161.025 68.9554 161.463 70.0068 161.465 71.1039Z" fill="url(#paint46_radial_3164_1310)"/>
<path d="M187.706 86.971C187.708 87.7906 187.466 88.5921 187.012 89.2743C186.558 89.9565 185.912 90.4886 185.155 90.8033C184.399 91.1181 183.566 91.2013 182.762 91.0424C181.958 90.8835 181.219 90.4897 180.639 89.9107C180.059 89.3318 179.664 88.5939 179.503 87.7902C179.343 86.9866 179.424 86.1534 179.737 85.3961C180.051 84.6388 180.581 83.9915 181.263 83.536C181.944 83.0805 182.745 82.8374 183.565 82.8374C184.662 82.8374 185.714 83.2726 186.49 84.0476C187.267 84.8226 187.704 85.874 187.706 86.971Z" fill="url(#paint47_radial_3164_1310)"/>
<path d="M187.706 86.971C187.708 87.7906 187.466 88.5921 187.012 89.2743C186.558 89.9565 185.912 90.4886 185.155 90.8033C184.399 91.1181 183.566 91.2013 182.762 91.0424C181.958 90.8835 181.219 90.4897 180.639 89.9107C180.059 89.3318 179.664 88.5939 179.503 87.7902C179.343 86.9866 179.424 86.1534 179.737 85.3961C180.051 84.6388 180.581 83.9915 181.263 83.536C181.944 83.0805 182.745 82.8374 183.565 82.8374C184.662 82.8374 185.714 83.2726 186.49 84.0476C187.267 84.8226 187.704 85.874 187.706 86.971Z" fill="url(#paint48_radial_3164_1310)"/>
<path d="M180.18 98.974C180.181 99.7935 179.94 100.595 179.486 101.277C179.031 101.959 178.385 102.492 177.628 102.806C176.872 103.121 176.039 103.204 175.235 103.045C174.431 102.886 173.692 102.493 173.112 101.914C172.532 101.335 172.137 100.597 171.976 99.7931C171.816 98.9895 171.897 98.1563 172.21 97.399C172.524 96.6417 173.055 95.9944 173.736 95.5389C174.417 95.0835 175.218 94.8403 176.038 94.8403C177.135 94.8403 178.187 95.2756 178.964 96.0506C179.74 96.8255 180.177 97.8769 180.18 98.974Z" fill="url(#paint49_radial_3164_1310)"/>
<path d="M180.18 98.974C180.181 99.7935 179.94 100.595 179.486 101.277C179.031 101.959 178.385 102.492 177.628 102.806C176.872 103.121 176.039 103.204 175.235 103.045C174.431 102.886 173.692 102.493 173.112 101.914C172.532 101.335 172.137 100.597 171.976 99.7931C171.816 98.9895 171.897 98.1563 172.21 97.399C172.524 96.6417 173.055 95.9944 173.736 95.5389C174.417 95.0835 175.218 94.8403 176.038 94.8403C177.135 94.8403 178.187 95.2756 178.964 96.0506C179.74 96.8255 180.177 97.8769 180.18 98.974Z" fill="url(#paint50_radial_3164_1310)"/>
<path d="M214.355 71.1039C214.356 71.9234 214.115 72.7249 213.661 73.4071C213.207 74.0893 212.56 74.6214 211.804 74.9362C211.047 75.2509 210.214 75.3341 209.41 75.1752C208.606 75.0163 207.867 74.6225 207.287 74.0436C206.707 73.4646 206.312 72.7267 206.151 71.923C205.991 71.1194 206.073 70.2862 206.386 69.5289C206.699 68.7716 207.23 68.1243 207.911 67.6688C208.592 67.2133 209.394 66.9702 210.213 66.9702C211.31 66.9702 212.362 67.4055 213.139 68.1804C213.915 68.9554 214.353 70.0068 214.355 71.1039Z" fill="url(#paint51_radial_3164_1310)"/>
<path d="M214.355 71.1039C214.356 71.9234 214.115 72.7249 213.661 73.4071C213.207 74.0893 212.56 74.6214 211.804 74.9362C211.047 75.2509 210.214 75.3341 209.41 75.1752C208.606 75.0163 207.867 74.6225 207.287 74.0436C206.707 73.4646 206.312 72.7267 206.151 71.923C205.991 71.1194 206.073 70.2862 206.386 69.5289C206.699 68.7716 207.23 68.1243 207.911 67.6688C208.592 67.2133 209.394 66.9702 210.213 66.9702C211.31 66.9702 212.362 67.4055 213.139 68.1804C213.915 68.9554 214.353 70.0068 214.355 71.1039Z" fill="url(#paint52_radial_3164_1310)"/>
<path d="M214.355 71.1039C214.356 71.9234 214.115 72.7249 213.661 73.4071C213.207 74.0893 212.56 74.6214 211.804 74.9362C211.047 75.2509 210.214 75.3341 209.41 75.1752C208.606 75.0163 207.867 74.6225 207.287 74.0436C206.707 73.4646 206.312 72.7267 206.151 71.923C205.991 71.1194 206.073 70.2862 206.386 69.5289C206.699 68.7716 207.23 68.1243 207.911 67.6688C208.592 67.2133 209.394 66.9702 210.213 66.9702C211.31 66.9702 212.362 67.4055 213.139 68.1804C213.915 68.9554 214.353 70.0068 214.355 71.1039Z" fill="url(#paint53_radial_3164_1310)"/>
<path d="M214.355 97.1424C214.356 97.9619 214.115 98.7635 213.661 99.4457C213.207 100.128 212.56 100.66 211.804 100.975C211.047 101.289 210.214 101.373 209.41 101.214C208.606 101.055 207.867 100.661 207.287 100.082C206.707 99.5032 206.312 98.7652 206.151 97.9616C205.991 97.1579 206.073 96.3248 206.386 95.5675C206.699 94.8102 207.23 94.1628 207.911 93.7074C208.592 93.2519 209.394 93.0088 210.213 93.0088C211.31 93.0088 212.362 93.444 213.139 94.219C213.915 94.994 214.353 96.0454 214.355 97.1424Z" fill="url(#paint54_radial_3164_1310)"/>
<path d="M214.355 97.1424C214.356 97.9619 214.115 98.7635 213.661 99.4457C213.207 100.128 212.56 100.66 211.804 100.975C211.047 101.289 210.214 101.373 209.41 101.214C208.606 101.055 207.867 100.661 207.287 100.082C206.707 99.5032 206.312 98.7652 206.151 97.9616C205.991 97.1579 206.073 96.3248 206.386 95.5675C206.699 94.8102 207.23 94.1628 207.911 93.7074C208.592 93.2519 209.394 93.0088 210.213 93.0088C211.31 93.0088 212.362 93.444 213.139 94.219C213.915 94.994 214.353 96.0454 214.355 97.1424Z" fill="url(#paint55_radial_3164_1310)"/>
<path d="M187.706 113.214C187.708 114.033 187.466 114.835 187.012 115.517C186.558 116.199 185.912 116.731 185.155 117.046C184.399 117.361 183.566 117.444 182.762 117.285C181.958 117.126 181.219 116.732 180.639 116.153C180.059 115.575 179.664 114.837 179.503 114.033C179.343 113.229 179.424 112.396 179.737 111.639C180.051 110.881 180.581 110.234 181.263 109.779C181.944 109.323 182.745 109.08 183.565 109.08C184.662 109.08 185.714 109.515 186.49 110.29C187.267 111.065 187.704 112.117 187.706 113.214Z" fill="url(#paint56_radial_3164_1310)"/>
<path d="M187.706 113.214C187.708 114.033 187.466 114.835 187.012 115.517C186.558 116.199 185.912 116.731 185.155 117.046C184.399 117.361 183.566 117.444 182.762 117.285C181.958 117.126 181.219 116.732 180.639 116.153C180.059 115.575 179.664 114.837 179.503 114.033C179.343 113.229 179.424 112.396 179.737 111.639C180.051 110.881 180.581 110.234 181.263 109.779C181.944 109.323 182.745 109.08 183.565 109.08C184.662 109.08 185.714 109.515 186.49 110.29C187.267 111.065 187.704 112.117 187.706 113.214Z" fill="url(#paint57_radial_3164_1310)"/>
<path d="M187.706 55.2372C187.708 56.0567 187.466 56.8582 187.012 57.5404C186.558 58.2226 185.911 58.7547 185.155 59.0695C184.398 59.3842 183.565 59.4674 182.761 59.3085C181.957 59.1496 181.218 58.7558 180.638 58.1769C180.058 57.5979 179.663 56.86 179.503 56.0563C179.342 55.2527 179.424 54.4195 179.737 53.6622C180.05 52.9049 180.581 52.2576 181.262 51.8021C181.944 51.3466 182.745 51.1035 183.564 51.1035C184.661 51.1035 185.713 51.5388 186.49 52.3137C187.266 53.0887 187.704 54.1401 187.706 55.2372Z" fill="url(#paint58_radial_3164_1310)"/>
<path d="M187.706 55.2372C187.708 56.0567 187.466 56.8582 187.012 57.5404C186.558 58.2226 185.911 58.7547 185.155 59.0695C184.398 59.3842 183.565 59.4674 182.761 59.3085C181.957 59.1496 181.218 58.7558 180.638 58.1769C180.058 57.5979 179.663 56.86 179.503 56.0563C179.342 55.2527 179.424 54.4195 179.737 53.6622C180.05 52.9049 180.581 52.2576 181.262 51.8021C181.944 51.3466 182.745 51.1035 183.564 51.1035C184.661 51.1035 185.713 51.5388 186.49 52.3137C187.266 53.0887 187.704 54.1401 187.706 55.2372Z" fill="url(#paint59_radial_3164_1310)"/>
<path d="M187.706 55.2372C187.708 56.0567 187.466 56.8582 187.012 57.5404C186.558 58.2226 185.911 58.7547 185.155 59.0695C184.398 59.3842 183.565 59.4674 182.761 59.3085C181.957 59.1496 181.218 58.7558 180.638 58.1769C180.058 57.5979 179.663 56.86 179.503 56.0563C179.342 55.2527 179.424 54.4195 179.737 53.6622C180.05 52.9049 180.581 52.2576 181.262 51.8021C181.944 51.3466 182.745 51.1035 183.564 51.1035C184.661 51.1035 185.713 51.5388 186.49 52.3137C187.266 53.0887 187.704 54.1401 187.706 55.2372Z" fill="url(#paint60_radial_3164_1310)"/>
<path d="M194.013 70.9017C194.015 71.7212 193.773 72.5228 193.319 73.205C192.865 73.8872 192.219 74.4193 191.462 74.734C190.705 75.0487 189.872 75.1319 189.068 74.973C188.264 74.8141 187.526 74.4203 186.946 73.8414C186.365 73.2625 185.97 72.5245 185.81 71.7209C185.649 70.9172 185.731 70.084 186.044 69.3268C186.357 68.5695 186.888 67.9221 187.569 67.4667C188.251 67.0112 189.052 66.7681 189.871 66.7681C190.968 66.7681 192.021 67.2033 192.797 67.9783C193.574 68.7533 194.011 69.8047 194.013 70.9017Z" fill="url(#paint61_radial_3164_1310)"/>
<path d="M194.013 70.9017C194.015 71.7212 193.773 72.5228 193.319 73.205C192.865 73.8872 192.219 74.4193 191.462 74.734C190.705 75.0487 189.872 75.1319 189.068 74.973C188.264 74.8141 187.526 74.4203 186.946 73.8414C186.365 73.2625 185.97 72.5245 185.81 71.7209C185.649 70.9172 185.731 70.084 186.044 69.3268C186.357 68.5695 186.888 67.9221 187.569 67.4667C188.251 67.0112 189.052 66.7681 189.871 66.7681C190.968 66.7681 192.021 67.2033 192.797 67.9783C193.574 68.7533 194.011 69.8047 194.013 70.9017Z" fill="url(#paint62_radial_3164_1310)"/>
<path d="M194.013 70.9017C194.015 71.7212 193.773 72.5228 193.319 73.205C192.865 73.8872 192.219 74.4193 191.462 74.734C190.705 75.0487 189.872 75.1319 189.068 74.973C188.264 74.8141 187.526 74.4203 186.946 73.8414C186.365 73.2625 185.97 72.5245 185.81 71.7209C185.649 70.9172 185.731 70.084 186.044 69.3268C186.357 68.5695 186.888 67.9221 187.569 67.4667C188.251 67.0112 189.052 66.7681 189.871 66.7681C190.968 66.7681 192.021 67.2033 192.797 67.9783C193.574 68.7533 194.011 69.8047 194.013 70.9017Z" fill="url(#paint63_radial_3164_1310)"/>
<path d="M202.964 80.2586C202.965 81.0782 202.724 81.8797 202.27 82.5619C201.816 83.2441 201.169 83.7762 200.413 84.0909C199.656 84.4057 198.823 84.4889 198.019 84.33C197.215 84.1711 196.476 83.7773 195.896 83.1983C195.316 82.6194 194.921 81.8815 194.76 81.0778C194.6 80.2742 194.681 79.441 194.995 78.6837C195.308 77.9264 195.839 77.2791 196.52 76.8236C197.201 76.3681 198.002 76.125 198.822 76.125C199.919 76.125 200.971 76.5602 201.748 77.3352C202.524 78.1102 202.962 79.1616 202.964 80.2586Z" fill="url(#paint64_radial_3164_1310)"/>
<path d="M202.964 80.2586C202.965 81.0782 202.724 81.8797 202.27 82.5619C201.816 83.2441 201.169 83.7762 200.413 84.0909C199.656 84.4057 198.823 84.4889 198.019 84.33C197.215 84.1711 196.476 83.7773 195.896 83.1983C195.316 82.6194 194.921 81.8815 194.76 81.0778C194.6 80.2742 194.681 79.441 194.995 78.6837C195.308 77.9264 195.839 77.2791 196.52 76.8236C197.201 76.3681 198.002 76.125 198.822 76.125C199.919 76.125 200.971 76.5602 201.748 77.3352C202.524 78.1102 202.962 79.1616 202.964 80.2586Z" fill="url(#paint65_radial_3164_1310)"/>
<path d="M197.975 95.515C197.977 96.3349 197.735 97.1368 197.281 97.8191C196.826 98.5015 196.18 99.0336 195.422 99.3481C194.665 99.6626 193.832 99.7453 193.028 99.5857C192.223 99.4262 191.485 99.0315 190.905 98.4518C190.325 97.8721 189.931 97.1333 189.771 96.3292C189.612 95.525 189.694 94.6915 190.009 93.9344C190.323 93.1772 190.855 92.5305 191.538 92.076C192.22 91.6215 193.022 91.3797 193.842 91.3814C194.937 91.3835 195.988 91.8197 196.762 92.5945C197.537 93.3692 197.973 94.4193 197.975 95.515Z" fill="url(#paint66_radial_3164_1310)"/>
<path d="M197.975 95.515C197.977 96.3349 197.735 97.1368 197.281 97.8191C196.826 98.5015 196.18 99.0336 195.422 99.3481C194.665 99.6626 193.832 99.7453 193.028 99.5857C192.223 99.4262 191.485 99.0315 190.905 98.4518C190.325 97.8721 189.931 97.1333 189.771 96.3292C189.612 95.525 189.694 94.6915 190.009 93.9344C190.323 93.1772 190.855 92.5305 191.538 92.076C192.22 91.6215 193.022 91.3797 193.842 91.3814C194.937 91.3835 195.988 91.8197 196.762 92.5945C197.537 93.3692 197.973 94.4193 197.975 95.515Z" fill="url(#paint67_radial_3164_1310)"/>
<path d="M197.975 95.515C197.977 96.3349 197.735 97.1368 197.281 97.8191C196.826 98.5015 196.18 99.0336 195.422 99.3481C194.665 99.6626 193.832 99.7453 193.028 99.5857C192.223 99.4262 191.485 99.0315 190.905 98.4518C190.325 97.8721 189.931 97.1333 189.771 96.3292C189.612 95.525 189.694 94.6915 190.009 93.9344C190.323 93.1772 190.855 92.5305 191.538 92.076C192.22 91.6215 193.022 91.3797 193.842 91.3814C194.937 91.3835 195.988 91.8197 196.762 92.5945C197.537 93.3692 197.973 94.4193 197.975 95.515Z" fill="url(#paint68_radial_3164_1310)"/>
<path d="M174.484 83.7167C174.486 84.5362 174.244 85.3377 173.79 86.0199C173.336 86.7021 172.69 87.2342 171.933 87.549C171.176 87.8637 170.343 87.9469 169.539 87.788C168.735 87.6291 167.997 87.2353 167.417 86.6564C166.837 86.0774 166.441 85.3395 166.281 84.5358C166.12 83.7322 166.202 82.899 166.515 82.1417C166.828 81.3844 167.359 80.7371 168.041 80.2816C168.722 79.8261 169.523 79.583 170.342 79.583C171.44 79.583 172.492 80.0183 173.268 80.7932C174.045 81.5682 174.482 82.6196 174.484 83.7167Z" fill="url(#paint69_radial_3164_1310)"/>
<path d="M174.484 83.7167C174.486 84.5362 174.244 85.3377 173.79 86.0199C173.336 86.7021 172.69 87.2342 171.933 87.549C171.176 87.8637 170.343 87.9469 169.539 87.788C168.735 87.6291 167.997 87.2353 167.417 86.6564C166.837 86.0774 166.441 85.3395 166.281 84.5358C166.12 83.7322 166.202 82.899 166.515 82.1417C166.828 81.3844 167.359 80.7371 168.041 80.2816C168.722 79.8261 169.523 79.583 170.342 79.583C171.44 79.583 172.492 80.0183 173.268 80.7932C174.045 81.5682 174.482 82.6196 174.484 83.7167Z" fill="url(#paint70_radial_3164_1310)"/>
<path d="M179.765 69.68C179.767 70.4995 179.525 71.3011 179.071 71.9833C178.617 72.6655 177.971 73.1976 177.214 73.5123C176.457 73.8271 175.624 73.9102 174.82 73.7514C174.016 73.5925 173.278 73.1986 172.697 72.6197C172.117 72.0408 171.722 71.3028 171.562 70.4992C171.401 69.6955 171.483 68.8624 171.796 68.1051C172.109 67.3478 172.64 66.7004 173.321 66.245C174.003 65.7895 174.804 65.5464 175.623 65.5464C176.72 65.5464 177.773 65.9816 178.549 66.7566C179.326 67.5316 179.763 68.583 179.765 69.68Z" fill="url(#paint71_radial_3164_1310)"/>
<path d="M179.765 69.68C179.767 70.4995 179.525 71.3011 179.071 71.9833C178.617 72.6655 177.971 73.1976 177.214 73.5123C176.457 73.8271 175.624 73.9102 174.82 73.7514C174.016 73.5925 173.278 73.1986 172.697 72.6197C172.117 72.0408 171.722 71.3028 171.562 70.4992C171.401 69.6955 171.483 68.8624 171.796 68.1051C172.109 67.3478 172.64 66.7004 173.321 66.245C174.003 65.7895 174.804 65.5464 175.623 65.5464C176.72 65.5464 177.773 65.9816 178.549 66.7566C179.326 67.5316 179.763 68.583 179.765 69.68Z" fill="url(#paint72_radial_3164_1310)"/>
<path d="M78.7349 66.5881V97.7938L109.42 79.7702V48.5645L78.7349 66.5881Z" fill="#B3069E"/>
<path d="M78.7509 66.5888V97.7945L48.0659 79.9092V48.7197L78.7509 66.5888Z" fill="#AF0099"/>
<path d="M48.0659 48.7191L78.7509 66.5882L109.42 48.5645L78.7102 30.6792L48.0659 48.7191Z" fill="#7A096C"/>
<path style="mix-blend-mode:screen" d="M78.7509 66.0999L48.4809 48.4749L48.0659 48.719L78.7509 66.5881L109.42 48.5644L109.005 48.3203L78.7509 66.0999Z" fill="url(#paint73_radial_3164_1310)"/>
<path d="M112.585 86.9481V118.154L143.278 100.13V68.9326L112.585 86.9481Z" fill="#B3069E"/>
<path d="M112.601 86.9467V118.152L81.9238 100.267V69.0776L112.601 86.9467Z" fill="#AF0099"/>
<path d="M81.9238 69.0782L112.601 86.9472L143.277 68.9317L112.56 51.0464L81.9238 69.0782Z" fill="#7A096C"/>
<path style="mix-blend-mode:screen" d="M112.601 86.4589L82.3388 68.834L81.9238 69.0781L112.601 86.9471L143.277 68.9316L142.863 68.6875L112.601 86.4589Z" fill="url(#paint74_radial_3164_1310)"/>
<path d="M148.176 107.307V138.512L178.869 120.497V89.291L148.176 107.307Z" fill="url(#paint75_linear_3164_1310)"/>
<path d="M148.193 107.306V138.512L117.516 120.627V89.4453L148.193 107.306Z" fill="#AF0099"/>
<path d="M117.516 89.4452L148.193 107.306L178.87 89.2906L148.152 71.4053L117.516 89.4452Z" fill="#7A096C"/>
<path style="mix-blend-mode:screen" d="M148.193 106.818L117.931 89.1929L117.516 89.4451L148.193 107.306L178.87 89.2905L178.455 89.0464L148.193 106.818Z" fill="url(#paint76_radial_3164_1310)"/>
<path style="mix-blend-mode:lighten" opacity="0.2" d="M148.485 107.127L148.176 107.306V109.951L170.016 122.669L148.176 135.485V138.512L175.167 122.669L148.485 107.127Z" fill="url(#paint77_radial_3164_1310)"/>
<path d="M43.1421 87.2644V118.47L73.8352 100.446V69.2407L43.1421 87.2644Z" fill="#B3069E"/>
<path d="M43.1591 87.265V118.471L12.4741 100.585V69.396L43.1591 87.265Z" fill="#AF0099"/>
<path d="M12.4741 69.3959L43.1591 87.2649L73.8359 69.2413L43.1184 51.356L12.4741 69.3959Z" fill="#7A096C"/>
<path style="mix-blend-mode:screen" d="M43.1591 86.7761L12.8973 69.1512L12.4741 69.3953L43.1591 87.2643L73.8359 69.2407L73.4128 68.9966L43.1591 86.7761Z" fill="url(#paint78_radial_3164_1310)"/>
<path d="M77.8643 107.624V138.83L108.557 120.806V89.6084L77.8643 107.624Z" fill="url(#paint79_linear_3164_1310)"/>
<path d="M77.8803 107.623V138.829L47.1953 120.944V89.7544L77.8803 107.623Z" fill="#330A66"/>
<path d="M47.1953 89.7538L77.8803 107.623L108.557 89.6073L77.8396 71.7139L47.1953 89.7538Z" fill="#45108A"/>
<path d="M77.9053 123.702V138.723L108.533 120.854V105.833L77.9053 123.702Z" fill="url(#paint80_linear_3164_1310)"/>
<path d="M79.7759 135.461V124.777L106.628 109.097V119.781L79.7759 135.461ZM81.2162 125.607V132.93L105.212 118.934V111.611L81.2162 125.607Z" fill="url(#paint81_linear_3164_1310)"/>
<path d="M77.9211 123.702V138.723L47.1792 120.806V105.801L77.9211 123.702Z" fill="url(#paint82_linear_3164_1310)"/>
<path d="M49.7744 119.316V110.316L75.3168 125.191V134.207L49.7744 119.316Z" fill="#25054D"/>
<path d="M76.042 135.469L49.0513 119.732V109.064L76.042 124.777V135.469ZM50.4997 118.902L74.5936 132.946V125.623L50.4997 111.586V118.902Z" fill="url(#paint83_linear_3164_1310)"/>
<path d="M71.8262 126.103L72.8189 126.673V125.542L71.8262 124.972V126.103Z" fill="#2AF6FF"/>
<path d="M69.9712 125.029L70.9639 125.598V124.467L69.9712 123.897V125.029Z" fill="#2AF6FF"/>
<path d="M68.1157 123.955L69.1084 124.524V123.393L68.1157 122.824V123.955Z" fill="#4B61B8"/>
<path d="M66.2598 122.89L67.2443 123.459V122.32L66.2598 121.75V122.89Z" fill="#25054D"/>
<path d="M64.4058 121.815L65.3903 122.385V121.245L64.4058 120.676V121.815Z" fill="#25054D"/>
<path d="M62.542 120.741L63.5347 121.311V120.18L62.542 119.61V120.741Z" fill="#4B61B8"/>
<path d="M60.6865 119.667L61.6792 120.236V119.105L60.6865 118.536V119.667Z" fill="#4B61B8"/>
<path d="M58.8311 118.592L59.8157 119.17V118.031L58.8311 117.461V118.592Z" fill="#4B61B8"/>
<path d="M56.9761 117.527L57.9607 118.096V116.957L56.9761 116.388V117.527Z" fill="#25054D"/>
<path d="M55.1128 116.453L56.1055 117.022V115.891L55.1128 115.313V116.453Z" fill="#4B61B8"/>
<path d="M53.2573 115.379L54.25 115.948V114.817L53.2573 114.248V115.379Z" fill="#2AF6FF"/>
<path d="M51.4023 114.304L52.3869 114.882V113.743L51.4023 113.173V114.304Z" fill="#2AF6FF"/>
<path d="M71.8262 128.121L72.8189 128.691V127.552L71.8262 126.982V128.121Z" fill="#4B61B8"/>
<path d="M69.9712 127.047L70.9639 127.617V126.486L69.9712 125.916V127.047Z" fill="#2AF6FF"/>
<path d="M68.1157 125.973L69.1084 126.543V125.412L68.1157 124.842V125.973Z" fill="#2AF6FF"/>
<path d="M66.2598 124.898L67.2443 125.475V124.336L66.2598 123.767V124.898Z" fill="#25054D"/>
<path d="M64.4058 123.833L65.3903 124.402V123.263L64.4058 122.693V123.833Z" fill="#2AF6FF"/>
<path d="M62.542 122.758L63.5347 123.328V122.197L62.542 121.619V122.758Z" fill="#2AF6FF"/>
<path d="M60.6865 121.684L61.6792 122.254V121.123L60.6865 120.553V121.684Z" fill="#2AF6FF"/>
<path d="M58.8311 120.61L59.8157 121.179V120.048L58.8311 119.479V120.61Z" fill="#4B61B8"/>
<path d="M56.9761 119.536L57.9607 120.114V118.974L56.9761 118.405V119.536Z" fill="#4B61B8"/>
<path d="M55.1128 118.47L56.1055 119.04V117.901L55.1128 117.331V118.47Z" fill="#4B61B8"/>
<path d="M53.2573 117.396L54.25 117.966V116.835L53.2573 116.257V117.396Z" fill="#4B61B8"/>
<path d="M51.4023 116.322L52.3869 116.892V115.761L51.4023 115.191V116.322Z" fill="#4B61B8"/>
<path d="M71.8262 130.114L72.8189 130.692V129.553L71.8262 128.983V130.114Z" fill="#2AF6FF"/>
<path d="M69.9712 129.049L70.9639 129.618V128.487L69.9712 127.91V129.049Z" fill="#4B61B8"/>
<path d="M68.1157 127.975L69.1084 128.544V127.413L68.1157 126.844V127.975Z" fill="#4B61B8"/>
<path d="M66.2598 126.9L67.2443 127.47V126.339L66.2598 125.769V126.9Z" fill="#4B61B8"/>
<path d="M64.4058 125.835L65.3903 126.404V125.265L64.4058 124.695V125.835Z" fill="#4B61B8"/>
<path d="M62.542 124.76L63.5347 125.33V124.191L62.542 123.621V124.76Z" fill="#4B61B8"/>
<path d="M60.6865 123.686L61.6792 124.255V123.124L60.6865 122.555V123.686Z" fill="#25054D"/>
<path d="M58.8306 122.612L59.8152 123.181V122.05L58.8306 121.48V122.612Z" fill="#2AF6FF"/>
<path d="M56.9761 121.537L57.9607 122.107V120.976L56.9761 120.406V121.537Z" fill="#4B61B8"/>
<path d="M55.1128 120.473L56.1055 121.042V119.903L55.1128 119.333V120.473Z" fill="#4B61B8"/>
<path d="M53.2573 119.398L54.25 119.968V118.828L53.2573 118.259V119.398Z" fill="#2AF6FF"/>
<path d="M51.4023 118.324L52.3869 118.894V117.762L51.4023 117.193V118.324Z" fill="#2AF6FF"/>
<path d="M83.7393 126.103L82.7466 126.673V125.542L83.7393 124.972V126.103Z" fill="#2AF6FF"/>
<path d="M85.5938 125.029L84.6011 125.598V124.467L85.5938 123.897V125.029Z" fill="#25054D"/>
<path d="M87.4488 123.955L86.4561 124.524V123.393L87.4488 122.824V123.955Z" fill="#4B61B8"/>
<path d="M89.3049 122.89L88.3203 123.459V122.32L89.3049 121.75V122.89Z" fill="#25054D"/>
<path d="M91.1599 121.815L90.1753 122.385V121.245L91.1599 120.676V121.815Z" fill="#25054D"/>
<path d="M93.023 120.741L92.0303 121.311V120.18L93.023 119.61V120.741Z" fill="#4B61B8"/>
<path d="M94.879 119.667L93.8862 120.236V119.105L94.879 118.536V119.667Z" fill="#4B61B8"/>
<path d="M96.7341 118.592L95.7495 119.17V118.031L96.7341 117.461V118.592Z" fill="#4B61B8"/>
<path d="M98.5891 117.527L97.6045 118.096V116.957L98.5891 116.388V117.527Z" fill="#25054D"/>
<path d="M100.453 116.453L99.4604 117.022V115.891L100.453 115.313V116.453Z" fill="#25054D"/>
<path d="M102.308 115.379L101.315 115.948V114.817L102.308 114.248V115.379Z" fill="#2AF6FF"/>
<path d="M104.163 114.304L103.179 114.882V113.743L104.163 113.173V114.304Z" fill="#2AF6FF"/>
<path d="M83.7393 128.121L82.7466 128.691V127.552L83.7393 126.982V128.121Z" fill="#4B61B8"/>
<path d="M85.5938 127.047L84.6011 127.617V126.486L85.5938 125.916V127.047Z" fill="#25054D"/>
<path d="M87.4488 125.973L86.4561 126.543V125.412L87.4488 124.842V125.973Z" fill="#2AF6FF"/>
<path d="M89.3049 124.898L88.3203 125.475V124.336L89.3049 123.767V124.898Z" fill="#25054D"/>
<path d="M91.1599 123.833L90.1753 124.402V123.263L91.1599 122.693V123.833Z" fill="#2AF6FF"/>
<path d="M93.023 122.758L92.0303 123.328V122.197L93.023 121.619V122.758Z" fill="#2AF6FF"/>
<path d="M94.879 121.684L93.8862 122.254V121.123L94.879 120.553V121.684Z" fill="#2AF6FF"/>
<path d="M96.7341 120.61L95.7495 121.179V120.048L96.7341 119.479V120.61Z" fill="#4B61B8"/>
<path d="M98.5891 119.536L97.6045 120.114V118.974L98.5891 118.405V119.536Z" fill="#4B61B8"/>
<path d="M100.453 118.47L99.4604 119.04V117.901L100.453 117.331V118.47Z" fill="#4B61B8"/>
<path d="M102.308 117.396L101.315 117.966V116.835L102.308 116.257V117.396Z" fill="#4B61B8"/>
<path d="M104.163 116.322L103.178 116.892V115.761L104.163 115.191V116.322Z" fill="#4B61B8"/>
<path d="M83.7393 130.114L82.7466 130.692V129.553L83.7393 128.983V130.114Z" fill="#2AF6FF"/>
<path d="M85.5938 129.049L84.6011 129.618V128.487L85.5938 127.91V129.049Z" fill="#4B61B8"/>
<path d="M87.4488 127.975L86.4561 128.544V127.413L87.4488 126.844V127.975Z" fill="#4B61B8"/>
<path d="M89.3049 126.9L88.3203 127.47V126.339L89.3049 125.769V126.9Z" fill="#4B61B8"/>
<path d="M91.1599 125.835L90.1753 126.404V125.265L91.1599 124.695V125.835Z" fill="#4B61B8"/>
<path d="M93.023 124.76L92.0303 125.33V124.191L93.023 123.621V124.76Z" fill="#4B61B8"/>
<path d="M94.879 123.686L93.8862 124.255V123.124L94.879 122.555V123.686Z" fill="#25054D"/>
<path d="M96.7341 122.612L95.7495 123.181V122.05L96.7341 121.48V122.612Z" fill="#2AF6FF"/>
<path d="M98.5891 121.537L97.6045 122.107V120.976L98.5891 120.406V121.537Z" fill="#4B61B8"/>
<path d="M100.453 120.473L99.4604 121.042V119.903L100.453 119.333V120.473Z" fill="#4B61B8"/>
<path d="M102.308 119.398L101.315 119.968V118.828L102.308 118.259V119.398Z" fill="#4B61B8"/>
<path d="M104.163 118.324L103.178 118.894V117.762L104.163 117.193V118.324Z" fill="#2AF6FF"/>
<path d="M47.1792 105.801L77.9211 123.703L108.533 105.834L77.7665 87.916L47.1792 105.801Z" fill="url(#paint84_linear_3164_1310)"/>
<path d="M77.8965 117.982V122.995L106.36 106.395V101.383L77.8965 117.982Z" fill="url(#paint85_linear_3164_1310)"/>
<path d="M77.9128 117.982V122.995L49.3516 106.346V101.35L77.9128 117.982Z" fill="url(#paint86_linear_3164_1310)"/>
<path d="M77.9053 107.631V122.652L108.533 104.783V89.7622L77.9053 107.631Z" fill="url(#paint87_linear_3164_1310)"/>
<path d="M77.9211 107.631V122.652L47.1792 104.734V89.7295L77.9211 107.631Z" fill="url(#paint88_linear_3164_1310)"/>
<path d="M49.7744 103.246V94.2466L75.3168 109.121V118.137L49.7744 103.246Z" fill="#25054D"/>
<path d="M76.042 119.422L49.0513 103.685V92.9932L76.042 108.706V119.422ZM50.4997 102.855L74.5936 116.9V109.577L50.4997 95.5401V102.855Z" fill="url(#paint89_linear_3164_1310)"/>
<path d="M71.8262 110.032L72.8189 110.602V109.471L71.8262 108.901V110.032Z" fill="#2AF6FF"/>
<path d="M69.9712 108.958L70.9639 109.528V108.397L69.9712 107.827V108.958Z" fill="#2AF6FF"/>
<path d="M68.1157 107.884L69.1084 108.454V107.323L68.1157 106.753V107.884Z" fill="#4B61B8"/>
<path d="M66.2598 106.818L67.2443 107.387V106.248L66.2598 105.679V106.818Z" fill="#25054D"/>
<path d="M64.4058 105.744L65.3903 106.313V105.174L64.4058 104.604V105.744Z" fill="#25054D"/>
<path d="M62.542 104.67L63.5347 105.24V104.109L62.542 103.539V104.67Z" fill="#4B61B8"/>
<path d="M60.6865 103.595L61.6792 104.165V103.033L60.6865 102.464V103.595Z" fill="#4B61B8"/>
<path d="M58.8311 102.521L59.8157 103.099V101.96L58.8311 101.39V102.521Z" fill="#4B61B8"/>
<path d="M56.9761 101.456L57.9607 102.025V100.886L56.9761 100.316V101.456Z" fill="#25054D"/>
<path d="M55.1128 100.381L56.1055 100.951V99.8199L55.1128 99.2422V100.381Z" fill="#4B61B8"/>
<path d="M53.2573 99.3083L54.25 99.8779V98.7468L53.2573 98.1772V99.3083Z" fill="#2AF6FF"/>
<path d="M51.4023 98.2336L52.3869 98.8113V97.6721L51.4023 97.1025V98.2336Z" fill="#2AF6FF"/>
<path d="M71.8262 112.05L72.8189 112.62V111.481L71.8262 110.911V112.05Z" fill="#4B61B8"/>
<path d="M69.9712 110.977L70.9639 111.546V110.415L69.9712 109.846V110.977Z" fill="#2AF6FF"/>
<path d="M68.1157 109.903L69.1084 110.472V109.341L68.1157 108.771V109.903Z" fill="#2AF6FF"/>
<path d="M66.2598 108.827L67.2443 109.405V108.266L66.2598 107.696V108.827Z" fill="#25054D"/>
<path d="M64.4058 107.763L65.3903 108.332V107.193L64.4058 106.624V107.763Z" fill="#2AF6FF"/>
<path d="M62.542 106.688L63.5347 107.258V106.127L62.542 105.549V106.688Z" fill="#2AF6FF"/>
<path d="M60.6865 105.614L61.6792 106.184V105.053L60.6865 104.483V105.614Z" fill="#2AF6FF"/>
<path d="M58.8306 104.54L59.8152 105.109V103.978L58.8306 103.409V104.54Z" fill="#4B61B8"/>
<path d="M56.9761 103.466L57.9607 104.043V102.904L56.9761 102.334V103.466Z" fill="#4B61B8"/>
<path d="M55.1128 102.4L56.1055 102.97V101.83L55.1128 101.261V102.4Z" fill="#4B61B8"/>
<path d="M53.2573 101.325L54.25 101.895V100.764L53.2573 100.194V101.325Z" fill="#4B61B8"/>
<path d="M51.4023 100.251L52.3869 100.821V99.6897L51.4023 99.1201V100.251Z" fill="#4B61B8"/>
<path d="M71.8262 114.044L72.8189 114.622V113.483L71.8262 112.913V114.044Z" fill="#2AF6FF"/>
<path d="M69.9712 112.979L70.9639 113.548V112.417L69.9712 111.839V112.979Z" fill="#4B61B8"/>
<path d="M68.1157 111.904L69.1084 112.473V111.342L68.1157 110.772V111.904Z" fill="#4B61B8"/>
<path d="M66.2598 110.829L67.2443 111.398V110.267L66.2598 109.698V110.829Z" fill="#4B61B8"/>
<path d="M64.4058 109.764L65.3903 110.333V109.194L64.4058 108.625V109.764Z" fill="#4B61B8"/>
<path d="M62.542 108.689L63.5347 109.259V108.12L62.542 107.55V108.689Z" fill="#4B61B8"/>
<path d="M60.6865 107.615L61.6792 108.185V107.053L60.6865 106.484V107.615Z" fill="#25054D"/>
<path d="M58.8306 106.541L59.8152 107.111V105.98L58.8306 105.41V106.541Z" fill="#2AF6FF"/>
<path d="M56.9761 105.466L57.9607 106.036V104.905L56.9761 104.335V105.466Z" fill="#4B61B8"/>
<path d="M55.1128 104.402L56.1055 104.971V103.832L55.1128 103.263V104.402Z" fill="#4B61B8"/>
<path d="M53.2573 103.327L54.25 103.897V102.766L53.2573 102.188V103.327Z" fill="#2AF6FF"/>
<path d="M51.4023 102.253L52.3869 102.822V101.691L51.4023 101.122V102.253Z" fill="#2AF6FF"/>
<path style="mix-blend-mode:screen" d="M77.9211 107.144L47.6023 89.4863L47.1792 89.7304L77.9211 107.632L108.533 89.763L108.118 89.5189L77.9211 107.144Z" fill="url(#paint90_radial_3164_1310)"/>
<path d="M55.1772 89.9991L77.6926 103.108L100.517 89.9747L77.9774 76.8496L55.1772 89.9991Z" fill="url(#paint91_linear_3164_1310)"/>
<g style="mix-blend-mode:color-dodge">
<path d="M66.5698 96.5819L77.7746 103.108L89.1258 96.5738L77.9129 90.0479L66.5698 96.5819Z" fill="url(#paint92_radial_3164_1310)"/>
</g>
<g style="mix-blend-mode:screen" filter="url(#filter0_f_3164_1310)">
<path d="M100.672 42.4528L77.9374 29.2056L55.3325 42.4283V89.8839L77.8479 102.993L100.672 89.8595V42.4528Z" fill="url(#paint93_linear_3164_1310)" style="mix-blend-mode:screen"/>
</g>
<path d="M112.585 127.983V159.189L143.278 141.173V109.967L112.585 127.983Z" fill="url(#paint94_linear_3164_1310)"/>
<path d="M112.601 127.982V159.188L81.9238 141.302V110.121L112.601 127.982Z" fill="#AF0099"/>
<path d="M81.9238 110.121L112.601 127.982L143.277 109.967L112.56 92.0815L81.9238 110.121Z" fill="#7A096C"/>
<path style="mix-blend-mode:screen" d="M112.601 127.494L82.3388 109.869L81.9238 110.121L112.601 127.982L143.277 109.967L142.863 109.723L112.601 127.494Z" fill="url(#paint95_radial_3164_1310)"/>
<path d="M25.8833 157.374L30.9283 160.311L34.2157 158.367L29.1544 155.429L25.8833 157.374Z" fill="#E2953F"/>
<path d="M10.0166 148.251L15.0616 151.188L18.349 149.244L13.2877 146.306L10.0166 148.251Z" fill="#E2953F"/>
<path style="mix-blend-mode:multiply" d="M30.8725 160.034L41.1009 156.544L33.7775 152.133L26.5029 157.512L30.8725 160.034Z" fill="url(#paint96_linear_3164_1310)"/>
<path style="mix-blend-mode:multiply" d="M15.0705 150.742L25.3069 147.251L17.9835 142.849L10.709 148.227L15.0705 150.742Z" fill="url(#paint97_linear_3164_1310)"/>
<path d="M26.0876 139.619L20.9042 136.625C16.7462 134.225 13.3774 136.145 13.3774 140.913V146.731L17.7389 149.246V144.925C17.7389 142.207 19.6593 141.117 22.0191 142.484L24.9728 144.184C26.2106 144.995 27.2406 146.086 27.9798 147.368C28.719 148.65 29.1467 150.087 29.2285 151.565V155.894L33.59 158.408V152.598C33.6144 147.83 30.2457 142.02 26.0876 139.619Z" fill="url(#paint98_linear_3164_1310)"/>
<path d="M26.0872 139.619L20.9039 136.625C18.837 135.429 16.9655 135.307 15.6066 136.071L12.8237 137.699L13.377 141.06V146.699L14.4105 147.293L14.9963 150.84L17.7385 149.213V144.892C17.7385 142.174 19.6589 141.084 22.0187 142.451L24.9724 144.152C26.2145 144.966 27.2472 146.061 27.9866 147.349C28.726 148.637 29.1513 150.081 29.2281 151.564V155.893L30.3836 156.561L30.8393 160.035L33.5896 158.408V152.598C33.614 147.83 30.2453 142.02 26.0872 139.619Z" fill="url(#paint99_linear_3164_1310)"/>
<path style="mix-blend-mode:screen" d="M23.8168 141.042L18.6497 138.048C16.3225 136.705 14.2394 136.713 12.8643 137.828L13.4013 141.083V146.722L14.4347 147.316L15.0206 150.864L15.4925 150.587V146.339C15.4925 144.33 16.5422 143.207 18.0557 143.321C18.666 141.831 20.2202 141.416 22.0429 142.507L24.9966 144.208C26.2267 145.019 27.25 146.106 27.9847 147.384C28.7194 148.661 29.1452 150.092 29.2279 151.563V155.892L30.3834 156.56L30.8391 160.034L31.3192 159.757V154.021C31.3436 149.252 27.9748 143.443 23.8168 141.042Z" fill="url(#paint100_radial_3164_1310)"/>
<path d="M23.3459 141.246L18.1544 138.252C13.9964 135.851 10.6357 137.771 10.6357 142.54V148.358L14.9972 150.872V146.551C14.9972 143.834 16.9094 142.743 19.2773 144.11L22.223 145.811C23.4667 146.618 24.5024 147.706 25.2462 148.989C25.9899 150.271 26.4205 151.711 26.5031 153.191V157.52L30.8646 160.035V154.225C30.8564 149.456 27.4958 143.646 23.3459 141.246Z" fill="url(#paint101_linear_3164_1310)"/>
<defs>
<filter id="filter0_f_3164_1310" x="46.0325" y="19.9056" width="63.9398" height="92.3871" filterUnits="userSpaceOnUse" color-interpolation-filters="sRGB">
<feFlood flood-opacity="0" result="BackgroundImageFix"/>
<feBlend mode="normal" in="SourceGraphic" in2="BackgroundImageFix" result="shape"/>
<feGaussianBlur stdDeviation="4.65" result="effect1_foregroundBlur_3164_1310"/>
</filter>
<linearGradient id="paint0_linear_3164_1310" x1="146.419" y1="59.4033" x2="152.945" y2="74.042" gradientUnits="userSpaceOnUse">
<stop offset="0.04" stop-color="#FFA98C"/>
<stop offset="0.32" stop-color="#FFB892"/>
<stop offset="0.86" stop-color="#FEE1A3"/>
<stop offset="1" stop-color="#FEECA8"/>
</linearGradient>
<linearGradient id="paint1_linear_3164_1310" x1="81.5506" y1="16.2118" x2="144.231" y2="92.554" gradientUnits="userSpaceOnUse">
<stop offset="0.04" stop-color="#FFA98C"/>
<stop offset="0.32" stop-color="#FFB892"/>
<stop offset="0.86" stop-color="#FEE1A3"/>
<stop offset="1" stop-color="#FEECA8"/>
</linearGradient>
<linearGradient id="paint2_linear_3164_1310" x1="144.841" y1="-24.3024" x2="125.312" y2="62.7645" gradientUnits="userSpaceOnUse">
<stop offset="0.04" stop-color="#FFA98C"/>
<stop offset="0.32" stop-color="#FFB892"/>
<stop offset="0.86" stop-color="#FEE1A3"/>
<stop offset="1" stop-color="#FEECA8"/>
</linearGradient>
<radialGradient id="paint3_radial_3164_1310" cx="0" cy="0" r="1" gradientUnits="userSpaceOnUse" gradientTransform="translate(129.527 52.7792) scale(22.6293 22.6292)">
<stop offset="0.1" stop-color="#FFE4A7"/>
<stop offset="0.42" stop-color="#F4BE4C"/>
<stop offset="0.67" stop-color="#ECA30A"/>
<stop offset="1"/>
</radialGradient>
<linearGradient id="paint4_linear_3164_1310" x1="146.419" y1="50.9986" x2="152.945" y2="65.6372" gradientUnits="userSpaceOnUse">
<stop offset="0.04" stop-color="#FFA98C"/>
<stop offset="0.32" stop-color="#FFB892"/>
<stop offset="0.86" stop-color="#FEE1A3"/>
<stop offset="1" stop-color="#FEECA8"/>
</linearGradient>
<linearGradient id="paint5_linear_3164_1310" x1="81.5511" y1="7.80559" x2="144.231" y2="84.1396" gradientUnits="userSpaceOnUse">
<stop offset="0.04" stop-color="#FFA98C"/>
<stop offset="0.32" stop-color="#FFB892"/>
<stop offset="0.86" stop-color="#FEE1A3"/>
<stop offset="1" stop-color="#FEECA8"/>
</linearGradient>
<linearGradient id="paint6_linear_3164_1310" x1="144.841" y1="-32.7086" x2="125.312" y2="54.3583" gradientUnits="userSpaceOnUse">
<stop offset="0.04" stop-color="#FFA98C"/>
<stop offset="0.32" stop-color="#FFB892"/>
<stop offset="0.86" stop-color="#FEE1A3"/>
<stop offset="1" stop-color="#FEECA8"/>
</linearGradient>
<radialGradient id="paint7_radial_3164_1310" cx="0" cy="0" r="1" gradientUnits="userSpaceOnUse" gradientTransform="translate(129.527 44.3744) scale(22.6293 22.6293)">
<stop offset="0.1" stop-color="#FFE4A7"/>
<stop offset="0.42" stop-color="#F4BE4C"/>
<stop offset="0.67" stop-color="#ECA30A"/>
<stop offset="1"/>
</radialGradient>
<linearGradient id="paint8_linear_3164_1310" x1="146.419" y1="42.584" x2="152.945" y2="57.2226" gradientUnits="userSpaceOnUse">
<stop offset="0.04" stop-color="#FFA98C"/>
<stop offset="0.32" stop-color="#FFB892"/>
<stop offset="0.86" stop-color="#FEE1A3"/>
<stop offset="1" stop-color="#FEECA8"/>
</linearGradient>
<linearGradient id="paint9_linear_3164_1310" x1="81.5511" y1="-0.608476" x2="144.231" y2="75.7337" gradientUnits="userSpaceOnUse">
<stop offset="0.04" stop-color="#FFA98C"/>
<stop offset="0.32" stop-color="#FFB892"/>
<stop offset="0.86" stop-color="#FEE1A3"/>
<stop offset="1" stop-color="#FEECA8"/>
</linearGradient>
<linearGradient id="paint10_linear_3164_1310" x1="144.841" y1="-41.1136" x2="125.312" y2="45.9533" gradientUnits="userSpaceOnUse">
<stop offset="0.04" stop-color="#FFA98C"/>
<stop offset="0.32" stop-color="#FFB892"/>
<stop offset="0.86" stop-color="#FEE1A3"/>
<stop offset="1" stop-color="#FEECA8"/>
</linearGradient>
<radialGradient id="paint11_radial_3164_1310" cx="0" cy="0" r="1" gradientUnits="userSpaceOnUse" gradientTransform="translate(129.527 35.9682) scale(22.6293 22.6292)">
<stop offset="0.1" stop-color="#FFE4A7"/>
<stop offset="0.42" stop-color="#F4BE4C"/>
<stop offset="0.67" stop-color="#ECA30A"/>
<stop offset="1"/>
</radialGradient>
<linearGradient id="paint12_linear_3164_1310" x1="146.419" y1="34.1782" x2="152.945" y2="48.8169" gradientUnits="userSpaceOnUse">
<stop offset="0.04" stop-color="#FFA98C"/>
<stop offset="0.32" stop-color="#FFB892"/>
<stop offset="0.86" stop-color="#FEE1A3"/>
<stop offset="1" stop-color="#FEECA8"/>
</linearGradient>
<linearGradient id="paint13_linear_3164_1310" x1="81.5506" y1="-9.01326" x2="144.231" y2="67.3289" gradientUnits="userSpaceOnUse">
<stop offset="0.04" stop-color="#FFA98C"/>
<stop offset="0.32" stop-color="#FFB892"/>
<stop offset="0.86" stop-color="#FEE1A3"/>
<stop offset="1" stop-color="#FEECA8"/>
</linearGradient>
<linearGradient id="paint14_linear_3164_1310" x1="149.609" y1="-70.7983" x2="130.08" y2="16.2686" gradientUnits="userSpaceOnUse">
<stop offset="0.04" stop-color="#FFA98C"/>
<stop offset="0.32" stop-color="#FFB892"/>
<stop offset="0.86" stop-color="#FEE1A3"/>
<stop offset="1" stop-color="#FEECA8"/>
</linearGradient>
<linearGradient id="paint15_linear_3164_1310" x1="124.164" y1="11.2071" x2="142.334" y2="36.7739" gradientUnits="userSpaceOnUse">
<stop stop-color="#AF0099"/>
<stop offset="1" stop-color="#E82FD1"/>
</linearGradient>
<radialGradient id="paint16_radial_3164_1310" cx="0" cy="0" r="1" gradientUnits="userSpaceOnUse" gradientTransform="translate(129.527 27.5546) scale(22.6293)">
<stop offset="0.1" stop-color="#FFE4A7"/>
<stop offset="0.42" stop-color="#F4BE4C"/>
<stop offset="0.67" stop-color="#ECA30A"/>
<stop offset="1"/>
</radialGradient>
<radialGradient id="paint17_radial_3164_1310" cx="0" cy="0" r="1" gradientUnits="userSpaceOnUse" gradientTransform="translate(131.236 26.8054) scale(14.1911 14.1911)">
<stop stop-color="white"/>
<stop offset="1"/>
</radialGradient>
<radialGradient id="paint18_radial_3164_1310" cx="0" cy="0" r="1" gradientUnits="userSpaceOnUse" gradientTransform="translate(149.063 127.666) scale(31.458 31.458)">
<stop offset="0.1" stop-color="#45108A"/>
<stop offset="0.67" stop-color="#25054D"/>
<stop offset="1"/>
</radialGradient>
<linearGradient id="paint19_linear_3164_1310" x1="133.318" y1="176.146" x2="155.785" y2="226.555" gradientUnits="userSpaceOnUse">
<stop stop-color="#25054D"/>
<stop offset="1" stop-color="#45108A"/>
</linearGradient>
<radialGradient id="paint20_radial_3164_1310" cx="0" cy="0" r="1" gradientUnits="userSpaceOnUse" gradientTransform="translate(112.601 148.342) scale(31.458 31.458)">
<stop offset="0.1" stop-color="#45108A"/>
<stop offset="0.67" stop-color="#25054D"/>
<stop offset="1"/>
</radialGradient>
<linearGradient id="paint21_linear_3164_1310" x1="204.501" y1="176.488" x2="226.967" y2="226.906" gradientUnits="userSpaceOnUse">
<stop stop-color="#B4079E"/>
<stop offset="1" stop-color="#57004C"/>
</linearGradient>
<linearGradient id="paint22_linear_3164_1310" x1="168.91" y1="197.164" x2="191.376" y2="247.582" gradientUnits="userSpaceOnUse">
<stop stop-color="#B4079E"/>
<stop offset="1" stop-color="#57004C"/>
</linearGradient>
<linearGradient id="paint23_linear_3164_1310" x1="25.7219" y1="166.121" x2="51.6222" y2="151.751" gradientUnits="userSpaceOnUse">
<stop stop-color="#972A74"/>
<stop offset="0.04" stop-color="#8A266A"/>
<stop offset="0.19" stop-color="#601B4A"/>
<stop offset="0.35" stop-color="#3D112F"/>
<stop offset="0.51" stop-color="#230A1B"/>
<stop offset="0.67" stop-color="#0F040C"/>
<stop offset="0.83" stop-color="#040103"/>
<stop offset="1"/>
</linearGradient>
<linearGradient id="paint24_linear_3164_1310" x1="42.3618" y1="188.971" x2="63.3067" y2="235.962" gradientUnits="userSpaceOnUse">
<stop offset="0.04" stop-color="#FFA98C"/>
<stop offset="0.32" stop-color="#FFB892"/>
<stop offset="0.86" stop-color="#FEE1A3"/>
<stop offset="1" stop-color="#FEECA8"/>
</linearGradient>
<linearGradient id="paint25_linear_3164_1310" x1="-49.6688" y1="93.5377" x2="62.6393" y2="230.306" gradientUnits="userSpaceOnUse">
<stop offset="0.04" stop-color="#FFA98C"/>
<stop offset="0.32" stop-color="#FFB892"/>
<stop offset="0.86" stop-color="#FEE1A3"/>
<stop offset="1" stop-color="#FEECA8"/>
</linearGradient>
<linearGradient id="paint26_linear_3164_1310" x1="4.2148" y1="172.713" x2="14.9232" y2="172.713" gradientUnits="userSpaceOnUse">
<stop stop-color="#AF0099"/>
<stop offset="1" stop-color="#E82FD1"/>
</linearGradient>
<linearGradient id="paint27_linear_3164_1310" x1="32.4019" y1="106.842" x2="20.4973" y2="159.896" gradientUnits="userSpaceOnUse">
<stop offset="0.04" stop-color="#FFA98C"/>
<stop offset="0.32" stop-color="#FFB892"/>
<stop offset="0.86" stop-color="#FEE1A3"/>
<stop offset="1" stop-color="#FEECA8"/>
</linearGradient>
<radialGradient id="paint28_radial_3164_1310" cx="0" cy="0" r="1" gradientUnits="userSpaceOnUse" gradientTransform="translate(22.0108 156.984) scale(29.1959 29.1959)">
<stop offset="0.1" stop-color="#FFE4A7"/>
<stop offset="0.42" stop-color="#F4BE4C"/>
<stop offset="0.67" stop-color="#ECA30A"/>
<stop offset="1"/>
</radialGradient>
<radialGradient id="paint29_radial_3164_1310" cx="0" cy="0" r="1" gradientUnits="userSpaceOnUse" gradientTransform="translate(22.4504 170.385) scale(14.2074 14.2074)">
<stop stop-color="white"/>
<stop offset="1"/>
</radialGradient>
<radialGradient id="paint30_radial_3164_1310" cx="0" cy="0" r="1" gradientUnits="userSpaceOnUse" gradientTransform="translate(39.7417 180.003) scale(38.7976 38.7976)">
<stop stop-color="#FDD65B"/>
<stop offset="0.21" stop-color="#B19540"/>
<stop offset="0.47" stop-color="#52461E"/>
<stop offset="0.66" stop-color="#171308"/>
<stop offset="0.75"/>
</radialGradient>
<radialGradient id="paint31_radial_3164_1310" cx="0" cy="0" r="1" gradientUnits="userSpaceOnUse" gradientTransform="translate(43.151 113.726) scale(31.458 31.458)">
<stop offset="0.1" stop-color="#45108A"/>
<stop offset="0.67" stop-color="#25054D"/>
<stop offset="1"/>
</radialGradient>
<radialGradient id="paint32_radial_3164_1310" cx="0" cy="0" r="1" gradientUnits="userSpaceOnUse" gradientTransform="translate(24.4851 152.036) scale(37.3167 37.3167)">
<stop stop-color="#FDD65B"/>
<stop offset="0.21" stop-color="#B19540"/>
<stop offset="0.47" stop-color="#52461E"/>
<stop offset="0.66" stop-color="#171308"/>
<stop offset="0.75"/>
</radialGradient>
<linearGradient id="paint33_linear_3164_1310" x1="133.318" y1="217.841" x2="155.785" y2="268.258" gradientUnits="userSpaceOnUse">
<stop stop-color="#B4079E"/>
<stop offset="1" stop-color="#57004C"/>
</linearGradient>
<radialGradient id="paint34_radial_3164_1310" cx="0" cy="0" r="1" gradientUnits="userSpaceOnUse" gradientTransform="translate(112.601 190.036) scale(31.458 31.458)">
<stop offset="0.1" stop-color="#45108A"/>
<stop offset="0.67" stop-color="#25054D"/>
<stop offset="1"/>
</radialGradient>
<radialGradient id="paint35_radial_3164_1310" cx="0" cy="0" r="1" gradientUnits="userSpaceOnUse" gradientTransform="translate(77.8803 134.085) scale(31.458 31.458)">
<stop offset="0.1" stop-color="#45108A"/>
<stop offset="0.67" stop-color="#25054D"/>
<stop offset="1"/>
</radialGradient>
<linearGradient id="paint36_linear_3164_1310" x1="129.372" y1="160.384" x2="135.385" y2="173.868" gradientUnits="userSpaceOnUse">
<stop stop-color="#25054D"/>
<stop offset="1" stop-color="#45108A"/>
</linearGradient>
<radialGradient id="paint37_radial_3164_1310" cx="0" cy="0" r="1" gradientUnits="userSpaceOnUse" gradientTransform="translate(112.601 154.445) scale(31.1 31.1)">
<stop offset="0.1" stop-color="#45108A"/>
<stop offset="0.67" stop-color="#25054D"/>
<stop offset="1"/>
</radialGradient>
<radialGradient id="paint38_radial_3164_1310" cx="0" cy="0" r="1" gradientUnits="userSpaceOnUse" gradientTransform="translate(145.524 159.05) scale(31.4661 31.4661)">
<stop stop-color="#FDD65B"/>
<stop offset="0.21" stop-color="#B19540"/>
<stop offset="0.47" stop-color="#52461E"/>
<stop offset="0.66" stop-color="#171308"/>
<stop offset="0.75"/>
</radialGradient>
<linearGradient id="paint39_linear_3164_1310" x1="93.214" y1="173.221" x2="113.177" y2="176.67" gradientUnits="userSpaceOnUse">
<stop stop-color="#AF0099"/>
<stop offset="1" stop-color="#E846D1"/>
</linearGradient>
<linearGradient id="paint40_linear_3164_1310" x1="204.501" y1="140.896" x2="226.967" y2="191.314" gradientUnits="userSpaceOnUse">
<stop stop-color="#B4079E"/>
<stop offset="1" stop-color="#57004C"/>
</linearGradient>
<radialGradient id="paint41_radial_3164_1310" cx="0" cy="0" r="1" gradientUnits="userSpaceOnUse" gradientTransform="translate(183.784 113.092) scale(31.458 31.458)">
<stop offset="0.1" stop-color="#45108A"/>
<stop offset="0.67" stop-color="#25054D"/>
<stop offset="1"/>
</radialGradient>
<linearGradient id="paint42_linear_3164_1310" x1="139.755" y1="144.946" x2="178.406" y2="154.711" gradientUnits="userSpaceOnUse">
<stop stop-color="#AF0099"/>
<stop offset="1" stop-color="#E846D1"/>
</linearGradient>
<radialGradient id="paint43_radial_3164_1310" cx="0" cy="0" r="1" gradientUnits="userSpaceOnUse" gradientTransform="translate(149.063 57.1415) scale(31.458 31.458)">
<stop offset="0.1" stop-color="#45108A"/>
<stop offset="0.67" stop-color="#25054D"/>
<stop offset="1"/>
</radialGradient>
<radialGradient id="paint44_radial_3164_1310" cx="0" cy="0" r="1" gradientUnits="userSpaceOnUse" gradientTransform="translate(155.948 96.175) scale(5.74479)">
<stop offset="0.15" stop-color="#5213A6"/>
<stop offset="0.25" stop-color="#45108A"/>
<stop offset="0.8" stop-color="#25054D"/>
<stop offset="0.97" stop-color="#2D085C"/>
</radialGradient>
<radialGradient id="paint45_radial_3164_1310" cx="0" cy="0" r="1" gradientUnits="userSpaceOnUse" gradientTransform="translate(155.948 69.7287) scale(5.74479)">
<stop offset="0.15" stop-color="#5213A6"/>
<stop offset="0.25" stop-color="#45108A"/>
<stop offset="0.8" stop-color="#25054D"/>
<stop offset="0.97" stop-color="#2D085C"/>
</radialGradient>
<radialGradient id="paint46_radial_3164_1310" cx="0" cy="0" r="1" gradientUnits="userSpaceOnUse" gradientTransform="translate(155.948 69.7287) scale(5.74479)">
<stop offset="0.15" stop-color="#F42DDC"/>
<stop offset="0.25" stop-color="#F42DDC"/>
<stop offset="0.8" stop-color="#860976"/>
<stop offset="0.97" stop-color="#860976"/>
</radialGradient>
<radialGradient id="paint47_radial_3164_1310" cx="0" cy="0" r="1" gradientUnits="userSpaceOnUse" gradientTransform="translate(182.189 85.5959) scale(5.7448 5.74479)">
<stop offset="0.15" stop-color="#5213A6"/>
<stop offset="0.25" stop-color="#45108A"/>
<stop offset="0.8" stop-color="#25054D"/>
<stop offset="0.97" stop-color="#2D085C"/>
</radialGradient>
<radialGradient id="paint48_radial_3164_1310" cx="0" cy="0" r="1" gradientUnits="userSpaceOnUse" gradientTransform="translate(182.189 85.5959) scale(5.7448 5.74479)">
<stop offset="0.15" stop-color="#F42DDC"/>
<stop offset="0.25" stop-color="#F42DDC"/>
<stop offset="0.8" stop-color="#860976"/>
<stop offset="0.97" stop-color="#860976"/>
</radialGradient>
<radialGradient id="paint49_radial_3164_1310" cx="0" cy="0" r="1" gradientUnits="userSpaceOnUse" gradientTransform="translate(174.663 97.5988) scale(5.7448 5.74479)">
<stop offset="0.15" stop-color="#5213A6"/>
<stop offset="0.25" stop-color="#45108A"/>
<stop offset="0.8" stop-color="#25054D"/>
<stop offset="0.97" stop-color="#2D085C"/>
</radialGradient>
<radialGradient id="paint50_radial_3164_1310" cx="0" cy="0" r="1" gradientUnits="userSpaceOnUse" gradientTransform="translate(174.663 97.5988) scale(5.7448 5.74479)">
<stop offset="0.15" stop-color="#F42DDC"/>
<stop offset="0.25" stop-color="#F42DDC"/>
<stop offset="0.8" stop-color="#860976"/>
<stop offset="0.97" stop-color="#860976"/>
</radialGradient>
<radialGradient id="paint51_radial_3164_1310" cx="0" cy="0" r="1" gradientUnits="userSpaceOnUse" gradientTransform="translate(208.838 69.7287) scale(5.7448 5.74479)">
<stop offset="0.15" stop-color="#5213A6"/>
<stop offset="0.25" stop-color="#45108A"/>
<stop offset="0.8" stop-color="#25054D"/>
<stop offset="0.97" stop-color="#2D085C"/>
</radialGradient>
<radialGradient id="paint52_radial_3164_1310" cx="0" cy="0" r="1" gradientUnits="userSpaceOnUse" gradientTransform="translate(208.838 69.7287) scale(5.7448 5.74479)">
<stop offset="0.15" stop-color="#F42DDC"/>
<stop offset="0.25" stop-color="#F42DDC"/>
<stop offset="0.8" stop-color="#CD0FB5"/>
<stop offset="0.97" stop-color="#CD0FB5"/>
</radialGradient>
<radialGradient id="paint53_radial_3164_1310" cx="0" cy="0" r="1" gradientUnits="userSpaceOnUse" gradientTransform="translate(208.838 69.7287) scale(5.7448 5.74479)">
<stop offset="0.15" stop-color="#F42DDC"/>
<stop offset="0.25" stop-color="#F42DDC"/>
<stop offset="0.8" stop-color="#860976"/>
<stop offset="0.97" stop-color="#860976"/>
</radialGradient>
<radialGradient id="paint54_radial_3164_1310" cx="0" cy="0" r="1" gradientUnits="userSpaceOnUse" gradientTransform="translate(208.838 95.7673) scale(5.7448 5.74479)">
<stop offset="0.15" stop-color="#F42DDC"/>
<stop offset="0.25" stop-color="#F42DDC"/>
<stop offset="0.8" stop-color="#CD0FB5"/>
<stop offset="0.97" stop-color="#CD0FB5"/>
</radialGradient>
<radialGradient id="paint55_radial_3164_1310" cx="0" cy="0" r="1" gradientUnits="userSpaceOnUse" gradientTransform="translate(208.838 95.7673) scale(5.7448 5.74479)">
<stop offset="0.15" stop-color="#F42DDC"/>
<stop offset="0.25" stop-color="#F42DDC"/>
<stop offset="0.8" stop-color="#860976"/>
<stop offset="0.97" stop-color="#860976"/>
</radialGradient>
<radialGradient id="paint56_radial_3164_1310" cx="0" cy="0" r="1" gradientUnits="userSpaceOnUse" gradientTransform="translate(182.189 111.839) scale(5.7448 5.74479)">
<stop offset="0.15" stop-color="#5213A6"/>
<stop offset="0.25" stop-color="#45108A"/>
<stop offset="0.8" stop-color="#25054D"/>
<stop offset="0.97" stop-color="#2D085C"/>
</radialGradient>
<radialGradient id="paint57_radial_3164_1310" cx="0" cy="0" r="1" gradientUnits="userSpaceOnUse" gradientTransform="translate(182.189 111.839) scale(5.7448 5.74479)">
<stop offset="0.15" stop-color="#F42DDC"/>
<stop offset="0.25" stop-color="#F42DDC"/>
<stop offset="0.8" stop-color="#860976"/>
<stop offset="0.97" stop-color="#860976"/>
</radialGradient>
<radialGradient id="paint58_radial_3164_1310" cx="0" cy="0" r="1" gradientUnits="userSpaceOnUse" gradientTransform="translate(182.189 53.862) scale(5.7448 5.74479)">
<stop offset="0.15" stop-color="#5213A6"/>
<stop offset="0.25" stop-color="#45108A"/>
<stop offset="0.8" stop-color="#25054D"/>
<stop offset="0.97" stop-color="#2D085C"/>
</radialGradient>
<radialGradient id="paint59_radial_3164_1310" cx="0" cy="0" r="1" gradientUnits="userSpaceOnUse" gradientTransform="translate(182.189 53.862) scale(5.7448 5.74479)">
<stop offset="0.15" stop-color="#F42DDC"/>
<stop offset="0.25" stop-color="#F42DDC"/>
<stop offset="0.8" stop-color="#CD0FB5"/>
<stop offset="0.97" stop-color="#CD0FB5"/>
</radialGradient>
<radialGradient id="paint60_radial_3164_1310" cx="0" cy="0" r="1" gradientUnits="userSpaceOnUse" gradientTransform="translate(182.189 53.862) scale(5.7448 5.74479)">
<stop offset="0.15" stop-color="#F42DDC"/>
<stop offset="0.25" stop-color="#F42DDC"/>
<stop offset="0.8" stop-color="#860976"/>
<stop offset="0.97" stop-color="#860976"/>
</radialGradient>
<radialGradient id="paint61_radial_3164_1310" cx="0" cy="0" r="1" gradientUnits="userSpaceOnUse" gradientTransform="translate(188.496 69.5265) scale(5.7448 5.74479)">
<stop offset="0.15" stop-color="#5213A6"/>
<stop offset="0.25" stop-color="#45108A"/>
<stop offset="0.8" stop-color="#25054D"/>
<stop offset="0.97" stop-color="#2D085C"/>
</radialGradient>
<radialGradient id="paint62_radial_3164_1310" cx="0" cy="0" r="1" gradientUnits="userSpaceOnUse" gradientTransform="translate(188.496 69.5265) scale(5.7448 5.74479)">
<stop offset="0.15" stop-color="#F42DDC"/>
<stop offset="0.25" stop-color="#F42DDC"/>
<stop offset="0.8" stop-color="#CD0FB5"/>
<stop offset="0.97" stop-color="#CD0FB5"/>
</radialGradient>
<radialGradient id="paint63_radial_3164_1310" cx="0" cy="0" r="1" gradientUnits="userSpaceOnUse" gradientTransform="translate(188.496 69.5265) scale(5.7448 5.74479)">
<stop offset="0.15" stop-color="#F42DDC"/>
<stop offset="0.25" stop-color="#F42DDC"/>
<stop offset="0.8" stop-color="#860976"/>
<stop offset="0.97" stop-color="#860976"/>
</radialGradient>
<radialGradient id="paint64_radial_3164_1310" cx="0" cy="0" r="1" gradientUnits="userSpaceOnUse" gradientTransform="translate(197.447 78.8835) scale(5.7448 5.74479)">
<stop offset="0.15" stop-color="#5213A6"/>
<stop offset="0.25" stop-color="#45108A"/>
<stop offset="0.8" stop-color="#25054D"/>
<stop offset="0.97" stop-color="#2D085C"/>
</radialGradient>
<radialGradient id="paint65_radial_3164_1310" cx="0" cy="0" r="1" gradientUnits="userSpaceOnUse" gradientTransform="translate(197.447 78.8835) scale(5.7448 5.74479)">
<stop offset="0.15" stop-color="#F42DDC"/>
<stop offset="0.25" stop-color="#F42DDC"/>
<stop offset="0.8" stop-color="#860976"/>
<stop offset="0.97" stop-color="#860976"/>
</radialGradient>
<radialGradient id="paint66_radial_3164_1310" cx="0" cy="0" r="1" gradientUnits="userSpaceOnUse" gradientTransform="translate(192.459 94.1398) scale(5.7448 5.74479)">
<stop offset="0.15" stop-color="#5213A6"/>
<stop offset="0.25" stop-color="#45108A"/>
<stop offset="0.8" stop-color="#25054D"/>
<stop offset="0.97" stop-color="#2D085C"/>
</radialGradient>
<radialGradient id="paint67_radial_3164_1310" cx="0" cy="0" r="1" gradientUnits="userSpaceOnUse" gradientTransform="translate(192.459 94.1398) scale(5.7448 5.74479)">
<stop offset="0.15" stop-color="#F42DDC"/>
<stop offset="0.25" stop-color="#F42DDC"/>
<stop offset="0.8" stop-color="#CD0FB5"/>
<stop offset="0.97" stop-color="#CD0FB5"/>
</radialGradient>
<radialGradient id="paint68_radial_3164_1310" cx="0" cy="0" r="1" gradientUnits="userSpaceOnUse" gradientTransform="translate(192.459 94.1398) scale(5.7448 5.74479)">
<stop offset="0.15" stop-color="#F42DDC"/>
<stop offset="0.25" stop-color="#F42DDC"/>
<stop offset="0.8" stop-color="#860976"/>
<stop offset="0.97" stop-color="#860976"/>
</radialGradient>
<radialGradient id="paint69_radial_3164_1310" cx="0" cy="0" r="1" gradientUnits="userSpaceOnUse" gradientTransform="translate(168.967 82.3415) scale(5.7448 5.74479)">
<stop offset="0.15" stop-color="#5213A6"/>
<stop offset="0.25" stop-color="#45108A"/>
<stop offset="0.8" stop-color="#25054D"/>
<stop offset="0.97" stop-color="#2D085C"/>
</radialGradient>
<radialGradient id="paint70_radial_3164_1310" cx="0" cy="0" r="1" gradientUnits="userSpaceOnUse" gradientTransform="translate(168.967 82.3415) scale(5.7448 5.74479)">
<stop offset="0.15" stop-color="#F42DDC"/>
<stop offset="0.25" stop-color="#F42DDC"/>
<stop offset="0.8" stop-color="#860976"/>
<stop offset="0.97" stop-color="#860976"/>
</radialGradient>
<radialGradient id="paint71_radial_3164_1310" cx="0" cy="0" r="1" gradientUnits="userSpaceOnUse" gradientTransform="translate(174.256 68.3049) scale(5.7448 5.74479)">
<stop offset="0.15" stop-color="#5213A6"/>
<stop offset="0.25" stop-color="#45108A"/>
<stop offset="0.8" stop-color="#25054D"/>
<stop offset="0.97" stop-color="#2D085C"/>
</radialGradient>
<radialGradient id="paint72_radial_3164_1310" cx="0" cy="0" r="1" gradientUnits="userSpaceOnUse" gradientTransform="translate(174.248 68.3049) scale(5.7448 5.74479)">
<stop offset="0.15" stop-color="#F42DDC"/>
<stop offset="0.25" stop-color="#F42DDC"/>
<stop offset="0.8" stop-color="#860976"/>
<stop offset="0.97" stop-color="#860976"/>
</radialGradient>
<radialGradient id="paint73_radial_3164_1310" cx="0" cy="0" r="1" gradientUnits="userSpaceOnUse" gradientTransform="translate(78.7428 57.4583) scale(31.458 31.458)">
<stop offset="0.1" stop-color="#45108A"/>
<stop offset="0.67" stop-color="#25054D"/>
<stop offset="1"/>
</radialGradient>
<radialGradient id="paint74_radial_3164_1310" cx="0" cy="0" r="1" gradientUnits="userSpaceOnUse" gradientTransform="translate(112.601 77.8173) scale(31.458 31.458)">
<stop offset="0.1" stop-color="#45108A"/>
<stop offset="0.67" stop-color="#25054D"/>
<stop offset="1"/>
</radialGradient>
<linearGradient id="paint75_linear_3164_1310" x1="168.91" y1="125.981" x2="191.376" y2="176.399" gradientUnits="userSpaceOnUse">
<stop stop-color="#B4079E"/>
<stop offset="1" stop-color="#57004C"/>
</linearGradient>
<radialGradient id="paint76_radial_3164_1310" cx="0" cy="0" r="1" gradientUnits="userSpaceOnUse" gradientTransform="translate(148.193 98.1762) scale(33.7608 33.7608)">
<stop offset="0.1" stop-color="#45108A"/>
<stop offset="0.67" stop-color="#25054D"/>
<stop offset="1"/>
</radialGradient>
<radialGradient id="paint77_radial_3164_1310" cx="0" cy="0" r="1" gradientUnits="userSpaceOnUse" gradientTransform="translate(156.305 152.54) scale(75.3494 75.3494)">
<stop stop-color="#FDD65B"/>
<stop offset="0.21" stop-color="#B19540"/>
<stop offset="0.47" stop-color="#52461E"/>
<stop offset="0.66" stop-color="#171308"/>
<stop offset="0.75"/>
</radialGradient>
<radialGradient id="paint78_radial_3164_1310" cx="0" cy="0" r="1" gradientUnits="userSpaceOnUse" gradientTransform="translate(43.151 78.1345) scale(31.458 31.458)">
<stop offset="0.1" stop-color="#45108A"/>
<stop offset="0.67" stop-color="#25054D"/>
<stop offset="1"/>
</radialGradient>
<linearGradient id="paint79_linear_3164_1310" x1="98.5976" y1="126.299" x2="121.056" y2="176.708" gradientUnits="userSpaceOnUse">
<stop stop-color="#25054D"/>
<stop offset="1" stop-color="#45108A"/>
</linearGradient>
<linearGradient id="paint80_linear_3164_1310" x1="87.8" y1="123.897" x2="159.097" y2="102.554" gradientUnits="userSpaceOnUse">
<stop stop-color="#25054D"/>
<stop offset="1" stop-color="#45108A"/>
</linearGradient>
<linearGradient id="paint81_linear_3164_1310" x1="79.7759" y1="122.279" x2="106.661" y2="122.279" gradientUnits="userSpaceOnUse">
<stop stop-color="#25054D"/>
<stop offset="1" stop-color="#45108A"/>
</linearGradient>
<linearGradient id="paint82_linear_3164_1310" x1="16.657" y1="132.547" x2="110.486" y2="111.513" gradientUnits="userSpaceOnUse">
<stop stop-color="#25054D"/>
<stop offset="1" stop-color="#45108A"/>
</linearGradient>
<linearGradient id="paint83_linear_3164_1310" x1="49.0513" y1="122.262" x2="76.042" y2="122.262" gradientUnits="userSpaceOnUse">
<stop stop-color="#25054D"/>
<stop offset="1" stop-color="#45108A"/>
</linearGradient>
<linearGradient id="paint84_linear_3164_1310" x1="109.802" y1="44.944" x2="75.4393" y2="110.423" gradientUnits="userSpaceOnUse">
<stop stop-color="#25054D"/>
<stop offset="1" stop-color="#45108A"/>
</linearGradient>
<linearGradient id="paint85_linear_3164_1310" x1="130.316" y1="199.5" x2="191.84" y2="181.078" gradientUnits="userSpaceOnUse">
<stop offset="0.03" stop-color="#7C1DC9"/>
<stop offset="0.21" stop-color="#6E41D2"/>
<stop offset="0.62" stop-color="#4C9BE8"/>
<stop offset="1" stop-color="#2AF6FF"/>
</linearGradient>
<linearGradient id="paint86_linear_3164_1310" x1="24.0533" y1="121.05" x2="104.977" y2="102.904" gradientUnits="userSpaceOnUse">
<stop offset="0.04" stop-color="#138BBD"/>
<stop offset="0.23" stop-color="#169AC7"/>
<stop offset="0.59" stop-color="#1FC3DF"/>
<stop offset="1" stop-color="#2AF6FF"/>
</linearGradient>
<linearGradient id="paint87_linear_3164_1310" x1="87.8" y1="107.827" x2="159.097" y2="86.4829" gradientUnits="userSpaceOnUse">
<stop stop-color="#25054D"/>
<stop offset="1" stop-color="#45108A"/>
</linearGradient>
<linearGradient id="paint88_linear_3164_1310" x1="16.657" y1="116.476" x2="110.486" y2="95.4417" gradientUnits="userSpaceOnUse">
<stop stop-color="#25054D"/>
<stop offset="1" stop-color="#45108A"/>
</linearGradient>
<linearGradient id="paint89_linear_3164_1310" x1="49.0513" y1="106.192" x2="76.042" y2="106.192" gradientUnits="userSpaceOnUse">
<stop stop-color="#25054D"/>
<stop offset="1" stop-color="#45108A"/>
</linearGradient>
<radialGradient id="paint90_radial_3164_1310" cx="0" cy="0" r="1" gradientUnits="userSpaceOnUse" gradientTransform="translate(77.856 98.5592) scale(31.4092 31.4092)">
<stop offset="0.1" stop-color="#45108A"/>
<stop offset="0.67" stop-color="#25054D"/>
<stop offset="1"/>
</radialGradient>
<linearGradient id="paint91_linear_3164_1310" x1="77.8472" y1="73.1391" x2="77.8472" y2="99.4707" gradientUnits="userSpaceOnUse">
<stop offset="0.03" stop-color="#AF0099"/>
<stop offset="0.21" stop-color="#AF0099"/>
<stop offset="0.62" stop-color="#E82FD1"/>
<stop offset="1" stop-color="#E82FD1"/>
</linearGradient>
<radialGradient id="paint92_radial_3164_1310" cx="0" cy="0" r="1" gradientUnits="userSpaceOnUse" gradientTransform="translate(77.7095 102.815) scale(12.938 12.938)">
<stop stop-color="white"/>
<stop offset="1"/>
</radialGradient>
<linearGradient id="paint93_linear_3164_1310" x1="78.0025" y1="102.993" x2="78.0025" y2="30.6296" gradientUnits="userSpaceOnUse">
<stop stop-color="#E82FD1"/>
<stop offset="0.05" stop-color="#E82FD1"/>
<stop offset="0.18" stop-color="#C512AE"/>
<stop offset="0.31" stop-color="#C10FAB"/>
<stop offset="0.45" stop-color="#BA07A4"/>
<stop offset="0.58" stop-color="#B30D9E"/>
<stop offset="0.72" stop-color="#BD02A6"/>
<stop offset="0.85" stop-color="#AB0596"/>
<stop offset="1" stop-color="#AD0098"/>
</linearGradient>
<linearGradient id="paint94_linear_3164_1310" x1="133.318" y1="146.657" x2="155.785" y2="197.075" gradientUnits="userSpaceOnUse">
<stop stop-color="#B4079E"/>
<stop offset="1" stop-color="#57004C"/>
</linearGradient>
<radialGradient id="paint95_radial_3164_1310" cx="0" cy="0" r="1" gradientUnits="userSpaceOnUse" gradientTransform="translate(112.601 118.852) scale(31.458 31.458)">
<stop offset="0.1" stop-color="#45108A"/>
<stop offset="0.67" stop-color="#25054D"/>
<stop offset="1"/>
</radialGradient>
<linearGradient id="paint96_linear_3164_1310" x1="38.4482" y1="153.956" x2="19.1958" y2="161.279" gradientUnits="userSpaceOnUse">
<stop stop-color="white"/>
<stop offset="1" stop-color="#A3653D"/>
</linearGradient>
<linearGradient id="paint97_linear_3164_1310" x1="22.6542" y1="144.663" x2="3.39374" y2="151.987" gradientUnits="userSpaceOnUse">
<stop stop-color="white"/>
<stop offset="1" stop-color="#A3653D"/>
</linearGradient>
<linearGradient id="paint98_linear_3164_1310" x1="41.2795" y1="176.179" x2="43.9892" y2="180.517" gradientUnits="userSpaceOnUse">
<stop offset="0.04" stop-color="#FFA98C"/>
<stop offset="0.32" stop-color="#FFB892"/>
<stop offset="0.86" stop-color="#FEE1A3"/>
<stop offset="1" stop-color="#FEECA8"/>
</linearGradient>
<linearGradient id="paint99_linear_3164_1310" x1="73.9821" y1="229.282" x2="80.2395" y2="239.299" gradientUnits="userSpaceOnUse">
<stop offset="0.04" stop-color="#FFA98C"/>
<stop offset="0.32" stop-color="#FFB892"/>
<stop offset="0.86" stop-color="#FEE1A3"/>
<stop offset="1" stop-color="#FEECA8"/>
</linearGradient>
<radialGradient id="paint100_radial_3164_1310" cx="0" cy="0" r="1" gradientUnits="userSpaceOnUse" gradientTransform="translate(26.4288 143.915) scale(23.622 23.622)">
<stop offset="0.1" stop-color="#FFE4A7"/>
<stop offset="0.42" stop-color="#F4BE4C"/>
<stop offset="0.67" stop-color="#ECA30A"/>
<stop offset="1"/>
</radialGradient>
<linearGradient id="paint101_linear_3164_1310" x1="5.41986" y1="177.513" x2="30.238" y2="133.442" gradientUnits="userSpaceOnUse">
<stop offset="0.04" stop-color="#FFA98C"/>
<stop offset="0.31" stop-color="#FFB893"/>
<stop offset="0.32" stop-color="#FFB993"/>
<stop offset="0.82" stop-color="#FEDDA2"/>
<stop offset="1" stop-color="#FEECA8"/>
</linearGradient>
</defs>
</svg>
