<svg width="498" height="533" viewBox="0 0 498 533" fill="none" xmlns="http://www.w3.org/2000/svg">
<g style="mix-blend-mode:multiply">
<path d="M22.9307 394.055L260.18 532.205L497.391 392.856L259.88 254.537L22.9307 394.055Z" fill="#E6E7E8"/>
</g>
<path d="M299.082 140.717V154.483L369.73 112.997V99.2305L299.082 140.717Z" fill="url(#paint0_linear_2811_16119)"/>
<path d="M299.12 140.716V154.483L228.509 113.296V99.5859L299.12 140.716Z" fill="url(#paint1_linear_2811_16119)"/>
<path d="M228.509 99.5862L299.12 140.717L369.731 99.2304L299.026 58.0625L228.509 99.5862Z" fill="url(#paint2_linear_2811_16119)"/>
<path style="mix-blend-mode:screen" d="M299.12 139.59L229.464 99.0219L228.509 99.5838L299.12 140.714L369.731 99.2279L368.775 98.666L299.12 139.59Z" fill="url(#paint3_radial_2811_16119)"/>
<path d="M299.082 121.351V135.118L369.73 93.6501V79.8838L299.082 121.351Z" fill="url(#paint4_linear_2811_16119)"/>
<path d="M299.121 121.349V135.115L228.51 93.9474V80.2373L299.121 121.349Z" fill="url(#paint5_linear_2811_16119)"/>
<path d="M228.51 80.2386L299.121 121.35L369.732 79.8827L299.027 38.7148L228.51 80.2386Z" fill="url(#paint6_linear_2811_16119)"/>
<path style="mix-blend-mode:screen" d="M299.121 120.226L229.465 79.6574L228.51 80.2381L299.121 121.35L369.732 79.8822L368.776 79.3203L299.121 120.226Z" fill="url(#paint7_radial_2811_16119)"/>
<path d="M299.082 102.002V115.768L369.73 74.2819V60.5156L299.082 102.002Z" fill="url(#paint8_linear_2811_16119)"/>
<path d="M299.121 102.001V115.768L228.51 74.6V60.8711L299.121 102.001Z" fill="url(#paint9_linear_2811_16119)"/>
<path d="M228.51 60.8724L299.121 102.003L369.732 60.5165L299.027 19.3486L228.51 60.8724Z" fill="url(#paint10_linear_2811_16119)"/>
<path style="mix-blend-mode:screen" d="M299.12 100.878L229.464 60.3098L228.509 60.8717L299.12 102.002L369.731 60.5158L368.775 59.9727L299.12 100.878Z" fill="url(#paint11_radial_2811_16119)"/>
<path d="M299.082 82.6542V96.4206L369.73 54.9343V41.168L299.082 82.6542Z" fill="url(#paint12_linear_2811_16119)"/>
<path d="M299.12 82.6538V96.4202L228.509 55.2523V41.5234L299.12 82.6538Z" fill="url(#paint13_linear_2811_16119)"/>
<path d="M228.509 41.5237L299.12 82.6541L369.731 41.1679L299.026 0L228.509 41.5237Z" fill="url(#paint14_linear_2811_16119)"/>
<path d="M239.633 41.5056L299.043 6.51855L358.604 41.1872L299.118 76.1368L239.633 41.5056Z" fill="#AF0099"/>
<path d="M299.043 9.32801L356.206 42.6107L358.604 41.1872L299.043 6.51855L239.633 41.5056L242.03 42.8916L299.043 9.32801Z" fill="url(#paint15_linear_2811_16119)"/>
<path d="M299.043 9.32801L356.206 42.6107L358.603 41.1872L299.043 6.51855V9.32801Z" fill="#E82FD1"/>
<path style="mix-blend-mode:screen" d="M299.12 81.5298L229.464 40.9613L228.509 41.5232L299.12 82.6536L369.731 41.1674L368.775 40.6055L299.12 81.5298Z" fill="url(#paint16_radial_2811_16119)"/>
<path d="M335.549 44.8198C328.207 40.6618 323.281 35.2864 321.464 29.4428C312.115 28.6263 303.042 25.8571 294.831 21.3141L294.568 21.1455L290.616 23.88C276.738 33.4884 274.434 43.1154 276.288 55.4021L276.569 55.5707C297.846 56.6383 314.534 55.3085 331.166 47.2922L335.905 45.0071L335.549 44.8198Z" fill="#43E8E1"/>
<path style="mix-blend-mode:color-dodge" d="M321.465 39.9865C312.119 39.1819 303.05 36.4118 294.85 31.8578L294.569 31.708L290.617 34.4425C281.439 40.7919 277.337 47.16 276.139 54.3147C276.139 54.6893 276.232 55.0452 276.289 55.4198L276.569 55.5884C296.161 56.5623 311.875 55.5884 327.233 49.0704C324.614 46.5453 322.636 43.4309 321.465 39.9865Z" fill="url(#paint17_radial_2811_16119)"/>
<path d="M344.09 313.066V384.894L273.46 343.726V271.936L344.09 313.066Z" fill="#B3069E"/>
<path d="M273.46 271.936L344.09 313.066L414.701 271.58L343.996 230.412L273.46 271.936Z" fill="#45108A"/>
<path style="mix-blend-mode:screen" d="M344.089 311.944L274.433 271.375L273.478 271.937L344.089 313.068L414.699 271.581L413.725 271.02L344.089 311.944Z" fill="url(#paint18_radial_2811_16119)"/>
<path d="M260.124 360.659V432.487L330.772 391.001V319.173L260.124 360.659Z" fill="url(#paint19_linear_2811_16119)"/>
<path d="M260.161 360.659V432.487L189.55 391.319V319.528L260.161 360.659Z" fill="#330A66"/>
<path d="M189.55 319.53L260.161 360.66L330.772 319.174L260.067 278.006L189.55 319.53Z" fill="#45108A"/>
<path style="mix-blend-mode:screen" d="M260.161 359.536L190.505 318.967L189.55 319.529L260.161 360.659L330.772 319.173L329.817 318.611L260.161 359.536Z" fill="url(#paint20_radial_2811_16119)"/>
<path d="M423.971 361.465V433.274L494.619 391.807V319.979L423.971 361.465Z" fill="url(#paint21_linear_2811_16119)"/>
<path d="M424.009 361.465V433.275L353.398 392.107V320.335L424.009 361.465Z" fill="#C00EAA"/>
<path d="M353.398 320.334L424.009 361.465L494.62 319.978L423.916 278.811L353.398 320.334Z" fill="#7A096C"/>
<path d="M342.047 409.057V480.866L412.695 439.399V367.57L342.047 409.057Z" fill="url(#paint22_linear_2811_16119)"/>
<path d="M342.085 409.056V480.866L271.474 439.698V367.926L342.085 409.056Z" fill="#C00EAA"/>
<path d="M271.474 367.925L342.085 409.055L412.696 367.569L341.991 326.401L271.474 367.925Z" fill="#7A096C"/>
<path style="mix-blend-mode:screen" d="M61.8887 302.971L31.2656 321.157L101.858 362.269L101.839 362.288V434.116L132.575 415.967V344.139L61.8887 302.971Z" fill="url(#paint23_linear_2811_16119)"/>
<path d="M71.5537 380.381V452.21L102.308 434.061V362.251L71.5537 380.381Z" fill="url(#paint24_linear_2811_16119)"/>
<path d="M71.5905 380.379V452.208L0.979492 411.04V339.268L71.5905 380.379Z" fill="url(#paint25_linear_2811_16119)"/>
<path d="M6.59863 407.822V349.048L65.9718 383.623V442.434L6.59863 407.822Z" fill="#AF0099"/>
<path d="M8.62144 406.735V350.228L6.59863 349.048V407.822L65.9718 442.434V440.168L8.62144 406.735Z" fill="url(#paint26_linear_2811_16119)"/>
<path d="M8.62144 406.734L6.59863 407.821L65.9718 442.433V440.167L8.62144 406.734Z" fill="#E82FD1"/>
<path d="M0.979492 339.269L71.5905 380.38L102.307 362.25L31.6025 321.082L0.979492 339.269Z" fill="url(#paint27_linear_2811_16119)"/>
<path style="mix-blend-mode:screen" d="M71.5905 379.278L1.9347 338.69L0.979492 339.271L71.5905 380.383L102.307 362.252L101.333 361.69L71.5905 379.278Z" fill="url(#paint28_radial_2811_16119)"/>
<path d="M39.5634 399.58V415.275L32.521 411.192V395.516C29.6684 392.405 27.9865 388.399 27.7637 384.184C27.7637 378.94 31.5096 376.823 36.0422 379.464C38.4488 381.027 40.4528 383.136 41.8912 385.619C43.3297 388.102 44.1621 390.89 44.3207 393.755C44.3207 397.538 42.3728 399.692 39.5634 399.58Z" fill="#43E8E1"/>
<path style="mix-blend-mode:color-dodge" d="M39.5634 399.58V415.275L32.521 411.192V395.516C29.6684 392.405 27.9865 388.399 27.7637 384.184C27.7637 378.94 31.5096 376.823 36.0422 379.464C38.4488 381.027 40.4528 383.136 41.8912 385.619C43.3297 388.102 44.1621 390.89 44.3207 393.755C44.3207 397.538 42.3728 399.692 39.5634 399.58Z" fill="url(#paint29_radial_2811_16119)"/>
<path d="M180.205 409.767V481.596L250.853 440.128V368.3L180.205 409.767Z" fill="#B3069E"/>
<path d="M180.242 409.769V481.597L109.612 440.429V368.657L180.242 409.769Z" fill="#AF0099"/>
<path style="mix-blend-mode:lighten" opacity="0.2" d="M130.739 417.654V380.944L109.612 368.657V430.053L130.739 417.654Z" fill="url(#paint30_radial_2811_16119)"/>
<path d="M109.612 368.657L180.242 409.768L250.853 368.301L180.148 327.133L109.612 368.657Z" fill="#7A096C"/>
<path d="M100.283 280.983V352.812L170.932 311.325V239.516L100.283 280.983Z" fill="#B3069E"/>
<path d="M100.322 280.982V352.81L29.6924 311.642V239.852L100.322 280.982Z" fill="#AF0099"/>
<path d="M29.6924 239.852L100.322 280.982L170.933 239.515L100.228 198.328L29.6924 239.852Z" fill="#7A096C"/>
<path style="mix-blend-mode:screen" d="M100.322 279.859L30.6664 239.29L29.6924 239.852L100.322 280.983L170.933 239.515L169.959 238.953L100.322 279.859Z" fill="url(#paint31_radial_2811_16119)"/>
<path style="mix-blend-mode:lighten" opacity="0.2" d="M70.1308 314.884L58.1812 307.991C53.4239 305.238 49.1161 304.957 45.9882 306.718L39.8262 310.464C42.954 308.797 47.1869 309.115 51.8694 311.812L63.8002 318.705C71.292 323.012 77.604 332.096 80.0388 341.18L87.437 345.488V344.908C87.4745 333.782 79.7204 320.409 70.1308 314.884Z" fill="url(#paint32_radial_2811_16119)"/>
<path d="M260.124 456.649V528.459L330.772 486.991V415.163L260.124 456.649Z" fill="url(#paint33_linear_2811_16119)"/>
<path d="M260.161 456.648V528.458L189.55 487.29V415.518L260.161 456.648Z" fill="#AF0099"/>
<path d="M189.55 415.517L260.161 456.647L330.772 415.161L260.067 373.993L189.55 415.517Z" fill="#7A096C"/>
<path style="mix-blend-mode:screen" d="M260.161 455.524L190.505 414.955L189.55 415.517L260.161 456.648L330.772 415.162L329.817 414.6L260.161 455.524Z" fill="url(#paint34_radial_2811_16119)"/>
<path d="M180.205 327.846V399.675L250.853 358.207V286.379L180.205 327.846Z" fill="#B3069E"/>
<path d="M180.242 327.843V399.671L109.612 358.504V286.731L180.242 327.843Z" fill="#AF0099"/>
<path d="M109.612 286.733L180.242 327.845L250.853 286.377L180.148 245.19L109.612 286.733Z" fill="#7A096C"/>
<path style="mix-blend-mode:screen" d="M180.242 326.72L110.586 286.152L109.612 286.732L180.242 327.844L250.853 286.376L249.879 285.814L180.242 326.72Z" fill="url(#paint35_radial_2811_16119)"/>
<path d="M260.124 432.769V446.536L330.772 405.068V391.302L260.124 432.769Z" fill="#25054D"/>
<path d="M260.161 432.77V446.536L189.55 405.368V391.658L260.161 432.77Z" fill="#330A66"/>
<path d="M189.55 391.658L260.161 432.769L330.772 391.302L260.067 350.134L189.55 391.658Z" fill="#45108A"/>
<path d="M196.313 386.094L260.163 423.273L324.012 385.814L260.088 348.598L196.313 386.094ZM260.163 425.296C259.997 425.299 259.834 425.253 259.694 425.165L193.972 386.9C193.837 386.813 193.725 386.694 193.648 386.554C193.571 386.413 193.53 386.255 193.53 386.094C193.53 385.934 193.571 385.776 193.648 385.635C193.725 385.494 193.837 385.375 193.972 385.289L259.526 346.65C259.67 346.562 259.835 346.516 260.003 346.516C260.172 346.516 260.337 346.562 260.481 346.65L326.26 384.952C326.404 385.031 326.525 385.147 326.609 385.289C326.693 385.431 326.737 385.593 326.737 385.757C326.737 385.922 326.693 386.084 326.609 386.226C326.525 386.367 326.404 386.484 326.26 386.563L260.631 425.165C260.491 425.253 260.328 425.299 260.163 425.296Z" fill="#43E8E1"/>
<path d="M196.313 377.965L260.162 415.163L324.012 377.703L260.087 340.469L196.313 377.965ZM260.162 417.167C259.999 417.167 259.839 417.129 259.694 417.054L193.971 378.771C193.831 378.69 193.715 378.572 193.635 378.43C193.556 378.288 193.517 378.128 193.522 377.965C193.523 377.804 193.564 377.646 193.643 377.505C193.722 377.364 193.835 377.245 193.971 377.16L259.525 338.521C259.671 338.439 259.836 338.396 260.003 338.396C260.17 338.396 260.335 338.439 260.481 338.521L326.259 376.842C326.402 376.922 326.521 377.039 326.603 377.181C326.685 377.322 326.728 377.483 326.727 377.647C326.723 377.81 326.678 377.969 326.596 378.109C326.514 378.25 326.398 378.368 326.259 378.452L260.555 417.054C260.428 417.092 260.294 417.105 260.162 417.092V417.167Z" fill="#43E8E1"/>
<path d="M196.313 369.705L260.163 406.884L324.012 369.424L260.088 332.208L196.313 369.705ZM260.163 408.906C259.997 408.91 259.834 408.864 259.694 408.775L193.972 370.473C193.837 370.387 193.725 370.268 193.648 370.127C193.571 369.986 193.53 369.828 193.53 369.668C193.53 369.507 193.571 369.349 193.648 369.208C193.725 369.068 193.837 368.949 193.972 368.862L259.526 330.223C259.67 330.135 259.835 330.089 260.003 330.089C260.172 330.089 260.337 330.135 260.481 330.223L326.335 368.6C326.479 368.679 326.6 368.796 326.684 368.937C326.768 369.079 326.812 369.241 326.812 369.405C326.812 369.57 326.768 369.732 326.684 369.874C326.6 370.015 326.479 370.132 326.335 370.211L260.631 408.813C260.487 408.888 260.324 408.921 260.163 408.906Z" fill="#43E8E1"/>
<path d="M196.312 361.501L260.161 398.699L324.011 361.239L260.086 324.005L196.312 361.501ZM260.161 400.703C259.998 400.704 259.838 400.665 259.693 400.59L193.97 362.307C193.83 362.226 193.714 362.108 193.634 361.966C193.555 361.824 193.516 361.664 193.521 361.501C193.522 361.34 193.563 361.182 193.642 361.041C193.721 360.9 193.834 360.782 193.97 360.696L259.524 322.057C259.67 321.975 259.835 321.932 260.002 321.932C260.169 321.932 260.334 321.975 260.48 322.057L326.258 360.378C326.401 360.458 326.52 360.575 326.602 360.717C326.684 360.858 326.727 361.019 326.726 361.183C326.722 361.346 326.677 361.505 326.595 361.645C326.513 361.786 326.397 361.904 326.258 361.988L260.554 400.59C260.432 400.654 260.299 400.692 260.161 400.703Z" fill="#43E8E1"/>
<g opacity="0.5">
<path d="M196.312 353.317L260.162 390.496L324.011 353.036L260.087 315.82L196.312 353.317ZM260.162 392.518C259.996 392.522 259.833 392.476 259.693 392.387L193.971 354.122C193.836 354.036 193.724 353.917 193.647 353.776C193.57 353.636 193.529 353.478 193.529 353.317C193.529 353.157 193.57 352.999 193.647 352.858C193.724 352.717 193.836 352.598 193.971 352.512L259.525 313.872C259.669 313.785 259.834 313.738 260.002 313.738C260.171 313.738 260.336 313.785 260.48 313.872L326.259 352.175C326.403 352.254 326.524 352.37 326.608 352.512C326.692 352.654 326.736 352.815 326.736 352.98C326.736 353.145 326.692 353.306 326.608 353.448C326.524 353.59 326.403 353.706 326.259 353.785L260.63 392.387C260.49 392.476 260.327 392.522 260.162 392.518Z" fill="#43E8E1"/>
</g>
<path d="M260.124 374.706V386.599L330.772 345.132V333.238L260.124 374.706Z" fill="url(#paint36_linear_2811_16119)"/>
<path d="M260.161 374.706V386.6L189.55 345.432V333.595L260.161 374.706Z" fill="#330A66"/>
<path d="M189.55 333.596L260.161 374.708L330.772 333.24L260.067 292.072L189.55 333.596Z" fill="#7A096C"/>
<path style="mix-blend-mode:screen" d="M260.161 373.583L190.505 333.034L189.55 333.595L260.161 374.707L330.772 333.24L329.817 332.678L260.161 373.583Z" fill="url(#paint37_radial_2811_16119)"/>
<path style="mix-blend-mode:lighten" opacity="0.2" d="M330.772 345.132V333.238L280.389 362.812L290.54 368.75L330.772 345.132Z" fill="url(#paint38_radial_2811_16119)"/>
<path opacity="0.1" d="M260.161 374.706V446.535L189.55 405.367V333.595L260.161 374.706Z" fill="url(#paint39_linear_2811_16119)" fill-opacity="0.2"/>
<path d="M423.971 279.54V351.35L494.619 309.882V238.054L423.971 279.54Z" fill="url(#paint40_linear_2811_16119)"/>
<path d="M424.008 279.542V351.351L353.397 310.183V238.411L424.008 279.542Z" fill="#C00EAA"/>
<path d="M353.397 238.41L424.008 279.541L494.619 238.055L423.915 196.887L353.397 238.41Z" fill="#7A096C"/>
<path style="mix-blend-mode:screen" d="M424.008 278.417L354.353 237.848L353.397 238.41L424.008 279.54L494.619 238.054L493.664 237.492L424.008 278.417Z" fill="url(#paint41_radial_2811_16119)"/>
<g style="mix-blend-mode:screen">
<path d="M411.909 286.412L341.224 245.226L270.688 286.749V358.54L341.28 399.689V399.708L341.298 399.689L341.317 399.708V399.689L411.909 358.222V286.412Z" fill="url(#paint42_linear_2811_16119)" fill-opacity="0.2"/>
</g>
<path d="M344.052 150.737V222.565L414.7 181.098V109.27L344.052 150.737Z" fill="#B3069E"/>
<path d="M344.09 150.736V222.564L273.46 181.396V109.605L344.09 150.736Z" fill="#AF0099"/>
<path d="M273.46 109.606L344.09 150.736L414.701 109.269L343.996 68.082L273.46 109.606Z" fill="#7A096C"/>
<path style="mix-blend-mode:screen" d="M344.089 149.613L274.433 109.044L273.478 109.606L344.089 150.736L414.699 109.269L413.725 108.707L344.089 149.613Z" fill="url(#paint43_radial_2811_16119)"/>
<g style="mix-blend-mode:multiply">
<path d="M482.313 230.844H481.77L468.247 224.288C467.667 222.134 464.276 220.542 460.044 220.318L425.394 203.461L423.127 208.143L449.349 220.842L432.605 217.845C431.556 215.86 428.109 214.399 423.951 214.399C418.969 214.399 414.942 216.478 414.942 219.063C414.942 221.254 417.92 223.09 421.91 223.577L420.786 265.288C417.377 265.943 414.942 267.629 414.942 269.614C414.942 272.18 418.969 274.278 423.951 274.278C428.933 274.278 432.96 272.18 432.96 269.614C432.947 269.25 432.858 268.893 432.698 268.565L482.388 239.74C483.053 239.816 483.722 239.854 484.392 239.853C488.307 239.853 491.584 238.579 492.839 236.781L482.313 230.844ZM425.993 262.965L427.061 223.52C427.936 223.354 428.791 223.09 429.608 222.734L450.885 226.48C451.145 226.861 451.461 227.202 451.821 227.491L448.075 230.9H447.251C442.288 230.9 438.261 232.979 438.261 235.545C438.261 236.912 439.441 238.148 441.295 238.991L425.993 262.965ZM432.192 262.965L446.708 240.227H447.232C452.215 240.227 456.241 238.148 456.241 235.582C456.171 234.932 455.932 234.312 455.547 233.783C455.163 233.254 454.647 232.834 454.05 232.567L457.403 229.533C458.024 229.606 458.65 229.643 459.276 229.645C461.2 229.66 463.11 229.298 464.895 228.577L475.739 233.84C475.433 234.283 475.258 234.802 475.233 235.339C475.265 236.107 475.594 236.832 476.151 237.362L432.192 262.965Z" fill="#BCBCD6"/>
</g>
<g opacity="0.7">
<path opacity="0.7" d="M435.026 160.183L420.512 197.183L426.44 199.508L440.955 162.509L435.026 160.183Z" fill="#8770B8"/>
<g style="mix-blend-mode:screen" opacity="0.5">
<path d="M435.828 161.952L422.676 195.462L425.117 196.42L438.269 162.91L435.828 161.952Z" fill="#8770B8"/>
</g>
</g>
<g opacity="0.7">
<path opacity="0.7" d="M406.18 229.195C405.533 229.194 404.901 228.997 404.369 228.629C403.837 228.261 403.43 227.74 403.202 227.134L390.091 192.016C389.829 191.29 389.829 190.495 390.091 189.769L402.265 157.46C402.32 157.319 402.382 157.182 402.452 157.048L420.714 123.803L426.333 126.874L408.184 159.932L396.515 190.911L408.24 222.508L446.598 215.691L447.703 221.965L406.816 229.157L406.18 229.195Z" fill="#8770B8"/>
<g style="mix-blend-mode:screen" opacity="0.5">
<path d="M405.805 226.572C405.54 226.574 405.281 226.493 405.063 226.343C404.846 226.192 404.679 225.978 404.587 225.73L391.476 190.611C391.365 190.309 391.365 189.977 391.476 189.675L403.651 157.385C403.64 157.323 403.64 157.26 403.651 157.198L421.013 125.601L423.298 126.874L405.992 158.396L394.155 190.143L406.722 223.857L444.725 217.114L445.174 219.699L406.123 226.554L405.805 226.572Z" fill="#8770B8"/>
</g>
</g>
<g opacity="0.7">
<path opacity="0.7" d="M458.62 186.115C458.191 186.113 457.766 186.025 457.371 185.858C456.975 185.691 456.617 185.447 456.316 185.141L436.556 164.539L407.02 162.141L407.525 155.792L438.279 158.302C439.056 158.366 439.783 158.712 440.321 159.276L458.901 178.698L482.856 159.463L486.845 164.426L460.624 185.497C460.044 185.921 459.338 186.139 458.62 186.115Z" fill="#8770B8"/>
<g style="mix-blend-mode:screen" opacity="0.5">
<path d="M458.245 183.494C458.071 183.497 457.897 183.464 457.736 183.396C457.574 183.328 457.429 183.228 457.309 183.1L437.043 161.917L408.668 159.613L408.874 156.991L437.755 159.351C438.077 159.368 438.379 159.509 438.598 159.744L458.358 180.347L482.182 161.262L483.83 163.303L459.07 183.175C458.842 183.376 458.549 183.489 458.245 183.494Z" fill="#8770B8"/>
</g>
</g>
<g opacity="0.7">
<path opacity="0.7" d="M482.183 223.576L459.707 190.143L450.155 219.811L444.105 217.938L455.643 182.033C455.832 181.477 456.172 180.984 456.624 180.609C457.076 180.233 457.624 179.991 458.205 179.907C458.787 179.824 459.381 179.903 459.92 180.136C460.46 180.369 460.924 180.747 461.262 181.228L487.483 220.092L482.183 223.576Z" fill="#8770B8"/>
<g style="mix-blend-mode:screen" opacity="0.5">
<path d="M458.677 185.161L448.47 216.702L445.96 215.896L456.954 181.79C457.026 181.556 457.163 181.347 457.349 181.188C457.534 181.029 457.761 180.926 458.003 180.891H458.209C458.421 180.892 458.629 180.946 458.815 181.048C459.002 181.149 459.16 181.294 459.277 181.471L484.506 218.762L482.333 220.223L458.677 185.161Z" fill="#8770B8"/>
</g>
</g>
<g opacity="0.7">
<path opacity="0.7" d="M423.503 201.569C423.1 201.567 422.7 201.49 422.323 201.344C421.929 201.185 421.57 200.949 421.268 200.65C420.966 200.351 420.726 199.995 420.563 199.602L405.204 162.143L363.325 164.952C362.612 165.002 361.903 164.811 361.312 164.41C360.721 164.009 360.282 163.42 360.066 162.739C359.85 162.058 359.869 161.325 360.121 160.656C360.372 159.987 360.841 159.422 361.452 159.052L421.855 122.529L425.152 127.98L375.967 157.722L407.059 155.625C407.715 155.571 408.372 155.722 408.939 156.058C409.506 156.393 409.955 156.896 410.224 157.498L425.208 193.946L457.947 179.43L460.551 185.236L424.814 201.306C424.401 201.486 423.954 201.576 423.503 201.569Z" fill="#8770B8"/>
<g style="mix-blend-mode:screen" opacity="0.5">
<path d="M423.128 198.946C422.974 198.983 422.814 198.983 422.66 198.946C422.328 198.814 422.06 198.559 421.911 198.234L406.047 159.613L362.8 162.516C362.507 162.534 362.216 162.452 361.975 162.285C361.734 162.117 361.555 161.874 361.469 161.593C361.383 161.312 361.393 161.011 361.499 160.737C361.604 160.463 361.798 160.232 362.051 160.082L420.843 124.495L422.211 126.743L374.618 155.455L375.723 158.939L406.815 156.841C407.087 156.827 407.357 156.897 407.588 157.041C407.819 157.185 408 157.396 408.107 157.647L423.821 195.893L456.636 181.134L457.703 183.531L423.671 198.833C423.5 198.908 423.315 198.946 423.128 198.946Z" fill="#8770B8"/>
</g>
</g>
<g opacity="0.7">
<path opacity="0.7" d="M423.502 261.973C422.929 261.972 422.366 261.817 421.873 261.523L361.47 225.468C360.996 225.186 360.604 224.786 360.331 224.306C360.059 223.827 359.915 223.285 359.915 222.734V161.862H366.283V220.936L423.502 255.08L477.612 222.509L422.379 201.419L424.645 195.463L485.928 218.763C486.489 218.975 486.978 219.34 487.34 219.817C487.701 220.295 487.921 220.864 487.974 221.461C488.027 222.057 487.91 222.657 487.638 223.19C487.366 223.723 486.948 224.169 486.434 224.476L425.094 261.467C424.618 261.773 424.068 261.948 423.502 261.973Z" fill="#8770B8"/>
<g style="mix-blend-mode:screen" opacity="0.5">
<path d="M423.127 259.35C422.89 259.351 422.656 259.286 422.453 259.162L362.05 223.108C361.855 222.993 361.693 222.828 361.581 222.631C361.469 222.434 361.411 222.211 361.413 221.984V162.985H364.035V221.235L423.127 256.521L481.489 221.31L424.42 199.527L425.356 197.092L484.935 219.83C485.165 219.917 485.366 220.066 485.515 220.262C485.664 220.457 485.755 220.69 485.778 220.935C485.799 221.18 485.75 221.426 485.637 221.644C485.525 221.863 485.353 222.046 485.142 222.171L423.802 259.162C423.6 259.289 423.366 259.355 423.127 259.35Z" fill="#8770B8"/>
</g>
</g>
<g opacity="0.7">
<path opacity="0.7" d="M483.176 164.578L431.126 132.737L441.165 160.701L435.19 162.855L422.08 126.332C421.863 125.715 421.842 125.045 422.021 124.416C422.2 123.787 422.569 123.228 423.079 122.818C423.588 122.407 424.212 122.164 424.865 122.123C425.518 122.081 426.168 122.243 426.725 122.586L486.51 159.258L483.176 164.578Z" fill="#8770B8"/>
<g style="mix-blend-mode:screen" opacity="0.5">
<path d="M427.192 127.511L438.43 158.752L435.958 159.633L423.484 124.87C423.406 124.674 423.379 124.463 423.403 124.253C423.428 124.044 423.504 123.845 423.624 123.672C423.745 123.499 423.906 123.359 424.094 123.265C424.282 123.17 424.491 123.123 424.701 123.128C424.945 123.124 425.186 123.189 425.394 123.316L483.588 159.014L482.202 161.262L427.192 127.511Z" fill="#8770B8"/>
</g>
</g>
<g opacity="0.7">
<path opacity="0.7" d="M364.299 225.692L361.92 219.792L420.375 196.286V125.656H426.743V198.384C426.745 199.019 426.557 199.64 426.203 200.167C425.85 200.694 425.346 201.104 424.758 201.343L364.299 225.692Z" fill="#8770B8"/>
<g style="mix-blend-mode:screen" opacity="0.5">
<path d="M363.979 220.072L421.817 196.753V126.779H424.439V197.634C424.441 197.896 424.364 198.154 424.217 198.371C424.07 198.589 423.86 198.756 423.615 198.851L364.953 222.507L363.979 220.072Z" fill="#8770B8"/>
</g>
</g>
<g opacity="0.7">
<path d="M365.435 159.712L360.852 164.133L390.508 194.885L395.091 190.465L365.435 159.712Z" fill="#8770B8"/>
<g style="mix-blend-mode:screen" opacity="0.5">
<path d="M364.97 161.467L363.081 163.286L390.122 191.357L392.011 189.537L364.97 161.467Z" fill="#8770B8"/>
</g>
</g>
<g opacity="0.7">
<path opacity="0.7" d="M408.874 227.715L403.518 224.382L420.843 196.755C421.25 196.106 421.877 195.626 422.61 195.402C423.343 195.179 424.132 195.227 424.832 195.538L452.458 207.712L449.892 213.537L424.776 202.468L408.874 227.715Z" fill="#8770B8"/>
<g style="mix-blend-mode:screen" opacity="0.5">
<path d="M405.69 222.978L422.023 196.943C422.138 196.754 422.301 196.598 422.494 196.49C422.688 196.381 422.906 196.325 423.128 196.325C423.309 196.324 423.488 196.363 423.652 196.438L449.574 207.863L448.507 210.26L423.634 199.303L407.919 224.382L405.69 222.978Z" fill="#8770B8"/>
</g>
</g>
<g opacity="0.7">
<path opacity="0.7" d="M423.504 261.971C422.936 261.965 422.38 261.805 421.895 261.509C421.41 261.212 421.015 260.789 420.751 260.286L404.25 229.063L362.914 225.917C362.316 225.871 361.743 225.657 361.263 225.299C360.782 224.941 360.413 224.454 360.198 223.894C359.981 223.334 359.926 222.725 360.038 222.136C360.151 221.546 360.427 221 360.835 220.56L390.802 188.72L395.447 193.084L369.993 220.073L406.423 222.845C406.959 222.882 407.477 223.056 407.927 223.352C408.376 223.647 408.742 224.053 408.989 224.531L423.617 252.195L448.471 208.985C448.835 208.351 449.406 207.862 450.088 207.599C450.77 207.337 451.522 207.317 452.217 207.543L481.754 217.245V164.577H438.113V158.209H484.938C485.356 158.209 485.77 158.291 486.156 158.451C486.542 158.611 486.893 158.846 487.189 159.142C487.485 159.437 487.719 159.788 487.879 160.175C488.039 160.561 488.122 160.975 488.122 161.393V221.646C488.124 222.15 488.006 222.647 487.778 223.097C487.55 223.546 487.218 223.934 486.809 224.229C486.401 224.524 485.928 224.717 485.43 224.792C484.931 224.868 484.422 224.823 483.945 224.662L452.704 214.398L426.37 260.379C426.08 260.878 425.661 261.29 425.156 261.57C424.652 261.85 424.081 261.989 423.504 261.971Z" fill="#8770B8"/>
<g style="mix-blend-mode:screen" opacity="0.5">
<path d="M423.073 259.349C422.844 259.342 422.621 259.274 422.427 259.152C422.233 259.03 422.075 258.859 421.968 258.656L404.981 226.516L362.633 223.294C362.387 223.277 362.151 223.19 361.952 223.044C361.754 222.898 361.6 222.699 361.509 222.47C361.42 222.238 361.398 221.985 361.444 221.74C361.491 221.496 361.604 221.269 361.771 221.084L390.409 190.667L392.282 192.54L365.48 221.028L405.805 224.081C406.029 224.096 406.246 224.17 406.433 224.295C406.62 224.42 406.772 224.591 406.872 224.793L423.092 255.453L449.52 209.285C449.64 209.088 449.807 208.925 450.007 208.81C450.207 208.696 450.432 208.633 450.662 208.629C450.798 208.601 450.938 208.601 451.074 208.629L483.065 219.136V162.011H439.424V159.389H484.376C484.723 159.389 485.057 159.527 485.303 159.773C485.549 160.019 485.687 160.352 485.687 160.7V220.953C485.685 221.158 485.634 221.36 485.54 221.542C485.446 221.724 485.31 221.882 485.144 222.002C484.923 222.171 484.653 222.263 484.376 222.264C484.24 222.293 484.1 222.293 483.964 222.264L451.28 211.532L424.179 258.825C424.064 259.026 423.898 259.194 423.697 259.309C423.496 259.424 423.268 259.483 423.036 259.48L423.073 259.349Z" fill="#8770B8"/>
</g>
</g>
<path d="M372.633 222.734C372.637 224.621 372.081 226.466 371.036 228.036C369.99 229.606 368.503 230.831 366.761 231.555C365.019 232.28 363.102 232.471 361.251 232.106C359.401 231.74 357.7 230.833 356.365 229.501C355.03 228.168 354.12 226.47 353.751 224.62C353.382 222.77 353.569 220.852 354.29 219.109C355.011 217.366 356.233 215.876 357.801 214.828C359.37 213.779 361.213 213.22 363.1 213.22C365.625 213.22 368.047 214.222 369.834 216.005C371.622 217.789 372.628 220.209 372.633 222.734Z" fill="url(#paint44_radial_2811_16119)"/>
<path d="M372.633 161.861C372.637 163.748 372.081 165.593 371.036 167.163C369.99 168.733 368.503 169.958 366.761 170.682C365.019 171.407 363.102 171.598 361.251 171.233C359.401 170.867 357.7 169.96 356.365 168.628C355.03 167.295 354.12 165.597 353.751 163.747C353.382 161.897 353.569 159.979 354.29 158.236C355.011 156.493 356.233 155.003 357.801 153.955C359.37 152.906 361.213 152.347 363.1 152.347C365.625 152.347 368.047 153.349 369.834 155.132C371.622 156.916 372.628 159.336 372.633 161.861Z" fill="url(#paint45_radial_2811_16119)"/>
<path d="M372.633 161.861C372.637 163.748 372.081 165.593 371.036 167.163C369.99 168.733 368.503 169.958 366.761 170.682C365.019 171.407 363.102 171.598 361.251 171.233C359.401 170.867 357.7 169.96 356.365 168.628C355.03 167.295 354.12 165.597 353.751 163.747C353.382 161.897 353.569 159.979 354.29 158.236C355.011 156.493 356.233 155.003 357.801 153.955C359.37 152.906 361.213 152.347 363.1 152.347C365.625 152.347 368.047 153.349 369.834 155.132C371.622 156.916 372.628 159.336 372.633 161.861Z" fill="url(#paint46_radial_2811_16119)"/>
<path d="M433.037 198.384C433.04 200.27 432.484 202.115 431.439 203.685C430.394 205.256 428.906 206.48 427.164 207.205C425.423 207.929 423.505 208.121 421.655 207.755C419.804 207.389 418.104 206.483 416.769 205.15C415.434 203.818 414.524 202.119 414.154 200.269C413.785 198.42 413.973 196.502 414.694 194.759C415.415 193.016 416.637 191.525 418.205 190.477C419.773 189.429 421.617 188.869 423.503 188.869C426.028 188.869 428.45 189.871 430.238 191.655C432.025 193.439 433.032 195.859 433.037 198.384Z" fill="url(#paint47_radial_2811_16119)"/>
<path d="M433.037 198.384C433.04 200.27 432.484 202.115 431.439 203.685C430.394 205.256 428.906 206.48 427.164 207.205C425.423 207.929 423.505 208.121 421.655 207.755C419.804 207.389 418.104 206.483 416.769 205.15C415.434 203.818 414.524 202.119 414.154 200.269C413.785 198.42 413.973 196.502 414.694 194.759C415.415 193.016 416.637 191.525 418.205 190.477C419.773 189.429 421.617 188.869 423.503 188.869C426.028 188.869 428.45 189.871 430.238 191.655C432.025 193.439 433.032 195.859 433.037 198.384Z" fill="url(#paint48_radial_2811_16119)"/>
<path d="M415.711 226.011C415.715 227.897 415.159 229.742 414.114 231.312C413.069 232.883 411.581 234.107 409.839 234.832C408.098 235.556 406.18 235.748 404.33 235.382C402.479 235.016 400.779 234.11 399.444 232.777C398.108 231.445 397.198 229.746 396.829 227.896C396.46 226.046 396.647 224.129 397.368 222.386C398.089 220.642 399.311 219.152 400.88 218.104C402.448 217.056 404.292 216.496 406.178 216.496C408.703 216.496 411.125 217.498 412.912 219.282C414.7 221.066 415.706 223.486 415.711 226.011Z" fill="url(#paint49_radial_2811_16119)"/>
<path d="M415.711 226.011C415.715 227.897 415.159 229.742 414.114 231.312C413.069 232.883 411.581 234.107 409.839 234.832C408.098 235.556 406.18 235.748 404.33 235.382C402.479 235.016 400.779 234.11 399.444 232.777C398.108 231.445 397.198 229.746 396.829 227.896C396.46 226.046 396.647 224.129 397.368 222.386C398.089 220.642 399.311 219.152 400.88 218.104C402.448 217.056 404.292 216.496 406.178 216.496C408.703 216.496 411.125 217.498 412.912 219.282C414.7 221.066 415.706 223.486 415.711 226.011Z" fill="url(#paint50_radial_2811_16119)"/>
<path d="M494.375 161.861C494.379 163.748 493.823 165.593 492.778 167.163C491.733 168.733 490.245 169.958 488.503 170.682C486.762 171.407 484.844 171.598 482.994 171.233C481.143 170.867 479.443 169.96 478.108 168.628C476.772 167.295 475.863 165.597 475.493 163.747C475.124 161.897 475.311 159.979 476.032 158.236C476.754 156.493 477.975 155.003 479.544 153.955C481.112 152.906 482.956 152.347 484.842 152.347C487.367 152.347 489.789 153.349 491.577 155.132C493.364 156.916 494.37 159.336 494.375 161.861Z" fill="url(#paint51_radial_2811_16119)"/>
<path d="M494.375 161.861C494.379 163.748 493.823 165.593 492.778 167.163C491.733 168.733 490.245 169.958 488.503 170.682C486.762 171.407 484.844 171.598 482.994 171.233C481.143 170.867 479.443 169.96 478.108 168.628C476.772 167.295 475.863 165.597 475.493 163.747C475.124 161.897 475.311 159.979 476.032 158.236C476.754 156.493 477.975 155.003 479.544 153.955C481.112 152.906 482.956 152.347 484.842 152.347C487.367 152.347 489.789 153.349 491.577 155.132C493.364 156.916 494.37 159.336 494.375 161.861Z" fill="url(#paint52_radial_2811_16119)"/>
<path d="M494.375 161.861C494.379 163.748 493.823 165.593 492.778 167.163C491.733 168.733 490.245 169.958 488.503 170.682C486.762 171.407 484.844 171.598 482.994 171.233C481.143 170.867 479.443 169.96 478.108 168.628C476.772 167.295 475.863 165.597 475.493 163.747C475.124 161.897 475.311 159.979 476.032 158.236C476.754 156.493 477.975 155.003 479.544 153.955C481.112 152.906 482.956 152.347 484.842 152.347C487.367 152.347 489.789 153.349 491.577 155.132C493.364 156.916 494.37 159.336 494.375 161.861Z" fill="url(#paint53_radial_2811_16119)"/>
<path d="M494.375 221.796C494.379 223.682 493.823 225.527 492.778 227.098C491.733 228.668 490.245 229.893 488.503 230.617C486.762 231.341 484.844 231.533 482.994 231.167C481.143 230.801 479.443 229.895 478.108 228.562C476.772 227.23 475.863 225.531 475.493 223.681C475.124 221.832 475.311 219.914 476.032 218.171C476.754 216.428 477.975 214.938 479.544 213.889C481.112 212.841 482.956 212.281 484.842 212.281C487.367 212.281 489.789 213.283 491.577 215.067C493.364 216.851 494.37 219.271 494.375 221.796Z" fill="url(#paint54_radial_2811_16119)"/>
<path d="M494.375 221.796C494.379 223.682 493.823 225.527 492.778 227.098C491.733 228.668 490.245 229.893 488.503 230.617C486.762 231.341 484.844 231.533 482.994 231.167C481.143 230.801 479.443 229.895 478.108 228.562C476.772 227.23 475.863 225.531 475.493 223.681C475.124 221.832 475.311 219.914 476.032 218.171C476.754 216.428 477.975 214.938 479.544 213.889C481.112 212.841 482.956 212.281 484.842 212.281C487.367 212.281 489.789 213.283 491.577 215.067C493.364 216.851 494.37 219.271 494.375 221.796Z" fill="url(#paint55_radial_2811_16119)"/>
<path d="M433.037 258.787C433.04 260.673 432.484 262.519 431.439 264.089C430.394 265.659 428.906 266.884 427.164 267.608C425.423 268.333 423.505 268.524 421.655 268.158C419.804 267.793 418.104 266.886 416.769 265.554C415.434 264.221 414.524 262.522 414.154 260.673C413.785 258.823 413.973 256.905 414.694 255.162C415.415 253.419 416.637 251.929 418.205 250.88C419.773 249.832 421.617 249.272 423.503 249.272C426.028 249.272 428.45 250.274 430.238 252.058C432.025 253.842 433.032 256.262 433.037 258.787Z" fill="url(#paint56_radial_2811_16119)"/>
<path d="M433.037 258.787C433.04 260.673 432.484 262.519 431.439 264.089C430.394 265.659 428.906 266.884 427.164 267.608C425.423 268.333 423.505 268.524 421.655 268.158C419.804 267.793 418.104 266.886 416.769 265.554C415.434 264.221 414.524 262.522 414.154 260.673C413.785 258.823 413.973 256.905 414.694 255.162C415.415 253.419 416.637 251.929 418.205 250.88C419.773 249.832 421.617 249.272 423.503 249.272C426.028 249.272 428.45 250.274 430.238 252.058C432.025 253.842 433.032 256.262 433.037 258.787Z" fill="url(#paint57_radial_2811_16119)"/>
<path d="M433.036 125.34C433.039 127.226 432.483 129.071 431.438 130.641C430.393 132.212 428.905 133.437 427.163 134.161C425.422 134.885 423.504 135.077 421.654 134.711C419.803 134.345 418.103 133.439 416.768 132.106C415.433 130.774 414.523 129.075 414.153 127.225C413.784 125.376 413.972 123.458 414.693 121.715C415.414 119.972 416.636 118.482 418.204 117.433C419.772 116.385 421.616 115.825 423.502 115.825C426.027 115.825 428.449 116.827 430.237 118.611C432.024 120.395 433.031 122.815 433.036 125.34Z" fill="url(#paint58_radial_2811_16119)"/>
<path d="M433.036 125.34C433.039 127.226 432.483 129.071 431.438 130.641C430.393 132.212 428.905 133.437 427.163 134.161C425.422 134.885 423.504 135.077 421.654 134.711C419.803 134.345 418.103 133.439 416.768 132.106C415.433 130.774 414.523 129.075 414.153 127.225C413.784 125.376 413.972 123.458 414.693 121.715C415.414 119.972 416.636 118.482 418.204 117.433C419.772 116.385 421.616 115.825 423.502 115.825C426.027 115.825 428.449 116.827 430.237 118.611C432.024 120.395 433.031 122.815 433.036 125.34Z" fill="url(#paint59_radial_2811_16119)"/>
<path d="M433.036 125.34C433.039 127.226 432.483 129.071 431.438 130.641C430.393 132.212 428.905 133.437 427.163 134.161C425.422 134.885 423.504 135.077 421.654 134.711C419.803 134.345 418.103 133.439 416.768 132.106C415.433 130.774 414.523 129.075 414.153 127.225C413.784 125.376 413.972 123.458 414.693 121.715C415.414 119.972 416.636 118.482 418.204 117.433C419.772 116.385 421.616 115.825 423.502 115.825C426.027 115.825 428.449 116.827 430.237 118.611C432.024 120.395 433.031 122.815 433.036 125.34Z" fill="url(#paint60_radial_2811_16119)"/>
<path d="M447.552 161.395C447.556 163.281 447 165.126 445.955 166.696C444.909 168.266 443.422 169.491 441.68 170.216C439.938 170.94 438.021 171.132 436.17 170.766C434.32 170.4 432.619 169.494 431.284 168.161C429.949 166.829 429.039 165.13 428.67 163.28C428.301 161.43 428.488 159.512 429.209 157.769C429.93 156.026 431.152 154.536 432.72 153.488C434.289 152.439 436.132 151.88 438.019 151.88C440.544 151.88 442.966 152.882 444.753 154.666C446.541 156.449 447.547 158.869 447.552 161.395Z" fill="url(#paint61_radial_2811_16119)"/>
<path d="M447.552 161.395C447.556 163.281 447 165.126 445.955 166.696C444.909 168.266 443.422 169.491 441.68 170.216C439.938 170.94 438.021 171.132 436.17 170.766C434.32 170.4 432.619 169.494 431.284 168.161C429.949 166.829 429.039 165.13 428.67 163.28C428.301 161.43 428.488 159.512 429.209 157.769C429.93 156.026 431.152 154.536 432.72 153.488C434.289 152.439 436.132 151.88 438.019 151.88C440.544 151.88 442.966 152.882 444.753 154.666C446.541 156.449 447.547 158.869 447.552 161.395Z" fill="url(#paint62_radial_2811_16119)"/>
<path d="M447.552 161.395C447.556 163.281 447 165.126 445.955 166.696C444.909 168.266 443.422 169.491 441.68 170.216C439.938 170.94 438.021 171.132 436.17 170.766C434.32 170.4 432.619 169.494 431.284 168.161C429.949 166.829 429.039 165.13 428.67 163.28C428.301 161.43 428.488 159.512 429.209 157.769C429.93 156.026 431.152 154.536 432.72 153.488C434.289 152.439 436.132 151.88 438.019 151.88C440.544 151.88 442.966 152.882 444.753 154.666C446.541 156.449 447.547 158.869 447.552 161.395Z" fill="url(#paint63_radial_2811_16119)"/>
<path d="M468.155 182.933C468.158 184.819 467.602 186.664 466.557 188.234C465.512 189.804 464.024 191.029 462.283 191.754C460.541 192.478 458.623 192.67 456.773 192.304C454.922 191.938 453.222 191.032 451.887 189.699C450.552 188.367 449.642 186.668 449.272 184.818C448.903 182.968 449.091 181.051 449.812 179.307C450.533 177.564 451.755 176.074 453.323 175.026C454.891 173.978 456.735 173.418 458.621 173.418C461.146 173.418 463.568 174.42 465.356 176.204C467.143 177.987 468.15 180.407 468.155 182.933Z" fill="url(#paint64_radial_2811_16119)"/>
<path d="M468.155 182.933C468.158 184.819 467.602 186.664 466.557 188.234C465.512 189.804 464.024 191.029 462.283 191.754C460.541 192.478 458.623 192.67 456.773 192.304C454.922 191.938 453.222 191.032 451.887 189.699C450.552 188.367 449.642 186.668 449.272 184.818C448.903 182.968 449.091 181.051 449.812 179.307C450.533 177.564 451.755 176.074 453.323 175.026C454.891 173.978 456.735 173.418 458.621 173.418C461.146 173.418 463.568 174.42 465.356 176.204C467.143 177.987 468.15 180.407 468.155 182.933Z" fill="url(#paint65_radial_2811_16119)"/>
<path d="M456.673 218.05C456.677 219.937 456.121 221.783 455.074 223.353C454.028 224.924 452.54 226.149 450.797 226.873C449.054 227.597 447.136 227.787 445.285 227.42C443.434 227.052 441.733 226.144 440.399 224.81C439.064 223.475 438.156 221.775 437.789 219.924C437.421 218.073 437.612 216.154 438.336 214.412C439.06 212.669 440.284 211.18 441.855 210.134C443.426 209.088 445.271 208.531 447.159 208.535C449.681 208.54 452.098 209.544 453.881 211.327C455.664 213.111 456.668 215.528 456.673 218.05Z" fill="url(#paint66_radial_2811_16119)"/>
<path d="M456.673 218.05C456.677 219.937 456.121 221.783 455.074 223.353C454.028 224.924 452.54 226.149 450.797 226.873C449.054 227.597 447.136 227.787 445.285 227.42C443.434 227.052 441.733 226.144 440.399 224.81C439.064 223.475 438.156 221.775 437.789 219.924C437.421 218.073 437.612 216.154 438.336 214.412C439.06 212.669 440.284 211.18 441.855 210.134C443.426 209.088 445.271 208.531 447.159 208.535C449.681 208.54 452.098 209.544 453.881 211.327C455.664 213.111 456.668 215.528 456.673 218.05Z" fill="url(#paint67_radial_2811_16119)"/>
<path d="M456.673 218.05C456.677 219.937 456.121 221.783 455.074 223.353C454.028 224.924 452.54 226.149 450.797 226.873C449.054 227.597 447.136 227.787 445.285 227.42C443.434 227.052 441.733 226.144 440.399 224.81C439.064 223.475 438.156 221.775 437.789 219.924C437.421 218.073 437.612 216.154 438.336 214.412C439.06 212.669 440.284 211.18 441.855 210.134C443.426 209.088 445.271 208.531 447.159 208.535C449.681 208.54 452.098 209.544 453.881 211.327C455.664 213.111 456.668 215.528 456.673 218.05Z" fill="url(#paint68_radial_2811_16119)"/>
<path d="M402.601 190.893C402.605 192.779 402.049 194.624 401.003 196.194C399.958 197.764 398.471 198.989 396.729 199.714C394.987 200.438 393.07 200.63 391.219 200.264C389.369 199.898 387.668 198.992 386.333 197.659C384.998 196.327 384.088 194.628 383.719 192.778C383.349 190.928 383.537 189.011 384.258 187.267C384.979 185.524 386.201 184.034 387.769 182.986C389.337 181.938 391.181 181.378 393.068 181.378C395.593 181.378 398.015 182.38 399.802 184.164C401.589 185.947 402.596 188.367 402.601 190.893Z" fill="url(#paint69_radial_2811_16119)"/>
<path d="M402.601 190.893C402.605 192.779 402.049 194.624 401.003 196.194C399.958 197.764 398.471 198.989 396.729 199.714C394.987 200.438 393.07 200.63 391.219 200.264C389.369 199.898 387.668 198.992 386.333 197.659C384.998 196.327 384.088 194.628 383.719 192.778C383.349 190.928 383.537 189.011 384.258 187.267C384.979 185.524 386.201 184.034 387.769 182.986C389.337 181.938 391.181 181.378 393.068 181.378C395.593 181.378 398.015 182.38 399.802 184.164C401.589 185.947 402.596 188.367 402.601 190.893Z" fill="url(#paint70_radial_2811_16119)"/>
<path d="M414.756 158.584C414.76 160.47 414.204 162.315 413.159 163.886C412.113 165.456 410.626 166.681 408.884 167.405C407.143 168.13 405.225 168.321 403.375 167.955C401.524 167.59 399.824 166.683 398.488 165.351C397.153 164.018 396.243 162.319 395.874 160.47C395.505 158.62 395.692 156.702 396.413 154.959C397.134 153.216 398.356 151.726 399.924 150.677C401.493 149.629 403.337 149.069 405.223 149.069C407.748 149.069 410.17 150.071 411.957 151.855C413.745 153.639 414.751 156.059 414.756 158.584Z" fill="url(#paint71_radial_2811_16119)"/>
<path d="M414.756 158.584C414.76 160.47 414.204 162.315 413.159 163.886C412.113 165.456 410.626 166.681 408.884 167.405C407.143 168.13 405.225 168.321 403.375 167.955C401.524 167.59 399.824 166.683 398.488 165.351C397.153 164.018 396.243 162.319 395.874 160.47C395.505 158.62 395.692 156.702 396.413 154.959C397.134 153.216 398.356 151.726 399.924 150.677C401.493 149.629 403.337 149.069 405.223 149.069C407.748 149.069 410.17 150.071 411.957 151.855C413.745 153.639 414.751 156.059 414.756 158.584Z" fill="url(#paint72_radial_2811_16119)"/>
<path d="M182.208 151.467V223.295L252.838 181.809V109.98L182.208 151.467Z" fill="#B3069E"/>
<path d="M182.246 151.468V223.297L111.616 182.129V110.338L182.246 151.468Z" fill="#AF0099"/>
<path d="M111.616 110.337L182.246 151.468L252.838 109.981L182.152 68.8135L111.616 110.337Z" fill="#7A096C"/>
<path style="mix-blend-mode:screen" d="M182.246 150.343L112.571 109.775L111.616 110.337L182.246 151.467L252.838 109.981L251.883 109.419L182.246 150.343Z" fill="url(#paint73_radial_2811_16119)"/>
<path d="M260.124 198.33V270.158L330.772 228.672V156.862L260.124 198.33Z" fill="#B3069E"/>
<path d="M260.161 198.328V270.156L189.55 228.988V157.197L260.161 198.328Z" fill="#AF0099"/>
<path d="M189.55 157.198L260.161 198.329L330.772 156.861L260.067 115.693L189.55 157.198Z" fill="#7A096C"/>
<path style="mix-blend-mode:screen" d="M260.161 197.205L190.505 156.637L189.55 157.199L260.161 198.329L330.772 156.862L329.817 156.3L260.161 197.205Z" fill="url(#paint74_radial_2811_16119)"/>
<path d="M342.047 245.19V317.019L412.695 275.551V203.723L342.047 245.19Z" fill="url(#paint75_linear_2811_16119)"/>
<path d="M342.085 245.19V317.018L271.474 275.85V204.078L342.085 245.19Z" fill="#AF0099"/>
<path d="M271.474 204.078L342.085 245.19L412.696 203.723L341.991 162.555L271.474 204.078Z" fill="#7A096C"/>
<path style="mix-blend-mode:screen" d="M342.085 244.067L272.429 203.498L271.474 204.079L342.085 245.191L412.696 203.723L411.74 203.161L342.085 244.067Z" fill="url(#paint76_radial_2811_16119)"/>
<path style="mix-blend-mode:lighten" opacity="0.2" d="M342.759 244.777L342.047 245.189V251.277L392.317 280.551L342.047 310.05V317.018L404.173 280.551L342.759 244.777Z" fill="url(#paint77_radial_2811_16119)"/>
<path d="M100.283 199.059V270.887L170.932 229.401V157.572L100.283 199.059Z" fill="#B3069E"/>
<path d="M100.322 199.06V270.888L29.6924 229.721V157.93L100.322 199.06Z" fill="#AF0099"/>
<path d="M29.6924 157.929L100.322 199.059L170.933 157.573L100.228 116.405L29.6924 157.929Z" fill="#7A096C"/>
<path style="mix-blend-mode:screen" d="M100.322 197.935L30.6664 157.367L29.6924 157.928L100.322 199.059L170.933 157.573L169.959 157.011L100.322 197.935Z" fill="url(#paint78_radial_2811_16119)"/>
<path d="M180.205 245.922V317.75L250.853 276.264V204.454L180.205 245.922Z" fill="url(#paint79_linear_2811_16119)"/>
<path d="M180.242 245.92V317.749L109.612 276.581V204.79L180.242 245.92Z" fill="#330A66"/>
<path d="M109.612 204.789L180.242 245.92L250.853 204.452L180.148 163.266L109.612 204.789Z" fill="#45108A"/>
<path d="M180.299 282.929V317.504L250.797 276.374V241.799L180.299 282.929Z" fill="url(#paint80_linear_2811_16119)"/>
<path d="M184.605 309.995V285.403L246.413 249.311V273.903L184.605 309.995ZM187.921 287.313V304.17L243.155 271.955V255.098L187.921 287.313Z" fill="url(#paint81_linear_2811_16119)"/>
<path d="M180.337 282.93V317.505L109.576 276.262V241.725L180.337 282.93Z" fill="url(#paint82_linear_2811_16119)"/>
<path d="M115.549 272.835V252.12L174.341 286.358V307.11L115.549 272.835Z" fill="#25054D"/>
<path d="M176.01 310.014L113.884 273.791V249.236L176.01 285.403V310.014ZM117.218 271.881L172.676 304.208V287.351L117.218 255.043V271.881Z" fill="url(#paint83_linear_2811_16119)"/>
<path d="M166.307 288.456L168.592 289.767V287.164L166.307 285.853V288.456Z" fill="#2AF6FF"/>
<path d="M162.037 285.982L164.322 287.293V284.69L162.037 283.379V285.982Z" fill="#2AF6FF"/>
<path d="M157.766 283.511L160.051 284.822V282.218L157.766 280.907V283.511Z" fill="#4B61B8"/>
<path d="M153.495 281.059L155.761 282.37V279.748L153.495 278.437V281.059Z" fill="#25054D"/>
<path d="M149.227 278.585L151.493 279.896V277.274L149.227 275.963V278.585Z" fill="#25054D"/>
<path d="M144.937 276.114L147.222 277.425V274.822L144.937 273.511V276.114Z" fill="#4B61B8"/>
<path d="M140.666 273.641L142.951 274.952V272.348L140.666 271.037V273.641Z" fill="#4B61B8"/>
<path d="M136.396 271.168L138.662 272.498V269.876L136.396 268.564V271.168Z" fill="#4B61B8"/>
<path d="M132.125 268.715L134.391 270.026V267.404L132.125 266.093V268.715Z" fill="#25054D"/>
<path d="M127.837 266.243L130.122 267.554V264.951L127.837 263.621V266.243Z" fill="#4B61B8"/>
<path d="M123.565 263.77L125.85 265.081V262.478L123.565 261.167V263.77Z" fill="#2AF6FF"/>
<path d="M119.295 261.299L121.561 262.629V260.006L119.295 258.695V261.299Z" fill="#2AF6FF"/>
<path d="M166.307 293.101L168.592 294.412V291.79L166.307 290.479V293.101Z" fill="#4B61B8"/>
<path d="M162.037 290.629L164.322 291.94V289.336L162.037 288.025V290.629Z" fill="#2AF6FF"/>
<path d="M157.766 288.157L160.051 289.468V286.865L157.766 285.554V288.157Z" fill="#2AF6FF"/>
<path d="M153.495 285.683L155.761 287.012V284.39L153.495 283.079V285.683Z" fill="#25054D"/>
<path d="M149.227 283.231L151.493 284.542V281.919L149.227 280.608V283.231Z" fill="#2AF6FF"/>
<path d="M144.937 280.758L147.222 282.069V279.466L144.937 278.136V280.758Z" fill="#2AF6FF"/>
<path d="M140.666 278.286L142.951 279.597V276.994L140.666 275.683V278.286Z" fill="#2AF6FF"/>
<path d="M136.396 275.812L138.662 277.124V274.52L136.396 273.209V275.812Z" fill="#4B61B8"/>
<path d="M132.125 273.341L134.391 274.671V272.048L132.125 270.737V273.341Z" fill="#4B61B8"/>
<path d="M127.837 270.888L130.122 272.199V269.577L127.837 268.266V270.888Z" fill="#4B61B8"/>
<path d="M123.565 268.415L125.85 269.726V267.123L123.565 265.793V268.415Z" fill="#4B61B8"/>
<path d="M119.295 265.942L121.561 267.253V264.65L119.295 263.339V265.942Z" fill="#4B61B8"/>
<path d="M166.307 297.689L168.592 299.019V296.397L166.307 295.086V297.689Z" fill="#2AF6FF"/>
<path d="M162.037 295.237L164.322 296.548V293.945L162.037 292.615V295.237Z" fill="#4B61B8"/>
<path d="M157.766 292.764L160.051 294.075V291.471L157.766 290.16V292.764Z" fill="#4B61B8"/>
<path d="M153.495 290.29L155.761 291.601V288.998L153.495 287.687V290.29Z" fill="#4B61B8"/>
<path d="M149.227 287.838L151.493 289.149V286.527L149.227 285.216V287.838Z" fill="#4B61B8"/>
<path d="M144.937 285.366L147.222 286.677V284.055L144.937 282.744V285.366Z" fill="#4B61B8"/>
<path d="M140.666 282.892L142.951 284.204V281.6L140.666 280.289V282.892Z" fill="#25054D"/>
<path d="M136.395 280.42L138.661 281.731V279.127L136.395 277.816V280.42Z" fill="#2AF6FF"/>
<path d="M132.125 277.947L134.391 279.258V276.655L132.125 275.344V277.947Z" fill="#4B61B8"/>
<path d="M127.837 275.496L130.122 276.807V274.185L127.837 272.874V275.496Z" fill="#4B61B8"/>
<path d="M123.565 273.023L125.85 274.334V271.711L123.565 270.4V273.023Z" fill="#2AF6FF"/>
<path d="M119.295 270.55L121.561 271.861V269.257L119.295 267.946V270.55Z" fill="#2AF6FF"/>
<path d="M193.728 288.456L191.443 289.767V287.164L193.728 285.853V288.456Z" fill="#2AF6FF"/>
<path d="M197.997 285.982L195.712 287.293V284.69L197.997 283.379V285.982Z" fill="#25054D"/>
<path d="M202.267 283.511L199.982 284.822V282.218L202.267 280.907V283.511Z" fill="#4B61B8"/>
<path d="M206.538 281.059L204.271 282.37V279.748L206.538 278.437V281.059Z" fill="#25054D"/>
<path d="M210.809 278.585L208.543 279.896V277.274L210.809 275.963V278.585Z" fill="#25054D"/>
<path d="M215.097 276.114L212.812 277.425V274.822L215.097 273.511V276.114Z" fill="#4B61B8"/>
<path d="M219.368 273.641L217.083 274.952V272.348L219.368 271.037V273.641Z" fill="#4B61B8"/>
<path d="M223.638 271.168L221.372 272.498V269.876L223.638 268.564V271.168Z" fill="#4B61B8"/>
<path d="M227.909 268.715L225.643 270.026V267.404L227.909 266.093V268.715Z" fill="#25054D"/>
<path d="M232.199 266.243L229.914 267.554V264.951L232.199 263.621V266.243Z" fill="#25054D"/>
<path d="M236.469 263.77L234.184 265.081V262.478L236.469 261.167V263.77Z" fill="#2AF6FF"/>
<path d="M240.739 261.299L238.473 262.629V260.006L240.739 258.695V261.299Z" fill="#2AF6FF"/>
<path d="M193.728 293.101L191.443 294.412V291.79L193.728 290.479V293.101Z" fill="#4B61B8"/>
<path d="M197.997 290.629L195.712 291.94V289.336L197.997 288.025V290.629Z" fill="#25054D"/>
<path d="M202.267 288.157L199.982 289.468V286.865L202.267 285.554V288.157Z" fill="#2AF6FF"/>
<path d="M206.538 285.683L204.271 287.012V284.39L206.538 283.079V285.683Z" fill="#25054D"/>
<path d="M210.809 283.231L208.543 284.542V281.919L210.809 280.608V283.231Z" fill="#2AF6FF"/>
<path d="M215.097 280.758L212.812 282.069V279.466L215.097 278.136V280.758Z" fill="#2AF6FF"/>
<path d="M219.368 278.286L217.083 279.597V276.994L219.368 275.683V278.286Z" fill="#2AF6FF"/>
<path d="M223.638 275.812L221.372 277.124V274.52L223.638 273.209V275.812Z" fill="#4B61B8"/>
<path d="M227.909 273.341L225.643 274.671V272.048L227.909 270.737V273.341Z" fill="#4B61B8"/>
<path d="M232.199 270.888L229.914 272.199V269.577L232.199 268.266V270.888Z" fill="#4B61B8"/>
<path d="M236.469 268.415L234.184 269.726V267.123L236.469 265.793V268.415Z" fill="#4B61B8"/>
<path d="M240.738 265.942L238.472 267.253V264.65L240.738 263.339V265.942Z" fill="#4B61B8"/>
<path d="M193.728 297.689L191.443 299.019V296.397L193.728 295.086V297.689Z" fill="#2AF6FF"/>
<path d="M197.997 295.237L195.712 296.548V293.945L197.997 292.615V295.237Z" fill="#4B61B8"/>
<path d="M202.267 292.764L199.982 294.075V291.471L202.267 290.16V292.764Z" fill="#4B61B8"/>
<path d="M206.538 290.29L204.271 291.601V288.998L206.538 287.687V290.29Z" fill="#4B61B8"/>
<path d="M210.809 287.838L208.543 289.149V286.527L210.809 285.216V287.838Z" fill="#4B61B8"/>
<path d="M215.097 285.366L212.812 286.677V284.055L215.097 282.744V285.366Z" fill="#4B61B8"/>
<path d="M219.368 282.892L217.083 284.204V281.6L219.368 280.289V282.892Z" fill="#25054D"/>
<path d="M223.638 280.42L221.372 281.731V279.127L223.638 277.816V280.42Z" fill="#2AF6FF"/>
<path d="M227.909 277.947L225.643 279.258V276.655L227.909 275.344V277.947Z" fill="#4B61B8"/>
<path d="M232.199 275.496L229.914 276.807V274.185L232.199 272.874V275.496Z" fill="#4B61B8"/>
<path d="M236.469 273.023L234.184 274.334V271.711L236.469 270.4V273.023Z" fill="#4B61B8"/>
<path d="M240.738 270.55L238.472 271.861V269.257L240.738 267.946V270.55Z" fill="#2AF6FF"/>
<path d="M109.576 241.726L180.337 282.932L250.798 241.801L179.981 200.559L109.576 241.726Z" fill="url(#paint84_linear_2811_16119)"/>
<path d="M180.279 269.764V281.302L245.796 243.093V231.556L180.279 269.764Z" fill="url(#paint85_linear_2811_16119)"/>
<path d="M180.317 269.764V281.301L114.576 242.98V231.48L180.317 269.764Z" fill="url(#paint86_linear_2811_16119)"/>
<path d="M180.299 245.939V280.514L250.797 239.384V204.809L180.299 245.939Z" fill="url(#paint87_linear_2811_16119)"/>
<path d="M180.337 245.939V280.514L109.576 239.271V204.733L180.337 245.939Z" fill="url(#paint88_linear_2811_16119)"/>
<path d="M115.549 235.845V215.13L174.341 249.368V270.12L115.549 235.845Z" fill="#25054D"/>
<path d="M176.01 273.079L113.884 236.856V212.245L176.01 248.412V273.079ZM117.218 234.945L172.676 267.273V250.416L117.218 218.107V234.945Z" fill="url(#paint89_linear_2811_16119)"/>
<path d="M166.307 251.465L168.592 252.776V250.172L166.307 248.861V251.465Z" fill="#2AF6FF"/>
<path d="M162.037 248.992L164.322 250.303V247.7L162.037 246.389V248.992Z" fill="#2AF6FF"/>
<path d="M157.766 246.52L160.051 247.832V245.228L157.766 243.917V246.52Z" fill="#4B61B8"/>
<path d="M153.495 244.066L155.761 245.378V242.755L153.495 241.444V244.066Z" fill="#25054D"/>
<path d="M149.227 241.594L151.493 242.905V240.283L149.227 238.972V241.594Z" fill="#25054D"/>
<path d="M144.937 239.122L147.222 240.433V237.83L144.937 236.519V239.122Z" fill="#4B61B8"/>
<path d="M140.666 236.648L142.951 237.959V235.356L140.666 234.045V236.648Z" fill="#4B61B8"/>
<path d="M136.396 234.177L138.662 235.506V232.884L136.396 231.573V234.177Z" fill="#4B61B8"/>
<path d="M132.125 231.724L134.391 233.035V230.413L132.125 229.102V231.724Z" fill="#25054D"/>
<path d="M127.837 229.251L130.122 230.562V227.959L127.837 226.629V229.251Z" fill="#4B61B8"/>
<path d="M123.565 226.78L125.85 228.091V225.488L123.565 224.177V226.78Z" fill="#2AF6FF"/>
<path d="M119.295 224.307L121.561 225.636V223.014L119.295 221.703V224.307Z" fill="#2AF6FF"/>
<path d="M166.307 256.109L168.592 257.421V254.798L166.307 253.487V256.109Z" fill="#4B61B8"/>
<path d="M162.037 253.639L164.322 254.95V252.346L162.037 251.035V253.639Z" fill="#2AF6FF"/>
<path d="M157.766 251.166L160.051 252.477V249.874L157.766 248.562V251.166Z" fill="#2AF6FF"/>
<path d="M153.495 248.691L155.761 250.021V247.399L153.495 246.088V248.691Z" fill="#25054D"/>
<path d="M149.227 246.24L151.493 247.551V244.929L149.227 243.618V246.24Z" fill="#2AF6FF"/>
<path d="M144.937 243.767L147.222 245.078V242.474L144.937 241.145V243.767Z" fill="#2AF6FF"/>
<path d="M140.666 241.295L142.951 242.606V240.002L140.666 238.691V241.295Z" fill="#2AF6FF"/>
<path d="M136.395 238.822L138.661 240.133V237.53L136.395 236.219V238.822Z" fill="#4B61B8"/>
<path d="M132.125 236.35L134.391 237.679V235.057L132.125 233.746V236.35Z" fill="#4B61B8"/>
<path d="M127.837 233.898L130.122 235.209V232.586L127.837 231.275V233.898Z" fill="#4B61B8"/>
<path d="M123.565 231.424L125.85 232.735V230.131L123.565 228.82V231.424Z" fill="#4B61B8"/>
<path d="M119.295 228.952L121.561 230.263V227.66L119.295 226.349V228.952Z" fill="#4B61B8"/>
<path d="M166.307 260.699L168.592 262.029V259.407L166.307 258.096V260.699Z" fill="#2AF6FF"/>
<path d="M162.037 258.246L164.322 259.557V256.954L162.037 255.624V258.246Z" fill="#4B61B8"/>
<path d="M157.766 255.772L160.051 257.083V254.48L157.766 253.169V255.772Z" fill="#4B61B8"/>
<path d="M153.495 253.299L155.761 254.61V252.006L153.495 250.695V253.299Z" fill="#4B61B8"/>
<path d="M149.227 250.847L151.493 252.158V249.536L149.227 248.225V250.847Z" fill="#4B61B8"/>
<path d="M144.937 248.374L147.222 249.685V247.063L144.937 245.752V248.374Z" fill="#4B61B8"/>
<path d="M140.666 245.901L142.951 247.212V244.609L140.666 243.298V245.901Z" fill="#25054D"/>
<path d="M136.395 243.43L138.661 244.741V242.137L136.395 240.826V243.43Z" fill="#2AF6FF"/>
<path d="M132.125 240.956L134.391 242.267V239.664L132.125 238.353V240.956Z" fill="#4B61B8"/>
<path d="M127.837 238.505L130.122 239.816V237.194L127.837 235.883V238.505Z" fill="#4B61B8"/>
<path d="M123.565 236.031L125.85 237.342V234.739L123.565 233.409V236.031Z" fill="#2AF6FF"/>
<path d="M119.295 233.559L121.561 234.87V232.266L119.295 230.955V233.559Z" fill="#2AF6FF"/>
<path style="mix-blend-mode:screen" d="M180.337 244.816L110.55 204.173L109.576 204.735L180.337 245.94L250.798 204.81L249.843 204.248L180.337 244.816Z" fill="url(#paint90_radial_2811_16119)"/>
<path d="M127.985 205.353L179.81 235.527L232.347 205.297L180.466 175.086L127.985 205.353Z" fill="url(#paint91_linear_2811_16119)"/>
<g style="mix-blend-mode:color-dodge">
<path d="M154.207 220.506L179.998 235.527L206.126 220.487L180.316 205.466L154.207 220.506Z" fill="url(#paint92_radial_2811_16119)"/>
</g>
<g style="mix-blend-mode:screen" filter="url(#filter0_f_2811_16119)">
<path d="M232.704 95.9119L180.373 65.4199L128.342 95.8557V205.087L180.167 235.261L232.704 205.031V95.9119Z" fill="url(#paint93_linear_2811_16119)" style="mix-blend-mode:screen"/>
</g>
<path d="M260.124 292.783V364.611L330.772 323.144V251.315L260.124 292.783Z" fill="url(#paint94_linear_2811_16119)"/>
<path d="M260.161 292.782V364.61L189.55 323.442V251.67L260.161 292.782Z" fill="#AF0099"/>
<path d="M189.55 251.67L260.161 292.782L330.772 251.314L260.067 210.146L189.55 251.67Z" fill="#7A096C"/>
<path style="mix-blend-mode:screen" d="M260.161 291.658L190.505 251.089L189.55 251.67L260.161 292.781L330.772 251.314L329.817 250.752L260.161 291.658Z" fill="url(#paint95_radial_2811_16119)"/>
<path d="M60.5576 360.434L72.17 367.196L79.7368 362.719L68.0869 355.958L60.5576 360.434Z" fill="#E2953F"/>
<path d="M24.0352 339.436L35.6476 346.198L43.2143 341.721L31.5645 334.96L24.0352 339.436Z" fill="#E2953F"/>
<path style="mix-blend-mode:multiply" d="M72.0403 366.559L95.5835 358.524L78.7268 348.372L61.9824 360.752L72.0403 366.559Z" fill="url(#paint96_linear_2811_16119)"/>
<path style="mix-blend-mode:multiply" d="M35.668 345.169L59.23 337.134L42.3733 327.001L25.6289 339.381L35.668 345.169Z" fill="url(#paint97_linear_2811_16119)"/>
<path d="M61.0273 319.567L49.0964 312.675C39.5256 307.149 31.7715 311.569 31.7715 322.545V335.937L41.8106 341.724V331.779C41.8106 325.523 46.2309 323.013 51.6625 326.16L58.4613 330.074C61.3104 331.941 63.6813 334.451 65.3828 337.401C67.0842 340.352 68.0687 343.661 68.2569 347.062V357.026L78.296 362.814V349.441C78.3522 338.465 70.5982 325.092 61.0273 319.567Z" fill="url(#paint98_linear_2811_16119)"/>
<path d="M61.0265 319.566L49.0956 312.674C44.3383 309.921 40.0305 309.64 36.9026 311.4L30.4971 315.146L31.7707 322.882V335.861L34.1494 337.229L35.4979 345.395L41.8098 341.649V331.703C41.8098 325.448 46.23 322.938 51.6617 326.084L58.4605 329.999C61.3195 331.873 63.6965 334.394 65.3984 337.359C67.1004 340.324 68.0795 343.648 68.2561 347.062V357.026L70.9158 358.562L71.9646 366.559L78.2952 362.813V349.44C78.3514 338.465 70.5974 325.092 61.0265 319.566Z" fill="url(#paint99_linear_2811_16119)"/>
<path style="mix-blend-mode:screen" d="M55.801 322.843L43.9076 315.95C38.5509 312.86 33.7561 312.879 30.5908 315.444L31.8269 322.936V335.916L34.2056 337.283L35.5542 345.449L36.6405 344.813V335.036C36.6405 330.409 39.0566 327.825 42.5403 328.087C43.945 324.659 47.5225 323.704 51.7179 326.214L58.5167 330.129C61.3481 331.996 63.7035 334.499 65.3946 337.439C67.0857 340.379 68.0657 343.674 68.2562 347.06V357.024L70.9158 358.56L71.9647 366.558L73.0697 365.921V352.717C73.1259 341.741 65.3718 328.368 55.801 322.843Z" fill="url(#paint100_radial_2811_16119)"/>
<path d="M54.7157 323.311L42.7662 316.419C33.1954 310.893 25.46 315.314 25.46 326.289V339.681L35.4991 345.468V335.523C35.4991 329.267 39.9005 326.757 45.3509 329.904L52.1311 333.818C54.9938 335.675 57.3779 338.182 59.0897 341.134C60.8016 344.085 61.7928 347.399 61.9829 350.806V360.771L72.022 366.558V353.185C72.0033 342.209 64.2679 328.836 54.7157 323.311Z" fill="url(#paint101_linear_2811_16119)"/>
<defs>
<filter id="filter0_f_2811_16119" x="119.042" y="56.1199" width="122.962" height="188.441" filterUnits="userSpaceOnUse" color-interpolation-filters="sRGB">
<feFlood flood-opacity="0" result="BackgroundImageFix"/>
<feBlend mode="normal" in="SourceGraphic" in2="BackgroundImageFix" result="shape"/>
<feGaussianBlur stdDeviation="4.65" result="effect1_foregroundBlur_2811_16119"/>
</filter>
<linearGradient id="paint0_linear_2811_16119" x1="338.002" y1="134.929" x2="353.024" y2="168.624" gradientUnits="userSpaceOnUse">
<stop offset="0.04" stop-color="#FFA98C"/>
<stop offset="0.32" stop-color="#FFB892"/>
<stop offset="0.86" stop-color="#FEE1A3"/>
<stop offset="1" stop-color="#FEECA8"/>
</linearGradient>
<linearGradient id="paint1_linear_2811_16119" x1="188.689" y1="35.5116" x2="332.964" y2="211.234" gradientUnits="userSpaceOnUse">
<stop offset="0.04" stop-color="#FFA98C"/>
<stop offset="0.32" stop-color="#FFB892"/>
<stop offset="0.86" stop-color="#FEE1A3"/>
<stop offset="1" stop-color="#FEECA8"/>
</linearGradient>
<linearGradient id="paint2_linear_2811_16119" x1="334.369" y1="-57.7432" x2="289.418" y2="142.665" gradientUnits="userSpaceOnUse">
<stop offset="0.04" stop-color="#FFA98C"/>
<stop offset="0.32" stop-color="#FFB892"/>
<stop offset="0.86" stop-color="#FEE1A3"/>
<stop offset="1" stop-color="#FEECA8"/>
</linearGradient>
<radialGradient id="paint3_radial_2811_16119" cx="0" cy="0" r="1" gradientUnits="userSpaceOnUse" gradientTransform="translate(299.12 119.681) scale(52.0873 52.0873)">
<stop offset="0.1" stop-color="#FFE4A7"/>
<stop offset="0.42" stop-color="#F4BE4C"/>
<stop offset="0.67" stop-color="#ECA30A"/>
<stop offset="1"/>
</radialGradient>
<linearGradient id="paint4_linear_2811_16119" x1="338.002" y1="115.583" x2="353.024" y2="149.277" gradientUnits="userSpaceOnUse">
<stop offset="0.04" stop-color="#FFA98C"/>
<stop offset="0.32" stop-color="#FFB892"/>
<stop offset="0.86" stop-color="#FEE1A3"/>
<stop offset="1" stop-color="#FEECA8"/>
</linearGradient>
<linearGradient id="paint5_linear_2811_16119" x1="188.69" y1="16.163" x2="332.965" y2="191.866" gradientUnits="userSpaceOnUse">
<stop offset="0.04" stop-color="#FFA98C"/>
<stop offset="0.32" stop-color="#FFB892"/>
<stop offset="0.86" stop-color="#FEE1A3"/>
<stop offset="1" stop-color="#FEECA8"/>
</linearGradient>
<linearGradient id="paint6_linear_2811_16119" x1="334.37" y1="-77.0908" x2="289.419" y2="123.317" gradientUnits="userSpaceOnUse">
<stop offset="0.04" stop-color="#FFA98C"/>
<stop offset="0.32" stop-color="#FFB892"/>
<stop offset="0.86" stop-color="#FEE1A3"/>
<stop offset="1" stop-color="#FEECA8"/>
</linearGradient>
<radialGradient id="paint7_radial_2811_16119" cx="0" cy="0" r="1" gradientUnits="userSpaceOnUse" gradientTransform="translate(299.121 100.335) scale(52.0873 52.0873)">
<stop offset="0.1" stop-color="#FFE4A7"/>
<stop offset="0.42" stop-color="#F4BE4C"/>
<stop offset="0.67" stop-color="#ECA30A"/>
<stop offset="1"/>
</radialGradient>
<linearGradient id="paint8_linear_2811_16119" x1="338.002" y1="96.2144" x2="353.024" y2="129.909" gradientUnits="userSpaceOnUse">
<stop offset="0.04" stop-color="#FFA98C"/>
<stop offset="0.32" stop-color="#FFB892"/>
<stop offset="0.86" stop-color="#FEE1A3"/>
<stop offset="1" stop-color="#FEECA8"/>
</linearGradient>
<linearGradient id="paint9_linear_2811_16119" x1="188.69" y1="-3.20319" x2="332.965" y2="172.519" gradientUnits="userSpaceOnUse">
<stop offset="0.04" stop-color="#FFA98C"/>
<stop offset="0.32" stop-color="#FFB892"/>
<stop offset="0.86" stop-color="#FEE1A3"/>
<stop offset="1" stop-color="#FEECA8"/>
</linearGradient>
<linearGradient id="paint10_linear_2811_16119" x1="334.37" y1="-96.4383" x2="289.419" y2="103.969" gradientUnits="userSpaceOnUse">
<stop offset="0.04" stop-color="#FFA98C"/>
<stop offset="0.32" stop-color="#FFB892"/>
<stop offset="0.86" stop-color="#FEE1A3"/>
<stop offset="1" stop-color="#FEECA8"/>
</linearGradient>
<radialGradient id="paint11_radial_2811_16119" cx="0" cy="0" r="1" gradientUnits="userSpaceOnUse" gradientTransform="translate(299.12 80.9874) scale(52.0873 52.0873)">
<stop offset="0.1" stop-color="#FFE4A7"/>
<stop offset="0.42" stop-color="#F4BE4C"/>
<stop offset="0.67" stop-color="#ECA30A"/>
<stop offset="1"/>
</radialGradient>
<linearGradient id="paint12_linear_2811_16119" x1="338.002" y1="76.8668" x2="353.024" y2="110.561" gradientUnits="userSpaceOnUse">
<stop offset="0.04" stop-color="#FFA98C"/>
<stop offset="0.32" stop-color="#FFB892"/>
<stop offset="0.86" stop-color="#FEE1A3"/>
<stop offset="1" stop-color="#FEECA8"/>
</linearGradient>
<linearGradient id="paint13_linear_2811_16119" x1="188.689" y1="-22.5508" x2="332.964" y2="153.171" gradientUnits="userSpaceOnUse">
<stop offset="0.04" stop-color="#FFA98C"/>
<stop offset="0.32" stop-color="#FFB892"/>
<stop offset="0.86" stop-color="#FEE1A3"/>
<stop offset="1" stop-color="#FEECA8"/>
</linearGradient>
<linearGradient id="paint14_linear_2811_16119" x1="345.345" y1="-164.765" x2="300.393" y2="35.6426" gradientUnits="userSpaceOnUse">
<stop offset="0.04" stop-color="#FFA98C"/>
<stop offset="0.32" stop-color="#FFB892"/>
<stop offset="0.86" stop-color="#FEE1A3"/>
<stop offset="1" stop-color="#FEECA8"/>
</linearGradient>
<linearGradient id="paint15_linear_2811_16119" x1="286.775" y1="23.9934" x2="328.599" y2="82.8421" gradientUnits="userSpaceOnUse">
<stop stop-color="#AF0099"/>
<stop offset="1" stop-color="#E82FD1"/>
</linearGradient>
<radialGradient id="paint16_radial_2811_16119" cx="0" cy="0" r="1" gradientUnits="userSpaceOnUse" gradientTransform="translate(299.12 61.6202) scale(52.0873 52.0873)">
<stop offset="0.1" stop-color="#FFE4A7"/>
<stop offset="0.42" stop-color="#F4BE4C"/>
<stop offset="0.67" stop-color="#ECA30A"/>
<stop offset="1"/>
</radialGradient>
<radialGradient id="paint17_radial_2811_16119" cx="0" cy="0" r="1" gradientUnits="userSpaceOnUse" gradientTransform="translate(303.053 59.8962) scale(32.6646 32.6646)">
<stop stop-color="white"/>
<stop offset="1"/>
</radialGradient>
<radialGradient id="paint18_radial_2811_16119" cx="0" cy="0" r="1" gradientUnits="userSpaceOnUse" gradientTransform="translate(344.088 292.053) scale(72.409 72.409)">
<stop offset="0.1" stop-color="#45108A"/>
<stop offset="0.67" stop-color="#25054D"/>
<stop offset="1"/>
</radialGradient>
<linearGradient id="paint19_linear_2811_16119" x1="307.847" y1="403.644" x2="359.56" y2="519.674" gradientUnits="userSpaceOnUse">
<stop stop-color="#25054D"/>
<stop offset="1" stop-color="#45108A"/>
</linearGradient>
<radialGradient id="paint20_radial_2811_16119" cx="0" cy="0" r="1" gradientUnits="userSpaceOnUse" gradientTransform="translate(260.161 339.645) scale(72.409 72.409)">
<stop offset="0.1" stop-color="#45108A"/>
<stop offset="0.67" stop-color="#25054D"/>
<stop offset="1"/>
</radialGradient>
<linearGradient id="paint21_linear_2811_16119" x1="471.694" y1="404.431" x2="523.407" y2="520.48" gradientUnits="userSpaceOnUse">
<stop stop-color="#B4079E"/>
<stop offset="1" stop-color="#57004C"/>
</linearGradient>
<linearGradient id="paint22_linear_2811_16119" x1="389.77" y1="452.022" x2="441.483" y2="568.072" gradientUnits="userSpaceOnUse">
<stop stop-color="#B4079E"/>
<stop offset="1" stop-color="#57004C"/>
</linearGradient>
<linearGradient id="paint23_linear_2811_16119" x1="60.1843" y1="380.568" x2="119.801" y2="347.491" gradientUnits="userSpaceOnUse">
<stop stop-color="#972A74"/>
<stop offset="0.04" stop-color="#8A266A"/>
<stop offset="0.19" stop-color="#601B4A"/>
<stop offset="0.35" stop-color="#3D112F"/>
<stop offset="0.51" stop-color="#230A1B"/>
<stop offset="0.67" stop-color="#0F040C"/>
<stop offset="0.83" stop-color="#040103"/>
<stop offset="1"/>
</linearGradient>
<linearGradient id="paint24_linear_2811_16119" x1="98.487" y1="433.162" x2="146.697" y2="541.326" gradientUnits="userSpaceOnUse">
<stop offset="0.04" stop-color="#FFA98C"/>
<stop offset="0.32" stop-color="#FFB892"/>
<stop offset="0.86" stop-color="#FEE1A3"/>
<stop offset="1" stop-color="#FEECA8"/>
</linearGradient>
<linearGradient id="paint25_linear_2811_16119" x1="-113.347" y1="213.498" x2="145.161" y2="528.306" gradientUnits="userSpaceOnUse">
<stop offset="0.04" stop-color="#FFA98C"/>
<stop offset="0.32" stop-color="#FFB892"/>
<stop offset="0.86" stop-color="#FEE1A3"/>
<stop offset="1" stop-color="#FEECA8"/>
</linearGradient>
<linearGradient id="paint26_linear_2811_16119" x1="10.6817" y1="395.741" x2="35.33" y2="395.741" gradientUnits="userSpaceOnUse">
<stop stop-color="#AF0099"/>
<stop offset="1" stop-color="#E82FD1"/>
</linearGradient>
<linearGradient id="paint27_linear_2811_16119" x1="75.5611" y1="244.122" x2="48.1596" y2="366.239" gradientUnits="userSpaceOnUse">
<stop offset="0.04" stop-color="#FFA98C"/>
<stop offset="0.32" stop-color="#FFB892"/>
<stop offset="0.86" stop-color="#FEE1A3"/>
<stop offset="1" stop-color="#FEECA8"/>
</linearGradient>
<radialGradient id="paint28_radial_2811_16119" cx="0" cy="0" r="1" gradientUnits="userSpaceOnUse" gradientTransform="translate(51.6433 359.537) scale(67.2021 67.2021)">
<stop offset="0.1" stop-color="#FFE4A7"/>
<stop offset="0.42" stop-color="#F4BE4C"/>
<stop offset="0.67" stop-color="#ECA30A"/>
<stop offset="1"/>
</radialGradient>
<radialGradient id="paint29_radial_2811_16119" cx="0" cy="0" r="1" gradientUnits="userSpaceOnUse" gradientTransform="translate(52.6554 390.384) scale(32.702 32.7021)">
<stop stop-color="white"/>
<stop offset="1"/>
</radialGradient>
<radialGradient id="paint30_radial_2811_16119" cx="0" cy="0" r="1" gradientUnits="userSpaceOnUse" gradientTransform="translate(92.4559 412.522) scale(89.3031 89.3032)">
<stop stop-color="#FDD65B"/>
<stop offset="0.21" stop-color="#B19540"/>
<stop offset="0.47" stop-color="#52461E"/>
<stop offset="0.66" stop-color="#171308"/>
<stop offset="0.75"/>
</radialGradient>
<radialGradient id="paint31_radial_2811_16119" cx="0" cy="0" r="1" gradientUnits="userSpaceOnUse" gradientTransform="translate(100.303 259.968) scale(72.409 72.409)">
<stop offset="0.1" stop-color="#45108A"/>
<stop offset="0.67" stop-color="#25054D"/>
<stop offset="1"/>
</radialGradient>
<radialGradient id="paint32_radial_2811_16119" cx="0" cy="0" r="1" gradientUnits="userSpaceOnUse" gradientTransform="translate(57.3384 348.148) scale(85.8943 85.8944)">
<stop stop-color="#FDD65B"/>
<stop offset="0.21" stop-color="#B19540"/>
<stop offset="0.47" stop-color="#52461E"/>
<stop offset="0.66" stop-color="#171308"/>
<stop offset="0.75"/>
</radialGradient>
<linearGradient id="paint33_linear_2811_16119" x1="307.847" y1="499.615" x2="359.56" y2="615.664" gradientUnits="userSpaceOnUse">
<stop stop-color="#B4079E"/>
<stop offset="1" stop-color="#57004C"/>
</linearGradient>
<radialGradient id="paint34_radial_2811_16119" cx="0" cy="0" r="1" gradientUnits="userSpaceOnUse" gradientTransform="translate(260.161 435.614) scale(72.409 72.409)">
<stop offset="0.1" stop-color="#45108A"/>
<stop offset="0.67" stop-color="#25054D"/>
<stop offset="1"/>
</radialGradient>
<radialGradient id="paint35_radial_2811_16119" cx="0" cy="0" r="1" gradientUnits="userSpaceOnUse" gradientTransform="translate(180.242 306.829) scale(72.409 72.4089)">
<stop offset="0.1" stop-color="#45108A"/>
<stop offset="0.67" stop-color="#25054D"/>
<stop offset="1"/>
</radialGradient>
<linearGradient id="paint36_linear_2811_16119" x1="298.763" y1="367.364" x2="312.605" y2="398.399" gradientUnits="userSpaceOnUse">
<stop stop-color="#25054D"/>
<stop offset="1" stop-color="#45108A"/>
</linearGradient>
<radialGradient id="paint37_radial_2811_16119" cx="0" cy="0" r="1" gradientUnits="userSpaceOnUse" gradientTransform="translate(260.161 353.692) scale(71.5849 71.5849)">
<stop offset="0.1" stop-color="#45108A"/>
<stop offset="0.67" stop-color="#25054D"/>
<stop offset="1"/>
</radialGradient>
<radialGradient id="paint38_radial_2811_16119" cx="0" cy="0" r="1" gradientUnits="userSpaceOnUse" gradientTransform="translate(335.941 364.292) scale(72.4277 72.4277)">
<stop stop-color="#FDD65B"/>
<stop offset="0.21" stop-color="#B19540"/>
<stop offset="0.47" stop-color="#52461E"/>
<stop offset="0.66" stop-color="#171308"/>
<stop offset="0.75"/>
</radialGradient>
<linearGradient id="paint39_linear_2811_16119" x1="215.537" y1="396.909" x2="261.488" y2="404.848" gradientUnits="userSpaceOnUse">
<stop stop-color="#AF0099"/>
<stop offset="1" stop-color="#E846D1"/>
</linearGradient>
<linearGradient id="paint40_linear_2811_16119" x1="471.694" y1="322.506" x2="523.407" y2="438.555" gradientUnits="userSpaceOnUse">
<stop stop-color="#B4079E"/>
<stop offset="1" stop-color="#57004C"/>
</linearGradient>
<radialGradient id="paint41_radial_2811_16119" cx="0" cy="0" r="1" gradientUnits="userSpaceOnUse" gradientTransform="translate(424.008 258.507) scale(72.409 72.409)">
<stop offset="0.1" stop-color="#45108A"/>
<stop offset="0.67" stop-color="#25054D"/>
<stop offset="1"/>
</radialGradient>
<linearGradient id="paint42_linear_2811_16119" x1="322.662" y1="331.828" x2="411.628" y2="354.304" gradientUnits="userSpaceOnUse">
<stop stop-color="#AF0099"/>
<stop offset="1" stop-color="#E846D1"/>
</linearGradient>
<radialGradient id="paint43_radial_2811_16119" cx="0" cy="0" r="1" gradientUnits="userSpaceOnUse" gradientTransform="translate(344.088 129.722) scale(72.409 72.409)">
<stop offset="0.1" stop-color="#45108A"/>
<stop offset="0.67" stop-color="#25054D"/>
<stop offset="1"/>
</radialGradient>
<radialGradient id="paint44_radial_2811_16119" cx="0" cy="0" r="1" gradientUnits="userSpaceOnUse" gradientTransform="translate(359.934 219.569) scale(13.2232)">
<stop offset="0.15" stop-color="#5213A6"/>
<stop offset="0.25" stop-color="#45108A"/>
<stop offset="0.8" stop-color="#25054D"/>
<stop offset="0.97" stop-color="#2D085C"/>
</radialGradient>
<radialGradient id="paint45_radial_2811_16119" cx="0" cy="0" r="1" gradientUnits="userSpaceOnUse" gradientTransform="translate(359.934 158.696) scale(13.2232)">
<stop offset="0.15" stop-color="#5213A6"/>
<stop offset="0.25" stop-color="#45108A"/>
<stop offset="0.8" stop-color="#25054D"/>
<stop offset="0.97" stop-color="#2D085C"/>
</radialGradient>
<radialGradient id="paint46_radial_2811_16119" cx="0" cy="0" r="1" gradientUnits="userSpaceOnUse" gradientTransform="translate(359.934 158.696) scale(13.2232)">
<stop offset="0.15" stop-color="#F42DDC"/>
<stop offset="0.25" stop-color="#F42DDC"/>
<stop offset="0.8" stop-color="#860976"/>
<stop offset="0.97" stop-color="#860976"/>
</radialGradient>
<radialGradient id="paint47_radial_2811_16119" cx="0" cy="0" r="1" gradientUnits="userSpaceOnUse" gradientTransform="translate(420.338 195.219) scale(13.2232 13.2232)">
<stop offset="0.15" stop-color="#5213A6"/>
<stop offset="0.25" stop-color="#45108A"/>
<stop offset="0.8" stop-color="#25054D"/>
<stop offset="0.97" stop-color="#2D085C"/>
</radialGradient>
<radialGradient id="paint48_radial_2811_16119" cx="0" cy="0" r="1" gradientUnits="userSpaceOnUse" gradientTransform="translate(420.338 195.219) scale(13.2232 13.2232)">
<stop offset="0.15" stop-color="#F42DDC"/>
<stop offset="0.25" stop-color="#F42DDC"/>
<stop offset="0.8" stop-color="#860976"/>
<stop offset="0.97" stop-color="#860976"/>
</radialGradient>
<radialGradient id="paint49_radial_2811_16119" cx="0" cy="0" r="1" gradientUnits="userSpaceOnUse" gradientTransform="translate(403.013 222.845) scale(13.2232 13.2232)">
<stop offset="0.15" stop-color="#5213A6"/>
<stop offset="0.25" stop-color="#45108A"/>
<stop offset="0.8" stop-color="#25054D"/>
<stop offset="0.97" stop-color="#2D085C"/>
</radialGradient>
<radialGradient id="paint50_radial_2811_16119" cx="0" cy="0" r="1" gradientUnits="userSpaceOnUse" gradientTransform="translate(403.013 222.845) scale(13.2232 13.2232)">
<stop offset="0.15" stop-color="#F42DDC"/>
<stop offset="0.25" stop-color="#F42DDC"/>
<stop offset="0.8" stop-color="#860976"/>
<stop offset="0.97" stop-color="#860976"/>
</radialGradient>
<radialGradient id="paint51_radial_2811_16119" cx="0" cy="0" r="1" gradientUnits="userSpaceOnUse" gradientTransform="translate(481.677 158.696) scale(13.2232 13.2232)">
<stop offset="0.15" stop-color="#5213A6"/>
<stop offset="0.25" stop-color="#45108A"/>
<stop offset="0.8" stop-color="#25054D"/>
<stop offset="0.97" stop-color="#2D085C"/>
</radialGradient>
<radialGradient id="paint52_radial_2811_16119" cx="0" cy="0" r="1" gradientUnits="userSpaceOnUse" gradientTransform="translate(481.677 158.696) scale(13.2232 13.2232)">
<stop offset="0.15" stop-color="#F42DDC"/>
<stop offset="0.25" stop-color="#F42DDC"/>
<stop offset="0.8" stop-color="#CD0FB5"/>
<stop offset="0.97" stop-color="#CD0FB5"/>
</radialGradient>
<radialGradient id="paint53_radial_2811_16119" cx="0" cy="0" r="1" gradientUnits="userSpaceOnUse" gradientTransform="translate(481.677 158.696) scale(13.2232 13.2232)">
<stop offset="0.15" stop-color="#F42DDC"/>
<stop offset="0.25" stop-color="#F42DDC"/>
<stop offset="0.8" stop-color="#860976"/>
<stop offset="0.97" stop-color="#860976"/>
</radialGradient>
<radialGradient id="paint54_radial_2811_16119" cx="0" cy="0" r="1" gradientUnits="userSpaceOnUse" gradientTransform="translate(481.677 218.631) scale(13.2232 13.2232)">
<stop offset="0.15" stop-color="#F42DDC"/>
<stop offset="0.25" stop-color="#F42DDC"/>
<stop offset="0.8" stop-color="#CD0FB5"/>
<stop offset="0.97" stop-color="#CD0FB5"/>
</radialGradient>
<radialGradient id="paint55_radial_2811_16119" cx="0" cy="0" r="1" gradientUnits="userSpaceOnUse" gradientTransform="translate(481.677 218.631) scale(13.2232 13.2232)">
<stop offset="0.15" stop-color="#F42DDC"/>
<stop offset="0.25" stop-color="#F42DDC"/>
<stop offset="0.8" stop-color="#860976"/>
<stop offset="0.97" stop-color="#860976"/>
</radialGradient>
<radialGradient id="paint56_radial_2811_16119" cx="0" cy="0" r="1" gradientUnits="userSpaceOnUse" gradientTransform="translate(420.338 255.622) scale(13.2232 13.2232)">
<stop offset="0.15" stop-color="#5213A6"/>
<stop offset="0.25" stop-color="#45108A"/>
<stop offset="0.8" stop-color="#25054D"/>
<stop offset="0.97" stop-color="#2D085C"/>
</radialGradient>
<radialGradient id="paint57_radial_2811_16119" cx="0" cy="0" r="1" gradientUnits="userSpaceOnUse" gradientTransform="translate(420.338 255.622) scale(13.2232 13.2232)">
<stop offset="0.15" stop-color="#F42DDC"/>
<stop offset="0.25" stop-color="#F42DDC"/>
<stop offset="0.8" stop-color="#860976"/>
<stop offset="0.97" stop-color="#860976"/>
</radialGradient>
<radialGradient id="paint58_radial_2811_16119" cx="0" cy="0" r="1" gradientUnits="userSpaceOnUse" gradientTransform="translate(420.337 122.175) scale(13.2232 13.2232)">
<stop offset="0.15" stop-color="#5213A6"/>
<stop offset="0.25" stop-color="#45108A"/>
<stop offset="0.8" stop-color="#25054D"/>
<stop offset="0.97" stop-color="#2D085C"/>
</radialGradient>
<radialGradient id="paint59_radial_2811_16119" cx="0" cy="0" r="1" gradientUnits="userSpaceOnUse" gradientTransform="translate(420.337 122.175) scale(13.2232 13.2232)">
<stop offset="0.15" stop-color="#F42DDC"/>
<stop offset="0.25" stop-color="#F42DDC"/>
<stop offset="0.8" stop-color="#CD0FB5"/>
<stop offset="0.97" stop-color="#CD0FB5"/>
</radialGradient>
<radialGradient id="paint60_radial_2811_16119" cx="0" cy="0" r="1" gradientUnits="userSpaceOnUse" gradientTransform="translate(420.337 122.175) scale(13.2232 13.2232)">
<stop offset="0.15" stop-color="#F42DDC"/>
<stop offset="0.25" stop-color="#F42DDC"/>
<stop offset="0.8" stop-color="#860976"/>
<stop offset="0.97" stop-color="#860976"/>
</radialGradient>
<radialGradient id="paint61_radial_2811_16119" cx="0" cy="0" r="1" gradientUnits="userSpaceOnUse" gradientTransform="translate(434.853 158.229) scale(13.2232 13.2232)">
<stop offset="0.15" stop-color="#5213A6"/>
<stop offset="0.25" stop-color="#45108A"/>
<stop offset="0.8" stop-color="#25054D"/>
<stop offset="0.97" stop-color="#2D085C"/>
</radialGradient>
<radialGradient id="paint62_radial_2811_16119" cx="0" cy="0" r="1" gradientUnits="userSpaceOnUse" gradientTransform="translate(434.853 158.229) scale(13.2232 13.2232)">
<stop offset="0.15" stop-color="#F42DDC"/>
<stop offset="0.25" stop-color="#F42DDC"/>
<stop offset="0.8" stop-color="#CD0FB5"/>
<stop offset="0.97" stop-color="#CD0FB5"/>
</radialGradient>
<radialGradient id="paint63_radial_2811_16119" cx="0" cy="0" r="1" gradientUnits="userSpaceOnUse" gradientTransform="translate(434.853 158.229) scale(13.2232 13.2232)">
<stop offset="0.15" stop-color="#F42DDC"/>
<stop offset="0.25" stop-color="#F42DDC"/>
<stop offset="0.8" stop-color="#860976"/>
<stop offset="0.97" stop-color="#860976"/>
</radialGradient>
<radialGradient id="paint64_radial_2811_16119" cx="0" cy="0" r="1" gradientUnits="userSpaceOnUse" gradientTransform="translate(455.456 179.767) scale(13.2232 13.2232)">
<stop offset="0.15" stop-color="#5213A6"/>
<stop offset="0.25" stop-color="#45108A"/>
<stop offset="0.8" stop-color="#25054D"/>
<stop offset="0.97" stop-color="#2D085C"/>
</radialGradient>
<radialGradient id="paint65_radial_2811_16119" cx="0" cy="0" r="1" gradientUnits="userSpaceOnUse" gradientTransform="translate(455.456 179.767) scale(13.2232 13.2232)">
<stop offset="0.15" stop-color="#F42DDC"/>
<stop offset="0.25" stop-color="#F42DDC"/>
<stop offset="0.8" stop-color="#860976"/>
<stop offset="0.97" stop-color="#860976"/>
</radialGradient>
<radialGradient id="paint66_radial_2811_16119" cx="0" cy="0" r="1" gradientUnits="userSpaceOnUse" gradientTransform="translate(443.975 214.885) scale(13.2232 13.2232)">
<stop offset="0.15" stop-color="#5213A6"/>
<stop offset="0.25" stop-color="#45108A"/>
<stop offset="0.8" stop-color="#25054D"/>
<stop offset="0.97" stop-color="#2D085C"/>
</radialGradient>
<radialGradient id="paint67_radial_2811_16119" cx="0" cy="0" r="1" gradientUnits="userSpaceOnUse" gradientTransform="translate(443.975 214.885) scale(13.2232 13.2232)">
<stop offset="0.15" stop-color="#F42DDC"/>
<stop offset="0.25" stop-color="#F42DDC"/>
<stop offset="0.8" stop-color="#CD0FB5"/>
<stop offset="0.97" stop-color="#CD0FB5"/>
</radialGradient>
<radialGradient id="paint68_radial_2811_16119" cx="0" cy="0" r="1" gradientUnits="userSpaceOnUse" gradientTransform="translate(443.975 214.885) scale(13.2232 13.2232)">
<stop offset="0.15" stop-color="#F42DDC"/>
<stop offset="0.25" stop-color="#F42DDC"/>
<stop offset="0.8" stop-color="#860976"/>
<stop offset="0.97" stop-color="#860976"/>
</radialGradient>
<radialGradient id="paint69_radial_2811_16119" cx="0" cy="0" r="1" gradientUnits="userSpaceOnUse" gradientTransform="translate(389.902 187.727) scale(13.2232 13.2232)">
<stop offset="0.15" stop-color="#5213A6"/>
<stop offset="0.25" stop-color="#45108A"/>
<stop offset="0.8" stop-color="#25054D"/>
<stop offset="0.97" stop-color="#2D085C"/>
</radialGradient>
<radialGradient id="paint70_radial_2811_16119" cx="0" cy="0" r="1" gradientUnits="userSpaceOnUse" gradientTransform="translate(389.902 187.727) scale(13.2232 13.2232)">
<stop offset="0.15" stop-color="#F42DDC"/>
<stop offset="0.25" stop-color="#F42DDC"/>
<stop offset="0.8" stop-color="#860976"/>
<stop offset="0.97" stop-color="#860976"/>
</radialGradient>
<radialGradient id="paint71_radial_2811_16119" cx="0" cy="0" r="1" gradientUnits="userSpaceOnUse" gradientTransform="translate(402.076 155.419) scale(13.2232 13.2232)">
<stop offset="0.15" stop-color="#5213A6"/>
<stop offset="0.25" stop-color="#45108A"/>
<stop offset="0.8" stop-color="#25054D"/>
<stop offset="0.97" stop-color="#2D085C"/>
</radialGradient>
<radialGradient id="paint72_radial_2811_16119" cx="0" cy="0" r="1" gradientUnits="userSpaceOnUse" gradientTransform="translate(402.058 155.419) scale(13.2232 13.2232)">
<stop offset="0.15" stop-color="#F42DDC"/>
<stop offset="0.25" stop-color="#F42DDC"/>
<stop offset="0.8" stop-color="#860976"/>
<stop offset="0.97" stop-color="#860976"/>
</radialGradient>
<radialGradient id="paint73_radial_2811_16119" cx="0" cy="0" r="1" gradientUnits="userSpaceOnUse" gradientTransform="translate(182.227 130.452) scale(72.409 72.409)">
<stop offset="0.1" stop-color="#45108A"/>
<stop offset="0.67" stop-color="#25054D"/>
<stop offset="1"/>
</radialGradient>
<radialGradient id="paint74_radial_2811_16119" cx="0" cy="0" r="1" gradientUnits="userSpaceOnUse" gradientTransform="translate(260.161 177.315) scale(72.409 72.409)">
<stop offset="0.1" stop-color="#45108A"/>
<stop offset="0.67" stop-color="#25054D"/>
<stop offset="1"/>
</radialGradient>
<linearGradient id="paint75_linear_2811_16119" x1="389.77" y1="288.175" x2="441.483" y2="404.224" gradientUnits="userSpaceOnUse">
<stop stop-color="#B4079E"/>
<stop offset="1" stop-color="#57004C"/>
</linearGradient>
<radialGradient id="paint76_radial_2811_16119" cx="0" cy="0" r="1" gradientUnits="userSpaceOnUse" gradientTransform="translate(342.085 224.176) scale(77.7095 77.7095)">
<stop offset="0.1" stop-color="#45108A"/>
<stop offset="0.67" stop-color="#25054D"/>
<stop offset="1"/>
</radialGradient>
<radialGradient id="paint77_radial_2811_16119" cx="0" cy="0" r="1" gradientUnits="userSpaceOnUse" gradientTransform="translate(360.758 349.308) scale(173.437 173.437)">
<stop stop-color="#FDD65B"/>
<stop offset="0.21" stop-color="#B19540"/>
<stop offset="0.47" stop-color="#52461E"/>
<stop offset="0.66" stop-color="#171308"/>
<stop offset="0.75"/>
</radialGradient>
<radialGradient id="paint78_radial_2811_16119" cx="0" cy="0" r="1" gradientUnits="userSpaceOnUse" gradientTransform="translate(100.303 178.044) scale(72.409 72.409)">
<stop offset="0.1" stop-color="#45108A"/>
<stop offset="0.67" stop-color="#25054D"/>
<stop offset="1"/>
</radialGradient>
<linearGradient id="paint79_linear_2811_16119" x1="227.928" y1="288.906" x2="279.622" y2="404.937" gradientUnits="userSpaceOnUse">
<stop stop-color="#25054D"/>
<stop offset="1" stop-color="#45108A"/>
</linearGradient>
<linearGradient id="paint80_linear_2811_16119" x1="203.074" y1="283.379" x2="367.184" y2="234.251" gradientUnits="userSpaceOnUse">
<stop stop-color="#25054D"/>
<stop offset="1" stop-color="#45108A"/>
</linearGradient>
<linearGradient id="paint81_linear_2811_16119" x1="184.605" y1="279.653" x2="246.488" y2="279.653" gradientUnits="userSpaceOnUse">
<stop stop-color="#25054D"/>
<stop offset="1" stop-color="#45108A"/>
</linearGradient>
<linearGradient id="paint82_linear_2811_16119" x1="39.3211" y1="303.289" x2="255.293" y2="254.873" gradientUnits="userSpaceOnUse">
<stop stop-color="#25054D"/>
<stop offset="1" stop-color="#45108A"/>
</linearGradient>
<linearGradient id="paint83_linear_2811_16119" x1="113.884" y1="279.616" x2="176.01" y2="279.616" gradientUnits="userSpaceOnUse">
<stop stop-color="#25054D"/>
<stop offset="1" stop-color="#45108A"/>
</linearGradient>
<linearGradient id="paint84_linear_2811_16119" x1="253.72" y1="101.647" x2="174.624" y2="252.365" gradientUnits="userSpaceOnUse">
<stop stop-color="#25054D"/>
<stop offset="1" stop-color="#45108A"/>
</linearGradient>
<linearGradient id="paint85_linear_2811_16119" x1="300.936" y1="457.398" x2="442.551" y2="414.994" gradientUnits="userSpaceOnUse">
<stop offset="0.03" stop-color="#7C1DC9"/>
<stop offset="0.21" stop-color="#6E41D2"/>
<stop offset="0.62" stop-color="#4C9BE8"/>
<stop offset="1" stop-color="#2AF6FF"/>
</linearGradient>
<linearGradient id="paint86_linear_2811_16119" x1="56.3455" y1="276.825" x2="242.612" y2="235.058" gradientUnits="userSpaceOnUse">
<stop offset="0.04" stop-color="#138BBD"/>
<stop offset="0.23" stop-color="#169AC7"/>
<stop offset="0.59" stop-color="#1FC3DF"/>
<stop offset="1" stop-color="#2AF6FF"/>
</linearGradient>
<linearGradient id="paint87_linear_2811_16119" x1="203.074" y1="246.389" x2="367.184" y2="197.261" gradientUnits="userSpaceOnUse">
<stop stop-color="#25054D"/>
<stop offset="1" stop-color="#45108A"/>
</linearGradient>
<linearGradient id="paint88_linear_2811_16119" x1="39.3211" y1="266.298" x2="255.293" y2="217.882" gradientUnits="userSpaceOnUse">
<stop stop-color="#25054D"/>
<stop offset="1" stop-color="#45108A"/>
</linearGradient>
<linearGradient id="paint89_linear_2811_16119" x1="113.884" y1="242.625" x2="176.01" y2="242.625" gradientUnits="userSpaceOnUse">
<stop stop-color="#25054D"/>
<stop offset="1" stop-color="#45108A"/>
</linearGradient>
<radialGradient id="paint90_radial_2811_16119" cx="0" cy="0" r="1" gradientUnits="userSpaceOnUse" gradientTransform="translate(180.187 225.056) scale(72.2966 72.2966)">
<stop offset="0.1" stop-color="#45108A"/>
<stop offset="0.67" stop-color="#25054D"/>
<stop offset="1"/>
</radialGradient>
<linearGradient id="paint91_linear_2811_16119" x1="180.166" y1="166.545" x2="180.166" y2="227.154" gradientUnits="userSpaceOnUse">
<stop offset="0.03" stop-color="#AF0099"/>
<stop offset="0.21" stop-color="#AF0099"/>
<stop offset="0.62" stop-color="#E82FD1"/>
<stop offset="1" stop-color="#E82FD1"/>
</linearGradient>
<radialGradient id="paint92_radial_2811_16119" cx="0" cy="0" r="1" gradientUnits="userSpaceOnUse" gradientTransform="translate(179.848 234.853) scale(29.7802 29.7802)">
<stop stop-color="white"/>
<stop offset="1"/>
</radialGradient>
<linearGradient id="paint93_linear_2811_16119" x1="180.523" y1="235.261" x2="180.523" y2="68.6976" gradientUnits="userSpaceOnUse">
<stop stop-color="#E82FD1"/>
<stop offset="0.05" stop-color="#E82FD1"/>
<stop offset="0.18" stop-color="#C512AE"/>
<stop offset="0.31" stop-color="#C10FAB"/>
<stop offset="0.45" stop-color="#BA07A4"/>
<stop offset="0.58" stop-color="#B30D9E"/>
<stop offset="0.72" stop-color="#BD02A6"/>
<stop offset="0.85" stop-color="#AB0596"/>
<stop offset="1" stop-color="#AD0098"/>
</linearGradient>
<linearGradient id="paint94_linear_2811_16119" x1="307.847" y1="335.768" x2="359.56" y2="451.817" gradientUnits="userSpaceOnUse">
<stop stop-color="#B4079E"/>
<stop offset="1" stop-color="#57004C"/>
</linearGradient>
<radialGradient id="paint95_radial_2811_16119" cx="0" cy="0" r="1" gradientUnits="userSpaceOnUse" gradientTransform="translate(260.161 271.767) scale(72.409 72.409)">
<stop offset="0.1" stop-color="#45108A"/>
<stop offset="0.67" stop-color="#25054D"/>
<stop offset="1"/>
</radialGradient>
<linearGradient id="paint96_linear_2811_16119" x1="89.4776" y1="352.568" x2="45.1631" y2="369.424" gradientUnits="userSpaceOnUse">
<stop stop-color="white"/>
<stop offset="1" stop-color="#A3653D"/>
</linearGradient>
<linearGradient id="paint97_linear_2811_16119" x1="53.1241" y1="331.178" x2="8.79092" y2="348.034" gradientUnits="userSpaceOnUse">
<stop stop-color="white"/>
<stop offset="1" stop-color="#A3653D"/>
</linearGradient>
<linearGradient id="paint98_linear_2811_16119" x1="95.9956" y1="403.72" x2="102.233" y2="413.702" gradientUnits="userSpaceOnUse">
<stop offset="0.04" stop-color="#FFA98C"/>
<stop offset="0.32" stop-color="#FFB892"/>
<stop offset="0.86" stop-color="#FEE1A3"/>
<stop offset="1" stop-color="#FEECA8"/>
</linearGradient>
<linearGradient id="paint99_linear_2811_16119" x1="171.269" y1="525.949" x2="185.672" y2="549.005" gradientUnits="userSpaceOnUse">
<stop offset="0.04" stop-color="#FFA98C"/>
<stop offset="0.32" stop-color="#FFB892"/>
<stop offset="0.86" stop-color="#FEE1A3"/>
<stop offset="1" stop-color="#FEECA8"/>
</linearGradient>
<radialGradient id="paint100_radial_2811_16119" cx="0" cy="0" r="1" gradientUnits="userSpaceOnUse" gradientTransform="translate(61.8132 329.454) scale(54.3723 54.3723)">
<stop offset="0.1" stop-color="#FFE4A7"/>
<stop offset="0.42" stop-color="#F4BE4C"/>
<stop offset="0.67" stop-color="#ECA30A"/>
<stop offset="1"/>
</radialGradient>
<linearGradient id="paint101_linear_2811_16119" x1="13.4542" y1="406.789" x2="70.5797" y2="305.349" gradientUnits="userSpaceOnUse">
<stop offset="0.04" stop-color="#FFA98C"/>
<stop offset="0.31" stop-color="#FFB893"/>
<stop offset="0.32" stop-color="#FFB993"/>
<stop offset="0.82" stop-color="#FEDDA2"/>
<stop offset="1" stop-color="#FEECA8"/>
</linearGradient>
</defs>
</svg>
