<svg width="266" height="285" viewBox="0 0 266 285" fill="none" xmlns="http://www.w3.org/2000/svg">
<g style="mix-blend-mode:multiply">
<path d="M11.72 210.462L138.39 284.222L265.04 209.822L138.23 135.972L11.72 210.462Z" fill="#E6E7E8"/>
</g>
<path d="M159.16 75.2018V82.5518L196.88 60.4018V53.0518L159.16 75.2018Z" fill="url(#paint0_linear_1120_869)"/>
<path d="M159.18 75.2012V82.5512L121.48 60.5612V53.2412L159.18 75.2012Z" fill="url(#paint1_linear_1120_869)"/>
<path d="M121.48 53.2413L159.18 75.2013L196.88 53.0513L159.13 31.0713L121.48 53.2413Z" fill="url(#paint2_linear_1120_869)"/>
<path style="mix-blend-mode:screen" d="M159.18 74.601L121.99 52.941L121.48 53.241L159.18 75.201L196.88 53.051L196.37 52.751L159.18 74.601Z" fill="url(#paint3_radial_1120_869)"/>
<path d="M159.16 64.8617V72.2117L196.88 50.0717V42.7217L159.16 64.8617Z" fill="url(#paint4_linear_1120_869)"/>
<path d="M159.18 64.8611V72.2111L121.48 50.2311V42.9111L159.18 64.8611Z" fill="url(#paint5_linear_1120_869)"/>
<path d="M121.48 42.9112L159.18 64.8612L196.88 42.7212L159.13 20.7412L121.48 42.9112Z" fill="url(#paint6_linear_1120_869)"/>
<path style="mix-blend-mode:screen" d="M159.18 64.2609L121.99 42.6009L121.48 42.9109L159.18 64.8609L196.88 42.7209L196.37 42.4209L159.18 64.2609Z" fill="url(#paint7_radial_1120_869)"/>
<path d="M159.16 54.5309V61.8809L196.88 39.7309V32.3809L159.16 54.5309Z" fill="url(#paint8_linear_1120_869)"/>
<path d="M159.18 54.5313V61.8813L121.48 39.9013V32.5713L159.18 54.5313Z" fill="url(#paint9_linear_1120_869)"/>
<path d="M121.48 32.5714L159.18 54.5314L196.88 32.3814L159.13 10.4014L121.48 32.5714Z" fill="url(#paint10_linear_1120_869)"/>
<path style="mix-blend-mode:screen" d="M159.18 53.9308L121.99 32.2708L121.48 32.5708L159.18 54.5308L196.88 32.3808L196.37 32.0908L159.18 53.9308Z" fill="url(#paint11_radial_1120_869)"/>
<path d="M159.16 44.2018V51.5518L196.88 29.4018V22.0518L159.16 44.2018Z" fill="url(#paint12_linear_1120_869)"/>
<path d="M159.18 44.2012V51.5512L121.48 29.5712V22.2412L159.18 44.2012Z" fill="url(#paint13_linear_1120_869)"/>
<path d="M121.48 22.2413L159.18 44.2013L196.88 22.0513L159.13 0.0712891L121.48 22.2413Z" fill="url(#paint14_linear_1120_869)"/>
<path d="M127.42 22.2318L159.14 3.55176L190.94 22.0618L159.18 40.7218L127.42 22.2318Z" fill="#AF0099"/>
<path d="M159.14 5.05176L189.66 22.8218L190.94 22.0618L159.14 3.55176L127.42 22.2318L128.7 22.9718L159.14 5.05176Z" fill="url(#paint15_linear_1120_869)"/>
<path d="M159.14 5.05176L189.66 22.8218L190.94 22.0618L159.14 3.55176V5.05176Z" fill="#E82FD1"/>
<path style="mix-blend-mode:screen" d="M159.18 43.601L121.99 21.941L121.48 22.241L159.18 44.201L196.88 22.051L196.37 21.751L159.18 43.601Z" fill="url(#paint16_radial_1120_869)"/>
<path d="M178.63 24.0013C174.71 21.7813 172.08 18.9113 171.11 15.7913C166.119 15.3554 161.274 13.8769 156.89 11.4513L156.75 11.3613L154.64 12.8213C147.23 17.9513 146 23.0913 146.99 29.6513L147.14 29.7413C158.5 30.3113 167.41 29.6013 176.29 25.3213L178.82 24.1013L178.63 24.0013Z" fill="#43E8E1"/>
<path style="mix-blend-mode:color-dodge" d="M171.11 21.421C166.121 20.9913 161.278 19.5124 156.9 17.081L156.75 17.001L154.64 18.461C149.74 21.851 147.55 25.251 146.91 29.071C146.91 29.271 146.96 29.461 146.99 29.661L147.14 29.751C157.6 30.271 165.99 29.751 174.19 26.271C172.792 24.9228 171.736 23.26 171.11 21.421Z" fill="url(#paint17_radial_1120_869)"/>
<path d="M183.19 167.222V205.572L145.48 183.592V145.262L183.19 167.222Z" fill="#B3069E"/>
<path d="M145.48 145.261L183.19 167.221L220.89 145.071L183.14 123.091L145.48 145.261Z" fill="#45108A"/>
<path style="mix-blend-mode:screen" d="M183.19 166.621L146 144.961L145.49 145.261L183.19 167.221L220.89 145.071L220.37 144.771L183.19 166.621Z" fill="url(#paint18_radial_1120_869)"/>
<path d="M138.36 192.631V230.981L176.08 208.831V170.481L138.36 192.631Z" fill="url(#paint19_linear_1120_869)"/>
<path d="M138.38 192.631V230.981L100.68 209.001V170.671L138.38 192.631Z" fill="#330A66"/>
<path d="M100.68 170.671L138.38 192.631L176.08 170.481L138.33 148.501L100.68 170.671Z" fill="#45108A"/>
<path style="mix-blend-mode:screen" d="M138.38 192.032L101.19 170.372L100.68 170.672L138.38 192.632L176.08 170.482L175.57 170.182L138.38 192.032Z" fill="url(#paint20_radial_1120_869)"/>
<path d="M225.84 193.061V231.401L263.56 209.261V170.911L225.84 193.061Z" fill="url(#paint21_linear_1120_869)"/>
<path d="M225.86 193.062V231.402L188.16 209.422V171.102L225.86 193.062Z" fill="#C00EAA"/>
<path d="M188.16 171.102L225.86 193.062L263.56 170.912L225.81 148.932L188.16 171.102Z" fill="#7A096C"/>
<path d="M182.1 218.471V256.811L219.82 234.671V196.321L182.1 218.471Z" fill="url(#paint22_linear_1120_869)"/>
<path d="M182.12 218.472V256.812L144.42 234.832V196.512L182.12 218.472Z" fill="#C00EAA"/>
<path d="M144.42 196.511L182.12 218.471L219.82 196.321L182.07 174.341L144.42 196.511Z" fill="#7A096C"/>
<path style="mix-blend-mode:screen" d="M32.5199 161.831L16.1699 171.541L53.8599 193.491L53.8499 193.501V231.851L70.2599 222.161V183.811L32.5199 161.831Z" fill="url(#paint23_linear_1120_869)"/>
<path d="M37.6799 203.161V241.511L54.0999 231.821V193.481L37.6799 203.161Z" fill="url(#paint24_linear_1120_869)"/>
<path d="M37.7 203.161V241.511L0 219.531V181.211L37.7 203.161Z" fill="url(#paint25_linear_1120_869)"/>
<path d="M3 217.812V186.432L34.7 204.892V236.292L3 217.812Z" fill="#AF0099"/>
<path d="M4.08 217.232V187.062L3 186.432V217.812L34.7 236.292V235.082L4.08 217.232Z" fill="url(#paint26_linear_1120_869)"/>
<path d="M4.08 217.231L3 217.811L34.7 236.291V235.081L4.08 217.231Z" fill="#E82FD1"/>
<path d="M0 181.211L37.7 203.161L54.1 193.481L16.35 171.501L0 181.211Z" fill="url(#paint27_linear_1120_869)"/>
<path style="mix-blend-mode:screen" d="M37.7 202.571L0.509995 180.901L0 181.211L37.7 203.161L54.1 193.481L53.58 193.181L37.7 202.571Z" fill="url(#paint28_radial_1120_869)"/>
<path d="M20.6 213.412V221.792L16.8401 219.612V211.242C15.317 209.581 14.419 207.442 14.3 205.192C14.3 202.392 16.3 201.262 18.72 202.672C20.005 203.506 21.0749 204.632 21.8429 205.958C22.6109 207.284 23.0553 208.772 23.14 210.302C23.14 212.322 22.1 213.472 20.6 213.412Z" fill="#43E8E1"/>
<path style="mix-blend-mode:color-dodge" d="M20.6 213.412V221.792L16.8401 219.612V211.242C15.317 209.581 14.419 207.442 14.3 205.192C14.3 202.392 16.3 201.262 18.72 202.672C20.005 203.506 21.0749 204.632 21.8429 205.958C22.6109 207.284 23.0553 208.772 23.14 210.302C23.14 212.322 22.1 213.472 20.6 213.412Z" fill="url(#paint29_radial_1120_869)"/>
<path d="M95.6899 218.851V257.201L133.41 235.061V196.711L95.6899 218.851Z" fill="#B3069E"/>
<path d="M95.71 218.851V257.201L58 235.221V196.901L95.71 218.851Z" fill="#AF0099"/>
<path style="mix-blend-mode:lighten" opacity="0.2" d="M69.28 223.061V203.461L58 196.901V229.681L69.28 223.061Z" fill="url(#paint30_radial_1120_869)"/>
<path d="M58 196.901L95.71 218.851L133.41 196.711L95.66 174.731L58 196.901Z" fill="#7A096C"/>
<path d="M53.02 150.091V188.441L90.74 166.291V127.951L53.02 150.091Z" fill="#B3069E"/>
<path d="M53.0401 150.091V188.441L15.3301 166.461V128.131L53.0401 150.091Z" fill="#AF0099"/>
<path d="M15.3301 128.131L53.0401 150.091L90.7401 127.951L52.9901 105.961L15.3301 128.131Z" fill="#7A096C"/>
<path style="mix-blend-mode:screen" d="M53.0401 149.491L15.8501 127.831L15.3301 128.131L53.0401 150.091L90.7401 127.951L90.2201 127.651L53.0401 149.491Z" fill="url(#paint31_radial_1120_869)"/>
<path style="mix-blend-mode:lighten" opacity="0.2" d="M36.92 168.191L30.54 164.511C28 163.041 25.7 162.891 24.03 163.831L20.74 165.831C22.41 164.941 24.67 165.111 27.17 166.551L33.54 170.231C37.54 172.531 40.91 177.381 42.21 182.231L46.16 184.531V184.221C46.18 178.281 42.04 171.141 36.92 168.191Z" fill="url(#paint32_radial_1120_869)"/>
<path d="M138.36 243.881V282.221L176.08 260.081V221.731L138.36 243.881Z" fill="url(#paint33_linear_1120_869)"/>
<path d="M138.38 243.881V282.221L100.68 260.241V221.921L138.38 243.881Z" fill="#AF0099"/>
<path d="M100.68 221.921L138.38 243.881L176.08 221.731L138.33 199.751L100.68 221.921Z" fill="#7A096C"/>
<path style="mix-blend-mode:screen" d="M138.38 243.282L101.19 221.622L100.68 221.922L138.38 243.882L176.08 221.732L175.57 221.432L138.38 243.282Z" fill="url(#paint34_radial_1120_869)"/>
<path d="M95.6899 175.112V213.462L133.41 191.322V152.972L95.6899 175.112Z" fill="#B3069E"/>
<path d="M95.71 175.111V213.461L58 191.481V153.161L95.71 175.111Z" fill="#AF0099"/>
<path d="M58 153.161L95.71 175.111L133.41 152.971L95.66 130.981L58 153.161Z" fill="#7A096C"/>
<path style="mix-blend-mode:screen" d="M95.71 174.511L58.52 152.851L58 153.161L95.71 175.111L133.41 152.971L132.89 152.671L95.71 174.511Z" fill="url(#paint35_radial_1120_869)"/>
<path d="M138.36 231.131V238.481L176.08 216.341V208.991L138.36 231.131Z" fill="#25054D"/>
<path d="M138.38 231.132V238.482L100.68 216.502V209.182L138.38 231.132Z" fill="#330A66"/>
<path d="M100.68 209.182L138.38 231.132L176.08 208.992L138.33 187.012L100.68 209.182Z" fill="#45108A"/>
<path d="M104.29 206.212L138.38 226.062L172.47 206.062L138.34 186.192L104.29 206.212ZM138.38 227.142C138.292 227.143 138.205 227.119 138.13 227.072L103.04 206.642C102.968 206.596 102.908 206.532 102.867 206.457C102.826 206.382 102.804 206.297 102.804 206.212C102.804 206.126 102.826 206.042 102.867 205.966C102.908 205.891 102.968 205.828 103.04 205.782L138.04 185.152C138.117 185.105 138.205 185.08 138.295 185.08C138.385 185.08 138.473 185.105 138.55 185.152L173.67 205.602C173.747 205.644 173.812 205.706 173.856 205.782C173.901 205.857 173.925 205.944 173.925 206.032C173.925 206.12 173.901 206.206 173.856 206.282C173.812 206.357 173.747 206.419 173.67 206.462L138.63 227.072C138.555 227.119 138.468 227.143 138.38 227.142Z" fill="#43E8E1"/>
<path d="M104.29 201.871L138.38 221.731L172.47 201.731L138.34 181.851L104.29 201.871ZM138.38 222.801C138.293 222.801 138.207 222.781 138.13 222.741L103.04 202.301C102.965 202.258 102.903 202.195 102.861 202.119C102.818 202.043 102.797 201.958 102.8 201.871C102.8 201.785 102.823 201.7 102.865 201.625C102.907 201.55 102.967 201.487 103.04 201.441L138.04 180.811C138.118 180.767 138.206 180.744 138.295 180.744C138.384 180.744 138.472 180.767 138.55 180.811L173.67 201.271C173.746 201.314 173.81 201.376 173.854 201.452C173.898 201.528 173.921 201.613 173.92 201.701C173.918 201.788 173.893 201.873 173.85 201.948C173.806 202.023 173.744 202.086 173.67 202.131L138.59 222.741C138.522 222.761 138.451 222.768 138.38 222.761V222.801Z" fill="#43E8E1"/>
<path d="M104.29 197.461L138.38 217.311L172.47 197.311L138.34 177.441L104.29 197.461ZM138.38 218.391C138.292 218.393 138.205 218.369 138.13 218.321L103.04 197.871C102.968 197.825 102.908 197.761 102.867 197.686C102.826 197.611 102.804 197.527 102.804 197.441C102.804 197.355 102.826 197.271 102.867 197.196C102.908 197.121 102.968 197.057 103.04 197.011L138.04 176.381C138.117 176.334 138.205 176.31 138.295 176.31C138.385 176.31 138.473 176.334 138.55 176.381L173.71 196.871C173.787 196.913 173.852 196.976 173.896 197.051C173.941 197.127 173.965 197.213 173.965 197.301C173.965 197.389 173.941 197.475 173.896 197.551C173.852 197.627 173.787 197.689 173.71 197.731L138.63 218.341C138.553 218.382 138.466 218.399 138.38 218.391Z" fill="#43E8E1"/>
<path d="M104.29 193.081L138.38 212.941L172.47 192.941L138.34 173.061L104.29 193.081ZM138.38 214.011C138.293 214.011 138.207 213.991 138.13 213.951L103.04 193.511C102.965 193.468 102.903 193.405 102.861 193.329C102.818 193.253 102.797 193.168 102.8 193.081C102.8 192.995 102.823 192.91 102.865 192.835C102.907 192.76 102.967 192.696 103.04 192.651L138.04 172.021C138.118 171.977 138.206 171.954 138.295 171.954C138.384 171.954 138.472 171.977 138.55 172.021L173.67 192.481C173.746 192.524 173.81 192.586 173.854 192.662C173.898 192.737 173.921 192.823 173.92 192.911C173.918 192.998 173.893 193.083 173.85 193.158C173.806 193.233 173.744 193.296 173.67 193.341L138.59 213.951C138.525 213.985 138.453 214.005 138.38 214.011Z" fill="#43E8E1"/>
<g opacity="0.5">
<path d="M104.29 188.712L138.38 208.562L172.47 188.562L138.34 168.692L104.29 188.712ZM138.38 209.642C138.292 209.643 138.205 209.619 138.13 209.572L103.04 189.142C102.968 189.096 102.908 189.032 102.867 188.957C102.826 188.882 102.804 188.797 102.804 188.712C102.804 188.626 102.826 188.542 102.867 188.466C102.908 188.391 102.968 188.328 103.04 188.282L138.04 167.652C138.117 167.605 138.205 167.58 138.295 167.58C138.385 167.58 138.473 167.605 138.55 167.652L173.67 188.102C173.747 188.144 173.812 188.206 173.856 188.282C173.901 188.357 173.925 188.444 173.925 188.532C173.925 188.62 173.901 188.706 173.856 188.782C173.812 188.857 173.747 188.919 173.67 188.962L138.63 209.572C138.555 209.619 138.468 209.643 138.38 209.642Z" fill="#43E8E1"/>
</g>
<path d="M138.36 200.131V206.481L176.08 184.341V177.991L138.36 200.131Z" fill="url(#paint36_linear_1120_869)"/>
<path d="M138.38 200.132V206.482L100.68 184.502V178.182L138.38 200.132Z" fill="#330A66"/>
<path d="M100.68 178.182L138.38 200.132L176.08 177.992L138.33 156.012L100.68 178.182Z" fill="#7A096C"/>
<path style="mix-blend-mode:screen" d="M138.38 199.531L101.19 177.881L100.68 178.181L138.38 200.131L176.08 177.991L175.57 177.691L138.38 199.531Z" fill="url(#paint37_radial_1120_869)"/>
<path style="mix-blend-mode:lighten" opacity="0.2" d="M176.08 184.341V177.991L149.18 193.781L154.6 196.951L176.08 184.341Z" fill="url(#paint38_radial_1120_869)"/>
<path opacity="0.1" d="M138.38 200.132V238.482L100.68 216.502V178.182L138.38 200.132Z" fill="url(#paint39_linear_1120_869)" fill-opacity="0.2"/>
<path d="M225.84 149.321V187.661L263.56 165.521V127.171L225.84 149.321Z" fill="url(#paint40_linear_1120_869)"/>
<path d="M225.86 149.321V187.661L188.16 165.681V127.361L225.86 149.321Z" fill="#C00EAA"/>
<path d="M188.16 127.361L225.86 149.321L263.56 127.171L225.81 105.191L188.16 127.361Z" fill="#7A096C"/>
<path style="mix-blend-mode:screen" d="M225.86 148.721L188.67 127.061L188.16 127.361L225.86 149.321L263.56 127.171L263.05 126.871L225.86 148.721Z" fill="url(#paint41_radial_1120_869)"/>
<g style="mix-blend-mode:screen">
<path d="M219.4 152.99L181.66 131L144 153.17V191.5L181.69 213.47V213.48L181.7 213.47L181.71 213.48V213.47L219.4 191.33V152.99Z" fill="url(#paint42_linear_1120_869)" fill-opacity="0.2"/>
</g>
<path d="M183.17 80.5511V118.901L220.89 96.7611V58.4111L183.17 80.5511Z" fill="#B3069E"/>
<path d="M183.19 80.5508V118.901L145.48 96.9208V58.5908L183.19 80.5508Z" fill="#AF0099"/>
<path d="M145.48 58.5909L183.19 80.5509L220.89 58.4109L183.14 36.4209L145.48 58.5909Z" fill="#7A096C"/>
<path style="mix-blend-mode:screen" d="M183.19 79.9513L146 58.2913L145.49 58.5913L183.19 80.5513L220.89 58.4113L220.37 58.1113L183.19 79.9513Z" fill="url(#paint43_radial_1120_869)"/>
<g style="mix-blend-mode:multiply">
<path d="M256.99 123.321H256.7L249.48 119.821C249.17 118.671 247.36 117.821 245.1 117.701L226.6 108.701L225.39 111.201L239.39 117.981L230.45 116.381C229.89 115.321 228.05 114.541 225.83 114.541C223.17 114.541 221.02 115.651 221.02 117.031C221.02 118.201 222.61 119.181 224.74 119.441L224.14 141.711C222.32 142.061 221.02 142.961 221.02 144.021C221.02 145.391 223.17 146.511 225.83 146.511C228.49 146.511 230.64 145.391 230.64 144.021C230.633 143.827 230.585 143.636 230.5 143.461L257.03 128.071C257.385 128.112 257.743 128.132 258.1 128.131C260.19 128.131 261.94 127.451 262.61 126.491L256.99 123.321ZM226.92 140.471L227.49 119.411C227.958 119.322 228.414 119.181 228.85 118.991L240.21 120.991C240.349 121.195 240.518 121.377 240.71 121.531L238.71 123.351H238.27C235.62 123.351 233.47 124.461 233.47 125.831C233.47 126.561 234.1 127.221 235.09 127.671L226.92 140.471ZM230.23 140.471L237.98 128.331H238.26C240.92 128.331 243.07 127.221 243.07 125.851C243.033 125.504 242.905 125.173 242.7 124.89C242.494 124.608 242.219 124.384 241.9 124.241L243.69 122.621C244.022 122.66 244.356 122.68 244.69 122.681C245.718 122.689 246.737 122.496 247.69 122.111L253.48 124.921C253.317 125.157 253.223 125.434 253.21 125.721C253.227 126.131 253.403 126.518 253.7 126.801L230.23 140.471Z" fill="#BCBCD6"/>
</g>
<g opacity="0.7">
<path opacity="0.7" d="M231.743 85.5953L223.993 105.35L227.158 106.591L234.908 86.837L231.743 85.5953Z" fill="#8770B8"/>
<g style="mix-blend-mode:screen" opacity="0.5">
<path d="M232.171 86.5394L225.148 104.431L226.452 104.942L233.474 87.0509L232.171 86.5394Z" fill="#8770B8"/>
</g>
</g>
<g opacity="0.7">
<path opacity="0.7" d="M216.34 122.441C215.994 122.441 215.657 122.335 215.373 122.139C215.089 121.942 214.872 121.664 214.75 121.341L207.75 102.591C207.61 102.203 207.61 101.779 207.75 101.391L214.25 84.1409C214.279 84.0657 214.312 83.9923 214.35 83.9209L224.1 66.1709L227.1 67.8109L217.41 85.4609L211.18 102.001L217.44 118.871L237.92 115.231L238.51 118.581L216.68 122.421L216.34 122.441Z" fill="#8770B8"/>
<g style="mix-blend-mode:screen" opacity="0.5">
<path d="M216.14 121.041C215.998 121.041 215.86 120.999 215.744 120.918C215.628 120.838 215.539 120.723 215.49 120.591L208.49 101.841C208.43 101.68 208.43 101.502 208.49 101.341L214.99 84.1009C214.984 84.0678 214.984 84.034 214.99 84.0009L224.26 67.1309L225.48 67.8109L216.24 84.6409L209.92 101.591L216.63 119.591L236.92 115.991L237.16 117.371L216.31 121.031L216.14 121.041Z" fill="#8770B8"/>
</g>
</g>
<g opacity="0.7">
<path opacity="0.7" d="M244.34 99.441C244.111 99.4396 243.884 99.3929 243.673 99.3037C243.462 99.2144 243.271 99.0844 243.11 98.921L232.56 87.921L216.79 86.641L217.06 83.251L233.48 84.591C233.895 84.6251 234.283 84.8101 234.57 85.111L244.49 95.481L257.28 85.211L259.41 87.861L245.41 99.111C245.1 99.3372 244.724 99.4534 244.34 99.441Z" fill="#8770B8"/>
<g style="mix-blend-mode:screen" opacity="0.5">
<path d="M244.14 98.0406C244.047 98.0424 243.954 98.0246 243.868 97.9885C243.782 97.9523 243.704 97.8985 243.64 97.8306L232.82 86.5206L217.67 85.2906L217.78 83.8906L233.2 85.1506C233.372 85.1594 233.533 85.2347 233.65 85.3606L244.2 96.3606L256.92 86.1706L257.8 87.2606L244.58 97.8706C244.458 97.978 244.302 98.0383 244.14 98.0406Z" fill="#8770B8"/>
</g>
</g>
<g opacity="0.7">
<path opacity="0.7" d="M256.92 119.442L244.92 101.592L239.82 117.432L236.59 116.432L242.75 97.2616C242.851 96.9646 243.032 96.7013 243.274 96.501C243.515 96.3007 243.807 96.1711 244.118 96.1266C244.429 96.0821 244.745 96.1244 245.033 96.2488C245.321 96.3732 245.569 96.5749 245.75 96.8316L259.75 117.582L256.92 119.442Z" fill="#8770B8"/>
<g style="mix-blend-mode:screen" opacity="0.5">
<path d="M244.37 98.9314L238.92 115.771L237.58 115.341L243.45 97.1314C243.489 97.0066 243.561 96.8952 243.661 96.8103C243.76 96.7253 243.881 96.6702 244.01 96.6514H244.12C244.233 96.6523 244.344 96.6811 244.444 96.7352C244.543 96.7892 244.628 96.8669 244.69 96.9614L258.16 116.871L257 117.651L244.37 98.9314Z" fill="#8770B8"/>
</g>
</g>
<g opacity="0.7">
<path opacity="0.7" d="M225.59 107.691C225.375 107.69 225.161 107.649 224.96 107.571C224.75 107.486 224.558 107.36 224.397 107.201C224.235 107.041 224.107 106.851 224.02 106.641L215.82 86.6412L193.46 88.1412C193.08 88.168 192.701 88.0661 192.386 87.8518C192.07 87.6375 191.836 87.3234 191.72 86.9598C191.605 86.5963 191.615 86.2044 191.749 85.8474C191.883 85.4903 192.134 85.1888 192.46 84.9912L224.71 65.4912L226.47 68.4012L200.21 84.2812L216.81 83.1612C217.161 83.1326 217.511 83.2134 217.814 83.3925C218.117 83.5716 218.356 83.8402 218.5 84.1612L226.5 103.621L243.98 95.8712L245.37 98.9712L226.29 107.551C226.069 107.647 225.831 107.695 225.59 107.691Z" fill="#8770B8"/>
<g style="mix-blend-mode:screen" opacity="0.5">
<path d="M225.39 106.291C225.308 106.311 225.222 106.311 225.14 106.291C224.963 106.221 224.819 106.085 224.74 105.911L216.27 85.291L193.18 86.841C193.023 86.8503 192.868 86.8068 192.74 86.7174C192.611 86.628 192.516 86.498 192.469 86.3481C192.423 86.1982 192.429 86.0372 192.485 85.8909C192.541 85.7445 192.645 85.6213 192.78 85.541L224.17 66.541L224.9 67.741L199.49 83.071L200.08 84.931L216.68 83.811C216.825 83.8034 216.969 83.8406 217.093 83.9175C217.216 83.9944 217.313 84.1073 217.37 84.241L225.76 104.661L243.28 96.781L243.85 98.061L225.68 106.231C225.589 106.271 225.49 106.291 225.39 106.291Z" fill="#8770B8"/>
</g>
</g>
<g opacity="0.7">
<path opacity="0.7" d="M225.59 139.941C225.284 139.941 224.983 139.858 224.72 139.701L192.47 120.451C192.217 120.301 192.008 120.087 191.862 119.831C191.717 119.575 191.64 119.286 191.64 118.991V86.4912H195.04V118.031L225.59 136.261L254.48 118.871L224.99 107.611L226.2 104.431L258.92 116.871C259.219 116.984 259.48 117.179 259.674 117.434C259.867 117.689 259.984 117.993 260.012 118.311C260.041 118.63 259.978 118.95 259.833 119.235C259.687 119.519 259.465 119.757 259.19 119.921L226.44 139.671C226.186 139.835 225.892 139.928 225.59 139.941Z" fill="#8770B8"/>
<g style="mix-blend-mode:screen" opacity="0.5">
<path d="M225.39 138.541C225.263 138.542 225.138 138.507 225.03 138.441L192.78 119.191C192.676 119.129 192.589 119.042 192.53 118.936C192.47 118.831 192.439 118.712 192.44 118.591V87.0908H193.84V118.191L225.39 137.031L256.55 118.231L226.08 106.601L226.58 105.301L258.39 117.441C258.513 117.487 258.62 117.567 258.7 117.671C258.779 117.776 258.828 117.9 258.84 118.031C258.851 118.162 258.825 118.293 258.765 118.41C258.705 118.526 258.613 118.624 258.5 118.691L225.75 138.441C225.642 138.509 225.517 138.543 225.39 138.541Z" fill="#8770B8"/>
</g>
</g>
<g opacity="0.7">
<path opacity="0.7" d="M257.45 87.9412L229.66 70.9412L235.02 85.8712L231.83 87.0212L224.83 67.5212C224.714 67.1917 224.703 66.8344 224.799 66.4984C224.894 66.1624 225.092 65.8643 225.363 65.645C225.635 65.4257 225.969 65.2961 226.317 65.2739C226.666 65.2517 227.013 65.3381 227.31 65.5212L259.23 85.1012L257.45 87.9412Z" fill="#8770B8"/>
<g style="mix-blend-mode:screen" opacity="0.5">
<path d="M227.56 68.1508L233.56 84.8308L232.24 85.3008L225.58 66.7408C225.539 66.6362 225.524 66.5231 225.537 66.4115C225.55 66.2998 225.59 66.1931 225.655 66.101C225.719 66.0089 225.806 65.9341 225.906 65.8835C226.006 65.8328 226.118 65.8078 226.23 65.8108C226.36 65.8085 226.489 65.8432 226.6 65.9108L257.67 84.9708L256.93 86.1708L227.56 68.1508Z" fill="#8770B8"/>
</g>
</g>
<g opacity="0.7">
<path opacity="0.7" d="M193.98 120.571L192.71 117.421L223.92 104.871V67.1611H227.32V105.991C227.321 106.33 227.221 106.662 227.032 106.943C226.843 107.225 226.574 107.444 226.26 107.571L193.98 120.571Z" fill="#8770B8"/>
<g style="mix-blend-mode:screen" opacity="0.5">
<path d="M193.81 117.571L224.69 105.121V67.7607H226.09V105.591C226.091 105.731 226.05 105.868 225.971 105.984C225.893 106.101 225.781 106.19 225.65 106.241L194.33 118.871L193.81 117.571Z" fill="#8770B8"/>
</g>
</g>
<g opacity="0.7">
<path d="M194.587 85.344L192.14 87.7041L207.973 104.123L210.421 101.763L194.587 85.344Z" fill="#8770B8"/>
<g style="mix-blend-mode:screen" opacity="0.5">
<path d="M194.338 86.2806L193.33 87.252L207.768 102.239L208.776 101.268L194.338 86.2806Z" fill="#8770B8"/>
</g>
</g>
<g opacity="0.7">
<path opacity="0.7" d="M217.78 121.652L214.92 119.872L224.17 105.122C224.387 104.775 224.722 104.519 225.114 104.399C225.505 104.28 225.926 104.306 226.3 104.472L241.05 110.972L239.68 114.082L226.27 108.172L217.78 121.652Z" fill="#8770B8"/>
<g style="mix-blend-mode:screen" opacity="0.5">
<path d="M216.08 119.122L224.8 105.222C224.862 105.121 224.949 105.037 225.052 104.979C225.155 104.922 225.272 104.891 225.39 104.892C225.487 104.891 225.582 104.912 225.67 104.952L239.51 111.052L238.94 112.332L225.66 106.482L217.27 119.872L216.08 119.122Z" fill="#8770B8"/>
</g>
</g>
<g opacity="0.7">
<path opacity="0.7" d="M225.59 139.941C225.286 139.938 224.989 139.852 224.731 139.694C224.472 139.535 224.261 139.31 224.12 139.041L215.31 122.371L193.24 120.691C192.921 120.667 192.615 120.552 192.358 120.361C192.102 120.17 191.904 119.91 191.79 119.611C191.674 119.312 191.645 118.987 191.705 118.672C191.765 118.358 191.912 118.066 192.13 117.831L208.13 100.831L210.61 103.161L197.02 117.571L216.47 119.051C216.756 119.071 217.033 119.164 217.273 119.321C217.513 119.479 217.708 119.696 217.84 119.951L225.65 134.721L238.92 111.651C239.114 111.313 239.419 111.051 239.783 110.911C240.147 110.771 240.549 110.76 240.92 110.881L256.69 116.061V87.941H233.39V84.541H258.39C258.613 84.541 258.834 84.585 259.04 84.6704C259.247 84.7559 259.434 84.8811 259.592 85.0389C259.75 85.1968 259.875 85.3842 259.96 85.5905C260.046 85.7967 260.09 86.0178 260.09 86.241V118.411C260.091 118.68 260.028 118.945 259.906 119.185C259.785 119.425 259.607 119.632 259.389 119.79C259.171 119.947 258.919 120.05 258.653 120.091C258.387 120.131 258.115 120.107 257.86 120.021L241.18 114.541L227.12 139.091C226.965 139.357 226.741 139.577 226.472 139.727C226.203 139.876 225.898 139.95 225.59 139.941Z" fill="#8770B8"/>
<g style="mix-blend-mode:screen" opacity="0.5">
<path d="M225.36 138.541C225.238 138.537 225.118 138.501 225.015 138.436C224.911 138.371 224.827 138.279 224.77 138.171L215.7 121.011L193.09 119.291C192.959 119.281 192.833 119.235 192.727 119.157C192.62 119.079 192.538 118.973 192.49 118.851C192.443 118.727 192.431 118.592 192.455 118.461C192.48 118.331 192.541 118.209 192.63 118.111L207.92 101.871L208.92 102.871L194.61 118.081L216.14 119.711C216.26 119.719 216.375 119.759 216.475 119.825C216.575 119.892 216.656 119.983 216.71 120.091L225.37 136.461L239.48 111.811C239.544 111.706 239.633 111.619 239.74 111.558C239.847 111.496 239.967 111.463 240.09 111.461C240.162 111.446 240.237 111.446 240.31 111.461L257.39 117.071V86.5709H234.09V85.1709H258.09C258.276 85.1709 258.454 85.2446 258.585 85.3759C258.716 85.5072 258.79 85.6852 258.79 85.8709V118.041C258.789 118.15 258.762 118.258 258.712 118.355C258.661 118.453 258.589 118.537 258.5 118.601C258.382 118.691 258.238 118.74 258.09 118.741C258.017 118.756 257.942 118.756 257.87 118.741L240.42 113.011L225.95 138.261C225.889 138.369 225.8 138.458 225.693 138.519C225.586 138.581 225.464 138.613 225.34 138.611L225.36 138.541Z" fill="#8770B8"/>
</g>
</g>
<path d="M198.43 118.991C198.432 119.998 198.135 120.983 197.577 121.822C197.019 122.66 196.225 123.314 195.295 123.701C194.365 124.088 193.341 124.19 192.353 123.995C191.365 123.799 190.457 123.315 189.744 122.604C189.032 121.892 188.546 120.985 188.349 119.998C188.151 119.01 188.252 117.986 188.636 117.056C189.021 116.125 189.674 115.329 190.511 114.77C191.348 114.21 192.333 113.911 193.34 113.911C194.688 113.911 195.981 114.446 196.936 115.398C197.89 116.351 198.427 117.643 198.43 118.991Z" fill="url(#paint44_radial_1120_869)"/>
<path d="M198.43 86.4911C198.432 87.4983 198.135 88.4834 197.577 89.3217C197.019 90.1601 196.225 90.814 195.295 91.2008C194.365 91.5876 193.341 91.6898 192.353 91.4946C191.365 91.2993 190.457 90.8153 189.744 90.1039C189.032 89.3924 188.546 88.4855 188.349 87.4978C188.151 86.5102 188.252 85.4863 188.636 84.5556C189.021 83.6249 189.674 82.8294 190.511 82.2697C191.348 81.7099 192.333 81.4111 193.34 81.4111C194.688 81.4111 195.981 81.946 196.936 82.8984C197.89 83.8508 198.427 85.1429 198.43 86.4911Z" fill="url(#paint45_radial_1120_869)"/>
<path d="M198.43 86.4911C198.432 87.4983 198.135 88.4834 197.577 89.3217C197.019 90.1601 196.225 90.814 195.295 91.2008C194.365 91.5876 193.341 91.6898 192.353 91.4946C191.365 91.2993 190.457 90.8153 189.744 90.1039C189.032 89.3924 188.546 88.4855 188.349 87.4978C188.151 86.5102 188.252 85.4863 188.636 84.5556C189.021 83.6249 189.674 82.8294 190.511 82.2697C191.348 81.7099 192.333 81.4111 193.34 81.4111C194.688 81.4111 195.981 81.946 196.936 82.8984C197.89 83.8508 198.427 85.1429 198.43 86.4911Z" fill="url(#paint46_radial_1120_869)"/>
<path d="M230.68 105.991C230.682 106.998 230.385 107.983 229.827 108.822C229.269 109.66 228.475 110.314 227.545 110.701C226.615 111.088 225.591 111.19 224.603 110.995C223.615 110.799 222.707 110.315 221.994 109.604C221.282 108.892 220.796 107.985 220.599 106.998C220.401 106.01 220.502 104.986 220.887 104.056C221.271 103.125 221.924 102.329 222.761 101.77C223.598 101.21 224.583 100.911 225.59 100.911C226.938 100.911 228.231 101.446 229.186 102.398C230.14 103.351 230.677 104.643 230.68 105.991Z" fill="url(#paint47_radial_1120_869)"/>
<path d="M230.68 105.991C230.682 106.998 230.385 107.983 229.827 108.822C229.269 109.66 228.475 110.314 227.545 110.701C226.615 111.088 225.591 111.19 224.603 110.995C223.615 110.799 222.707 110.315 221.994 109.604C221.282 108.892 220.796 107.985 220.599 106.998C220.401 106.01 220.502 104.986 220.887 104.056C221.271 103.125 221.924 102.329 222.761 101.77C223.598 101.21 224.583 100.911 225.59 100.911C226.938 100.911 228.231 101.446 229.186 102.398C230.14 103.351 230.677 104.643 230.68 105.991Z" fill="url(#paint48_radial_1120_869)"/>
<path d="M221.43 120.741C221.432 121.748 221.135 122.733 220.577 123.572C220.019 124.41 219.225 125.064 218.295 125.451C217.365 125.838 216.341 125.94 215.353 125.745C214.365 125.549 213.457 125.065 212.744 124.354C212.032 123.642 211.546 122.735 211.349 121.748C211.151 120.76 211.252 119.736 211.637 118.806C212.021 117.875 212.674 117.079 213.511 116.52C214.348 115.96 215.333 115.661 216.34 115.661C217.688 115.661 218.981 116.196 219.936 117.148C220.89 118.101 221.427 119.393 221.43 120.741Z" fill="url(#paint49_radial_1120_869)"/>
<path d="M221.43 120.741C221.432 121.748 221.135 122.733 220.577 123.572C220.019 124.41 219.225 125.064 218.295 125.451C217.365 125.838 216.341 125.94 215.353 125.745C214.365 125.549 213.457 125.065 212.744 124.354C212.032 123.642 211.546 122.735 211.349 121.748C211.151 120.76 211.252 119.736 211.637 118.806C212.021 117.875 212.674 117.079 213.511 116.52C214.348 115.96 215.333 115.661 216.34 115.661C217.688 115.661 218.981 116.196 219.936 117.148C220.89 118.101 221.427 119.393 221.43 120.741Z" fill="url(#paint50_radial_1120_869)"/>
<path d="M263.43 86.4911C263.432 87.4983 263.135 88.4834 262.577 89.3217C262.019 90.1601 261.225 90.814 260.295 91.2008C259.365 91.5876 258.341 91.6898 257.353 91.4946C256.365 91.2993 255.457 90.8153 254.744 90.1039C254.032 89.3924 253.546 88.4855 253.349 87.4978C253.151 86.5102 253.252 85.4863 253.637 84.5556C254.021 83.6249 254.674 82.8294 255.511 82.2697C256.348 81.7099 257.333 81.4111 258.34 81.4111C259.688 81.4111 260.981 81.946 261.936 82.8984C262.89 83.8508 263.427 85.1429 263.43 86.4911Z" fill="url(#paint51_radial_1120_869)"/>
<path d="M263.43 86.4911C263.432 87.4983 263.135 88.4834 262.577 89.3217C262.019 90.1601 261.225 90.814 260.295 91.2008C259.365 91.5876 258.341 91.6898 257.353 91.4946C256.365 91.2993 255.457 90.8153 254.744 90.1039C254.032 89.3924 253.546 88.4855 253.349 87.4978C253.151 86.5102 253.252 85.4863 253.637 84.5556C254.021 83.6249 254.674 82.8294 255.511 82.2697C256.348 81.7099 257.333 81.4111 258.34 81.4111C259.688 81.4111 260.981 81.946 261.936 82.8984C262.89 83.8508 263.427 85.1429 263.43 86.4911Z" fill="url(#paint52_radial_1120_869)"/>
<path d="M263.43 86.4911C263.432 87.4983 263.135 88.4834 262.577 89.3217C262.019 90.1601 261.225 90.814 260.295 91.2008C259.365 91.5876 258.341 91.6898 257.353 91.4946C256.365 91.2993 255.457 90.8153 254.744 90.1039C254.032 89.3924 253.546 88.4855 253.349 87.4978C253.151 86.5102 253.252 85.4863 253.637 84.5556C254.021 83.6249 254.674 82.8294 255.511 82.2697C256.348 81.7099 257.333 81.4111 258.34 81.4111C259.688 81.4111 260.981 81.946 261.936 82.8984C262.89 83.8508 263.427 85.1429 263.43 86.4911Z" fill="url(#paint53_radial_1120_869)"/>
<path d="M263.43 118.491C263.432 119.498 263.135 120.483 262.577 121.322C262.019 122.16 261.225 122.814 260.295 123.201C259.365 123.588 258.341 123.69 257.353 123.495C256.365 123.299 255.457 122.815 254.744 122.104C254.032 121.392 253.546 120.485 253.349 119.498C253.151 118.51 253.252 117.486 253.637 116.556C254.021 115.625 254.674 114.829 255.511 114.27C256.348 113.71 257.333 113.411 258.34 113.411C259.688 113.411 260.981 113.946 261.936 114.898C262.89 115.851 263.427 117.143 263.43 118.491Z" fill="url(#paint54_radial_1120_869)"/>
<path d="M263.43 118.491C263.432 119.498 263.135 120.483 262.577 121.322C262.019 122.16 261.225 122.814 260.295 123.201C259.365 123.588 258.341 123.69 257.353 123.495C256.365 123.299 255.457 122.815 254.744 122.104C254.032 121.392 253.546 120.485 253.349 119.498C253.151 118.51 253.252 117.486 253.637 116.556C254.021 115.625 254.674 114.829 255.511 114.27C256.348 113.71 257.333 113.411 258.34 113.411C259.688 113.411 260.981 113.946 261.936 114.898C262.89 115.851 263.427 117.143 263.43 118.491Z" fill="url(#paint55_radial_1120_869)"/>
<path d="M230.68 138.241C230.682 139.248 230.385 140.233 229.827 141.072C229.269 141.91 228.475 142.564 227.545 142.951C226.615 143.338 225.591 143.44 224.603 143.245C223.615 143.049 222.707 142.565 221.994 141.854C221.282 141.142 220.796 140.235 220.599 139.248C220.401 138.26 220.502 137.236 220.887 136.306C221.271 135.375 221.924 134.579 222.761 134.02C223.598 133.46 224.583 133.161 225.59 133.161C226.938 133.161 228.231 133.696 229.186 134.648C230.14 135.601 230.677 136.893 230.68 138.241Z" fill="url(#paint56_radial_1120_869)"/>
<path d="M230.68 138.241C230.682 139.248 230.385 140.233 229.827 141.072C229.269 141.91 228.475 142.564 227.545 142.951C226.615 143.338 225.591 143.44 224.603 143.245C223.615 143.049 222.707 142.565 221.994 141.854C221.282 141.142 220.796 140.235 220.599 139.248C220.401 138.26 220.502 137.236 220.887 136.306C221.271 135.375 221.924 134.579 222.761 134.02C223.598 133.46 224.583 133.161 225.59 133.161C226.938 133.161 228.231 133.696 229.186 134.648C230.14 135.601 230.677 136.893 230.68 138.241Z" fill="url(#paint57_radial_1120_869)"/>
<path d="M230.68 66.9911C230.682 67.9983 230.385 68.9834 229.827 69.8217C229.269 70.6601 228.475 71.314 227.545 71.7008C226.615 72.0876 225.591 72.1898 224.603 71.9946C223.615 71.7993 222.707 71.3153 221.994 70.6039C221.282 69.8924 220.796 68.9855 220.599 67.9978C220.401 67.0102 220.502 65.9863 220.887 65.0556C221.271 64.1249 221.924 63.3294 222.761 62.7697C223.598 62.2099 224.583 61.9111 225.59 61.9111C226.938 61.9111 228.231 62.446 229.186 63.3984C230.14 64.3508 230.677 65.6429 230.68 66.9911Z" fill="url(#paint58_radial_1120_869)"/>
<path d="M230.68 66.9911C230.682 67.9983 230.385 68.9834 229.827 69.8217C229.269 70.6601 228.475 71.314 227.545 71.7008C226.615 72.0876 225.591 72.1898 224.603 71.9946C223.615 71.7993 222.707 71.3153 221.994 70.6039C221.282 69.8924 220.796 68.9855 220.599 67.9978C220.401 67.0102 220.502 65.9863 220.887 65.0556C221.271 64.1249 221.924 63.3294 222.761 62.7697C223.598 62.2099 224.583 61.9111 225.59 61.9111C226.938 61.9111 228.231 62.446 229.186 63.3984C230.14 64.3508 230.677 65.6429 230.68 66.9911Z" fill="url(#paint59_radial_1120_869)"/>
<path d="M230.68 66.9911C230.682 67.9983 230.385 68.9834 229.827 69.8217C229.269 70.6601 228.475 71.314 227.545 71.7008C226.615 72.0876 225.591 72.1898 224.603 71.9946C223.615 71.7993 222.707 71.3153 221.994 70.6039C221.282 69.8924 220.796 68.9855 220.599 67.9978C220.401 67.0102 220.502 65.9863 220.887 65.0556C221.271 64.1249 221.924 63.3294 222.761 62.7697C223.598 62.2099 224.583 61.9111 225.59 61.9111C226.938 61.9111 228.231 62.446 229.186 63.3984C230.14 64.3508 230.677 65.6429 230.68 66.9911Z" fill="url(#paint60_radial_1120_869)"/>
<path d="M238.43 86.2411C238.432 87.2483 238.135 88.2334 237.577 89.0717C237.019 89.9101 236.225 90.564 235.295 90.9508C234.365 91.3376 233.341 91.4398 232.353 91.2446C231.365 91.0493 230.457 90.5653 229.744 89.8539C229.032 89.1424 228.546 88.2355 228.349 87.2478C228.151 86.2602 228.252 85.2363 228.637 84.3056C229.021 83.3749 229.674 82.5794 230.511 82.0197C231.348 81.4599 232.333 81.1611 233.34 81.1611C234.688 81.1611 235.981 81.696 236.936 82.6484C237.89 83.6008 238.427 84.8929 238.43 86.2411Z" fill="url(#paint61_radial_1120_869)"/>
<path d="M238.43 86.2411C238.432 87.2483 238.135 88.2334 237.577 89.0717C237.019 89.9101 236.225 90.564 235.295 90.9508C234.365 91.3376 233.341 91.4398 232.353 91.2446C231.365 91.0493 230.457 90.5653 229.744 89.8539C229.032 89.1424 228.546 88.2355 228.349 87.2478C228.151 86.2602 228.252 85.2363 228.637 84.3056C229.021 83.3749 229.674 82.5794 230.511 82.0197C231.348 81.4599 232.333 81.1611 233.34 81.1611C234.688 81.1611 235.981 81.696 236.936 82.6484C237.89 83.6008 238.427 84.8929 238.43 86.2411Z" fill="url(#paint62_radial_1120_869)"/>
<path d="M238.43 86.2411C238.432 87.2483 238.135 88.2334 237.577 89.0717C237.019 89.9101 236.225 90.564 235.295 90.9508C234.365 91.3376 233.341 91.4398 232.353 91.2446C231.365 91.0493 230.457 90.5653 229.744 89.8539C229.032 89.1424 228.546 88.2355 228.349 87.2478C228.151 86.2602 228.252 85.2363 228.637 84.3056C229.021 83.3749 229.674 82.5794 230.511 82.0197C231.348 81.4599 232.333 81.1611 233.34 81.1611C234.688 81.1611 235.981 81.696 236.936 82.6484C237.89 83.6008 238.427 84.8929 238.43 86.2411Z" fill="url(#paint63_radial_1120_869)"/>
<path d="M249.43 97.7411C249.432 98.7483 249.135 99.7334 248.577 100.572C248.019 101.41 247.225 102.064 246.295 102.451C245.365 102.838 244.341 102.94 243.353 102.745C242.365 102.549 241.457 102.065 240.744 101.354C240.032 100.642 239.546 99.7355 239.349 98.7478C239.151 97.7602 239.252 96.7363 239.637 95.8056C240.021 94.8749 240.674 94.0794 241.511 93.5197C242.348 92.9599 243.333 92.6611 244.34 92.6611C245.688 92.6611 246.981 93.196 247.936 94.1484C248.89 95.1008 249.427 96.3929 249.43 97.7411Z" fill="url(#paint64_radial_1120_869)"/>
<path d="M249.43 97.7411C249.432 98.7483 249.135 99.7334 248.577 100.572C248.019 101.41 247.225 102.064 246.295 102.451C245.365 102.838 244.341 102.94 243.353 102.745C242.365 102.549 241.457 102.065 240.744 101.354C240.032 100.642 239.546 99.7355 239.349 98.7478C239.151 97.7602 239.252 96.7363 239.637 95.8056C240.021 94.8749 240.674 94.0794 241.511 93.5197C242.348 92.9599 243.333 92.6611 244.34 92.6611C245.688 92.6611 246.981 93.196 247.936 94.1484C248.89 95.1008 249.427 96.3929 249.43 97.7411Z" fill="url(#paint65_radial_1120_869)"/>
<path d="M243.3 116.491C243.302 117.499 243.005 118.484 242.446 119.323C241.888 120.161 241.093 120.815 240.163 121.202C239.232 121.588 238.208 121.69 237.22 121.494C236.231 121.298 235.323 120.813 234.611 120.1C233.899 119.388 233.414 118.48 233.217 117.492C233.021 116.503 233.123 115.479 233.509 114.549C233.896 113.618 234.55 112.823 235.389 112.265C236.227 111.706 237.213 111.409 238.22 111.411C239.567 111.414 240.857 111.95 241.809 112.902C242.761 113.854 243.297 115.145 243.3 116.491Z" fill="url(#paint66_radial_1120_869)"/>
<path d="M243.3 116.491C243.302 117.499 243.005 118.484 242.446 119.323C241.888 120.161 241.093 120.815 240.163 121.202C239.232 121.588 238.208 121.69 237.22 121.494C236.231 121.298 235.323 120.813 234.611 120.1C233.899 119.388 233.414 118.48 233.217 117.492C233.021 116.503 233.123 115.479 233.509 114.549C233.896 113.618 234.55 112.823 235.389 112.265C236.227 111.706 237.213 111.409 238.22 111.411C239.567 111.414 240.857 111.95 241.809 112.902C242.761 113.854 243.297 115.145 243.3 116.491Z" fill="url(#paint67_radial_1120_869)"/>
<path d="M243.3 116.491C243.302 117.499 243.005 118.484 242.446 119.323C241.888 120.161 241.093 120.815 240.163 121.202C239.232 121.588 238.208 121.69 237.22 121.494C236.231 121.298 235.323 120.813 234.611 120.1C233.899 119.388 233.414 118.48 233.217 117.492C233.021 116.503 233.123 115.479 233.509 114.549C233.896 113.618 234.55 112.823 235.389 112.265C236.227 111.706 237.213 111.409 238.22 111.411C239.567 111.414 240.857 111.95 241.809 112.902C242.761 113.854 243.297 115.145 243.3 116.491Z" fill="url(#paint68_radial_1120_869)"/>
<path d="M214.43 101.991C214.432 102.998 214.135 103.983 213.577 104.822C213.019 105.66 212.225 106.314 211.295 106.701C210.365 107.088 209.341 107.19 208.353 106.995C207.365 106.799 206.457 106.315 205.744 105.604C205.032 104.892 204.546 103.985 204.349 102.998C204.151 102.01 204.252 100.986 204.637 100.056C205.021 99.1249 205.674 98.3294 206.511 97.7697C207.348 97.2099 208.333 96.9111 209.34 96.9111C210.688 96.9111 211.981 97.446 212.936 98.3984C213.89 99.3508 214.427 100.643 214.43 101.991Z" fill="url(#paint69_radial_1120_869)"/>
<path d="M214.43 101.991C214.432 102.998 214.135 103.983 213.577 104.822C213.019 105.66 212.225 106.314 211.295 106.701C210.365 107.088 209.341 107.19 208.353 106.995C207.365 106.799 206.457 106.315 205.744 105.604C205.032 104.892 204.546 103.985 204.349 102.998C204.151 102.01 204.252 100.986 204.637 100.056C205.021 99.1249 205.674 98.3294 206.511 97.7697C207.348 97.2099 208.333 96.9111 209.34 96.9111C210.688 96.9111 211.981 97.446 212.936 98.3984C213.89 99.3508 214.427 100.643 214.43 101.991Z" fill="url(#paint70_radial_1120_869)"/>
<path d="M220.92 84.7411C220.922 85.7483 220.625 86.7334 220.067 87.5717C219.509 88.4101 218.715 89.064 217.785 89.4508C216.855 89.8376 215.831 89.9398 214.843 89.7446C213.855 89.5493 212.947 89.0653 212.235 88.3539C211.522 87.6424 211.036 86.7355 210.839 85.7478C210.642 84.7602 210.742 83.7363 211.127 82.8056C211.512 81.8749 212.164 81.0794 213.001 80.5197C213.839 79.9599 214.823 79.6611 215.83 79.6611C217.178 79.6611 218.472 80.196 219.426 81.1484C220.38 82.1008 220.918 83.3929 220.92 84.7411Z" fill="url(#paint71_radial_1120_869)"/>
<path d="M220.92 84.7411C220.922 85.7483 220.625 86.7334 220.067 87.5717C219.509 88.4101 218.715 89.064 217.785 89.4508C216.855 89.8376 215.831 89.9398 214.843 89.7446C213.855 89.5493 212.947 89.0653 212.235 88.3539C211.522 87.6424 211.036 86.7355 210.839 85.7478C210.642 84.7602 210.742 83.7363 211.127 82.8056C211.512 81.8749 212.164 81.0794 213.001 80.5197C213.839 79.9599 214.823 79.6611 215.83 79.6611C217.178 79.6611 218.472 80.196 219.426 81.1484C220.38 82.1008 220.918 83.3929 220.92 84.7411Z" fill="url(#paint72_radial_1120_869)"/>
<path d="M96.76 80.941V119.291L134.47 97.141V58.791L96.76 80.941Z" fill="#B3069E"/>
<path d="M96.7801 80.9414V119.291L59.0701 97.3114V58.9814L96.7801 80.9414Z" fill="#AF0099"/>
<path d="M59.0701 58.9815L96.7801 80.9415L134.47 58.7915L96.7301 36.8115L59.0701 58.9815Z" fill="#7A096C"/>
<path style="mix-blend-mode:screen" d="M96.7801 80.3412L59.58 58.6812L59.0701 58.9812L96.7801 80.9412L134.47 58.7912L133.96 58.4912L96.7801 80.3412Z" fill="url(#paint73_radial_1120_869)"/>
<path d="M138.36 105.961V144.311L176.08 122.161V83.8213L138.36 105.961Z" fill="#B3069E"/>
<path d="M138.38 105.961V144.311L100.68 122.331V84.001L138.38 105.961Z" fill="#AF0099"/>
<path d="M100.68 84.0008L138.38 105.961L176.08 83.8208L138.33 61.8408L100.68 84.0008Z" fill="#7A096C"/>
<path style="mix-blend-mode:screen" d="M138.38 105.361L101.19 83.7015L100.68 84.0015L138.38 105.961L176.08 83.8215L175.57 83.5215L138.38 105.361Z" fill="url(#paint74_radial_1120_869)"/>
<path d="M182.1 130.981V169.331L219.82 147.191V108.841L182.1 130.981Z" fill="url(#paint75_linear_1120_869)"/>
<path d="M182.12 130.981V169.331L144.42 147.351V109.031L182.12 130.981Z" fill="#AF0099"/>
<path d="M144.42 109.031L182.12 130.981L219.82 108.841L182.07 86.8613L144.42 109.031Z" fill="#7A096C"/>
<path style="mix-blend-mode:screen" d="M182.12 130.381L144.93 108.721L144.42 109.031L182.12 130.981L219.82 108.841L219.31 108.541L182.12 130.381Z" fill="url(#paint76_radial_1120_869)"/>
<path style="mix-blend-mode:lighten" opacity="0.2" d="M182.48 130.762L182.1 130.982V134.232L208.94 149.862L182.1 165.612V169.332L215.27 149.862L182.48 130.762Z" fill="url(#paint77_radial_1120_869)"/>
<path d="M53.02 106.351V144.701L90.74 122.551V84.2012L53.02 106.351Z" fill="#B3069E"/>
<path d="M53.0401 106.352V144.702L15.3301 122.722V84.3916L53.0401 106.352Z" fill="#AF0099"/>
<path d="M15.3301 84.3917L53.0401 106.352L90.7401 84.2017L52.9901 62.2217L15.3301 84.3917Z" fill="#7A096C"/>
<path style="mix-blend-mode:screen" d="M53.0401 105.751L15.8501 84.0914L15.3301 84.3914L53.0401 106.351L90.7401 84.2014L90.2201 83.9014L53.0401 105.751Z" fill="url(#paint78_radial_1120_869)"/>
<path d="M95.6899 131.371V169.721L133.41 147.571V109.231L95.6899 131.371Z" fill="url(#paint79_linear_1120_869)"/>
<path d="M95.71 131.371V169.721L58 147.741V109.411L95.71 131.371Z" fill="#330A66"/>
<path d="M58 109.411L95.71 131.371L133.41 109.231L95.66 87.2412L58 109.411Z" fill="#45108A"/>
<path d="M95.74 151.131V169.591L133.38 147.631V129.171L95.74 151.131Z" fill="url(#paint80_linear_1120_869)"/>
<path d="M98.04 165.582V152.452L131.04 133.182V146.312L98.04 165.582ZM99.8101 153.472V162.472L129.3 145.272V136.272L99.8101 153.472Z" fill="url(#paint81_linear_1120_869)"/>
<path d="M95.76 151.131V169.591L57.98 147.571V129.131L95.76 151.131Z" fill="url(#paint82_linear_1120_869)"/>
<path d="M61.1699 145.742V134.682L92.5599 152.962V164.042L61.1699 145.742Z" fill="#25054D"/>
<path d="M93.45 165.592L60.28 146.252V133.142L93.45 152.452V165.592ZM62.0601 145.232L91.67 162.492V153.492L62.0601 136.242V145.232Z" fill="url(#paint83_linear_1120_869)"/>
<path d="M88.27 154.081L89.49 154.781V153.391L88.27 152.691V154.081Z" fill="#2AF6FF"/>
<path d="M85.99 152.761L87.21 153.461V152.071L85.99 151.371V152.761Z" fill="#2AF6FF"/>
<path d="M83.71 151.442L84.93 152.142V150.752L83.71 150.052V151.442Z" fill="#4B61B8"/>
<path d="M81.4299 150.131L82.6399 150.831V149.431L81.4299 148.731V150.131Z" fill="#25054D"/>
<path d="M79.1499 148.811L80.3599 149.511V148.111L79.1499 147.411V148.811Z" fill="#25054D"/>
<path d="M76.8599 147.492L78.0799 148.192V146.802L76.8599 146.102V147.492Z" fill="#4B61B8"/>
<path d="M74.5801 146.171L75.8001 146.871V145.481L74.5801 144.781V146.171Z" fill="#4B61B8"/>
<path d="M72.3 144.851L73.5101 145.561V144.161L72.3 143.461V144.851Z" fill="#4B61B8"/>
<path d="M70.02 143.542L71.23 144.242V142.842L70.02 142.142V143.542Z" fill="#25054D"/>
<path d="M67.73 142.221L68.95 142.921V141.531L67.73 140.821V142.221Z" fill="#4B61B8"/>
<path d="M65.45 140.902L66.6699 141.602V140.212L65.45 139.512V140.902Z" fill="#2AF6FF"/>
<path d="M63.1699 139.581L64.3799 140.291V138.891L63.1699 138.191V139.581Z" fill="#2AF6FF"/>
<path d="M88.27 156.561L89.49 157.261V155.861L88.27 155.161V156.561Z" fill="#4B61B8"/>
<path d="M85.99 155.242L87.21 155.942V154.552L85.99 153.852V155.242Z" fill="#2AF6FF"/>
<path d="M83.71 153.921L84.93 154.621V153.231L83.71 152.531V153.921Z" fill="#2AF6FF"/>
<path d="M81.4299 152.601L82.6399 153.311V151.911L81.4299 151.211V152.601Z" fill="#25054D"/>
<path d="M79.1499 151.292L80.3599 151.992V150.592L79.1499 149.892V151.292Z" fill="#2AF6FF"/>
<path d="M76.8599 149.971L78.0799 150.671V149.281L76.8599 148.571V149.971Z" fill="#2AF6FF"/>
<path d="M74.5801 148.652L75.8001 149.352V147.962L74.5801 147.262V148.652Z" fill="#2AF6FF"/>
<path d="M72.3 147.331L73.5101 148.031V146.641L72.3 145.941V147.331Z" fill="#4B61B8"/>
<path d="M70.02 146.011L71.23 146.721V145.321L70.02 144.621V146.011Z" fill="#4B61B8"/>
<path d="M67.73 144.702L68.95 145.402V144.002L67.73 143.302V144.702Z" fill="#4B61B8"/>
<path d="M65.45 143.381L66.6699 144.081V142.691L65.45 141.981V143.381Z" fill="#4B61B8"/>
<path d="M63.1699 142.061L64.3799 142.761V141.371L63.1699 140.671V142.061Z" fill="#4B61B8"/>
<path d="M88.27 159.011L89.49 159.721V158.321L88.27 157.621V159.011Z" fill="#2AF6FF"/>
<path d="M85.99 157.702L87.21 158.402V157.012L85.99 156.302V157.702Z" fill="#4B61B8"/>
<path d="M83.71 156.381L84.93 157.081V155.691L83.71 154.991V156.381Z" fill="#4B61B8"/>
<path d="M81.4299 155.061L82.6399 155.761V154.371L81.4299 153.671V155.061Z" fill="#4B61B8"/>
<path d="M79.1499 153.752L80.3599 154.452V153.052L79.1499 152.352V153.752Z" fill="#4B61B8"/>
<path d="M76.8599 152.431L78.0799 153.131V151.731L76.8599 151.031V152.431Z" fill="#4B61B8"/>
<path d="M74.5801 151.112L75.8001 151.812V150.422L74.5801 149.722V151.112Z" fill="#25054D"/>
<path d="M72.3 149.791L73.5101 150.491V149.101L72.3 148.401V149.791Z" fill="#2AF6FF"/>
<path d="M70.02 148.471L71.23 149.171V147.781L70.02 147.081V148.471Z" fill="#4B61B8"/>
<path d="M67.73 147.162L68.95 147.862V146.462L67.73 145.762V147.162Z" fill="#4B61B8"/>
<path d="M65.45 145.841L66.6699 146.541V145.141L65.45 144.441V145.841Z" fill="#2AF6FF"/>
<path d="M63.1699 144.521L64.3799 145.221V143.831L63.1699 143.131V144.521Z" fill="#2AF6FF"/>
<path d="M102.91 154.081L101.69 154.781V153.391L102.91 152.691V154.081Z" fill="#2AF6FF"/>
<path d="M105.19 152.761L103.97 153.461V152.071L105.19 151.371V152.761Z" fill="#25054D"/>
<path d="M107.47 151.442L106.25 152.142V150.752L107.47 150.052V151.442Z" fill="#4B61B8"/>
<path d="M109.75 150.131L108.54 150.831V149.431L109.75 148.731V150.131Z" fill="#25054D"/>
<path d="M112.03 148.811L110.82 149.511V148.111L112.03 147.411V148.811Z" fill="#25054D"/>
<path d="M114.32 147.492L113.1 148.192V146.802L114.32 146.102V147.492Z" fill="#4B61B8"/>
<path d="M116.6 146.171L115.38 146.871V145.481L116.6 144.781V146.171Z" fill="#4B61B8"/>
<path d="M118.88 144.851L117.67 145.561V144.161L118.88 143.461V144.851Z" fill="#4B61B8"/>
<path d="M121.16 143.542L119.95 144.242V142.842L121.16 142.142V143.542Z" fill="#25054D"/>
<path d="M123.45 142.221L122.23 142.921V141.531L123.45 140.821V142.221Z" fill="#25054D"/>
<path d="M125.73 140.902L124.51 141.602V140.212L125.73 139.512V140.902Z" fill="#2AF6FF"/>
<path d="M128.01 139.581L126.8 140.291V138.891L128.01 138.191V139.581Z" fill="#2AF6FF"/>
<path d="M102.91 156.561L101.69 157.261V155.861L102.91 155.161V156.561Z" fill="#4B61B8"/>
<path d="M105.19 155.242L103.97 155.942V154.552L105.19 153.852V155.242Z" fill="#25054D"/>
<path d="M107.47 153.921L106.25 154.621V153.231L107.47 152.531V153.921Z" fill="#2AF6FF"/>
<path d="M109.75 152.601L108.54 153.311V151.911L109.75 151.211V152.601Z" fill="#25054D"/>
<path d="M112.03 151.292L110.82 151.992V150.592L112.03 149.892V151.292Z" fill="#2AF6FF"/>
<path d="M114.32 149.971L113.1 150.671V149.281L114.32 148.571V149.971Z" fill="#2AF6FF"/>
<path d="M116.6 148.652L115.38 149.352V147.962L116.6 147.262V148.652Z" fill="#2AF6FF"/>
<path d="M118.88 147.331L117.67 148.031V146.641L118.88 145.941V147.331Z" fill="#4B61B8"/>
<path d="M121.16 146.011L119.95 146.721V145.321L121.16 144.621V146.011Z" fill="#4B61B8"/>
<path d="M123.45 144.702L122.23 145.402V144.002L123.45 143.302V144.702Z" fill="#4B61B8"/>
<path d="M125.73 143.381L124.51 144.081V142.691L125.73 141.981V143.381Z" fill="#4B61B8"/>
<path d="M128.01 142.061L126.8 142.761V141.371L128.01 140.671V142.061Z" fill="#4B61B8"/>
<path d="M102.91 159.011L101.69 159.721V158.321L102.91 157.621V159.011Z" fill="#2AF6FF"/>
<path d="M105.19 157.702L103.97 158.402V157.012L105.19 156.302V157.702Z" fill="#4B61B8"/>
<path d="M107.47 156.381L106.25 157.081V155.691L107.47 154.991V156.381Z" fill="#4B61B8"/>
<path d="M109.75 155.061L108.54 155.761V154.371L109.75 153.671V155.061Z" fill="#4B61B8"/>
<path d="M112.03 153.752L110.82 154.452V153.052L112.03 152.352V153.752Z" fill="#4B61B8"/>
<path d="M114.32 152.431L113.1 153.131V151.731L114.32 151.031V152.431Z" fill="#4B61B8"/>
<path d="M116.6 151.112L115.38 151.812V150.422L116.6 149.722V151.112Z" fill="#25054D"/>
<path d="M118.88 149.791L117.67 150.491V149.101L118.88 148.401V149.791Z" fill="#2AF6FF"/>
<path d="M121.16 148.471L119.95 149.171V147.781L121.16 147.081V148.471Z" fill="#4B61B8"/>
<path d="M123.45 147.162L122.23 147.862V146.462L123.45 145.762V147.162Z" fill="#4B61B8"/>
<path d="M125.73 145.841L124.51 146.541V145.141L125.73 144.441V145.841Z" fill="#4B61B8"/>
<path d="M128.01 144.521L126.8 145.221V143.831L128.01 143.131V144.521Z" fill="#2AF6FF"/>
<path d="M57.98 129.131L95.76 151.131L133.38 129.171L95.57 107.151L57.98 129.131Z" fill="url(#paint84_linear_1120_869)"/>
<path d="M95.73 144.101V150.261L130.71 129.861V123.701L95.73 144.101Z" fill="url(#paint85_linear_1120_869)"/>
<path d="M95.7499 144.101V150.261L60.6499 129.801V123.661L95.7499 144.101Z" fill="url(#paint86_linear_1120_869)"/>
<path d="M95.74 131.381V149.841L133.38 127.881V109.421L95.74 131.381Z" fill="url(#paint87_linear_1120_869)"/>
<path d="M95.76 131.381V149.841L57.98 127.821V109.381L95.76 131.381Z" fill="url(#paint88_linear_1120_869)"/>
<path d="M61.1699 125.992V114.932L92.5599 133.212V144.292L61.1699 125.992Z" fill="#25054D"/>
<path d="M93.45 145.872L60.28 126.532V113.392L93.45 132.702V145.872ZM62.0601 125.512L91.67 142.772V133.772L62.0601 116.522V125.512Z" fill="url(#paint89_linear_1120_869)"/>
<path d="M88.27 134.331L89.49 135.031V133.641L88.27 132.941V134.331Z" fill="#2AF6FF"/>
<path d="M85.99 133.011L87.21 133.711V132.321L85.99 131.621V133.011Z" fill="#2AF6FF"/>
<path d="M83.71 131.692L84.93 132.392V131.002L83.71 130.302V131.692Z" fill="#4B61B8"/>
<path d="M81.4299 130.381L82.6399 131.081V129.681L81.4299 128.981V130.381Z" fill="#25054D"/>
<path d="M79.1499 129.061L80.3599 129.761V128.361L79.1499 127.661V129.061Z" fill="#25054D"/>
<path d="M76.8599 127.742L78.0799 128.442V127.052L76.8599 126.352V127.742Z" fill="#4B61B8"/>
<path d="M74.5801 126.421L75.8001 127.121V125.731L74.5801 125.031V126.421Z" fill="#4B61B8"/>
<path d="M72.3 125.101L73.5101 125.811V124.411L72.3 123.711V125.101Z" fill="#4B61B8"/>
<path d="M70.02 123.792L71.23 124.492V123.092L70.02 122.392V123.792Z" fill="#25054D"/>
<path d="M67.73 122.471L68.95 123.171V121.781L67.73 121.071V122.471Z" fill="#4B61B8"/>
<path d="M65.45 121.152L66.6699 121.852V120.462L65.45 119.762V121.152Z" fill="#2AF6FF"/>
<path d="M63.1699 119.831L64.3799 120.541V119.141L63.1699 118.441V119.831Z" fill="#2AF6FF"/>
<path d="M88.27 136.811L89.49 137.511V136.111L88.27 135.411V136.811Z" fill="#4B61B8"/>
<path d="M85.99 135.492L87.21 136.192V134.802L85.99 134.102V135.492Z" fill="#2AF6FF"/>
<path d="M83.71 134.171L84.93 134.871V133.481L83.71 132.781V134.171Z" fill="#2AF6FF"/>
<path d="M81.4299 132.851L82.6399 133.561V132.161L81.4299 131.461V132.851Z" fill="#25054D"/>
<path d="M79.1499 131.542L80.3599 132.242V130.842L79.1499 130.142V131.542Z" fill="#2AF6FF"/>
<path d="M76.8599 130.221L78.0799 130.921V129.531L76.8599 128.821V130.221Z" fill="#2AF6FF"/>
<path d="M74.5801 128.902L75.8001 129.602V128.212L74.5801 127.512V128.902Z" fill="#2AF6FF"/>
<path d="M72.3 127.581L73.5101 128.281V126.891L72.3 126.191V127.581Z" fill="#4B61B8"/>
<path d="M70.02 126.261L71.23 126.971V125.571L70.02 124.871V126.261Z" fill="#4B61B8"/>
<path d="M67.73 124.952L68.95 125.652V124.252L67.73 123.552V124.952Z" fill="#4B61B8"/>
<path d="M65.45 123.631L66.6699 124.331V122.941L65.45 122.241V123.631Z" fill="#4B61B8"/>
<path d="M63.1699 122.311L64.3799 123.011V121.621L63.1699 120.921V122.311Z" fill="#4B61B8"/>
<path d="M88.27 139.261L89.49 139.971V138.571L88.27 137.871V139.261Z" fill="#2AF6FF"/>
<path d="M85.99 137.952L87.21 138.652V137.262L85.99 136.552V137.952Z" fill="#4B61B8"/>
<path d="M83.71 136.631L84.93 137.331V135.941L83.71 135.241V136.631Z" fill="#4B61B8"/>
<path d="M81.4299 135.311L82.6399 136.011V134.621L81.4299 133.921V135.311Z" fill="#4B61B8"/>
<path d="M79.1499 134.002L80.3599 134.702V133.302L79.1499 132.602V134.002Z" fill="#4B61B8"/>
<path d="M76.8599 132.681L78.0799 133.381V131.981L76.8599 131.281V132.681Z" fill="#4B61B8"/>
<path d="M74.5801 131.362L75.8001 132.062V130.672L74.5801 129.972V131.362Z" fill="#25054D"/>
<path d="M72.3 130.041L73.5101 130.741V129.351L72.3 128.651V130.041Z" fill="#2AF6FF"/>
<path d="M70.02 128.721L71.23 129.421V128.031L70.02 127.331V128.721Z" fill="#4B61B8"/>
<path d="M67.73 127.412L68.95 128.112V126.712L67.73 126.012V127.412Z" fill="#4B61B8"/>
<path d="M65.45 126.091L66.6699 126.791V125.401L65.45 124.691V126.091Z" fill="#2AF6FF"/>
<path d="M63.1699 124.771L64.3799 125.471V124.081L63.1699 123.381V124.771Z" fill="#2AF6FF"/>
<path style="mix-blend-mode:screen" d="M95.76 130.781L58.5 109.081L57.98 109.381L95.76 131.381L133.38 109.421L132.87 109.121L95.76 130.781Z" fill="url(#paint90_radial_1120_869)"/>
<path d="M67.8101 109.712L95.4801 125.822L123.53 109.682L95.83 93.5518L67.8101 109.712Z" fill="url(#paint91_linear_1120_869)"/>
<g style="mix-blend-mode:color-dodge">
<path d="M81.8101 117.801L95.58 125.821L109.53 117.791L95.7501 109.771L81.8101 117.801Z" fill="url(#paint92_radial_1120_869)"/>
</g>
<g style="mix-blend-mode:screen" filter="url(#filter0_f_1120_869)">
<path d="M123.72 51.28L95.78 35L68 51.25V109.57L95.67 125.68L123.72 109.54V51.28Z" fill="url(#paint93_linear_1120_869)" style="mix-blend-mode:screen"/>
</g>
<path d="M138.36 156.391V194.741L176.08 172.601V134.251L138.36 156.391Z" fill="url(#paint94_linear_1120_869)"/>
<path d="M138.38 156.391V194.741L100.68 172.761V134.441L138.38 156.391Z" fill="#AF0099"/>
<path d="M100.68 134.441L138.38 156.391L176.08 134.251L138.33 112.271L100.68 134.441Z" fill="#7A096C"/>
<path style="mix-blend-mode:screen" d="M138.38 155.791L101.19 134.131L100.68 134.441L138.38 156.391L176.08 134.251L175.57 133.951L138.38 155.791Z" fill="url(#paint95_radial_1120_869)"/>
<path d="M31.8101 192.511L38.0101 196.121L42.05 193.731L35.83 190.121L31.8101 192.511Z" fill="#E2953F"/>
<path d="M12.3101 181.301L18.5101 184.911L22.55 182.521L16.33 178.911L12.3101 181.301Z" fill="#E2953F"/>
<path style="mix-blend-mode:multiply" d="M37.9401 195.781L50.5101 191.491L41.5101 186.071L32.5701 192.681L37.9401 195.781Z" fill="url(#paint96_linear_1120_869)"/>
<path style="mix-blend-mode:multiply" d="M18.5199 184.361L31.0999 180.071L22.0999 174.661L13.1599 181.271L18.5199 184.361Z" fill="url(#paint97_linear_1120_869)"/>
<path d="M32.06 170.691L25.6899 167.011C20.5799 164.061 16.4399 166.421 16.4399 172.281V179.431L21.8 182.521V177.211C21.8 173.871 24.16 172.531 27.06 174.211L30.6899 176.301C32.2111 177.298 33.477 178.638 34.3854 180.213C35.2938 181.789 35.8195 183.555 35.92 185.371V190.691L41.2799 193.781V186.641C41.3099 180.781 37.17 173.641 32.06 170.691Z" fill="url(#paint98_linear_1120_869)"/>
<path d="M32.06 170.691L25.69 167.011C23.15 165.541 20.85 165.391 19.18 166.331L15.76 168.331L16.44 172.461V179.391L17.71 180.121L18.43 184.481L21.8 182.481V177.171C21.8 173.831 24.16 172.491 27.06 174.171L30.69 176.261C32.2165 177.261 33.4856 178.608 34.3943 180.191C35.303 181.773 35.8257 183.548 35.92 185.371V190.691L37.34 191.511L37.9 195.781L41.28 193.781V186.641C41.31 180.781 37.17 173.641 32.06 170.691Z" fill="url(#paint99_linear_1120_869)"/>
<path style="mix-blend-mode:screen" d="M29.2701 172.441L22.92 168.761C20.06 167.111 17.5001 167.121 15.8101 168.491L16.47 172.491V179.421L17.7401 180.151L18.4601 184.511L19.04 184.171V178.951C19.04 176.481 20.33 175.101 22.19 175.241C22.94 173.411 24.8501 172.901 27.0901 174.241L30.72 176.331C32.2317 177.328 33.4893 178.664 34.3922 180.234C35.2951 181.804 35.8183 183.563 35.92 185.371V190.691L37.3401 191.511L37.9001 195.781L38.4901 195.441V188.391C38.5201 182.531 34.3801 175.391 29.2701 172.441Z" fill="url(#paint100_radial_1120_869)"/>
<path d="M28.6901 172.691L22.3101 169.011C17.2001 166.061 13.0701 168.421 13.0701 174.281V181.431L18.4301 184.521V179.211C18.4301 175.871 20.7801 174.531 23.6901 176.211L27.3101 178.301C28.8385 179.293 30.1114 180.631 31.0254 182.207C31.9394 183.783 32.4686 185.552 32.5701 187.371V192.691L37.9301 195.781V188.641C37.9201 182.781 33.7901 175.641 28.6901 172.691Z" fill="url(#paint101_linear_1120_869)"/>
<defs>
<filter id="filter0_f_1120_869" x="58.7" y="25.7" width="74.3202" height="109.28" filterUnits="userSpaceOnUse" color-interpolation-filters="sRGB">
<feFlood flood-opacity="0" result="BackgroundImageFix"/>
<feBlend mode="normal" in="SourceGraphic" in2="BackgroundImageFix" result="shape"/>
<feGaussianBlur stdDeviation="4.65" result="effect1_foregroundBlur_1120_869"/>
</filter>
<linearGradient id="paint0_linear_1120_869" x1="179.94" y1="72.1118" x2="187.96" y2="90.1018" gradientUnits="userSpaceOnUse">
<stop offset="0.04" stop-color="#FFA98C"/>
<stop offset="0.32" stop-color="#FFB892"/>
<stop offset="0.86" stop-color="#FEE1A3"/>
<stop offset="1" stop-color="#FEECA8"/>
</linearGradient>
<linearGradient id="paint1_linear_1120_869" x1="100.22" y1="19.0312" x2="177.25" y2="112.851" gradientUnits="userSpaceOnUse">
<stop offset="0.04" stop-color="#FFA98C"/>
<stop offset="0.32" stop-color="#FFB892"/>
<stop offset="0.86" stop-color="#FEE1A3"/>
<stop offset="1" stop-color="#FEECA8"/>
</linearGradient>
<linearGradient id="paint2_linear_1120_869" x1="178" y1="-30.7587" x2="154" y2="76.2413" gradientUnits="userSpaceOnUse">
<stop offset="0.04" stop-color="#FFA98C"/>
<stop offset="0.32" stop-color="#FFB892"/>
<stop offset="0.86" stop-color="#FEE1A3"/>
<stop offset="1" stop-color="#FEECA8"/>
</linearGradient>
<radialGradient id="paint3_radial_1120_869" cx="0" cy="0" r="1" gradientUnits="userSpaceOnUse" gradientTransform="translate(159.18 63.971) scale(27.81 27.81)">
<stop offset="0.1" stop-color="#FFE4A7"/>
<stop offset="0.42" stop-color="#F4BE4C"/>
<stop offset="0.67" stop-color="#ECA30A"/>
<stop offset="1"/>
</radialGradient>
<linearGradient id="paint4_linear_1120_869" x1="179.94" y1="61.7817" x2="187.96" y2="79.7717" gradientUnits="userSpaceOnUse">
<stop offset="0.04" stop-color="#FFA98C"/>
<stop offset="0.32" stop-color="#FFB892"/>
<stop offset="0.86" stop-color="#FEE1A3"/>
<stop offset="1" stop-color="#FEECA8"/>
</linearGradient>
<linearGradient id="paint5_linear_1120_869" x1="100.22" y1="8.70113" x2="177.25" y2="102.511" gradientUnits="userSpaceOnUse">
<stop offset="0.04" stop-color="#FFA98C"/>
<stop offset="0.32" stop-color="#FFB892"/>
<stop offset="0.86" stop-color="#FEE1A3"/>
<stop offset="1" stop-color="#FEECA8"/>
</linearGradient>
<linearGradient id="paint6_linear_1120_869" x1="178" y1="-41.0888" x2="154" y2="65.9112" gradientUnits="userSpaceOnUse">
<stop offset="0.04" stop-color="#FFA98C"/>
<stop offset="0.32" stop-color="#FFB892"/>
<stop offset="0.86" stop-color="#FEE1A3"/>
<stop offset="1" stop-color="#FEECA8"/>
</linearGradient>
<radialGradient id="paint7_radial_1120_869" cx="0" cy="0" r="1" gradientUnits="userSpaceOnUse" gradientTransform="translate(159.18 53.6409) scale(27.81 27.81)">
<stop offset="0.1" stop-color="#FFE4A7"/>
<stop offset="0.42" stop-color="#F4BE4C"/>
<stop offset="0.67" stop-color="#ECA30A"/>
<stop offset="1"/>
</radialGradient>
<linearGradient id="paint8_linear_1120_869" x1="179.94" y1="51.4409" x2="187.96" y2="69.4309" gradientUnits="userSpaceOnUse">
<stop offset="0.04" stop-color="#FFA98C"/>
<stop offset="0.32" stop-color="#FFB892"/>
<stop offset="0.86" stop-color="#FEE1A3"/>
<stop offset="1" stop-color="#FEECA8"/>
</linearGradient>
<linearGradient id="paint9_linear_1120_869" x1="100.22" y1="-1.63871" x2="177.25" y2="92.1813" gradientUnits="userSpaceOnUse">
<stop offset="0.04" stop-color="#FFA98C"/>
<stop offset="0.32" stop-color="#FFB892"/>
<stop offset="0.86" stop-color="#FEE1A3"/>
<stop offset="1" stop-color="#FEECA8"/>
</linearGradient>
<linearGradient id="paint10_linear_1120_869" x1="178" y1="-51.4186" x2="154" y2="55.5814" gradientUnits="userSpaceOnUse">
<stop offset="0.04" stop-color="#FFA98C"/>
<stop offset="0.32" stop-color="#FFB892"/>
<stop offset="0.86" stop-color="#FEE1A3"/>
<stop offset="1" stop-color="#FEECA8"/>
</linearGradient>
<radialGradient id="paint11_radial_1120_869" cx="0" cy="0" r="1" gradientUnits="userSpaceOnUse" gradientTransform="translate(159.18 43.3108) scale(27.81 27.81)">
<stop offset="0.1" stop-color="#FFE4A7"/>
<stop offset="0.42" stop-color="#F4BE4C"/>
<stop offset="0.67" stop-color="#ECA30A"/>
<stop offset="1"/>
</radialGradient>
<linearGradient id="paint12_linear_1120_869" x1="179.94" y1="41.1118" x2="187.96" y2="59.1018" gradientUnits="userSpaceOnUse">
<stop offset="0.04" stop-color="#FFA98C"/>
<stop offset="0.32" stop-color="#FFB892"/>
<stop offset="0.86" stop-color="#FEE1A3"/>
<stop offset="1" stop-color="#FEECA8"/>
</linearGradient>
<linearGradient id="paint13_linear_1120_869" x1="100.22" y1="-11.9688" x2="177.25" y2="81.8512" gradientUnits="userSpaceOnUse">
<stop offset="0.04" stop-color="#FFA98C"/>
<stop offset="0.32" stop-color="#FFB892"/>
<stop offset="0.86" stop-color="#FEE1A3"/>
<stop offset="1" stop-color="#FEECA8"/>
</linearGradient>
<linearGradient id="paint14_linear_1120_869" x1="183.86" y1="-87.8987" x2="159.86" y2="19.1013" gradientUnits="userSpaceOnUse">
<stop offset="0.04" stop-color="#FFA98C"/>
<stop offset="0.32" stop-color="#FFB892"/>
<stop offset="0.86" stop-color="#FEE1A3"/>
<stop offset="1" stop-color="#FEECA8"/>
</linearGradient>
<linearGradient id="paint15_linear_1120_869" x1="152.59" y1="12.8818" x2="174.92" y2="44.3018" gradientUnits="userSpaceOnUse">
<stop stop-color="#AF0099"/>
<stop offset="1" stop-color="#E82FD1"/>
</linearGradient>
<radialGradient id="paint16_radial_1120_869" cx="0" cy="0" r="1" gradientUnits="userSpaceOnUse" gradientTransform="translate(159.18 32.971) scale(27.81 27.81)">
<stop offset="0.1" stop-color="#FFE4A7"/>
<stop offset="0.42" stop-color="#F4BE4C"/>
<stop offset="0.67" stop-color="#ECA30A"/>
<stop offset="1"/>
</radialGradient>
<radialGradient id="paint17_radial_1120_869" cx="0" cy="0" r="1" gradientUnits="userSpaceOnUse" gradientTransform="translate(161.28 32.051) scale(17.44 17.44)">
<stop stop-color="white"/>
<stop offset="1"/>
</radialGradient>
<radialGradient id="paint18_radial_1120_869" cx="0" cy="0" r="1" gradientUnits="userSpaceOnUse" gradientTransform="translate(183.19 156.001) scale(38.66 38.66)">
<stop offset="0.1" stop-color="#45108A"/>
<stop offset="0.67" stop-color="#25054D"/>
<stop offset="1"/>
</radialGradient>
<linearGradient id="paint19_linear_1120_869" x1="163.84" y1="215.581" x2="191.45" y2="277.531" gradientUnits="userSpaceOnUse">
<stop stop-color="#25054D"/>
<stop offset="1" stop-color="#45108A"/>
</linearGradient>
<radialGradient id="paint20_radial_1120_869" cx="0" cy="0" r="1" gradientUnits="userSpaceOnUse" gradientTransform="translate(138.38 181.412) scale(38.66 38.66)">
<stop offset="0.1" stop-color="#45108A"/>
<stop offset="0.67" stop-color="#25054D"/>
<stop offset="1"/>
</radialGradient>
<linearGradient id="paint21_linear_1120_869" x1="251.32" y1="216.001" x2="278.93" y2="277.961" gradientUnits="userSpaceOnUse">
<stop stop-color="#B4079E"/>
<stop offset="1" stop-color="#57004C"/>
</linearGradient>
<linearGradient id="paint22_linear_1120_869" x1="207.58" y1="241.411" x2="235.19" y2="303.371" gradientUnits="userSpaceOnUse">
<stop stop-color="#B4079E"/>
<stop offset="1" stop-color="#57004C"/>
</linearGradient>
<linearGradient id="paint23_linear_1120_869" x1="31.6099" y1="203.261" x2="63.4399" y2="185.601" gradientUnits="userSpaceOnUse">
<stop stop-color="#972A74"/>
<stop offset="0.04" stop-color="#8A266A"/>
<stop offset="0.19" stop-color="#601B4A"/>
<stop offset="0.35" stop-color="#3D112F"/>
<stop offset="0.51" stop-color="#230A1B"/>
<stop offset="0.67" stop-color="#0F040C"/>
<stop offset="0.83" stop-color="#040103"/>
<stop offset="1"/>
</linearGradient>
<linearGradient id="paint24_linear_1120_869" x1="52.0599" y1="231.341" x2="77.7999" y2="289.091" gradientUnits="userSpaceOnUse">
<stop offset="0.04" stop-color="#FFA98C"/>
<stop offset="0.32" stop-color="#FFB892"/>
<stop offset="0.86" stop-color="#FEE1A3"/>
<stop offset="1" stop-color="#FEECA8"/>
</linearGradient>
<linearGradient id="paint25_linear_1120_869" x1="-61.04" y1="114.061" x2="76.98" y2="282.141" gradientUnits="userSpaceOnUse">
<stop offset="0.04" stop-color="#FFA98C"/>
<stop offset="0.32" stop-color="#FFB892"/>
<stop offset="0.86" stop-color="#FEE1A3"/>
<stop offset="1" stop-color="#FEECA8"/>
</linearGradient>
<linearGradient id="paint26_linear_1120_869" x1="5.18" y1="211.362" x2="18.34" y2="211.362" gradientUnits="userSpaceOnUse">
<stop stop-color="#AF0099"/>
<stop offset="1" stop-color="#E82FD1"/>
</linearGradient>
<linearGradient id="paint27_linear_1120_869" x1="39.82" y1="130.411" x2="25.19" y2="195.611" gradientUnits="userSpaceOnUse">
<stop offset="0.04" stop-color="#FFA98C"/>
<stop offset="0.32" stop-color="#FFB892"/>
<stop offset="0.86" stop-color="#FEE1A3"/>
<stop offset="1" stop-color="#FEECA8"/>
</linearGradient>
<radialGradient id="paint28_radial_1120_869" cx="0" cy="0" r="1" gradientUnits="userSpaceOnUse" gradientTransform="translate(27.05 192.031) scale(35.88 35.88)">
<stop offset="0.1" stop-color="#FFE4A7"/>
<stop offset="0.42" stop-color="#F4BE4C"/>
<stop offset="0.67" stop-color="#ECA30A"/>
<stop offset="1"/>
</radialGradient>
<radialGradient id="paint29_radial_1120_869" cx="0" cy="0" r="1" gradientUnits="userSpaceOnUse" gradientTransform="translate(27.59 208.502) scale(17.46 17.46)">
<stop stop-color="white"/>
<stop offset="1"/>
</radialGradient>
<radialGradient id="paint30_radial_1120_869" cx="0" cy="0" r="1" gradientUnits="userSpaceOnUse" gradientTransform="translate(48.84 220.321) scale(47.68 47.68)">
<stop stop-color="#FDD65B"/>
<stop offset="0.21" stop-color="#B19540"/>
<stop offset="0.47" stop-color="#52461E"/>
<stop offset="0.66" stop-color="#171308"/>
<stop offset="0.75"/>
</radialGradient>
<radialGradient id="paint31_radial_1120_869" cx="0" cy="0" r="1" gradientUnits="userSpaceOnUse" gradientTransform="translate(53.0301 138.871) scale(38.66)">
<stop offset="0.1" stop-color="#45108A"/>
<stop offset="0.67" stop-color="#25054D"/>
<stop offset="1"/>
</radialGradient>
<radialGradient id="paint32_radial_1120_869" cx="0" cy="0" r="1" gradientUnits="userSpaceOnUse" gradientTransform="translate(30.09 185.951) scale(45.86 45.86)">
<stop stop-color="#FDD65B"/>
<stop offset="0.21" stop-color="#B19540"/>
<stop offset="0.47" stop-color="#52461E"/>
<stop offset="0.66" stop-color="#171308"/>
<stop offset="0.75"/>
</radialGradient>
<linearGradient id="paint33_linear_1120_869" x1="163.84" y1="266.821" x2="191.45" y2="328.781" gradientUnits="userSpaceOnUse">
<stop stop-color="#B4079E"/>
<stop offset="1" stop-color="#57004C"/>
</linearGradient>
<radialGradient id="paint34_radial_1120_869" cx="0" cy="0" r="1" gradientUnits="userSpaceOnUse" gradientTransform="translate(138.38 232.652) scale(38.66 38.66)">
<stop offset="0.1" stop-color="#45108A"/>
<stop offset="0.67" stop-color="#25054D"/>
<stop offset="1"/>
</radialGradient>
<radialGradient id="paint35_radial_1120_869" cx="0" cy="0" r="1" gradientUnits="userSpaceOnUse" gradientTransform="translate(95.71 163.891) scale(38.66 38.66)">
<stop offset="0.1" stop-color="#45108A"/>
<stop offset="0.67" stop-color="#25054D"/>
<stop offset="1"/>
</radialGradient>
<linearGradient id="paint36_linear_1120_869" x1="158.99" y1="196.211" x2="166.38" y2="212.781" gradientUnits="userSpaceOnUse">
<stop stop-color="#25054D"/>
<stop offset="1" stop-color="#45108A"/>
</linearGradient>
<radialGradient id="paint37_radial_1120_869" cx="0" cy="0" r="1" gradientUnits="userSpaceOnUse" gradientTransform="translate(138.38 188.911) scale(38.22 38.22)">
<stop offset="0.1" stop-color="#45108A"/>
<stop offset="0.67" stop-color="#25054D"/>
<stop offset="1"/>
</radialGradient>
<radialGradient id="paint38_radial_1120_869" cx="0" cy="0" r="1" gradientUnits="userSpaceOnUse" gradientTransform="translate(178.84 194.571) scale(38.67 38.67)">
<stop stop-color="#FDD65B"/>
<stop offset="0.21" stop-color="#B19540"/>
<stop offset="0.47" stop-color="#52461E"/>
<stop offset="0.66" stop-color="#171308"/>
<stop offset="0.75"/>
</radialGradient>
<linearGradient id="paint39_linear_1120_869" x1="114.555" y1="211.986" x2="139.088" y2="216.225" gradientUnits="userSpaceOnUse">
<stop stop-color="#AF0099"/>
<stop offset="1" stop-color="#E846D1"/>
</linearGradient>
<linearGradient id="paint40_linear_1120_869" x1="251.32" y1="172.261" x2="278.93" y2="234.221" gradientUnits="userSpaceOnUse">
<stop stop-color="#B4079E"/>
<stop offset="1" stop-color="#57004C"/>
</linearGradient>
<radialGradient id="paint41_radial_1120_869" cx="0" cy="0" r="1" gradientUnits="userSpaceOnUse" gradientTransform="translate(225.86 138.091) scale(38.66 38.66)">
<stop offset="0.1" stop-color="#45108A"/>
<stop offset="0.67" stop-color="#25054D"/>
<stop offset="1"/>
</radialGradient>
<linearGradient id="paint42_linear_1120_869" x1="171.75" y1="177.238" x2="219.25" y2="189.238" gradientUnits="userSpaceOnUse">
<stop stop-color="#AF0099"/>
<stop offset="1" stop-color="#E846D1"/>
</linearGradient>
<radialGradient id="paint43_radial_1120_869" cx="0" cy="0" r="1" gradientUnits="userSpaceOnUse" gradientTransform="translate(183.19 69.3313) scale(38.66 38.66)">
<stop offset="0.1" stop-color="#45108A"/>
<stop offset="0.67" stop-color="#25054D"/>
<stop offset="1"/>
</radialGradient>
<radialGradient id="paint44_radial_1120_869" cx="0" cy="0" r="1" gradientUnits="userSpaceOnUse" gradientTransform="translate(191.65 117.301) scale(7.06)">
<stop offset="0.15" stop-color="#5213A6"/>
<stop offset="0.25" stop-color="#45108A"/>
<stop offset="0.8" stop-color="#25054D"/>
<stop offset="0.97" stop-color="#2D085C"/>
</radialGradient>
<radialGradient id="paint45_radial_1120_869" cx="0" cy="0" r="1" gradientUnits="userSpaceOnUse" gradientTransform="translate(191.65 84.8011) scale(7.06)">
<stop offset="0.15" stop-color="#5213A6"/>
<stop offset="0.25" stop-color="#45108A"/>
<stop offset="0.8" stop-color="#25054D"/>
<stop offset="0.97" stop-color="#2D085C"/>
</radialGradient>
<radialGradient id="paint46_radial_1120_869" cx="0" cy="0" r="1" gradientUnits="userSpaceOnUse" gradientTransform="translate(191.65 84.8011) scale(7.06)">
<stop offset="0.15" stop-color="#F42DDC"/>
<stop offset="0.25" stop-color="#F42DDC"/>
<stop offset="0.8" stop-color="#860976"/>
<stop offset="0.97" stop-color="#860976"/>
</radialGradient>
<radialGradient id="paint47_radial_1120_869" cx="0" cy="0" r="1" gradientUnits="userSpaceOnUse" gradientTransform="translate(223.9 104.301) scale(7.06002 7.06)">
<stop offset="0.15" stop-color="#5213A6"/>
<stop offset="0.25" stop-color="#45108A"/>
<stop offset="0.8" stop-color="#25054D"/>
<stop offset="0.97" stop-color="#2D085C"/>
</radialGradient>
<radialGradient id="paint48_radial_1120_869" cx="0" cy="0" r="1" gradientUnits="userSpaceOnUse" gradientTransform="translate(223.9 104.301) scale(7.06002 7.06)">
<stop offset="0.15" stop-color="#F42DDC"/>
<stop offset="0.25" stop-color="#F42DDC"/>
<stop offset="0.8" stop-color="#860976"/>
<stop offset="0.97" stop-color="#860976"/>
</radialGradient>
<radialGradient id="paint49_radial_1120_869" cx="0" cy="0" r="1" gradientUnits="userSpaceOnUse" gradientTransform="translate(214.65 119.051) scale(7.06002 7.06)">
<stop offset="0.15" stop-color="#5213A6"/>
<stop offset="0.25" stop-color="#45108A"/>
<stop offset="0.8" stop-color="#25054D"/>
<stop offset="0.97" stop-color="#2D085C"/>
</radialGradient>
<radialGradient id="paint50_radial_1120_869" cx="0" cy="0" r="1" gradientUnits="userSpaceOnUse" gradientTransform="translate(214.65 119.051) scale(7.06002 7.06)">
<stop offset="0.15" stop-color="#F42DDC"/>
<stop offset="0.25" stop-color="#F42DDC"/>
<stop offset="0.8" stop-color="#860976"/>
<stop offset="0.97" stop-color="#860976"/>
</radialGradient>
<radialGradient id="paint51_radial_1120_869" cx="0" cy="0" r="1" gradientUnits="userSpaceOnUse" gradientTransform="translate(256.65 84.8011) scale(7.06002 7.06)">
<stop offset="0.15" stop-color="#5213A6"/>
<stop offset="0.25" stop-color="#45108A"/>
<stop offset="0.8" stop-color="#25054D"/>
<stop offset="0.97" stop-color="#2D085C"/>
</radialGradient>
<radialGradient id="paint52_radial_1120_869" cx="0" cy="0" r="1" gradientUnits="userSpaceOnUse" gradientTransform="translate(256.65 84.8011) scale(7.06002 7.06)">
<stop offset="0.15" stop-color="#F42DDC"/>
<stop offset="0.25" stop-color="#F42DDC"/>
<stop offset="0.8" stop-color="#CD0FB5"/>
<stop offset="0.97" stop-color="#CD0FB5"/>
</radialGradient>
<radialGradient id="paint53_radial_1120_869" cx="0" cy="0" r="1" gradientUnits="userSpaceOnUse" gradientTransform="translate(256.65 84.8011) scale(7.06002 7.06)">
<stop offset="0.15" stop-color="#F42DDC"/>
<stop offset="0.25" stop-color="#F42DDC"/>
<stop offset="0.8" stop-color="#860976"/>
<stop offset="0.97" stop-color="#860976"/>
</radialGradient>
<radialGradient id="paint54_radial_1120_869" cx="0" cy="0" r="1" gradientUnits="userSpaceOnUse" gradientTransform="translate(256.65 116.801) scale(7.06002 7.06)">
<stop offset="0.15" stop-color="#F42DDC"/>
<stop offset="0.25" stop-color="#F42DDC"/>
<stop offset="0.8" stop-color="#CD0FB5"/>
<stop offset="0.97" stop-color="#CD0FB5"/>
</radialGradient>
<radialGradient id="paint55_radial_1120_869" cx="0" cy="0" r="1" gradientUnits="userSpaceOnUse" gradientTransform="translate(256.65 116.801) scale(7.06002 7.06)">
<stop offset="0.15" stop-color="#F42DDC"/>
<stop offset="0.25" stop-color="#F42DDC"/>
<stop offset="0.8" stop-color="#860976"/>
<stop offset="0.97" stop-color="#860976"/>
</radialGradient>
<radialGradient id="paint56_radial_1120_869" cx="0" cy="0" r="1" gradientUnits="userSpaceOnUse" gradientTransform="translate(223.9 136.551) scale(7.06002 7.06)">
<stop offset="0.15" stop-color="#5213A6"/>
<stop offset="0.25" stop-color="#45108A"/>
<stop offset="0.8" stop-color="#25054D"/>
<stop offset="0.97" stop-color="#2D085C"/>
</radialGradient>
<radialGradient id="paint57_radial_1120_869" cx="0" cy="0" r="1" gradientUnits="userSpaceOnUse" gradientTransform="translate(223.9 136.551) scale(7.06002 7.06)">
<stop offset="0.15" stop-color="#F42DDC"/>
<stop offset="0.25" stop-color="#F42DDC"/>
<stop offset="0.8" stop-color="#860976"/>
<stop offset="0.97" stop-color="#860976"/>
</radialGradient>
<radialGradient id="paint58_radial_1120_869" cx="0" cy="0" r="1" gradientUnits="userSpaceOnUse" gradientTransform="translate(223.9 65.3011) scale(7.06002 7.06)">
<stop offset="0.15" stop-color="#5213A6"/>
<stop offset="0.25" stop-color="#45108A"/>
<stop offset="0.8" stop-color="#25054D"/>
<stop offset="0.97" stop-color="#2D085C"/>
</radialGradient>
<radialGradient id="paint59_radial_1120_869" cx="0" cy="0" r="1" gradientUnits="userSpaceOnUse" gradientTransform="translate(223.9 65.3011) scale(7.06002 7.06)">
<stop offset="0.15" stop-color="#F42DDC"/>
<stop offset="0.25" stop-color="#F42DDC"/>
<stop offset="0.8" stop-color="#CD0FB5"/>
<stop offset="0.97" stop-color="#CD0FB5"/>
</radialGradient>
<radialGradient id="paint60_radial_1120_869" cx="0" cy="0" r="1" gradientUnits="userSpaceOnUse" gradientTransform="translate(223.9 65.3011) scale(7.06002 7.06)">
<stop offset="0.15" stop-color="#F42DDC"/>
<stop offset="0.25" stop-color="#F42DDC"/>
<stop offset="0.8" stop-color="#860976"/>
<stop offset="0.97" stop-color="#860976"/>
</radialGradient>
<radialGradient id="paint61_radial_1120_869" cx="0" cy="0" r="1" gradientUnits="userSpaceOnUse" gradientTransform="translate(231.65 84.5511) scale(7.06002 7.06)">
<stop offset="0.15" stop-color="#5213A6"/>
<stop offset="0.25" stop-color="#45108A"/>
<stop offset="0.8" stop-color="#25054D"/>
<stop offset="0.97" stop-color="#2D085C"/>
</radialGradient>
<radialGradient id="paint62_radial_1120_869" cx="0" cy="0" r="1" gradientUnits="userSpaceOnUse" gradientTransform="translate(231.65 84.5511) scale(7.06002 7.06)">
<stop offset="0.15" stop-color="#F42DDC"/>
<stop offset="0.25" stop-color="#F42DDC"/>
<stop offset="0.8" stop-color="#CD0FB5"/>
<stop offset="0.97" stop-color="#CD0FB5"/>
</radialGradient>
<radialGradient id="paint63_radial_1120_869" cx="0" cy="0" r="1" gradientUnits="userSpaceOnUse" gradientTransform="translate(231.65 84.5511) scale(7.06002 7.06)">
<stop offset="0.15" stop-color="#F42DDC"/>
<stop offset="0.25" stop-color="#F42DDC"/>
<stop offset="0.8" stop-color="#860976"/>
<stop offset="0.97" stop-color="#860976"/>
</radialGradient>
<radialGradient id="paint64_radial_1120_869" cx="0" cy="0" r="1" gradientUnits="userSpaceOnUse" gradientTransform="translate(242.65 96.0511) scale(7.06002 7.06)">
<stop offset="0.15" stop-color="#5213A6"/>
<stop offset="0.25" stop-color="#45108A"/>
<stop offset="0.8" stop-color="#25054D"/>
<stop offset="0.97" stop-color="#2D085C"/>
</radialGradient>
<radialGradient id="paint65_radial_1120_869" cx="0" cy="0" r="1" gradientUnits="userSpaceOnUse" gradientTransform="translate(242.65 96.0511) scale(7.06002 7.06)">
<stop offset="0.15" stop-color="#F42DDC"/>
<stop offset="0.25" stop-color="#F42DDC"/>
<stop offset="0.8" stop-color="#860976"/>
<stop offset="0.97" stop-color="#860976"/>
</radialGradient>
<radialGradient id="paint66_radial_1120_869" cx="0" cy="0" r="1" gradientUnits="userSpaceOnUse" gradientTransform="translate(236.52 114.801) scale(7.06002 7.06001)">
<stop offset="0.15" stop-color="#5213A6"/>
<stop offset="0.25" stop-color="#45108A"/>
<stop offset="0.8" stop-color="#25054D"/>
<stop offset="0.97" stop-color="#2D085C"/>
</radialGradient>
<radialGradient id="paint67_radial_1120_869" cx="0" cy="0" r="1" gradientUnits="userSpaceOnUse" gradientTransform="translate(236.52 114.801) scale(7.06002 7.06001)">
<stop offset="0.15" stop-color="#F42DDC"/>
<stop offset="0.25" stop-color="#F42DDC"/>
<stop offset="0.8" stop-color="#CD0FB5"/>
<stop offset="0.97" stop-color="#CD0FB5"/>
</radialGradient>
<radialGradient id="paint68_radial_1120_869" cx="0" cy="0" r="1" gradientUnits="userSpaceOnUse" gradientTransform="translate(236.52 114.801) scale(7.06002 7.06001)">
<stop offset="0.15" stop-color="#F42DDC"/>
<stop offset="0.25" stop-color="#F42DDC"/>
<stop offset="0.8" stop-color="#860976"/>
<stop offset="0.97" stop-color="#860976"/>
</radialGradient>
<radialGradient id="paint69_radial_1120_869" cx="0" cy="0" r="1" gradientUnits="userSpaceOnUse" gradientTransform="translate(207.65 100.301) scale(7.06002 7.06)">
<stop offset="0.15" stop-color="#5213A6"/>
<stop offset="0.25" stop-color="#45108A"/>
<stop offset="0.8" stop-color="#25054D"/>
<stop offset="0.97" stop-color="#2D085C"/>
</radialGradient>
<radialGradient id="paint70_radial_1120_869" cx="0" cy="0" r="1" gradientUnits="userSpaceOnUse" gradientTransform="translate(207.65 100.301) scale(7.06002 7.06)">
<stop offset="0.15" stop-color="#F42DDC"/>
<stop offset="0.25" stop-color="#F42DDC"/>
<stop offset="0.8" stop-color="#860976"/>
<stop offset="0.97" stop-color="#860976"/>
</radialGradient>
<radialGradient id="paint71_radial_1120_869" cx="0" cy="0" r="1" gradientUnits="userSpaceOnUse" gradientTransform="translate(214.15 83.0511) scale(7.06002 7.06)">
<stop offset="0.15" stop-color="#5213A6"/>
<stop offset="0.25" stop-color="#45108A"/>
<stop offset="0.8" stop-color="#25054D"/>
<stop offset="0.97" stop-color="#2D085C"/>
</radialGradient>
<radialGradient id="paint72_radial_1120_869" cx="0" cy="0" r="1" gradientUnits="userSpaceOnUse" gradientTransform="translate(214.14 83.0511) scale(7.06002 7.06)">
<stop offset="0.15" stop-color="#F42DDC"/>
<stop offset="0.25" stop-color="#F42DDC"/>
<stop offset="0.8" stop-color="#860976"/>
<stop offset="0.97" stop-color="#860976"/>
</radialGradient>
<radialGradient id="paint73_radial_1120_869" cx="0" cy="0" r="1" gradientUnits="userSpaceOnUse" gradientTransform="translate(96.7701 69.7212) scale(38.66 38.66)">
<stop offset="0.1" stop-color="#45108A"/>
<stop offset="0.67" stop-color="#25054D"/>
<stop offset="1"/>
</radialGradient>
<radialGradient id="paint74_radial_1120_869" cx="0" cy="0" r="1" gradientUnits="userSpaceOnUse" gradientTransform="translate(138.38 94.7415) scale(38.66 38.66)">
<stop offset="0.1" stop-color="#45108A"/>
<stop offset="0.67" stop-color="#25054D"/>
<stop offset="1"/>
</radialGradient>
<linearGradient id="paint75_linear_1120_869" x1="207.58" y1="153.931" x2="235.19" y2="215.891" gradientUnits="userSpaceOnUse">
<stop stop-color="#B4079E"/>
<stop offset="1" stop-color="#57004C"/>
</linearGradient>
<radialGradient id="paint76_radial_1120_869" cx="0" cy="0" r="1" gradientUnits="userSpaceOnUse" gradientTransform="translate(182.12 119.761) scale(41.49 41.49)">
<stop offset="0.1" stop-color="#45108A"/>
<stop offset="0.67" stop-color="#25054D"/>
<stop offset="1"/>
</radialGradient>
<radialGradient id="paint77_radial_1120_869" cx="0" cy="0" r="1" gradientUnits="userSpaceOnUse" gradientTransform="translate(192.09 186.572) scale(92.6 92.6)">
<stop stop-color="#FDD65B"/>
<stop offset="0.21" stop-color="#B19540"/>
<stop offset="0.47" stop-color="#52461E"/>
<stop offset="0.66" stop-color="#171308"/>
<stop offset="0.75"/>
</radialGradient>
<radialGradient id="paint78_radial_1120_869" cx="0" cy="0" r="1" gradientUnits="userSpaceOnUse" gradientTransform="translate(53.0301 95.1314) scale(38.66 38.66)">
<stop offset="0.1" stop-color="#45108A"/>
<stop offset="0.67" stop-color="#25054D"/>
<stop offset="1"/>
</radialGradient>
<linearGradient id="paint79_linear_1120_869" x1="121.17" y1="154.321" x2="148.77" y2="216.271" gradientUnits="userSpaceOnUse">
<stop stop-color="#25054D"/>
<stop offset="1" stop-color="#45108A"/>
</linearGradient>
<linearGradient id="paint80_linear_1120_869" x1="107.9" y1="151.371" x2="195.52" y2="125.141" gradientUnits="userSpaceOnUse">
<stop stop-color="#25054D"/>
<stop offset="1" stop-color="#45108A"/>
</linearGradient>
<linearGradient id="paint81_linear_1120_869" x1="98.04" y1="149.382" x2="131.08" y2="149.382" gradientUnits="userSpaceOnUse">
<stop stop-color="#25054D"/>
<stop offset="1" stop-color="#45108A"/>
</linearGradient>
<linearGradient id="paint82_linear_1120_869" x1="20.47" y1="162.001" x2="135.78" y2="136.151" gradientUnits="userSpaceOnUse">
<stop stop-color="#25054D"/>
<stop offset="1" stop-color="#45108A"/>
</linearGradient>
<linearGradient id="paint83_linear_1120_869" x1="60.28" y1="149.362" x2="93.45" y2="149.362" gradientUnits="userSpaceOnUse">
<stop stop-color="#25054D"/>
<stop offset="1" stop-color="#45108A"/>
</linearGradient>
<linearGradient id="paint84_linear_1120_869" x1="134.94" y1="54.3414" x2="92.71" y2="134.811" gradientUnits="userSpaceOnUse">
<stop stop-color="#25054D"/>
<stop offset="1" stop-color="#45108A"/>
</linearGradient>
<linearGradient id="paint85_linear_1120_869" x1="160.15" y1="244.281" x2="235.76" y2="221.641" gradientUnits="userSpaceOnUse">
<stop offset="0.03" stop-color="#7C1DC9"/>
<stop offset="0.21" stop-color="#6E41D2"/>
<stop offset="0.62" stop-color="#4C9BE8"/>
<stop offset="1" stop-color="#2AF6FF"/>
</linearGradient>
<linearGradient id="paint86_linear_1120_869" x1="29.5599" y1="147.871" x2="129.01" y2="125.571" gradientUnits="userSpaceOnUse">
<stop offset="0.04" stop-color="#138BBD"/>
<stop offset="0.23" stop-color="#169AC7"/>
<stop offset="0.59" stop-color="#1FC3DF"/>
<stop offset="1" stop-color="#2AF6FF"/>
</linearGradient>
<linearGradient id="paint87_linear_1120_869" x1="107.9" y1="131.621" x2="195.52" y2="105.391" gradientUnits="userSpaceOnUse">
<stop stop-color="#25054D"/>
<stop offset="1" stop-color="#45108A"/>
</linearGradient>
<linearGradient id="paint88_linear_1120_869" x1="20.47" y1="142.251" x2="135.78" y2="116.401" gradientUnits="userSpaceOnUse">
<stop stop-color="#25054D"/>
<stop offset="1" stop-color="#45108A"/>
</linearGradient>
<linearGradient id="paint89_linear_1120_869" x1="60.28" y1="129.612" x2="93.45" y2="129.612" gradientUnits="userSpaceOnUse">
<stop stop-color="#25054D"/>
<stop offset="1" stop-color="#45108A"/>
</linearGradient>
<radialGradient id="paint90_radial_1120_869" cx="0" cy="0" r="1" gradientUnits="userSpaceOnUse" gradientTransform="translate(95.68 120.231) scale(38.6 38.6)">
<stop offset="0.1" stop-color="#45108A"/>
<stop offset="0.67" stop-color="#25054D"/>
<stop offset="1"/>
</radialGradient>
<linearGradient id="paint91_linear_1120_869" x1="95.6701" y1="88.9918" x2="95.6701" y2="121.352" gradientUnits="userSpaceOnUse">
<stop offset="0.03" stop-color="#AF0099"/>
<stop offset="0.21" stop-color="#AF0099"/>
<stop offset="0.62" stop-color="#E82FD1"/>
<stop offset="1" stop-color="#E82FD1"/>
</linearGradient>
<radialGradient id="paint92_radial_1120_869" cx="0" cy="0" r="1" gradientUnits="userSpaceOnUse" gradientTransform="translate(95.5001 125.461) scale(15.9 15.9)">
<stop stop-color="white"/>
<stop offset="1"/>
</radialGradient>
<linearGradient id="paint93_linear_1120_869" x1="95.86" y1="125.68" x2="95.86" y2="36.75" gradientUnits="userSpaceOnUse">
<stop stop-color="#E82FD1"/>
<stop offset="0.05" stop-color="#E82FD1"/>
<stop offset="0.18" stop-color="#C512AE"/>
<stop offset="0.31" stop-color="#C10FAB"/>
<stop offset="0.45" stop-color="#BA07A4"/>
<stop offset="0.58" stop-color="#B30D9E"/>
<stop offset="0.72" stop-color="#BD02A6"/>
<stop offset="0.85" stop-color="#AB0596"/>
<stop offset="1" stop-color="#AD0098"/>
</linearGradient>
<linearGradient id="paint94_linear_1120_869" x1="163.84" y1="179.341" x2="191.45" y2="241.301" gradientUnits="userSpaceOnUse">
<stop stop-color="#B4079E"/>
<stop offset="1" stop-color="#57004C"/>
</linearGradient>
<radialGradient id="paint95_radial_1120_869" cx="0" cy="0" r="1" gradientUnits="userSpaceOnUse" gradientTransform="translate(138.38 145.171) scale(38.66 38.66)">
<stop offset="0.1" stop-color="#45108A"/>
<stop offset="0.67" stop-color="#25054D"/>
<stop offset="1"/>
</radialGradient>
<linearGradient id="paint96_linear_1120_869" x1="47.2501" y1="188.311" x2="23.5901" y2="197.311" gradientUnits="userSpaceOnUse">
<stop stop-color="white"/>
<stop offset="1" stop-color="#A3653D"/>
</linearGradient>
<linearGradient id="paint97_linear_1120_869" x1="27.8399" y1="176.891" x2="4.16991" y2="185.891" gradientUnits="userSpaceOnUse">
<stop stop-color="white"/>
<stop offset="1" stop-color="#A3653D"/>
</linearGradient>
<linearGradient id="paint98_linear_1120_869" x1="50.7299" y1="215.621" x2="54.0599" y2="220.951" gradientUnits="userSpaceOnUse">
<stop offset="0.04" stop-color="#FFA98C"/>
<stop offset="0.32" stop-color="#FFB892"/>
<stop offset="0.86" stop-color="#FEE1A3"/>
<stop offset="1" stop-color="#FEECA8"/>
</linearGradient>
<linearGradient id="paint99_linear_1120_869" x1="90.92" y1="280.881" x2="98.61" y2="293.191" gradientUnits="userSpaceOnUse">
<stop offset="0.04" stop-color="#FFA98C"/>
<stop offset="0.32" stop-color="#FFB892"/>
<stop offset="0.86" stop-color="#FEE1A3"/>
<stop offset="1" stop-color="#FEECA8"/>
</linearGradient>
<radialGradient id="paint100_radial_1120_869" cx="0" cy="0" r="1" gradientUnits="userSpaceOnUse" gradientTransform="translate(32.4801 175.971) scale(29.03 29.03)">
<stop offset="0.1" stop-color="#FFE4A7"/>
<stop offset="0.42" stop-color="#F4BE4C"/>
<stop offset="0.67" stop-color="#ECA30A"/>
<stop offset="1"/>
</radialGradient>
<linearGradient id="paint101_linear_1120_869" x1="6.66006" y1="217.261" x2="37.16" y2="163.101" gradientUnits="userSpaceOnUse">
<stop offset="0.04" stop-color="#FFA98C"/>
<stop offset="0.31" stop-color="#FFB893"/>
<stop offset="0.32" stop-color="#FFB993"/>
<stop offset="0.82" stop-color="#FEDDA2"/>
<stop offset="1" stop-color="#FEECA8"/>
</linearGradient>
</defs>
</svg>
