<svg width="364" height="192" viewBox="0 0 364 192" fill="none" xmlns="http://www.w3.org/2000/svg">
<path fill-rule="evenodd" clip-rule="evenodd" d="M1.43846e-05 172C1.48674e-05 183.046 8.95432 192 20 192L344 192C355.046 192 364 183.046 364 172L364 20C364 8.9543 355.046 -2.60751e-07 344 2.22071e-07L339.725 4.08949e-07C328.944 8.80173e-07 318.56 12.426 307.779 12.426L194.785 12.426C184.005 12.426 173.62 7.66962e-06 162.84 8.14085e-06L20 1.43846e-05C8.95431 1.48674e-05 7.25761e-06 8.95433 7.74043e-06 20L1.43846e-05 172Z" fill="#0713F7"/>
</svg>
