<svg width="143" height="143" viewBox="0 0 143 143" fill="none" xmlns="http://www.w3.org/2000/svg">
<path d="M127.765 0C122.462 0 117.552 2.74083 114.775 7.25725L84.8824 51.6349C84.451 52.2739 84.2668 53.048 84.3641 53.8128C84.4615 54.5776 84.8337 55.2809 85.4114 55.7914C85.989 56.302 86.7327 56.585 87.5037 56.5876C88.2747 56.5903 89.0203 56.3123 89.6014 55.8057L119.024 30.2922C119.196 30.1368 119.409 30.0351 119.638 29.9993C119.867 29.9636 120.102 29.9954 120.313 30.0909C120.524 30.1863 120.703 30.3414 120.828 30.5369C120.952 30.7325 121.017 30.9601 121.014 31.1919V111.093C121.014 111.338 120.939 111.578 120.798 111.779C120.657 111.98 120.458 112.133 120.227 112.216C119.997 112.3 119.746 112.31 119.509 112.245C119.272 112.181 119.061 112.045 118.904 111.856L29.9704 5.39229C28.5392 3.70331 26.7575 2.34611 24.7491 1.41494C22.7406 0.48377 20.5536 0.000945969 18.3398 0L15.2355 0C11.1948 0 7.31957 1.60516 4.46236 4.46236C1.60516 7.31956 2.11008e-10 11.1948 2.11003e-10 15.2354L2.11008e-10 127.764C-1.74595e-05 131.083 1.08349 134.311 3.08581 136.957C5.08814 139.604 7.89977 141.524 11.0933 142.426C14.2869 143.328 17.6877 143.163 20.7788 141.956C23.8699 140.748 26.4822 138.565 28.2187 135.737L58.1116 91.3591C58.543 90.7201 58.7272 89.946 58.6299 89.1812C58.5326 88.4164 58.1604 87.7131 57.5827 87.2025C57.005 86.692 56.2613 86.409 55.4903 86.4063C54.7194 86.4037 53.9738 86.6816 53.3926 87.1882L23.9704 112.708C23.7977 112.862 23.5841 112.962 23.3555 112.996C23.127 113.031 22.8933 112.998 22.683 112.902C22.4727 112.806 22.2948 112.651 22.1711 112.456C22.0474 112.26 21.9832 112.033 21.9863 111.802V31.889C21.9858 31.6436 22.0611 31.4041 22.2018 31.2031C22.3426 31.0021 22.5419 30.8494 22.7727 30.766C23.0035 30.6826 23.2544 30.6724 23.4911 30.7369C23.7279 30.8014 23.9389 30.9374 24.0955 31.1263L113.018 137.602C115.913 141.022 120.168 142.994 124.648 143H127.753C131.792 142.998 135.666 141.395 138.524 138.541C141.382 135.687 142.992 131.816 143 127.776V15.2354C142.995 11.1962 141.389 7.32376 138.532 4.46759C135.676 1.61141 131.804 0.00473072 127.765 0Z" fill="white"/>
</svg>
