<svg width="30" height="30" viewBox="0 0 30 30" fill="none" xmlns="http://www.w3.org/2000/svg">
<path d="M3.00057 7.0001C2.86806 6.99823 2.7365 7.02271 2.61353 7.07212C2.49056 7.12153 2.37864 7.1949 2.28427 7.28794C2.1899 7.38098 2.11496 7.49186 2.06381 7.61411C2.01267 7.73637 1.98633 7.86757 1.98633 8.0001C1.98633 8.13263 2.01267 8.26383 2.06381 8.38609C2.11496 8.50834 2.1899 8.61922 2.28427 8.71226C2.37864 8.8053 2.49056 8.87867 2.61353 8.92808C2.7365 8.97749 2.86806 9.00197 3.00057 9.0001H27.0006C27.1331 9.00197 27.2646 8.97749 27.3876 8.92808C27.5106 8.87867 27.6225 8.8053 27.7169 8.71226C27.8112 8.61922 27.8862 8.50834 27.9373 8.38609C27.9885 8.26383 28.0148 8.13263 28.0148 8.0001C28.0148 7.86757 27.9885 7.73637 27.9373 7.61411C27.8862 7.49186 27.8112 7.38098 27.7169 7.28794C27.6225 7.1949 27.5106 7.12153 27.3876 7.07212C27.2646 7.02271 27.1331 6.99823 27.0006 7.0001H3.00057ZM3.00057 14.0001C2.86806 13.9982 2.7365 14.0227 2.61353 14.0721C2.49056 14.1215 2.37864 14.1949 2.28427 14.2879C2.1899 14.381 2.11496 14.4919 2.06381 14.6141C2.01267 14.7364 1.98633 14.8676 1.98633 15.0001C1.98633 15.1326 2.01267 15.2638 2.06381 15.3861C2.11496 15.5083 2.1899 15.6192 2.28427 15.7123C2.37864 15.8053 2.49056 15.8787 2.61353 15.9281C2.7365 15.9775 2.86806 16.002 3.00057 16.0001H27.0006C27.1331 16.002 27.2646 15.9775 27.3876 15.9281C27.5106 15.8787 27.6225 15.8053 27.7169 15.7123C27.8112 15.6192 27.8862 15.5083 27.9373 15.3861C27.9885 15.2638 28.0148 15.1326 28.0148 15.0001C28.0148 14.8676 27.9885 14.7364 27.9373 14.6141C27.8862 14.4919 27.8112 14.381 27.7169 14.2879C27.6225 14.1949 27.5106 14.1215 27.3876 14.0721C27.2646 14.0227 27.1331 13.9982 27.0006 14.0001H3.00057ZM3.00057 21.0001C2.86806 20.9982 2.7365 21.0227 2.61353 21.0721C2.49056 21.1215 2.37864 21.1949 2.28427 21.2879C2.1899 21.381 2.11496 21.4919 2.06381 21.6141C2.01267 21.7364 1.98633 21.8676 1.98633 22.0001C1.98633 22.1326 2.01267 22.2638 2.06381 22.3861C2.11496 22.5083 2.1899 22.6192 2.28427 22.7123C2.37864 22.8053 2.49056 22.8787 2.61353 22.9281C2.7365 22.9775 2.86806 23.002 3.00057 23.0001H27.0006C27.1331 23.002 27.2646 22.9775 27.3876 22.9281C27.5106 22.8787 27.6225 22.8053 27.7169 22.7123C27.8112 22.6192 27.8862 22.5083 27.9373 22.3861C27.9885 22.2638 28.0148 22.1326 28.0148 22.0001C28.0148 21.8676 27.9885 21.7364 27.9373 21.6141C27.8862 21.4919 27.8112 21.381 27.7169 21.2879C27.6225 21.1949 27.5106 21.1215 27.3876 21.0721C27.2646 21.0227 27.1331 20.9982 27.0006 21.0001H3.00057Z" fill="white"/>
</svg>
