<svg width="246" height="216" viewBox="0 0 246 216" fill="none" xmlns="http://www.w3.org/2000/svg">
<path d="M245.223 67.2007C245.179 67.7297 245.136 68.2532 245.043 68.7822C244.972 69.1803 244.852 69.573 244.754 69.9712C244.628 70.462 244.503 70.9528 244.334 71.4382C244.198 71.8254 244.023 72.2072 243.854 72.5944C243.636 73.1016 243.412 73.6088 243.145 74.1051C242.949 74.4705 242.726 74.825 242.502 75.1849C242.159 75.7467 241.788 76.303 241.379 76.8538C241.133 77.181 240.877 77.5083 240.61 77.83C239.95 78.6317 239.214 79.4226 238.407 80.197C238.205 80.3933 238.031 80.5951 237.818 80.786C237.333 81.2278 236.782 81.6532 236.254 82.0786C235.845 82.4113 235.463 82.7494 235.021 83.0712C234.432 83.5075 233.767 83.922 233.124 84.3364C232.628 84.6582 232.175 84.9909 231.646 85.3072L143.137 137.974C141.627 138.874 140.013 139.682 138.35 140.44C138.006 140.598 137.668 140.756 137.314 140.909C135.673 141.618 133.982 142.261 132.227 142.834C131.758 142.986 131.273 143.123 130.798 143.265C129.926 143.526 129.053 143.783 128.159 144.012C127.598 144.154 127.031 144.284 126.464 144.415C125.597 144.617 124.73 144.803 123.846 144.972C123.323 145.07 122.8 145.168 122.271 145.255C120.466 145.566 118.639 145.833 116.791 146.019C116.709 146.03 116.627 146.03 116.546 146.035C115.013 146.182 113.47 146.281 111.922 146.346C111.366 146.368 110.804 146.373 110.248 146.384C109.267 146.406 108.285 146.412 107.304 146.401C106.688 146.39 106.066 146.373 105.45 146.352C104.561 146.319 103.678 146.27 102.795 146.21C102.168 146.166 101.541 146.122 100.919 146.062C100.025 145.981 99.1359 145.877 98.2527 145.762C97.6583 145.686 97.0695 145.615 96.4752 145.528C95.4338 145.37 94.3978 145.184 93.3673 144.988C92.9147 144.901 92.4623 144.83 92.0152 144.737C90.4503 144.41 88.9019 144.028 87.3861 143.603C87.1189 143.526 86.8572 143.434 86.59 143.357C85.0034 142.888 83.4549 142.359 81.9391 141.787C81.3121 141.547 80.674 141.329 80.0634 141.072L20.2776 115.968C18.1784 115.09 16.2374 114.125 14.4544 113.094C5.16352 107.728 0.174607 100.491 0.196417 93.128L7.1204e-05 161.971C-0.0217385 169.339 4.96717 176.576 14.2581 181.937C16.041 182.968 17.9877 183.928 20.0814 184.812L79.8672 209.915C80.2489 210.079 80.6359 210.232 81.0285 210.39C81.2575 210.483 81.5083 210.543 81.7428 210.63C83.2586 211.208 84.8125 211.737 86.3992 212.206C86.5846 212.261 86.7536 212.337 86.9445 212.391C87.0208 212.413 87.1079 212.43 87.1842 212.451C88.7055 212.882 90.2485 213.259 91.8188 213.586C91.8952 213.602 91.9715 213.624 92.0533 213.64C92.424 213.717 92.8057 213.766 93.1764 213.837C94.207 214.033 95.2375 214.218 96.2844 214.377C96.4643 214.404 96.6442 214.442 96.8242 214.469C97.2331 214.529 97.6475 214.557 98.0565 214.606C98.9452 214.72 99.8394 214.824 100.734 214.906C100.995 214.933 101.257 214.971 101.519 214.993C101.873 215.02 102.238 215.026 102.593 215.053C103.482 215.113 104.376 215.162 105.27 215.195C105.603 215.206 105.935 215.238 106.268 215.249C106.546 215.255 106.829 215.244 107.108 215.244C108.094 215.26 109.076 215.249 110.057 215.227C110.444 215.222 110.832 215.233 111.219 215.222C111.388 215.216 111.557 215.195 111.731 215.189C113.291 215.124 114.844 215.031 116.382 214.878C116.447 214.873 116.507 214.873 116.573 214.867L116.595 214.862C118.448 214.677 120.275 214.409 122.085 214.098C122.309 214.06 122.538 214.044 122.761 214.006C123.061 213.951 123.35 213.875 123.65 213.815C124.533 213.646 125.406 213.455 126.273 213.259C126.84 213.128 127.407 212.997 127.968 212.855C128.863 212.626 129.735 212.37 130.607 212.108C130.984 211.993 131.376 211.906 131.747 211.786C131.845 211.753 131.938 211.71 132.036 211.677C133.792 211.104 135.482 210.455 137.123 209.752C137.472 209.599 137.81 209.441 138.159 209.283C139.822 208.525 141.436 207.717 142.946 206.818L231.455 154.15C231.537 154.101 231.624 154.052 231.706 153.998C232.148 153.73 232.524 153.447 232.939 153.174C233.576 152.76 234.236 152.345 234.825 151.914C235.267 151.587 235.648 151.249 236.063 150.916C236.592 150.491 237.142 150.066 237.622 149.629C237.677 149.58 237.742 149.531 237.797 149.482C237.955 149.34 238.058 149.182 238.211 149.04C239.018 148.266 239.749 147.48 240.414 146.673C240.534 146.526 240.697 146.39 240.812 146.248C240.954 146.068 241.046 145.877 241.183 145.697C241.591 145.146 241.962 144.59 242.306 144.028C242.442 143.81 242.622 143.597 242.747 143.374C242.829 143.232 242.873 143.09 242.949 142.948C243.216 142.447 243.44 141.939 243.658 141.432C243.772 141.159 243.936 140.898 244.034 140.625C244.078 140.51 244.094 140.391 244.132 140.276C244.301 139.791 244.427 139.3 244.552 138.809C244.628 138.503 244.754 138.209 244.814 137.904C244.836 137.811 244.83 137.713 244.847 137.62C244.945 137.091 244.983 136.567 245.026 136.038C245.054 135.733 245.119 135.428 245.13 135.122C245.136 134.98 245.136 134.839 245.136 134.697L245.332 65.8535C245.332 66.3062 245.261 66.7534 245.223 67.2007Z" fill="#53A5F8"/>
<path d="M231.117 45.9083C249.557 56.5541 250.397 74.148 231.657 85.3065L143.148 137.974C126.425 147.949 99.5666 149.252 80.0797 141.072L20.2939 115.968C18.1947 115.09 16.2535 114.124 14.4706 113.094C-0.32728 104.547 -4.21481 91.2457 5.68678 80.2508L64.3276 15.0454C77.9696 -0.121626 111.671 -4.69732 135.64 5.36492L225.239 43.0069C227.36 43.9014 229.323 44.8721 231.117 45.9083Z" fill="#A7EAFD"/>
<path d="M231.651 85.3061L143.142 137.973C126.42 147.948 99.5612 149.252 80.0742 141.071L20.2884 115.967C18.1893 115.089 16.2482 114.124 14.4653 113.093C7.29536 108.954 2.71528 103.691 0.992318 98.1226C-1.78296 107.083 3.11881 116.425 14.4653 122.975C16.2482 124.006 18.1947 124.966 20.2884 125.85L80.0742 150.953C99.5612 159.134 126.42 157.831 143.142 147.856L231.651 95.1885C243.003 88.4367 247.125 79.3233 244.552 70.8154C242.911 76.0783 238.647 81.1394 231.651 85.3061Z" fill="white"/>
<path d="M112.669 128.168C105.243 128.168 97.7622 126.832 91.2793 124.11L48.6578 106.216C47.0493 105.54 45.5608 104.804 44.1977 104.019C37.7529 100.294 33.7235 95.2161 32.8511 89.7132C32.1096 85.0502 33.6417 80.4528 37.273 76.417L79.0822 29.9343C89.5945 18.2359 114.801 14.6909 133.007 22.3426L196.893 49.1752C198.517 49.8624 200.017 50.6042 201.385 51.3895L201.391 51.3949C208.768 55.6543 212.852 61.5063 212.885 67.86C212.928 74.11 208.992 79.9128 201.805 84.1885L138.704 121.743C131.562 125.981 122.156 128.168 112.669 128.168ZM111.606 23.7333C100.058 23.7333 88.8148 27.2401 83.1279 33.5665L41.3187 80.0546C38.8215 82.8306 37.7584 85.8684 38.2273 88.8516C38.838 92.6965 41.9295 96.4051 46.9239 99.2902C48.1016 99.9719 49.3883 100.599 50.7678 101.183L93.384 119.076C106.464 124.568 124.735 123.696 135.902 117.042L199.003 79.4874C204.461 76.2369 207.449 72.1194 207.421 67.8818C207.394 63.5406 204.281 59.3575 198.659 56.1071C197.471 55.4253 196.168 54.7818 194.766 54.1873L130.886 27.3547C125.024 24.9005 118.263 23.7333 111.606 23.7333Z" fill="#53A5F8"/>
<path d="M158.029 167.886L151.328 171.979V163.787L158.029 159.694V167.886Z" fill="white"/>
</svg>
