<svg width="246" height="216" viewBox="0 0 246 216" fill="none" xmlns="http://www.w3.org/2000/svg">
<path d="M245.219 67.1997C245.175 67.7287 245.132 68.2522 245.039 68.7812C244.968 69.1793 244.848 69.572 244.75 69.9702C244.624 70.461 244.499 70.9518 244.33 71.4372C244.194 71.8244 244.019 72.2062 243.85 72.5934C243.632 73.1006 243.408 73.6078 243.141 74.1041C242.945 74.4695 242.722 74.824 242.498 75.1839C242.155 75.7456 241.784 76.3019 241.375 76.8528C241.129 77.18 240.873 77.5072 240.606 77.829C239.946 78.6307 239.21 79.4215 238.403 80.1959C238.202 80.3923 238.027 80.5941 237.814 80.785C237.329 81.2267 236.779 81.6521 236.25 82.0775C235.841 82.4102 235.459 82.7484 235.017 83.0701C234.429 83.5064 233.763 83.9209 233.12 84.3354C232.624 84.6571 232.171 84.9898 231.642 85.3061L143.135 137.973C141.624 138.873 140.01 139.68 138.347 140.438C138.004 140.596 137.666 140.754 137.312 140.907C135.67 141.616 133.98 142.26 132.225 142.832C131.756 142.985 131.27 143.121 130.796 143.263C129.924 143.525 129.051 143.781 128.157 144.01C127.596 144.152 127.028 144.283 126.461 144.414C125.595 144.616 124.728 144.801 123.844 144.97C123.321 145.068 122.798 145.167 122.269 145.254C120.464 145.565 118.637 145.832 116.789 146.017C116.707 146.028 116.625 146.028 116.544 146.034C115.012 146.181 113.469 146.279 111.92 146.345C111.364 146.366 110.802 146.372 110.246 146.383C109.265 146.405 108.283 146.41 107.302 146.399C106.686 146.388 106.064 146.372 105.448 146.35C104.559 146.317 103.676 146.268 102.793 146.208C102.166 146.165 101.539 146.121 100.917 146.061C100.023 145.979 99.1343 145.876 98.251 145.761C97.6567 145.685 97.0679 145.614 96.4736 145.527C95.4322 145.368 94.3962 145.183 93.3658 144.987C92.9132 144.899 92.4607 144.828 92.0136 144.736C90.4488 144.408 88.9004 144.027 87.3846 143.601C87.1175 143.525 86.8558 143.432 86.5886 143.356C85.002 142.887 83.4535 142.358 81.9378 141.785C81.3108 141.545 80.6727 141.327 80.062 141.071L20.2773 115.967C18.1781 115.089 16.2371 114.124 14.4542 113.093C5.16343 107.727 0.174604 100.489 0.196414 93.1268L7.12028e-05 161.97C-0.0217381 169.338 4.96709 176.575 14.2579 181.936C16.0408 182.967 17.9874 183.926 20.0811 184.81L79.8659 209.914C80.2475 210.077 80.6346 210.23 81.0271 210.388C81.2561 210.481 81.507 210.541 81.7414 210.628C83.2572 211.206 84.8111 211.735 86.3978 212.204C86.5831 212.259 86.7522 212.335 86.943 212.39C87.0194 212.411 87.1065 212.428 87.1828 212.45C88.704 212.88 90.247 213.257 91.8173 213.584C91.8936 213.6 91.97 213.622 92.0518 213.638C92.4225 213.715 92.8041 213.764 93.1749 213.835C94.2054 214.031 95.2359 214.217 96.2828 214.375C96.4627 214.402 96.6426 214.44 96.8225 214.467C97.2315 214.527 97.6459 214.555 98.0548 214.604C98.9436 214.718 99.8377 214.822 100.732 214.904C100.994 214.931 101.255 214.969 101.517 214.991C101.872 215.018 102.237 215.024 102.591 215.051C103.48 215.111 104.374 215.16 105.268 215.193C105.601 215.204 105.933 215.236 106.266 215.247C106.544 215.253 106.828 215.242 107.106 215.242C108.093 215.258 109.074 215.247 110.055 215.226C110.442 215.22 110.83 215.231 111.217 215.22C111.386 215.215 111.555 215.193 111.729 215.187C113.289 215.122 114.843 215.029 116.38 214.877C116.446 214.871 116.506 214.871 116.571 214.866L116.593 214.86C118.447 214.675 120.273 214.407 122.083 214.097C122.307 214.058 122.536 214.042 122.759 214.004C123.059 213.949 123.348 213.873 123.648 213.813C124.531 213.644 125.404 213.453 126.271 213.257C126.838 213.126 127.405 212.995 127.966 212.853C128.86 212.624 129.733 212.368 130.605 212.106C130.981 211.991 131.374 211.904 131.745 211.784C131.843 211.752 131.936 211.708 132.034 211.675C133.789 211.102 135.48 210.454 137.121 209.75C137.47 209.597 137.808 209.439 138.157 209.281C139.82 208.523 141.434 207.716 142.944 206.816L231.452 154.149C231.533 154.1 231.621 154.051 231.702 153.996C232.144 153.729 232.52 153.445 232.935 153.173C233.573 152.758 234.232 152.344 234.821 151.913C235.263 151.586 235.644 151.247 236.059 150.915C236.588 150.489 237.138 150.064 237.618 149.628C237.673 149.579 237.738 149.53 237.793 149.48C237.951 149.339 238.054 149.181 238.207 149.039C239.014 148.264 239.745 147.479 240.41 146.672C240.53 146.525 240.693 146.388 240.808 146.246C240.95 146.066 241.042 145.876 241.179 145.696C241.587 145.145 241.958 144.588 242.302 144.027C242.438 143.809 242.618 143.596 242.743 143.372C242.825 143.23 242.869 143.089 242.945 142.947C243.212 142.445 243.436 141.938 243.654 141.431C243.768 141.158 243.932 140.896 244.03 140.624C244.074 140.509 244.09 140.389 244.128 140.275C244.297 139.789 244.423 139.298 244.548 138.807C244.624 138.502 244.75 138.208 244.81 137.902C244.831 137.809 244.826 137.711 244.842 137.619C244.941 137.09 244.979 136.566 245.022 136.037C245.05 135.732 245.115 135.426 245.126 135.121C245.131 134.979 245.132 134.837 245.132 134.695L245.328 65.8525C245.328 66.3052 245.257 66.7525 245.219 67.1997Z" fill="#00A224"/>
<path d="M231.113 45.9081C249.553 56.5538 250.393 74.1476 231.653 85.306L143.145 137.973C126.423 147.948 99.565 149.251 80.0784 141.071L20.2936 115.967C18.1944 115.089 16.2533 114.124 14.4704 113.093C-0.327271 104.547 -4.21474 91.2451 5.68669 80.2504L64.3265 15.0453C77.9683 -0.121625 111.669 -4.6973 135.638 5.36489L225.236 43.0067C227.357 43.9011 229.319 44.8719 231.113 45.9081Z" fill="#68D880"/>
<path d="M231.648 85.306L143.14 137.973C126.418 147.948 99.5595 149.251 80.0729 141.071L20.2881 115.967C18.189 115.089 16.248 114.124 14.4651 113.093C7.29524 108.954 2.71524 103.691 0.992306 98.1224C-1.78293 107.083 3.11876 116.425 14.4651 122.975C16.248 124.006 18.1944 124.966 20.2881 125.849L80.0729 150.953C99.5595 159.134 126.418 157.83 143.14 147.855L231.648 95.1883C242.999 88.4366 247.121 79.3233 244.548 70.8154C242.907 76.0783 238.643 81.1394 231.648 85.306Z" fill="white"/>
<path d="M112.667 128.167C105.241 128.167 97.7601 126.831 91.2773 124.11L48.6565 106.216C47.0481 105.54 45.5596 104.803 44.1965 104.018C37.7519 100.293 33.7225 95.2157 32.8501 89.7128C32.1086 85.0499 33.6407 80.4524 37.272 76.4166L79.0805 29.9342C89.5925 18.2359 114.799 14.6909 133.004 22.3426L196.889 49.175C198.514 49.8622 200.013 50.604 201.382 51.3893L201.387 51.3947C208.764 55.6541 212.848 61.506 212.881 67.8597C212.924 74.1097 208.988 79.9124 201.801 84.1882L138.702 121.743C131.559 125.98 122.154 128.167 112.667 128.167ZM111.604 23.7333C100.056 23.7333 88.8129 27.24 83.1261 33.5664L41.3176 80.0542C38.8205 82.8302 37.7573 85.868 38.2262 88.8512C38.8369 92.6961 41.9284 96.4046 46.9227 99.2897C48.1004 99.9714 49.3871 100.599 50.7665 101.182L93.382 119.076C106.462 124.568 124.733 123.695 135.899 117.042L198.999 79.487C204.457 76.2366 207.445 72.119 207.417 67.8815C207.39 63.5403 204.277 59.3573 198.656 56.1068C197.467 55.4251 196.164 54.7815 194.763 54.1871L130.883 27.3546C125.022 24.9004 118.261 23.7333 111.604 23.7333Z" fill="#00A123"/>
<path d="M136.607 177.934L129.907 182.027V173.836L136.607 169.743V177.934Z" fill="white"/>
<path d="M152.241 169.001L145.541 173.094V164.902L152.241 160.81V169.001Z" fill="white"/>
<path d="M166.759 161.183L160.059 165.276V157.085L166.759 152.992V161.183Z" fill="white"/>
<path d="M180.159 153.366L173.459 157.459V149.268L180.159 145.175V153.366Z" fill="white"/>
<path d="M193.56 145.549L186.859 149.641V141.45L193.56 137.357V145.549Z" fill="white"/>
<path d="M205.843 138.848L199.143 142.941V134.75L205.843 130.657V138.848Z" fill="white"/>
</svg>
