<svg width="1082" height="347" viewBox="0 0 1082 347" fill="none" xmlns="http://www.w3.org/2000/svg">
<path d="M1081.52 248.655C1081.52 248.095 1080.5 248.42 1080.5 249.5C1080.27 249.265 1078.93 249.728 1078.5 250C1077.95 250.335 1078.35 251.217 1077.6 251.548C1077 251.813 1076.23 252.073 1075.48 252.338C1074.52 252.684 1073.54 253.03 1072.36 253.369C1071.49 253.619 1070.51 253.861 1069.52 254.106C1068 254.49 1066.37 254.87 1064.57 255.246C1063.48 255.469 1062.35 255.693 1061.18 255.912C1058.27 256.46 1055.02 256.999 1051.46 257.528C1050.57 257.662 1049.8 257.8 1048.86 257.93C1046.72 258.232 1044.29 258.522 1041.96 258.813C1040.16 259.04 1038.47 259.271 1036.53 259.491C1033.93 259.788 1031 260.071 1028.16 260.354C1025.97 260.574 1023.97 260.801 1021.64 261.017L635.5 290.235C628.839 290.85 617.834 291.218 610.5 291.735C608.985 291.843 606.563 292.131 605 292.235C597.762 292.719 592.243 292.844 584.5 293.235C582.432 293.34 579.592 293.139 577.5 293.235C573.652 293.414 568.944 294.079 565 294.235C562.523 294.332 560.001 294.146 557.5 294.235C553.676 294.373 551.896 294.62 548 294.735C545.691 294.802 542.833 294.676 540.5 294.735C532.54 294.948 526.652 295.109 518.5 295.235C518.139 295.243 516 295.235 510.5 295.235C503.743 295.336 499.829 295.191 493 295.235C490.547 295.25 487.953 295.228 485.5 295.235C481.171 295.25 478.828 295.243 474.5 295.235C471.783 295.228 469.217 295.25 466.5 295.235C462.58 295.213 460.396 295.276 456.5 295.235C453.735 295.206 448.741 295.276 446 295.235C442.056 295.18 437.896 295.314 434 295.235C431.379 295.183 428.121 295.295 425.5 295.235C420.907 295.127 419.045 294.869 414.5 294.735C412.504 294.676 407.472 294.299 405.5 294.235C398.598 294.012 393.685 294.026 387 293.735C385.822 293.683 383.178 293.787 382 293.735C375.002 293.415 369.685 293.126 363 292.735C360.235 292.572 356.193 292.41 353.5 292.235L89.4999 279.5C80.2418 278.901 71.8633 278.704 63.9999 278C23.0236 274.336 0.770004 271.383 0.866192 266.357L0.000237816 313.359C-0.0959506 318.389 28.9999 323 62.8832 326.99C70.1083 327.841 89.4999 329.5 102.5 331L155 334.5L219.5 339L283.5 339.5L352.243 343.092C353.926 343.204 355.633 343.308 357.364 343.416C358.374 343.479 359.481 343.52 360.515 343.58C367.2 343.975 374.053 344.336 381.051 344.656C381.869 344.693 382.614 344.745 383.456 344.783C383.793 344.797 384.177 344.809 384.513 344.824C391.222 345.118 398.028 345.375 404.954 345.598C405.29 345.609 405.627 345.624 405.988 345.635C407.623 345.687 409.306 345.721 410.941 345.769C415.486 345.903 420.031 346.03 424.648 346.138C425.442 346.157 426.235 346.183 427.029 346.201C428.832 346.242 430.66 346.261 432.464 346.294C436.383 346.373 440.327 346.443 444.271 346.499C445.425 346.518 446.58 346.544 447.734 346.559C449.297 346.577 450.908 346.581 452.471 346.6C456.391 346.641 460.334 346.674 464.278 346.696C465.745 346.704 467.211 346.726 468.678 346.734C469.905 346.737 471.156 346.73 472.382 346.73C476.735 346.741 481.063 346.734 485.391 346.719C487.098 346.715 488.806 346.723 490.513 346.715C491.259 346.711 492.004 346.696 492.774 346.693C499.651 346.648 506.505 346.585 513.286 346.481C513.574 346.477 513.839 346.477 514.128 346.473L514.224 346.469C522.4 346.343 530.455 346.16 538.439 345.948C539.425 345.922 540.435 345.911 541.421 345.885C542.744 345.848 544.018 345.795 545.341 345.754C549.237 345.639 553.084 345.509 556.907 345.375C559.408 345.285 561.909 345.196 564.386 345.099C568.33 344.943 572.177 344.768 576.025 344.589C577.684 344.511 579.415 344.451 581.05 344.369C581.483 344.347 581.892 344.317 582.325 344.295C590.068 343.904 597.523 343.461 604.761 342.98C606.3 342.876 607.791 342.768 609.33 342.66C616.664 342.143 623.783 341.592 630.444 340.977L726.722 335.989L823 331L1020.8 308.019C1021.16 307.986 1021.55 307.952 1021.91 307.915C1023.85 307.732 1025.51 307.539 1027.34 307.353C1030.15 307.07 1033.06 306.787 1035.66 306.492C1037.61 306.269 1039.29 306.038 1041.12 305.811C1043.45 305.521 1045.88 305.23 1048 304.932C1048.24 304.899 1048.53 304.865 1048.77 304.832C1049.46 304.735 1049.92 304.627 1050.59 304.53C1054.15 304.001 1057.38 303.465 1060.31 302.914C1060.84 302.814 1061.56 302.721 1062.07 302.624C1062.69 302.501 1063.1 302.371 1063.7 302.248C1065.5 301.872 1067.14 301.492 1068.65 301.108C1069.26 300.959 1070.05 300.814 1070.6 300.661C1070.96 300.565 1071.16 300.468 1071.49 300.371C1072.67 300.028 1073.66 299.682 1074.62 299.336C1075.12 299.15 1075.84 298.971 1076.28 298.785C1076.47 298.707 1076.54 298.625 1076.71 298.547C1077.45 298.215 1078.01 297.88 1078.56 297.545C1078.9 297.336 1079.24 297.209 1079.5 297C1079.6 296.937 1079.79 296.796 1079.86 296.733C1080.34 296.31 1080.5 296.5 1081 296C1081.12 295.791 1081.06 295.236 1081.11 295.028C1081.13 294.931 1081.13 294.834 1081.13 294.737L1082 247.735C1082 248.044 1081.69 248.35 1081.52 248.655Z" fill="#F96746"/>
<path d="M1019.3 237.314C1100.62 242.952 1104.33 252.27 1021.68 258.18L631.325 286.073C557.574 291.356 439.119 292.046 353.175 287.713L89.5015 274.418C80.2435 273.953 71.6822 273.442 63.8189 272.896C-1.44433 268.37 -18.5896 261.325 25.0796 255.502L283.704 220.968C343.869 212.936 492.503 210.512 598.213 215.841L993.375 235.777C1002.73 236.251 1011.39 236.765 1019.3 237.314Z" fill="#FFAE9C"/>
<path d="M1021.66 258.179L631.302 286.073C557.55 291.356 439.095 292.046 353.152 287.713L89.4778 274.418C80.2198 273.953 71.6593 273.442 63.7959 272.896C32.1743 270.703 11.9747 267.916 4.37587 264.967C-8.50094 270.5 13.7544 274.661 63.7959 278.13C71.6593 278.675 80.2438 279.184 89.4778 279.652L353.152 292.947C439.095 297.28 557.55 296.589 631.302 291.306L1021.66 263.413C1071.72 259.837 1089.9 255.011 1078.55 250.505C1071.31 253.292 1052.51 255.973 1021.66 258.179Z" fill="white"/>
<path d="M496.904 280.879C464.153 280.879 431.16 280.172 402.568 278.73L214.594 269.254C207.5 268.895 200.936 268.505 194.924 268.09C166.501 266.117 148.729 263.428 144.882 260.513C141.612 258.044 148.369 255.609 164.384 253.471L348.776 228.853C395.138 222.658 506.307 220.78 586.6 224.833L868.356 239.044C875.522 239.408 882.135 239.801 888.171 240.216L888.195 240.219C920.731 242.475 938.742 245.574 938.886 248.939C939.079 252.25 921.716 255.323 890.023 257.587L611.728 277.477C580.227 279.721 538.746 280.879 496.904 280.879ZM492.215 225.569C441.284 225.569 391.699 227.427 366.618 230.777L182.227 255.398C171.213 256.868 166.525 258.477 168.593 260.057C171.286 262.093 184.921 264.057 206.948 265.585C212.142 265.946 217.816 266.279 223.9 266.588L411.851 276.064C469.539 278.973 550.121 278.511 599.369 274.987L877.663 255.097C901.734 253.376 914.911 251.195 914.791 248.951C914.671 246.652 900.94 244.436 876.148 242.715C870.905 242.354 865.158 242.013 858.978 241.698L577.245 227.487C551.395 226.187 521.576 225.569 492.215 225.569Z" fill="#F96746"/>
<path d="M635.551 314.587L606 316.755V312.417L635.551 310.249V314.587Z" fill="white"/>
<path d="M704.501 309.856L674.951 312.023V307.685L704.501 305.518V309.856Z" fill="white"/>
<path d="M768.527 305.716L738.977 307.884V303.546L768.527 301.378V305.716Z" fill="white"/>
<path d="M827.631 301.576L798.08 303.743V299.405L827.631 297.237V301.576Z" fill="white"/>
<path d="M886.731 297.436L857.181 299.603V295.265L886.731 293.098V297.436Z" fill="white"/>
<path d="M940.907 293.887L911.356 296.055V291.716L940.907 289.549V293.887Z" fill="white"/>
<path d="M995.085 290.338L965.535 292.506V288.168L995.085 286V290.338Z" fill="white"/>
<path d="M147.952 263C139.876 260.687 142.119 258.077 147.952 255.915V0H934.952V251.5C933.752 251.9 911.452 255.333 900.452 257C896.852 257.8 850.285 260.667 827.452 262C826.252 262.4 769.618 266.5 741.452 268.5C738.252 268.1 688.452 272 663.952 274C657.452 275 590.952 278 589.452 279C588.251 279.8 528.618 281 498.952 281.5C496.552 281.9 445.952 280.667 420.952 280L348.452 276.5L271.452 273C269.452 271.8 233.618 270.5 215.952 270C191.552 269.6 160.452 265.167 147.952 263Z" fill="url(#paint0_linear_1447_714)"/>
<defs>
<linearGradient id="paint0_linear_1447_714" x1="537.975" y1="0" x2="537.975" y2="281.578" gradientUnits="userSpaceOnUse">
<stop stop-color="#FFAE9C" stop-opacity="0"/>
<stop offset="1" stop-color="#F96746" stop-opacity="0.45"/>
</linearGradient>
</defs>
</svg>
