<svg width="1545" height="469" viewBox="0 0 1545 469" fill="none" xmlns="http://www.w3.org/2000/svg">
<mask id="path-1-outside-1_1224_1048" maskUnits="userSpaceOnUse" x="0" y="0" width="1545" height="469" fill="black">
<rect fill="white" width="1545" height="469"/>
<path fill-rule="evenodd" clip-rule="evenodd" d="M473 13C473 6.92487 468.075 2 462 2H13C6.92487 2 2 6.92486 2 13V456C2 462.075 6.92491 467 13 467H1532C1538.08 467 1543 462.075 1543 456V13C1543 6.92487 1538.08 2 1532 2H1082C1075.92 2 1071 6.92487 1071 13V15C1071 21.0751 1066.08 26 1060 26H484C477.925 26 473 21.0751 473 15V13Z"/>
</mask>
<path d="M13 4H462V0H13V4ZM4 456V13H0V456H4ZM1532 465H13V469H1532V465ZM1541 13V456H1545V13H1541ZM1082 4H1532V0H1082V4ZM1069 13V15H1073V13H1069ZM1060 24H484V28H1060V24ZM475 15V13H471V15H475ZM484 24C479.029 24 475 19.9706 475 15H471C471 22.1797 476.82 28 484 28V24ZM1069 15C1069 19.9706 1064.97 24 1060 24V28C1067.18 28 1073 22.1797 1073 15H1069ZM1082 0C1074.82 0 1069 5.8203 1069 13H1073C1073 8.02944 1077.03 4 1082 4V0ZM1545 13C1545 5.8203 1539.18 0 1532 0V4C1536.97 4 1541 8.02943 1541 13H1545ZM1532 469C1539.18 469 1545 463.18 1545 456H1541C1541 460.971 1536.97 465 1532 465V469ZM0 456C0 463.18 5.82036 469 13 469V465C8.02947 465 4 460.971 4 456H0ZM462 4C466.971 4 471 8.02944 471 13H475C475 5.8203 469.18 0 462 0V4ZM13 0C5.8203 0 0 5.82029 0 13H4C4 8.02943 8.02943 4 13 4V0Z" fill="url(#paint0_linear_1224_1048)" mask="url(#path-1-outside-1_1224_1048)"/>
<defs>
<linearGradient id="paint0_linear_1224_1048" x1="1679.44" y1="-8.89843" x2="1418.62" y2="881.449" gradientUnits="userSpaceOnUse">
<stop stop-color="white"/>
<stop offset="1" stop-color="#ECECEC"/>
</linearGradient>
</defs>
</svg>
