<svg width="882" height="507" viewBox="0 0 882 507" fill="none" xmlns="http://www.w3.org/2000/svg">
<path fill-rule="evenodd" clip-rule="evenodd" d="M42 0H306.058C321.11 0 333.401 14.7113 346.638 21.8786C350.314 23.8695 354.525 25 359 25H799C807.762 25 815.511 20.666 820.222 14.0249C825.073 7.18558 831.615 0 840 0C863.196 0 882 18.804 882 42V465C882 488.196 863.196 507 840 507H100C84.536 507 72 494.464 72 479V477C72 451.595 51.4051 431 26 431C14.2901 431 0 423.124 0 411.414V42C0 18.8041 18.804 0 42 0Z" fill="#F52CE1"/>
</svg>
