<svg width="507" height="507" viewBox="0 0 507 507" fill="none" xmlns="http://www.w3.org/2000/svg">
<path fill-rule="evenodd" clip-rule="evenodd" d="M-1.83588e-06 465C-8.21951e-07 488.196 18.8041 507 42 507L465 507C488.196 507 507 488.196 507 465L507 42.0001C507 18.8042 488.196 0.000131248 465 0.000132262C454.507 4.1168e-05 446.39 9.40989 439.799 17.5749C434.666 23.9332 426.808 28 418 28L282 28C276.426 28 271.232 26.3712 266.869 23.5636C253.865 15.1957 241.464 -1.05547e-05 226 2.06388e-05L42 0.000150752C18.804 0.000151766 -2.13397e-05 18.8042 -2.03258e-05 42.0002L-1.83588e-06 465Z" fill="#0713F7"/>
</svg>
