<svg width="882" height="507" viewBox="0 0 882 507" fill="none" xmlns="http://www.w3.org/2000/svg">
<mask id="path-1-inside-1_629_17" fill="white">
<path fill-rule="evenodd" clip-rule="evenodd" d="M42 0H306.058C321.11 0 333.401 14.7113 346.638 21.8786C350.314 23.8695 354.525 25 359 25H799C807.762 25 815.511 20.666 820.222 14.0249C825.073 7.18558 831.615 0 840 0C863.196 0 882 18.804 882 42V465C882 488.196 863.196 507 840 507H100C84.536 507 72 494.464 72 479V477C72 451.595 51.4051 431 26 431C14.2901 431 0 423.124 0 411.414V42C0 18.8041 18.804 0 42 0Z"/>
</mask>
<path d="M820.222 14.0249L821.853 15.1819L820.222 14.0249ZM306.058 -2H42V2H306.058V-2ZM359 23C354.866 23 350.982 21.9564 347.59 20.1199L345.685 23.6373C349.647 25.7827 354.184 27 359 27V23ZM799 23H359V27H799V23ZM818.59 12.8678C814.239 19.0029 807.086 23 799 23V27C808.437 27 816.784 22.3291 821.853 15.1819L818.59 12.8678ZM884 42C884 17.6995 864.301 -2 840 -2V2C862.091 2 880 19.9086 880 42H884ZM884 465V42H880V465H884ZM840 509C864.301 509 884 489.301 884 465H880C880 487.091 862.091 505 840 505V509ZM100 509H840V505H100V509ZM70 477V479H74V477H70ZM26 433C50.3005 433 70 452.699 70 477H74C74 450.49 52.5097 429 26 429V433ZM-2 42V411.414H2V42H-2ZM42 -2C17.6995 -2 -2 17.6995 -2 42H2C2 19.9086 19.9086 2 42 2V-2ZM26 429C20.5472 429 14.4397 427.152 9.73523 423.946C5.02574 420.736 2 416.38 2 411.414H-2C-2 418.158 2.11932 423.595 7.48235 427.251C12.8504 430.91 19.7429 433 26 433V429ZM100 505C85.6406 505 74 493.359 74 479H70C70 495.569 83.4315 509 100 509V505ZM821.853 15.1819C824.238 11.8191 826.962 8.48614 830.041 6.00498C833.11 3.53178 836.411 2 840 2V-2C835.204 -2 831.042 0.061012 827.531 2.89041C824.029 5.71186 821.056 9.39134 818.59 12.8678L821.853 15.1819ZM306.058 2C312.938 2 319.342 5.36429 325.891 9.89613C329.166 12.1631 332.341 14.6201 335.645 17.0481C338.91 19.4469 342.251 21.7774 345.685 23.6373L347.59 20.1199C344.406 18.3961 341.247 16.2 338.014 13.8246C334.821 11.4784 331.5 8.91378 328.167 6.60698C321.497 1.99135 314.23 -2 306.058 -2V2Z" fill="#F52CE1" mask="url(#path-1-inside-1_629_17)"/>
</svg>
