<svg width="375" height="375" viewBox="0 0 375 375" fill="none" xmlns="http://www.w3.org/2000/svg">
<mask id="mask0_3823_26481" style="mask-type:luminance" maskUnits="userSpaceOnUse" x="326" y="0" width="37" height="19">
<path d="M356.601 12.5682L362.539 18.5113C354.848 10.7171 344.14 5.9431 332.263 5.9431L326.324 0C338.104 0 348.813 4.77397 356.601 12.5682Z" fill="white"/>
</mask>
<g mask="url(#mask0_3823_26481)">
<path d="M332.263 5.9431L326.324 0C327.882 0 329.439 0.0974279 330.997 0.292284L336.936 6.23539C335.378 6.04053 333.82 5.9431 332.263 5.9431Z" fill="#948428"/>
<path d="M336.937 6.23607L330.998 0.292969C333.334 0.585252 335.671 0.974964 337.91 1.65696L343.849 7.60006C341.609 6.91807 339.273 6.43093 336.937 6.23607Z" fill="#998829"/>
<path d="M343.847 7.5017L337.908 1.55859C340.829 2.33802 343.555 3.50715 346.183 4.87114L352.122 10.8142C349.493 9.45025 346.767 8.37855 343.847 7.5017Z" fill="#9E8D2B"/>
<path d="M352.122 10.8142L346.184 4.87109C350.078 6.91708 353.582 9.4502 356.6 12.5679L362.539 18.511C359.423 15.3933 355.919 12.8602 352.122 10.8142Z" fill="#A3912C"/>
</g>
<mask id="mask1_3823_26481" style="mask-type:luminance" maskUnits="userSpaceOnUse" x="0" y="292" width="20" height="71">
<path d="M18.4969 362.433L12.5584 356.49C4.77025 348.696 0 337.979 0 326.19C0 321.221 1.84969 316.837 4.18614 312.745C5.35436 310.699 6.61994 308.75 7.88551 306.802C9.15109 304.853 10.3193 303.002 11.3902 301.151C12.8505 298.52 13.7266 295.403 13.7266 292.188L19.6651 298.131C19.6651 301.443 18.7889 304.463 17.3287 307.094C16.2578 308.945 15.0896 310.796 13.824 312.745C12.5584 314.693 11.2928 316.642 10.1246 318.688C7.78816 322.78 5.93847 327.164 5.93847 332.133C5.93847 343.922 10.7087 354.639 18.4969 362.433Z" fill="white"/>
</mask>
<g mask="url(#mask1_3823_26481)">
<path d="M18.4969 362.433L12.5584 356.49C4.77025 348.696 0 337.979 0 326.19C0 321.221 1.84969 316.837 4.18614 312.745C5.35436 310.699 6.61994 308.75 7.88551 306.802C9.15109 304.853 10.3193 303.002 11.3902 301.151C12.8505 298.52 13.7266 295.403 13.7266 292.188L19.6651 298.131C19.6651 301.443 18.7889 304.463 17.3287 307.094C16.2578 308.945 15.0896 310.796 13.824 312.745C12.5584 314.693 11.2928 316.642 10.1246 318.688C7.78816 322.78 5.93847 327.164 5.93847 332.133C5.93847 343.922 10.7087 354.639 18.4969 362.433Z" fill="#857624"/>
</g>
<path d="M19.5674 298.031L13.6289 292.088L13.8236 119.738L19.7621 125.681L19.5674 298.031Z" fill="#807223"/>
<mask id="mask2_3823_26481" style="mask-type:luminance" maskUnits="userSpaceOnUse" x="0" y="81" width="20" height="45">
<path d="M19.7631 125.681L13.8246 119.738C13.8246 117.887 13.5325 116.133 13.0458 114.477C11.4881 109.118 8.47023 104.149 5.54967 98.5958C2.72646 93.2373 0.195312 87.3916 0.195312 81.1562L6.13379 87.0994C6.13379 93.3347 8.66494 99.1804 11.4881 104.539C14.3114 110.092 17.4266 115.061 18.9843 120.42C19.5684 122.076 19.8604 123.927 19.7631 125.681Z" fill="white"/>
</mask>
<g mask="url(#mask2_3823_26481)">
<path d="M19.7631 125.681L13.8246 119.738C13.8246 117.887 13.5325 116.133 13.0458 114.477C11.4881 109.118 8.47023 104.149 5.54967 98.5958C2.72646 93.2373 0.195312 87.3916 0.195312 81.1562L6.13379 87.0994C6.13379 93.3347 8.66494 99.1804 11.4881 104.539C14.3114 110.092 17.4266 115.061 18.9843 120.42C19.5684 122.076 19.8604 123.927 19.7631 125.681Z" fill="#857624"/>
</g>
<path d="M49.1631 5.9431L43.2246 0H326.324L332.263 5.9431H49.1631Z" fill="#928227"/>
<path d="M6.23144 87.1969L0.292969 81.1564L0.390321 42.8672L6.32879 48.8103L6.23144 87.1969Z" fill="#807223"/>
<mask id="mask3_3823_26481" style="mask-type:luminance" maskUnits="userSpaceOnUse" x="0" y="0" width="50" height="49">
<path d="M6.32715 48.8114L0.388672 42.8683C0.388672 19.1933 19.567 0 43.2236 0L49.162 5.9431C25.5055 5.9431 6.32715 25.1364 6.32715 48.8114Z" fill="white"/>
</mask>
<g mask="url(#mask3_3823_26481)">
<path d="M6.32715 48.8109L0.388672 42.8678C0.388672 24.941 11.4868 9.54743 27.1605 3.11719L33.0989 9.06029C17.3279 15.4905 6.32715 30.7867 6.32715 48.8109Z" fill="#857624"/>
<path d="M33.001 9.05894L27.0625 3.11584C29.4963 2.14156 31.9301 1.36214 34.5586 0.875L40.4971 6.8181C37.9659 7.30524 35.4348 8.08467 33.001 9.05894Z" fill="#8A7B25"/>
<path d="M40.4971 6.81995L34.5586 0.876851C36.7003 0.389712 38.9394 0.0974279 41.2759 0L47.2144 5.9431C44.8779 6.13796 42.6388 6.33281 40.4971 6.81995Z" fill="#8F7F27"/>
<path d="M47.2158 6.04053L41.2773 0C41.9588 0 42.5429 0 43.2244 0L49.1629 5.9431C48.4814 5.9431 47.8973 5.9431 47.2158 6.04053Z" fill="#948428"/>
</g>
<path d="M332.262 5.94141C355.918 5.94141 375.097 25.1347 374.999 48.8097L374.61 332.13C374.61 355.805 355.432 374.998 331.775 374.998H48.6754C25.0189 374.998 5.84052 355.805 5.93787 332.13C5.93787 327.161 7.78756 322.777 10.124 318.685C11.2922 316.639 12.5578 314.69 13.8234 312.742C15.089 310.793 16.2572 308.942 17.3281 307.091C18.7883 304.461 19.6645 301.343 19.6645 298.128L19.7619 125.68C19.7619 123.829 19.4698 122.075 18.983 120.419C17.4254 115.061 14.4075 110.092 11.4869 104.538C8.76108 99.1799 6.22993 93.4317 6.22993 87.1963V48.8097C6.22993 25.1347 25.4083 5.94141 49.0648 5.94141H332.262Z" fill="#FFE345"/>
</svg>
