<svg width="460" height="385" viewBox="0 0 460 385" fill="none" xmlns="http://www.w3.org/2000/svg">
<g clip-path="url(#clip0_3823_26373)">
<mask id="mask0_3823_26373" style="mask-type:luminance" maskUnits="userSpaceOnUse" x="426" y="171" width="30" height="24">
<path d="M452.9 188.498L456 194.598C451.1 184.798 440.9 177.998 429.2 177.998L426.1 171.898C437.8 171.898 448 178.598 452.9 188.498Z" fill="white"/>
</mask>
<g mask="url(#mask0_3823_26373)">
<path d="M429.1 177.998L426 171.898C427.1 171.898 428.1 171.998 429.2 172.098L432.3 178.198C431.2 178.098 430.2 177.998 429.1 177.998Z" fill="#921717"/>
<path d="M432.299 178.198L429.199 172.098C430.699 172.298 432.299 172.498 433.699 172.898L436.799 178.998C435.299 178.598 433.799 178.298 432.299 178.198Z" fill="#971718"/>
<path d="M436.799 178.998L433.699 172.898C435.499 173.398 437.199 173.998 438.899 174.798L441.999 180.898C440.299 180.098 438.599 179.498 436.799 178.998Z" fill="#9C1819"/>
<path d="M442 180.897L438.9 174.797C444.9 177.697 449.8 182.497 452.8 188.497L455.9 194.597C452.9 188.597 448 183.797 442 180.897Z" fill="#A1191A"/>
</g>
<path d="M421.801 177.998L418.801 171.898H426.001L429.101 177.998H421.801Z" fill="#8F1617"/>
<mask id="mask1_3823_26373" style="mask-type:luminance" maskUnits="userSpaceOnUse" x="0" y="334" width="8" height="27">
<path d="M7.7 360.501L4.6 354.401C1.6 348.501 0 341.801 0 334.801L3.1 340.901C3 348.001 4.7 354.601 7.7 360.501Z" fill="white"/>
</mask>
<g mask="url(#mask1_3823_26373)">
<path d="M7.7 360.501L4.6 354.401C1.6 348.501 0 341.801 0 334.801L3.1 340.901C3 348.001 4.7 354.601 7.7 360.501Z" fill="#831415"/>
</g>
<mask id="mask2_3823_26373" style="mask-type:luminance" maskUnits="userSpaceOnUse" x="356" y="133" width="66" height="45">
<path d="M359.2 139.299L356.1 133.199C367.6 156.099 391.3 171.899 418.7 171.899L421.8 177.999C394.4 177.999 370.7 162.199 359.2 139.299Z" fill="white"/>
</mask>
<g mask="url(#mask2_3823_26373)">
<path d="M359.2 139.299L356.1 133.199C363.1 147.099 374.5 158.399 388.6 165.099L391.7 171.199C377.6 164.499 366.2 153.199 359.2 139.299Z" fill="#A1191A"/>
<path d="M391.7 171.198L388.6 165.098C392.5 166.898 396.5 168.398 400.7 169.598L403.8 175.698C399.6 174.598 395.6 173.098 391.7 171.198Z" fill="#9C1819"/>
<path d="M403.899 175.698L400.799 169.598C404.199 170.498 407.799 171.198 411.399 171.498L414.499 177.598C410.799 177.198 407.299 176.598 403.899 175.698Z" fill="#971718"/>
<path d="M414.5 177.6L411.4 171.5C413.8 171.8 416.3 171.9 418.8 171.9L421.9 178C419.3 178 416.9 177.9 414.5 177.6Z" fill="#921717"/>
</g>
<mask id="mask3_3823_26373" style="mask-type:luminance" maskUnits="userSpaceOnUse" x="309" y="0" width="35" height="32">
<path d="M340.701 25.2L343.801 31.3C343.001 29.7 342.101 28.1 341.201 26.5C334.501 15.2 324.701 6 313.001 6L309.801 0C321.601 0 331.401 9.2 338.001 20.5C339.001 22 339.801 23.6 340.701 25.2Z" fill="white"/>
</mask>
<g mask="url(#mask3_3823_26373)">
<path d="M312.901 6.1L309.801 0C310.601 0 311.401 0 312.101 0.1L315.201 6.2C314.401 6.1 313.701 6.1 312.901 6.1Z" fill="#921717"/>
<path d="M315.202 6.20156L312.102 0.101562C313.302 0.201563 314.502 0.401562 315.602 0.701562L318.702 6.80156C317.602 6.60156 316.402 6.40156 315.202 6.20156Z" fill="#971718"/>
<path d="M318.702 6.90078L315.602 0.800781C317.102 1.20078 318.602 1.70078 320.002 2.40078L323.102 8.50078C321.702 7.80078 320.202 7.30078 318.702 6.90078Z" fill="#9C1819"/>
<path d="M323.1 8.49844L320 2.39844C327.2 5.79844 333.4 12.6984 338 20.4984C338.9 21.9984 339.8 23.5984 340.6 25.2984L343.7 31.3984C342.9 29.7984 342 28.1984 341.1 26.5984C336.5 18.7984 330.4 11.8984 323.1 8.49844Z" fill="#A1191A"/>
</g>
<path d="M3.1 340.9L0 334.8L0.2 44L3.2 50.1L3.1 340.9Z" fill="#7E1414"/>
<path d="M47.2992 6.1L44.1992 0H309.799L312.899 6.1H47.2992Z" fill="#8F1617"/>
<path d="M312.9 6.10156C324.7 6.10156 334.5 15.3016 341.1 26.6016C347.9 38.0016 351.9 52.0016 351.9 63.1016V108.102C351.9 146.702 383.2 178.102 421.8 178.102H429.1C445.7 178.102 459.1 191.502 459.1 208.102L459 340.902C459 365.202 439.3 384.902 415 384.902H47C22.7 384.902 3 365.202 3 340.902L3.2 50.1016C3.2 25.8016 22.9 6.10156 47.2 6.10156H312.9Z" fill="#D92223"/>
<mask id="mask4_3823_26373" style="mask-type:luminance" maskUnits="userSpaceOnUse" x="0" y="0" width="48" height="51">
<path d="M3.19922 50.1L0.199219 44C0.199219 19.7 19.8992 0 44.1992 0L47.2992 6.1C22.9992 6.1 3.19922 25.8 3.19922 50.1Z" fill="white"/>
</mask>
<g mask="url(#mask4_3823_26373)">
<path d="M3.19922 50.1L0.199219 44C0.199219 25.4 11.7992 9.4 28.0992 3L31.1992 9.1C14.7992 15.6 3.19922 31.5 3.19922 50.1Z" fill="#831415"/>
<path d="M31.1996 9.10078L28.0996 3.00078C30.4996 2.10078 32.9996 1.30078 35.5996 0.800781L38.6996 6.90078C36.0996 7.50078 33.5996 8.20078 31.1996 9.10078Z" fill="#881516"/>
<path d="M38.6996 6.9L35.5996 0.8C37.7996 0.4 39.9996 0.1 42.2996 0L45.3996 6.1C43.0996 6.2 40.7996 6.5 38.6996 6.9Z" fill="#8D1616"/>
<path d="M45.3988 6.1L42.2988 0C42.8988 0 43.5988 0 44.1988 0L47.2988 6.1C46.5988 6.1 45.9988 6.1 45.3988 6.1Z" fill="#921717"/>
</g>
</g>
<defs>
<clipPath id="clip0_3823_26373">
<rect width="459.1" height="384.9" fill="white"/>
</clipPath>
</defs>
</svg>
