<svg width="383" height="385" viewBox="0 0 383 385" fill="none" xmlns="http://www.w3.org/2000/svg">
<g clip-path="url(#clip0_3823_26427)">
<mask id="mask0_3823_26427" style="mask-type:luminance" maskUnits="userSpaceOnUse" x="0" y="334" width="8" height="27">
<path d="M7.7 360.501L4.6 354.401C1.6 348.501 0 341.801 0 334.801L3.1 340.901C3 348.001 4.7 354.601 7.7 360.501Z" fill="white"/>
</mask>
<g mask="url(#mask0_3823_26427)">
<path d="M7.7 360.501L4.6 354.401C1.6 348.501 0 341.801 0 334.801L3.1 340.901C3 348.001 4.7 354.601 7.7 360.501Z" fill="#00851D"/>
</g>
<mask id="mask1_3823_26427" style="mask-type:luminance" maskUnits="userSpaceOnUse" x="335" y="0" width="43" height="31">
<path d="M374.499 24.3L377.599 30.4C370.399 16 355.399 6.1 338.199 6.1L335.199 0C352.399 0 367.299 9.9 374.499 24.3Z" fill="white"/>
</mask>
<g mask="url(#mask1_3823_26427)">
<path d="M338.199 6.1L335.199 0C336.799 0 338.299 0.1 339.799 0.2L342.899 6.3C341.299 6.2 339.799 6.1 338.199 6.1Z" fill="#009420"/>
<path d="M342.799 6.29922L339.699 0.199219C341.999 0.399219 344.199 0.799219 346.299 1.39922L349.399 7.49922C347.299 6.99922 345.099 6.59922 342.799 6.29922Z" fill="#009922"/>
<path d="M349.498 7.6L346.398 1.5C349.098 2.2 351.598 3.1 353.998 4.3L357.098 10.4C354.698 9.2 352.098 8.3 349.498 7.6Z" fill="#009E23"/>
<path d="M357.1 10.4008L354 4.30078C362.8 8.50078 370.1 15.6008 374.4 24.4008L377.5 30.5008C373.2 21.7008 366 14.6008 357.1 10.4008Z" fill="#00A324"/>
</g>
<path d="M230.1 6.1L227 0H335.2L338.2 6.1H230.1Z" fill="#009220"/>
<mask id="mask2_3823_26427" style="mask-type:luminance" maskUnits="userSpaceOnUse" x="153" y="0" width="78" height="38">
<path d="M156.2 37.1L153.1 31C171.8 31 188.8 23.7 201.4 11.7C208.3 5.1 217.1 0 227 0L230.1 6.1C220.2 6.1 211.4 11.2 204.6 17.8C192 29.7 174.9 37.1 156.2 37.1Z" fill="white"/>
</mask>
<g mask="url(#mask2_3823_26427)">
<path d="M156.2 37.0984L153.1 30.9984C154.1 30.9984 155.1 30.9984 156.1 30.8984L159.2 36.9984C158.2 37.0984 157.2 37.0984 156.2 37.0984Z" fill="#009420"/>
<path d="M159.2 37.0016L156.1 30.9016C159.7 30.7016 163.2 30.3016 166.7 29.6016L169.8 35.7016C166.4 36.5016 162.8 36.9016 159.2 37.0016Z" fill="#008F1F"/>
<path d="M169.799 35.7992L166.699 29.6992C170.799 28.8992 174.799 27.6992 178.599 26.1992L181.699 32.2992C177.899 33.7992 173.899 34.9992 169.799 35.7992Z" fill="#008A1E"/>
<path d="M181.7 32.2992L178.6 26.1992C187.1 22.8992 194.9 17.8992 201.4 11.6992C205.5 7.79922 210.4 4.29922 215.8 2.19922L218.9 8.29922C213.5 10.3992 208.7 13.7992 204.5 17.7992C198 23.9992 190.3 28.9992 181.7 32.2992Z" fill="#00851D"/>
<path d="M218.899 8.30156L215.799 2.20156C217.599 1.50156 219.399 0.901563 221.299 0.601562L224.399 6.70156C222.499 7.00156 220.699 7.60156 218.899 8.30156Z" fill="#008A1E"/>
<path d="M224.399 6.70156L221.299 0.601562C222.799 0.301562 224.199 0.101562 225.699 0.101562L228.799 6.20156C227.399 6.20156 225.899 6.40156 224.399 6.70156Z" fill="#008F1F"/>
<path d="M228.899 6.1L225.799 0C226.199 0 226.599 0 226.999 0L230.099 6.1C229.699 6.1 229.299 6.1 228.899 6.1Z" fill="#009420"/>
</g>
<path d="M85.1992 37.1L82.1992 31H153.199L156.199 37.1H85.1992Z" fill="#009220"/>
<path d="M3.1 340.9L0 334.8L0.2 44L3.2 50.1L3.1 340.9Z" fill="#00801C"/>
<mask id="mask3_3823_26427" style="mask-type:luminance" maskUnits="userSpaceOnUse" x="0" y="11" width="86" height="40">
<path d="M3.19922 50.0984L0.199219 43.9984C0.199219 34.7984 2.99922 26.2984 7.79922 19.2984C11.3992 13.8984 16.6992 11.8984 22.2992 11.8984C23.0992 11.8984 23.8992 11.8984 24.7992 11.9984C31.1992 12.5984 37.8992 15.5984 43.4992 19.2984C54.5992 26.6984 67.8992 30.9984 82.1992 30.9984L85.2992 37.0984C70.9992 37.0984 57.6992 32.7984 46.5992 25.3984C40.9992 21.6984 34.2992 18.6984 27.8992 18.0984C26.9992 17.9984 26.1992 17.9984 25.3992 17.9984C19.7992 17.9984 14.4992 20.0984 10.8992 25.3984C5.99922 32.3984 3.19922 40.8984 3.19922 50.0984Z" fill="white"/>
</mask>
<g mask="url(#mask3_3823_26427)">
<path d="M3.19922 50.0977L0.199219 43.9977C0.199219 34.7977 2.99922 26.2977 7.79922 19.2977C9.89922 16.1977 12.4992 14.2977 15.3992 13.0977L18.4992 19.1977C15.5992 20.2977 12.9992 22.2977 10.8992 25.3977C5.99922 32.3977 3.19922 40.8977 3.19922 50.0977Z" fill="#00851D"/>
<path d="M18.4984 19.1953L15.3984 13.0953C16.3984 12.6953 17.3984 12.3953 18.3984 12.1953L21.4984 18.2953C20.3984 18.4953 19.3984 18.7953 18.4984 19.1953Z" fill="#008A1E"/>
<path d="M21.3988 18.2969L18.2988 12.1969C19.2988 11.9969 20.2988 11.8969 21.2988 11.7969L24.3988 17.8969C23.3988 17.9969 22.3988 18.0969 21.3988 18.2969Z" fill="#008F1F"/>
<path d="M24.3988 17.9984L21.2988 11.8984C21.5988 11.8984 21.8988 11.8984 22.1988 11.8984C22.9988 11.8984 23.7988 11.8984 24.6988 11.9984H24.7988L27.8988 18.0984H27.7988C26.9988 17.9984 26.1988 17.9984 25.3988 17.9984C25.0988 17.9984 24.7988 17.9984 24.3988 17.9984Z" fill="#009420"/>
<path d="M27.8984 18.0961L24.8984 11.9961C26.4984 12.1961 27.9984 12.4961 29.5984 12.8961L32.6984 18.9961C31.0984 18.5961 29.4984 18.2961 27.8984 18.0961Z" fill="#009922"/>
<path d="M32.6996 18.9984L29.5996 12.8984C32.0996 13.4984 34.4996 14.4984 36.8996 15.5984L39.9996 21.6984C37.5996 20.5984 35.0996 19.5984 32.6996 18.9984Z" fill="#009E23"/>
<path d="M39.9984 21.6977L36.8984 15.5977C39.1984 16.6977 41.3984 17.9977 43.4984 19.2977C46.2984 21.0977 49.1984 22.7977 52.1984 24.1977L55.2984 30.2977C52.2984 28.8977 49.3984 27.1977 46.5984 25.3977C44.4984 24.0977 42.2984 22.7977 39.9984 21.6977Z" fill="#00A324"/>
<path d="M55.2992 30.3969L52.1992 24.2969C55.9992 26.0969 60.0992 27.5969 64.2992 28.6969L67.3992 34.7969C63.0992 33.6969 59.0992 32.1969 55.2992 30.3969Z" fill="#009E23"/>
<path d="M67.2992 34.7953L64.1992 28.6953C67.5992 29.5953 71.1992 30.2953 74.7992 30.5953L77.8992 36.6953C74.2992 36.2953 70.6992 35.6953 67.2992 34.7953Z" fill="#009922"/>
<path d="M77.8988 36.6977L74.7988 30.5977C77.1988 30.8977 79.6988 30.9977 82.1988 30.9977L85.2988 37.0977C82.6988 37.0977 80.2988 36.9977 77.8988 36.6977Z" fill="#009420"/>
</g>
<path d="M338.2 6.10156C362.5 6.10156 382.2 25.8016 382.2 50.1016L382 340.902C382 365.202 362.3 384.902 338 384.902H47C22.7 384.902 3 365.202 3 340.902L3.2 50.1016C3.2 40.9016 6 32.4016 10.8 25.4016C14.5 20.0016 19.8 18.0016 25.4 18.0016C26.2 18.0016 27 18.0016 27.9 18.1016C34.3 18.7016 41 21.7016 46.6 25.4016C57.7 32.8016 71 37.1016 85.3 37.1016H156.3C175 37.1016 192 29.8016 204.6 17.8016C211.4 11.3016 220.3 6.10156 230.1 6.10156H338.2Z" fill="#00DC30"/>
</g>
<defs>
<clipPath id="clip0_3823_26427">
<rect width="382.2" height="384.9" fill="white"/>
</clipPath>
</defs>
</svg>
