<svg width="507" height="507" viewBox="0 0 507 507" fill="none" xmlns="http://www.w3.org/2000/svg">
<mask id="path-1-inside-1_629_119" fill="white">
<path fill-rule="evenodd" clip-rule="evenodd" d="M-1.83588e-06 465C-8.21951e-07 488.196 18.8041 507 42 507L465 507C488.196 507 507 488.196 507 465L507 42.0001C507 18.8042 488.196 0.000131248 465 0.000132262C454.507 4.1168e-05 446.39 9.40989 439.799 17.5749C434.666 23.9332 426.808 28 418 28L282 28C276.426 28 271.232 26.3712 266.869 23.5636C253.865 15.1957 241.464 -1.05547e-05 226 2.06388e-05L42 0.000150752C18.804 0.000151766 -2.13397e-05 18.8042 -2.03258e-05 42.0002L-1.83588e-06 465Z"/>
</mask>
<path d="M42 507L42 509L42 507ZM-1.83588e-06 465L-2 465L-1.83588e-06 465ZM465 507L465 505L465 507ZM507 465L505 465L507 465ZM507 42.0001L509 42.0001L507 42.0001ZM418 28L418 26L418 28ZM282 28L282 30L282 28ZM42 0.000150752L42 2.00015L42 0.000150752ZM-2.03258e-05 42.0002L1.99998 42.0002L-2.03258e-05 42.0002ZM266.869 23.5636L265.787 25.2455L266.869 23.5636ZM439.799 17.5749L438.242 16.3186L439.799 17.5749ZM42 505C19.9086 505 2 487.091 2 465L-2 465C-2 489.301 17.6995 509 42 509L42 505ZM465 505L42 505L42 509L465 509L465 505ZM505 465C505 487.091 487.091 505 465 505L465 509C489.301 509 509 489.301 509 465L505 465ZM505 42.0001L505 465L509 465L509 42.0001L505 42.0001ZM465 2.00013C487.091 2.00013 505 19.9088 505 42.0001L509 42.0001C509 17.6996 489.301 -1.99987 465 -1.99987L465 2.00013ZM438.242 16.3186C433.473 22.2268 426.178 26 418 26L418 30C427.438 30 435.859 25.6396 441.355 18.8311L438.242 16.3186ZM418 26L282 26L282 30L418 30L418 26ZM282 26C276.821 26 272.001 24.4878 267.951 21.8817L265.787 25.2455C270.463 28.2545 276.031 30 282 30L282 26ZM42 2.00015L226 2.00002L226 -1.99998L42 -1.99985L42 2.00015ZM1.99998 42.0002C1.99998 19.9088 19.9086 2.00015 42 2.00015L42 -1.99985C17.6994 -1.99985 -2.00002 17.6996 -2.00002 42.0002L1.99998 42.0002ZM2 465L1.99998 42.0002L-2.00002 42.0002L-2 465L2 465ZM267.951 21.8817C264.797 19.8524 261.656 17.3931 258.425 14.7934C255.221 12.2146 251.914 9.4861 248.534 7.02663C241.792 2.12175 234.391 -2.00001 226 -1.99998L226 2.00002C233.073 1.99999 239.604 5.47609 246.18 10.2611C249.459 12.6465 252.657 15.2859 255.918 17.9098C259.153 20.5127 262.438 23.0908 265.787 25.2455L267.951 21.8817ZM465 -1.99987C459.123 -1.99993 454.037 0.640544 449.677 4.1714C445.329 7.693 441.534 12.2409 438.242 16.3186L441.355 18.8311C444.654 14.7438 448.213 10.5044 452.195 7.2798C456.165 4.06452 460.383 2.0001 465 2.00013L465 -1.99987Z" fill="#0713F7" mask="url(#path-1-inside-1_629_119)"/>
</svg>
