<svg width="375" height="375" viewBox="0 0 375 375" fill="none" xmlns="http://www.w3.org/2000/svg">
<mask id="path-1-inside-1_705_187" fill="white">
<path fill-rule="evenodd" clip-rule="evenodd" d="M42 0C18.804 0 0 18.804 0 42L0 81.394C0 93.2609 9.77023 103.65 13.1389 115.029C13.6992 116.921 14 118.926 14 121L14 298C14 301.705 13.0405 305.186 11.3563 308.208C6.92323 316.163 0 323.894 0 333C0 356.196 18.804 375 42 375L333 375C356.196 375 375 356.196 375 333L375 42C375 18.804 356.196 0 333 0L42 0Z"/>
</mask>
<path d="M14 121H16H14ZM14 298H12H14ZM11.3563 308.208L9.60931 307.234L11.3563 308.208ZM2 42C2 19.9086 19.9086 2 42 2V-2C17.6995 -2 -2 17.6995 -2 42H2ZM2 81.394L2 42H-2L-2 81.394H2ZM11.2212 115.596C11.7275 117.307 12 119.12 12 121H16C16 118.731 15.6709 116.536 15.0566 114.461L11.2212 115.596ZM12 121L12 298H16L16 121H12ZM12 298C12 301.356 11.1318 304.503 9.60931 307.234L13.1033 309.182C14.9491 305.87 16 302.055 16 298H12ZM42 373C19.9086 373 2 355.091 2 333H-2C-2 357.301 17.6995 377 42 377L42 373ZM333 373L42 373L42 377L333 377V373ZM373 333C373 355.091 355.091 373 333 373V377C357.3 377 377 357.301 377 333H373ZM373 42L373 333H377L377 42L373 42ZM333 2C355.091 2 373 19.9086 373 42L377 42C377 17.6995 357.301 -2 333 -2V2ZM42 2L333 2V-2L42 -2V2ZM9.60931 307.234C8.53601 309.16 7.30596 311.083 6.02777 313.078C4.76147 315.054 3.44809 317.1 2.27227 319.192C-0.0749725 323.368 -2 327.938 -2 333H2C2 328.956 3.53659 325.107 5.75924 321.152C6.86836 319.179 8.117 317.231 9.39561 315.236C10.6623 313.259 11.9601 311.233 13.1033 309.182L9.60931 307.234ZM-2 81.394C-2 87.8517 0.656416 93.7917 3.53204 99.3177C6.48259 104.988 9.60903 110.151 11.2212 115.596L15.0566 114.461C13.3001 108.528 9.85709 102.807 7.08036 97.4712C4.2287 91.9912 2 86.8032 2 81.394H-2Z" fill="#FFE345" mask="url(#path-1-inside-1_705_187)"/>
</svg>
