<svg width="489" height="277" viewBox="0 0 489 277" fill="none" xmlns="http://www.w3.org/2000/svg">
<mask id="mask0_3983_4706" style="mask-type:luminance" maskUnits="userSpaceOnUse" x="0" y="238" width="8" height="22">
<path d="M7.177 259.788L2.93145 251.297C1.01085 247.557 0 243.413 0 238.965L4.24555 247.456C4.24555 251.803 5.2564 256.048 7.177 259.788Z" fill="white"/>
</mask>
<g mask="url(#mask0_3983_4706)">
<path d="M7.177 259.788L2.93145 251.297C1.01085 247.557 0 243.413 0 238.965L4.24555 247.456C4.24555 251.803 5.2564 256.048 7.177 259.788Z" fill="#810938"/>
</g>
<mask id="mask1_3983_4706" style="mask-type:luminance" maskUnits="userSpaceOnUse" x="456" y="0" width="30" height="24">
<path d="M481.365 15.3648L485.61 23.8559C481.062 14.7583 471.661 8.4911 460.744 8.4911L456.498 0C467.415 0 476.816 6.26724 481.365 15.3648Z" fill="white"/>
</mask>
<g mask="url(#mask1_3983_4706)">
<path d="M460.744 8.4911L456.498 0C457.509 0 458.419 0.101085 459.429 0.202169L463.675 8.69327C462.664 8.4911 461.653 8.4911 460.744 8.4911Z" fill="#900A3F"/>
<path d="M463.675 8.59266L459.43 0.101562C460.845 0.202647 462.26 0.505901 463.675 0.910239L467.921 9.40134C466.506 8.997 465.09 8.79483 463.675 8.59266Z" fill="#950A41"/>
<path d="M467.82 9.40126L463.574 0.910156C465.293 1.31449 466.91 1.921 468.426 2.72968L472.672 11.2208C471.156 10.4121 469.538 9.80559 467.82 9.40126Z" fill="#9A0B43"/>
<path d="M472.671 11.12L468.426 2.62891C473.985 5.2571 478.534 9.80591 481.365 15.2645L485.61 23.7556C482.78 18.297 478.231 13.8493 472.671 11.12Z" fill="#9F0B45"/>
</g>
<path d="M4.24555 247.352L0 238.962L0.101085 27.7969L4.34663 36.288L4.24555 247.352Z" fill="#7D0936"/>
<path d="M32.144 8.4911L27.8984 0H456.497L460.742 8.4911H32.144Z" fill="#8E0A3E"/>
<mask id="mask2_3983_4706" style="mask-type:luminance" maskUnits="userSpaceOnUse" x="0" y="0" width="33" height="37">
<path d="M4.34711 36.2893L0.101562 27.7982C0.101563 12.4334 12.636 0 27.8998 0L32.1454 8.4911C16.7805 8.4911 4.34711 20.9245 4.34711 36.2893Z" fill="white"/>
</mask>
<g mask="url(#mask2_3983_4706)">
<path d="M4.34711 36.2906L0.101562 27.7995C0.101562 16.0737 7.37965 5.96526 17.7914 1.92188L22.0369 10.413C11.7263 14.4564 4.34711 24.4637 4.34711 36.2906Z" fill="#810938"/>
<path d="M22.0366 10.4102L17.791 1.91909C19.3073 1.31258 20.9246 0.80716 22.542 0.503906L26.7875 8.99501C25.0691 9.29826 23.5528 9.80368 22.0366 10.4102Z" fill="#86093A"/>
<path d="M26.7885 8.99652L22.543 0.505423C23.8571 0.303254 25.2723 0.101085 26.7885 0L31.0341 8.4911C29.5178 8.59218 28.1026 8.69327 26.7885 8.99652Z" fill="#8B0A3C"/>
<path d="M30.9316 8.4911L26.7871 0C27.1914 0 27.5958 0 28.0001 0L32.2457 8.4911C31.7403 8.4911 31.3359 8.4911 30.9316 8.4911Z" fill="#900A3F"/>
</g>
<path d="M460.744 8.49219C476.109 8.49219 488.542 20.9256 488.542 36.2904L488.441 247.456C488.441 262.821 476.008 275.254 460.643 275.254H32.0443C16.6795 275.254 4.24609 262.821 4.24609 247.456L4.34718 36.2904C4.34718 20.9256 16.7806 8.49219 32.1454 8.49219H460.744Z" fill="#D70F5D"/>
<path d="M31.8412 8.79297H460.44C475.804 8.79297 488.238 21.2264 488.238 36.5912V247.858C488.238 263.223 475.804 275.656 460.44 275.656H31.8412C16.4764 275.656 4.04297 263.223 4.04297 247.858V36.5912C4.04297 21.2264 16.4764 8.79297 31.8412 8.79297Z" stroke="#FF2C78"/>
</svg>
