<svg width="489" height="276" viewBox="0 0 489 276" fill="none" xmlns="http://www.w3.org/2000/svg">
<mask id="mask0_3983_4741" style="mask-type:luminance" maskUnits="userSpaceOnUse" x="0" y="238" width="8" height="22">
<path d="M7.177 259.788L2.93145 251.297C1.01085 247.557 0 243.413 0 238.965L4.24555 247.456C4.24555 251.803 5.2564 256.048 7.177 259.788Z" fill="white"/>
</mask>
<g mask="url(#mask0_3983_4741)">
<path d="M7.177 259.788L2.93145 251.297C1.01085 247.557 0 243.413 0 238.965L4.24555 247.456C4.24555 251.803 5.2564 256.048 7.177 259.788Z" fill="#2B5681"/>
</g>
<mask id="mask1_3983_4741" style="mask-type:luminance" maskUnits="userSpaceOnUse" x="456" y="0" width="30" height="24">
<path d="M481.363 15.3648L485.608 23.8559C481.06 14.7583 471.659 8.4911 460.742 8.4911L456.496 0C467.312 0 476.814 6.26724 481.363 15.3648Z" fill="white"/>
</mask>
<g mask="url(#mask1_3983_4741)">
<path d="M460.742 8.4911L456.496 0C457.507 0 458.417 0.101085 459.428 0.202169L463.673 8.69327C462.662 8.4911 461.651 8.4911 460.742 8.4911Z" fill="#306090"/>
<path d="M463.673 8.59266L459.428 0.101562C460.843 0.202647 462.258 0.505901 463.673 0.910239L467.919 9.40134C466.504 8.997 465.088 8.79483 463.673 8.59266Z" fill="#326395"/>
<path d="M467.818 9.39735L463.572 0.90625C465.291 1.31059 466.908 1.9171 468.424 2.72577L472.67 11.2169C471.154 10.4082 469.536 9.80169 467.818 9.39735Z" fill="#33669A"/>
<path d="M472.671 11.12L468.426 2.62891C473.985 5.2571 478.534 9.80591 481.365 15.2645L485.61 23.7556C482.78 18.297 478.231 13.8493 472.671 11.12Z" fill="#356A9F"/>
</g>
<path d="M4.24555 247.356L0 238.966L0.101085 27.8008L4.34663 36.2919L4.24555 247.356Z" fill="#2A537C"/>
<path d="M32.1459 8.4911L27.9004 0H456.499L460.744 8.4911H32.1459Z" fill="#2F5E8E"/>
<mask id="mask2_3983_4741" style="mask-type:luminance" maskUnits="userSpaceOnUse" x="0" y="0" width="33" height="37">
<path d="M4.34516 36.2893L0.0996094 27.7982C0.0996094 12.4334 12.6341 0 27.8979 0L32.1434 8.4911C16.7786 8.4911 4.34516 20.9245 4.34516 36.2893Z" fill="white"/>
</mask>
<g mask="url(#mask2_3983_4741)">
<path d="M4.34516 36.2867L0.0996094 27.7956C0.0996094 16.0698 7.3777 5.96135 17.7894 1.91797L22.035 10.4091C11.7243 14.4525 4.34516 24.4598 4.34516 36.2867Z" fill="#2B5681"/>
<path d="M22.0346 10.4102L17.7891 1.91909C19.3053 1.31258 20.9227 0.80716 22.54 0.503906L26.7856 8.99501C25.0671 9.29826 23.5509 9.80368 22.0346 10.4102Z" fill="#2D5986"/>
<path d="M26.7846 8.99652L22.5391 0.505423C23.8532 0.303254 25.2683 0.101085 26.7846 0L31.0302 8.4911C29.5139 8.59218 28.0987 8.69327 26.7846 8.99652Z" fill="#2E5C8B"/>
<path d="M30.9316 8.4911L26.7871 0C27.1914 0 27.5958 0 28.0001 0L32.2457 8.4911C31.7403 8.4911 31.3359 8.4911 30.9316 8.4911Z" fill="#306090"/>
</g>
<path d="M460.742 8.49219C476.107 8.49219 488.54 20.9256 488.54 36.2904L488.439 247.456C488.439 262.821 476.006 275.254 460.641 275.254H32.0424C16.6775 275.254 4.24414 262.821 4.24414 247.456L4.34523 36.2904C4.34523 20.9256 16.7786 8.49219 32.1435 8.49219H460.742Z" fill="#488FD6"/>
</svg>
