<svg width="489" height="276" viewBox="0 0 489 276" fill="none" xmlns="http://www.w3.org/2000/svg">
<mask id="mask0_3983_4673" style="mask-type:luminance" maskUnits="userSpaceOnUse" x="0" y="238" width="8" height="22">
<path d="M7.177 259.788L2.93145 251.297C1.01085 247.557 0 243.413 0 238.965L4.24555 247.456C4.24555 251.803 5.2564 256.048 7.177 259.788Z" fill="white"/>
</mask>
<g mask="url(#mask0_3983_4673)">
<path d="M7.177 259.788L2.93145 251.297C1.01085 247.557 0 243.413 0 238.965L4.24555 247.456C4.24555 251.803 5.2564 256.048 7.177 259.788Z" fill="#804B25"/>
</g>
<mask id="mask1_3983_4673" style="mask-type:luminance" maskUnits="userSpaceOnUse" x="456" y="0" width="30" height="24">
<path d="M481.363 15.3648L485.608 23.8559C481.06 14.7583 471.659 8.4911 460.742 8.4911L456.496 0C467.312 0 476.814 6.26724 481.363 15.3648Z" fill="white"/>
</mask>
<g mask="url(#mask1_3983_4673)">
<path d="M460.742 8.4911L456.496 0C457.507 0 458.417 0.101085 459.428 0.202169L463.673 8.69327C462.662 8.4911 461.651 8.4911 460.742 8.4911Z" fill="#8F5429"/>
<path d="M463.673 8.59266L459.428 0.101562C460.843 0.202647 462.258 0.505901 463.673 0.910239L467.919 9.40134C466.504 8.997 465.088 8.79483 463.673 8.59266Z" fill="#94572B"/>
<path d="M467.818 9.39735L463.572 0.90625C465.291 1.31059 466.908 1.9171 468.424 2.72577L472.67 11.2169C471.154 10.4082 469.536 9.80169 467.818 9.39735Z" fill="#995A2C"/>
<path d="M472.671 11.12L468.426 2.62891C473.985 5.2571 478.534 9.80591 481.365 15.2645L485.61 23.7556C482.78 18.297 478.231 13.8493 472.671 11.12Z" fill="#9D5D2D"/>
</g>
<path d="M4.24555 247.36L0 238.97L0.101085 27.8047L4.34663 36.2958L4.24555 247.36Z" fill="#7B4924"/>
<path d="M32.1459 8.49501L27.9004 0.00390625H456.499L460.744 8.49501H32.1459Z" fill="#8C5329"/>
<mask id="mask2_3983_4673" style="mask-type:luminance" maskUnits="userSpaceOnUse" x="0" y="0" width="33" height="37">
<path d="M4.34321 36.2893L0.0976562 27.7982C0.0976563 12.4334 12.6321 0 27.8959 0L32.1415 8.4911C16.7766 8.4911 4.34321 20.9245 4.34321 36.2893Z" fill="white"/>
</mask>
<g mask="url(#mask2_3983_4673)">
<path d="M4.34321 36.2867L0.0976562 27.7956C0.0976562 16.0698 7.37574 5.96135 17.7874 1.91797L22.033 10.4091C11.7224 14.4525 4.34321 24.4598 4.34321 36.2867Z" fill="#804B25"/>
<path d="M22.0327 10.4102L17.7871 1.91909C19.3034 1.31258 20.9207 0.80716 22.5381 0.503906L26.7836 8.99501C25.0652 9.29826 23.5489 9.80368 22.0327 10.4102Z" fill="#854E26"/>
<path d="M26.7827 8.99652L22.5371 0.505423C23.8512 0.303254 25.2664 0.101085 26.7827 0L31.0282 8.4911C29.5119 8.59218 28.0968 8.69327 26.7827 8.99652Z" fill="#8A5128"/>
<path d="M30.9296 8.4911L26.7852 0C27.1895 0 27.5938 0 27.9982 0L32.2437 8.4911C31.7383 8.4911 31.334 8.4911 30.9296 8.4911Z" fill="#8F5429"/>
</g>
<path d="M460.744 8.49609C476.109 8.49609 488.542 20.9295 488.542 36.2943L488.441 247.46C488.441 262.825 476.008 275.258 460.643 275.258H32.0443C16.6795 275.258 4.24609 262.825 4.24609 247.46L4.34718 36.2943C4.34718 20.9295 16.7806 8.49609 32.1454 8.49609H460.744Z" fill="#D57D3D"/>
</svg>
