<svg width="375" height="375" viewBox="0 0 375 375" fill="none" xmlns="http://www.w3.org/2000/svg">
<mask id="path-1-inside-1_705_398" fill="white">
<path fill-rule="evenodd" clip-rule="evenodd" d="M40.1924 19.0035C29.3684 11.8083 14.5599 7.65863 7.24917 18.405C2.67401 25.1302 0 33.2528 0 42L0 333C0 356.196 18.804 375 42 375H333C356.196 375 375 356.196 375 333V42C375 18.804 356.196 0 333 0L224.844 0C215.667 0 207.324 4.77813 200.682 11.1116C187.762 23.4338 170.264 30.9995 151 30.9995L80 30.9995C65.2817 30.9995 51.5949 26.5832 40.1924 19.0035Z"/>
</mask>
<path d="M151 30.9995V32.9995V30.9995ZM80 30.9995V28.9995V30.9995ZM200.682 11.1116L199.302 9.66423L200.682 11.1116ZM2 42C2 33.6666 4.54617 25.9339 8.9028 19.5299L5.59555 17.28C0.801843 24.3265 -2 32.8391 -2 42H2ZM2 333L2 42H-2L-2 333H2ZM42 373C19.9086 373 2 355.091 2 333H-2C-2 357.301 17.6995 377 42 377V373ZM333 373H42V377H333V373ZM373 333C373 355.091 355.091 373 333 373V377C357.3 377 377 357.301 377 333H373ZM373 42V333H377V42H373ZM333 2C355.091 2 373 19.9086 373 42H377C377 17.6995 357.301 -2 333 -2V2ZM224.844 2L333 2V-2L224.844 -2V2ZM199.302 9.66423C186.738 21.6459 169.73 28.9995 151 28.9995V32.9995C170.799 32.9995 188.785 25.2217 202.063 12.5589L199.302 9.66423ZM151 28.9995L80 28.9995V32.9995H151V28.9995ZM80 28.9995C65.6877 28.9995 52.3842 24.7063 41.2996 17.3379L39.0852 20.669C50.8056 28.4601 64.8757 32.9995 80 32.9995V28.9995ZM224.844 -2C214.961 -2 206.148 3.13575 199.302 9.66423L202.063 12.5589C208.499 6.42051 216.374 2 224.844 2V-2ZM8.9028 19.5299C12.0392 14.9196 16.7546 13.4243 22.2054 13.9663C27.7393 14.5166 33.8352 17.1791 39.0852 20.669L41.2996 17.3379C35.7256 13.6326 29.0053 10.6227 22.6012 9.98595C16.114 9.34091 9.76987 11.144 5.59555 17.28L8.9028 19.5299Z" fill="#00FF38" mask="url(#path-1-inside-1_705_398)"/>
</svg>
