<svg width="487" height="312" viewBox="0 0 487 312" fill="none" xmlns="http://www.w3.org/2000/svg">
<mask id="path-1-inside-1_3972_20635" fill="white">
<path fill-rule="evenodd" clip-rule="evenodd" d="M486.832 141.103C486.832 122.488 478.047 104.965 463.131 93.8278L353.172 11.7246C342.978 4.11265 330.596 0 317.873 0H15C6.71573 0 0 6.71573 0 15V297C0 305.284 6.71572 312 15 312H471.832C480.116 312 486.832 305.284 486.832 297V141.103Z"/>
</mask>
<path fill-rule="evenodd" clip-rule="evenodd" d="M486.832 141.103C486.832 122.488 478.047 104.965 463.131 93.8278L353.172 11.7246C342.978 4.11265 330.596 0 317.873 0H15C6.71573 0 0 6.71573 0 15V297C0 305.284 6.71572 312 15 312H471.832C480.116 312 486.832 305.284 486.832 297V141.103Z" fill="#0E0E0E"/>
<path d="M353.172 11.7246L354.369 10.122L353.172 11.7246ZM463.131 93.8278L461.935 95.4303L463.131 93.8278ZM464.328 92.2252L354.369 10.122L351.976 13.3272L461.935 95.4303L464.328 92.2252ZM15 2H317.873V-2H15V2ZM2 15C2 7.8203 7.8203 2 15 2V-2C5.61116 -2 -2 5.61116 -2 15H2ZM2 297V15H-2V297H2ZM15 310C7.82029 310 2 304.18 2 297H-2C-2 306.389 5.61115 314 15 314V310ZM471.832 310H15V314H471.832V310ZM484.832 297C484.832 304.18 479.012 310 471.832 310V314C481.221 314 488.832 306.389 488.832 297H484.832ZM484.832 141.103V297H488.832V141.103H484.832ZM354.369 10.122C343.829 2.25206 331.027 -2 317.873 -2V2C330.165 2 342.127 5.97323 351.976 13.3272L354.369 10.122ZM461.935 95.4303C476.345 106.19 484.832 123.119 484.832 141.103H488.832C488.832 121.857 479.749 103.74 464.328 92.2252L461.935 95.4303Z" fill="#F9116C" mask="url(#path-1-inside-1_3972_20635)"/>
</svg>
