<svg width="496" height="381" viewBox="0 0 496 381" fill="none" xmlns="http://www.w3.org/2000/svg">
<path d="M496 239.362L495.97 141.848L371.039 158.292L277.493 105.012C261.082 95.6628 234.483 95.6628 218.073 105.012L203.505 114.142L0.666016 140.838V239.497C0.666016 239.55 0.666016 239.61 0.666016 239.663V240.123L0.742524 240.108C0.979467 246.057 4.99216 251.96 12.9565 256.491L219.159 373.923C235.569 383.264 262.168 383.264 278.578 373.923L483.695 256.272C491.636 251.749 495.649 245.868 495.901 239.942L496 239.927V239.362Z" fill="#FFB462"/>
<path d="M483.364 124.438L277.162 7.00588C260.751 -2.33529 234.153 -2.33529 217.742 7.00588L12.6334 124.649C-3.77688 133.99 -3.77688 149.144 12.6334 158.485L218.835 275.917C235.246 285.258 261.845 285.258 278.255 275.917L483.371 158.274C499.766 148.933 499.766 133.787 483.364 124.438Z" fill="#FFD5A7"/>
<path d="M483.694 152.97L278.577 270.613C262.167 279.955 235.568 279.955 219.158 270.613L12.9559 153.181C6.07688 149.261 2.1176 144.323 1.00932 139.219C-0.526991 146.29 3.42464 153.664 12.9559 159.092L219.158 276.524C235.568 285.865 262.167 285.865 278.577 276.524L483.694 158.874C493.218 153.453 497.177 146.064 495.641 139C494.525 144.112 490.573 149.05 483.694 152.97Z" fill="white"/>
<path d="M306.3 302.12L296.539 307.677V296.556L306.3 291V302.12Z" fill="white"/>
<path d="M326.723 290.12L316.962 295.677V284.564L326.723 279V290.12Z" fill="white"/>
<path d="M347.146 279.113L337.386 284.677V273.556L347.146 268V279.113Z" fill="white"/>
<path d="M330.445 311.12L320.685 316.677V305.556L330.445 300V311.12Z" fill="white"/>
<path d="M348.43 301.12L338.669 306.677V295.556L348.43 290V301.12Z" fill="white"/>
<path d="M412.649 241.113L402.889 246.677V235.556L412.649 230V241.113Z" fill="white"/>
<path d="M468.912 209.12L459.151 214.677V203.556L468.912 198V209.12Z" fill="white"/>
<path d="M367.569 267.12L357.808 272.677V261.556L367.569 256V267.12Z" fill="white"/>
<path d="M249.511 247.127C241.26 247.127 233.016 245.295 226.581 241.639L77.5891 156.851C70.9209 153.055 67.2368 147.83 67.2368 142.145C67.2368 136.459 70.9126 131.234 77.5891 127.43L225.789 42.4944C238.659 35.174 258.797 35.1658 271.658 42.4862L420.65 127.274C427.327 131.078 431.003 136.303 431.003 141.98C431.003 147.666 427.327 152.891 420.65 156.695L272.45 241.631C266.015 245.287 257.763 247.127 249.511 247.127ZM248.728 42.7655C241.485 42.7655 234.241 44.3265 228.723 47.4731L80.5231 132.409C75.722 135.145 73.0798 138.595 73.0798 142.145C73.0798 145.694 75.7137 149.145 80.5065 151.864L229.499 236.652C240.518 242.945 258.472 242.945 269.508 236.652L417.708 151.716C422.509 148.98 425.151 145.53 425.151 141.98C425.151 138.439 422.517 134.989 417.716 132.261L268.724 47.4731C263.223 44.3265 255.971 42.7655 248.728 42.7655Z" fill="white"/>
</svg>
