<svg width="496" height="381" viewBox="0 0 496 381" fill="none" xmlns="http://www.w3.org/2000/svg">
<path d="M495.986 239.362L495.956 141.848L371.025 158.292L277.478 105.012C261.068 95.6628 234.469 95.6628 218.059 105.012L203.491 114.142L0.651855 140.838V239.497C0.651855 239.55 0.651855 239.61 0.651855 239.663V240.123L0.728364 240.108C0.965307 246.057 4.978 251.96 12.9424 256.491L219.144 373.923C235.555 383.264 262.154 383.264 278.564 373.923L483.68 256.272C491.622 251.749 495.635 245.868 495.887 239.942L495.986 239.927V239.362Z" fill="#AF009A"/>
<path d="M483.351 124.438L277.149 7.00588C260.738 -2.33529 234.139 -2.33529 217.729 7.00588L12.6202 124.649C-3.79006 133.99 -3.79006 149.144 12.6202 158.485L218.822 275.917C235.232 285.258 261.831 285.258 278.242 275.917L483.358 158.274C499.753 148.933 499.753 133.787 483.351 124.438Z" fill="#E82FD1"/>
<path d="M483.68 152.97L278.564 270.613C262.153 279.955 235.555 279.955 219.144 270.613L12.9422 153.181C6.06321 149.261 2.10393 144.323 0.995649 139.219C-0.540663 146.29 3.41097 153.664 12.9422 159.092L219.144 276.524C235.555 285.865 262.153 285.865 278.564 276.524L483.68 158.874C493.204 153.453 497.163 146.064 495.627 139C494.511 144.112 490.559 149.05 483.68 152.97Z" fill="white"/>
<path d="M306.286 297.12L296.525 302.677V291.556L306.286 286V297.12Z" fill="white"/>
<path d="M326.709 285.12L316.949 290.677V279.564L326.709 274V285.12Z" fill="white"/>
<path d="M347.132 274.113L337.372 279.677V268.556L347.132 263V274.113Z" fill="white"/>
<path d="M330.431 306.12L320.67 311.677V300.556L330.431 295V306.12Z" fill="white"/>
<path d="M348.416 296.12L338.656 301.677V290.556L348.416 285V296.12Z" fill="white"/>
<path d="M412.635 241.113L402.875 246.677V235.556L412.635 230V241.113Z" fill="white"/>
<path d="M468.898 209.12L459.138 214.677V203.556L468.898 198V209.12Z" fill="white"/>
<path d="M367.555 262.12L357.794 267.677V256.556L367.555 251V262.12Z" fill="white"/>
<path d="M249.497 247.127C241.245 247.127 233.002 245.295 226.567 241.639L77.5749 156.851C70.9067 153.055 67.2227 147.83 67.2227 142.145C67.2227 136.459 70.8984 131.234 77.5749 127.43L225.775 42.4944C238.645 35.174 258.783 35.1658 271.644 42.4862L420.636 127.274C427.313 131.078 430.988 136.303 430.988 141.98C430.988 147.666 427.313 152.891 420.636 156.695L272.436 241.631C266.001 245.287 257.749 247.127 249.497 247.127ZM248.714 42.7655C241.47 42.7655 234.227 44.3265 228.709 47.4731L80.509 132.409C75.7079 135.145 73.0657 138.595 73.0657 142.145C73.0657 145.694 75.6995 149.145 80.4923 151.864L229.484 236.652C240.504 242.945 258.458 242.945 269.493 236.652L417.694 151.716C422.495 148.98 425.137 145.53 425.137 141.98C425.137 138.439 422.503 134.989 417.702 132.261L268.71 47.4731C263.209 44.3265 255.957 42.7655 248.714 42.7655Z" fill="white"/>
</svg>
