<svg width="27" height="32" viewBox="0 0 27 32" fill="none" xmlns="http://www.w3.org/2000/svg">
<g clip-path="url(#clip0_2236_13654)">
<path d="M13.4913 -0.000101996C14.1937 -0.00989691 14.848 0.166412 15.4446 0.548413C18.8028 2.68371 22.1609 4.819 25.4998 6.98368C27.0586 7.99255 27.4628 9.90256 26.4621 11.3816C26.3466 11.5579 26.183 11.7146 26.0002 11.8322C22.2283 14.2515 18.4467 16.6708 14.6652 19.0804C13.8858 19.5799 13.116 19.5897 12.3366 19.0804C8.53584 16.6513 4.73505 14.2319 0.943891 11.793C0.328068 11.4012 0.106756 10.7351 0.0297784 10.0397C-0.124177 8.65861 0.472401 7.63014 1.60783 6.90532C3.84981 5.46546 6.10141 4.0354 8.34339 2.59555C9.37297 1.93929 10.4025 1.28303 11.4225 0.626773C12.048 0.215386 12.7311 -0.00989691 13.4913 -0.000101996ZM20.8427 9.64789C20.8138 9.21692 20.6117 8.83491 20.198 8.59004C19.8131 8.36476 19.4378 8.45291 19.0818 8.6782C17.3209 9.79482 15.5601 10.9114 13.8088 12.0281C13.5875 12.175 13.4239 12.175 13.2026 12.0379C11.461 10.9212 9.70013 9.81441 7.9585 8.70758C7.56399 8.45291 7.16948 8.34517 6.7461 8.61943C5.9667 9.10917 5.94745 10.1866 6.71723 10.6862C8.76677 11.9987 10.8259 13.2916 12.8851 14.5943C13.2892 14.849 13.7126 14.8588 14.1071 14.6041C16.1855 13.2916 18.2639 11.9791 20.3327 10.6568C20.6695 10.4315 20.8427 10.118 20.8427 9.64789Z" fill="white"/>
<path d="M0.518648 14.3008C1.76954 15.0942 2.99156 15.8778 4.22321 16.6614C6.5133 18.1208 8.79377 19.5901 11.0839 21.0397C12.7004 22.0682 14.3169 22.0584 15.9335 21.0299C19.3397 18.8554 22.746 16.681 26.1427 14.5065C26.2485 14.4379 26.3447 14.3792 26.4794 14.291C26.9702 15.006 27.1049 15.7896 26.9317 16.6124C26.7489 17.4744 26.2678 18.1502 25.5365 18.6204C21.9089 20.9418 18.2813 23.2534 14.6537 25.5748C13.8743 26.0743 13.1045 26.0645 12.3251 25.565C8.69755 23.2436 5.06997 20.932 1.44238 18.6106C-0.0201974 17.6996 -0.443576 15.7505 0.518648 14.3008Z" fill="white"/>
<path d="M0.374708 20.7261C1.22146 21.2648 1.99124 21.7545 2.76102 22.2443C5.53223 24.0172 8.30343 25.7998 11.0843 27.5629C12.6816 28.5718 14.3077 28.5718 15.905 27.5629C19.3498 25.3787 22.7753 23.1748 26.2104 20.9807C26.3163 20.9122 26.4317 20.8436 26.5472 20.775C27.317 21.9308 27.086 23.5862 26.0276 24.5951C25.8063 24.8106 25.5369 24.9967 25.2771 25.1632C22.0825 27.2103 18.8783 29.2574 15.6837 31.3046C14.2307 32.2351 12.7778 32.2351 11.3152 31.2948C8.08212 29.2281 4.84905 27.1711 1.61598 25.1044C0.47093 24.3698 -0.135271 23.3413 0.0283072 21.9406C0.0764184 21.5488 0.249619 21.1668 0.374708 20.7261Z" fill="white"/>
</g>
<defs>
<clipPath id="clip0_2236_13654">
<rect width="27" height="32" fill="white"/>
</clipPath>
</defs>
</svg>
