<svg width="33" height="28" viewBox="0 0 33 28" fill="none" xmlns="http://www.w3.org/2000/svg">
<g clip-path="url(#clip0_2229_13330)">
<path d="M4.41755 5.35986C5.79831 6.75568 7.16986 8.15149 8.55981 9.55661C8.5322 9.59383 8.49538 9.66827 8.44015 9.7241C5.19078 13.651 5.02509 19.197 8.04433 23.3472C8.10877 23.431 8.1732 23.5147 8.22843 23.5985C8.44015 23.9149 8.43094 24.194 8.164 24.4732C7.08701 25.5712 6.01002 26.6693 4.91463 27.758C4.56484 28.1116 4.23345 28.0744 3.92048 27.6836C1.90458 25.2083 0.643496 22.3981 0.19245 19.2249C-0.470311 14.5722 0.597471 10.3476 3.37739 6.57887C3.67195 6.17874 4.01253 5.80652 4.3255 5.425C4.35312 5.39709 4.39914 5.37847 4.41755 5.35986Z" fill="white"/>
<path d="M28.5442 5.3042C29.5015 6.3278 30.2748 7.40722 30.9099 8.57971C32.4011 11.2969 33.1007 14.2188 32.9718 17.3175C32.8154 21.2072 31.5082 24.6688 29.0689 27.6837C28.7467 28.0839 28.4154 28.1025 28.0472 27.7303C26.9886 26.6601 25.93 25.59 24.8714 24.5199C24.54 24.1849 24.5216 23.915 24.7978 23.5335C26.4915 21.2258 27.2647 18.6482 27.053 15.7821C26.9333 14.1164 26.4271 12.5717 25.5618 11.1573C25.4145 10.9154 25.4421 10.7572 25.5802 10.5431C26.0865 9.73358 26.5651 8.9147 27.0622 8.11443C27.3108 7.705 27.4028 7.28625 27.3015 6.81168C27.2831 6.71862 27.32 6.57904 27.3844 6.5139C27.7526 6.11377 28.1392 5.73225 28.5442 5.3042Z" fill="white"/>
<path d="M9.48154 8.64456C8.07317 7.23014 6.70163 5.84363 5.33008 4.45712C11.2581 -1.34015 21.3652 -1.62862 27.7259 4.50365C27.3209 4.91309 26.9159 5.31322 26.5016 5.71335C26.4464 5.75988 26.3359 5.77849 26.2531 5.75988C25.7928 5.64822 25.3694 5.74127 24.9644 5.99252C24.1359 6.51362 23.2983 7.02542 22.4698 7.54652C22.3225 7.63958 22.2121 7.6768 22.0372 7.56513C18.1159 5.08989 13.0531 5.51794 9.5828 8.57012C9.54598 8.59803 9.49995 8.62595 9.48154 8.64456Z" fill="white"/>
<path d="M21.5306 14.9167C20.9231 13.2789 19.8553 12.1902 18.2812 11.5574C18.3917 11.4737 18.4838 11.4085 18.5666 11.362C20.8771 9.92896 23.1875 8.49593 25.498 7.05359C25.5624 7.00706 25.6361 6.94192 25.7097 6.93262C25.8386 6.93262 25.9951 6.93262 26.0779 7.00706C26.1423 7.0722 26.1423 7.2397 26.1331 7.35136C26.1239 7.43511 26.0503 7.50955 26.0043 7.5933C24.5867 9.91966 23.1783 12.246 21.7607 14.5724C21.6963 14.6747 21.6319 14.7678 21.5306 14.9167Z" fill="white"/>
<path d="M20.628 16.6197C20.6188 18.9181 18.7594 20.7885 16.4857 20.7885C14.2489 20.7885 12.3711 18.8809 12.3711 16.6197C12.3803 14.3212 14.2489 12.4229 16.5041 12.4415C18.787 12.4508 20.628 14.3212 20.628 16.6197Z" fill="white"/>
</g>
<defs>
<clipPath id="clip0_2229_13330">
<rect width="33" height="28" fill="white"/>
</clipPath>
</defs>
</svg>
