<svg width="378" height="95" viewBox="0 0 378 95" fill="none" xmlns="http://www.w3.org/2000/svg">
<mask id="path-1-outside-1_2811_26710" maskUnits="userSpaceOnUse" x="0" y="0" width="378" height="95" fill="black">
<rect fill="white" width="378" height="95"/>
<path fill-rule="evenodd" clip-rule="evenodd" d="M336.032 22.472C324.069 16.6222 312.93 5 299.613 5L47 5C23.804 5 5 23.804 5 47V48C5 71.196 23.804 90 47 90L331 90C354.196 90 373 71.196 373 48V47C373 44.4471 372.772 41.9475 372.336 39.5202C370.617 29.9555 360.865 25 351.147 25H347C343.066 25 339.344 24.0912 336.032 22.472Z"/>
</mask>
<path d="M336.032 22.472L338.229 17.9802L336.032 22.472ZM47 10L299.613 10V0L47 0V10ZM10 47C10 26.5655 26.5655 10 47 10V0C21.0426 0 0 21.0426 0 47H10ZM10 48V47H0V48H10ZM47 85C26.5655 85 10 68.4345 10 48H0C0 73.9574 21.0426 95 47 95V85ZM331 85L47 85V95L331 95V85ZM368 48C368 68.4345 351.434 85 331 85V95C356.957 95 378 73.9574 378 48H368ZM368 47V48H378V47H368ZM367.415 40.4048C367.799 42.5415 368 44.7451 368 47H378C378 44.1492 377.746 41.3535 377.257 38.6356L367.415 40.4048ZM351.147 20H347V30H351.147V20ZM347 20C343.843 20 340.871 19.2723 338.229 17.9802L333.836 26.9637C337.816 28.91 342.288 30 347 30V20ZM377.257 38.6356C374.92 25.6331 362.025 20 351.147 20V30C359.706 30 366.313 34.2778 367.415 40.4048L377.257 38.6356ZM299.613 10C304.832 10 309.953 12.2789 315.721 15.8075C318.615 17.5782 321.377 19.4689 324.438 21.4633C327.41 23.4002 330.559 25.3614 333.836 26.9637L338.229 17.9802C335.524 16.6576 332.794 14.9724 329.897 13.0849C327.088 11.2549 323.99 9.14319 320.939 7.27713C314.818 3.53216 307.711 0 299.613 0V10Z" fill="black" mask="url(#path-1-outside-1_2811_26710)"/>
</svg>
