<svg width="618" height="314" viewBox="0 0 618 314" fill="none" xmlns="http://www.w3.org/2000/svg">
<mask id="path-1-inside-1_3199_1613" fill="white">
<path fill-rule="evenodd" clip-rule="evenodd" d="M15 0C6.71573 0 0 6.71572 0 15V299C0 307.284 6.71573 314 15 314H491.2C512.877 314 530.45 296.427 530.45 274.75C530.45 253.073 548.023 235.5 569.7 235.5H574.225C598.401 235.5 618 215.901 618 191.725V15C618 6.71573 611.284 0 603 0H15Z"/>
</mask>
<path fill-rule="evenodd" clip-rule="evenodd" d="M15 0C6.71573 0 0 6.71572 0 15V299C0 307.284 6.71573 314 15 314H491.2C512.877 314 530.45 296.427 530.45 274.75C530.45 253.073 548.023 235.5 569.7 235.5H574.225C598.401 235.5 618 215.901 618 191.725V15C618 6.71573 611.284 0 603 0H15Z" fill="#FFD5A7"/>
<path d="M1 15C1 7.26801 7.26801 1 15 1V-1C6.16344 -1 -1 6.16344 -1 15H1ZM1 299V15H-1V299H1ZM15 313C7.26801 313 1 306.732 1 299H-1C-1 307.837 6.16344 315 15 315V313ZM491.2 313H15V315H491.2V313ZM569.7 236.5H574.225V234.5H569.7V236.5ZM617 15V191.725H619V15H617ZM603 1C610.732 1 617 7.26802 617 15H619C619 6.16344 611.837 -1 603 -1V1ZM15 1H603V-1H15V1ZM574.225 236.5C598.954 236.5 619 216.454 619 191.725H617C617 215.349 597.849 234.5 574.225 234.5V236.5ZM531.45 274.75C531.45 253.625 548.575 236.5 569.7 236.5V234.5C547.471 234.5 529.45 252.521 529.45 274.75H531.45ZM491.2 315C513.429 315 531.45 296.979 531.45 274.75H529.45C529.45 295.875 512.325 313 491.2 313V315Z" fill="url(#paint0_linear_3199_1613)" mask="url(#path-1-inside-1_3199_1613)"/>
<path d="M1 15C1 7.26801 7.26801 1 15 1V-1C6.16344 -1 -1 6.16344 -1 15H1ZM1 299V15H-1V299H1ZM15 313C7.26801 313 1 306.732 1 299H-1C-1 307.837 6.16344 315 15 315V313ZM491.2 313H15V315H491.2V313ZM569.7 236.5H574.225V234.5H569.7V236.5ZM617 15V191.725H619V15H617ZM603 1C610.732 1 617 7.26802 617 15H619C619 6.16344 611.837 -1 603 -1V1ZM15 1H603V-1H15V1ZM574.225 236.5C598.954 236.5 619 216.454 619 191.725H617C617 215.349 597.849 234.5 574.225 234.5V236.5ZM531.45 274.75C531.45 253.625 548.575 236.5 569.7 236.5V234.5C547.471 234.5 529.45 252.521 529.45 274.75H531.45ZM491.2 315C513.429 315 531.45 296.979 531.45 274.75H529.45C529.45 295.875 512.325 313 491.2 313V315Z" fill="url(#paint1_linear_3199_1613)" mask="url(#path-1-inside-1_3199_1613)"/>
<defs>
<linearGradient id="paint0_linear_3199_1613" x1="309" y1="0" x2="309" y2="314" gradientUnits="userSpaceOnUse">
<stop/>
<stop offset="1" stop-color="#666666"/>
</linearGradient>
<linearGradient id="paint1_linear_3199_1613" x1="618" y1="314" x2="299.044" y2="503.455" gradientUnits="userSpaceOnUse">
<stop stop-color="#FA8237"/>
<stop offset="0.505" stop-color="#EB9344"/>
<stop offset="1" stop-color="#C700BF"/>
</linearGradient>
</defs>
</svg>
