<svg width="154" height="139" viewBox="0 0 154 139" fill="none" xmlns="http://www.w3.org/2000/svg">
<mask id="path-1-inside-1_3159_32363" fill="white">
<path fill-rule="evenodd" clip-rule="evenodd" d="M15 0C6.71573 0 0 6.71573 0 15V124C0 132.284 6.71573 139 15 139H105C114.941 139 123 130.941 123 121V118.5C123 109.94 129.94 103 138.5 103C147.06 103 154 96.0604 154 87.5V15C154 6.71573 147.284 0 139 0H15Z"/>
</mask>
<path fill-rule="evenodd" clip-rule="evenodd" d="M15 0C6.71573 0 0 6.71573 0 15V124C0 132.284 6.71573 139 15 139H105C114.941 139 123 130.941 123 121V118.5C123 109.94 129.94 103 138.5 103C147.06 103 154 96.0604 154 87.5V15C154 6.71573 147.284 0 139 0H15Z" fill="white" fill-opacity="0.1"/>
<path d="M1 15C1 7.26801 7.26801 1 15 1V-1C6.16344 -1 -1 6.16344 -1 15H1ZM1 124V15H-1V124H1ZM15 138C7.26801 138 1 131.732 1 124H-1C-1 132.837 6.16344 140 15 140V138ZM105 138H15V140H105V138ZM124 121V118.5H122V121H124ZM153 15V87.5H155V15H153ZM139 1C146.732 1 153 7.26801 153 15H155C155 6.16344 147.837 -1 139 -1V1ZM15 1H139V-1H15V1ZM138.5 104C147.613 104 155 96.6127 155 87.5H153C153 95.5081 146.508 102 138.5 102V104ZM124 118.5C124 110.492 130.492 104 138.5 104V102C129.387 102 122 109.387 122 118.5H124ZM105 140C115.493 140 124 131.493 124 121H122C122 130.389 114.389 138 105 138V140Z" fill="url(#paint0_linear_3159_32363)" mask="url(#path-1-inside-1_3159_32363)"/>
<path d="M1 15C1 7.26801 7.26801 1 15 1V-1C6.16344 -1 -1 6.16344 -1 15H1ZM1 124V15H-1V124H1ZM15 138C7.26801 138 1 131.732 1 124H-1C-1 132.837 6.16344 140 15 140V138ZM105 138H15V140H105V138ZM124 121V118.5H122V121H124ZM153 15V87.5H155V15H153ZM139 1C146.732 1 153 7.26801 153 15H155C155 6.16344 147.837 -1 139 -1V1ZM15 1H139V-1H15V1ZM138.5 104C147.613 104 155 96.6127 155 87.5H153C153 95.5081 146.508 102 138.5 102V104ZM124 118.5C124 110.492 130.492 104 138.5 104V102C129.387 102 122 109.387 122 118.5H124ZM105 140C115.493 140 124 131.493 124 121H122C122 130.389 114.389 138 105 138V140Z" fill="url(#paint1_linear_3159_32363)" mask="url(#path-1-inside-1_3159_32363)"/>
<path d="M1 15C1 7.26801 7.26801 1 15 1V-1C6.16344 -1 -1 6.16344 -1 15H1ZM1 124V15H-1V124H1ZM15 138C7.26801 138 1 131.732 1 124H-1C-1 132.837 6.16344 140 15 140V138ZM105 138H15V140H105V138ZM124 121V118.5H122V121H124ZM153 15V87.5H155V15H153ZM139 1C146.732 1 153 7.26801 153 15H155C155 6.16344 147.837 -1 139 -1V1ZM15 1H139V-1H15V1ZM138.5 104C147.613 104 155 96.6127 155 87.5H153C153 95.5081 146.508 102 138.5 102V104ZM124 118.5C124 110.492 130.492 104 138.5 104V102C129.387 102 122 109.387 122 118.5H124ZM105 140C115.493 140 124 131.493 124 121H122C122 130.389 114.389 138 105 138V140Z" fill="url(#paint2_linear_3159_32363)" mask="url(#path-1-inside-1_3159_32363)"/>
<defs>
<linearGradient id="paint0_linear_3159_32363" x1="77" y1="0" x2="77" y2="139" gradientUnits="userSpaceOnUse">
<stop/>
<stop offset="1" stop-color="#666666"/>
</linearGradient>
<linearGradient id="paint1_linear_3159_32363" x1="154" y1="139" x2="57.2891" y2="171.337" gradientUnits="userSpaceOnUse">
<stop stop-color="#FA8237"/>
<stop offset="0.505" stop-color="#EB9344"/>
<stop offset="1" stop-color="#C700BF"/>
</linearGradient>
<linearGradient id="paint2_linear_3159_32363" x1="155.393" y1="139" x2="-16.1269" y2="113.525" gradientUnits="userSpaceOnUse">
<stop stop-color="#F9116C"/>
<stop offset="1" stop-color="#FF2E80"/>
</linearGradient>
</defs>
</svg>
