<svg width="618" height="406" viewBox="0 0 618 406" fill="none" xmlns="http://www.w3.org/2000/svg">
<mask id="path-1-inside-1_3951_15492" fill="white">
<path fill-rule="evenodd" clip-rule="evenodd" d="M15 0C6.71573 0 0 6.71573 0 15V391C0 399.284 6.71573 406 15 406H490.449C512.541 406 530.449 388.091 530.449 366C530.449 343.909 548.358 326 570.449 326H574.225C598.401 326 618 306.401 618 282.225V15C618 6.71573 611.284 0 603 0H15Z"/>
</mask>
<path fill-rule="evenodd" clip-rule="evenodd" d="M15 0C6.71573 0 0 6.71573 0 15V391C0 399.284 6.71573 406 15 406H490.449C512.541 406 530.449 388.091 530.449 366C530.449 343.909 548.358 326 570.449 326H574.225C598.401 326 618 306.401 618 282.225V15C618 6.71573 611.284 0 603 0H15Z" fill="white" fill-opacity="0.1"/>
<path d="M1 15C1 7.26802 7.26801 1 15 1V-1C6.16344 -1 -1 6.16345 -1 15H1ZM1 391V15H-1V391H1ZM15 405C7.26801 405 1 398.732 1 391H-1C-1 399.837 6.16344 407 15 407V405ZM490.449 405H15V407H490.449V405ZM570.449 327H574.225V325H570.449V327ZM617 15V282.225H619V15H617ZM603 1C610.732 1 617 7.26801 617 15H619C619 6.16344 611.837 -1 603 -1V1ZM15 1H603V-1H15V1ZM574.225 327C598.953 327 619 306.953 619 282.225H617C617 305.849 597.849 325 574.225 325V327ZM531.449 366C531.449 344.461 548.91 327 570.449 327V325C547.806 325 529.449 343.356 529.449 366H531.449ZM490.449 407C513.093 407 531.449 388.644 531.449 366H529.449C529.449 387.539 511.988 405 490.449 405V407Z" fill="url(#paint0_linear_3951_15492)" mask="url(#path-1-inside-1_3951_15492)"/>
<defs>
<linearGradient id="paint0_linear_3951_15492" x1="623.589" y1="314" x2="-34.1135" y2="140.463" gradientUnits="userSpaceOnUse">
<stop stop-color="#F9116C"/>
<stop offset="1" stop-color="#FF2E80"/>
</linearGradient>
</defs>
</svg>
