<svg width="169" height="69" viewBox="0 0 169 69" fill="none" xmlns="http://www.w3.org/2000/svg">
<path d="M96.2173 50.3282C96.2173 50.817 96.6087 51.257 97.1463 51.257H108.983C114.951 51.257 119.647 47.2981 119.647 41.8251C119.647 37.3286 115.88 34.6901 113.288 33.8591C115.586 32.7837 118.668 29.8519 118.668 26.0887C118.668 20.9572 114.168 17.0478 108.348 17.0478H97.1463C96.6087 17.0478 96.2173 17.4878 96.2173 17.9766V50.3282ZM102.527 31.4156V22.8636H107.761C110.255 22.8636 111.967 24.5739 111.967 27.0174C111.967 29.4609 110.255 31.4156 107.761 31.4156H102.527ZM102.527 45.4901V36.7914H107.859C110.402 36.7914 112.848 38.5995 112.848 41.043C112.848 43.5843 110.891 45.4901 108.445 45.4901H102.527Z" fill="white"/>
<path d="M125.956 24.7694C127.864 24.7694 129.38 23.2541 129.38 21.3972C129.38 19.5402 127.864 18.0254 125.956 18.0254C124.098 18.0254 122.63 19.5402 122.63 21.3972C122.63 23.2541 124.098 24.7694 125.956 24.7694ZM123.07 50.3282C123.07 50.817 123.511 51.257 124 51.257H128.059C128.549 51.257 128.989 50.817 128.989 50.3282V32.6371C128.989 32.0999 128.549 31.7089 128.059 31.7089H124C123.511 31.7089 123.07 32.0999 123.07 32.6371V50.3282Z" fill="white"/>
<path d="M134.369 50.3282C134.369 50.817 134.809 51.257 135.298 51.257H139.065C139.75 51.257 140.19 51.0126 140.19 50.3282V38.5017C140.532 37.8174 141.706 36.4981 143.663 36.4981C144.201 36.4981 144.935 36.7425 145.081 36.7914C145.473 36.9869 145.962 36.7914 146.206 36.3515L148.016 33.1748C148.603 31.9533 146.549 31.2201 144.25 31.2201C141.217 31.2201 139.407 33.2725 138.723 34.2502L138.038 32.3443C137.891 31.9533 137.598 31.7089 137.157 31.7089H135.298C134.809 31.7089 134.369 32.0999 134.369 32.6371V50.3282Z" fill="white"/>
<path d="M148.945 41.4829C148.945 47.1026 153.006 51.7452 158.337 51.7452C162.446 51.7452 164.745 48.8134 164.745 48.8134L165.233 50.3282C165.38 50.8659 165.723 51.257 166.163 51.257H168.07C168.56 51.257 169 50.817 169 50.3282V17.9766C169 17.4878 168.56 17.0478 168.07 17.0478H163.913C163.424 17.0478 162.983 17.4878 162.983 17.9766V32.0999C162.103 31.7578 160.587 31.2201 158.63 31.2201C152.81 31.2201 148.945 35.7649 148.945 41.4829ZM154.619 41.4829C154.619 38.7461 156.625 36.4981 159.364 36.4981C161.81 36.4981 163.179 37.6219 163.179 37.6219V43.291C162.837 44.4636 161.663 46.4677 159.071 46.4677C156.478 46.4677 154.619 44.2197 154.619 41.4829Z" fill="white"/>
<path fill-rule="evenodd" clip-rule="evenodd" d="M46.1727 21.5012C39.3539 28.314 26.2817 41.3746 12.8139 54.8305C12.6377 55.0071 12.5661 55.2625 12.6261 55.5043C12.6861 55.7461 12.8681 55.939 13.1064 56.0131C19.1614 57.8763 31.0221 56.2875 44.6019 53.6889C53.5608 51.9744 62.0068 48.8392 67.6404 43.21C74.3046 36.5523 76.9823 28.159 70.3191 21.5012C63.6555 14.844 52.8359 14.844 46.1727 21.5012Z" fill="#FE0000"/>
<path fill-rule="evenodd" clip-rule="evenodd" d="M30.4923 37.1609C38.6274 29.0331 57.5173 2.99332 70.1071 7.82462C81.2213 12.0888 73.4887 34.2785 73.4887 34.2785C73.4887 34.2785 42.7665 37.1609 30.4923 37.1609Z" fill="#FE0000"/>
<path fill-rule="evenodd" clip-rule="evenodd" d="M40.4786 26.8828L0 67.3256C0 67.3256 0.79015 67.7718 1.7639 68.321C3.87447 69.5126 6.52689 69.1058 8.18294 67.3366C16.9861 57.9326 43.3583 29.7594 43.3583 29.7594L40.4786 26.8828Z" fill="#810604"/>
<path fill-rule="evenodd" clip-rule="evenodd" d="M75.4062 12.7017C73.5502 9.56278 67.0565 0.233399 53.6087 3.32195e-05C53.5103 -0.00154358 53.4193 0.0531187 53.3746 0.141419C53.3298 0.229194 53.3398 0.33484 53.3993 0.414205C54.5561 2.07247 58.2706 8.41014 52.4261 14.2495L72.3318 35.0123L76.9696 20.0469L75.4062 12.7017Z" fill="#FE0000"/>
<path fill-rule="evenodd" clip-rule="evenodd" d="M75.2378 27.5188C75.2378 27.5188 73.0005 27.8799 72.7653 26.0981C71.4281 15.9672 66.492 19.6001 64.1826 11.6215C63.484 9.20642 74.122 10.7333 74.122 10.7333C74.122 10.7333 76.9633 14.1718 76.9696 18.2709C76.9754 22.4368 75.2378 27.5188 75.2378 27.5188Z" fill="black"/>
<path fill-rule="evenodd" clip-rule="evenodd" d="M75.3162 12.5771C78.2112 13.6483 79.6978 14.5008 82.4891 16.2663C82.5785 16.323 82.6359 16.4187 82.6432 16.5243C82.6506 16.6295 82.6069 16.7325 82.5259 16.8008C80.5716 18.4507 78.7509 19.8319 76.8287 20.5336C74.5376 20.1136 72.4328 18.6919 72.1856 17.0857C71.9447 15.5231 74.1147 13.9673 75.3162 12.5771Z" fill="#B90404"/>
<path fill-rule="evenodd" clip-rule="evenodd" d="M42.2115 41.9418C36.5415 36.2769 25.6714 25.4169 14.4726 14.2275C14.3258 14.0808 14.2669 13.8685 14.3163 13.6672C14.3663 13.4664 14.5178 13.3061 14.7161 13.2446C19.7511 11.6951 31.6775 10.9167 42.97 13.0775C50.4197 14.5029 57.6046 17.2003 62.2898 21.8812C67.8308 27.4168 67.8308 36.4062 62.2898 41.9418C56.7493 47.4779 47.752 47.4779 42.2115 41.9418Z" fill="#AE0707"/>
<path fill-rule="evenodd" clip-rule="evenodd" d="M47.884 27.5456C50.2955 25.1357 54.2121 25.1357 56.6235 27.5456C59.0355 29.955 59.0355 33.868 56.6235 36.2774C54.2121 38.6873 50.2955 38.6873 47.884 36.2774C46.9702 35.3649 45.0817 33.3535 44.1811 32.3906C43.9012 32.0915 43.9049 31.6253 44.19 31.331C45.1006 30.3891 46.9992 28.4291 47.884 27.5456Z" fill="#FE0000"/>
</svg>
