<svg xmlns="http://www.w3.org/2000/svg" width="165" height="26" fill="none" viewBox="0 0 165 26" class="block sm-down:hidden"><path fill="url(#paint0_linear_446_1544)" fill-rule="evenodd" d="M73.22 0h2.4v7.502h.033a4.74 4.74 0 011.167-1.26c.808-.63 2.098-1.292 3.902-1.292 3.6 0 6 2.405 6 6.463v8.868h-2.4V11.56c0-3.01-1.649-4.36-4.049-4.36-2.734 0-4.653 1.955-4.653 4.965v8.124h-2.4V0zm-9.754 5.245h-1.951V7.51h1.95V20.29h7.355v-2.258h-4.954V7.502h4.8V5.246h-4.8V2.332h-2.4v2.913zm-3.304 7.362c0-4.36-3.298-7.666-7.649-7.666h-.008c-4.35 0-7.649 3.305-7.649 7.821s3.298 7.821 7.649 7.821c2.849 0 4.653-1.235 5.82-2.47a7.828 7.828 0 001.535-2.496h-2.4a5.636 5.636 0 01-1.143 1.35c-.808.688-2.008 1.35-3.812 1.35-2.759 0-4.922-2.012-5.249-4.81h12.906v-.9zM52.513 7.19c2.882 0 4.776 1.955 5.102 4.213H47.322c.391-2.258 2.31-4.213 5.191-4.213zm51.906 5.416c0-4.36-3.298-7.666-7.649-7.666h-.008c-4.35 0-7.649 3.305-7.649 7.821s3.298 7.821 7.649 7.821c2.849 0 4.653-1.235 5.82-2.47a7.847 7.847 0 001.535-2.496h-2.4a5.637 5.637 0 01-1.143 1.35c-.808.688-2.008 1.35-3.812 1.35-2.76 0-4.922-2.012-5.249-4.81h12.906v-.9zM96.77 7.19c2.882 0 4.775 1.955 5.102 4.213H91.579c.391-2.258 2.31-4.213 5.191-4.213zm10.35-1.947h2.4v2.405h.033a4.61 4.61 0 011.02-1.26c.718-.63 1.828-1.293 3.6-1.293h1.804v2.406h-1.804c-2.735 0-4.653 1.922-4.653 4.663v8.124h-2.4V5.244zm13.198 0h-2.4V20.29h2.4v-8.124c0-3.01 1.918-4.965 4.653-4.965 2.4 0 4.049 1.35 4.049 4.36v8.721h2.4v-8.868c0-4.058-2.4-6.463-6-6.463-1.804 0-3.094.662-3.902 1.292-.473.36-.865.778-1.167 1.26h-.033V5.244zm14.557 0h2.4v15.037h-2.4V5.244zm6.604 0h-1.951v2.267h1.951V20.29h7.355v-2.258h-4.955V7.502h4.8V5.246h-4.8V2.332h-2.4v2.913zm10.801 0l3.298 12.78h2.253l3.902-12.78h2.547L157.978 26h-2.547l1.804-5.71h-3.453l-4.048-15.038h2.546v-.008zM134.875 0h2.4v2.708h-2.4V0zM27.683 2.776c-2.766 0-5.28 1.126-7.092 2.938l-9.769 9.77h3.583l3.281-3.282 4.7-4.7a7.496 7.496 0 015.306-2.196c4.137 0 7.508 3.37 7.508 7.508s-3.37 7.509-7.508 7.509c-2.963 0-5.517-1.722-6.741-4.22l-1.87 1.87c1.755 2.92 4.946 4.888 8.602 4.888 5.542 0 10.039-4.497 10.039-10.038 0-5.542-4.489-10.047-10.039-10.047zM17.13 19.915a10.011 10.011 0 01-7.092 2.938C4.497 22.853 0 18.356 0 12.814 0 7.273 4.497 2.776 10.038 2.776c3.656 0 6.847 1.959 8.61 4.88l-1.869 1.87c-1.224-2.498-3.778-4.22-6.74-4.22-4.138 0-7.517 3.37-7.517 7.508s3.37 7.509 7.508 7.509c2.073 0 3.942-.841 5.305-2.196l4.7-4.7 3.281-3.281H26.9l-9.769 9.769z" clip-rule="evenodd"></path><defs><linearGradient id="paint0_linear_446_1544" x1="0" x2="147.673" y1="13" y2="62.522" gradientUnits="userSpaceOnUse"><stop stop-color="#00E8C2"></stop><stop offset="1" stop-color="#6A2AFF"></stop></linearGradient></defs></svg>