<svg width="222" height="40" viewBox="0 0 222 40" fill="none" xmlns="http://www.w3.org/2000/svg">
<mask id="mask0_1416_1295" style="mask-type:luminance" maskUnits="userSpaceOnUse" x="0" y="0" width="222" height="40">
<path d="M221.698 0H0V39.192H221.698V0Z" fill="white"/>
</mask>
<g mask="url(#mask0_1416_1295)">
<path d="M54.0176 33.2727H58.9011V19.8824C58.9019 19.251 59.0537 18.6291 59.3437 18.0683C59.6338 17.5075 60.0536 17.0241 60.5683 16.6585L62.4282 15.3464V14.3838L54.0243 20.2559V33.2727H54.0176Z" fill="white"/>
<path d="M54.0154 10.7145V14.0952C54.0143 14.7265 53.8624 15.3485 53.5724 15.9092C53.2824 16.47 52.8626 16.9533 52.3481 17.3191L50.4883 18.6312V19.5939L58.8902 13.7217V9.93279C58.8902 7.82076 59.7421 7.27398 61.5933 7.27398C62.6192 7.26458 63.6247 7.56119 64.4812 8.12591H64.8557L65.4814 6.2401C63.976 5.50618 62.3141 5.15125 60.6403 5.20622C56.344 5.20526 54.0154 7.12573 54.0154 10.7145Z" fill="white"/>
<path d="M75.8722 14.3373C72.8168 14.299 69.8102 15.1048 67.1834 16.6659L68.0344 18.5864H68.3655C70.28 17.2248 72.5625 16.4763 74.9115 16.4397C77.424 16.4397 78.944 17.4023 78.944 19.9851V22.4273C77.2272 21.3225 75.2143 20.7678 73.1739 20.837C68.6986 20.837 65.4824 23.0963 65.4824 27.1982C65.4824 31.3 68.481 33.7075 72.8784 33.7075C73.9982 33.7575 75.116 33.573 76.1604 33.1658C77.2047 32.7587 78.1525 32.1379 78.943 31.3433V33.2599H83.8612V20.9506C83.8612 16.1105 80.7942 14.3286 75.8712 14.3286M78.9392 29.1533C78.3693 29.8972 77.6368 30.5008 76.7977 30.9179C75.9586 31.335 75.0351 31.5546 74.0981 31.5599C73.5919 31.5886 73.0856 31.5074 72.6138 31.3218C72.1421 31.1362 71.7161 30.8506 71.3652 30.4848C71.0143 30.1189 70.7468 29.6813 70.5811 29.2022C70.4154 28.7231 70.3555 28.2138 70.4054 27.7093V26.7881C70.4054 24.0859 72.1083 22.8692 74.6208 22.8692C76.1837 22.8642 77.7053 23.3714 78.9527 24.3131V29.1533H78.9392Z" fill="white"/>
<path d="M94.9113 18.0743V14.7772L89.9922 18.184V33.2695H94.9113V20.4029C95.4914 19.5478 96.2669 18.8432 97.1735 18.3475C98.0802 17.8518 99.092 17.5793 100.125 17.5525C100.965 17.5194 101.801 17.6843 102.566 18.0338L102.896 17.9559V14.4769C102.474 14.3683 102.038 14.3187 101.602 14.3296C100.273 14.3925 98.9778 14.7627 97.8169 15.4111C96.656 16.0596 95.6613 16.9686 94.9113 18.0666" fill="white"/>
<path d="M131.366 14.3373C128.605 14.472 125.983 15.5875 123.971 17.4832C123.266 15.4154 121.46 14.3373 118.757 14.3373C116.09 14.4656 113.563 15.5698 111.656 17.4399V14.7772L106.738 18.184V33.2695H111.656V19.6645C113.169 18.1522 115.358 16.9624 116.984 16.9624C118.61 16.9624 119.347 17.925 119.347 19.7348V33.2599H124.266V19.5904C125.821 18.1128 128.002 16.9662 129.592 16.9662C131.183 16.9662 131.999 17.9289 131.999 19.7387V33.2599H136.882V19.6559C136.882 16.2144 134.884 14.3286 131.373 14.3286" fill="white"/>
<path d="M146.122 18.5953C146.122 17.2659 147.53 16.414 150.006 16.414C151.985 16.359 153.925 16.971 155.515 18.1516H155.923L156.775 16.3437C154.785 14.9812 152.415 14.2818 150.005 14.3453C145.199 14.3453 142.054 16.492 142.054 19.7418C142.054 26.7287 153.404 24.66 153.404 29.0227C153.404 30.6476 152.04 31.6468 149.415 31.6468C146.945 31.6872 144.539 30.8632 142.611 29.3172H142.203L141.203 31.0914C143.578 32.8705 146.485 33.7949 149.451 33.7146C154.108 33.7146 158.027 31.8297 158.027 27.6846C158.027 20.7671 146.122 22.4709 146.122 18.5867" fill="white"/>
<path d="M171.226 14.3374C165.387 14.3374 161.207 17.8481 161.207 24.0264C161.207 30.2046 165.352 33.7153 171.892 33.7153C174.985 33.8392 178.002 32.737 180.287 30.6484L179.069 29.1717H178.661C176.926 30.8095 174.616 31.6992 172.231 31.6486C168.39 31.6486 166.313 29.91 166.313 26.3213V24.5837H180.881V23.9099C180.881 17.8482 176.887 14.3374 171.226 14.3374ZM176.067 22.5497H166.308V21.846C166.308 18.0744 168.377 16.4148 171.226 16.4148C174.076 16.4148 176.067 18.0744 176.067 21.846V22.5497Z" fill="white"/>
<path d="M197.807 14.3374C195.056 14.4711 192.444 15.5874 190.446 17.4833V14.7793L185.527 18.186V33.2716H190.446V19.6647C192.037 18.187 194.331 16.9625 196.068 16.9625C197.806 16.9625 198.51 17.9252 198.51 19.7349V33.2619H203.429V19.5867C203.429 16.1452 201.396 14.3374 197.807 14.3374Z" fill="white"/>
<path d="M215.345 9.88016V7.56982H213.973C213.974 8.28815 213.806 8.99666 213.483 9.63824C213.16 10.2798 212.69 10.8365 212.113 11.2635L210.47 12.4803V14.0445C210.469 14.676 210.317 15.2981 210.027 15.8589C209.736 16.4197 209.316 16.903 208.801 17.2684L206.941 18.5805V19.5431L215.345 13.6778V9.88016Z" fill="white"/>
<path d="M221.028 30.8326H220.664C219.813 31.3751 218.822 31.6587 217.813 31.6489C216.005 31.6489 215.154 31.0925 215.154 29.0585V19.8961C215.155 19.2648 215.307 18.6429 215.597 18.0821C215.887 17.5213 216.307 17.038 216.821 16.6722L218.681 15.3601V14.3975L210.279 20.2696V28.2037C210.279 31.7924 212.572 33.7128 216.9 33.7128C218.563 33.7683 220.213 33.4132 221.706 32.679L221.037 30.8278L221.028 30.8326Z" fill="white"/>
<path d="M19.144 0.764335C15.5123 0.76391 11.9579 1.81382 8.90934 3.78754C5.86074 5.76125 3.44801 8.57454 1.96195 11.8883C0.475889 15.2021 -0.0200783 18.8749 0.53381 22.4642C1.0877 26.0534 2.66781 29.4059 5.0837 32.1175L0 35.714V39.1891L7.21306 34.1574C10.8781 37.1604 15.5408 38.6711 20.2706 38.388C25.0004 38.1049 29.4495 36.0488 32.7302 32.6299C36.0108 29.2111 37.8818 24.681 37.9697 19.9436C38.0576 15.2061 36.3559 10.6097 33.2043 7.07156L38.2881 3.48283V0L31.075 5.03172C27.7122 2.27046 23.4952 0.762152 19.144 0.764335ZM37.9405 3.30186L32.1098 7.42099C30.4447 8.59584 29.0859 10.1533 28.1478 11.9625C27.2097 13.7716 26.7197 15.7796 26.719 17.8175V20.1192L11.5517 30.7188L0.341741 38.5393V35.8892L6.16956 31.7671C7.83462 30.5922 9.19329 29.0347 10.1314 27.2255C11.0694 25.4164 11.5595 23.4085 11.5604 21.3706V19.0747L26.7239 8.48568L37.9425 0.65652L37.9405 3.30186Z" fill="white"/>
</g>
</svg>
