<svg width="194" height="43" viewBox="0 0 194 43" fill="none" xmlns="http://www.w3.org/2000/svg">
<path d="M59.0706 31.1345V11.7628H65.0321V15.8231C65.6937 12.9282 67.916 11.4421 70.2149 11.4421C70.917 11.4421 71.3069 11.4819 71.7735 11.6024V17.3092C71.0715 17.2296 70.721 17.1887 69.9795 17.1887C66.7463 17.1887 65.0321 19.3593 65.0321 23.6596V31.1345H59.0706ZM93.1663 23.1366H79.2947C79.4108 25.6688 81.0482 27.0344 83.6977 27.0344C85.53 27.0344 86.6987 26.5125 87.2047 25.3051H93.0491C92.4643 29.1232 88.6845 31.6544 83.6977 31.6544C77.3068 31.6544 73.3715 27.9179 73.3715 21.446C73.3715 14.9762 77.3856 11.2377 83.5027 11.2377C89.6209 11.2377 93.3229 14.9752 93.3229 20.442C93.3229 21.4471 93.2845 22.0487 93.1673 23.1334L93.1663 23.1366ZM87.4381 19.3195C87.3997 16.7475 85.9967 15.3818 83.4623 15.3818C80.929 15.3818 79.332 16.9487 79.2936 19.3195H87.4381ZM108.598 26.2316V31.1345C107.74 31.2949 106.338 31.4552 104.623 31.4552C101.818 31.4552 97.9592 30.8117 97.9592 24.3419V16.6269H94.9976V11.7638H97.9592V6.01613H103.921V11.7628H108.168V16.6259H103.921V23.0559C103.921 25.9088 105.051 26.3521 106.531 26.3521C107.194 26.3521 108.051 26.3123 108.598 26.2316ZM112.028 31.1345V11.7628H117.989V15.8231C118.652 12.9282 120.873 11.4421 123.172 11.4421C123.874 11.4421 124.263 11.4819 124.731 11.6024V17.3092C124.029 17.2296 123.678 17.1887 122.938 17.1887C119.702 17.1887 117.987 19.3593 117.987 23.6596V31.1345H112.026H112.028ZM146.124 23.1366H132.252C132.368 25.6688 134.005 27.0344 136.655 27.0344C138.487 27.0344 139.656 26.5125 140.162 25.3051H146.007C145.422 29.1232 141.643 31.6544 136.655 31.6544C130.264 31.6544 126.329 27.9179 126.329 21.446C126.329 14.9762 130.343 11.2377 136.461 11.2377C142.578 11.2377 146.281 14.9752 146.281 20.442C146.281 21.4471 146.242 22.0487 146.126 23.1334L146.124 23.1366ZM140.395 19.3195C140.357 16.7475 138.954 15.3818 136.421 15.3818C133.886 15.3818 132.289 16.9487 132.251 19.3195H140.395ZM168.685 23.1366H154.813C154.93 25.6688 156.567 27.0344 159.216 27.0344C161.049 27.0344 162.217 26.5125 162.723 25.3051H168.568C167.983 29.1232 164.204 31.6544 159.216 31.6544C152.826 31.6544 148.89 27.9179 148.89 21.446C148.89 14.9762 152.904 11.2377 159.021 11.2377C165.14 11.2377 168.842 14.9752 168.842 20.442C168.842 21.4471 168.803 22.0487 168.686 23.1334L168.685 23.1366ZM162.957 19.3195C162.918 16.7475 161.515 15.3818 158.982 15.3818C156.448 15.3818 154.851 16.9487 154.811 19.3195H162.957ZM193 21.4492C193 27.5176 189.377 31.6575 184.193 31.6575C181.425 31.6575 179.167 30.2111 178.193 28.4022V31.1345H172.27V3.00184H178.193V14.536C179.206 12.6872 181.544 11.2398 184.349 11.2398C189.493 11.2398 193 15.3409 193 21.4492ZM186.921 21.4492C186.921 18.4747 185.09 16.3869 182.479 16.3869C179.869 16.3869 177.959 18.4359 177.959 21.4492C177.959 24.4624 179.83 26.5533 182.479 26.5533C185.128 26.5533 186.921 24.4624 186.921 21.4492ZM33.4262 25.5723C37.5928 23.2582 40.4652 18.7671 40.4652 13.8967C40.4652 6.29073 34.1593 1 25.2341 1H1V42H17.7285V29.7647H18.1308L23.0233 42H41.442L33.4262 25.5723Z" fill="white"/>
<path d="M18.6223 6.29073C13.0382 6.29073 8.51184 10.8792 8.51184 16.541C8.51184 22.2027 13.0372 26.7913 18.6223 26.7913H28.7328V6.29178L18.6223 6.29073Z" fill="#1D1D1B"/>
<path d="M28.6395 26.7913C34.2236 26.7913 38.75 22.2027 38.75 16.541C38.75 10.8803 34.2236 6.29073 28.6395 6.29073C23.0554 6.29073 18.529 10.8803 18.529 16.541C18.529 22.2027 23.0554 26.7913 28.6395 26.7913Z" fill="white"/>
<path d="M59.0706 31.1345V11.7628H65.0321V15.8231C65.6937 12.9282 67.916 11.4421 70.2149 11.4421C70.917 11.4421 71.3069 11.4819 71.7735 11.6024V17.3092C71.0715 17.2296 70.721 17.1887 69.9795 17.1887C66.7463 17.1887 65.0321 19.3593 65.0321 23.6596V31.1345H59.0706ZM93.1663 23.1366H79.2947C79.4108 25.6688 81.0482 27.0344 83.6977 27.0344C85.53 27.0344 86.6987 26.5125 87.2047 25.3051H93.0491C92.4643 29.1232 88.6845 31.6544 83.6977 31.6544C77.3068 31.6544 73.3715 27.9179 73.3715 21.446C73.3715 14.9762 77.3856 11.2377 83.5027 11.2377C89.6209 11.2377 93.3229 14.9752 93.3229 20.442C93.3229 21.4471 93.2845 22.0487 93.1673 23.1334L93.1663 23.1366ZM87.4381 19.3195C87.3997 16.7475 85.9967 15.3818 83.4623 15.3818C80.929 15.3818 79.332 16.9487 79.2936 19.3195H87.4381ZM108.598 26.2316V31.1345C107.74 31.2949 106.338 31.4552 104.623 31.4552C101.818 31.4552 97.9592 30.8117 97.9592 24.3419V16.6269H94.9976V11.7638H97.9592V6.01613H103.921V11.7628H108.168V16.6259H103.921V23.0559C103.921 25.9088 105.051 26.3521 106.531 26.3521C107.194 26.3521 108.051 26.3123 108.598 26.2316ZM112.028 31.1345V11.7628H117.989V15.8231C118.652 12.9282 120.873 11.4421 123.172 11.4421C123.874 11.4421 124.263 11.4819 124.731 11.6024V17.3092C124.029 17.2296 123.678 17.1887 122.938 17.1887C119.702 17.1887 117.987 19.3593 117.987 23.6596V31.1345H112.026H112.028ZM146.124 23.1366H132.252C132.368 25.6688 134.005 27.0344 136.655 27.0344C138.487 27.0344 139.656 26.5125 140.162 25.3051H146.007C145.422 29.1232 141.643 31.6544 136.655 31.6544C130.264 31.6544 126.329 27.9179 126.329 21.446C126.329 14.9762 130.343 11.2377 136.461 11.2377C142.578 11.2377 146.281 14.9752 146.281 20.442C146.281 21.4471 146.242 22.0487 146.126 23.1334L146.124 23.1366ZM140.395 19.3195C140.357 16.7475 138.954 15.3818 136.421 15.3818C133.886 15.3818 132.289 16.9487 132.251 19.3195H140.395ZM168.685 23.1366H154.813C154.93 25.6688 156.567 27.0344 159.216 27.0344C161.049 27.0344 162.217 26.5125 162.723 25.3051H168.568C167.983 29.1232 164.204 31.6544 159.216 31.6544C152.826 31.6544 148.89 27.9179 148.89 21.446C148.89 14.9762 152.904 11.2377 159.021 11.2377C165.14 11.2377 168.842 14.9752 168.842 20.442C168.842 21.4471 168.803 22.0487 168.686 23.1334L168.685 23.1366ZM162.957 19.3195C162.918 16.7475 161.515 15.3818 158.982 15.3818C156.448 15.3818 154.851 16.9487 154.811 19.3195H162.957ZM193 21.4492C193 27.5176 189.377 31.6575 184.193 31.6575C181.425 31.6575 179.167 30.2111 178.193 28.4022V31.1345H172.27V3.00184H178.193V14.536C179.206 12.6872 181.544 11.2398 184.349 11.2398C189.493 11.2398 193 15.3409 193 21.4492ZM186.921 21.4492C186.921 18.4747 185.09 16.3869 182.479 16.3869C179.869 16.3869 177.959 18.4359 177.959 21.4492C177.959 24.4624 179.83 26.5533 182.479 26.5533C185.128 26.5533 186.921 24.4624 186.921 21.4492ZM33.4262 25.5723C37.5928 23.2582 40.4652 18.7671 40.4652 13.8967C40.4652 6.29073 34.1593 1 25.2341 1H1V42H17.7285V29.7647H18.1308L23.0233 42H41.442L33.4262 25.5723Z" stroke="#1D1D1B" stroke-width="0.5" stroke-miterlimit="10"/>
<path d="M18.6223 6.29073C13.0382 6.29073 8.51184 10.8792 8.51184 16.541C8.51184 22.2027 13.0372 26.7913 18.6223 26.7913H28.7328V6.29178L18.6223 6.29073Z" stroke="#1D1D1B" stroke-width="0.5" stroke-miterlimit="10"/>
<path d="M28.6395 26.7913C34.2236 26.7913 38.75 22.2027 38.75 16.541C38.75 10.8803 34.2236 6.29073 28.6395 6.29073C23.0554 6.29073 18.529 10.8803 18.529 16.541C18.529 22.2027 23.0554 26.7913 28.6395 26.7913Z" stroke="#1D1D1B" stroke-width="0.5" stroke-miterlimit="10"/>
</svg>
