<svg width="144" height="61" viewBox="0 0 144 61" fill="none" xmlns="http://www.w3.org/2000/svg">
<path d="M67.9392 46.3838C67.9543 45.1279 67.7553 43.8783 67.3503 42.6911C66.8588 41.2039 65.9054 39.9174 64.6323 39.023C63.3592 38.1287 61.8347 37.6741 60.2857 37.7275C58.7235 37.6857 57.1894 38.153 55.9096 39.0608C54.6782 39.9674 53.7533 41.2361 53.26 42.6937C52.838 43.8768 52.6382 45.1294 52.6711 46.3868H45.9599C45.9426 44.4555 46.2476 42.5353 46.8627 40.7071C47.7821 38.0249 49.5474 35.723 51.8865 34.1553C54.4246 32.5968 57.3363 31.7727 60.3053 31.7727C63.2743 31.7727 66.1861 32.5968 68.7242 34.1553C71.0592 35.718 72.8127 38.0234 73.7077 40.7071C74.3572 42.5275 74.6765 44.4517 74.65 46.3868L67.9392 46.3838Z" fill="#449764"/>
<path d="M51.8868 26.8669C49.5377 25.3006 47.7706 22.9887 46.863 20.2948C45.6589 16.6063 45.6589 12.624 46.863 8.93553C47.7824 6.25345 49.5473 3.95137 51.8868 2.38372C54.4245 0.825225 57.3366 0.00109444 60.3052 0.00109444C63.2742 0.00109444 66.1864 0.825225 68.7241 2.38372C71.0591 3.94641 72.8126 6.25181 73.7076 8.93553C74.3575 10.7559 74.6765 12.68 74.6499 14.6152C74.672 16.55 74.353 18.4733 73.7076 20.2948C72.7912 22.9726 71.0336 25.2736 68.7034 26.8466C66.2122 28.4787 63.2908 29.3094 60.3237 29.2291C57.3414 29.3113 54.4031 28.4886 51.8868 26.8669ZM64.6817 21.9407C65.9338 21.0505 66.8694 19.7765 67.3505 18.3069C67.7471 17.1173 67.9461 15.8694 67.9395 14.614C67.9546 13.3579 67.7556 12.1086 67.3505 10.9211C66.8591 9.43394 65.9057 8.14726 64.6326 7.25279C63.3595 6.35828 61.835 5.90387 60.286 5.95725C58.7238 5.91537 57.1893 6.38267 55.9095 7.29022C54.6785 8.19724 53.7532 9.46607 53.2603 10.924C52.8383 12.1071 52.6385 13.3596 52.6714 14.6169C52.6474 15.8736 52.8468 17.1245 53.2603 18.3098C53.7447 19.7907 54.6922 21.0721 55.9594 21.9606C57.227 22.8492 58.7452 23.2968 60.286 23.236C61.8483 23.2765 63.3839 22.8246 64.6814 21.943L64.6817 21.9407Z" fill="#449764"/>
<path d="M2.74955 26.8079C0.91651 25.1937 0 22.9301 0 20.0173V19.4615H6.31879V19.8585C6.2836 20.3929 6.35978 20.9289 6.54233 21.4316C6.72487 21.9344 7.00977 22.3928 7.37852 22.7771C8.2042 23.4953 9.27453 23.8586 10.3612 23.7896C11.1149 23.8112 11.8644 23.6692 12.5591 23.3729C13.1152 23.1352 13.5823 22.725 13.8932 22.2016C14.1296 21.749 14.251 21.2442 14.2467 20.7324C14.2546 20.2928 14.1604 19.8575 13.9717 19.4615C13.4753 18.6145 12.3894 18.019 10.7141 17.6747L7.29947 16.9995C4.3166 16.3906 2.2888 15.0934 1.21609 13.1078C0.521115 11.8324 0.169319 10.3947 0.195892 8.93856C0.154247 7.38242 0.534186 5.8444 1.29457 4.49108C2.13195 3.03676 3.39212 1.87898 4.90338 1.17546C6.66258 0.359399 8.58222 -0.0411274 10.517 0.00418801C13.7355 0.00418801 16.267 0.804947 18.1115 2.40644C19.956 4.00794 20.8783 6.26467 20.8783 9.17675V9.7331H14.5199V9.33846C14.5565 8.80703 14.4808 8.27383 14.2981 7.77422C14.1154 7.27461 13.8298 6.82009 13.4602 6.44069C12.6287 5.73472 11.5608 5.37927 10.4775 5.44793C9.7306 5.42496 8.98775 5.56714 8.30079 5.86461C7.75137 6.10605 7.29057 6.51567 6.98326 7.0359C6.7166 7.47768 6.58043 7.98745 6.59088 8.50503C6.57954 8.93213 6.67407 9.35535 6.86585 9.73602C7.33673 10.557 8.4226 11.1393 10.1235 11.4828L13.4991 12.158C16.4557 12.7673 18.5096 14.091 19.661 16.129C20.3457 17.4214 20.684 18.8726 20.6422 20.3383C20.6771 21.8886 20.3119 23.4213 19.5825 24.7852C18.729 26.2295 17.4633 27.3785 15.952 28.0811C14.1839 28.8878 12.259 29.2814 10.32 29.2327C7.10378 29.2308 4.5803 28.4225 2.74955 26.8079Z" fill="#F9F7F0"/>
<path d="M43.9595 9.5719C44.0005 11.1834 43.6073 12.7757 42.8215 14.1782C42.0413 15.5502 40.8816 16.6614 39.4851 17.375C37.9388 18.1541 36.2289 18.5423 34.5017 18.5063H29.792V28.5128H23.3936V0.718073H34.5006C36.2342 0.683466 37.9506 1.0715 39.5047 1.84937C40.8956 2.54539 42.0498 3.6443 42.8215 5.00622C43.5973 6.39784 43.9905 7.97445 43.9595 9.5719ZM37.4839 9.5719C37.4968 8.98607 37.3473 8.40831 37.0527 7.90395C36.7779 7.41604 36.3593 7.0273 35.8553 6.79236C35.246 6.51256 34.5818 6.37677 33.9129 6.39537H29.792V12.8284H33.9129C34.5839 12.8478 35.2498 12.7049 35.8553 12.4117C36.3582 12.1653 36.7757 11.7707 37.0527 11.2798C37.351 10.7623 37.5002 10.1708 37.4839 9.5719Z" fill="#F9F7F0"/>
<path d="M92.195 17.4751L98.0041 28.5144H90.5076L84.9348 17.7133H83.6395V28.5144H77.2422V0.717957H88.7028C90.3924 0.676771 92.0698 1.02291 93.6088 1.73044C94.938 2.35261 96.0472 3.371 96.7882 4.64905C97.4828 5.92468 97.8343 7.36228 97.8084 8.81838C97.852 10.2085 97.5119 11.5835 96.827 12.7894C96.2429 13.802 95.3755 14.6171 94.3347 15.132C93.1092 15.75 91.7885 16.1529 90.4297 16.3236L92.195 17.4751ZM83.6395 6.39642V12.5912H87.8388C89.356 12.5912 90.3895 12.089 90.9396 11.0844C91.2069 10.585 91.3421 10.0242 91.3321 9.45643C91.3513 8.90497 91.2295 8.35781 90.9784 7.86791C90.4027 6.88886 89.356 6.39911 87.8388 6.39874L83.6395 6.39642Z" fill="#F9F7F0"/>
<path d="M99.1415 0.717952H121.825V6.67401H113.666V28.5138H107.269V6.67401H99.1445L99.1415 0.717952Z" fill="#F9F7F0"/>
<path d="M125.87 26.8072C124.037 25.1929 123.12 22.9293 123.12 20.0165V19.4608H129.439V19.8577C129.404 20.3922 129.48 20.9281 129.662 21.4309C129.845 21.9337 130.13 22.3921 130.499 22.7764C131.325 23.4947 132.395 23.858 133.482 23.7888C134.236 23.8105 134.985 23.6684 135.68 23.3721C136.236 23.1346 136.704 22.7244 137.015 22.2008C137.251 21.7483 137.372 21.2434 137.368 20.7317C137.376 20.2922 137.281 19.8568 137.093 19.4608C136.597 18.6138 135.511 18.0182 133.835 17.674L130.421 16.9988C127.438 16.3899 125.41 15.0927 124.337 13.1071C123.642 11.8317 123.291 10.394 123.317 8.93785C123.275 7.38171 123.655 5.84369 124.416 4.49036C125.253 3.03601 126.513 1.87821 128.025 1.17473C129.784 0.358686 131.703 -0.0418394 133.638 0.00345541C136.857 0.00345541 139.388 0.804215 141.233 2.40571C143.077 4.00719 144 6.26395 144 9.176V9.73239H137.642V9.33771C137.678 8.80631 137.603 8.27308 137.42 7.77351C137.237 7.2739 136.952 6.81934 136.582 6.43998C135.751 5.73401 134.683 5.37852 133.599 5.44718C132.853 5.42421 132.11 5.56639 131.423 5.86386C130.873 6.1053 130.413 6.51496 130.105 7.03515C129.839 7.47693 129.702 7.9867 129.713 8.50428C129.702 8.93142 129.796 9.35464 129.988 9.73527C130.458 10.5563 131.544 11.1385 133.245 11.482L136.621 12.1572C139.578 12.7666 141.631 14.0902 142.783 16.1283C143.468 17.4207 143.806 18.8719 143.764 20.3376C143.799 21.8879 143.434 23.4206 142.704 24.7845C141.851 26.2287 140.585 27.3778 139.074 28.0804C137.305 28.8871 135.38 29.2807 133.441 29.232C130.225 29.23 127.701 28.4218 125.87 26.8072Z" fill="#F9F7F0"/>
<path d="M23.8439 58.614C21.5321 57.0308 19.7901 54.7319 18.8793 52.0623C17.6752 48.3737 17.6752 44.3915 18.8793 40.7029C19.7925 38.0292 21.542 35.729 23.8628 34.1511C26.1763 32.5307 28.9389 31.6964 31.7517 31.7686C33.9089 31.7265 36.048 32.1742 38.0115 33.079C39.8322 33.8892 41.3948 35.1952 42.525 36.8513C43.66 38.5623 44.3176 40.5516 44.4284 42.6092H37.7571C37.674 41.9117 37.454 41.2386 37.1102 40.6281C36.7668 40.0181 36.3062 39.4832 35.7558 39.0554C34.6235 38.1379 33.2019 37.6646 31.7523 37.7225C30.358 37.7136 29.002 38.1835 27.9058 39.0554C26.684 39.9673 25.7665 41.2348 25.276 42.6884C24.8539 43.8715 24.6542 45.124 24.6872 46.3815C24.6631 47.6382 24.8625 48.8889 25.276 50.0742C25.7499 51.5151 26.6552 52.771 27.8663 53.6676C28.9584 54.5189 30.2948 54.9866 31.6733 55.0005C33.0439 54.9975 34.3753 54.5369 35.4608 53.69C36.5258 52.8072 37.2084 51.539 37.3642 50.1549H44.0366C43.9151 52.1647 43.2797 54.1076 42.1919 55.7939C41.0994 57.4526 39.5793 58.7772 37.7962 59.6252C35.8657 60.5733 33.7401 61.0429 31.5948 60.9955C28.8263 61.0579 26.1105 60.2237 23.8439 58.614Z" fill="#F9F7F0"/>
<path d="M94.5895 52.8543V32.4855H100.359V60.282H91.0574L84.4637 44.1599L83.0513 40.1067V60.282H77.2422V32.4855H86.583L93.0985 48.5676L94.5895 52.8543Z" fill="#F9F7F0"/>
<path d="M17.3099 38.1642V32.4844H0.00144231V38.1642H5.45643V54.6035H0.00144231V60.2832H17.3093V54.6035H11.852V38.1642H17.3099Z" fill="#F9F7F0"/>
<path d="M67.9387 46.364C67.9387 46.3711 67.9387 46.3767 67.9387 46.3838C67.9453 47.6393 67.7463 48.887 67.3497 50.0768C66.8686 51.5465 65.933 52.8203 64.6809 53.7106C63.3834 54.5914 61.8471 55.0423 60.2849 55.0012C58.7444 55.0617 57.2258 54.6142 55.9586 53.7259C54.6914 52.8371 53.7439 51.5558 53.2595 50.075C52.8459 48.8896 52.6466 47.6386 52.6706 46.3819C52.6706 46.3752 52.6706 46.3692 52.6706 46.3625H45.9587C45.9391 48.2994 46.2445 50.2259 46.8614 52.0597C47.7694 54.7536 49.5365 57.0652 51.8852 58.6316C54.4019 60.2536 57.3406 61.0766 60.3232 60.9944C63.29 61.0743 66.2114 60.2439 68.7026 58.6118C71.0328 57.0387 72.79 54.7379 73.7068 52.0597C74.3537 50.2326 74.6727 48.3031 74.6487 46.3625H67.9387V46.364Z" fill="#F9F7F0"/>
</svg>
