<svg width="201" height="56" viewBox="0 0 201 56" fill="none" xmlns="http://www.w3.org/2000/svg">
<mask id="mask0_1441_572" style="mask-type:luminance" maskUnits="userSpaceOnUse" x="0" y="0" width="56" height="56">
<path d="M56 0H0V56H56V0Z" fill="white"/>
</mask>
<g mask="url(#mask0_1441_572)">
<path d="M44.8002 0.700195H11.2002C5.40121 0.700195 0.700195 5.40121 0.700195 11.2002V44.8002C0.700195 50.5992 5.40121 55.3002 11.2002 55.3002H44.8002C50.5992 55.3002 55.3002 50.5992 55.3002 44.8002V11.2002C55.3002 5.40121 50.5992 0.700195 44.8002 0.700195Z" fill="white"/>
<path d="M44.8002 0.700195H11.2002C5.40121 0.700195 0.700195 5.40121 0.700195 11.2002V44.8002C0.700195 50.5992 5.40121 55.3002 11.2002 55.3002H44.8002C50.5992 55.3002 55.3002 50.5992 55.3002 44.8002V11.2002C55.3002 5.40121 50.5992 0.700195 44.8002 0.700195Z" stroke="black" stroke-width="0.8"/>
<mask id="mask1_1441_572" style="mask-type:alpha" maskUnits="userSpaceOnUse" x="0" y="0" width="56" height="56">
<path d="M44.7992 0.700195H11.1992C5.40023 0.700195 0.699219 5.40121 0.699219 11.2002V44.8002C0.699219 50.5992 5.40023 55.3002 11.1992 55.3002H44.7992C50.5982 55.3002 55.2992 50.5992 55.2992 44.8002V11.2002C55.2992 5.40121 50.5982 0.700195 44.7992 0.700195Z" fill="white"/>
<path d="M44.7992 0.700195H11.1992C5.40023 0.700195 0.699219 5.40121 0.699219 11.2002V44.8002C0.699219 50.5992 5.40023 55.3002 11.1992 55.3002H44.7992C50.5982 55.3002 55.2992 50.5992 55.2992 44.8002V11.2002C55.2992 5.40121 50.5982 0.700195 44.7992 0.700195Z" stroke="black" stroke-width="0.8"/>
</mask>
<g mask="url(#mask1_1441_572)">
<path d="M19.7229 32.8179L25.1764 32.3211C25.291 33.5785 26.4327 34.8347 28.4739 34.6488C30.1592 34.4952 31.3627 33.4947 31.248 32.2373C31.1632 31.3061 30.4126 30.905 28.8217 30.6287L26.0084 30.1789C20.5519 29.1755 19.5594 26.1202 19.3512 23.8361C19.0456 20.4815 22.0821 17.0109 26.869 16.5748C30.6373 16.2314 35.2422 17.7377 35.6717 22.9107L30.131 23.4156C29.995 21.9233 28.7716 21.2363 27.3968 21.3616C26.0222 21.4869 25.0756 22.3715 25.1775 23.4897C25.2706 24.5125 26.2037 24.9451 27.3846 25.1664L30.8818 25.7866C35.9739 26.7309 36.892 29.9334 37.0533 31.7043C37.4693 36.2686 33.2548 39.0479 28.9981 39.4359C24.7412 39.8237 20.2057 37.6129 19.7229 32.8179Z" fill="black"/>
<path d="M49.5383 24.2228L46.041 23.6026C45.4439 23.4906 44.8933 23.3228 44.4772 23.0433C44.0549 22.7596 43.771 22.3603 43.7201 21.801C43.6086 20.5772 44.6466 19.6501 46.0663 19.5207C46.7791 19.4556 47.4632 19.6004 47.9903 19.9654C48.4889 20.3107 48.8371 20.8467 48.9365 21.5623L54.2017 21.0824C53.9583 18.6216 52.7415 17.0338 51.1338 16.0934C49.4897 15.1317 47.4275 14.8429 45.5639 15.0127C40.8314 15.4439 37.876 18.865 38.1728 22.1219C38.2757 23.2503 38.5709 24.5536 39.5025 25.6979C40.4324 26.8405 42.0109 27.842 44.7143 28.3393L47.526 28.7889L47.5278 28.7893C48.3261 28.928 48.9348 29.1008 49.3565 29.3676C49.7893 29.6413 50.0231 30.0129 50.0695 30.5232C50.1316 31.2046 49.8344 31.8112 49.3093 32.2618C48.7857 32.7108 48.0342 33.0078 47.1688 33.0866C45.1278 33.2726 43.9263 32.0597 43.7357 30.7713L38.5597 31.2429C38.8305 33.5223 40.0432 35.1902 41.7027 36.2511C43.3994 37.3357 45.5655 37.7865 47.6674 37.5949C49.7723 37.4031 51.8611 36.6202 53.3689 35.3285C54.8734 34.0396 55.7993 32.246 55.596 30.0155C55.5167 29.1454 55.2521 27.9314 54.3881 26.82C53.5263 25.7112 52.0557 24.6897 49.5383 24.2228ZM49.5383 24.2228C49.5385 24.2228 49.5382 24.2226 49.5383 24.2228Z" stroke="black" stroke-width="0.16"/>
<path d="M12.1731 27.6272L8.67572 27.0068C8.07872 26.895 7.52801 26.7272 7.11192 26.4475C6.68966 26.164 6.40586 25.7645 6.3549 25.2052C6.24339 23.9814 7.2814 23.0543 8.70106 22.9249C9.41385 22.86 10.0979 23.0046 10.6251 23.3696C11.1237 23.7151 11.472 24.2511 11.5714 24.9665L16.8364 24.4868C16.593 22.026 15.3763 20.4382 13.7686 19.4977C12.1244 18.5361 10.0623 18.2472 8.19863 18.4169C3.46611 18.8481 0.510799 22.2694 0.807562 25.5261C0.910387 26.6545 1.20572 27.9579 2.13714 29.1023C3.06714 30.2447 4.64569 31.2464 7.34906 31.7437L10.1607 32.1933L10.1626 32.1936C10.9608 32.3322 11.5695 32.5051 11.9913 32.772C12.4241 33.0457 12.6578 33.4172 12.7043 33.9274C12.7664 34.6088 12.4693 35.2154 11.944 35.666C11.4205 36.115 10.6691 36.412 9.80354 36.4909C7.76264 36.677 6.56109 35.464 6.37051 34.1757L1.19451 34.6473C1.46521 36.9265 2.67801 38.5944 4.33748 39.6553C6.03414 40.7399 8.20033 41.1907 10.3022 40.9993C12.407 40.8075 14.4958 40.0245 16.0037 38.7327C17.5083 37.4438 18.434 35.6502 18.2309 33.4199C18.1516 32.5498 17.887 31.3356 17.023 30.2244C16.161 29.1156 14.6906 28.0943 12.1731 27.6272ZM12.1731 27.6272C12.1732 27.6272 12.1729 27.6272 12.1731 27.6272Z" stroke="black" stroke-width="0.16"/>
<path d="M38.1262 0.801913L34.6289 0.181629C34.0319 0.0697078 33.4812 -0.0981174 33.0651 -0.377617C32.6428 -0.661246 32.3589 -1.06069 32.308 -1.61995C32.1965 -2.84373 33.2345 -3.77089 34.6542 -3.90025C35.367 -3.9652 36.0511 -3.82061 36.5782 -3.45551C37.0768 -3.1102 37.425 -2.57416 37.5246 -1.85869L42.7896 -2.33845C42.5462 -4.79926 41.3294 -6.38709 39.7217 -7.32747C38.0776 -8.28917 36.0156 -8.57806 34.1518 -8.40822C29.4193 -7.977 26.4639 -4.55584 26.7607 -1.29904C26.8636 -0.170597 27.1588 1.13266 28.0903 2.27697C29.0203 3.41952 30.5988 4.4211 33.3022 4.9185L36.1139 5.36808L36.1157 5.36838C36.914 5.50706 37.5227 5.67991 37.9444 5.94673C38.3772 6.2205 38.611 6.59201 38.6575 7.10217C38.7195 7.78369 38.4223 8.39022 37.8972 8.84083C37.3736 9.28986 36.6221 9.58687 35.7567 9.66575C33.7157 9.8517 32.5142 8.63881 32.3236 7.35045L27.1476 7.82209C27.4183 10.1013 28.6311 11.7693 30.2906 12.8302C31.9872 13.9148 34.1534 14.3656 36.2553 14.1741C38.3602 13.9823 40.449 13.1993 41.9568 11.9075C43.4615 10.6187 44.3872 8.82512 44.184 6.59459C44.1048 5.72454 43.8402 4.51047 42.9762 3.39907C42.1141 2.29027 40.6438 1.26888 38.1262 0.801913ZM38.1262 0.801913C38.1264 0.801946 38.1261 0.801878 38.1262 0.801913Z" stroke="black" stroke-width="0.16"/>
<path d="M56.8089 -0.901204L53.3115 -1.52149C52.7144 -1.63341 52.1637 -1.80123 51.7477 -2.08073C51.3254 -2.36436 51.0416 -2.7638 50.9906 -3.32307C50.8792 -4.54684 51.9171 -5.47401 53.3369 -5.60337C54.0496 -5.66831 54.7337 -5.52373 55.2608 -5.15862C55.7594 -4.81331 56.1076 -4.27727 56.207 -3.5618L61.4721 -4.04156C61.2288 -6.50238 60.0121 -8.09021 58.4043 -9.03059C56.7602 -9.99228 54.698 -10.2812 52.8344 -10.1114C48.1019 -9.68012 45.1465 -6.25895 45.4433 -3.00215C45.546 -1.87371 45.8414 -0.570462 46.773 0.573853C47.7029 1.71641 49.2814 2.71799 51.9848 3.21539L54.7965 3.66496L54.7983 3.66526C55.5966 3.80395 56.2053 3.9768 56.627 4.24362C57.0598 4.51739 57.2936 4.8889 57.34 5.39906C57.4021 6.08058 57.105 6.68711 56.5798 7.13772C56.0562 7.58675 55.3047 7.88376 54.4394 7.96263C52.3983 8.14859 51.1968 6.93568 51.0062 5.64733L45.8302 6.11897C46.101 8.39822 47.3137 10.0662 48.9732 11.127C50.6699 12.2116 52.836 12.6625 54.9379 12.4709C57.0427 12.2791 59.1316 11.4961 60.6394 10.2044C62.1439 8.91554 63.0698 7.122 62.8665 4.89147C62.7872 4.02142 62.5226 2.80736 61.6586 1.69595C60.7968 0.587155 59.3262 -0.434234 56.8089 -0.901204ZM56.8089 -0.901204C56.809 -0.90117 56.8087 -0.901239 56.8089 -0.901204Z" stroke="black" stroke-width="0.16"/>
<path d="M19.4436 2.50407L15.9462 1.88378C15.3492 1.77187 14.7985 1.60404 14.3824 1.32453C13.9602 1.04091 13.6764 0.641461 13.6254 0.082207C13.5139 -1.14157 14.5519 -2.06874 15.9716 -2.1981C16.6843 -2.26305 17.3684 -2.11845 17.8955 -1.75335C18.3943 -1.40804 18.7425 -0.872001 18.8419 -0.156538L24.107 -0.636296C23.8635 -3.09711 22.6468 -4.68493 21.039 -5.62531C19.3949 -6.58701 17.3329 -6.8759 15.4691 -6.70608C10.7366 -6.27484 7.78131 -2.85368 8.07807 0.403116C8.1809 1.53156 8.47623 2.83482 9.40765 3.97912C10.3377 5.12168 11.9162 6.12326 14.6196 6.62066L17.4312 7.07024L17.4331 7.07053C18.2313 7.20922 18.84 7.38207 19.2619 7.64889C19.6947 7.92266 19.9283 8.29417 19.9749 8.80433C20.037 9.48583 19.7398 10.0924 19.2145 10.543C18.6911 10.992 17.9396 11.289 17.0741 11.3679C15.0331 11.5539 13.8316 10.341 13.641 9.0526L8.46501 9.52425C8.73572 11.8035 9.94852 13.4715 11.608 14.5323C13.3047 15.6169 15.4708 16.0677 17.5726 15.8762C19.6775 15.6844 21.7663 14.9014 23.2743 13.6097C24.7788 12.3208 25.7045 10.5273 25.5014 8.29674C25.4221 7.42669 25.1575 6.21263 24.2935 5.10122C23.4315 3.99242 21.9611 2.97104 19.4436 2.50407ZM19.4436 2.50407C19.4437 2.5041 19.4434 2.50403 19.4436 2.50407Z" stroke="black" stroke-width="0.16"/>
<path d="M0.760942 4.20622L-2.73641 3.58593C-3.3334 3.47402 -3.88409 3.30619 -4.30021 3.02668C-4.72246 2.74306 -5.00626 2.3436 -5.05722 1.78436C-5.16873 0.560577 -4.1307 -0.366592 -2.71107 -0.495952C-1.99828 -0.560902 -1.31419 -0.416304 -0.78703 -0.051209C-0.288438 0.294103 0.0598348 0.830145 0.159263 1.5456L5.42433 1.06586C5.18094 -1.39497 3.96424 -2.98278 2.35651 -3.92316C0.712321 -4.88486 -1.34977 -5.17375 -3.21347 -5.00393C-7.94602 -4.57269 -10.9013 -1.15154 -10.6045 2.10525C-10.5017 3.23371 -10.2064 4.53695 -9.27497 5.68127C-8.34496 6.82383 -6.76641 7.82541 -4.06306 8.32281L-1.2514 8.77239L-1.24954 8.77268C-0.451268 8.91135 0.157415 9.08422 0.579214 9.35102C1.01201 9.62481 1.24571 9.99632 1.2922 10.5065C1.3543 11.188 1.05716 11.7945 0.531852 12.2451C0.00837808 12.6942 -0.743061 12.9912 -1.60857 13.07C-3.64947 13.256 -4.85102 12.0431 -5.04161 10.7548L-10.2176 11.2264C-9.9469 13.5056 -8.73409 15.1736 -7.07462 16.2344C-5.37796 17.3191 -3.2118 17.7699 -1.10994 17.5784C0.994898 17.3866 3.08372 16.6036 4.59161 15.3118C6.09614 14.023 7.02196 12.2294 6.8187 9.99889C6.73942 9.12883 6.47482 7.91476 5.61085 6.80337C4.7489 5.69457 3.27843 4.67319 0.760942 4.20622ZM0.760942 4.20622C0.761128 4.20625 0.760757 4.20618 0.760942 4.20622Z" stroke="black" stroke-width="0.16"/>
<path d="M42.547 49.3201L39.0498 48.6997C38.4527 48.5879 37.9019 48.42 37.486 48.1406C37.0637 47.8569 36.7798 47.4574 36.7289 46.8982C36.6174 45.6745 37.6554 44.7471 39.075 44.6178C39.7879 44.5529 40.472 44.6974 40.9991 45.0627C41.4977 45.4079 41.8459 45.944 41.9453 46.6594L47.2104 46.1797C46.9671 43.7188 45.7503 42.1311 44.1426 41.1906C42.4985 40.229 40.4363 39.9401 38.5725 40.1098C33.84 40.5412 30.8848 43.9623 31.1816 47.219C31.2843 48.3476 31.5797 49.6508 32.5111 50.7951C33.4412 51.9377 35.0197 52.9392 37.7231 53.4366L40.5346 53.8862L40.5366 53.8865C41.3349 54.0251 41.9436 54.198 42.3653 54.4649C42.7981 54.7386 43.0319 55.1101 43.0783 55.6202C43.1404 56.3019 42.8432 56.9084 42.3179 57.3589C41.7945 57.8079 41.043 58.1051 40.1775 58.1838C38.1366 58.3698 36.9351 57.1569 36.7445 55.8686L31.5685 56.3402C31.8392 58.6194 33.052 60.2875 34.7115 61.3483C36.4081 62.4328 38.5743 62.8836 40.6762 62.6922C42.7809 62.5004 44.8697 61.7174 46.3777 60.4256C47.8822 59.1367 48.8081 57.3433 48.6048 55.1127C48.5255 54.2426 48.2609 53.0287 47.3969 51.9172C46.535 50.8084 45.0643 49.7871 42.547 49.3201ZM42.547 49.3201C42.5473 49.3201 42.5468 49.3201 42.547 49.3201Z" stroke="black" stroke-width="0.16"/>
<path d="M61.2296 47.6178L57.7322 46.9976C57.1353 46.8856 56.5846 46.7178 56.1684 46.4383C55.7463 46.1546 55.4625 45.7553 55.4115 45.196C55.2999 43.9722 56.338 43.0451 57.7576 42.9156C58.4704 42.8506 59.1544 42.9954 59.6817 43.3604C60.1803 43.7057 60.5285 44.2417 60.6279 44.9573L65.893 44.4774C65.6496 42.0166 64.433 40.4288 62.8252 39.4884C61.1809 38.5267 59.1189 38.2378 57.2552 38.4077C52.5226 38.8389 49.5674 42.26 49.8642 45.5169C49.9669 46.6453 50.2623 47.9486 51.1937 49.0929C52.1236 50.2355 53.7023 51.237 56.4057 51.7343L59.2173 52.1839L59.2192 52.1843C60.0174 52.323 60.6262 52.4958 61.0479 52.7626C61.4807 53.0363 61.7143 53.4079 61.7609 53.9182C61.823 54.5996 61.5259 55.2062 61.0005 55.6568C60.4771 56.1058 59.7256 56.4028 58.8601 56.4816C56.8192 56.6676 55.6177 55.4547 55.4271 54.1663L50.2511 54.6379C50.5219 56.9173 51.7346 58.5852 53.3941 59.6461C55.0908 60.7307 57.2569 61.1815 59.3587 60.9899C61.4636 60.7981 63.5524 60.0152 65.0603 58.7235C66.5648 57.4346 67.4906 55.641 67.2874 53.4105C67.2081 52.5404 66.9435 51.3264 66.0795 50.215C65.2177 49.1062 63.7471 48.0847 61.2296 47.6178ZM61.2296 47.6178C61.2298 47.6178 61.2294 47.6176 61.2296 47.6178Z" stroke="black" stroke-width="0.16"/>
<path d="M23.8645 51.0227L20.3671 50.4023C19.77 50.2905 19.2195 50.1227 18.8033 49.843C18.3811 49.5595 18.0972 49.16 18.0463 48.6007C17.9348 47.3769 18.9727 46.4498 20.3925 46.3204C21.1053 46.2555 21.7894 46.4001 22.3165 46.7651C22.815 47.1106 23.1633 47.6466 23.2627 48.362L28.5279 47.8823C28.2845 45.4215 27.0677 43.8337 25.46 42.8932C23.8159 41.9316 21.7537 41.6427 19.8901 41.8124C15.1575 42.2436 12.2022 45.6649 12.499 48.9216C12.6018 50.05 12.8971 51.3534 13.8285 52.4976C14.7585 53.6402 16.3371 54.6419 19.0405 55.1392L21.8522 55.5888L21.8539 55.5891C22.6523 55.7277 23.2609 55.9006 23.6827 56.1675C24.1155 56.4412 24.3493 56.8127 24.3956 57.3229C24.4578 58.0043 24.1606 58.6109 23.6354 59.0615C23.1118 59.5105 22.3604 59.8075 21.495 59.8864C19.454 60.0725 18.2524 58.8595 18.0619 57.5712L12.8859 58.0428C13.1566 60.322 14.3694 61.9899 16.0289 63.0508C17.7255 64.1354 19.8917 64.5862 21.9936 64.3948C24.0985 64.203 26.1873 63.42 27.6951 62.1282C29.1997 60.8393 30.1255 59.0457 29.9221 56.8154C29.8429 55.9453 29.5783 54.7311 28.7143 53.6197C27.8524 52.5109 26.3821 51.4898 23.8645 51.0227ZM23.8645 51.0227C23.8647 51.0227 23.8643 51.0227 23.8645 51.0227Z" stroke="black" stroke-width="0.16"/>
<path d="M5.18185 52.7247L1.6845 52.1045C1.08751 51.9925 0.536808 51.8247 0.120705 51.5452C-0.301549 51.2615 -0.585348 50.8622 -0.636308 50.3029C-0.747818 49.0791 0.290198 48.1519 1.70984 48.0226C2.42264 47.9577 3.10673 48.1022 3.63388 48.4673C4.13248 48.8126 4.48074 49.3488 4.58018 50.0642L9.84523 49.5843C9.60186 47.1236 8.38515 45.5357 6.77741 44.5954C5.13323 43.6336 3.07114 43.3449 1.20743 43.5146C-3.5251 43.9458 -6.4804 47.3671 -6.18365 50.6238C-6.08082 51.7522 -5.78549 53.0554 -4.85405 54.1998C-3.92407 55.3423 -2.34552 56.3439 0.357846 56.8414L3.1695 57.291L3.17138 57.2911C3.96964 57.4299 4.57832 57.6028 5.00013 57.8695C5.43292 58.1434 5.66661 58.5149 5.71311 59.025C5.7752 59.7065 5.47807 60.313 4.95275 60.7637C4.42929 61.2127 3.67784 61.5097 2.81233 61.5886C0.771433 61.7745 -0.430115 60.5617 -0.620699 59.2734L-5.79669 59.745C-5.526 62.0242 -4.3132 63.6921 -2.65373 64.753C-0.957061 65.8376 1.20912 66.2884 3.31097 66.097C5.4158 65.9052 7.50462 65.122 9.01253 63.8304C10.5171 62.5415 11.4429 60.7479 11.2396 58.5174C11.1603 57.6474 10.8957 56.4333 10.0318 55.3219C9.1698 54.2131 7.69934 53.1916 5.18185 52.7247ZM5.18185 52.7247C5.18204 52.7249 5.18167 52.7247 5.18185 52.7247Z" stroke="black" stroke-width="0.16"/>
</g>
</g>
<path d="M64 31.5215H67.6578C67.6578 32.3457 68.3411 33.2298 69.7102 33.2298C70.8406 33.2298 71.7017 32.6507 71.7017 31.8266C71.7017 31.2163 71.2267 30.9111 70.1853 30.6373L68.3411 30.1783C64.7722 29.2028 64.2972 27.158 64.2972 25.661C64.2972 23.4623 66.5274 21.3862 69.7382 21.3862C72.2656 21.3862 75.2376 22.6381 75.2097 26.0261H71.4934C71.4934 25.048 70.7212 24.529 69.7992 24.529C68.8771 24.529 68.1938 25.048 68.1938 25.7809C68.1938 26.4512 68.7882 26.7877 69.5604 27.0015L71.849 27.6119C75.1792 28.5273 75.5958 30.6634 75.5958 31.824C75.5958 34.8155 72.6238 36.3727 69.7687 36.3727C66.9135 36.3727 64.0305 34.6669 64 31.5215Z" fill="white"/>
<path d="M86.6832 21.754H90.5772V36.01H86.6832V33.6914C86.0888 35.5536 83.8891 36.3778 82.5199 36.3778C78.8926 36.3778 76.99 33.874 77.0205 29.6019V21.754H80.9145V29.3853C80.9145 31.6128 82.2227 32.6507 83.5614 32.6507C84.9 32.6507 86.6832 31.8579 86.6832 29.294V21.754Z" fill="white"/>
<path d="M108.226 28.8665C108.226 33.475 104.985 36.3753 101.418 36.3753C99.8433 36.3753 97.9407 35.705 96.9578 34.2392V43H93.0637V21.754H96.9578V23.4937C97.9382 22.0592 99.8409 21.3863 101.418 21.3863C104.987 21.3863 108.226 24.3179 108.226 28.8665ZM104.243 28.8977C104.243 26.7904 102.637 25.1133 100.674 25.1133C98.7104 25.1133 97.0771 26.7304 97.0771 28.8977C97.0771 31.0651 98.8603 32.6535 100.674 32.6535C102.635 32.6535 104.243 31.0052 104.243 28.8977Z" fill="white"/>
<path d="M124.201 30.1783H113.766C114.183 31.8579 115.491 32.8334 117.335 32.8334C118.762 32.8334 120.129 32.1631 120.993 31.1538L123.251 33.5037C121.943 35.3059 119.535 36.3727 117.096 36.3727C112.816 36.3727 109.694 33.2898 109.694 28.8925C109.694 24.4951 113.113 21.3836 117.068 21.3836C121.023 21.3836 124.292 24.2839 124.292 28.65C124.292 29.0463 124.262 29.5341 124.203 30.1756L124.201 30.1783ZM120.365 27.5832C120.246 25.9035 118.907 24.8368 117.154 24.8368C115.549 24.8368 114.183 25.661 113.766 27.5832H120.365Z" fill="white"/>
<path d="M136.548 21.8453L135.657 25.6611C134.823 25.202 134.14 25.142 133.665 25.142C131.674 25.142 130.305 27.0642 130.305 31.1251V36.0102H126.411V21.754H130.274V24.8056C131.046 22.4243 132.624 21.3863 134.349 21.3863C135.093 21.3863 135.923 21.5089 136.548 21.8453Z" fill="white"/>
<path d="M138.675 36.0102V14H142.569V36.0102H138.675Z" fill="white"/>
<path d="M144.47 28.8977C144.47 24.3804 147.978 21.3889 151.933 21.3889C155.888 21.3889 159.396 24.3804 159.396 28.8977C159.396 33.4151 155.888 36.3779 151.933 36.3779C147.978 36.3779 144.47 33.3864 144.47 28.8977ZM155.441 28.8977C155.441 26.6704 153.866 25.1133 151.933 25.1133C150 25.1133 148.425 26.6704 148.425 28.8977C148.425 31.1251 150 32.6535 151.933 32.6535C153.866 32.6535 155.441 31.0965 155.441 28.8977Z" fill="white"/>
<path d="M173.675 21.754L165.112 42.9999H160.949L164.249 34.6669L158.749 21.754H163.029L166.298 29.9957L169.479 21.754H173.675Z" fill="white"/>
<path d="M185.219 21.754H189.113V36.0102H185.219V33.9654C184.297 35.4311 182.514 36.3779 180.642 36.3779C176.806 36.3779 173.953 33.3264 173.953 28.8977C173.953 24.4691 176.748 21.3889 180.731 21.3889C182.514 21.3889 184.299 22.1818 185.219 23.6475V21.754ZM185.1 28.8977C185.1 26.7304 183.405 25.1133 181.472 25.1133C179.539 25.1133 177.934 26.8216 177.934 28.8977C177.934 30.9738 179.45 32.6535 181.503 32.6535C183.555 32.6535 185.1 30.9451 185.1 28.8977Z" fill="white"/>
<path d="M191.676 36.0102V14H195.571V36.0102H191.676Z" fill="white"/>
<path d="M197.106 16.3592V14.5089H196.43V14H198.365V14.5089H197.667V16.3592H197.106Z" fill="white"/>
<path d="M198.691 16.3592V14H199.193L200.026 15.392L199.672 15.3886L200.515 14H201V16.3592H200.455V15.6447C200.455 15.438 200.46 15.2526 200.469 15.0886C200.48 14.9224 200.497 14.7595 200.521 14.5999L200.583 14.7752L199.95 15.7829H199.727L199.107 14.7819L199.17 14.5999C199.196 14.7505 199.213 14.9066 199.222 15.0684C199.233 15.2279 199.239 15.42 199.239 15.6447V16.3592H198.691Z" fill="white"/>
</svg>
