<svg width="213" height="30" viewBox="0 0 213 30" fill="none" xmlns="http://www.w3.org/2000/svg">
<path d="M28.8282 15.8553H73V0H43.0087C43.0087 0 31.316 0.0806837 28.992 13.5376V0.070903H0L13.4869 7.46926V29.992C13.4869 29.992 27.5903 30.8134 28.8282 15.8553Z" fill="white"/>
<path d="M85.7457 10.3896V7.72727H98.2891V10.3896H93.6133V23H90.4215V10.3896H85.7457ZM103.472 16.3778V23H100.295V7.72727H103.382V13.5664H103.517C103.775 12.8903 104.193 12.3608 104.77 11.978C105.346 11.5902 106.07 11.3963 106.94 11.3963C107.735 11.3963 108.429 11.5703 109.02 11.9183C109.617 12.2614 110.079 12.756 110.407 13.4023C110.74 14.0437 110.904 14.8118 110.9 15.7067V23H107.723V16.2734C107.728 15.5675 107.549 15.0181 107.186 14.6254C106.828 14.2326 106.326 14.0362 105.679 14.0362C105.247 14.0362 104.864 14.1282 104.531 14.3121C104.203 14.4961 103.944 14.7646 103.755 15.1175C103.571 15.4656 103.477 15.8857 103.472 16.3778ZM113.4 23V11.5455H116.479V13.544H116.599C116.808 12.8331 117.158 12.2962 117.65 11.9332C118.142 11.5653 118.709 11.3814 119.351 11.3814C119.51 11.3814 119.681 11.3913 119.865 11.4112C120.049 11.4311 120.211 11.4585 120.35 11.4933V14.3121C120.201 14.2674 119.994 14.2276 119.731 14.1928C119.467 14.158 119.226 14.1406 119.008 14.1406C118.54 14.1406 118.123 14.2425 117.755 14.4464C117.392 14.6452 117.103 14.9237 116.89 15.2816C116.681 15.6396 116.576 16.0522 116.576 16.5195V23H113.4ZM126.635 23.2237C125.476 23.2237 124.474 22.9776 123.629 22.4854C122.789 21.9883 122.14 21.2972 121.683 20.4123C121.225 19.5224 120.997 18.4908 120.997 17.3175C120.997 16.1342 121.225 15.1001 121.683 14.2152C122.14 13.3253 122.789 12.6342 123.629 12.142C124.474 11.6449 125.476 11.3963 126.635 11.3963C127.793 11.3963 128.792 11.6449 129.632 12.142C130.478 12.6342 131.129 13.3253 131.586 14.2152C132.044 15.1001 132.272 16.1342 132.272 17.3175C132.272 18.4908 132.044 19.5224 131.586 20.4123C131.129 21.2972 130.478 21.9883 129.632 22.4854C128.792 22.9776 127.793 23.2237 126.635 23.2237ZM126.65 20.7628C127.176 20.7628 127.616 20.6136 127.969 20.3153C128.322 20.0121 128.588 19.5994 128.767 19.0774C128.951 18.5554 129.043 17.9613 129.043 17.2951C129.043 16.6289 128.951 16.0348 128.767 15.5128C128.588 14.9908 128.322 14.5781 127.969 14.2749C127.616 13.9716 127.176 13.82 126.65 13.82C126.118 13.82 125.67 13.9716 125.307 14.2749C124.949 14.5781 124.678 14.9908 124.494 15.5128C124.315 16.0348 124.226 16.6289 124.226 17.2951C124.226 17.9613 124.315 18.5554 124.494 19.0774C124.678 19.5994 124.949 20.0121 125.307 20.3153C125.67 20.6136 126.118 20.7628 126.65 20.7628ZM137.515 16.3778V23H134.338V11.5455H137.366V13.5664H137.5C137.754 12.9002 138.179 12.3732 138.775 11.9854C139.372 11.5927 140.095 11.3963 140.945 11.3963C141.741 11.3963 142.434 11.5703 143.026 11.9183C143.618 12.2663 144.077 12.7635 144.406 13.4098C144.734 14.0511 144.898 14.8168 144.898 15.7067V23H141.721V16.2734C141.726 15.5724 141.547 15.0256 141.184 14.6328C140.821 14.2351 140.321 14.0362 139.685 14.0362C139.257 14.0362 138.88 14.1282 138.551 14.3121C138.228 14.4961 137.975 14.7646 137.791 15.1175C137.612 15.4656 137.52 15.8857 137.515 16.3778ZM152.622 23.2237C151.443 23.2237 150.429 22.9851 149.579 22.5078C148.734 22.0256 148.083 21.3445 147.625 20.4645C147.168 19.5795 146.939 18.533 146.939 17.3249C146.939 16.1467 147.168 15.1126 147.625 14.2227C148.083 13.3327 148.726 12.6392 149.557 12.142C150.392 11.6449 151.371 11.3963 152.495 11.3963C153.251 11.3963 153.954 11.5181 154.605 11.7617C155.262 12.0004 155.833 12.3608 156.321 12.843C156.813 13.3253 157.196 13.9318 157.469 14.6626C157.742 15.3885 157.879 16.2386 157.879 17.2131V18.0856H148.207V16.1168H154.889C154.889 15.6594 154.789 15.2543 154.59 14.9013C154.392 14.5483 154.116 14.2724 153.763 14.0735C153.415 13.8697 153.009 13.7678 152.547 13.7678C152.065 13.7678 151.637 13.8796 151.264 14.1033C150.897 14.3221 150.608 14.6179 150.399 14.9908C150.191 15.3587 150.084 15.7688 150.079 16.2212V18.093C150.079 18.6598 150.183 19.1495 150.392 19.5621C150.606 19.9748 150.907 20.293 151.294 20.5167C151.682 20.7404 152.142 20.8523 152.674 20.8523C153.027 20.8523 153.35 20.8026 153.643 20.7031C153.937 20.6037 154.188 20.4545 154.397 20.2557C154.605 20.0568 154.764 19.8132 154.874 19.5249L157.812 19.7188C157.663 20.4247 157.357 21.0412 156.895 21.5682C156.437 22.0902 155.846 22.4979 155.12 22.7912C154.399 23.0795 153.566 23.2237 152.622 23.2237ZM164.872 23V7.72727H168.101V20.3377H174.649V23H164.872ZM179.994 23.2163C179.263 23.2163 178.612 23.0895 178.04 22.8359C177.468 22.5774 177.016 22.1971 176.683 21.695C176.355 21.1879 176.191 20.5565 176.191 19.8008C176.191 19.1644 176.308 18.63 176.541 18.1974C176.775 17.7649 177.093 17.4169 177.496 17.1534C177.899 16.8899 178.356 16.6911 178.868 16.5568C179.385 16.4226 179.927 16.3281 180.494 16.2734C181.16 16.2038 181.697 16.1392 182.104 16.0795C182.512 16.0149 182.808 15.9205 182.992 15.7962C183.176 15.6719 183.268 15.4879 183.268 15.2443V15.1996C183.268 14.7273 183.119 14.3619 182.82 14.1033C182.527 13.8448 182.109 13.7156 181.568 13.7156C180.996 13.7156 180.541 13.8423 180.203 14.0959C179.865 14.3445 179.641 14.6577 179.532 15.0355L176.593 14.7969C176.743 14.1009 177.036 13.4993 177.473 12.9922C177.911 12.4801 178.475 12.0874 179.166 11.8139C179.862 11.5355 180.668 11.3963 181.582 11.3963C182.219 11.3963 182.828 11.4709 183.41 11.62C183.996 11.7692 184.516 12.0004 184.968 12.3136C185.426 12.6268 185.786 13.0295 186.049 13.5217C186.313 14.0089 186.445 14.593 186.445 15.2741V23H183.432V21.4116H183.342C183.158 21.7695 182.912 22.0852 182.604 22.3587C182.296 22.6271 181.926 22.8384 181.493 22.9925C181.06 23.1417 180.561 23.2163 179.994 23.2163ZM180.904 21.0238C181.371 21.0238 181.784 20.9318 182.142 20.7479C182.5 20.5589 182.781 20.3054 182.984 19.9872C183.188 19.669 183.29 19.3086 183.29 18.9059V17.6903C183.191 17.755 183.054 17.8146 182.88 17.8693C182.711 17.919 182.52 17.9663 182.306 18.011C182.092 18.0508 181.878 18.0881 181.665 18.1229C181.451 18.1527 181.257 18.18 181.083 18.2049C180.71 18.2596 180.384 18.3466 180.106 18.4659C179.828 18.5852 179.611 18.7468 179.457 18.9506C179.303 19.1495 179.226 19.3981 179.226 19.6964C179.226 20.1289 179.383 20.4595 179.696 20.6882C180.014 20.9119 180.417 21.0238 180.904 21.0238ZM188.969 23V7.72727H192.146V13.4695H192.243C192.382 13.1612 192.583 12.848 192.847 12.5298C193.115 12.2067 193.463 11.9382 193.891 11.7244C194.323 11.5057 194.86 11.3963 195.502 11.3963C196.337 11.3963 197.108 11.6151 197.813 12.0526C198.519 12.4851 199.084 13.1388 199.506 14.0138C199.929 14.8839 200.14 15.9751 200.14 17.2876C200.14 18.5653 199.934 19.6442 199.521 20.5241C199.114 21.3991 198.557 22.0629 197.851 22.5153C197.15 22.9627 196.364 23.1864 195.494 23.1864C194.878 23.1864 194.353 23.0845 193.921 22.8807C193.493 22.6768 193.143 22.4208 192.869 22.1126C192.596 21.7994 192.387 21.4837 192.243 21.1655H192.101V23H188.969ZM192.079 17.2727C192.079 17.9538 192.173 18.5479 192.362 19.055C192.551 19.5621 192.824 19.9574 193.182 20.2408C193.54 20.5192 193.975 20.6584 194.487 20.6584C195.005 20.6584 195.442 20.5167 195.8 20.2333C196.158 19.945 196.429 19.5472 196.613 19.0401C196.802 18.5281 196.896 17.9389 196.896 17.2727C196.896 16.6115 196.804 16.0298 196.62 15.5277C196.436 15.0256 196.165 14.6328 195.807 14.3494C195.449 14.0661 195.009 13.9244 194.487 13.9244C193.97 13.9244 193.533 14.0611 193.175 14.3345C192.822 14.608 192.551 14.9957 192.362 15.4979C192.173 16 192.079 16.5916 192.079 17.2727ZM211.79 14.8118L208.882 14.9908C208.832 14.7422 208.725 14.5185 208.561 14.3196C208.397 14.1158 208.181 13.9542 207.913 13.8349C207.649 13.7106 207.333 13.6484 206.966 13.6484C206.473 13.6484 206.058 13.7528 205.72 13.9616C205.382 14.1655 205.213 14.4389 205.213 14.782C205.213 15.0554 205.322 15.2866 205.541 15.4755C205.76 15.6644 206.135 15.8161 206.667 15.9304L208.74 16.348C209.854 16.5767 210.684 16.9446 211.231 17.4517C211.778 17.9588 212.051 18.625 212.051 19.4503C212.051 20.201 211.83 20.8597 211.388 21.4265C210.95 21.9933 210.349 22.4357 209.583 22.7539C208.822 23.0671 207.945 23.2237 206.951 23.2237C205.434 23.2237 204.226 22.908 203.326 22.2766C202.431 21.6403 201.907 20.7752 201.753 19.6815L204.877 19.5174C204.972 19.9798 205.201 20.3327 205.564 20.5763C205.926 20.815 206.391 20.9343 206.958 20.9343C207.515 20.9343 207.962 20.8274 208.3 20.6136C208.643 20.3949 208.817 20.114 208.822 19.771C208.817 19.4826 208.696 19.2464 208.457 19.0625C208.218 18.8736 207.85 18.7294 207.353 18.63L205.37 18.2347C204.251 18.011 203.418 17.6232 202.871 17.0714C202.33 16.5195 202.059 15.8161 202.059 14.9609C202.059 14.2251 202.257 13.5913 202.655 13.0593C203.058 12.5273 203.622 12.1172 204.348 11.8288C205.079 11.5405 205.934 11.3963 206.913 11.3963C208.36 11.3963 209.499 11.7021 210.329 12.3136C211.164 12.9251 211.651 13.7578 211.79 14.8118Z" fill="white"/>
</svg>
